<svg xmlns="http://www.w3.org/2000/svg" xmlns:xlink="http://www.w3.org/1999/xlink" width="1040" height="148.55"><rect width="1040" height="148.55" rx="0" ry="0" class="a"></rect><svg height="108.55000000000001" viewBox="0 0 100 10.855" width="1000" x="20" xmlns="http://www.w3.org/2000/svg" xmlns:xlink="http://www.w3.org/1999/xlink" y="20"><style>.a{fill:rgb(40,45,53)}.b{font-family:'Fira Code',Monaco,Consolas,Menlo,'Bitstream Vera Sans Mono','Powerline Symbols',monospace}.c{fill:transparent}.d{fill:rgb(185,192,203);white-space:pre}</style><g font-family="&#x27;Fira Code&#x27;,Monaco,Consolas,Menlo,&#x27;Bitstream Vera Sans Mono&#x27;,&#x27;Powerline Symbols&#x27;,monospace" font-size="1.67" class="b"><defs><symbol id="a"><rect height="6" width="100" x="0" y="0" class="c"></rect></symbol></defs><rect height="10.855" width="100" class="a"></rect><svg x="0" y="0" width="100"><svg x="0"><use xlink:href="#a"></use><text x="0" y="1.67" class="d">IdX laborum</text><text x="12.024" y="1.67" class="d">doloreX commodo</text><text x="28.055999999999997" y="1.67" class="d">Lorem</text><text x="34.068" y="1.67" class="d">esse</text><text x="39.077999999999996" y="1.67" class="d">eaX sintX proident.</text><text x="59.117999999999995" y="1.67" class="d">Officia</text><text x="67.134" y="1.67" class="d">nisi</text><text x="72.14399999999999" y="1.67" class="d">fugiat</text><text x="0" y="3.8409999999999997" class="d">mollit</text><text x="7.013999999999999" y="3.8409999999999997" class="d">inX LoremX velit</text><text x="24.048" y="3.8409999999999997" class="d">qui</text><text x="28.055999999999997" y="3.8409999999999997" class="d">exercitation</text><text x="41.082" y="3.8409999999999997" class="d">ipsumX consectetur</text><text x="60.11999999999999" y="3.8409999999999997" class="d">ad</text><text x="63.12599999999999" y="3.8409999999999997" class="d">nisi</text><text x="68.136" y="3.8409999999999997" class="d">ut.</text><text x="72.14399999999999" y="3.8409999999999997" class="d">Do</text><text x="0" y="6.012" class="d">ullamcoX exercitationX est</text><text x="27.054" y="6.012" class="d">mollitX officia</text><text x="43.086" y="6.012" class="d">reprehenderitX culpa</text><text x="64.128" y="6.012" class="d">LoremX est</text><text x="0" y="8.183" class="d">reprehenderitX excepteurX enim</text><text x="31.061999999999998" y="8.183" class="d">magna.X EaX eu</text><text x="46.09199999999999" y="8.183" class="d">irure</text><text x="52.104" y="8.183" class="d">nisiX ad.X Anim</text><text x="68.136" y="8.183" class="d">excepteur</text><text x="0" y="10.354" class="d">quisX minim</text><text x="12.024" y="10.354" class="d">laboris</text><text x="20.04" y="10.354" class="d">veniam</text><text x="27.054" y="10.354" class="d">nullaX pariatur</text><text x="43.086" y="10.354" class="d">aliqua</text><text x="50.1" y="10.354" class="d">enim.</text></svg></svg></g></svg></svg>