<svg xmlns="http://www.w3.org/2000/svg" xmlns:xlink="http://www.w3.org/1999/xlink" width="1040" height="105.13"><rect width="1040" height="105.13" rx="0" ry="0" class="a"></rect><svg height="65.13" viewBox="0 0 100 6.513" width="1000" x="20" xmlns="http://www.w3.org/2000/svg" xmlns:xlink="http://www.w3.org/1999/xlink" y="20"><style>.a{fill:rgb(40,45,53)}.b{font-family:'Fira Code',Monaco,Consolas,Menlo,'Bitstream Vera Sans Mono','Powerline Symbols',monospace}.c{fill:transparent}.d{fill:rgb(185,192,203);white-space:pre}</style><g font-family="&#x27;Fira Code&#x27;,Monaco,Consolas,Menlo,&#x27;Bitstream Vera Sans Mono&#x27;,&#x27;Powerline Symbols&#x27;,monospace" font-size="1.67" class="b"><defs><symbol id="a"><rect height="4" width="100" x="0" y="0" class="c"></rect></symbol></defs><rect height="6.513" width="100" class="a"></rect><svg x="0" y="0" width="100"><svg x="0"><use xlink:href="#a"></use><text x="0" y="1.67" class="d">●</text><text x="2.004" y="1.67" class="d">Ipsum</text><text x="8.016" y="1.67" class="d">elit</text><text x="13.026" y="1.67" class="d">ad</text><text x="16.032" y="1.67" class="d">dolore</text><text x="23.045999999999996" y="1.67" class="d">cupidatat</text><text x="33.065999999999995" y="1.67" class="d">voluptate.</text><text x="0" y="3.8409999999999997" class="d">●</text><text x="2.004" y="3.8409999999999997" class="d">Eu</text><text x="5.01" y="3.8409999999999997" class="d">magna</text><text x="11.021999999999998" y="3.8409999999999997" class="d">adipisicing</text><text x="23.045999999999996" y="3.8409999999999997" class="d">minim</text><text x="29.058" y="3.8409999999999997" class="d">tempor</text><text x="36.071999999999996" y="3.8409999999999997" class="d">cillum</text><text x="43.086" y="3.8409999999999997" class="d">sunt</text><text x="48.096" y="3.8409999999999997" class="d">et</text><text x="51.102" y="3.8409999999999997" class="d">id</text><text x="54.108" y="3.8409999999999997" class="d">eiusmod</text><text x="62.123999999999995" y="3.8409999999999997" class="d">nulla</text><text x="68.136" y="3.8409999999999997" class="d">ullamco</text><text x="2.004" y="6.012" class="d">eiusmod.</text></svg></svg></g></svg></svg>