<svg xmlns="http://www.w3.org/2000/svg" xmlns:xlink="http://www.w3.org/1999/xlink" width="1040" height="257.1"><rect width="1040" height="257.1" rx="0" ry="0" class="a"></rect><svg height="217.10000000000002" viewBox="0 0 100 21.71" width="1000" x="20" xmlns="http://www.w3.org/2000/svg" xmlns:xlink="http://www.w3.org/1999/xlink" y="20"><style>.a{fill:rgb(40,45,53)}.b{font-family:'Fira Code',Monaco,Consolas,Menlo,'Bitstream Vera Sans Mono','Powerline Symbols',monospace}.c{fill:transparent}.d{fill:rgb(185,192,203);white-space:pre}</style><g font-family="&#x27;Fira Code&#x27;,Monaco,Consolas,Menlo,&#x27;Bitstream Vera Sans Mono&#x27;,&#x27;Powerline Symbols&#x27;,monospace" font-size="1.67" class="b"><defs><symbol id="a"><rect height="11" width="100" x="0" y="0" class="c"></rect></symbol></defs><rect height="21.71" width="100" class="a"></rect><svg x="0" y="0" width="100"><svg x="0"><use xlink:href="#a"></use><text x="0" y="1.67" class="d">MinimX exercitation</text><text x="20.04" y="1.67" class="d">elitX adX reprehenderit.X Mollit</text><text x="53.105999999999995" y="1.67" class="d">nullaX mollit</text><text x="67.134" y="1.67" class="d">tempor</text><text x="0" y="3.8409999999999997" class="d">estX reprehenderit</text><text x="19.037999999999997" y="3.8409999999999997" class="d">reprehenderit</text><text x="33.065999999999995" y="3.8409999999999997" class="d">enim.X ProidentX dolor</text><text x="56.111999999999995" y="3.8409999999999997" class="d">fugiat</text><text x="0" y="6.012" class="d">voluptateX exercitationX adipisicingX cillumX voluptate</text><text x="0" y="8.183" class="d">deseruntX labore.X MagnaX reprehenderit</text><text x="40.08" y="8.183" class="d">laboris</text><text x="48.096" y="8.183" class="d">cillum</text><text x="55.10999999999999" y="8.183" class="d">suntX auteX quis</text><text x="72.14399999999999" y="8.183" class="d">labore</text><text x="0" y="10.354" class="d">pariaturX mollit</text><text x="17.034" y="10.354" class="d">laboreX temporX commodo</text><text x="41.082" y="10.354" class="d">ex.</text><text x="45.089999999999996" y="10.354" class="d">DoX temporX laborum</text><text x="0" y="12.525" class="d">voluptateX animX aliquipX irure</text><text x="32.064" y="12.525" class="d">veniamX irure</text><text x="46.09199999999999" y="12.525" class="d">cupidatat</text><text x="56.111999999999995" y="12.525" class="d">minim</text><text x="62.123999999999995" y="12.525" class="d">tempor</text><text x="69.13799999999999" y="12.525" class="d">aute.X Id</text><text x="0" y="14.696" class="d">nullaX laboris</text><text x="15.029999999999998" y="14.696" class="d">excepteur</text><text x="25.05" y="14.696" class="d">LoremX excepteur</text><text x="42.083999999999996" y="14.696" class="d">quis</text><text x="47.093999999999994" y="14.696" class="d">voluptate</text><text x="0" y="16.866999999999997" class="d">eiusmodX exercitationX mollitX velit</text><text x="37.074" y="16.866999999999997" class="d">magna.</text><text x="44.087999999999994" y="16.866999999999997" class="d">ExcepteurX deserunt</text><text x="64.128" y="16.866999999999997" class="d">id</text><text x="0" y="19.037999999999997" class="d">culpaX exercitation.X IpsumX euX pariatur</text><text x="42.083999999999996" y="19.037999999999997" class="d">incididunt</text><text x="53.105999999999995" y="19.037999999999997" class="d">velit</text><text x="59.117999999999995" y="19.037999999999997" class="d">aliquip</text><text x="0" y="21.209000000000003" class="d">reprehenderitX reprehenderitX enim</text><text x="35.06999999999999" y="21.209000000000003" class="d">etX est</text><text x="43.086" y="21.209000000000003" class="d">laboris</text><text x="51.102" y="21.209000000000003" class="d">nonX do.</text></svg></svg></g></svg></svg>