<svg xmlns="http://www.w3.org/2000/svg" xmlns:xlink="http://www.w3.org/1999/xlink" width="740" height="126.83999999999999"><rect width="740" height="126.83999999999999" rx="0" ry="0" class="a"></rect><svg height="86.83999999999999" viewBox="0 0 70 8.684" width="700" x="20" xmlns="http://www.w3.org/2000/svg" xmlns:xlink="http://www.w3.org/1999/xlink" y="20"><style>.a{fill:rgb(40,45,53)}.b{font-family:'Fira Code',Monaco,Consolas,Menlo,'Bitstream Vera Sans Mono','Powerline Symbols',monospace}.c{fill:transparent}.d{fill:rgb(102,194,205);white-space:pre}.e{fill:rgb(185,192,203);white-space:pre}.f{fill:rgb(113,190,242);white-space:pre}</style><g font-family="&#x27;Fira Code&#x27;,Monaco,Consolas,Menlo,&#x27;Bitstream Vera Sans Mono&#x27;,&#x27;Powerline Symbols&#x27;,monospace" font-size="1.67" class="b"><defs><symbol id="a"><rect height="5" width="70" x="0" y="0" class="c"></rect></symbol></defs><rect height="8.684" width="70" class="a"></rect><svg x="0" y="0" width="70"><svg x="0"><use xlink:href="#a"></use><text x="0" y="1.67" class="d">ℹ</text><text x="2.004" y="1.67" class="e">Data</text><text x="7.013999999999999" y="1.67" class="e">columns:</text><text x="16.032" y="1.67" class="f">&quot;mpg&quot;</text><text x="21.041999999999998" y="1.67" class="e">,</text><text x="23.045999999999996" y="1.67" class="f">&quot;cyl&quot;</text><text x="28.055999999999997" y="1.67" class="e">,</text><text x="30.059999999999995" y="1.67" class="f">&quot;disp&quot;</text><text x="36.071999999999996" y="1.67" class="e">,</text><text x="38.07599999999999" y="1.67" class="f">&quot;hp&quot;</text><text x="42.083999999999996" y="1.67" class="e">,</text><text x="44.087999999999994" y="1.67" class="f">&quot;drat&quot;</text><text x="50.1" y="1.67" class="e">,</text><text x="52.104" y="1.67" class="f">&quot;wt&quot;</text><text x="56.111999999999995" y="1.67" class="e">,</text><text x="58.116" y="1.67" class="f">&quot;qsec&quot;</text><text x="64.128" y="1.67" class="e">,</text><text x="66.13199999999999" y="1.67" class="f">&quot;vs&quot;</text><text x="0" y="3.8409999999999997" class="e">,</text><text x="2.004" y="3.8409999999999997" class="f">&quot;am&quot;</text><text x="6.012" y="3.8409999999999997" class="e">,</text><text x="8.016" y="3.8409999999999997" class="f">&quot;gear&quot;</text><text x="14.027999999999999" y="3.8409999999999997" class="e">,</text><text x="16.032" y="3.8409999999999997" class="e">and</text><text x="20.04" y="3.8409999999999997" class="f">&quot;carb&quot;</text><text x="26.052" y="3.8409999999999997" class="e">.</text><text x="0" y="6.012" class="d">ℹ</text><text x="2.004" y="6.012" class="e">Data</text><text x="7.013999999999999" y="6.012" class="e">columns:</text><text x="16.032" y="6.012" class="f">&quot;mpg&quot;</text><text x="21.041999999999998" y="6.012" class="e">,</text><text x="23.045999999999996" y="6.012" class="f">&quot;cyl&quot;</text><text x="28.055999999999997" y="6.012" class="e">,</text><text x="30.059999999999995" y="6.012" class="f">&quot;disp&quot;</text><text x="36.071999999999996" y="6.012" class="e">,</text><text x="38.07599999999999" y="6.012" class="f">&quot;hp&quot;</text><text x="42.083999999999996" y="6.012" class="e">,</text><text x="44.087999999999994" y="6.012" class="f">&quot;drat&quot;</text><text x="50.1" y="6.012" class="e">,</text><text x="52.104" y="6.012" class="f">&quot;wt&quot;</text><text x="56.111999999999995" y="6.012" class="e">,</text><text x="58.116" y="6.012" class="f">&quot;qsec&quot;</text><text x="64.128" y="6.012" class="e">,</text><text x="0" y="8.183" class="f">&quot;vs&quot;</text><text x="4.008" y="8.183" class="e">,</text><text x="6.012" y="8.183" class="f">&quot;am&quot;</text><text x="10.02" y="8.183" class="e">,</text><text x="12.024" y="8.183" class="f">&quot;gear&quot;</text><text x="18.035999999999998" y="8.183" class="e">,</text><text x="20.04" y="8.183" class="e">and</text><text x="24.048" y="8.183" class="f">&quot;carb&quot;</text><text x="30.059999999999995" y="8.183" class="e">.</text></svg></svg></g></svg></svg>