<svg xmlns="http://www.w3.org/2000/svg" xmlns:xlink="http://www.w3.org/1999/xlink" width="740" height="126.83999999999999"><rect width="740" height="126.83999999999999" rx="0" ry="0" class="a"></rect><svg height="86.83999999999999" viewBox="0 0 70 8.684" width="700" x="20" xmlns="http://www.w3.org/2000/svg" xmlns:xlink="http://www.w3.org/1999/xlink" y="20"><style>.a{fill:rgb(40,45,53)}.b{font-family:'Fira Code',Monaco,Consolas,Menlo,'Bitstream Vera Sans Mono','Powerline Symbols',monospace}.c{fill:transparent}.d{fill:rgb(219,171,121);font-weight:bold;white-space:pre}.e{fill:rgb(185,192,203);font-weight:bold;white-space:pre}.f{fill:rgb(219,171,121);white-space:pre}.g{fill:rgb(185,192,203);white-space:pre}.h{fill:rgb(232,131,136);white-space:pre}.i{fill:rgb(113,190,242);white-space:pre}.j{fill:rgb(111,119,131);white-space:pre}</style><g font-family="&#x27;Fira Code&#x27;,Monaco,Consolas,Menlo,&#x27;Bitstream Vera Sans Mono&#x27;,&#x27;Powerline Symbols&#x27;,monospace" font-size="1.67" class="b"><defs><symbol id="a"><rect height="5" width="70" x="0" y="0" class="c"></rect></symbol></defs><rect height="8.684" width="70" class="a"></rect><svg x="0" y="0" width="70"><svg x="0"><use xlink:href="#a"></use><text x="0" y="1.67" class="d">Error</text><text x="5.01" y="1.67" class="e">:</text><text x="0" y="3.8409999999999997" class="f">!</text><text x="2.004" y="3.8409999999999997" class="g">`n`</text><text x="6.012" y="3.8409999999999997" class="g">must</text><text x="11.021999999999998" y="3.8409999999999997" class="g">be</text><text x="14.027999999999999" y="3.8409999999999997" class="g">a</text><text x="16.032" y="3.8409999999999997" class="g">numeric</text><text x="24.048" y="3.8409999999999997" class="g">vector</text><text x="0" y="6.012" class="h">✖</text><text x="2.004" y="6.012" class="g">You&#x27;ve</text><text x="9.017999999999999" y="6.012" class="g">supplied</text><text x="18.035999999999998" y="6.012" class="g">a</text><text x="20.04" y="6.012" class="i">&lt;character&gt;</text><text x="32.064" y="6.012" class="g">vector.</text><text x="0" y="8.183" class="j">Run</text><text x="4.008" y="8.183" class="j">`rlang::last_error()`</text><text x="26.052" y="8.183" class="j">to</text><text x="29.058" y="8.183" class="j">see</text><text x="33.065999999999995" y="8.183" class="j">where</text><text x="39.077999999999996" y="8.183" class="j">the</text><text x="43.086" y="8.183" class="j">error</text><text x="49.098" y="8.183" class="j">occurred.</text></svg></svg></g></svg></svg>