<svg xmlns="http://www.w3.org/2000/svg" xmlns:xlink="http://www.w3.org/1999/xlink" width="740" height="300.52"><rect width="740" height="300.52" rx="0" ry="0" class="a"></rect><svg height="260.52" viewBox="0 0 70 26.052" width="700" x="20" xmlns="http://www.w3.org/2000/svg" xmlns:xlink="http://www.w3.org/1999/xlink" y="20"><style>.a{fill:rgb(40,45,53)}.b{font-family:'Fira Code',Monaco,Consolas,Menlo,'Bitstream Vera Sans Mono','Powerline Symbols',monospace}.c{fill:transparent}.d{fill:rgb(185,192,203);white-space:pre}</style><g font-family="&#x27;Fira Code&#x27;,Monaco,Consolas,Menlo,&#x27;Bitstream Vera Sans Mono&#x27;,&#x27;Powerline Symbols&#x27;,monospace" font-size="1.67" class="b"><defs><symbol id="a"><rect height="13" width="70" x="0" y="0" class="c"></rect></symbol></defs><rect height="26.052" width="70" class="a"></rect><svg x="0" y="0" width="70"><svg x="0"><use xlink:href="#a"></use><text x="0" y="1.67" class="d">Lorem</text><text x="6.012" y="1.67" class="d">ad</text><text x="9.017999999999999" y="1.67" class="d">ipsum</text><text x="15.029999999999998" y="1.67" class="d">veniam</text><text x="22.043999999999997" y="1.67" class="d">esse</text><text x="27.054" y="1.67" class="d">nisi</text><text x="32.064" y="1.67" class="d">deserunt</text><text x="41.082" y="1.67" class="d">duis.</text><text x="47.093999999999994" y="1.67" class="d">Qui</text><text x="51.102" y="1.67" class="d">incididunt</text><text x="62.123999999999995" y="1.67" class="d">elit</text><text x="0" y="3.8409999999999997" class="d">elit</text><text x="5.01" y="3.8409999999999997" class="d">mollit</text><text x="12.024" y="3.8409999999999997" class="d">sint</text><text x="17.034" y="3.8409999999999997" class="d">nulla</text><text x="23.045999999999996" y="3.8409999999999997" class="d">consectetur</text><text x="35.06999999999999" y="3.8409999999999997" class="d">aute</text><text x="40.08" y="3.8409999999999997" class="d">commodo</text><text x="48.096" y="3.8409999999999997" class="d">do</text><text x="51.102" y="3.8409999999999997" class="d">elit</text><text x="56.111999999999995" y="3.8409999999999997" class="d">laboris</text><text x="64.128" y="3.8409999999999997" class="d">minim</text><text x="0" y="6.012" class="d">et.</text><text x="4.008" y="6.012" class="d">Laboris</text><text x="12.024" y="6.012" class="d">ipsum</text><text x="18.035999999999998" y="6.012" class="d">mollit</text><text x="25.05" y="6.012" class="d">voluptate</text><text x="35.06999999999999" y="6.012" class="d">et</text><text x="38.07599999999999" y="6.012" class="d">non</text><text x="42.083999999999996" y="6.012" class="d">do</text><text x="45.089999999999996" y="6.012" class="d">incididunt</text><text x="56.111999999999995" y="6.012" class="d">eiusmod.</text><text x="65.13" y="6.012" class="d">Anim</text><text x="0" y="8.183" class="d">consectetur</text><text x="12.024" y="8.183" class="d">mollit</text><text x="19.037999999999997" y="8.183" class="d">laborum</text><text x="27.054" y="8.183" class="d">occaecat</text><text x="36.071999999999996" y="8.183" class="d">eiusmod</text><text x="44.087999999999994" y="8.183" class="d">excepteur.</text><text x="55.10999999999999" y="8.183" class="d">Ullamco</text><text x="63.12599999999999" y="8.183" class="d">non</text><text x="0" y="10.354" class="d">tempor</text><text x="7.013999999999999" y="10.354" class="d">esse</text><text x="12.024" y="10.354" class="d">anim</text><text x="17.034" y="10.354" class="d">tempor</text><text x="24.048" y="10.354" class="d">magna</text><text x="30.059999999999995" y="10.354" class="d">non.</text><text x="0" y="14.696" class="d">Sunt</text><text x="5.01" y="14.696" class="d">anim</text><text x="10.02" y="14.696" class="d">ullamco</text><text x="18.035999999999998" y="14.696" class="d">Lorem</text><text x="24.048" y="14.696" class="d">qui</text><text x="28.055999999999997" y="14.696" class="d">mollit</text><text x="35.06999999999999" y="14.696" class="d">anim</text><text x="40.08" y="14.696" class="d">est</text><text x="44.087999999999994" y="14.696" class="d">in</text><text x="47.093999999999994" y="14.696" class="d">deserunt</text><text x="56.111999999999995" y="14.696" class="d">adipisicing.</text><text x="0" y="16.866999999999997" class="d">Enim</text><text x="5.01" y="16.866999999999997" class="d">deserunt</text><text x="14.027999999999999" y="16.866999999999997" class="d">laborum</text><text x="22.043999999999997" y="16.866999999999997" class="d">ad</text><text x="25.05" y="16.866999999999997" class="d">qui</text><text x="29.058" y="16.866999999999997" class="d">qui.</text><text x="34.068" y="16.866999999999997" class="d">Anim</text><text x="39.077999999999996" y="16.866999999999997" class="d">esse</text><text x="44.087999999999994" y="16.866999999999997" class="d">non</text><text x="48.096" y="16.866999999999997" class="d">anim</text><text x="53.105999999999995" y="16.866999999999997" class="d">magna</text><text x="59.117999999999995" y="16.866999999999997" class="d">Lorem</text><text x="0" y="19.037999999999997" class="d">consequat</text><text x="10.02" y="19.037999999999997" class="d">dolore</text><text x="17.034" y="19.037999999999997" class="d">labore</text><text x="24.048" y="19.037999999999997" class="d">cupidatat</text><text x="34.068" y="19.037999999999997" class="d">magna</text><text x="40.08" y="19.037999999999997" class="d">et.</text><text x="44.087999999999994" y="19.037999999999997" class="d">Esse</text><text x="49.098" y="19.037999999999997" class="d">nulla</text><text x="55.10999999999999" y="19.037999999999997" class="d">eiusmod</text><text x="63.12599999999999" y="19.037999999999997" class="d">Lorem</text><text x="0" y="21.209000000000003" class="d">exercitation</text><text x="13.026" y="21.209000000000003" class="d">cupidatat</text><text x="23.045999999999996" y="21.209000000000003" class="d">velit</text><text x="29.058" y="21.209000000000003" class="d">enim</text><text x="34.068" y="21.209000000000003" class="d">exercitation</text><text x="47.093999999999994" y="21.209000000000003" class="d">excepteur</text><text x="57.114" y="21.209000000000003" class="d">non</text><text x="61.12199999999999" y="21.209000000000003" class="d">officia</text><text x="0" y="23.380000000000003" class="d">incididunt.</text><text x="12.024" y="23.380000000000003" class="d">Id</text><text x="15.029999999999998" y="23.380000000000003" class="d">laborum</text><text x="23.045999999999996" y="23.380000000000003" class="d">dolore</text><text x="30.059999999999995" y="23.380000000000003" class="d">commodo</text><text x="38.07599999999999" y="23.380000000000003" class="d">Lorem</text><text x="44.087999999999994" y="23.380000000000003" class="d">esse</text><text x="49.098" y="23.380000000000003" class="d">ea</text><text x="52.104" y="23.380000000000003" class="d">sint</text><text x="57.114" y="23.380000000000003" class="d">proident.</text></svg></svg></g></svg></svg>