<svg xmlns="http://www.w3.org/2000/svg" xmlns:xlink="http://www.w3.org/1999/xlink" width="740" height="83.41999999999999"><rect width="740" height="83.41999999999999" rx="0" ry="0" class="a"></rect><svg height="43.419999999999995" viewBox="0 0 70 4.342" width="700" x="20" xmlns="http://www.w3.org/2000/svg" xmlns:xlink="http://www.w3.org/1999/xlink" y="20"><style>.a{fill:rgb(40,45,53)}.b{font-family:'Fira Code',Monaco,Consolas,Menlo,'Bitstream Vera Sans Mono','Powerline Symbols',monospace}.c{fill:rgb(185,192,203);white-space:pre}.d{fill:rgb(168,204,140);white-space:pre}.e{fill:transparent}.g{animation-duration:8.95560193061829s;animation-iteration-count:infinite;animation-name:f;animation-timing-function:steps(1,end)}.h{fill:rgb(111,119,131);white-space:pre}@keyframes f{0%{transform:translateX(-0px)}0%{transform:translateX(-70px)}1.5%{transform:translateX(-140px)}1.5%{transform:translateX(-210px)}2.1%{transform:translateX(-280px)}3.5%{transform:translateX(-350px)}4.5%{transform:translateX(-420px)}5.7%{transform:translateX(-490px)}6.9%{transform:translateX(-560px)}8.1%{transform:translateX(-630px)}9.4%{transform:translateX(-700px)}10.3%{transform:translateX(-770px)}11.6%{transform:translateX(-840px)}12.6%{transform:translateX(-910px)}13.9%{transform:translateX(-980px)}15.1%{transform:translateX(-1050px)}16.1%{transform:translateX(-1120px)}17.3%{transform:translateX(-1190px)}18.3%{transform:translateX(-1260px)}19.5%{transform:translateX(-1330px)}20.6%{transform:translateX(-1400px)}21.9%{transform:translateX(-1470px)}23.1%{transform:translateX(-1540px)}24.1%{transform:translateX(-1610px)}25.3%{transform:translateX(-1680px)}26.6%{transform:translateX(-1750px)}27.8%{transform:translateX(-1820px)}28.7%{transform:translateX(-1890px)}30%{transform:translateX(-1960px)}31.1%{transform:translateX(-2030px)}32.1%{transform:translateX(-2100px)}32.5%{transform:translateX(-2170px)}33.1%{transform:translateX(-2240px)}33.3%{transform:translateX(-2310px)}34.6%{transform:translateX(-2380px)}35.8%{transform:translateX(-2450px)}36.8%{transform:translateX(-2520px)}38.1%{transform:translateX(-2590px)}39.1%{transform:translateX(-2660px)}40.5%{transform:translateX(-2730px)}41.5%{transform:translateX(-2800px)}42.8%{transform:translateX(-2870px)}43.7%{transform:translateX(-2940px)}45%{transform:translateX(-3010px)}46%{transform:translateX(-3080px)}47.2%{transform:translateX(-3150px)}48.5%{transform:translateX(-3220px)}49.5%{transform:translateX(-3290px)}50.5%{transform:translateX(-3360px)}51.8%{transform:translateX(-3430px)}52.8%{transform:translateX(-3500px)}53.9%{transform:translateX(-3570px)}55.1%{transform:translateX(-3640px)}56.4%{transform:translateX(-3710px)}57.4%{transform:translateX(-3780px)}58.7%{transform:translateX(-3850px)}59.7%{transform:translateX(-3920px)}60.9%{transform:translateX(-3990px)}62.1%{transform:translateX(-4060px)}63.3%{transform:translateX(-4130px)}64.3%{transform:translateX(-4200px)}65.4%{transform:translateX(-4270px)}65.4%{transform:translateX(-4340px)}100%{transform:translateX(-4410px)}}</style><g font-family="&#x27;Fira Code&#x27;,Monaco,Consolas,Menlo,&#x27;Bitstream Vera Sans Mono&#x27;,&#x27;Powerline Symbols&#x27;,monospace" font-size="1.67" class="b"><defs><symbol id="1"><text x="0" y="1.67" class="c">First</text><text x="6.012" y="1.67" class="c">step</text><text x="12.024" y="1.67" class="d">███████████████████████████████</text><text x="45.089999999999996" y="1.67" class="c">100%</text><text x="50.1" y="1.67" class="c">|</text><text x="52.104" y="1.67" class="c">ETA:</text><text x="58.116" y="1.67" class="c">0s</text></symbol><symbol id="2"><text x="0" y="1.67" class="c">Second</text><text x="7.013999999999999" y="1.67" class="c">step</text><text x="12.024" y="1.67" class="d">███████████████████████████████</text><text x="45.089999999999996" y="1.67" class="c">100%</text><text x="50.1" y="1.67" class="c">|</text><text x="52.104" y="1.67" class="c">ETA:</text><text x="58.116" y="1.67" class="c">0s</text></symbol><symbol id="a"><rect height="3" width="70" x="0" y="0" class="e"></rect></symbol></defs><rect height="4.342" width="70" class="a"></rect><g class="g"><svg x="0" y="0" width="4480"><svg x="0"><use xlink:href="#a"></use></svg><svg x="70"><use xlink:href="#a"></use></svg><svg x="140"><use xlink:href="#a"></use></svg><svg x="210"><use xlink:href="#a"></use><text x="0" y="1.67" class="c">First</text><text x="6.012" y="1.67" class="c">step</text><text x="12.024" y="1.67" class="d">█</text><text x="13.026" y="1.67" class="h">██████████████████████████████</text><text x="47.093999999999994" y="1.67" class="c">1%</text><text x="50.1" y="1.67" class="c">|</text><text x="52.104" y="1.67" class="c">ETA:</text><text x="58.116" y="1.67" class="c">3s</text></svg><svg x="280"><use xlink:href="#a"></use><text x="0" y="1.67" class="c">First</text><text x="6.012" y="1.67" class="c">step</text><text x="12.024" y="1.67" class="d">██</text><text x="14.027999999999999" y="1.67" class="h">█████████████████████████████</text><text x="47.093999999999994" y="1.67" class="c">3%</text><text x="50.1" y="1.67" class="c">|</text><text x="52.104" y="1.67" class="c">ETA:</text><text x="58.116" y="1.67" class="c">3s</text></svg><svg x="350"><use xlink:href="#a"></use><text x="0" y="1.67" class="c">First</text><text x="6.012" y="1.67" class="c">step</text><text x="12.024" y="1.67" class="d">███</text><text x="15.029999999999998" y="1.67" class="h">████████████████████████████</text><text x="47.093999999999994" y="1.67" class="c">7%</text><text x="50.1" y="1.67" class="c">|</text><text x="52.104" y="1.67" class="c">ETA:</text><text x="58.116" y="1.67" class="c">2s</text></svg><svg x="420"><use xlink:href="#a"></use><text x="0" y="1.67" class="c">First</text><text x="6.012" y="1.67" class="c">step</text><text x="12.024" y="1.67" class="d">████</text><text x="16.032" y="1.67" class="h">███████████████████████████</text><text x="46.09199999999999" y="1.67" class="c">10%</text><text x="50.1" y="1.67" class="c">|</text><text x="52.104" y="1.67" class="c">ETA:</text><text x="58.116" y="1.67" class="c">3s</text></svg><svg x="490"><use xlink:href="#a"></use><text x="0" y="1.67" class="c">First</text><text x="6.012" y="1.67" class="c">step</text><text x="12.024" y="1.67" class="d">█████</text><text x="17.034" y="1.67" class="h">██████████████████████████</text><text x="46.09199999999999" y="1.67" class="c">14%</text><text x="50.1" y="1.67" class="c">|</text><text x="52.104" y="1.67" class="c">ETA:</text><text x="58.116" y="1.67" class="c">2s</text></svg><svg x="560"><use xlink:href="#a"></use><text x="0" y="1.67" class="c">First</text><text x="6.012" y="1.67" class="c">step</text><text x="12.024" y="1.67" class="d">██████</text><text x="18.035999999999998" y="1.67" class="h">█████████████████████████</text><text x="46.09199999999999" y="1.67" class="c">18%</text><text x="50.1" y="1.67" class="c">|</text><text x="52.104" y="1.67" class="c">ETA:</text><text x="58.116" y="1.67" class="c">2s</text></svg><svg x="630"><use xlink:href="#a"></use><text x="0" y="1.67" class="c">First</text><text x="6.012" y="1.67" class="c">step</text><text x="12.024" y="1.67" class="d">████████</text><text x="20.04" y="1.67" class="h">███████████████████████</text><text x="46.09199999999999" y="1.67" class="c">22%</text><text x="50.1" y="1.67" class="c">|</text><text x="52.104" y="1.67" class="c">ETA:</text><text x="58.116" y="1.67" class="c">2s</text></svg><svg x="700"><use xlink:href="#a"></use><text x="0" y="1.67" class="c">First</text><text x="6.012" y="1.67" class="c">step</text><text x="12.024" y="1.67" class="d">█████████</text><text x="21.041999999999998" y="1.67" class="h">██████████████████████</text><text x="46.09199999999999" y="1.67" class="c">26%</text><text x="50.1" y="1.67" class="c">|</text><text x="52.104" y="1.67" class="c">ETA:</text><text x="58.116" y="1.67" class="c">2s</text></svg><svg x="770"><use xlink:href="#a"></use><text x="0" y="1.67" class="c">First</text><text x="6.012" y="1.67" class="c">step</text><text x="12.024" y="1.67" class="d">██████████</text><text x="22.043999999999997" y="1.67" class="h">█████████████████████</text><text x="46.09199999999999" y="1.67" class="c">29%</text><text x="50.1" y="1.67" class="c">|</text><text x="52.104" y="1.67" class="c">ETA:</text><text x="58.116" y="1.67" class="c">2s</text></svg><svg x="840"><use xlink:href="#a"></use><text x="0" y="1.67" class="c">First</text><text x="6.012" y="1.67" class="c">step</text><text x="12.024" y="1.67" class="d">███████████</text><text x="23.045999999999996" y="1.67" class="h">████████████████████</text><text x="46.09199999999999" y="1.67" class="c">33%</text><text x="50.1" y="1.67" class="c">|</text><text x="52.104" y="1.67" class="c">ETA:</text><text x="58.116" y="1.67" class="c">2s</text></svg><svg x="910"><use xlink:href="#a"></use><text x="0" y="1.67" class="c">First</text><text x="6.012" y="1.67" class="c">step</text><text x="12.024" y="1.67" class="d">████████████</text><text x="24.048" y="1.67" class="h">███████████████████</text><text x="46.09199999999999" y="1.67" class="c">36%</text><text x="50.1" y="1.67" class="c">|</text><text x="52.104" y="1.67" class="c">ETA:</text><text x="58.116" y="1.67" class="c">2s</text></svg><svg x="980"><use xlink:href="#a"></use><text x="0" y="1.67" class="c">First</text><text x="6.012" y="1.67" class="c">step</text><text x="12.024" y="1.67" class="d">█████████████</text><text x="25.05" y="1.67" class="h">██████████████████</text><text x="46.09199999999999" y="1.67" class="c">40%</text><text x="50.1" y="1.67" class="c">|</text><text x="52.104" y="1.67" class="c">ETA:</text><text x="58.116" y="1.67" class="c">2s</text></svg><svg x="1050"><use xlink:href="#a"></use><text x="0" y="1.67" class="c">First</text><text x="6.012" y="1.67" class="c">step</text><text x="12.024" y="1.67" class="d">██████████████</text><text x="26.052" y="1.67" class="h">█████████████████</text><text x="46.09199999999999" y="1.67" class="c">44%</text><text x="50.1" y="1.67" class="c">|</text><text x="52.104" y="1.67" class="c">ETA:</text><text x="58.116" y="1.67" class="c">2s</text></svg><svg x="1120"><use xlink:href="#a"></use><text x="0" y="1.67" class="c">First</text><text x="6.012" y="1.67" class="c">step</text><text x="12.024" y="1.67" class="d">███████████████</text><text x="27.054" y="1.67" class="h">████████████████</text><text x="46.09199999999999" y="1.67" class="c">47%</text><text x="50.1" y="1.67" class="c">|</text><text x="52.104" y="1.67" class="c">ETA:</text><text x="58.116" y="1.67" class="c">1s</text></svg><svg x="1190"><use xlink:href="#a"></use><text x="0" y="1.67" class="c">First</text><text x="6.012" y="1.67" class="c">step</text><text x="12.024" y="1.67" class="d">████████████████</text><text x="28.055999999999997" y="1.67" class="h">███████████████</text><text x="46.09199999999999" y="1.67" class="c">51%</text><text x="50.1" y="1.67" class="c">|</text><text x="52.104" y="1.67" class="c">ETA:</text><text x="58.116" y="1.67" class="c">1s</text></svg><svg x="1260"><use xlink:href="#a"></use><text x="0" y="1.67" class="c">First</text><text x="6.012" y="1.67" class="c">step</text><text x="12.024" y="1.67" class="d">█████████████████</text><text x="29.058" y="1.67" class="h">██████████████</text><text x="46.09199999999999" y="1.67" class="c">54%</text><text x="50.1" y="1.67" class="c">|</text><text x="52.104" y="1.67" class="c">ETA:</text><text x="58.116" y="1.67" class="c">1s</text></svg><svg x="1330"><use xlink:href="#a"></use><text x="0" y="1.67" class="c">First</text><text x="6.012" y="1.67" class="c">step</text><text x="12.024" y="1.67" class="d">██████████████████</text><text x="30.059999999999995" y="1.67" class="h">█████████████</text><text x="46.09199999999999" y="1.67" class="c">58%</text><text x="50.1" y="1.67" class="c">|</text><text x="52.104" y="1.67" class="c">ETA:</text><text x="58.116" y="1.67" class="c">1s</text></svg><svg x="1400"><use xlink:href="#a"></use><text x="0" y="1.67" class="c">First</text><text x="6.012" y="1.67" class="c">step</text><text x="12.024" y="1.67" class="d">████████████████████</text><text x="32.064" y="1.67" class="h">███████████</text><text x="46.09199999999999" y="1.67" class="c">62%</text><text x="50.1" y="1.67" class="c">|</text><text x="52.104" y="1.67" class="c">ETA:</text><text x="58.116" y="1.67" class="c">1s</text></svg><svg x="1470"><use xlink:href="#a"></use><text x="0" y="1.67" class="c">First</text><text x="6.012" y="1.67" class="c">step</text><text x="12.024" y="1.67" class="d">█████████████████████</text><text x="33.065999999999995" y="1.67" class="h">██████████</text><text x="46.09199999999999" y="1.67" class="c">66%</text><text x="50.1" y="1.67" class="c">|</text><text x="52.104" y="1.67" class="c">ETA:</text><text x="58.116" y="1.67" class="c">1s</text></svg><svg x="1540"><use xlink:href="#a"></use><text x="0" y="1.67" class="c">First</text><text x="6.012" y="1.67" class="c">step</text><text x="12.024" y="1.67" class="d">██████████████████████</text><text x="34.068" y="1.67" class="h">█████████</text><text x="46.09199999999999" y="1.67" class="c">70%</text><text x="50.1" y="1.67" class="c">|</text><text x="52.104" y="1.67" class="c">ETA:</text><text x="58.116" y="1.67" class="c">1s</text></svg><svg x="1610"><use xlink:href="#a"></use><text x="0" y="1.67" class="c">First</text><text x="6.012" y="1.67" class="c">step</text><text x="12.024" y="1.67" class="d">███████████████████████</text><text x="35.06999999999999" y="1.67" class="h">████████</text><text x="46.09199999999999" y="1.67" class="c">73%</text><text x="50.1" y="1.67" class="c">|</text><text x="52.104" y="1.67" class="c">ETA:</text><text x="58.116" y="1.67" class="c">1s</text></svg><svg x="1680"><use xlink:href="#a"></use><text x="0" y="1.67" class="c">First</text><text x="6.012" y="1.67" class="c">step</text><text x="12.024" y="1.67" class="d">████████████████████████</text><text x="36.071999999999996" y="1.67" class="h">███████</text><text x="46.09199999999999" y="1.67" class="c">77%</text><text x="50.1" y="1.67" class="c">|</text><text x="52.104" y="1.67" class="c">ETA:</text><text x="58.116" y="1.67" class="c">1s</text></svg><svg x="1750"><use xlink:href="#a"></use><text x="0" y="1.67" class="c">First</text><text x="6.012" y="1.67" class="c">step</text><text x="12.024" y="1.67" class="d">█████████████████████████</text><text x="37.074" y="1.67" class="h">██████</text><text x="46.09199999999999" y="1.67" class="c">81%</text><text x="50.1" y="1.67" class="c">|</text><text x="52.104" y="1.67" class="c">ETA:</text><text x="58.116" y="1.67" class="c">1s</text></svg><svg x="1820"><use xlink:href="#a"></use><text x="0" y="1.67" class="c">First</text><text x="6.012" y="1.67" class="c">step</text><text x="12.024" y="1.67" class="d">███████████████████████████</text><text x="39.077999999999996" y="1.67" class="h">████</text><text x="46.09199999999999" y="1.67" class="c">85%</text><text x="50.1" y="1.67" class="c">|</text><text x="52.104" y="1.67" class="c">ETA:</text><text x="58.116" y="1.67" class="c">0s</text></svg><svg x="1890"><use xlink:href="#a"></use><text x="0" y="1.67" class="c">First</text><text x="6.012" y="1.67" class="c">step</text><text x="12.024" y="1.67" class="d">███████████████████████████</text><text x="39.077999999999996" y="1.67" class="h">████</text><text x="46.09199999999999" y="1.67" class="c">88%</text><text x="50.1" y="1.67" class="c">|</text><text x="52.104" y="1.67" class="c">ETA:</text><text x="58.116" y="1.67" class="c">0s</text></svg><svg x="1960"><use xlink:href="#a"></use><text x="0" y="1.67" class="c">First</text><text x="6.012" y="1.67" class="c">step</text><text x="12.024" y="1.67" class="d">█████████████████████████████</text><text x="41.082" y="1.67" class="h">██</text><text x="46.09199999999999" y="1.67" class="c">92%</text><text x="50.1" y="1.67" class="c">|</text><text x="52.104" y="1.67" class="c">ETA:</text><text x="58.116" y="1.67" class="c">0s</text></svg><svg x="2030"><use xlink:href="#a"></use><text x="0" y="1.67" class="c">First</text><text x="6.012" y="1.67" class="c">step</text><text x="12.024" y="1.67" class="d">██████████████████████████████</text><text x="42.083999999999996" y="1.67" class="h">█</text><text x="46.09199999999999" y="1.67" class="c">96%</text><text x="50.1" y="1.67" class="c">|</text><text x="52.104" y="1.67" class="c">ETA:</text><text x="58.116" y="1.67" class="c">0s</text></svg><svg x="2100"><use xlink:href="#a"></use><text x="0" y="1.67" class="c">First</text><text x="6.012" y="1.67" class="c">step</text><text x="12.024" y="1.67" class="d">███████████████████████████████</text><text x="46.09199999999999" y="1.67" class="c">99%</text><text x="50.1" y="1.67" class="c">|</text><text x="52.104" y="1.67" class="c">ETA:</text><text x="58.116" y="1.67" class="c">0s</text></svg><svg x="2170"><use xlink:href="#a"></use><use xlink:href="#1" y="0"></use></svg><svg x="2240"><use xlink:href="#a"></use><use xlink:href="#1" y="0"></use></svg><svg x="2310"><use xlink:href="#a"></use><use xlink:href="#1" y="0"></use><text x="0" y="3.8409999999999997" class="c">Second</text><text x="7.013999999999999" y="3.8409999999999997" class="c">step</text><text x="12.024" y="3.8409999999999997" class="d">██</text><text x="14.027999999999999" y="3.8409999999999997" class="h">█████████████████████████████</text><text x="47.093999999999994" y="3.8409999999999997" class="c">2%</text><text x="50.1" y="3.8409999999999997" class="c">|</text><text x="52.104" y="3.8409999999999997" class="c">ETA:</text><text x="58.116" y="3.8409999999999997" class="c">2s</text></svg><svg x="2380"><use xlink:href="#a"></use><use xlink:href="#1" y="0"></use><text x="0" y="3.8409999999999997" class="c">Second</text><text x="7.013999999999999" y="3.8409999999999997" class="c">step</text><text x="12.024" y="3.8409999999999997" class="d">███</text><text x="15.029999999999998" y="3.8409999999999997" class="h">████████████████████████████</text><text x="47.093999999999994" y="3.8409999999999997" class="c">6%</text><text x="50.1" y="3.8409999999999997" class="c">|</text><text x="52.104" y="3.8409999999999997" class="c">ETA:</text><text x="58.116" y="3.8409999999999997" class="c">3s</text></svg><svg x="2450"><use xlink:href="#a"></use><use xlink:href="#1" y="0"></use><text x="0" y="3.8409999999999997" class="c">Second</text><text x="7.013999999999999" y="3.8409999999999997" class="c">step</text><text x="12.024" y="3.8409999999999997" class="d">████</text><text x="16.032" y="3.8409999999999997" class="h">███████████████████████████</text><text x="46.09199999999999" y="3.8409999999999997" class="c">10%</text><text x="50.1" y="3.8409999999999997" class="c">|</text><text x="52.104" y="3.8409999999999997" class="c">ETA:</text><text x="58.116" y="3.8409999999999997" class="c">3s</text></svg><svg x="2520"><use xlink:href="#a"></use><use xlink:href="#1" y="0"></use><text x="0" y="3.8409999999999997" class="c">Second</text><text x="7.013999999999999" y="3.8409999999999997" class="c">step</text><text x="12.024" y="3.8409999999999997" class="d">█████</text><text x="17.034" y="3.8409999999999997" class="h">██████████████████████████</text><text x="46.09199999999999" y="3.8409999999999997" class="c">13%</text><text x="50.1" y="3.8409999999999997" class="c">|</text><text x="52.104" y="3.8409999999999997" class="c">ETA:</text><text x="58.116" y="3.8409999999999997" class="c">2s</text></svg><svg x="2590"><use xlink:href="#a"></use><use xlink:href="#1" y="0"></use><text x="0" y="3.8409999999999997" class="c">Second</text><text x="7.013999999999999" y="3.8409999999999997" class="c">step</text><text x="12.024" y="3.8409999999999997" class="d">██████</text><text x="18.035999999999998" y="3.8409999999999997" class="h">█████████████████████████</text><text x="46.09199999999999" y="3.8409999999999997" class="c">17%</text><text x="50.1" y="3.8409999999999997" class="c">|</text><text x="52.104" y="3.8409999999999997" class="c">ETA:</text><text x="58.116" y="3.8409999999999997" class="c">2s</text></svg><svg x="2660"><use xlink:href="#a"></use><use xlink:href="#1" y="0"></use><text x="0" y="3.8409999999999997" class="c">Second</text><text x="7.013999999999999" y="3.8409999999999997" class="c">step</text><text x="12.024" y="3.8409999999999997" class="d">███████</text><text x="19.037999999999997" y="3.8409999999999997" class="h">████████████████████████</text><text x="46.09199999999999" y="3.8409999999999997" class="c">20%</text><text x="50.1" y="3.8409999999999997" class="c">|</text><text x="52.104" y="3.8409999999999997" class="c">ETA:</text><text x="58.116" y="3.8409999999999997" class="c">2s</text></svg><svg x="2730"><use xlink:href="#a"></use><use xlink:href="#1" y="0"></use><text x="0" y="3.8409999999999997" class="c">Second</text><text x="7.013999999999999" y="3.8409999999999997" class="c">step</text><text x="12.024" y="3.8409999999999997" class="d">████████</text><text x="20.04" y="3.8409999999999997" class="h">███████████████████████</text><text x="46.09199999999999" y="3.8409999999999997" class="c">24%</text><text x="50.1" y="3.8409999999999997" class="c">|</text><text x="52.104" y="3.8409999999999997" class="c">ETA:</text><text x="58.116" y="3.8409999999999997" class="c">2s</text></svg><svg x="2800"><use xlink:href="#a"></use><use xlink:href="#1" y="0"></use><text x="0" y="3.8409999999999997" class="c">Second</text><text x="7.013999999999999" y="3.8409999999999997" class="c">step</text><text x="12.024" y="3.8409999999999997" class="d">█████████</text><text x="21.041999999999998" y="3.8409999999999997" class="h">██████████████████████</text><text x="46.09199999999999" y="3.8409999999999997" class="c">27%</text><text x="50.1" y="3.8409999999999997" class="c">|</text><text x="52.104" y="3.8409999999999997" class="c">ETA:</text><text x="58.116" y="3.8409999999999997" class="c">2s</text></svg><svg x="2870"><use xlink:href="#a"></use><use xlink:href="#1" y="0"></use><text x="0" y="3.8409999999999997" class="c">Second</text><text x="7.013999999999999" y="3.8409999999999997" class="c">step</text><text x="12.024" y="3.8409999999999997" class="d">██████████</text><text x="22.043999999999997" y="3.8409999999999997" class="h">█████████████████████</text><text x="46.09199999999999" y="3.8409999999999997" class="c">31%</text><text x="50.1" y="3.8409999999999997" class="c">|</text><text x="52.104" y="3.8409999999999997" class="c">ETA:</text><text x="58.116" y="3.8409999999999997" class="c">2s</text></svg><svg x="2940"><use xlink:href="#a"></use><use xlink:href="#1" y="0"></use><text x="0" y="3.8409999999999997" class="c">Second</text><text x="7.013999999999999" y="3.8409999999999997" class="c">step</text><text x="12.024" y="3.8409999999999997" class="d">███████████</text><text x="23.045999999999996" y="3.8409999999999997" class="h">████████████████████</text><text x="46.09199999999999" y="3.8409999999999997" class="c">34%</text><text x="50.1" y="3.8409999999999997" class="c">|</text><text x="52.104" y="3.8409999999999997" class="c">ETA:</text><text x="58.116" y="3.8409999999999997" class="c">2s</text></svg><svg x="3010"><use xlink:href="#a"></use><use xlink:href="#1" y="0"></use><text x="0" y="3.8409999999999997" class="c">Second</text><text x="7.013999999999999" y="3.8409999999999997" class="c">step</text><text x="12.024" y="3.8409999999999997" class="d">████████████</text><text x="24.048" y="3.8409999999999997" class="h">███████████████████</text><text x="46.09199999999999" y="3.8409999999999997" class="c">38%</text><text x="50.1" y="3.8409999999999997" class="c">|</text><text x="52.104" y="3.8409999999999997" class="c">ETA:</text><text x="58.116" y="3.8409999999999997" class="c">2s</text></svg><svg x="3080"><use xlink:href="#a"></use><use xlink:href="#1" y="0"></use><text x="0" y="3.8409999999999997" class="c">Second</text><text x="7.013999999999999" y="3.8409999999999997" class="c">step</text><text x="12.024" y="3.8409999999999997" class="d">█████████████</text><text x="25.05" y="3.8409999999999997" class="h">██████████████████</text><text x="46.09199999999999" y="3.8409999999999997" class="c">41%</text><text x="50.1" y="3.8409999999999997" class="c">|</text><text x="52.104" y="3.8409999999999997" class="c">ETA:</text><text x="58.116" y="3.8409999999999997" class="c">2s</text></svg><svg x="3150"><use xlink:href="#a"></use><use xlink:href="#1" y="0"></use><text x="0" y="3.8409999999999997" class="c">Second</text><text x="7.013999999999999" y="3.8409999999999997" class="c">step</text><text x="12.024" y="3.8409999999999997" class="d">███████████████</text><text x="27.054" y="3.8409999999999997" class="h">████████████████</text><text x="46.09199999999999" y="3.8409999999999997" class="c">45%</text><text x="50.1" y="3.8409999999999997" class="c">|</text><text x="52.104" y="3.8409999999999997" class="c">ETA:</text><text x="58.116" y="3.8409999999999997" class="c">2s</text></svg><svg x="3220"><use xlink:href="#a"></use><use xlink:href="#1" y="0"></use><text x="0" y="3.8409999999999997" class="c">Second</text><text x="7.013999999999999" y="3.8409999999999997" class="c">step</text><text x="12.024" y="3.8409999999999997" class="d">████████████████</text><text x="28.055999999999997" y="3.8409999999999997" class="h">███████████████</text><text x="46.09199999999999" y="3.8409999999999997" class="c">49%</text><text x="50.1" y="3.8409999999999997" class="c">|</text><text x="52.104" y="3.8409999999999997" class="c">ETA:</text><text x="58.116" y="3.8409999999999997" class="c">1s</text></svg><svg x="3290"><use xlink:href="#a"></use><use xlink:href="#1" y="0"></use><text x="0" y="3.8409999999999997" class="c">Second</text><text x="7.013999999999999" y="3.8409999999999997" class="c">step</text><text x="12.024" y="3.8409999999999997" class="d">█████████████████</text><text x="29.058" y="3.8409999999999997" class="h">██████████████</text><text x="46.09199999999999" y="3.8409999999999997" class="c">52%</text><text x="50.1" y="3.8409999999999997" class="c">|</text><text x="52.104" y="3.8409999999999997" class="c">ETA:</text><text x="58.116" y="3.8409999999999997" class="c">1s</text></svg><svg x="3360"><use xlink:href="#a"></use><use xlink:href="#1" y="0"></use><text x="0" y="3.8409999999999997" class="c">Second</text><text x="7.013999999999999" y="3.8409999999999997" class="c">step</text><text x="12.024" y="3.8409999999999997" class="d">█████████████████</text><text x="29.058" y="3.8409999999999997" class="h">██████████████</text><text x="46.09199999999999" y="3.8409999999999997" class="c">55%</text><text x="50.1" y="3.8409999999999997" class="c">|</text><text x="52.104" y="3.8409999999999997" class="c">ETA:</text><text x="58.116" y="3.8409999999999997" class="c">1s</text></svg><svg x="3430"><use xlink:href="#a"></use><use xlink:href="#1" y="0"></use><text x="0" y="3.8409999999999997" class="c">Second</text><text x="7.013999999999999" y="3.8409999999999997" class="c">step</text><text x="12.024" y="3.8409999999999997" class="d">███████████████████</text><text x="31.061999999999998" y="3.8409999999999997" class="h">████████████</text><text x="46.09199999999999" y="3.8409999999999997" class="c">59%</text><text x="50.1" y="3.8409999999999997" class="c">|</text><text x="52.104" y="3.8409999999999997" class="c">ETA:</text><text x="58.116" y="3.8409999999999997" class="c">1s</text></svg><svg x="3500"><use xlink:href="#a"></use><use xlink:href="#1" y="0"></use><text x="0" y="3.8409999999999997" class="c">Second</text><text x="7.013999999999999" y="3.8409999999999997" class="c">step</text><text x="12.024" y="3.8409999999999997" class="d">████████████████████</text><text x="32.064" y="3.8409999999999997" class="h">███████████</text><text x="46.09199999999999" y="3.8409999999999997" class="c">62%</text><text x="50.1" y="3.8409999999999997" class="c">|</text><text x="52.104" y="3.8409999999999997" class="c">ETA:</text><text x="58.116" y="3.8409999999999997" class="c">1s</text></svg><svg x="3570"><use xlink:href="#a"></use><use xlink:href="#1" y="0"></use><text x="0" y="3.8409999999999997" class="c">Second</text><text x="7.013999999999999" y="3.8409999999999997" class="c">step</text><text x="12.024" y="3.8409999999999997" class="d">█████████████████████</text><text x="33.065999999999995" y="3.8409999999999997" class="h">██████████</text><text x="46.09199999999999" y="3.8409999999999997" class="c">65%</text><text x="50.1" y="3.8409999999999997" class="c">|</text><text x="52.104" y="3.8409999999999997" class="c">ETA:</text><text x="58.116" y="3.8409999999999997" class="c">1s</text></svg><svg x="3640"><use xlink:href="#a"></use><use xlink:href="#1" y="0"></use><text x="0" y="3.8409999999999997" class="c">Second</text><text x="7.013999999999999" y="3.8409999999999997" class="c">step</text><text x="12.024" y="3.8409999999999997" class="d">██████████████████████</text><text x="34.068" y="3.8409999999999997" class="h">█████████</text><text x="46.09199999999999" y="3.8409999999999997" class="c">69%</text><text x="50.1" y="3.8409999999999997" class="c">|</text><text x="52.104" y="3.8409999999999997" class="c">ETA:</text><text x="58.116" y="3.8409999999999997" class="c">1s</text></svg><svg x="3710"><use xlink:href="#a"></use><use xlink:href="#1" y="0"></use><text x="0" y="3.8409999999999997" class="c">Second</text><text x="7.013999999999999" y="3.8409999999999997" class="c">step</text><text x="12.024" y="3.8409999999999997" class="d">███████████████████████</text><text x="35.06999999999999" y="3.8409999999999997" class="h">████████</text><text x="46.09199999999999" y="3.8409999999999997" class="c">73%</text><text x="50.1" y="3.8409999999999997" class="c">|</text><text x="52.104" y="3.8409999999999997" class="c">ETA:</text><text x="58.116" y="3.8409999999999997" class="c">1s</text></svg><svg x="3780"><use xlink:href="#a"></use><use xlink:href="#1" y="0"></use><text x="0" y="3.8409999999999997" class="c">Second</text><text x="7.013999999999999" y="3.8409999999999997" class="c">step</text><text x="12.024" y="3.8409999999999997" class="d">████████████████████████</text><text x="36.071999999999996" y="3.8409999999999997" class="h">███████</text><text x="46.09199999999999" y="3.8409999999999997" class="c">76%</text><text x="50.1" y="3.8409999999999997" class="c">|</text><text x="52.104" y="3.8409999999999997" class="c">ETA:</text><text x="58.116" y="3.8409999999999997" class="c">1s</text></svg><svg x="3850"><use xlink:href="#a"></use><use xlink:href="#1" y="0"></use><text x="0" y="3.8409999999999997" class="c">Second</text><text x="7.013999999999999" y="3.8409999999999997" class="c">step</text><text x="12.024" y="3.8409999999999997" class="d">█████████████████████████</text><text x="37.074" y="3.8409999999999997" class="h">██████</text><text x="46.09199999999999" y="3.8409999999999997" class="c">80%</text><text x="50.1" y="3.8409999999999997" class="c">|</text><text x="52.104" y="3.8409999999999997" class="c">ETA:</text><text x="58.116" y="3.8409999999999997" class="c">1s</text></svg><svg x="3920"><use xlink:href="#a"></use><use xlink:href="#1" y="0"></use><text x="0" y="3.8409999999999997" class="c">Second</text><text x="7.013999999999999" y="3.8409999999999997" class="c">step</text><text x="12.024" y="3.8409999999999997" class="d">██████████████████████████</text><text x="38.07599999999999" y="3.8409999999999997" class="h">█████</text><text x="46.09199999999999" y="3.8409999999999997" class="c">83%</text><text x="50.1" y="3.8409999999999997" class="c">|</text><text x="52.104" y="3.8409999999999997" class="c">ETA:</text><text x="58.116" y="3.8409999999999997" class="c">0s</text></svg><svg x="3990"><use xlink:href="#a"></use><use xlink:href="#1" y="0"></use><text x="0" y="3.8409999999999997" class="c">Second</text><text x="7.013999999999999" y="3.8409999999999997" class="c">step</text><text x="12.024" y="3.8409999999999997" class="d">███████████████████████████</text><text x="39.077999999999996" y="3.8409999999999997" class="h">████</text><text x="46.09199999999999" y="3.8409999999999997" class="c">87%</text><text x="50.1" y="3.8409999999999997" class="c">|</text><text x="52.104" y="3.8409999999999997" class="c">ETA:</text><text x="58.116" y="3.8409999999999997" class="c">0s</text></svg><svg x="4060"><use xlink:href="#a"></use><use xlink:href="#1" y="0"></use><text x="0" y="3.8409999999999997" class="c">Second</text><text x="7.013999999999999" y="3.8409999999999997" class="c">step</text><text x="12.024" y="3.8409999999999997" class="d">████████████████████████████</text><text x="40.08" y="3.8409999999999997" class="h">███</text><text x="46.09199999999999" y="3.8409999999999997" class="c">91%</text><text x="50.1" y="3.8409999999999997" class="c">|</text><text x="52.104" y="3.8409999999999997" class="c">ETA:</text><text x="58.116" y="3.8409999999999997" class="c">0s</text></svg><svg x="4130"><use xlink:href="#a"></use><use xlink:href="#1" y="0"></use><text x="0" y="3.8409999999999997" class="c">Second</text><text x="7.013999999999999" y="3.8409999999999997" class="c">step</text><text x="12.024" y="3.8409999999999997" class="d">█████████████████████████████</text><text x="41.082" y="3.8409999999999997" class="h">██</text><text x="46.09199999999999" y="3.8409999999999997" class="c">94%</text><text x="50.1" y="3.8409999999999997" class="c">|</text><text x="52.104" y="3.8409999999999997" class="c">ETA:</text><text x="58.116" y="3.8409999999999997" class="c">0s</text></svg><svg x="4200"><use xlink:href="#a"></use><use xlink:href="#1" y="0"></use><text x="0" y="3.8409999999999997" class="c">Second</text><text x="7.013999999999999" y="3.8409999999999997" class="c">step</text><text x="12.024" y="3.8409999999999997" class="d">██████████████████████████████</text><text x="42.083999999999996" y="3.8409999999999997" class="h">█</text><text x="46.09199999999999" y="3.8409999999999997" class="c">97%</text><text x="50.1" y="3.8409999999999997" class="c">|</text><text x="52.104" y="3.8409999999999997" class="c">ETA:</text><text x="58.116" y="3.8409999999999997" class="c">0s</text></svg><svg x="4270"><use xlink:href="#a"></use><use xlink:href="#1" y="0"></use><use xlink:href="#2" y="2.171"></use></svg><svg x="4340"><use xlink:href="#a"></use><use xlink:href="#1" y="0"></use><use xlink:href="#2" y="2.171"></use></svg><svg x="4410"><use xlink:href="#a"></use><use xlink:href="#1" y="0"></use><use xlink:href="#2" y="2.171"></use></svg></svg></g></g></svg></svg>