<svg xmlns="http://www.w3.org/2000/svg" xmlns:xlink="http://www.w3.org/1999/xlink" width="740" height="61.709999999999994"><rect width="740" height="61.709999999999994" rx="0" ry="0" class="a"></rect><svg height="21.709999999999997" viewBox="0 0 70 2.171" width="700" x="20" xmlns="http://www.w3.org/2000/svg" xmlns:xlink="http://www.w3.org/1999/xlink" y="20"><style>.a{fill:rgb(40,45,53)}.b{font-family:'Fira Code',Monaco,Consolas,Menlo,'Bitstream Vera Sans Mono','Powerline Symbols',monospace}.c{fill:rgb(185,192,203);white-space:pre}.d{fill:rgb(168,204,140);white-space:pre}.e{fill:transparent}.g{animation-duration:11.3785500526428s;animation-iteration-count:infinite;animation-name:f;animation-timing-function:steps(1,end)}.h{fill:rgb(111,119,131);white-space:pre}@keyframes f{0%{transform:translateX(-0px)}0%{transform:translateX(-70px)}1.3%{transform:translateX(-140px)}1.3%{transform:translateX(-210px)}2%{transform:translateX(-280px)}3.3%{transform:translateX(-350px)}4.1%{transform:translateX(-420px)}4.8%{transform:translateX(-490px)}5.9%{transform:translateX(-560px)}6.8%{transform:translateX(-630px)}7.6%{transform:translateX(-700px)}8.6%{transform:translateX(-770px)}9.4%{transform:translateX(-840px)}10.5%{transform:translateX(-910px)}11.3%{transform:translateX(-980px)}12.3%{transform:translateX(-1050px)}13%{transform:translateX(-1120px)}14.1%{transform:translateX(-1190px)}14.8%{transform:translateX(-1260px)}15.9%{transform:translateX(-1330px)}16.9%{transform:translateX(-1400px)}17.6%{transform:translateX(-1470px)}18.7%{transform:translateX(-1540px)}19.5%{transform:translateX(-1610px)}20.3%{transform:translateX(-1680px)}21.4%{transform:translateX(-1750px)}22.2%{transform:translateX(-1820px)}23.2%{transform:translateX(-1890px)}23.9%{transform:translateX(-1960px)}25%{transform:translateX(-2030px)}25.7%{transform:translateX(-2100px)}26.7%{transform:translateX(-2170px)}27.8%{transform:translateX(-2240px)}28.5%{transform:translateX(-2310px)}29.6%{transform:translateX(-2380px)}30.4%{transform:translateX(-2450px)}31.2%{transform:translateX(-2520px)}32.3%{transform:translateX(-2590px)}33%{transform:translateX(-2660px)}34.2%{transform:translateX(-2730px)}34.9%{transform:translateX(-2800px)}35.7%{transform:translateX(-2870px)}36.7%{transform:translateX(-2940px)}37.3%{transform:translateX(-3010px)}37.7%{transform:translateX(-3080px)}37.8%{transform:translateX(-3150px)}38.6%{transform:translateX(-3220px)}39.4%{transform:translateX(-3290px)}40.2%{transform:translateX(-3360px)}41.3%{transform:translateX(-3430px)}42.1%{transform:translateX(-3500px)}43.1%{transform:translateX(-3570px)}44%{transform:translateX(-3640px)}44.7%{transform:translateX(-3710px)}45.7%{transform:translateX(-3780px)}46.7%{transform:translateX(-3850px)}47.7%{transform:translateX(-3920px)}48.4%{transform:translateX(-3990px)}49.4%{transform:translateX(-4060px)}50.3%{transform:translateX(-4130px)}51%{transform:translateX(-4200px)}52%{transform:translateX(-4270px)}53.1%{transform:translateX(-4340px)}53.9%{transform:translateX(-4410px)}55%{transform:translateX(-4480px)}55.7%{transform:translateX(-4550px)}56.5%{transform:translateX(-4620px)}57.5%{transform:translateX(-4690px)}58.5%{transform:translateX(-4760px)}59.2%{transform:translateX(-4830px)}60.2%{transform:translateX(-4900px)}61.2%{transform:translateX(-4970px)}61.9%{transform:translateX(-5040px)}62.9%{transform:translateX(-5110px)}63.7%{transform:translateX(-5180px)}64.7%{transform:translateX(-5250px)}65.4%{transform:translateX(-5320px)}66.4%{transform:translateX(-5390px)}67.4%{transform:translateX(-5460px)}68.2%{transform:translateX(-5530px)}69.2%{transform:translateX(-5600px)}70%{transform:translateX(-5670px)}71%{transform:translateX(-5740px)}72%{transform:translateX(-5810px)}72.7%{transform:translateX(-5880px)}72.7%{transform:translateX(-5950px)}100%{transform:translateX(-6020px)}}</style><g font-family="&#x27;Fira Code&#x27;,Monaco,Consolas,Menlo,&#x27;Bitstream Vera Sans Mono&#x27;,&#x27;Powerline Symbols&#x27;,monospace" font-size="1.67" class="b"><defs><symbol id="1"><text x="0" y="1.67" class="c">Parameter</text><text x="10.02" y="1.67" class="c">tuning</text><text x="17.034" y="1.67" class="d">███████████████████████████████</text><text x="50.1" y="1.67" class="c">100%</text><text x="55.10999999999999" y="1.67" class="c">|</text><text x="57.114" y="1.67" class="c">ETA:</text><text x="63.12599999999999" y="1.67" class="c">0s</text></symbol><symbol id="a"><rect height="2" width="70" x="0" y="0" class="e"></rect></symbol></defs><rect height="2.171" width="70" class="a"></rect><g class="g"><svg x="0" y="0" width="6090"><svg x="0"><use xlink:href="#a"></use></svg><svg x="70"><use xlink:href="#a"></use></svg><svg x="140"><use xlink:href="#a"></use></svg><svg x="210"><use xlink:href="#a"></use><text x="0" y="1.67" class="c">Data</text><text x="5.01" y="1.67" class="c">cleaning</text><text x="14.027999999999999" y="1.67" class="d">█</text><text x="15.029999999999998" y="1.67" class="h">██████████████████████████████</text><text x="49.098" y="1.67" class="c">1%</text><text x="52.104" y="1.67" class="c">|</text><text x="54.108" y="1.67" class="c">ETA:</text><text x="60.11999999999999" y="1.67" class="c">4s</text></svg><svg x="280"><use xlink:href="#a"></use><text x="0" y="1.67" class="c">Data</text><text x="5.01" y="1.67" class="c">cleaning</text><text x="14.027999999999999" y="1.67" class="d">██</text><text x="16.032" y="1.67" class="h">█████████████████████████████</text><text x="49.098" y="1.67" class="c">3%</text><text x="52.104" y="1.67" class="c">|</text><text x="54.108" y="1.67" class="c">ETA:</text><text x="60.11999999999999" y="1.67" class="c">4s</text></svg><svg x="350"><use xlink:href="#a"></use><text x="0" y="1.67" class="c">Data</text><text x="5.01" y="1.67" class="c">cleaning</text><text x="14.027999999999999" y="1.67" class="d">███</text><text x="17.034" y="1.67" class="h">████████████████████████████</text><text x="49.098" y="1.67" class="c">7%</text><text x="52.104" y="1.67" class="c">|</text><text x="54.108" y="1.67" class="c">ETA:</text><text x="60.11999999999999" y="1.67" class="c">3s</text></svg><svg x="420"><use xlink:href="#a"></use><text x="0" y="1.67" class="c">Data</text><text x="5.01" y="1.67" class="c">cleaning</text><text x="14.027999999999999" y="1.67" class="d">████</text><text x="18.035999999999998" y="1.67" class="h">███████████████████████████</text><text x="49.098" y="1.67" class="c">9%</text><text x="52.104" y="1.67" class="c">|</text><text x="54.108" y="1.67" class="c">ETA:</text><text x="60.11999999999999" y="1.67" class="c">3s</text></svg><svg x="490"><use xlink:href="#a"></use><text x="0" y="1.67" class="c">Data</text><text x="5.01" y="1.67" class="c">cleaning</text><text x="14.027999999999999" y="1.67" class="d">████</text><text x="18.035999999999998" y="1.67" class="h">███████████████████████████</text><text x="48.096" y="1.67" class="c">11%</text><text x="52.104" y="1.67" class="c">|</text><text x="54.108" y="1.67" class="c">ETA:</text><text x="60.11999999999999" y="1.67" class="c">3s</text></svg><svg x="560"><use xlink:href="#a"></use><text x="0" y="1.67" class="c">Data</text><text x="5.01" y="1.67" class="c">cleaning</text><text x="14.027999999999999" y="1.67" class="d">█████</text><text x="19.037999999999997" y="1.67" class="h">██████████████████████████</text><text x="48.096" y="1.67" class="c">14%</text><text x="52.104" y="1.67" class="c">|</text><text x="54.108" y="1.67" class="c">ETA:</text><text x="60.11999999999999" y="1.67" class="c">3s</text></svg><svg x="630"><use xlink:href="#a"></use><text x="0" y="1.67" class="c">Data</text><text x="5.01" y="1.67" class="c">cleaning</text><text x="14.027999999999999" y="1.67" class="d">██████</text><text x="20.04" y="1.67" class="h">█████████████████████████</text><text x="48.096" y="1.67" class="c">16%</text><text x="52.104" y="1.67" class="c">|</text><text x="54.108" y="1.67" class="c">ETA:</text><text x="60.11999999999999" y="1.67" class="c">3s</text></svg><svg x="700"><use xlink:href="#a"></use><text x="0" y="1.67" class="c">Data</text><text x="5.01" y="1.67" class="c">cleaning</text><text x="14.027999999999999" y="1.67" class="d">██████</text><text x="20.04" y="1.67" class="h">█████████████████████████</text><text x="48.096" y="1.67" class="c">18%</text><text x="52.104" y="1.67" class="c">|</text><text x="54.108" y="1.67" class="c">ETA:</text><text x="60.11999999999999" y="1.67" class="c">3s</text></svg><svg x="770"><use xlink:href="#a"></use><text x="0" y="1.67" class="c">Data</text><text x="5.01" y="1.67" class="c">cleaning</text><text x="14.027999999999999" y="1.67" class="d">███████</text><text x="21.041999999999998" y="1.67" class="h">████████████████████████</text><text x="48.096" y="1.67" class="c">21%</text><text x="52.104" y="1.67" class="c">|</text><text x="54.108" y="1.67" class="c">ETA:</text><text x="60.11999999999999" y="1.67" class="c">3s</text></svg><svg x="840"><use xlink:href="#a"></use><text x="0" y="1.67" class="c">Data</text><text x="5.01" y="1.67" class="c">cleaning</text><text x="14.027999999999999" y="1.67" class="d">████████</text><text x="22.043999999999997" y="1.67" class="h">███████████████████████</text><text x="48.096" y="1.67" class="c">23%</text><text x="52.104" y="1.67" class="c">|</text><text x="54.108" y="1.67" class="c">ETA:</text><text x="60.11999999999999" y="1.67" class="c">3s</text></svg><svg x="910"><use xlink:href="#a"></use><text x="0" y="1.67" class="c">Data</text><text x="5.01" y="1.67" class="c">cleaning</text><text x="14.027999999999999" y="1.67" class="d">█████████</text><text x="23.045999999999996" y="1.67" class="h">██████████████████████</text><text x="48.096" y="1.67" class="c">26%</text><text x="52.104" y="1.67" class="c">|</text><text x="54.108" y="1.67" class="c">ETA:</text><text x="60.11999999999999" y="1.67" class="c">3s</text></svg><svg x="980"><use xlink:href="#a"></use><text x="0" y="1.67" class="c">Data</text><text x="5.01" y="1.67" class="c">cleaning</text><text x="14.027999999999999" y="1.67" class="d">█████████</text><text x="23.045999999999996" y="1.67" class="h">██████████████████████</text><text x="48.096" y="1.67" class="c">28%</text><text x="52.104" y="1.67" class="c">|</text><text x="54.108" y="1.67" class="c">ETA:</text><text x="60.11999999999999" y="1.67" class="c">3s</text></svg><svg x="1050"><use xlink:href="#a"></use><text x="0" y="1.67" class="c">Data</text><text x="5.01" y="1.67" class="c">cleaning</text><text x="14.027999999999999" y="1.67" class="d">██████████</text><text x="24.048" y="1.67" class="h">█████████████████████</text><text x="48.096" y="1.67" class="c">31%</text><text x="52.104" y="1.67" class="c">|</text><text x="54.108" y="1.67" class="c">ETA:</text><text x="60.11999999999999" y="1.67" class="c">3s</text></svg><svg x="1120"><use xlink:href="#a"></use><text x="0" y="1.67" class="c">Data</text><text x="5.01" y="1.67" class="c">cleaning</text><text x="14.027999999999999" y="1.67" class="d">███████████</text><text x="25.05" y="1.67" class="h">████████████████████</text><text x="48.096" y="1.67" class="c">33%</text><text x="52.104" y="1.67" class="c">|</text><text x="54.108" y="1.67" class="c">ETA:</text><text x="60.11999999999999" y="1.67" class="c">3s</text></svg><svg x="1190"><use xlink:href="#a"></use><text x="0" y="1.67" class="c">Data</text><text x="5.01" y="1.67" class="c">cleaning</text><text x="14.027999999999999" y="1.67" class="d">████████████</text><text x="26.052" y="1.67" class="h">███████████████████</text><text x="48.096" y="1.67" class="c">36%</text><text x="52.104" y="1.67" class="c">|</text><text x="54.108" y="1.67" class="c">ETA:</text><text x="60.11999999999999" y="1.67" class="c">3s</text></svg><svg x="1260"><use xlink:href="#a"></use><text x="0" y="1.67" class="c">Data</text><text x="5.01" y="1.67" class="c">cleaning</text><text x="14.027999999999999" y="1.67" class="d">████████████</text><text x="26.052" y="1.67" class="h">███████████████████</text><text x="48.096" y="1.67" class="c">38%</text><text x="52.104" y="1.67" class="c">|</text><text x="54.108" y="1.67" class="c">ETA:</text><text x="60.11999999999999" y="1.67" class="c">3s</text></svg><svg x="1330"><use xlink:href="#a"></use><text x="0" y="1.67" class="c">Data</text><text x="5.01" y="1.67" class="c">cleaning</text><text x="14.027999999999999" y="1.67" class="d">█████████████</text><text x="27.054" y="1.67" class="h">██████████████████</text><text x="48.096" y="1.67" class="c">41%</text><text x="52.104" y="1.67" class="c">|</text><text x="54.108" y="1.67" class="c">ETA:</text><text x="60.11999999999999" y="1.67" class="c">2s</text></svg><svg x="1400"><use xlink:href="#a"></use><text x="0" y="1.67" class="c">Data</text><text x="5.01" y="1.67" class="c">cleaning</text><text x="14.027999999999999" y="1.67" class="d">██████████████</text><text x="28.055999999999997" y="1.67" class="h">█████████████████</text><text x="48.096" y="1.67" class="c">44%</text><text x="52.104" y="1.67" class="c">|</text><text x="54.108" y="1.67" class="c">ETA:</text><text x="60.11999999999999" y="1.67" class="c">2s</text></svg><svg x="1470"><use xlink:href="#a"></use><text x="0" y="1.67" class="c">Data</text><text x="5.01" y="1.67" class="c">cleaning</text><text x="14.027999999999999" y="1.67" class="d">███████████████</text><text x="29.058" y="1.67" class="h">████████████████</text><text x="48.096" y="1.67" class="c">46%</text><text x="52.104" y="1.67" class="c">|</text><text x="54.108" y="1.67" class="c">ETA:</text><text x="60.11999999999999" y="1.67" class="c">2s</text></svg><svg x="1540"><use xlink:href="#a"></use><text x="0" y="1.67" class="c">Data</text><text x="5.01" y="1.67" class="c">cleaning</text><text x="14.027999999999999" y="1.67" class="d">████████████████</text><text x="30.059999999999995" y="1.67" class="h">███████████████</text><text x="48.096" y="1.67" class="c">49%</text><text x="52.104" y="1.67" class="c">|</text><text x="54.108" y="1.67" class="c">ETA:</text><text x="60.11999999999999" y="1.67" class="c">2s</text></svg><svg x="1610"><use xlink:href="#a"></use><text x="0" y="1.67" class="c">Data</text><text x="5.01" y="1.67" class="c">cleaning</text><text x="14.027999999999999" y="1.67" class="d">████████████████</text><text x="30.059999999999995" y="1.67" class="h">███████████████</text><text x="48.096" y="1.67" class="c">51%</text><text x="52.104" y="1.67" class="c">|</text><text x="54.108" y="1.67" class="c">ETA:</text><text x="60.11999999999999" y="1.67" class="c">2s</text></svg><svg x="1680"><use xlink:href="#a"></use><text x="0" y="1.67" class="c">Data</text><text x="5.01" y="1.67" class="c">cleaning</text><text x="14.027999999999999" y="1.67" class="d">█████████████████</text><text x="31.061999999999998" y="1.67" class="h">██████████████</text><text x="48.096" y="1.67" class="c">53%</text><text x="52.104" y="1.67" class="c">|</text><text x="54.108" y="1.67" class="c">ETA:</text><text x="60.11999999999999" y="1.67" class="c">2s</text></svg><svg x="1750"><use xlink:href="#a"></use><text x="0" y="1.67" class="c">Data</text><text x="5.01" y="1.67" class="c">cleaning</text><text x="14.027999999999999" y="1.67" class="d">██████████████████</text><text x="32.064" y="1.67" class="h">█████████████</text><text x="48.096" y="1.67" class="c">56%</text><text x="52.104" y="1.67" class="c">|</text><text x="54.108" y="1.67" class="c">ETA:</text><text x="60.11999999999999" y="1.67" class="c">2s</text></svg><svg x="1820"><use xlink:href="#a"></use><text x="0" y="1.67" class="c">Data</text><text x="5.01" y="1.67" class="c">cleaning</text><text x="14.027999999999999" y="1.67" class="d">██████████████████</text><text x="32.064" y="1.67" class="h">█████████████</text><text x="48.096" y="1.67" class="c">58%</text><text x="52.104" y="1.67" class="c">|</text><text x="54.108" y="1.67" class="c">ETA:</text><text x="60.11999999999999" y="1.67" class="c">2s</text></svg><svg x="1890"><use xlink:href="#a"></use><text x="0" y="1.67" class="c">Data</text><text x="5.01" y="1.67" class="c">cleaning</text><text x="14.027999999999999" y="1.67" class="d">███████████████████</text><text x="33.065999999999995" y="1.67" class="h">████████████</text><text x="48.096" y="1.67" class="c">61%</text><text x="52.104" y="1.67" class="c">|</text><text x="54.108" y="1.67" class="c">ETA:</text><text x="60.11999999999999" y="1.67" class="c">2s</text></svg><svg x="1960"><use xlink:href="#a"></use><text x="0" y="1.67" class="c">Data</text><text x="5.01" y="1.67" class="c">cleaning</text><text x="14.027999999999999" y="1.67" class="d">████████████████████</text><text x="34.068" y="1.67" class="h">███████████</text><text x="48.096" y="1.67" class="c">63%</text><text x="52.104" y="1.67" class="c">|</text><text x="54.108" y="1.67" class="c">ETA:</text><text x="60.11999999999999" y="1.67" class="c">2s</text></svg><svg x="2030"><use xlink:href="#a"></use><text x="0" y="1.67" class="c">Data</text><text x="5.01" y="1.67" class="c">cleaning</text><text x="14.027999999999999" y="1.67" class="d">█████████████████████</text><text x="35.06999999999999" y="1.67" class="h">██████████</text><text x="48.096" y="1.67" class="c">66%</text><text x="52.104" y="1.67" class="c">|</text><text x="54.108" y="1.67" class="c">ETA:</text><text x="60.11999999999999" y="1.67" class="c">1s</text></svg><svg x="2100"><use xlink:href="#a"></use><text x="0" y="1.67" class="c">Data</text><text x="5.01" y="1.67" class="c">cleaning</text><text x="14.027999999999999" y="1.67" class="d">█████████████████████</text><text x="35.06999999999999" y="1.67" class="h">██████████</text><text x="48.096" y="1.67" class="c">68%</text><text x="52.104" y="1.67" class="c">|</text><text x="54.108" y="1.67" class="c">ETA:</text><text x="60.11999999999999" y="1.67" class="c">1s</text></svg><svg x="2170"><use xlink:href="#a"></use><text x="0" y="1.67" class="c">Data</text><text x="5.01" y="1.67" class="c">cleaning</text><text x="14.027999999999999" y="1.67" class="d">██████████████████████</text><text x="36.071999999999996" y="1.67" class="h">█████████</text><text x="48.096" y="1.67" class="c">71%</text><text x="52.104" y="1.67" class="c">|</text><text x="54.108" y="1.67" class="c">ETA:</text><text x="60.11999999999999" y="1.67" class="c">1s</text></svg><svg x="2240"><use xlink:href="#a"></use><text x="0" y="1.67" class="c">Data</text><text x="5.01" y="1.67" class="c">cleaning</text><text x="14.027999999999999" y="1.67" class="d">███████████████████████</text><text x="37.074" y="1.67" class="h">████████</text><text x="48.096" y="1.67" class="c">74%</text><text x="52.104" y="1.67" class="c">|</text><text x="54.108" y="1.67" class="c">ETA:</text><text x="60.11999999999999" y="1.67" class="c">1s</text></svg><svg x="2310"><use xlink:href="#a"></use><text x="0" y="1.67" class="c">Data</text><text x="5.01" y="1.67" class="c">cleaning</text><text x="14.027999999999999" y="1.67" class="d">████████████████████████</text><text x="38.07599999999999" y="1.67" class="h">███████</text><text x="48.096" y="1.67" class="c">76%</text><text x="52.104" y="1.67" class="c">|</text><text x="54.108" y="1.67" class="c">ETA:</text><text x="60.11999999999999" y="1.67" class="c">1s</text></svg><svg x="2380"><use xlink:href="#a"></use><text x="0" y="1.67" class="c">Data</text><text x="5.01" y="1.67" class="c">cleaning</text><text x="14.027999999999999" y="1.67" class="d">█████████████████████████</text><text x="39.077999999999996" y="1.67" class="h">██████</text><text x="48.096" y="1.67" class="c">79%</text><text x="52.104" y="1.67" class="c">|</text><text x="54.108" y="1.67" class="c">ETA:</text><text x="60.11999999999999" y="1.67" class="c">1s</text></svg><svg x="2450"><use xlink:href="#a"></use><text x="0" y="1.67" class="c">Data</text><text x="5.01" y="1.67" class="c">cleaning</text><text x="14.027999999999999" y="1.67" class="d">█████████████████████████</text><text x="39.077999999999996" y="1.67" class="h">██████</text><text x="48.096" y="1.67" class="c">81%</text><text x="52.104" y="1.67" class="c">|</text><text x="54.108" y="1.67" class="c">ETA:</text><text x="60.11999999999999" y="1.67" class="c">1s</text></svg><svg x="2520"><use xlink:href="#a"></use><text x="0" y="1.67" class="c">Data</text><text x="5.01" y="1.67" class="c">cleaning</text><text x="14.027999999999999" y="1.67" class="d">██████████████████████████</text><text x="40.08" y="1.67" class="h">█████</text><text x="48.096" y="1.67" class="c">83%</text><text x="52.104" y="1.67" class="c">|</text><text x="54.108" y="1.67" class="c">ETA:</text><text x="60.11999999999999" y="1.67" class="c">1s</text></svg><svg x="2590"><use xlink:href="#a"></use><text x="0" y="1.67" class="c">Data</text><text x="5.01" y="1.67" class="c">cleaning</text><text x="14.027999999999999" y="1.67" class="d">███████████████████████████</text><text x="41.082" y="1.67" class="h">████</text><text x="48.096" y="1.67" class="c">86%</text><text x="52.104" y="1.67" class="c">|</text><text x="54.108" y="1.67" class="c">ETA:</text><text x="60.11999999999999" y="1.67" class="c">1s</text></svg><svg x="2660"><use xlink:href="#a"></use><text x="0" y="1.67" class="c">Data</text><text x="5.01" y="1.67" class="c">cleaning</text><text x="14.027999999999999" y="1.67" class="d">███████████████████████████</text><text x="41.082" y="1.67" class="h">████</text><text x="48.096" y="1.67" class="c">88%</text><text x="52.104" y="1.67" class="c">|</text><text x="54.108" y="1.67" class="c">ETA:</text><text x="60.11999999999999" y="1.67" class="c">0s</text></svg><svg x="2730"><use xlink:href="#a"></use><text x="0" y="1.67" class="c">Data</text><text x="5.01" y="1.67" class="c">cleaning</text><text x="14.027999999999999" y="1.67" class="d">████████████████████████████</text><text x="42.083999999999996" y="1.67" class="h">███</text><text x="48.096" y="1.67" class="c">91%</text><text x="52.104" y="1.67" class="c">|</text><text x="54.108" y="1.67" class="c">ETA:</text><text x="60.11999999999999" y="1.67" class="c">0s</text></svg><svg x="2800"><use xlink:href="#a"></use><text x="0" y="1.67" class="c">Data</text><text x="5.01" y="1.67" class="c">cleaning</text><text x="14.027999999999999" y="1.67" class="d">█████████████████████████████</text><text x="43.086" y="1.67" class="h">██</text><text x="48.096" y="1.67" class="c">93%</text><text x="52.104" y="1.67" class="c">|</text><text x="54.108" y="1.67" class="c">ETA:</text><text x="60.11999999999999" y="1.67" class="c">0s</text></svg><svg x="2870"><use xlink:href="#a"></use><text x="0" y="1.67" class="c">Data</text><text x="5.01" y="1.67" class="c">cleaning</text><text x="14.027999999999999" y="1.67" class="d">█████████████████████████████</text><text x="43.086" y="1.67" class="h">██</text><text x="48.096" y="1.67" class="c">95%</text><text x="52.104" y="1.67" class="c">|</text><text x="54.108" y="1.67" class="c">ETA:</text><text x="60.11999999999999" y="1.67" class="c">0s</text></svg><svg x="2940"><use xlink:href="#a"></use><text x="0" y="1.67" class="c">Data</text><text x="5.01" y="1.67" class="c">cleaning</text><text x="14.027999999999999" y="1.67" class="d">██████████████████████████████</text><text x="44.087999999999994" y="1.67" class="h">█</text><text x="48.096" y="1.67" class="c">98%</text><text x="52.104" y="1.67" class="c">|</text><text x="54.108" y="1.67" class="c">ETA:</text><text x="60.11999999999999" y="1.67" class="c">0s</text></svg><svg x="3010"><use xlink:href="#a"></use></svg><svg x="3080"><use xlink:href="#a"></use></svg><svg x="3150"><use xlink:href="#a"></use><text x="0" y="1.67" class="c">Parameter</text><text x="10.02" y="1.67" class="c">tuning</text><text x="17.034" y="1.67" class="d">█</text><text x="18.035999999999998" y="1.67" class="h">██████████████████████████████</text><text x="52.104" y="1.67" class="c">1%</text><text x="55.10999999999999" y="1.67" class="c">|</text><text x="57.114" y="1.67" class="c">ETA:</text><text x="63.12599999999999" y="1.67" class="c">4s</text></svg><svg x="3220"><use xlink:href="#a"></use><text x="0" y="1.67" class="c">Parameter</text><text x="10.02" y="1.67" class="c">tuning</text><text x="17.034" y="1.67" class="d">██</text><text x="19.037999999999997" y="1.67" class="h">█████████████████████████████</text><text x="52.104" y="1.67" class="c">3%</text><text x="55.10999999999999" y="1.67" class="c">|</text><text x="57.114" y="1.67" class="c">ETA:</text><text x="63.12599999999999" y="1.67" class="c">4s</text></svg><svg x="3290"><use xlink:href="#a"></use><text x="0" y="1.67" class="c">Parameter</text><text x="10.02" y="1.67" class="c">tuning</text><text x="17.034" y="1.67" class="d">███</text><text x="20.04" y="1.67" class="h">████████████████████████████</text><text x="52.104" y="1.67" class="c">5%</text><text x="55.10999999999999" y="1.67" class="c">|</text><text x="57.114" y="1.67" class="c">ETA:</text><text x="63.12599999999999" y="1.67" class="c">4s</text></svg><svg x="3360"><use xlink:href="#a"></use><text x="0" y="1.67" class="c">Parameter</text><text x="10.02" y="1.67" class="c">tuning</text><text x="17.034" y="1.67" class="d">███</text><text x="20.04" y="1.67" class="h">████████████████████████████</text><text x="52.104" y="1.67" class="c">7%</text><text x="55.10999999999999" y="1.67" class="c">|</text><text x="57.114" y="1.67" class="c">ETA:</text><text x="63.12599999999999" y="1.67" class="c">4s</text></svg><svg x="3430"><use xlink:href="#a"></use><text x="0" y="1.67" class="c">Parameter</text><text x="10.02" y="1.67" class="c">tuning</text><text x="17.034" y="1.67" class="d">████</text><text x="21.041999999999998" y="1.67" class="h">███████████████████████████</text><text x="51.102" y="1.67" class="c">10%</text><text x="55.10999999999999" y="1.67" class="c">|</text><text x="57.114" y="1.67" class="c">ETA:</text><text x="63.12599999999999" y="1.67" class="c">4s</text></svg><svg x="3500"><use xlink:href="#a"></use><text x="0" y="1.67" class="c">Parameter</text><text x="10.02" y="1.67" class="c">tuning</text><text x="17.034" y="1.67" class="d">█████</text><text x="22.043999999999997" y="1.67" class="h">██████████████████████████</text><text x="51.102" y="1.67" class="c">12%</text><text x="55.10999999999999" y="1.67" class="c">|</text><text x="57.114" y="1.67" class="c">ETA:</text><text x="63.12599999999999" y="1.67" class="c">4s</text></svg><svg x="3570"><use xlink:href="#a"></use><text x="0" y="1.67" class="c">Parameter</text><text x="10.02" y="1.67" class="c">tuning</text><text x="17.034" y="1.67" class="d">█████</text><text x="22.043999999999997" y="1.67" class="h">██████████████████████████</text><text x="51.102" y="1.67" class="c">15%</text><text x="55.10999999999999" y="1.67" class="c">|</text><text x="57.114" y="1.67" class="c">ETA:</text><text x="63.12599999999999" y="1.67" class="c">4s</text></svg><svg x="3640"><use xlink:href="#a"></use><text x="0" y="1.67" class="c">Parameter</text><text x="10.02" y="1.67" class="c">tuning</text><text x="17.034" y="1.67" class="d">██████</text><text x="23.045999999999996" y="1.67" class="h">█████████████████████████</text><text x="51.102" y="1.67" class="c">17%</text><text x="55.10999999999999" y="1.67" class="c">|</text><text x="57.114" y="1.67" class="c">ETA:</text><text x="63.12599999999999" y="1.67" class="c">4s</text></svg><svg x="3710"><use xlink:href="#a"></use><text x="0" y="1.67" class="c">Parameter</text><text x="10.02" y="1.67" class="c">tuning</text><text x="17.034" y="1.67" class="d">███████</text><text x="24.048" y="1.67" class="h">████████████████████████</text><text x="51.102" y="1.67" class="c">19%</text><text x="55.10999999999999" y="1.67" class="c">|</text><text x="57.114" y="1.67" class="c">ETA:</text><text x="63.12599999999999" y="1.67" class="c">4s</text></svg><svg x="3780"><use xlink:href="#a"></use><text x="0" y="1.67" class="c">Parameter</text><text x="10.02" y="1.67" class="c">tuning</text><text x="17.034" y="1.67" class="d">████████</text><text x="25.05" y="1.67" class="h">███████████████████████</text><text x="51.102" y="1.67" class="c">22%</text><text x="55.10999999999999" y="1.67" class="c">|</text><text x="57.114" y="1.67" class="c">ETA:</text><text x="63.12599999999999" y="1.67" class="c">3s</text></svg><svg x="3850"><use xlink:href="#a"></use><text x="0" y="1.67" class="c">Parameter</text><text x="10.02" y="1.67" class="c">tuning</text><text x="17.034" y="1.67" class="d">█████████</text><text x="26.052" y="1.67" class="h">██████████████████████</text><text x="51.102" y="1.67" class="c">25%</text><text x="55.10999999999999" y="1.67" class="c">|</text><text x="57.114" y="1.67" class="c">ETA:</text><text x="63.12599999999999" y="1.67" class="c">3s</text></svg><svg x="3920"><use xlink:href="#a"></use><text x="0" y="1.67" class="c">Parameter</text><text x="10.02" y="1.67" class="c">tuning</text><text x="17.034" y="1.67" class="d">█████████</text><text x="26.052" y="1.67" class="h">██████████████████████</text><text x="51.102" y="1.67" class="c">28%</text><text x="55.10999999999999" y="1.67" class="c">|</text><text x="57.114" y="1.67" class="c">ETA:</text><text x="63.12599999999999" y="1.67" class="c">3s</text></svg><svg x="3990"><use xlink:href="#a"></use><text x="0" y="1.67" class="c">Parameter</text><text x="10.02" y="1.67" class="c">tuning</text><text x="17.034" y="1.67" class="d">██████████</text><text x="27.054" y="1.67" class="h">█████████████████████</text><text x="51.102" y="1.67" class="c">30%</text><text x="55.10999999999999" y="1.67" class="c">|</text><text x="57.114" y="1.67" class="c">ETA:</text><text x="63.12599999999999" y="1.67" class="c">3s</text></svg><svg x="4060"><use xlink:href="#a"></use><text x="0" y="1.67" class="c">Parameter</text><text x="10.02" y="1.67" class="c">tuning</text><text x="17.034" y="1.67" class="d">███████████</text><text x="28.055999999999997" y="1.67" class="h">████████████████████</text><text x="51.102" y="1.67" class="c">33%</text><text x="55.10999999999999" y="1.67" class="c">|</text><text x="57.114" y="1.67" class="c">ETA:</text><text x="63.12599999999999" y="1.67" class="c">3s</text></svg><svg x="4130"><use xlink:href="#a"></use><text x="0" y="1.67" class="c">Parameter</text><text x="10.02" y="1.67" class="c">tuning</text><text x="17.034" y="1.67" class="d">████████████</text><text x="29.058" y="1.67" class="h">███████████████████</text><text x="51.102" y="1.67" class="c">36%</text><text x="55.10999999999999" y="1.67" class="c">|</text><text x="57.114" y="1.67" class="c">ETA:</text><text x="63.12599999999999" y="1.67" class="c">3s</text></svg><svg x="4200"><use xlink:href="#a"></use><text x="0" y="1.67" class="c">Parameter</text><text x="10.02" y="1.67" class="c">tuning</text><text x="17.034" y="1.67" class="d">████████████</text><text x="29.058" y="1.67" class="h">███████████████████</text><text x="51.102" y="1.67" class="c">38%</text><text x="55.10999999999999" y="1.67" class="c">|</text><text x="57.114" y="1.67" class="c">ETA:</text><text x="63.12599999999999" y="1.67" class="c">3s</text></svg><svg x="4270"><use xlink:href="#a"></use><text x="0" y="1.67" class="c">Parameter</text><text x="10.02" y="1.67" class="c">tuning</text><text x="17.034" y="1.67" class="d">█████████████</text><text x="30.059999999999995" y="1.67" class="h">██████████████████</text><text x="51.102" y="1.67" class="c">41%</text><text x="55.10999999999999" y="1.67" class="c">|</text><text x="57.114" y="1.67" class="c">ETA:</text><text x="63.12599999999999" y="1.67" class="c">2s</text></svg><svg x="4340"><use xlink:href="#a"></use><text x="0" y="1.67" class="c">Parameter</text><text x="10.02" y="1.67" class="c">tuning</text><text x="17.034" y="1.67" class="d">██████████████</text><text x="31.061999999999998" y="1.67" class="h">█████████████████</text><text x="51.102" y="1.67" class="c">44%</text><text x="55.10999999999999" y="1.67" class="c">|</text><text x="57.114" y="1.67" class="c">ETA:</text><text x="63.12599999999999" y="1.67" class="c">2s</text></svg><svg x="4410"><use xlink:href="#a"></use><text x="0" y="1.67" class="c">Parameter</text><text x="10.02" y="1.67" class="c">tuning</text><text x="17.034" y="1.67" class="d">███████████████</text><text x="32.064" y="1.67" class="h">████████████████</text><text x="51.102" y="1.67" class="c">46%</text><text x="55.10999999999999" y="1.67" class="c">|</text><text x="57.114" y="1.67" class="c">ETA:</text><text x="63.12599999999999" y="1.67" class="c">2s</text></svg><svg x="4480"><use xlink:href="#a"></use><text x="0" y="1.67" class="c">Parameter</text><text x="10.02" y="1.67" class="c">tuning</text><text x="17.034" y="1.67" class="d">████████████████</text><text x="33.065999999999995" y="1.67" class="h">███████████████</text><text x="51.102" y="1.67" class="c">49%</text><text x="55.10999999999999" y="1.67" class="c">|</text><text x="57.114" y="1.67" class="c">ETA:</text><text x="63.12599999999999" y="1.67" class="c">2s</text></svg><svg x="4550"><use xlink:href="#a"></use><text x="0" y="1.67" class="c">Parameter</text><text x="10.02" y="1.67" class="c">tuning</text><text x="17.034" y="1.67" class="d">████████████████</text><text x="33.065999999999995" y="1.67" class="h">███████████████</text><text x="51.102" y="1.67" class="c">51%</text><text x="55.10999999999999" y="1.67" class="c">|</text><text x="57.114" y="1.67" class="c">ETA:</text><text x="63.12599999999999" y="1.67" class="c">2s</text></svg><svg x="4620"><use xlink:href="#a"></use><text x="0" y="1.67" class="c">Parameter</text><text x="10.02" y="1.67" class="c">tuning</text><text x="17.034" y="1.67" class="d">█████████████████</text><text x="34.068" y="1.67" class="h">██████████████</text><text x="51.102" y="1.67" class="c">53%</text><text x="55.10999999999999" y="1.67" class="c">|</text><text x="57.114" y="1.67" class="c">ETA:</text><text x="63.12599999999999" y="1.67" class="c">2s</text></svg><svg x="4690"><use xlink:href="#a"></use><text x="0" y="1.67" class="c">Parameter</text><text x="10.02" y="1.67" class="c">tuning</text><text x="17.034" y="1.67" class="d">██████████████████</text><text x="35.06999999999999" y="1.67" class="h">█████████████</text><text x="51.102" y="1.67" class="c">56%</text><text x="55.10999999999999" y="1.67" class="c">|</text><text x="57.114" y="1.67" class="c">ETA:</text><text x="63.12599999999999" y="1.67" class="c">2s</text></svg><svg x="4760"><use xlink:href="#a"></use><text x="0" y="1.67" class="c">Parameter</text><text x="10.02" y="1.67" class="c">tuning</text><text x="17.034" y="1.67" class="d">███████████████████</text><text x="36.071999999999996" y="1.67" class="h">████████████</text><text x="51.102" y="1.67" class="c">59%</text><text x="55.10999999999999" y="1.67" class="c">|</text><text x="57.114" y="1.67" class="c">ETA:</text><text x="63.12599999999999" y="1.67" class="c">2s</text></svg><svg x="4830"><use xlink:href="#a"></use><text x="0" y="1.67" class="c">Parameter</text><text x="10.02" y="1.67" class="c">tuning</text><text x="17.034" y="1.67" class="d">███████████████████</text><text x="36.071999999999996" y="1.67" class="h">████████████</text><text x="51.102" y="1.67" class="c">61%</text><text x="55.10999999999999" y="1.67" class="c">|</text><text x="57.114" y="1.67" class="c">ETA:</text><text x="63.12599999999999" y="1.67" class="c">2s</text></svg><svg x="4900"><use xlink:href="#a"></use><text x="0" y="1.67" class="c">Parameter</text><text x="10.02" y="1.67" class="c">tuning</text><text x="17.034" y="1.67" class="d">████████████████████</text><text x="37.074" y="1.67" class="h">███████████</text><text x="51.102" y="1.67" class="c">64%</text><text x="55.10999999999999" y="1.67" class="c">|</text><text x="57.114" y="1.67" class="c">ETA:</text><text x="63.12599999999999" y="1.67" class="c">1s</text></svg><svg x="4970"><use xlink:href="#a"></use><text x="0" y="1.67" class="c">Parameter</text><text x="10.02" y="1.67" class="c">tuning</text><text x="17.034" y="1.67" class="d">█████████████████████</text><text x="38.07599999999999" y="1.67" class="h">██████████</text><text x="51.102" y="1.67" class="c">67%</text><text x="55.10999999999999" y="1.67" class="c">|</text><text x="57.114" y="1.67" class="c">ETA:</text><text x="63.12599999999999" y="1.67" class="c">1s</text></svg><svg x="5040"><use xlink:href="#a"></use><text x="0" y="1.67" class="c">Parameter</text><text x="10.02" y="1.67" class="c">tuning</text><text x="17.034" y="1.67" class="d">██████████████████████</text><text x="39.077999999999996" y="1.67" class="h">█████████</text><text x="51.102" y="1.67" class="c">69%</text><text x="55.10999999999999" y="1.67" class="c">|</text><text x="57.114" y="1.67" class="c">ETA:</text><text x="63.12599999999999" y="1.67" class="c">1s</text></svg><svg x="5110"><use xlink:href="#a"></use><text x="0" y="1.67" class="c">Parameter</text><text x="10.02" y="1.67" class="c">tuning</text><text x="17.034" y="1.67" class="d">███████████████████████</text><text x="40.08" y="1.67" class="h">████████</text><text x="51.102" y="1.67" class="c">72%</text><text x="55.10999999999999" y="1.67" class="c">|</text><text x="57.114" y="1.67" class="c">ETA:</text><text x="63.12599999999999" y="1.67" class="c">1s</text></svg><svg x="5180"><use xlink:href="#a"></use><text x="0" y="1.67" class="c">Parameter</text><text x="10.02" y="1.67" class="c">tuning</text><text x="17.034" y="1.67" class="d">███████████████████████</text><text x="40.08" y="1.67" class="h">████████</text><text x="51.102" y="1.67" class="c">74%</text><text x="55.10999999999999" y="1.67" class="c">|</text><text x="57.114" y="1.67" class="c">ETA:</text><text x="63.12599999999999" y="1.67" class="c">1s</text></svg><svg x="5250"><use xlink:href="#a"></use><text x="0" y="1.67" class="c">Parameter</text><text x="10.02" y="1.67" class="c">tuning</text><text x="17.034" y="1.67" class="d">████████████████████████</text><text x="41.082" y="1.67" class="h">███████</text><text x="51.102" y="1.67" class="c">77%</text><text x="55.10999999999999" y="1.67" class="c">|</text><text x="57.114" y="1.67" class="c">ETA:</text><text x="63.12599999999999" y="1.67" class="c">1s</text></svg><svg x="5320"><use xlink:href="#a"></use><text x="0" y="1.67" class="c">Parameter</text><text x="10.02" y="1.67" class="c">tuning</text><text x="17.034" y="1.67" class="d">█████████████████████████</text><text x="42.083999999999996" y="1.67" class="h">██████</text><text x="51.102" y="1.67" class="c">79%</text><text x="55.10999999999999" y="1.67" class="c">|</text><text x="57.114" y="1.67" class="c">ETA:</text><text x="63.12599999999999" y="1.67" class="c">1s</text></svg><svg x="5390"><use xlink:href="#a"></use><text x="0" y="1.67" class="c">Parameter</text><text x="10.02" y="1.67" class="c">tuning</text><text x="17.034" y="1.67" class="d">██████████████████████████</text><text x="43.086" y="1.67" class="h">█████</text><text x="51.102" y="1.67" class="c">82%</text><text x="55.10999999999999" y="1.67" class="c">|</text><text x="57.114" y="1.67" class="c">ETA:</text><text x="63.12599999999999" y="1.67" class="c">1s</text></svg><svg x="5460"><use xlink:href="#a"></use><text x="0" y="1.67" class="c">Parameter</text><text x="10.02" y="1.67" class="c">tuning</text><text x="17.034" y="1.67" class="d">███████████████████████████</text><text x="44.087999999999994" y="1.67" class="h">████</text><text x="51.102" y="1.67" class="c">85%</text><text x="55.10999999999999" y="1.67" class="c">|</text><text x="57.114" y="1.67" class="c">ETA:</text><text x="63.12599999999999" y="1.67" class="c">1s</text></svg><svg x="5530"><use xlink:href="#a"></use><text x="0" y="1.67" class="c">Parameter</text><text x="10.02" y="1.67" class="c">tuning</text><text x="17.034" y="1.67" class="d">███████████████████████████</text><text x="44.087999999999994" y="1.67" class="h">████</text><text x="51.102" y="1.67" class="c">87%</text><text x="55.10999999999999" y="1.67" class="c">|</text><text x="57.114" y="1.67" class="c">ETA:</text><text x="63.12599999999999" y="1.67" class="c">1s</text></svg><svg x="5600"><use xlink:href="#a"></use><text x="0" y="1.67" class="c">Parameter</text><text x="10.02" y="1.67" class="c">tuning</text><text x="17.034" y="1.67" class="d">████████████████████████████</text><text x="45.089999999999996" y="1.67" class="h">███</text><text x="51.102" y="1.67" class="c">90%</text><text x="55.10999999999999" y="1.67" class="c">|</text><text x="57.114" y="1.67" class="c">ETA:</text><text x="63.12599999999999" y="1.67" class="c">0s</text></svg><svg x="5670"><use xlink:href="#a"></use><text x="0" y="1.67" class="c">Parameter</text><text x="10.02" y="1.67" class="c">tuning</text><text x="17.034" y="1.67" class="d">█████████████████████████████</text><text x="46.09199999999999" y="1.67" class="h">██</text><text x="51.102" y="1.67" class="c">92%</text><text x="55.10999999999999" y="1.67" class="c">|</text><text x="57.114" y="1.67" class="c">ETA:</text><text x="63.12599999999999" y="1.67" class="c">0s</text></svg><svg x="5740"><use xlink:href="#a"></use><text x="0" y="1.67" class="c">Parameter</text><text x="10.02" y="1.67" class="c">tuning</text><text x="17.034" y="1.67" class="d">█████████████████████████████</text><text x="46.09199999999999" y="1.67" class="h">██</text><text x="51.102" y="1.67" class="c">95%</text><text x="55.10999999999999" y="1.67" class="c">|</text><text x="57.114" y="1.67" class="c">ETA:</text><text x="63.12599999999999" y="1.67" class="c">0s</text></svg><svg x="5810"><use xlink:href="#a"></use><text x="0" y="1.67" class="c">Parameter</text><text x="10.02" y="1.67" class="c">tuning</text><text x="17.034" y="1.67" class="d">██████████████████████████████</text><text x="47.093999999999994" y="1.67" class="h">█</text><text x="51.102" y="1.67" class="c">98%</text><text x="55.10999999999999" y="1.67" class="c">|</text><text x="57.114" y="1.67" class="c">ETA:</text><text x="63.12599999999999" y="1.67" class="c">0s</text></svg><svg x="5880"><use xlink:href="#a"></use><use xlink:href="#1" y="0"></use></svg><svg x="5950"><use xlink:href="#a"></use><use xlink:href="#1" y="0"></use></svg><svg x="6020"><use xlink:href="#a"></use><use xlink:href="#1" y="0"></use></svg></svg></g></g></svg></svg>