<svg xmlns="http://www.w3.org/2000/svg" xmlns:xlink="http://www.w3.org/1999/xlink" width="740" height="126.83999999999999"><rect width="740" height="126.83999999999999" rx="0" ry="0" class="a"></rect><svg height="86.83999999999999" viewBox="0 0 70 8.684" width="700" x="20" xmlns="http://www.w3.org/2000/svg" xmlns:xlink="http://www.w3.org/1999/xlink" y="20"><style>.a{fill:rgb(40,45,53)}.b{font-family:'Fira Code',Monaco,Consolas,Menlo,'Bitstream Vera Sans Mono','Powerline Symbols',monospace}.c{fill:rgb(168,204,140);white-space:pre}.d{fill:rgb(185,192,203);white-space:pre}.e{fill:rgb(190,190,190);white-space:pre}.f{fill:transparent}.h{animation-duration:12.4751551151276s;animation-iteration-count:infinite;animation-name:g;animation-timing-function:steps(1,end)}.i{fill:rgb(102,194,205);white-space:pre}@keyframes g{0%{transform:translateX(-0px)}0%{transform:translateX(-70px)}0.9%{transform:translateX(-140px)}0.9%{transform:translateX(-210px)}1.3%{transform:translateX(-280px)}2.2%{transform:translateX(-350px)}3.1%{transform:translateX(-420px)}3.9%{transform:translateX(-490px)}4.5%{transform:translateX(-560px)}5.5%{transform:translateX(-630px)}6.4%{transform:translateX(-700px)}7.2%{transform:translateX(-770px)}7.8%{transform:translateX(-840px)}8.8%{transform:translateX(-910px)}9.6%{transform:translateX(-980px)}10.5%{transform:translateX(-1050px)}11.1%{transform:translateX(-1120px)}12%{transform:translateX(-1190px)}12.8%{transform:translateX(-1260px)}13.6%{transform:translateX(-1330px)}14.5%{transform:translateX(-1400px)}15.3%{transform:translateX(-1470px)}16.2%{transform:translateX(-1540px)}16.8%{transform:translateX(-1610px)}17.7%{transform:translateX(-1680px)}18.5%{transform:translateX(-1750px)}19.4%{transform:translateX(-1820px)}20.2%{transform:translateX(-1890px)}21%{transform:translateX(-1960px)}21.8%{transform:translateX(-2030px)}21.9%{transform:translateX(-2100px)}21.9%{transform:translateX(-2170px)}21.9%{transform:translateX(-2240px)}30.1%{transform:translateX(-2310px)}30.2%{transform:translateX(-2380px)}30.2%{transform:translateX(-2450px)}46.4%{transform:translateX(-2520px)}46.4%{transform:translateX(-2590px)}46.4%{transform:translateX(-2660px)}47.3%{transform:translateX(-2730px)}48.2%{transform:translateX(-2800px)}49%{transform:translateX(-2870px)}49.9%{transform:translateX(-2940px)}50.8%{transform:translateX(-3010px)}51.7%{transform:translateX(-3080px)}52.5%{transform:translateX(-3150px)}53.4%{transform:translateX(-3220px)}54%{transform:translateX(-3290px)}54.9%{transform:translateX(-3360px)}55.8%{transform:translateX(-3430px)}56.6%{transform:translateX(-3500px)}57.5%{transform:translateX(-3570px)}58.1%{transform:translateX(-3640px)}59%{transform:translateX(-3710px)}59.9%{transform:translateX(-3780px)}60.7%{transform:translateX(-3850px)}61.6%{transform:translateX(-3920px)}62.4%{transform:translateX(-3990px)}63.2%{transform:translateX(-4060px)}64.1%{transform:translateX(-4130px)}64.7%{transform:translateX(-4200px)}65.6%{transform:translateX(-4270px)}66.4%{transform:translateX(-4340px)}67.2%{transform:translateX(-4410px)}68.1%{transform:translateX(-4480px)}68.9%{transform:translateX(-4550px)}69.8%{transform:translateX(-4620px)}70.7%{transform:translateX(-4690px)}71.5%{transform:translateX(-4760px)}72.3%{transform:translateX(-4830px)}73.1%{transform:translateX(-4900px)}74%{transform:translateX(-4970px)}74.8%{transform:translateX(-5040px)}75.1%{transform:translateX(-5110px)}75.1%{transform:translateX(-5180px)}100%{transform:translateX(-5250px)}}</style><g font-family="&#x27;Fira Code&#x27;,Monaco,Consolas,Menlo,&#x27;Bitstream Vera Sans Mono&#x27;,&#x27;Powerline Symbols&#x27;,monospace" font-size="1.67" class="b"><defs><symbol id="1"><text x="0" y="1.67" class="c">✔</text><text x="2.004" y="1.67" class="d">Downloading</text><text x="14.027999999999999" y="1.67" class="d">data,</text><text x="20.04" y="1.67" class="d">got</text><text x="24.048" y="1.67" class="d">file</text><text x="29.058" y="1.67" class="d">100/100</text><text x="37.074" y="1.67" class="e">[2.6s]</text></symbol><symbol id="2"><text x="0" y="1.67" class="c">✔</text><text x="2.004" y="1.67" class="d">Importing</text><text x="12.024" y="1.67" class="d">data</text><text x="17.034" y="1.67" class="e">[1s]</text></symbol><symbol id="3"><text x="0" y="1.67" class="c">✔</text><text x="2.004" y="1.67" class="d">Cleaning</text><text x="11.021999999999998" y="1.67" class="d">data</text><text x="16.032" y="1.67" class="e">[2s]</text></symbol><symbol id="4"><text x="0" y="1.67" class="d">⠙</text><text x="2.004" y="1.67" class="d">Fitting</text><text x="10.02" y="1.67" class="d">model</text></symbol><symbol id="5"><text x="0" y="1.67" class="d">⠹</text><text x="2.004" y="1.67" class="d">Fitting</text><text x="10.02" y="1.67" class="d">model</text></symbol><symbol id="6"><text x="0" y="1.67" class="d">⠸</text><text x="2.004" y="1.67" class="d">Fitting</text><text x="10.02" y="1.67" class="d">model</text></symbol><symbol id="7"><text x="0" y="1.67" class="d">⠼</text><text x="2.004" y="1.67" class="d">Fitting</text><text x="10.02" y="1.67" class="d">model</text></symbol><symbol id="8"><text x="0" y="1.67" class="d">⠴</text><text x="2.004" y="1.67" class="d">Fitting</text><text x="10.02" y="1.67" class="d">model</text></symbol><symbol id="9"><text x="0" y="1.67" class="d">⠦</text><text x="2.004" y="1.67" class="d">Fitting</text><text x="10.02" y="1.67" class="d">model</text></symbol><symbol id="10"><text x="0" y="1.67" class="d">⠧</text><text x="2.004" y="1.67" class="d">Fitting</text><text x="10.02" y="1.67" class="d">model</text></symbol><symbol id="11"><text x="0" y="1.67" class="d">⠇</text><text x="2.004" y="1.67" class="d">Fitting</text><text x="10.02" y="1.67" class="d">model</text></symbol><symbol id="12"><text x="0" y="1.67" class="d">⠏</text><text x="2.004" y="1.67" class="d">Fitting</text><text x="10.02" y="1.67" class="d">model</text></symbol><symbol id="13"><text x="0" y="1.67" class="d">⠋</text><text x="2.004" y="1.67" class="d">Fitting</text><text x="10.02" y="1.67" class="d">model</text></symbol><symbol id="14"><text x="0" y="1.67" class="c">✔</text><text x="2.004" y="1.67" class="d">Fitting</text><text x="10.02" y="1.67" class="d">model</text><text x="16.032" y="1.67" class="e">[3.6s]</text></symbol><symbol id="a"><rect height="5" width="70" x="0" y="0" class="f"></rect></symbol></defs><rect height="8.684" width="70" class="a"></rect><g class="h"><svg x="0" y="0" width="5320"><svg x="0"><use xlink:href="#a"></use></svg><svg x="70"><use xlink:href="#a"></use></svg><svg x="140"><use xlink:href="#a"></use></svg><svg x="210"><use xlink:href="#a"></use><text x="0" y="1.67" class="d">⠙</text><text x="2.004" y="1.67" class="d">Downloading</text><text x="14.027999999999999" y="1.67" class="d">data</text></svg><svg x="280"><use xlink:href="#a"></use><text x="0" y="1.67" class="d">⠹</text><text x="2.004" y="1.67" class="d">Downloading</text><text x="14.027999999999999" y="1.67" class="d">data,</text><text x="20.04" y="1.67" class="d">got</text><text x="24.048" y="1.67" class="d">file</text><text x="29.058" y="1.67" class="d">2/100</text></svg><svg x="350"><use xlink:href="#a"></use><text x="0" y="1.67" class="d">⠸</text><text x="2.004" y="1.67" class="d">Downloading</text><text x="14.027999999999999" y="1.67" class="d">data,</text><text x="20.04" y="1.67" class="d">got</text><text x="24.048" y="1.67" class="d">file</text><text x="29.058" y="1.67" class="d">6/100</text></svg><svg x="420"><use xlink:href="#a"></use><text x="0" y="1.67" class="d">⠼</text><text x="2.004" y="1.67" class="d">Downloading</text><text x="14.027999999999999" y="1.67" class="d">data,</text><text x="20.04" y="1.67" class="d">got</text><text x="24.048" y="1.67" class="d">file</text><text x="29.058" y="1.67" class="d">10/100</text></svg><svg x="490"><use xlink:href="#a"></use><text x="0" y="1.67" class="d">⠴</text><text x="2.004" y="1.67" class="d">Downloading</text><text x="14.027999999999999" y="1.67" class="d">data,</text><text x="20.04" y="1.67" class="d">got</text><text x="24.048" y="1.67" class="d">file</text><text x="29.058" y="1.67" class="d">14/100</text></svg><svg x="560"><use xlink:href="#a"></use><text x="0" y="1.67" class="d">⠦</text><text x="2.004" y="1.67" class="d">Downloading</text><text x="14.027999999999999" y="1.67" class="d">data,</text><text x="20.04" y="1.67" class="d">got</text><text x="24.048" y="1.67" class="d">file</text><text x="29.058" y="1.67" class="d">17/100</text></svg><svg x="630"><use xlink:href="#a"></use><text x="0" y="1.67" class="d">⠧</text><text x="2.004" y="1.67" class="d">Downloading</text><text x="14.027999999999999" y="1.67" class="d">data,</text><text x="20.04" y="1.67" class="d">got</text><text x="24.048" y="1.67" class="d">file</text><text x="29.058" y="1.67" class="d">22/100</text></svg><svg x="700"><use xlink:href="#a"></use><text x="0" y="1.67" class="d">⠇</text><text x="2.004" y="1.67" class="d">Downloading</text><text x="14.027999999999999" y="1.67" class="d">data,</text><text x="20.04" y="1.67" class="d">got</text><text x="24.048" y="1.67" class="d">file</text><text x="29.058" y="1.67" class="d">26/100</text></svg><svg x="770"><use xlink:href="#a"></use><text x="0" y="1.67" class="d">⠏</text><text x="2.004" y="1.67" class="d">Downloading</text><text x="14.027999999999999" y="1.67" class="d">data,</text><text x="20.04" y="1.67" class="d">got</text><text x="24.048" y="1.67" class="d">file</text><text x="29.058" y="1.67" class="d">30/100</text></svg><svg x="840"><use xlink:href="#a"></use><text x="0" y="1.67" class="d">⠋</text><text x="2.004" y="1.67" class="d">Downloading</text><text x="14.027999999999999" y="1.67" class="d">data,</text><text x="20.04" y="1.67" class="d">got</text><text x="24.048" y="1.67" class="d">file</text><text x="29.058" y="1.67" class="d">33/100</text></svg><svg x="910"><use xlink:href="#a"></use><text x="0" y="1.67" class="d">⠙</text><text x="2.004" y="1.67" class="d">Downloading</text><text x="14.027999999999999" y="1.67" class="d">data,</text><text x="20.04" y="1.67" class="d">got</text><text x="24.048" y="1.67" class="d">file</text><text x="29.058" y="1.67" class="d">37/100</text></svg><svg x="980"><use xlink:href="#a"></use><text x="0" y="1.67" class="d">⠹</text><text x="2.004" y="1.67" class="d">Downloading</text><text x="14.027999999999999" y="1.67" class="d">data,</text><text x="20.04" y="1.67" class="d">got</text><text x="24.048" y="1.67" class="d">file</text><text x="29.058" y="1.67" class="d">42/100</text></svg><svg x="1050"><use xlink:href="#a"></use><text x="0" y="1.67" class="d">⠸</text><text x="2.004" y="1.67" class="d">Downloading</text><text x="14.027999999999999" y="1.67" class="d">data,</text><text x="20.04" y="1.67" class="d">got</text><text x="24.048" y="1.67" class="d">file</text><text x="29.058" y="1.67" class="d">46/100</text></svg><svg x="1120"><use xlink:href="#a"></use><text x="0" y="1.67" class="d">⠼</text><text x="2.004" y="1.67" class="d">Downloading</text><text x="14.027999999999999" y="1.67" class="d">data,</text><text x="20.04" y="1.67" class="d">got</text><text x="24.048" y="1.67" class="d">file</text><text x="29.058" y="1.67" class="d">49/100</text></svg><svg x="1190"><use xlink:href="#a"></use><text x="0" y="1.67" class="d">⠴</text><text x="2.004" y="1.67" class="d">Downloading</text><text x="14.027999999999999" y="1.67" class="d">data,</text><text x="20.04" y="1.67" class="d">got</text><text x="24.048" y="1.67" class="d">file</text><text x="29.058" y="1.67" class="d">53/100</text></svg><svg x="1260"><use xlink:href="#a"></use><text x="0" y="1.67" class="d">⠦</text><text x="2.004" y="1.67" class="d">Downloading</text><text x="14.027999999999999" y="1.67" class="d">data,</text><text x="20.04" y="1.67" class="d">got</text><text x="24.048" y="1.67" class="d">file</text><text x="29.058" y="1.67" class="d">57/100</text></svg><svg x="1330"><use xlink:href="#a"></use><text x="0" y="1.67" class="d">⠧</text><text x="2.004" y="1.67" class="d">Downloading</text><text x="14.027999999999999" y="1.67" class="d">data,</text><text x="20.04" y="1.67" class="d">got</text><text x="24.048" y="1.67" class="d">file</text><text x="29.058" y="1.67" class="d">61/100</text></svg><svg x="1400"><use xlink:href="#a"></use><text x="0" y="1.67" class="d">⠇</text><text x="2.004" y="1.67" class="d">Downloading</text><text x="14.027999999999999" y="1.67" class="d">data,</text><text x="20.04" y="1.67" class="d">got</text><text x="24.048" y="1.67" class="d">file</text><text x="29.058" y="1.67" class="d">65/100</text></svg><svg x="1470"><use xlink:href="#a"></use><text x="0" y="1.67" class="d">⠏</text><text x="2.004" y="1.67" class="d">Downloading</text><text x="14.027999999999999" y="1.67" class="d">data,</text><text x="20.04" y="1.67" class="d">got</text><text x="24.048" y="1.67" class="d">file</text><text x="29.058" y="1.67" class="d">69/100</text></svg><svg x="1540"><use xlink:href="#a"></use><text x="0" y="1.67" class="d">⠋</text><text x="2.004" y="1.67" class="d">Downloading</text><text x="14.027999999999999" y="1.67" class="d">data,</text><text x="20.04" y="1.67" class="d">got</text><text x="24.048" y="1.67" class="d">file</text><text x="29.058" y="1.67" class="d">73/100</text></svg><svg x="1610"><use xlink:href="#a"></use><text x="0" y="1.67" class="d">⠙</text><text x="2.004" y="1.67" class="d">Downloading</text><text x="14.027999999999999" y="1.67" class="d">data,</text><text x="20.04" y="1.67" class="d">got</text><text x="24.048" y="1.67" class="d">file</text><text x="29.058" y="1.67" class="d">76/100</text></svg><svg x="1680"><use xlink:href="#a"></use><text x="0" y="1.67" class="d">⠹</text><text x="2.004" y="1.67" class="d">Downloading</text><text x="14.027999999999999" y="1.67" class="d">data,</text><text x="20.04" y="1.67" class="d">got</text><text x="24.048" y="1.67" class="d">file</text><text x="29.058" y="1.67" class="d">80/100</text></svg><svg x="1750"><use xlink:href="#a"></use><text x="0" y="1.67" class="d">⠸</text><text x="2.004" y="1.67" class="d">Downloading</text><text x="14.027999999999999" y="1.67" class="d">data,</text><text x="20.04" y="1.67" class="d">got</text><text x="24.048" y="1.67" class="d">file</text><text x="29.058" y="1.67" class="d">84/100</text></svg><svg x="1820"><use xlink:href="#a"></use><text x="0" y="1.67" class="d">⠼</text><text x="2.004" y="1.67" class="d">Downloading</text><text x="14.027999999999999" y="1.67" class="d">data,</text><text x="20.04" y="1.67" class="d">got</text><text x="24.048" y="1.67" class="d">file</text><text x="29.058" y="1.67" class="d">88/100</text></svg><svg x="1890"><use xlink:href="#a"></use><text x="0" y="1.67" class="d">⠴</text><text x="2.004" y="1.67" class="d">Downloading</text><text x="14.027999999999999" y="1.67" class="d">data,</text><text x="20.04" y="1.67" class="d">got</text><text x="24.048" y="1.67" class="d">file</text><text x="29.058" y="1.67" class="d">92/100</text></svg><svg x="1960"><use xlink:href="#a"></use><text x="0" y="1.67" class="d">⠦</text><text x="2.004" y="1.67" class="d">Downloading</text><text x="14.027999999999999" y="1.67" class="d">data,</text><text x="20.04" y="1.67" class="d">got</text><text x="24.048" y="1.67" class="d">file</text><text x="29.058" y="1.67" class="d">96/100</text></svg><svg x="2030"><use xlink:href="#a"></use><text x="0" y="1.67" class="d">⠧</text><text x="2.004" y="1.67" class="d">Downloading</text><text x="14.027999999999999" y="1.67" class="d">data,</text><text x="20.04" y="1.67" class="d">got</text><text x="24.048" y="1.67" class="d">file</text><text x="29.058" y="1.67" class="d">100/100</text></svg><svg x="2100"><use xlink:href="#a"></use><use xlink:href="#1" y="0"></use></svg><svg x="2170"><use xlink:href="#a"></use><use xlink:href="#1" y="0"></use></svg><svg x="2240"><use xlink:href="#a"></use><use xlink:href="#1" y="0"></use><text x="0" y="3.8409999999999997" class="i">ℹ</text><text x="2.004" y="3.8409999999999997" class="d">Importing</text><text x="12.024" y="3.8409999999999997" class="d">data</text></svg><svg x="2310"><use xlink:href="#a"></use><use xlink:href="#1" y="0"></use><use xlink:href="#2" y="2.171"></use></svg><svg x="2380"><use xlink:href="#a"></use><use xlink:href="#1" y="0"></use><use xlink:href="#2" y="2.171"></use></svg><svg x="2450"><use xlink:href="#a"></use><use xlink:href="#1" y="0"></use><use xlink:href="#2" y="2.171"></use><text x="0" y="6.012" class="i">ℹ</text><text x="2.004" y="6.012" class="d">Cleaning</text><text x="11.021999999999998" y="6.012" class="d">data</text></svg><svg x="2520"><use xlink:href="#a"></use><use xlink:href="#1" y="0"></use><use xlink:href="#2" y="2.171"></use><use xlink:href="#3" y="4.342"></use></svg><svg x="2590"><use xlink:href="#a"></use><use xlink:href="#1" y="0"></use><use xlink:href="#2" y="2.171"></use><use xlink:href="#3" y="4.342"></use></svg><svg x="2660"><use xlink:href="#a"></use><use xlink:href="#1" y="0"></use><use xlink:href="#2" y="2.171"></use><use xlink:href="#3" y="4.342"></use><use xlink:href="#4" y="6.513"></use></svg><svg x="2730"><use xlink:href="#a"></use><use xlink:href="#1" y="0"></use><use xlink:href="#2" y="2.171"></use><use xlink:href="#3" y="4.342"></use><use xlink:href="#5" y="6.513"></use></svg><svg x="2800"><use xlink:href="#a"></use><use xlink:href="#1" y="0"></use><use xlink:href="#2" y="2.171"></use><use xlink:href="#3" y="4.342"></use><use xlink:href="#6" y="6.513"></use></svg><svg x="2870"><use xlink:href="#a"></use><use xlink:href="#1" y="0"></use><use xlink:href="#2" y="2.171"></use><use xlink:href="#3" y="4.342"></use><use xlink:href="#7" y="6.513"></use></svg><svg x="2940"><use xlink:href="#a"></use><use xlink:href="#1" y="0"></use><use xlink:href="#2" y="2.171"></use><use xlink:href="#3" y="4.342"></use><use xlink:href="#8" y="6.513"></use></svg><svg x="3010"><use xlink:href="#a"></use><use xlink:href="#1" y="0"></use><use xlink:href="#2" y="2.171"></use><use xlink:href="#3" y="4.342"></use><use xlink:href="#9" y="6.513"></use></svg><svg x="3080"><use xlink:href="#a"></use><use xlink:href="#1" y="0"></use><use xlink:href="#2" y="2.171"></use><use xlink:href="#3" y="4.342"></use><use xlink:href="#10" y="6.513"></use></svg><svg x="3150"><use xlink:href="#a"></use><use xlink:href="#1" y="0"></use><use xlink:href="#2" y="2.171"></use><use xlink:href="#3" y="4.342"></use><use xlink:href="#11" y="6.513"></use></svg><svg x="3220"><use xlink:href="#a"></use><use xlink:href="#1" y="0"></use><use xlink:href="#2" y="2.171"></use><use xlink:href="#3" y="4.342"></use><use xlink:href="#12" y="6.513"></use></svg><svg x="3290"><use xlink:href="#a"></use><use xlink:href="#1" y="0"></use><use xlink:href="#2" y="2.171"></use><use xlink:href="#3" y="4.342"></use><use xlink:href="#13" y="6.513"></use></svg><svg x="3360"><use xlink:href="#a"></use><use xlink:href="#1" y="0"></use><use xlink:href="#2" y="2.171"></use><use xlink:href="#3" y="4.342"></use><use xlink:href="#4" y="6.513"></use></svg><svg x="3430"><use xlink:href="#a"></use><use xlink:href="#1" y="0"></use><use xlink:href="#2" y="2.171"></use><use xlink:href="#3" y="4.342"></use><use xlink:href="#5" y="6.513"></use></svg><svg x="3500"><use xlink:href="#a"></use><use xlink:href="#1" y="0"></use><use xlink:href="#2" y="2.171"></use><use xlink:href="#3" y="4.342"></use><use xlink:href="#6" y="6.513"></use></svg><svg x="3570"><use xlink:href="#a"></use><use xlink:href="#1" y="0"></use><use xlink:href="#2" y="2.171"></use><use xlink:href="#3" y="4.342"></use><use xlink:href="#7" y="6.513"></use></svg><svg x="3640"><use xlink:href="#a"></use><use xlink:href="#1" y="0"></use><use xlink:href="#2" y="2.171"></use><use xlink:href="#3" y="4.342"></use><use xlink:href="#8" y="6.513"></use></svg><svg x="3710"><use xlink:href="#a"></use><use xlink:href="#1" y="0"></use><use xlink:href="#2" y="2.171"></use><use xlink:href="#3" y="4.342"></use><use xlink:href="#9" y="6.513"></use></svg><svg x="3780"><use xlink:href="#a"></use><use xlink:href="#1" y="0"></use><use xlink:href="#2" y="2.171"></use><use xlink:href="#3" y="4.342"></use><use xlink:href="#10" y="6.513"></use></svg><svg x="3850"><use xlink:href="#a"></use><use xlink:href="#1" y="0"></use><use xlink:href="#2" y="2.171"></use><use xlink:href="#3" y="4.342"></use><use xlink:href="#11" y="6.513"></use></svg><svg x="3920"><use xlink:href="#a"></use><use xlink:href="#1" y="0"></use><use xlink:href="#2" y="2.171"></use><use xlink:href="#3" y="4.342"></use><use xlink:href="#12" y="6.513"></use></svg><svg x="3990"><use xlink:href="#a"></use><use xlink:href="#1" y="0"></use><use xlink:href="#2" y="2.171"></use><use xlink:href="#3" y="4.342"></use><use xlink:href="#13" y="6.513"></use></svg><svg x="4060"><use xlink:href="#a"></use><use xlink:href="#1" y="0"></use><use xlink:href="#2" y="2.171"></use><use xlink:href="#3" y="4.342"></use><use xlink:href="#4" y="6.513"></use></svg><svg x="4130"><use xlink:href="#a"></use><use xlink:href="#1" y="0"></use><use xlink:href="#2" y="2.171"></use><use xlink:href="#3" y="4.342"></use><use xlink:href="#5" y="6.513"></use></svg><svg x="4200"><use xlink:href="#a"></use><use xlink:href="#1" y="0"></use><use xlink:href="#2" y="2.171"></use><use xlink:href="#3" y="4.342"></use><use xlink:href="#6" y="6.513"></use></svg><svg x="4270"><use xlink:href="#a"></use><use xlink:href="#1" y="0"></use><use xlink:href="#2" y="2.171"></use><use xlink:href="#3" y="4.342"></use><use xlink:href="#7" y="6.513"></use></svg><svg x="4340"><use xlink:href="#a"></use><use xlink:href="#1" y="0"></use><use xlink:href="#2" y="2.171"></use><use xlink:href="#3" y="4.342"></use><use xlink:href="#8" y="6.513"></use></svg><svg x="4410"><use xlink:href="#a"></use><use xlink:href="#1" y="0"></use><use xlink:href="#2" y="2.171"></use><use xlink:href="#3" y="4.342"></use><use xlink:href="#9" y="6.513"></use></svg><svg x="4480"><use xlink:href="#a"></use><use xlink:href="#1" y="0"></use><use xlink:href="#2" y="2.171"></use><use xlink:href="#3" y="4.342"></use><use xlink:href="#10" y="6.513"></use></svg><svg x="4550"><use xlink:href="#a"></use><use xlink:href="#1" y="0"></use><use xlink:href="#2" y="2.171"></use><use xlink:href="#3" y="4.342"></use><use xlink:href="#11" y="6.513"></use></svg><svg x="4620"><use xlink:href="#a"></use><use xlink:href="#1" y="0"></use><use xlink:href="#2" y="2.171"></use><use xlink:href="#3" y="4.342"></use><use xlink:href="#12" y="6.513"></use></svg><svg x="4690"><use xlink:href="#a"></use><use xlink:href="#1" y="0"></use><use xlink:href="#2" y="2.171"></use><use xlink:href="#3" y="4.342"></use><use xlink:href="#13" y="6.513"></use></svg><svg x="4760"><use xlink:href="#a"></use><use xlink:href="#1" y="0"></use><use xlink:href="#2" y="2.171"></use><use xlink:href="#3" y="4.342"></use><use xlink:href="#4" y="6.513"></use></svg><svg x="4830"><use xlink:href="#a"></use><use xlink:href="#1" y="0"></use><use xlink:href="#2" y="2.171"></use><use xlink:href="#3" y="4.342"></use><use xlink:href="#5" y="6.513"></use></svg><svg x="4900"><use xlink:href="#a"></use><use xlink:href="#1" y="0"></use><use xlink:href="#2" y="2.171"></use><use xlink:href="#3" y="4.342"></use><use xlink:href="#6" y="6.513"></use></svg><svg x="4970"><use xlink:href="#a"></use><use xlink:href="#1" y="0"></use><use xlink:href="#2" y="2.171"></use><use xlink:href="#3" y="4.342"></use><use xlink:href="#7" y="6.513"></use></svg><svg x="5040"><use xlink:href="#a"></use><use xlink:href="#1" y="0"></use><use xlink:href="#2" y="2.171"></use><use xlink:href="#3" y="4.342"></use><use xlink:href="#8" y="6.513"></use></svg><svg x="5110"><use xlink:href="#a"></use><use xlink:href="#1" y="0"></use><use xlink:href="#2" y="2.171"></use><use xlink:href="#3" y="4.342"></use><use xlink:href="#14" y="6.513"></use></svg><svg x="5180"><use xlink:href="#a"></use><use xlink:href="#1" y="0"></use><use xlink:href="#2" y="2.171"></use><use xlink:href="#3" y="4.342"></use><use xlink:href="#14" y="6.513"></use></svg><svg x="5250"><use xlink:href="#a"></use><use xlink:href="#1" y="0"></use><use xlink:href="#2" y="2.171"></use><use xlink:href="#3" y="4.342"></use><use xlink:href="#14" y="6.513"></use></svg></svg></g></g></svg></svg>