<svg xmlns="http://www.w3.org/2000/svg" xmlns:xlink="http://www.w3.org/1999/xlink" width="740" height="83.41999999999999"><rect width="740" height="83.41999999999999" rx="0" ry="0" class="a"></rect><svg height="43.419999999999995" viewBox="0 0 70 4.342" width="700" x="20" xmlns="http://www.w3.org/2000/svg" xmlns:xlink="http://www.w3.org/1999/xlink" y="20"><style>.a{fill:rgb(40,45,53)}.b{font-family:'Fira Code',Monaco,Consolas,Menlo,'Bitstream Vera Sans Mono','Powerline Symbols',monospace}.c{fill:rgb(185,192,203);white-space:pre}.d{fill:rgb(168,204,140);white-space:pre}.e{fill:transparent}.g{animation-duration:8.13067483901978s;animation-iteration-count:infinite;animation-name:f;animation-timing-function:steps(1,end)}.h{fill:rgb(111,119,131);white-space:pre}@keyframes f{0%{transform:translateX(-0px)}0%{transform:translateX(-70px)}1.3%{transform:translateX(-140px)}2.9%{transform:translateX(-210px)}28%{transform:translateX(-280px)}28.2%{transform:translateX(-350px)}29%{transform:translateX(-420px)}30.3%{transform:translateX(-490px)}31.5%{transform:translateX(-560px)}32.8%{transform:translateX(-630px)}34.1%{transform:translateX(-700px)}35.3%{transform:translateX(-770px)}36.6%{transform:translateX(-840px)}37.8%{transform:translateX(-910px)}39.1%{transform:translateX(-980px)}40.4%{transform:translateX(-1050px)}41.7%{transform:translateX(-1120px)}42.9%{transform:translateX(-1190px)}44.1%{transform:translateX(-1260px)}45.9%{transform:translateX(-1330px)}47.1%{transform:translateX(-1400px)}48.3%{transform:translateX(-1470px)}49.6%{transform:translateX(-1540px)}50.9%{transform:translateX(-1610px)}52.2%{transform:translateX(-1680px)}53%{transform:translateX(-1750px)}54.3%{transform:translateX(-1820px)}55.5%{transform:translateX(-1890px)}56.8%{transform:translateX(-1960px)}58.1%{transform:translateX(-2030px)}59.8%{transform:translateX(-2100px)}61.1%{transform:translateX(-2170px)}61.8%{transform:translateX(-2240px)}61.8%{transform:translateX(-2310px)}100%{transform:translateX(-2380px)}}</style><g font-family="&#x27;Fira Code&#x27;,Monaco,Consolas,Menlo,&#x27;Bitstream Vera Sans Mono&#x27;,&#x27;Powerline Symbols&#x27;,monospace" font-size="1.67" class="b"><defs><symbol id="1"><text x="0" y="1.67" class="c">→</text><text x="2.004" y="1.67" class="c">Starting</text><text x="11.021999999999998" y="1.67" class="c">now,</text><text x="16.032" y="1.67" class="c">at</text><text x="19.037999999999997" y="1.67" class="c">2022-04-27</text><text x="30.059999999999995" y="1.67" class="c">10:44:50</text></symbol><symbol id="2"><text x="0" y="1.67" class="d">███████████████████████████████</text><text x="33.065999999999995" y="1.67" class="c">100%</text><text x="38.07599999999999" y="1.67" class="c">@</text><text x="40.08" y="1.67" class="c">2022-04-27</text><text x="51.102" y="1.67" class="c">10:44:55</text></symbol><symbol id="a"><rect height="3" width="70" x="0" y="0" class="e"></rect></symbol></defs><rect height="4.342" width="70" class="a"></rect><g class="g"><svg x="0" y="0" width="2450"><svg x="0"><use xlink:href="#a"></use></svg><svg x="70"><use xlink:href="#a"></use></svg><svg x="140"><use xlink:href="#a"></use></svg><svg x="210"><use xlink:href="#a"></use><use xlink:href="#1" y="0"></use></svg><svg x="280"><use xlink:href="#a"></use><use xlink:href="#1" y="0"></use></svg><svg x="350"><use xlink:href="#a"></use><use xlink:href="#1" y="0"></use><text x="0" y="3.8409999999999997" class="d">███████████████</text><text x="15.029999999999998" y="3.8409999999999997" class="h">████████████████</text><text x="34.068" y="3.8409999999999997" class="c">47%</text><text x="38.07599999999999" y="3.8409999999999997" class="c">@</text><text x="40.08" y="3.8409999999999997" class="c">2022-04-27</text><text x="51.102" y="3.8409999999999997" class="c">10:44:52</text></svg><svg x="420"><use xlink:href="#a"></use><use xlink:href="#1" y="0"></use><text x="0" y="3.8409999999999997" class="d">███████████████</text><text x="15.029999999999998" y="3.8409999999999997" class="h">████████████████</text><text x="34.068" y="3.8409999999999997" class="c">48%</text><text x="38.07599999999999" y="3.8409999999999997" class="c">@</text><text x="40.08" y="3.8409999999999997" class="c">2022-04-27</text><text x="51.102" y="3.8409999999999997" class="c">10:44:53</text></svg><svg x="490"><use xlink:href="#a"></use><use xlink:href="#1" y="0"></use><text x="0" y="3.8409999999999997" class="d">████████████████</text><text x="16.032" y="3.8409999999999997" class="h">███████████████</text><text x="34.068" y="3.8409999999999997" class="c">50%</text><text x="38.07599999999999" y="3.8409999999999997" class="c">@</text><text x="40.08" y="3.8409999999999997" class="c">2022-04-27</text><text x="51.102" y="3.8409999999999997" class="c">10:44:53</text></svg><svg x="560"><use xlink:href="#a"></use><use xlink:href="#1" y="0"></use><text x="0" y="3.8409999999999997" class="d">█████████████████</text><text x="17.034" y="3.8409999999999997" class="h">██████████████</text><text x="34.068" y="3.8409999999999997" class="c">52%</text><text x="38.07599999999999" y="3.8409999999999997" class="c">@</text><text x="40.08" y="3.8409999999999997" class="c">2022-04-27</text><text x="51.102" y="3.8409999999999997" class="c">10:44:53</text></svg><svg x="630"><use xlink:href="#a"></use><use xlink:href="#1" y="0"></use><text x="0" y="3.8409999999999997" class="d">█████████████████</text><text x="17.034" y="3.8409999999999997" class="h">██████████████</text><text x="34.068" y="3.8409999999999997" class="c">54%</text><text x="38.07599999999999" y="3.8409999999999997" class="c">@</text><text x="40.08" y="3.8409999999999997" class="c">2022-04-27</text><text x="51.102" y="3.8409999999999997" class="c">10:44:53</text></svg><svg x="700"><use xlink:href="#a"></use><use xlink:href="#1" y="0"></use><text x="0" y="3.8409999999999997" class="d">██████████████████</text><text x="18.035999999999998" y="3.8409999999999997" class="h">█████████████</text><text x="34.068" y="3.8409999999999997" class="c">56%</text><text x="38.07599999999999" y="3.8409999999999997" class="c">@</text><text x="40.08" y="3.8409999999999997" class="c">2022-04-27</text><text x="51.102" y="3.8409999999999997" class="c">10:44:53</text></svg><svg x="770"><use xlink:href="#a"></use><use xlink:href="#1" y="0"></use><text x="0" y="3.8409999999999997" class="d">██████████████████</text><text x="18.035999999999998" y="3.8409999999999997" class="h">█████████████</text><text x="34.068" y="3.8409999999999997" class="c">58%</text><text x="38.07599999999999" y="3.8409999999999997" class="c">@</text><text x="40.08" y="3.8409999999999997" class="c">2022-04-27</text><text x="51.102" y="3.8409999999999997" class="c">10:44:53</text></svg><svg x="840"><use xlink:href="#a"></use><use xlink:href="#1" y="0"></use><text x="0" y="3.8409999999999997" class="d">███████████████████</text><text x="19.037999999999997" y="3.8409999999999997" class="h">████████████</text><text x="34.068" y="3.8409999999999997" class="c">60%</text><text x="38.07599999999999" y="3.8409999999999997" class="c">@</text><text x="40.08" y="3.8409999999999997" class="c">2022-04-27</text><text x="51.102" y="3.8409999999999997" class="c">10:44:53</text></svg><svg x="910"><use xlink:href="#a"></use><use xlink:href="#1" y="0"></use><text x="0" y="3.8409999999999997" class="d">████████████████████</text><text x="20.04" y="3.8409999999999997" class="h">███████████</text><text x="34.068" y="3.8409999999999997" class="c">62%</text><text x="38.07599999999999" y="3.8409999999999997" class="c">@</text><text x="40.08" y="3.8409999999999997" class="c">2022-04-27</text><text x="51.102" y="3.8409999999999997" class="c">10:44:53</text></svg><svg x="980"><use xlink:href="#a"></use><use xlink:href="#1" y="0"></use><text x="0" y="3.8409999999999997" class="d">████████████████████</text><text x="20.04" y="3.8409999999999997" class="h">███████████</text><text x="34.068" y="3.8409999999999997" class="c">64%</text><text x="38.07599999999999" y="3.8409999999999997" class="c">@</text><text x="40.08" y="3.8409999999999997" class="c">2022-04-27</text><text x="51.102" y="3.8409999999999997" class="c">10:44:53</text></svg><svg x="1050"><use xlink:href="#a"></use><use xlink:href="#1" y="0"></use><text x="0" y="3.8409999999999997" class="d">█████████████████████</text><text x="21.041999999999998" y="3.8409999999999997" class="h">██████████</text><text x="34.068" y="3.8409999999999997" class="c">66%</text><text x="38.07599999999999" y="3.8409999999999997" class="c">@</text><text x="40.08" y="3.8409999999999997" class="c">2022-04-27</text><text x="51.102" y="3.8409999999999997" class="c">10:44:53</text></svg><svg x="1120"><use xlink:href="#a"></use><use xlink:href="#1" y="0"></use><text x="0" y="3.8409999999999997" class="d">█████████████████████</text><text x="21.041999999999998" y="3.8409999999999997" class="h">██████████</text><text x="34.068" y="3.8409999999999997" class="c">68%</text><text x="38.07599999999999" y="3.8409999999999997" class="c">@</text><text x="40.08" y="3.8409999999999997" class="c">2022-04-27</text><text x="51.102" y="3.8409999999999997" class="c">10:44:54</text></svg><svg x="1190"><use xlink:href="#a"></use><use xlink:href="#1" y="0"></use><text x="0" y="3.8409999999999997" class="d">██████████████████████</text><text x="22.043999999999997" y="3.8409999999999997" class="h">█████████</text><text x="34.068" y="3.8409999999999997" class="c">70%</text><text x="38.07599999999999" y="3.8409999999999997" class="c">@</text><text x="40.08" y="3.8409999999999997" class="c">2022-04-27</text><text x="51.102" y="3.8409999999999997" class="c">10:44:54</text></svg><svg x="1260"><use xlink:href="#a"></use><use xlink:href="#1" y="0"></use><text x="0" y="3.8409999999999997" class="d">███████████████████████</text><text x="23.045999999999996" y="3.8409999999999997" class="h">████████</text><text x="34.068" y="3.8409999999999997" class="c">72%</text><text x="38.07599999999999" y="3.8409999999999997" class="c">@</text><text x="40.08" y="3.8409999999999997" class="c">2022-04-27</text><text x="51.102" y="3.8409999999999997" class="c">10:44:54</text></svg><svg x="1330"><use xlink:href="#a"></use><use xlink:href="#1" y="0"></use><text x="0" y="3.8409999999999997" class="d">███████████████████████</text><text x="23.045999999999996" y="3.8409999999999997" class="h">████████</text><text x="34.068" y="3.8409999999999997" class="c">75%</text><text x="38.07599999999999" y="3.8409999999999997" class="c">@</text><text x="40.08" y="3.8409999999999997" class="c">2022-04-27</text><text x="51.102" y="3.8409999999999997" class="c">10:44:54</text></svg><svg x="1400"><use xlink:href="#a"></use><use xlink:href="#1" y="0"></use><text x="0" y="3.8409999999999997" class="d">████████████████████████</text><text x="24.048" y="3.8409999999999997" class="h">███████</text><text x="34.068" y="3.8409999999999997" class="c">77%</text><text x="38.07599999999999" y="3.8409999999999997" class="c">@</text><text x="40.08" y="3.8409999999999997" class="c">2022-04-27</text><text x="51.102" y="3.8409999999999997" class="c">10:44:54</text></svg><svg x="1470"><use xlink:href="#a"></use><use xlink:href="#1" y="0"></use><text x="0" y="3.8409999999999997" class="d">█████████████████████████</text><text x="25.05" y="3.8409999999999997" class="h">██████</text><text x="34.068" y="3.8409999999999997" class="c">79%</text><text x="38.07599999999999" y="3.8409999999999997" class="c">@</text><text x="40.08" y="3.8409999999999997" class="c">2022-04-27</text><text x="51.102" y="3.8409999999999997" class="c">10:44:54</text></svg><svg x="1540"><use xlink:href="#a"></use><use xlink:href="#1" y="0"></use><text x="0" y="3.8409999999999997" class="d">█████████████████████████</text><text x="25.05" y="3.8409999999999997" class="h">██████</text><text x="34.068" y="3.8409999999999997" class="c">81%</text><text x="38.07599999999999" y="3.8409999999999997" class="c">@</text><text x="40.08" y="3.8409999999999997" class="c">2022-04-27</text><text x="51.102" y="3.8409999999999997" class="c">10:44:54</text></svg><svg x="1610"><use xlink:href="#a"></use><use xlink:href="#1" y="0"></use><text x="0" y="3.8409999999999997" class="d">██████████████████████████</text><text x="26.052" y="3.8409999999999997" class="h">█████</text><text x="34.068" y="3.8409999999999997" class="c">83%</text><text x="38.07599999999999" y="3.8409999999999997" class="c">@</text><text x="40.08" y="3.8409999999999997" class="c">2022-04-27</text><text x="51.102" y="3.8409999999999997" class="c">10:44:54</text></svg><svg x="1680"><use xlink:href="#a"></use><use xlink:href="#1" y="0"></use><text x="0" y="3.8409999999999997" class="d">███████████████████████████</text><text x="27.054" y="3.8409999999999997" class="h">████</text><text x="34.068" y="3.8409999999999997" class="c">85%</text><text x="38.07599999999999" y="3.8409999999999997" class="c">@</text><text x="40.08" y="3.8409999999999997" class="c">2022-04-27</text><text x="51.102" y="3.8409999999999997" class="c">10:44:54</text></svg><svg x="1750"><use xlink:href="#a"></use><use xlink:href="#1" y="0"></use><text x="0" y="3.8409999999999997" class="d">███████████████████████████</text><text x="27.054" y="3.8409999999999997" class="h">████</text><text x="34.068" y="3.8409999999999997" class="c">86%</text><text x="38.07599999999999" y="3.8409999999999997" class="c">@</text><text x="40.08" y="3.8409999999999997" class="c">2022-04-27</text><text x="51.102" y="3.8409999999999997" class="c">10:44:54</text></svg><svg x="1820"><use xlink:href="#a"></use><use xlink:href="#1" y="0"></use><text x="0" y="3.8409999999999997" class="d">███████████████████████████</text><text x="27.054" y="3.8409999999999997" class="h">████</text><text x="34.068" y="3.8409999999999997" class="c">88%</text><text x="38.07599999999999" y="3.8409999999999997" class="c">@</text><text x="40.08" y="3.8409999999999997" class="c">2022-04-27</text><text x="51.102" y="3.8409999999999997" class="c">10:44:55</text></svg><svg x="1890"><use xlink:href="#a"></use><use xlink:href="#1" y="0"></use><text x="0" y="3.8409999999999997" class="d">████████████████████████████</text><text x="28.055999999999997" y="3.8409999999999997" class="h">███</text><text x="34.068" y="3.8409999999999997" class="c">90%</text><text x="38.07599999999999" y="3.8409999999999997" class="c">@</text><text x="40.08" y="3.8409999999999997" class="c">2022-04-27</text><text x="51.102" y="3.8409999999999997" class="c">10:44:55</text></svg><svg x="1960"><use xlink:href="#a"></use><use xlink:href="#1" y="0"></use><text x="0" y="3.8409999999999997" class="d">█████████████████████████████</text><text x="29.058" y="3.8409999999999997" class="h">██</text><text x="34.068" y="3.8409999999999997" class="c">92%</text><text x="38.07599999999999" y="3.8409999999999997" class="c">@</text><text x="40.08" y="3.8409999999999997" class="c">2022-04-27</text><text x="51.102" y="3.8409999999999997" class="c">10:44:55</text></svg><svg x="2030"><use xlink:href="#a"></use><use xlink:href="#1" y="0"></use><text x="0" y="3.8409999999999997" class="d">█████████████████████████████</text><text x="29.058" y="3.8409999999999997" class="h">██</text><text x="34.068" y="3.8409999999999997" class="c">94%</text><text x="38.07599999999999" y="3.8409999999999997" class="c">@</text><text x="40.08" y="3.8409999999999997" class="c">2022-04-27</text><text x="51.102" y="3.8409999999999997" class="c">10:44:55</text></svg><svg x="2100"><use xlink:href="#a"></use><use xlink:href="#1" y="0"></use><text x="0" y="3.8409999999999997" class="d">██████████████████████████████</text><text x="30.059999999999995" y="3.8409999999999997" class="h">█</text><text x="34.068" y="3.8409999999999997" class="c">97%</text><text x="38.07599999999999" y="3.8409999999999997" class="c">@</text><text x="40.08" y="3.8409999999999997" class="c">2022-04-27</text><text x="51.102" y="3.8409999999999997" class="c">10:44:55</text></svg><svg x="2170"><use xlink:href="#a"></use><use xlink:href="#1" y="0"></use><text x="0" y="3.8409999999999997" class="d">███████████████████████████████</text><text x="34.068" y="3.8409999999999997" class="c">99%</text><text x="38.07599999999999" y="3.8409999999999997" class="c">@</text><text x="40.08" y="3.8409999999999997" class="c">2022-04-27</text><text x="51.102" y="3.8409999999999997" class="c">10:44:55</text></svg><svg x="2240"><use xlink:href="#a"></use><use xlink:href="#1" y="0"></use><use xlink:href="#2" y="2.171"></use></svg><svg x="2310"><use xlink:href="#a"></use><use xlink:href="#1" y="0"></use><use xlink:href="#2" y="2.171"></use></svg><svg x="2380"><use xlink:href="#a"></use><use xlink:href="#1" y="0"></use><use xlink:href="#2" y="2.171"></use></svg></svg></g></g></svg></svg>