<svg xmlns="http://www.w3.org/2000/svg" xmlns:xlink="http://www.w3.org/1999/xlink" width="840" height="191.97"><rect width="840" height="191.97" rx="0" ry="0" class="a"></rect><svg height="151.97" viewBox="0 0 80 15.197" width="800" x="20" xmlns="http://www.w3.org/2000/svg" xmlns:xlink="http://www.w3.org/1999/xlink" y="20"><style>.a{fill:rgb(40,45,53)}.b{font-family:'Fira Code',Monaco,Consolas,Menlo,'Bitstream Vera Sans Mono','Powerline Symbols',monospace}.c{fill:rgb(0,0,0);white-space:pre}.d{fill:rgb(255,92,87);white-space:pre}.e{fill:rgb(90,247,142);white-space:pre}.f{fill:rgb(243,249,157);white-space:pre}.g{fill:rgb(87,199,255);white-space:pre}.h{fill:rgb(255,106,193);white-space:pre}.i{fill:rgb(154,237,254);white-space:pre}.j{fill:rgb(241,241,240);white-space:pre}.k{fill:rgb(104,104,104);white-space:pre}.l{fill:transparent}.m{fill:rgb(185,192,203);white-space:pre}</style><g font-family="&#x27;Fira Code&#x27;,Monaco,Consolas,Menlo,&#x27;Bitstream Vera Sans Mono&#x27;,&#x27;Powerline Symbols&#x27;,monospace" font-size="1.67" class="b"><defs><symbol id="1"><text x="0" y="1.67" class="c">████</text><text x="5.01" y="1.67" class="d">████</text><text x="10.02" y="1.67" class="e">████</text><text x="15.029999999999998" y="1.67" class="f">████</text><text x="20.04" y="1.67" class="g">████</text><text x="25.05" y="1.67" class="h">████</text><text x="30.059999999999995" y="1.67" class="i">████</text><text x="35.06999999999999" y="1.67" class="j">████</text><text x="41.082" y="1.67" class="k">████</text><text x="46.09199999999999" y="1.67" class="d">████</text><text x="51.102" y="1.67" class="e">████</text><text x="56.111999999999995" y="1.67" class="f">████</text><text x="61.12199999999999" y="1.67" class="g">████</text><text x="66.13199999999999" y="1.67" class="h">████</text><text x="71.142" y="1.67" class="i">████</text><text x="76.15199999999999" y="1.67" class="j">████</text></symbol><symbol id="a"><rect height="8" width="80" x="0" y="0" class="l"></rect></symbol></defs><rect height="15.197" width="80" class="a"></rect><svg x="0" y="0" width="80"><svg x="0"><use xlink:href="#a"></use><text x="53.105999999999995" y="1.67" class="m">bright</text><text x="60.11999999999999" y="1.67" class="m">variants</text><text x="0" y="3.8409999999999997" class="m">blck</text><text x="5.01" y="3.8409999999999997" class="m">red</text><text x="10.02" y="3.8409999999999997" class="m">grn</text><text x="15.029999999999998" y="3.8409999999999997" class="m">yllw</text><text x="20.04" y="3.8409999999999997" class="m">blue</text><text x="25.05" y="3.8409999999999997" class="m">mgnt</text><text x="30.059999999999995" y="3.8409999999999997" class="m">cyan</text><text x="35.06999999999999" y="3.8409999999999997" class="m">whte</text><text x="41.082" y="3.8409999999999997" class="m">blck</text><text x="46.09199999999999" y="3.8409999999999997" class="m">red</text><text x="51.102" y="3.8409999999999997" class="m">grn</text><text x="56.111999999999995" y="3.8409999999999997" class="m">yllw</text><text x="61.12199999999999" y="3.8409999999999997" class="m">blue</text><text x="66.13199999999999" y="3.8409999999999997" class="m">mgnt</text><text x="71.142" y="3.8409999999999997" class="m">cyan</text><text x="76.15199999999999" y="3.8409999999999997" class="m">whte</text><use xlink:href="#1" y="6.513"></use><use xlink:href="#1" y="8.684"></use><use xlink:href="#1" y="10.855"></use><use xlink:href="#1" y="13.026"></use></svg></svg></g></svg></svg>