<svg xmlns="http://www.w3.org/2000/svg" xmlns:xlink="http://www.w3.org/1999/xlink" width="1040" height="105.13"><rect width="1040" height="105.13" rx="0" ry="0" class="a"></rect><svg height="65.13" viewBox="0 0 100 6.513" width="1000" x="20" xmlns="http://www.w3.org/2000/svg" xmlns:xlink="http://www.w3.org/1999/xlink" y="20"><style>.a{fill:rgb(40,45,53)}.b{font-family:'Fira Code',Monaco,Consolas,Menlo,'Bitstream Vera Sans Mono','Powerline Symbols',monospace}.c{fill:transparent}.d{fill:rgb(185,192,203);white-space:pre}</style><g font-family="&#x27;Fira Code&#x27;,Monaco,Consolas,Menlo,&#x27;Bitstream Vera Sans Mono&#x27;,&#x27;Powerline Symbols&#x27;,monospace" font-size="1.67" class="b"><defs><symbol id="a"><rect height="4" width="100" x="0" y="0" class="c"></rect></symbol></defs><rect height="6.513" width="100" class="a"></rect><svg x="0" y="0" width="100"><svg x="0"><use xlink:href="#a"></use><text x="0" y="1.67" class="d">•</text><text x="2.004" y="1.67" class="d">Minim</text><text x="8.016" y="1.67" class="d">tempor.</text><text x="0" y="3.8409999999999997" class="d">•</text><text x="2.004" y="3.8409999999999997" class="d">Nulla</text><text x="8.016" y="3.8409999999999997" class="d">ullamco</text><text x="16.032" y="3.8409999999999997" class="d">eiusmod</text><text x="24.048" y="3.8409999999999997" class="d">amet</text><text x="29.058" y="3.8409999999999997" class="d">consectetur</text><text x="41.082" y="3.8409999999999997" class="d">non</text><text x="45.089999999999996" y="3.8409999999999997" class="d">eiusmod</text><text x="53.105999999999995" y="3.8409999999999997" class="d">sit</text><text x="57.114" y="3.8409999999999997" class="d">sunt</text><text x="62.123999999999995" y="3.8409999999999997" class="d">do</text><text x="65.13" y="3.8409999999999997" class="d">exercitation</text><text x="0" y="6.012" class="d">adipisicing</text><text x="12.024" y="6.012" class="d">ad</text><text x="15.029999999999998" y="6.012" class="d">velit</text><text x="21.041999999999998" y="6.012" class="d">amet</text><text x="26.052" y="6.012" class="d">ullamco</text><text x="34.068" y="6.012" class="d">et</text><text x="37.074" y="6.012" class="d">laboris</text><text x="45.089999999999996" y="6.012" class="d">in</text><text x="48.096" y="6.012" class="d">magna.</text></svg></svg></g></svg></svg>