<svg xmlns="http://www.w3.org/2000/svg" xmlns:xlink="http://www.w3.org/1999/xlink" width="1040" height="278.80999999999995"><rect width="1040" height="278.80999999999995" rx="0" ry="0" class="a"></rect><svg height="238.80999999999997" viewBox="0 0 100 23.880999999999997" width="1000" x="20" xmlns="http://www.w3.org/2000/svg" xmlns:xlink="http://www.w3.org/1999/xlink" y="20"><style>.a{fill:rgb(40,45,53)}.b{font-family:'Fira Code',Monaco,Consolas,Menlo,'Bitstream Vera Sans Mono','Powerline Symbols',monospace}.c{fill:transparent}.d{fill:rgb(185,192,203);white-space:pre}</style><g font-family="&#x27;Fira Code&#x27;,Monaco,Consolas,Menlo,&#x27;Bitstream Vera Sans Mono&#x27;,&#x27;Powerline Symbols&#x27;,monospace" font-size="1.67" class="b"><defs><symbol id="a"><rect height="12" width="100" x="0" y="0" class="c"></rect></symbol></defs><rect height="23.880999999999997" width="100" class="a"></rect><svg x="0" y="0" width="100"><svg x="0"><use xlink:href="#a"></use><text x="0" y="1.67" class="d">MollitX</text><text x="8.016" y="1.67" class="d">nulla</text><text x="14.027999999999999" y="1.67" class="d">mollitX</text><text x="22.043999999999997" y="1.67" class="d">temporX</text><text x="30.059999999999995" y="1.67" class="d">estX</text><text x="35.06999999999999" y="1.67" class="d">reprehenderit</text><text x="49.098" y="1.67" class="d">reprehenderit</text><text x="63.12599999999999" y="1.67" class="d">enim.</text><text x="0" y="3.8409999999999997" class="d">ProidentX</text><text x="10.02" y="3.8409999999999997" class="d">dolorX</text><text x="17.034" y="3.8409999999999997" class="d">fugiat</text><text x="24.048" y="3.8409999999999997" class="d">voluptate</text><text x="34.068" y="3.8409999999999997" class="d">exercitationX</text><text x="48.096" y="3.8409999999999997" class="d">adipisicing</text><text x="0" y="6.012" class="d">cillumX</text><text x="8.016" y="6.012" class="d">voluptateX</text><text x="19.037999999999997" y="6.012" class="d">deserunt</text><text x="28.055999999999997" y="6.012" class="d">labore.</text><text x="36.071999999999996" y="6.012" class="d">MagnaX</text><text x="43.086" y="6.012" class="d">reprehenderitX</text><text x="58.116" y="6.012" class="d">laboris</text><text x="0" y="8.183" class="d">cillumX</text><text x="8.016" y="8.183" class="d">suntX</text><text x="14.027999999999999" y="8.183" class="d">auteX</text><text x="20.04" y="8.183" class="d">quis</text><text x="25.05" y="8.183" class="d">laboreX</text><text x="33.065999999999995" y="8.183" class="d">pariatur</text><text x="42.083999999999996" y="8.183" class="d">mollit</text><text x="49.098" y="8.183" class="d">labore</text><text x="56.111999999999995" y="8.183" class="d">tempor</text><text x="63.12599999999999" y="8.183" class="d">commodoX</text><text x="72.14399999999999" y="8.183" class="d">ex.</text><text x="0" y="10.354" class="d">DoX</text><text x="4.008" y="10.354" class="d">tempor</text><text x="11.021999999999998" y="10.354" class="d">laborum</text><text x="19.037999999999997" y="10.354" class="d">voluptateX</text><text x="30.059999999999995" y="10.354" class="d">anim</text><text x="35.06999999999999" y="10.354" class="d">aliquip</text><text x="43.086" y="10.354" class="d">irure</text><text x="0" y="12.525" class="d">veniamX</text><text x="8.016" y="12.525" class="d">irureX</text><text x="15.029999999999998" y="12.525" class="d">cupidatatX</text><text x="26.052" y="12.525" class="d">minim</text><text x="32.064" y="12.525" class="d">tempor</text><text x="39.077999999999996" y="12.525" class="d">aute.X</text><text x="46.09199999999999" y="12.525" class="d">Id</text><text x="49.098" y="12.525" class="d">nulla</text><text x="0" y="14.696" class="d">laborisX</text><text x="9.017999999999999" y="14.696" class="d">excepteurX</text><text x="20.04" y="14.696" class="d">LoremX</text><text x="27.054" y="14.696" class="d">excepteurX</text><text x="38.07599999999999" y="14.696" class="d">quis</text><text x="43.086" y="14.696" class="d">voluptate</text><text x="53.105999999999995" y="14.696" class="d">eiusmod</text><text x="61.12199999999999" y="14.696" class="d">exercitation</text><text x="0" y="16.866999999999997" class="d">mollitX</text><text x="8.016" y="16.866999999999997" class="d">velitX</text><text x="15.029999999999998" y="16.866999999999997" class="d">magna.</text><text x="22.043999999999997" y="16.866999999999997" class="d">ExcepteurX</text><text x="33.065999999999995" y="16.866999999999997" class="d">deserunt</text><text x="42.083999999999996" y="16.866999999999997" class="d">id</text><text x="45.089999999999996" y="16.866999999999997" class="d">culpaX</text><text x="52.104" y="16.866999999999997" class="d">exercitation.X</text><text x="67.134" y="16.866999999999997" class="d">Ipsum</text><text x="0" y="19.037999999999997" class="d">euX</text><text x="4.008" y="19.037999999999997" class="d">pariaturX</text><text x="14.027999999999999" y="19.037999999999997" class="d">incididunt</text><text x="25.05" y="19.037999999999997" class="d">velit</text><text x="31.061999999999998" y="19.037999999999997" class="d">aliquipX</text><text x="40.08" y="19.037999999999997" class="d">reprehenderitX</text><text x="55.10999999999999" y="19.037999999999997" class="d">reprehenderitX</text><text x="70.13999999999999" y="19.037999999999997" class="d">enim</text><text x="0" y="21.209000000000003" class="d">etX</text><text x="4.008" y="21.209000000000003" class="d">estX</text><text x="9.017999999999999" y="21.209000000000003" class="d">laboris</text><text x="17.034" y="21.209000000000003" class="d">nonX</text><text x="22.043999999999997" y="21.209000000000003" class="d">do.X</text><text x="27.054" y="21.209000000000003" class="d">OccaecatX</text><text x="37.074" y="21.209000000000003" class="d">duisX</text><text x="43.086" y="21.209000000000003" class="d">incididunt</text><text x="54.108" y="21.209000000000003" class="d">in</text><text x="57.114" y="21.209000000000003" class="d">cillum.</text><text x="65.13" y="21.209000000000003" class="d">Sunt</text><text x="0" y="23.380000000000003" class="d">mollitX</text><text x="8.016" y="23.380000000000003" class="d">LoremX</text><text x="15.029999999999998" y="23.380000000000003" class="d">auteX</text><text x="21.041999999999998" y="23.380000000000003" class="d">exX</text><text x="25.05" y="23.380000000000003" class="d">nisiX</text><text x="31.061999999999998" y="23.380000000000003" class="d">proidentX</text><text x="41.082" y="23.380000000000003" class="d">commodo</text><text x="49.098" y="23.380000000000003" class="d">eiusmod.</text></svg></svg></g></svg></svg>