<svg xmlns="http://www.w3.org/2000/svg" xmlns:xlink="http://www.w3.org/1999/xlink" width="1040" height="235.39000000000001"><rect width="1040" height="235.39000000000001" rx="0" ry="0" class="a"></rect><svg height="195.39000000000001" viewBox="0 0 100 19.539" width="1000" x="20" xmlns="http://www.w3.org/2000/svg" xmlns:xlink="http://www.w3.org/1999/xlink" y="20"><style>.a{fill:rgb(40,45,53)}.b{font-family:'Fira Code',Monaco,Consolas,Menlo,'Bitstream Vera Sans Mono','Powerline Symbols',monospace}.c{fill:transparent}.d{fill:rgb(185,192,203);white-space:pre}</style><g font-family="&#x27;Fira Code&#x27;,Monaco,Consolas,Menlo,&#x27;Bitstream Vera Sans Mono&#x27;,&#x27;Powerline Symbols&#x27;,monospace" font-size="1.67" class="b"><defs><symbol id="a"><rect height="10" width="100" x="0" y="0" class="c"></rect></symbol></defs><rect height="19.539" width="100" class="a"></rect><svg x="0" y="0" width="100"><svg x="0"><use xlink:href="#a"></use><text x="0" y="1.67" class="d">●</text><text x="2.004" y="1.67" class="d">dim</text><text x="6.012" y="1.67" class="d">style</text><text x="0" y="3.8409999999999997" class="d">●</text><text x="2.004" y="3.8409999999999997" class="d">blurred</text><text x="10.02" y="3.8409999999999997" class="d">style</text><text x="0" y="6.012" class="d">●</text><text x="2.004" y="6.012" class="d">bold</text><text x="7.013999999999999" y="6.012" class="d">style</text><text x="0" y="8.183" class="d">●</text><text x="2.004" y="8.183" class="d">hidden</text><text x="9.017999999999999" y="8.183" class="d">style</text><text x="0" y="10.354" class="d">●</text><text x="2.004" y="10.354" class="d">inverse</text><text x="10.02" y="10.354" class="d">style</text><text x="0" y="12.525" class="d">●</text><text x="2.004" y="12.525" class="d">italic</text><text x="9.017999999999999" y="12.525" class="d">style</text><text x="0" y="14.696" class="d">●</text><text x="2.004" y="14.696" class="d">reset</text><text x="8.016" y="14.696" class="d">style</text><text x="0" y="16.866999999999997" class="d">●</text><text x="2.004" y="16.866999999999997" class="d">strikethrough</text><text x="16.032" y="16.866999999999997" class="d">style</text><text x="0" y="19.037999999999997" class="d">●</text><text x="2.004" y="19.037999999999997" class="d">underline</text><text x="12.024" y="19.037999999999997" class="d">style</text></svg></svg></g></svg></svg>