<svg xmlns="http://www.w3.org/2000/svg" xmlns:xlink="http://www.w3.org/1999/xlink" width="1040" height="213.67999999999998"><rect width="1040" height="213.67999999999998" rx="0" ry="0" class="a"></rect><svg height="173.67999999999998" viewBox="0 0 100 17.368" width="1000" x="20" xmlns="http://www.w3.org/2000/svg" xmlns:xlink="http://www.w3.org/1999/xlink" y="20"><style>.a{fill:rgb(40,45,53)}.b{font-family:'Fira Code',Monaco,Consolas,Menlo,'Bitstream Vera Sans Mono','Powerline Symbols',monospace}.c{fill:transparent}.d{fill:rgb(185,192,203);white-space:pre}.e{fill:rgb(113,190,242)}.f{fill:rgb(102,194,205)}.g{fill:rgb(168,204,140)}.h{fill:rgb(210,144,228)}.i{fill:rgb(232,131,136)}.j{fill:rgb(185,191,202)}.k{fill:rgb(219,171,121)}</style><g font-family="&#x27;Fira Code&#x27;,Monaco,Consolas,Menlo,&#x27;Bitstream Vera Sans Mono&#x27;,&#x27;Powerline Symbols&#x27;,monospace" font-size="1.67" class="b"><defs><symbol id="a"><rect height="9" width="100" x="0" y="0" class="c"></rect></symbol></defs><rect height="17.368" width="100" class="a"></rect><svg x="0" y="0" width="100"><svg x="0"><use xlink:href="#a"></use><text x="0" y="1.67" class="d">•</text>0<text x="2.004" y="1.67" class="d">black background</text><text x="0" y="3.8409999999999997" class="d">•</text><rect height="2.171" width="15" x="2.004" y="2.171" class="e"></rect><text x="2.004" y="3.8409999999999997" class="d">blue background</text><text x="0" y="6.012" class="d">•</text><rect height="2.171" width="15" x="2.004" y="4.342" class="f"></rect><text x="2.004" y="6.012" class="d">cyan background</text><text x="0" y="8.183" class="d">•</text><rect height="2.171" width="16" x="2.004" y="6.513" class="g"></rect><text x="2.004" y="8.183" class="d">green background</text><text x="0" y="10.354" class="d">•</text><rect height="2.171" width="18" x="2.004" y="8.684" class="h"></rect><text x="2.004" y="10.354" class="d">magenta background</text><text x="0" y="12.525" class="d">•</text><rect height="2.171" width="14" x="2.004" y="10.855" class="i"></rect><text x="2.004" y="12.525" class="d">red background</text><text x="0" y="14.696" class="d">•</text><rect height="2.171" width="16" x="2.004" y="13.026" class="j"></rect><text x="2.004" y="14.696" class="d">white background</text><text x="0" y="16.866999999999997" class="d">•</text><rect height="2.171" width="17" x="2.004" y="15.196999999999997" class="k"></rect><text x="2.004" y="16.866999999999997" class="d">yellow background</text></svg></svg></g></svg></svg>