<svg xmlns="http://www.w3.org/2000/svg" xmlns:xlink="http://www.w3.org/1999/xlink" width="1040" height="61.709999999999994"><rect width="1040" height="61.709999999999994" rx="0" ry="0" class="a"></rect><svg height="21.709999999999997" viewBox="0 0 100 2.171" width="1000" x="20" xmlns="http://www.w3.org/2000/svg" xmlns:xlink="http://www.w3.org/1999/xlink" y="20"><style>.a{fill:rgb(247,247,247)}.b{font-family:'Fira Code',Monaco,Consolas,Menlo,'Bitstream Vera Sans Mono','Powerline Symbols',monospace}.c{fill:rgb(101,123,131);white-space:pre}.d{fill:rgb(133,153,0);white-space:pre}.e{fill:transparent}.g{animation-duration:9.747376s;animation-iteration-count:infinite;animation-name:f;animation-timing-function:steps(1,end)}@keyframes f{0%{transform:translateX(-0px)}1.1%{transform:translateX(-100px)}1.2%{transform:translateX(-200px)}1.9%{transform:translateX(-300px)}3%{transform:translateX(-400px)}4.4%{transform:translateX(-500px)}5.2%{transform:translateX(-600px)}6.5%{transform:translateX(-700px)}7.7%{transform:translateX(-800px)}8.6%{transform:translateX(-900px)}10%{transform:translateX(-1000px)}10.7%{transform:translateX(-1100px)}11.9%{transform:translateX(-1200px)}12.7%{transform:translateX(-1300px)}14.1%{transform:translateX(-1400px)}14.9%{transform:translateX(-1500px)}16.2%{transform:translateX(-1600px)}17%{transform:translateX(-1700px)}18.4%{transform:translateX(-1800px)}19.2%{transform:translateX(-1900px)}20.5%{transform:translateX(-2000px)}21.3%{transform:translateX(-2100px)}22.7%{transform:translateX(-2200px)}23.4%{transform:translateX(-2300px)}24.7%{transform:translateX(-2400px)}25.5%{transform:translateX(-2500px)}26.9%{transform:translateX(-2600px)}27.7%{transform:translateX(-2700px)}29.1%{transform:translateX(-2800px)}29.8%{transform:translateX(-2900px)}31.2%{transform:translateX(-3000px)}32%{transform:translateX(-3100px)}33.3%{transform:translateX(-3200px)}34.1%{transform:translateX(-3300px)}35.5%{transform:translateX(-3400px)}36.2%{transform:translateX(-3500px)}37%{transform:translateX(-3600px)}38.2%{transform:translateX(-3700px)}39.5%{transform:translateX(-3800px)}40.3%{transform:translateX(-3900px)}41.6%{transform:translateX(-4000px)}42.4%{transform:translateX(-4100px)}43.7%{transform:translateX(-4200px)}44.5%{transform:translateX(-4300px)}45.8%{transform:translateX(-4400px)}47.1%{transform:translateX(-4500px)}47.9%{transform:translateX(-4600px)}49.1%{transform:translateX(-4700px)}49.8%{transform:translateX(-4800px)}51.2%{transform:translateX(-4900px)}52%{transform:translateX(-5000px)}53.2%{transform:translateX(-5100px)}53.9%{transform:translateX(-5200px)}55.3%{transform:translateX(-5300px)}56.6%{transform:translateX(-5400px)}57.3%{transform:translateX(-5500px)}58.5%{transform:translateX(-5600px)}59.9%{transform:translateX(-5700px)}60.6%{transform:translateX(-5800px)}61.3%{transform:translateX(-5900px)}62.6%{transform:translateX(-6000px)}63.9%{transform:translateX(-6100px)}64.6%{transform:translateX(-6200px)}65.9%{transform:translateX(-6300px)}66.7%{transform:translateX(-6400px)}68%{transform:translateX(-6500px)}69.2%{transform:translateX(-6600px)}69.2%{transform:translateX(-6700px)}69.2%{transform:translateX(-6800px)}100%{transform:translateX(-6900px)}}</style><g font-family="&#x27;Fira Code&#x27;,Monaco,Consolas,Menlo,&#x27;Bitstream Vera Sans Mono&#x27;,&#x27;Powerline Symbols&#x27;,monospace" font-size="1.67" class="b"><defs><symbol id="1"><text x="0" y="1.67" class="c">Cleaning</text><text x="9.017999999999999" y="1.67" class="c">data</text><text x="14.027999999999999" y="1.67" class="d">■■■■■■■■■■■■■■■■■■■■■■■■■■■■■■■</text><text x="47.093999999999994" y="1.67" class="c">100%</text><text x="52.104" y="1.67" class="c">|</text><text x="54.108" y="1.67" class="c">ETA:</text><text x="60.11999999999999" y="1.67" class="c">0s</text></symbol><symbol id="a"><rect height="1" width="100" x="0" y="0" class="e"></rect></symbol></defs><rect height="2.171" width="100" class="a"></rect><g class="g"><svg x="0" y="0" width="7000"><svg x="0"><use xlink:href="#a"></use></svg><svg x="100"><use xlink:href="#a"></use></svg><svg x="200"><use xlink:href="#a"></use><text x="0" y="1.67" class="c">Cleaning</text><text x="9.017999999999999" y="1.67" class="c">data</text><text x="14.027999999999999" y="1.67" class="d">■</text><text x="49.098" y="1.67" class="c">1%</text><text x="52.104" y="1.67" class="c">|</text><text x="54.108" y="1.67" class="c">ETA:</text><text x="60.11999999999999" y="1.67" class="c">8s</text></svg><svg x="300"><use xlink:href="#a"></use><text x="0" y="1.67" class="c">Cleaning</text><text x="9.017999999999999" y="1.67" class="c">data</text><text x="14.027999999999999" y="1.67" class="d">■■</text><text x="49.098" y="1.67" class="c">2%</text><text x="52.104" y="1.67" class="c">|</text><text x="54.108" y="1.67" class="c">ETA:</text><text x="60.11999999999999" y="1.67" class="c">8s</text></svg><svg x="400"><use xlink:href="#a"></use><text x="0" y="1.67" class="c">Cleaning</text><text x="9.017999999999999" y="1.67" class="c">data</text><text x="14.027999999999999" y="1.67" class="d">■■</text><text x="49.098" y="1.67" class="c">4%</text><text x="52.104" y="1.67" class="c">|</text><text x="54.108" y="1.67" class="c">ETA:</text><text x="60.11999999999999" y="1.67" class="c">6s</text></svg><svg x="500"><use xlink:href="#a"></use><text x="0" y="1.67" class="c">Cleaning</text><text x="9.017999999999999" y="1.67" class="c">data</text><text x="14.027999999999999" y="1.67" class="d">■■■</text><text x="49.098" y="1.67" class="c">6%</text><text x="52.104" y="1.67" class="c">|</text><text x="54.108" y="1.67" class="c">ETA:</text><text x="60.11999999999999" y="1.67" class="c">6s</text></svg><svg x="600"><use xlink:href="#a"></use><text x="0" y="1.67" class="c">Cleaning</text><text x="9.017999999999999" y="1.67" class="c">data</text><text x="14.027999999999999" y="1.67" class="d">■■■</text><text x="49.098" y="1.67" class="c">7%</text><text x="52.104" y="1.67" class="c">|</text><text x="54.108" y="1.67" class="c">ETA:</text><text x="60.11999999999999" y="1.67" class="c">6s</text></svg><svg x="700"><use xlink:href="#a"></use><text x="0" y="1.67" class="c">Cleaning</text><text x="9.017999999999999" y="1.67" class="c">data</text><text x="14.027999999999999" y="1.67" class="d">■■■■</text><text x="49.098" y="1.67" class="c">9%</text><text x="52.104" y="1.67" class="c">|</text><text x="54.108" y="1.67" class="c">ETA:</text><text x="60.11999999999999" y="1.67" class="c">6s</text></svg><svg x="800"><use xlink:href="#a"></use><text x="0" y="1.67" class="c">Cleaning</text><text x="9.017999999999999" y="1.67" class="c">data</text><text x="14.027999999999999" y="1.67" class="d">■■■■</text><text x="48.096" y="1.67" class="c">11%</text><text x="52.104" y="1.67" class="c">|</text><text x="54.108" y="1.67" class="c">ETA:</text><text x="60.11999999999999" y="1.67" class="c">6s</text></svg><svg x="900"><use xlink:href="#a"></use><text x="0" y="1.67" class="c">Cleaning</text><text x="9.017999999999999" y="1.67" class="c">data</text><text x="14.027999999999999" y="1.67" class="d">■■■■■</text><text x="48.096" y="1.67" class="c">12%</text><text x="52.104" y="1.67" class="c">|</text><text x="54.108" y="1.67" class="c">ETA:</text><text x="60.11999999999999" y="1.67" class="c">6s</text></svg><svg x="1000"><use xlink:href="#a"></use><text x="0" y="1.67" class="c">Cleaning</text><text x="9.017999999999999" y="1.67" class="c">data</text><text x="14.027999999999999" y="1.67" class="d">■■■■■</text><text x="48.096" y="1.67" class="c">14%</text><text x="52.104" y="1.67" class="c">|</text><text x="54.108" y="1.67" class="c">ETA:</text><text x="60.11999999999999" y="1.67" class="c">6s</text></svg><svg x="1100"><use xlink:href="#a"></use><text x="0" y="1.67" class="c">Cleaning</text><text x="9.017999999999999" y="1.67" class="c">data</text><text x="14.027999999999999" y="1.67" class="d">■■■■■</text><text x="48.096" y="1.67" class="c">15%</text><text x="52.104" y="1.67" class="c">|</text><text x="54.108" y="1.67" class="c">ETA:</text><text x="60.11999999999999" y="1.67" class="c">6s</text></svg><svg x="1200"><use xlink:href="#a"></use><text x="0" y="1.67" class="c">Cleaning</text><text x="9.017999999999999" y="1.67" class="c">data</text><text x="14.027999999999999" y="1.67" class="d">■■■■■■</text><text x="48.096" y="1.67" class="c">17%</text><text x="52.104" y="1.67" class="c">|</text><text x="54.108" y="1.67" class="c">ETA:</text><text x="60.11999999999999" y="1.67" class="c">6s</text></svg><svg x="1300"><use xlink:href="#a"></use><text x="0" y="1.67" class="c">Cleaning</text><text x="9.017999999999999" y="1.67" class="c">data</text><text x="14.027999999999999" y="1.67" class="d">■■■■■■</text><text x="48.096" y="1.67" class="c">18%</text><text x="52.104" y="1.67" class="c">|</text><text x="54.108" y="1.67" class="c">ETA:</text><text x="60.11999999999999" y="1.67" class="c">5s</text></svg><svg x="1400"><use xlink:href="#a"></use><text x="0" y="1.67" class="c">Cleaning</text><text x="9.017999999999999" y="1.67" class="c">data</text><text x="14.027999999999999" y="1.67" class="d">■■■■■■■</text><text x="48.096" y="1.67" class="c">20%</text><text x="52.104" y="1.67" class="c">|</text><text x="54.108" y="1.67" class="c">ETA:</text><text x="60.11999999999999" y="1.67" class="c">5s</text></svg><svg x="1500"><use xlink:href="#a"></use><text x="0" y="1.67" class="c">Cleaning</text><text x="9.017999999999999" y="1.67" class="c">data</text><text x="14.027999999999999" y="1.67" class="d">■■■■■■■</text><text x="48.096" y="1.67" class="c">21%</text><text x="52.104" y="1.67" class="c">|</text><text x="54.108" y="1.67" class="c">ETA:</text><text x="60.11999999999999" y="1.67" class="c">5s</text></svg><svg x="1600"><use xlink:href="#a"></use><text x="0" y="1.67" class="c">Cleaning</text><text x="9.017999999999999" y="1.67" class="c">data</text><text x="14.027999999999999" y="1.67" class="d">■■■■■■■■</text><text x="48.096" y="1.67" class="c">23%</text><text x="52.104" y="1.67" class="c">|</text><text x="54.108" y="1.67" class="c">ETA:</text><text x="60.11999999999999" y="1.67" class="c">5s</text></svg><svg x="1700"><use xlink:href="#a"></use><text x="0" y="1.67" class="c">Cleaning</text><text x="9.017999999999999" y="1.67" class="c">data</text><text x="14.027999999999999" y="1.67" class="d">■■■■■■■■</text><text x="48.096" y="1.67" class="c">24%</text><text x="52.104" y="1.67" class="c">|</text><text x="54.108" y="1.67" class="c">ETA:</text><text x="60.11999999999999" y="1.67" class="c">5s</text></svg><svg x="1800"><use xlink:href="#a"></use><text x="0" y="1.67" class="c">Cleaning</text><text x="9.017999999999999" y="1.67" class="c">data</text><text x="14.027999999999999" y="1.67" class="d">■■■■■■■■■</text><text x="48.096" y="1.67" class="c">26%</text><text x="52.104" y="1.67" class="c">|</text><text x="54.108" y="1.67" class="c">ETA:</text><text x="60.11999999999999" y="1.67" class="c">5s</text></svg><svg x="1900"><use xlink:href="#a"></use><text x="0" y="1.67" class="c">Cleaning</text><text x="9.017999999999999" y="1.67" class="c">data</text><text x="14.027999999999999" y="1.67" class="d">■■■■■■■■■</text><text x="48.096" y="1.67" class="c">27%</text><text x="52.104" y="1.67" class="c">|</text><text x="54.108" y="1.67" class="c">ETA:</text><text x="60.11999999999999" y="1.67" class="c">5s</text></svg><svg x="2000"><use xlink:href="#a"></use><text x="0" y="1.67" class="c">Cleaning</text><text x="9.017999999999999" y="1.67" class="c">data</text><text x="14.027999999999999" y="1.67" class="d">■■■■■■■■■■</text><text x="48.096" y="1.67" class="c">29%</text><text x="52.104" y="1.67" class="c">|</text><text x="54.108" y="1.67" class="c">ETA:</text><text x="60.11999999999999" y="1.67" class="c">5s</text></svg><svg x="2100"><use xlink:href="#a"></use><text x="0" y="1.67" class="c">Cleaning</text><text x="9.017999999999999" y="1.67" class="c">data</text><text x="14.027999999999999" y="1.67" class="d">■■■■■■■■■■</text><text x="48.096" y="1.67" class="c">30%</text><text x="52.104" y="1.67" class="c">|</text><text x="54.108" y="1.67" class="c">ETA:</text><text x="60.11999999999999" y="1.67" class="c">5s</text></svg><svg x="2200"><use xlink:href="#a"></use><text x="0" y="1.67" class="c">Cleaning</text><text x="9.017999999999999" y="1.67" class="c">data</text><text x="14.027999999999999" y="1.67" class="d">■■■■■■■■■■■</text><text x="48.096" y="1.67" class="c">32%</text><text x="52.104" y="1.67" class="c">|</text><text x="54.108" y="1.67" class="c">ETA:</text><text x="60.11999999999999" y="1.67" class="c">5s</text></svg><svg x="2300"><use xlink:href="#a"></use><text x="0" y="1.67" class="c">Cleaning</text><text x="9.017999999999999" y="1.67" class="c">data</text><text x="14.027999999999999" y="1.67" class="d">■■■■■■■■■■■</text><text x="48.096" y="1.67" class="c">33%</text><text x="52.104" y="1.67" class="c">|</text><text x="54.108" y="1.67" class="c">ETA:</text><text x="60.11999999999999" y="1.67" class="c">5s</text></svg><svg x="2400"><use xlink:href="#a"></use><text x="0" y="1.67" class="c">Cleaning</text><text x="9.017999999999999" y="1.67" class="c">data</text><text x="14.027999999999999" y="1.67" class="d">■■■■■■■■■■■</text><text x="48.096" y="1.67" class="c">35%</text><text x="52.104" y="1.67" class="c">|</text><text x="54.108" y="1.67" class="c">ETA:</text><text x="60.11999999999999" y="1.67" class="c">4s</text></svg><svg x="2500"><use xlink:href="#a"></use><text x="0" y="1.67" class="c">Cleaning</text><text x="9.017999999999999" y="1.67" class="c">data</text><text x="14.027999999999999" y="1.67" class="d">■■■■■■■■■■■■</text><text x="48.096" y="1.67" class="c">36%</text><text x="52.104" y="1.67" class="c">|</text><text x="54.108" y="1.67" class="c">ETA:</text><text x="60.11999999999999" y="1.67" class="c">4s</text></svg><svg x="2600"><use xlink:href="#a"></use><text x="0" y="1.67" class="c">Cleaning</text><text x="9.017999999999999" y="1.67" class="c">data</text><text x="14.027999999999999" y="1.67" class="d">■■■■■■■■■■■■</text><text x="48.096" y="1.67" class="c">38%</text><text x="52.104" y="1.67" class="c">|</text><text x="54.108" y="1.67" class="c">ETA:</text><text x="60.11999999999999" y="1.67" class="c">4s</text></svg><svg x="2700"><use xlink:href="#a"></use><text x="0" y="1.67" class="c">Cleaning</text><text x="9.017999999999999" y="1.67" class="c">data</text><text x="14.027999999999999" y="1.67" class="d">■■■■■■■■■■■■■</text><text x="48.096" y="1.67" class="c">39%</text><text x="52.104" y="1.67" class="c">|</text><text x="54.108" y="1.67" class="c">ETA:</text><text x="60.11999999999999" y="1.67" class="c">4s</text></svg><svg x="2800"><use xlink:href="#a"></use><text x="0" y="1.67" class="c">Cleaning</text><text x="9.017999999999999" y="1.67" class="c">data</text><text x="14.027999999999999" y="1.67" class="d">■■■■■■■■■■■■■</text><text x="48.096" y="1.67" class="c">41%</text><text x="52.104" y="1.67" class="c">|</text><text x="54.108" y="1.67" class="c">ETA:</text><text x="60.11999999999999" y="1.67" class="c">4s</text></svg><svg x="2900"><use xlink:href="#a"></use><text x="0" y="1.67" class="c">Cleaning</text><text x="9.017999999999999" y="1.67" class="c">data</text><text x="14.027999999999999" y="1.67" class="d">■■■■■■■■■■■■■■</text><text x="48.096" y="1.67" class="c">42%</text><text x="52.104" y="1.67" class="c">|</text><text x="54.108" y="1.67" class="c">ETA:</text><text x="60.11999999999999" y="1.67" class="c">4s</text></svg><svg x="3000"><use xlink:href="#a"></use><text x="0" y="1.67" class="c">Cleaning</text><text x="9.017999999999999" y="1.67" class="c">data</text><text x="14.027999999999999" y="1.67" class="d">■■■■■■■■■■■■■■</text><text x="48.096" y="1.67" class="c">44%</text><text x="52.104" y="1.67" class="c">|</text><text x="54.108" y="1.67" class="c">ETA:</text><text x="60.11999999999999" y="1.67" class="c">4s</text></svg><svg x="3100"><use xlink:href="#a"></use><text x="0" y="1.67" class="c">Cleaning</text><text x="9.017999999999999" y="1.67" class="c">data</text><text x="14.027999999999999" y="1.67" class="d">■■■■■■■■■■■■■■■</text><text x="48.096" y="1.67" class="c">45%</text><text x="52.104" y="1.67" class="c">|</text><text x="54.108" y="1.67" class="c">ETA:</text><text x="60.11999999999999" y="1.67" class="c">4s</text></svg><svg x="3200"><use xlink:href="#a"></use><text x="0" y="1.67" class="c">Cleaning</text><text x="9.017999999999999" y="1.67" class="c">data</text><text x="14.027999999999999" y="1.67" class="d">■■■■■■■■■■■■■■■</text><text x="48.096" y="1.67" class="c">47%</text><text x="52.104" y="1.67" class="c">|</text><text x="54.108" y="1.67" class="c">ETA:</text><text x="60.11999999999999" y="1.67" class="c">4s</text></svg><svg x="3300"><use xlink:href="#a"></use><text x="0" y="1.67" class="c">Cleaning</text><text x="9.017999999999999" y="1.67" class="c">data</text><text x="14.027999999999999" y="1.67" class="d">■■■■■■■■■■■■■■■</text><text x="48.096" y="1.67" class="c">48%</text><text x="52.104" y="1.67" class="c">|</text><text x="54.108" y="1.67" class="c">ETA:</text><text x="60.11999999999999" y="1.67" class="c">4s</text></svg><svg x="3400"><use xlink:href="#a"></use><text x="0" y="1.67" class="c">Cleaning</text><text x="9.017999999999999" y="1.67" class="c">data</text><text x="14.027999999999999" y="1.67" class="d">■■■■■■■■■■■■■■■■</text><text x="48.096" y="1.67" class="c">50%</text><text x="52.104" y="1.67" class="c">|</text><text x="54.108" y="1.67" class="c">ETA:</text><text x="60.11999999999999" y="1.67" class="c">3s</text></svg><svg x="3500"><use xlink:href="#a"></use><text x="0" y="1.67" class="c">Cleaning</text><text x="9.017999999999999" y="1.67" class="c">data</text><text x="14.027999999999999" y="1.67" class="d">■■■■■■■■■■■■■■■■</text><text x="48.096" y="1.67" class="c">51%</text><text x="52.104" y="1.67" class="c">|</text><text x="54.108" y="1.67" class="c">ETA:</text><text x="60.11999999999999" y="1.67" class="c">3s</text></svg><svg x="3600"><use xlink:href="#a"></use><text x="0" y="1.67" class="c">Cleaning</text><text x="9.017999999999999" y="1.67" class="c">data</text><text x="14.027999999999999" y="1.67" class="d">■■■■■■■■■■■■■■■■■</text><text x="48.096" y="1.67" class="c">52%</text><text x="52.104" y="1.67" class="c">|</text><text x="54.108" y="1.67" class="c">ETA:</text><text x="60.11999999999999" y="1.67" class="c">3s</text></svg><svg x="3700"><use xlink:href="#a"></use><text x="0" y="1.67" class="c">Cleaning</text><text x="9.017999999999999" y="1.67" class="c">data</text><text x="14.027999999999999" y="1.67" class="d">■■■■■■■■■■■■■■■■■</text><text x="48.096" y="1.67" class="c">54%</text><text x="52.104" y="1.67" class="c">|</text><text x="54.108" y="1.67" class="c">ETA:</text><text x="60.11999999999999" y="1.67" class="c">3s</text></svg><svg x="3800"><use xlink:href="#a"></use><text x="0" y="1.67" class="c">Cleaning</text><text x="9.017999999999999" y="1.67" class="c">data</text><text x="14.027999999999999" y="1.67" class="d">■■■■■■■■■■■■■■■■■■</text><text x="48.096" y="1.67" class="c">56%</text><text x="52.104" y="1.67" class="c">|</text><text x="54.108" y="1.67" class="c">ETA:</text><text x="60.11999999999999" y="1.67" class="c">3s</text></svg><svg x="3900"><use xlink:href="#a"></use><text x="0" y="1.67" class="c">Cleaning</text><text x="9.017999999999999" y="1.67" class="c">data</text><text x="14.027999999999999" y="1.67" class="d">■■■■■■■■■■■■■■■■■■</text><text x="48.096" y="1.67" class="c">57%</text><text x="52.104" y="1.67" class="c">|</text><text x="54.108" y="1.67" class="c">ETA:</text><text x="60.11999999999999" y="1.67" class="c">3s</text></svg><svg x="4000"><use xlink:href="#a"></use><text x="0" y="1.67" class="c">Cleaning</text><text x="9.017999999999999" y="1.67" class="c">data</text><text x="14.027999999999999" y="1.67" class="d">■■■■■■■■■■■■■■■■■■■</text><text x="48.096" y="1.67" class="c">59%</text><text x="52.104" y="1.67" class="c">|</text><text x="54.108" y="1.67" class="c">ETA:</text><text x="60.11999999999999" y="1.67" class="c">3s</text></svg><svg x="4100"><use xlink:href="#a"></use><text x="0" y="1.67" class="c">Cleaning</text><text x="9.017999999999999" y="1.67" class="c">data</text><text x="14.027999999999999" y="1.67" class="d">■■■■■■■■■■■■■■■■■■■</text><text x="48.096" y="1.67" class="c">60%</text><text x="52.104" y="1.67" class="c">|</text><text x="54.108" y="1.67" class="c">ETA:</text><text x="60.11999999999999" y="1.67" class="c">3s</text></svg><svg x="4200"><use xlink:href="#a"></use><text x="0" y="1.67" class="c">Cleaning</text><text x="9.017999999999999" y="1.67" class="c">data</text><text x="14.027999999999999" y="1.67" class="d">■■■■■■■■■■■■■■■■■■■■</text><text x="48.096" y="1.67" class="c">62%</text><text x="52.104" y="1.67" class="c">|</text><text x="54.108" y="1.67" class="c">ETA:</text><text x="60.11999999999999" y="1.67" class="c">3s</text></svg><svg x="4300"><use xlink:href="#a"></use><text x="0" y="1.67" class="c">Cleaning</text><text x="9.017999999999999" y="1.67" class="c">data</text><text x="14.027999999999999" y="1.67" class="d">■■■■■■■■■■■■■■■■■■■■</text><text x="48.096" y="1.67" class="c">63%</text><text x="52.104" y="1.67" class="c">|</text><text x="54.108" y="1.67" class="c">ETA:</text><text x="60.11999999999999" y="1.67" class="c">3s</text></svg><svg x="4400"><use xlink:href="#a"></use><text x="0" y="1.67" class="c">Cleaning</text><text x="9.017999999999999" y="1.67" class="c">data</text><text x="14.027999999999999" y="1.67" class="d">■■■■■■■■■■■■■■■■■■■■■</text><text x="48.096" y="1.67" class="c">65%</text><text x="52.104" y="1.67" class="c">|</text><text x="54.108" y="1.67" class="c">ETA:</text><text x="60.11999999999999" y="1.67" class="c">2s</text></svg><svg x="4500"><use xlink:href="#a"></use><text x="0" y="1.67" class="c">Cleaning</text><text x="9.017999999999999" y="1.67" class="c">data</text><text x="14.027999999999999" y="1.67" class="d">■■■■■■■■■■■■■■■■■■■■■</text><text x="48.096" y="1.67" class="c">67%</text><text x="52.104" y="1.67" class="c">|</text><text x="54.108" y="1.67" class="c">ETA:</text><text x="60.11999999999999" y="1.67" class="c">2s</text></svg><svg x="4600"><use xlink:href="#a"></use><text x="0" y="1.67" class="c">Cleaning</text><text x="9.017999999999999" y="1.67" class="c">data</text><text x="14.027999999999999" y="1.67" class="d">■■■■■■■■■■■■■■■■■■■■■</text><text x="48.096" y="1.67" class="c">68%</text><text x="52.104" y="1.67" class="c">|</text><text x="54.108" y="1.67" class="c">ETA:</text><text x="60.11999999999999" y="1.67" class="c">2s</text></svg><svg x="4700"><use xlink:href="#a"></use><text x="0" y="1.67" class="c">Cleaning</text><text x="9.017999999999999" y="1.67" class="c">data</text><text x="14.027999999999999" y="1.67" class="d">■■■■■■■■■■■■■■■■■■■■■■</text><text x="48.096" y="1.67" class="c">70%</text><text x="52.104" y="1.67" class="c">|</text><text x="54.108" y="1.67" class="c">ETA:</text><text x="60.11999999999999" y="1.67" class="c">2s</text></svg><svg x="4800"><use xlink:href="#a"></use><text x="0" y="1.67" class="c">Cleaning</text><text x="9.017999999999999" y="1.67" class="c">data</text><text x="14.027999999999999" y="1.67" class="d">■■■■■■■■■■■■■■■■■■■■■■</text><text x="48.096" y="1.67" class="c">71%</text><text x="52.104" y="1.67" class="c">|</text><text x="54.108" y="1.67" class="c">ETA:</text><text x="60.11999999999999" y="1.67" class="c">2s</text></svg><svg x="4900"><use xlink:href="#a"></use><text x="0" y="1.67" class="c">Cleaning</text><text x="9.017999999999999" y="1.67" class="c">data</text><text x="14.027999999999999" y="1.67" class="d">■■■■■■■■■■■■■■■■■■■■■■■</text><text x="48.096" y="1.67" class="c">73%</text><text x="52.104" y="1.67" class="c">|</text><text x="54.108" y="1.67" class="c">ETA:</text><text x="60.11999999999999" y="1.67" class="c">2s</text></svg><svg x="5000"><use xlink:href="#a"></use><text x="0" y="1.67" class="c">Cleaning</text><text x="9.017999999999999" y="1.67" class="c">data</text><text x="14.027999999999999" y="1.67" class="d">■■■■■■■■■■■■■■■■■■■■■■■</text><text x="48.096" y="1.67" class="c">74%</text><text x="52.104" y="1.67" class="c">|</text><text x="54.108" y="1.67" class="c">ETA:</text><text x="60.11999999999999" y="1.67" class="c">2s</text></svg><svg x="5100"><use xlink:href="#a"></use><text x="0" y="1.67" class="c">Cleaning</text><text x="9.017999999999999" y="1.67" class="c">data</text><text x="14.027999999999999" y="1.67" class="d">■■■■■■■■■■■■■■■■■■■■■■■■</text><text x="48.096" y="1.67" class="c">76%</text><text x="52.104" y="1.67" class="c">|</text><text x="54.108" y="1.67" class="c">ETA:</text><text x="60.11999999999999" y="1.67" class="c">2s</text></svg><svg x="5200"><use xlink:href="#a"></use><text x="0" y="1.67" class="c">Cleaning</text><text x="9.017999999999999" y="1.67" class="c">data</text><text x="14.027999999999999" y="1.67" class="d">■■■■■■■■■■■■■■■■■■■■■■■■</text><text x="48.096" y="1.67" class="c">77%</text><text x="52.104" y="1.67" class="c">|</text><text x="54.108" y="1.67" class="c">ETA:</text><text x="60.11999999999999" y="1.67" class="c">2s</text></svg><svg x="5300"><use xlink:href="#a"></use><text x="0" y="1.67" class="c">Cleaning</text><text x="9.017999999999999" y="1.67" class="c">data</text><text x="14.027999999999999" y="1.67" class="d">■■■■■■■■■■■■■■■■■■■■■■■■■</text><text x="48.096" y="1.67" class="c">79%</text><text x="52.104" y="1.67" class="c">|</text><text x="54.108" y="1.67" class="c">ETA:</text><text x="60.11999999999999" y="1.67" class="c">1s</text></svg><svg x="5400"><use xlink:href="#a"></use><text x="0" y="1.67" class="c">Cleaning</text><text x="9.017999999999999" y="1.67" class="c">data</text><text x="14.027999999999999" y="1.67" class="d">■■■■■■■■■■■■■■■■■■■■■■■■■</text><text x="48.096" y="1.67" class="c">81%</text><text x="52.104" y="1.67" class="c">|</text><text x="54.108" y="1.67" class="c">ETA:</text><text x="60.11999999999999" y="1.67" class="c">1s</text></svg><svg x="5500"><use xlink:href="#a"></use><text x="0" y="1.67" class="c">Cleaning</text><text x="9.017999999999999" y="1.67" class="c">data</text><text x="14.027999999999999" y="1.67" class="d">■■■■■■■■■■■■■■■■■■■■■■■■■■</text><text x="48.096" y="1.67" class="c">82%</text><text x="52.104" y="1.67" class="c">|</text><text x="54.108" y="1.67" class="c">ETA:</text><text x="60.11999999999999" y="1.67" class="c">1s</text></svg><svg x="5600"><use xlink:href="#a"></use><text x="0" y="1.67" class="c">Cleaning</text><text x="9.017999999999999" y="1.67" class="c">data</text><text x="14.027999999999999" y="1.67" class="d">■■■■■■■■■■■■■■■■■■■■■■■■■■</text><text x="48.096" y="1.67" class="c">84%</text><text x="52.104" y="1.67" class="c">|</text><text x="54.108" y="1.67" class="c">ETA:</text><text x="60.11999999999999" y="1.67" class="c">1s</text></svg><svg x="5700"><use xlink:href="#a"></use><text x="0" y="1.67" class="c">Cleaning</text><text x="9.017999999999999" y="1.67" class="c">data</text><text x="14.027999999999999" y="1.67" class="d">■■■■■■■■■■■■■■■■■■■■■■■■■■■</text><text x="48.096" y="1.67" class="c">86%</text><text x="52.104" y="1.67" class="c">|</text><text x="54.108" y="1.67" class="c">ETA:</text><text x="60.11999999999999" y="1.67" class="c">1s</text></svg><svg x="5800"><use xlink:href="#a"></use><text x="0" y="1.67" class="c">Cleaning</text><text x="9.017999999999999" y="1.67" class="c">data</text><text x="14.027999999999999" y="1.67" class="d">■■■■■■■■■■■■■■■■■■■■■■■■■■■</text><text x="48.096" y="1.67" class="c">87%</text><text x="52.104" y="1.67" class="c">|</text><text x="54.108" y="1.67" class="c">ETA:</text><text x="60.11999999999999" y="1.67" class="c">1s</text></svg><svg x="5900"><use xlink:href="#a"></use><text x="0" y="1.67" class="c">Cleaning</text><text x="9.017999999999999" y="1.67" class="c">data</text><text x="14.027999999999999" y="1.67" class="d">■■■■■■■■■■■■■■■■■■■■■■■■■■■</text><text x="48.096" y="1.67" class="c">88%</text><text x="52.104" y="1.67" class="c">|</text><text x="54.108" y="1.67" class="c">ETA:</text><text x="60.11999999999999" y="1.67" class="c">1s</text></svg><svg x="6000"><use xlink:href="#a"></use><text x="0" y="1.67" class="c">Cleaning</text><text x="9.017999999999999" y="1.67" class="c">data</text><text x="14.027999999999999" y="1.67" class="d">■■■■■■■■■■■■■■■■■■■■■■■■■■■■</text><text x="48.096" y="1.67" class="c">90%</text><text x="52.104" y="1.67" class="c">|</text><text x="54.108" y="1.67" class="c">ETA:</text><text x="60.11999999999999" y="1.67" class="c">1s</text></svg><svg x="6100"><use xlink:href="#a"></use><text x="0" y="1.67" class="c">Cleaning</text><text x="9.017999999999999" y="1.67" class="c">data</text><text x="14.027999999999999" y="1.67" class="d">■■■■■■■■■■■■■■■■■■■■■■■■■■■■■</text><text x="48.096" y="1.67" class="c">92%</text><text x="52.104" y="1.67" class="c">|</text><text x="54.108" y="1.67" class="c">ETA:</text><text x="60.11999999999999" y="1.67" class="c">1s</text></svg><svg x="6200"><use xlink:href="#a"></use><text x="0" y="1.67" class="c">Cleaning</text><text x="9.017999999999999" y="1.67" class="c">data</text><text x="14.027999999999999" y="1.67" class="d">■■■■■■■■■■■■■■■■■■■■■■■■■■■■■</text><text x="48.096" y="1.67" class="c">93%</text><text x="52.104" y="1.67" class="c">|</text><text x="54.108" y="1.67" class="c">ETA:</text><text x="60.11999999999999" y="1.67" class="c">0s</text></svg><svg x="6300"><use xlink:href="#a"></use><text x="0" y="1.67" class="c">Cleaning</text><text x="9.017999999999999" y="1.67" class="c">data</text><text x="14.027999999999999" y="1.67" class="d">■■■■■■■■■■■■■■■■■■■■■■■■■■■■■</text><text x="48.096" y="1.67" class="c">95%</text><text x="52.104" y="1.67" class="c">|</text><text x="54.108" y="1.67" class="c">ETA:</text><text x="60.11999999999999" y="1.67" class="c">0s</text></svg><svg x="6400"><use xlink:href="#a"></use><text x="0" y="1.67" class="c">Cleaning</text><text x="9.017999999999999" y="1.67" class="c">data</text><text x="14.027999999999999" y="1.67" class="d">■■■■■■■■■■■■■■■■■■■■■■■■■■■■■■</text><text x="48.096" y="1.67" class="c">96%</text><text x="52.104" y="1.67" class="c">|</text><text x="54.108" y="1.67" class="c">ETA:</text><text x="60.11999999999999" y="1.67" class="c">0s</text></svg><svg x="6500"><use xlink:href="#a"></use><text x="0" y="1.67" class="c">Cleaning</text><text x="9.017999999999999" y="1.67" class="c">data</text><text x="14.027999999999999" y="1.67" class="d">■■■■■■■■■■■■■■■■■■■■■■■■■■■■■■</text><text x="48.096" y="1.67" class="c">98%</text><text x="52.104" y="1.67" class="c">|</text><text x="54.108" y="1.67" class="c">ETA:</text><text x="60.11999999999999" y="1.67" class="c">0s</text></svg><svg x="6600"><use xlink:href="#a"></use><use xlink:href="#1" y="0"></use></svg><svg x="6700"><use xlink:href="#a"></use><use xlink:href="#1" y="0"></use></svg><svg x="6800"><use xlink:href="#a"></use><use xlink:href="#1" y="0"></use></svg><svg x="6900"><use xlink:href="#a"></use><use xlink:href="#1" y="0"></use></svg></svg></g></g></svg></svg>