<svg xmlns="http://www.w3.org/2000/svg" xmlns:xlink="http://www.w3.org/1999/xlink" width="1040" height="105.13"><rect width="1040" height="105.13" rx="0" ry="0" class="a"></rect><svg height="65.13" viewBox="0 0 100 6.513" width="1000" x="20" xmlns="http://www.w3.org/2000/svg" xmlns:xlink="http://www.w3.org/1999/xlink" y="20"><style>.a{fill:rgb(40,45,53)}.b{font-family:'Fira Code',Monaco,Consolas,Menlo,'Bitstream Vera Sans Mono','Powerline Symbols',monospace}.c{fill:transparent}.d{fill:rgb(185,192,203);white-space:pre}</style><g font-family="&#x27;Fira Code&#x27;,Monaco,Consolas,Menlo,&#x27;Bitstream Vera Sans Mono&#x27;,&#x27;Powerline Symbols&#x27;,monospace" font-size="1.67" class="b"><defs><symbol id="a"><rect height="4" width="100" x="0" y="0" class="c"></rect></symbol></defs><rect height="6.513" width="100" class="a"></rect><svg x="0" y="0" width="100"><svg x="0"><use xlink:href="#a"></use><text x="0" y="1.67" class="d">●</text><text x="2.004" y="1.67" class="d">Officia</text><text x="10.02" y="1.67" class="d">incididunt</text><text x="21.041999999999998" y="1.67" class="d">nostrud</text><text x="29.058" y="1.67" class="d">elit</text><text x="34.068" y="1.67" class="d">id</text><text x="37.074" y="1.67" class="d">laborum</text><text x="45.089999999999996" y="1.67" class="d">dolore</text><text x="52.104" y="1.67" class="d">commodo</text><text x="60.11999999999999" y="1.67" class="d">Lorem</text><text x="66.13199999999999" y="1.67" class="d">esse</text><text x="71.142" y="1.67" class="d">ea</text><text x="74.148" y="1.67" class="d">sint.</text><text x="0" y="3.8409999999999997" class="d">●</text><text x="2.004" y="3.8409999999999997" class="d">Nisi</text><text x="7.013999999999999" y="3.8409999999999997" class="d">fugiat</text><text x="14.027999999999999" y="3.8409999999999997" class="d">mollit</text><text x="21.041999999999998" y="3.8409999999999997" class="d">in</text><text x="24.048" y="3.8409999999999997" class="d">Lorem</text><text x="30.059999999999995" y="3.8409999999999997" class="d">velit</text><text x="36.071999999999996" y="3.8409999999999997" class="d">qui</text><text x="40.08" y="3.8409999999999997" class="d">exercitation</text><text x="53.105999999999995" y="3.8409999999999997" class="d">ipsum</text><text x="59.117999999999995" y="3.8409999999999997" class="d">consectetur</text><text x="71.142" y="3.8409999999999997" class="d">ad</text><text x="74.148" y="3.8409999999999997" class="d">nisi</text><text x="0" y="6.012" class="d">ut</text><text x="3.006" y="6.012" class="d">eu</text><text x="6.012" y="6.012" class="d">do</text><text x="9.017999999999999" y="6.012" class="d">ullamco.</text></svg></svg></g></svg></svg>