<svg xmlns="http://www.w3.org/2000/svg" xmlns:xlink="http://www.w3.org/1999/xlink" width="1040" height="821.5600000000001"><rect width="1040" height="821.5600000000001" rx="0" ry="0" class="a"></rect><svg height="781.5600000000001" viewBox="0 0 100 78.156" width="1000" x="20" xmlns="http://www.w3.org/2000/svg" xmlns:xlink="http://www.w3.org/1999/xlink" y="20"><style>.a{fill:rgb(40,45,53)}.b{font-family:'Fira Code',Monaco,Consolas,Menlo,'Bitstream Vera Sans Mono','Powerline Symbols',monospace}.c{fill:transparent}.d{fill:rgb(185,192,203);white-space:pre}</style><g font-family="&#x27;Fira Code&#x27;,Monaco,Consolas,Menlo,&#x27;Bitstream Vera Sans Mono&#x27;,&#x27;Powerline Symbols&#x27;,monospace" font-size="1.67" class="b"><defs><symbol id="a"><rect height="37" width="100" x="0" y="0" class="c"></rect></symbol></defs><rect height="78.156" width="100" class="a"></rect><svg x="0" y="0" width="100"><svg x="0"><use xlink:href="#a"></use><text x="0" y="1.67" class="d">✔</text><text x="8.016" y="1.67" class="d">tick</text><text x="34.068" y="1.67" class="d">Ⓘ</text><text x="40.08" y="1.67" class="d">checkbox_circle_off</text><text x="0" y="3.8409999999999997" class="d">✖</text><text x="8.016" y="3.8409999999999997" class="d">cross</text><text x="34.068" y="3.8409999999999997" class="d">❓</text><text x="40.08" y="3.8409999999999997" class="d">fancy_question_mark</text><text x="0" y="6.012" class="d">★</text><text x="8.016" y="6.012" class="d">star</text><text x="34.068" y="6.012" class="d">≠</text><text x="40.08" y="6.012" class="d">neq</text><text x="0" y="8.183" class="d">▇</text><text x="8.016" y="8.183" class="d">square</text><text x="34.068" y="8.183" class="d">≥</text><text x="40.08" y="8.183" class="d">geq</text><text x="0" y="10.354" class="d">◻</text><text x="8.016" y="10.354" class="d">square_small</text><text x="34.068" y="10.354" class="d">≤</text><text x="40.08" y="10.354" class="d">leq</text><text x="0" y="12.525" class="d">◼</text><text x="8.016" y="12.525" class="d">square_small_filled</text><text x="34.068" y="12.525" class="d">×</text><text x="40.08" y="12.525" class="d">times</text><text x="0" y="14.696" class="d">◯</text><text x="8.016" y="14.696" class="d">circle</text><text x="34.068" y="14.696" class="d">▔</text><text x="40.08" y="14.696" class="d">upper_block_1</text><text x="0" y="16.866999999999997" class="d">◉</text><text x="8.016" y="16.866999999999997" class="d">circle_filled</text><text x="34.068" y="16.866999999999997" class="d">▀</text><text x="40.08" y="16.866999999999997" class="d">upper_block_4</text><text x="0" y="19.037999999999997" class="d">◌</text><text x="8.016" y="19.037999999999997" class="d">circle_dotted</text><text x="34.068" y="19.037999999999997" class="d">▁</text><text x="40.08" y="19.037999999999997" class="d">lower_block_1</text><text x="0" y="21.209000000000003" class="d">◎</text><text x="8.016" y="21.209000000000003" class="d">circle_double</text><text x="34.068" y="21.209000000000003" class="d">▂</text><text x="40.08" y="21.209000000000003" class="d">lower_block_2</text><text x="0" y="23.380000000000003" class="d">ⓞ</text><text x="8.016" y="23.380000000000003" class="d">circle_circle</text><text x="34.068" y="23.380000000000003" class="d">▃</text><text x="40.08" y="23.380000000000003" class="d">lower_block_3</text><text x="0" y="25.550999999999995" class="d">ⓧ</text><text x="8.016" y="25.550999999999995" class="d">circle_cross</text><text x="34.068" y="25.550999999999995" class="d">▄</text><text x="40.08" y="25.550999999999995" class="d">lower_block_4</text><text x="0" y="27.722" class="d">Ⓘ</text><text x="8.016" y="27.722" class="d">circle_pipe</text><text x="34.068" y="27.722" class="d">▅</text><text x="40.08" y="27.722" class="d">lower_block_5</text><text x="0" y="29.893" class="d">?⃝</text><text x="8.016" y="29.893" class="d">circle_question_mark</text><text x="34.068" y="29.893" class="d">▆</text><text x="40.08" y="29.893" class="d">lower_block_6</text><text x="0" y="32.064" class="d">●</text><text x="8.016" y="32.064" class="d">bullet</text><text x="34.068" y="32.064" class="d">▇</text><text x="40.08" y="32.064" class="d">lower_block_7</text><text x="0" y="34.235" class="d">․</text><text x="8.016" y="34.235" class="d">dot</text><text x="34.068" y="34.235" class="d">█</text><text x="40.08" y="34.235" class="d">lower_block_8</text><text x="0" y="36.406" class="d">─</text><text x="8.016" y="36.406" class="d">line</text><text x="34.068" y="36.406" class="d">█</text><text x="40.08" y="36.406" class="d">full_block</text><text x="0" y="38.577000000000005" class="d">═</text><text x="8.016" y="38.577000000000005" class="d">double_line</text><text x="34.068" y="38.577000000000005" class="d">⁰</text><text x="40.08" y="38.577000000000005" class="d">sup_0</text><text x="0" y="40.748000000000005" class="d">…</text><text x="8.016" y="40.748000000000005" class="d">ellipsis</text><text x="34.068" y="40.748000000000005" class="d">¹</text><text x="40.08" y="40.748000000000005" class="d">sup_1</text><text x="0" y="42.919" class="d">…</text><text x="8.016" y="42.919" class="d">continue</text><text x="34.068" y="42.919" class="d">²</text><text x="40.08" y="42.919" class="d">sup_2</text><text x="0" y="45.09" class="d">❯</text><text x="8.016" y="45.09" class="d">pointer</text><text x="34.068" y="45.09" class="d">³</text><text x="40.08" y="45.09" class="d">sup_3</text><text x="0" y="47.261" class="d">ℹ</text><text x="8.016" y="47.261" class="d">info</text><text x="34.068" y="47.261" class="d">⁴</text><text x="40.08" y="47.261" class="d">sup_4</text><text x="0" y="49.431999999999995" class="d">⚠</text><text x="8.016" y="49.431999999999995" class="d">warning</text><text x="34.068" y="49.431999999999995" class="d">⁵</text><text x="40.08" y="49.431999999999995" class="d">sup_5</text><text x="0" y="51.603" class="d">☰</text><text x="8.016" y="51.603" class="d">menu</text><text x="34.068" y="51.603" class="d">⁶</text><text x="40.08" y="51.603" class="d">sup_6</text><text x="0" y="53.774" class="d">☺</text><text x="8.016" y="53.774" class="d">smiley</text><text x="34.068" y="53.774" class="d">⁷</text><text x="40.08" y="53.774" class="d">sup_7</text><text x="0" y="55.945" class="d">෴</text><text x="8.016" y="55.945" class="d">mustache</text><text x="34.068" y="55.945" class="d">⁸</text><text x="40.08" y="55.945" class="d">sup_8</text><text x="0" y="58.11600000000001" class="d">♥</text><text x="8.016" y="58.11600000000001" class="d">heart</text><text x="34.068" y="58.11600000000001" class="d">⁹</text><text x="40.08" y="58.11600000000001" class="d">sup_9</text><text x="0" y="60.287" class="d">↑</text><text x="8.016" y="60.287" class="d">arrow_up</text><text x="34.068" y="60.287" class="d">⁻</text><text x="40.08" y="60.287" class="d">sup_minus</text><text x="0" y="62.458" class="d">↓</text><text x="8.016" y="62.458" class="d">arrow_down</text><text x="34.068" y="62.458" class="d">⁺</text><text x="40.08" y="62.458" class="d">sup_plus</text><text x="0" y="64.629" class="d">←</text><text x="8.016" y="64.629" class="d">arrow_left</text><text x="34.068" y="64.629" class="d">▶</text><text x="40.08" y="64.629" class="d">play</text><text x="0" y="66.8" class="d">→</text><text x="8.016" y="66.8" class="d">arrow_right</text><text x="34.068" y="66.8" class="d">■</text><text x="40.08" y="66.8" class="d">stop</text><text x="0" y="68.971" class="d">◉</text><text x="8.016" y="68.971" class="d">radio_on</text><text x="34.068" y="68.971" class="d">●</text><text x="40.08" y="68.971" class="d">record</text><text x="0" y="71.142" class="d">◯</text><text x="8.016" y="71.142" class="d">radio_off</text><text x="34.068" y="71.142" class="d">‒</text><text x="40.08" y="71.142" class="d">figure_dash</text><text x="0" y="73.313" class="d">☒</text><text x="8.016" y="73.313" class="d">checkbox_on</text><text x="34.068" y="73.313" class="d">–</text><text x="40.08" y="73.313" class="d">en_dash</text><text x="0" y="75.48400000000001" class="d">☐</text><text x="8.016" y="75.48400000000001" class="d">checkbox_off</text><text x="34.068" y="75.48400000000001" class="d">—</text><text x="40.08" y="75.48400000000001" class="d">em_dash</text><text x="0" y="77.655" class="d">ⓧ</text><text x="8.016" y="77.655" class="d">checkbox_circle_on</text></svg></svg></g></svg></svg>