<svg xmlns="http://www.w3.org/2000/svg" xmlns:xlink="http://www.w3.org/1999/xlink" width="1040" height="170.26"><rect width="1040" height="170.26" rx="0" ry="0" class="a"></rect><svg height="130.26" viewBox="0 0 100 13.026" width="1000" x="20" xmlns="http://www.w3.org/2000/svg" xmlns:xlink="http://www.w3.org/1999/xlink" y="20"><style>.a{fill:rgb(40,45,53)}.b{font-family:'Fira Code',Monaco,Consolas,Menlo,'Bitstream Vera Sans Mono','Powerline Symbols',monospace}.c{fill:rgb(215,95,95);white-space:pre}.d{fill:rgb(95,135,95)}.e{fill:rgb(185,192,203);white-space:pre}.f{fill:transparent}.g{fill:rgb(185,191,202);white-space:pre}</style><g font-family="&#x27;Fira Code&#x27;,Monaco,Consolas,Menlo,&#x27;Bitstream Vera Sans Mono&#x27;,&#x27;Powerline Symbols&#x27;,monospace" font-size="1.67" class="b"><defs><symbol id="1"><text x="32.064" y="1.67" class="c">│</text><rect height="2.171" width="15" x="33.065999999999995" y="0" class="d"></rect><text x="33.065999999999995" y="1.67" class="e">               </text><text x="48.096" y="1.67" class="c">│</text></symbol><symbol id="a"><rect height="7" width="100" x="0" y="0" class="f"></rect></symbol></defs><rect height="13.026" width="100" class="a"></rect><svg x="0" y="0" width="100"><svg x="0"><use xlink:href="#a"></use><text x="32.064" y="1.67" class="c">╭───────────────╮</text><use xlink:href="#1" y="2.171"></use><text x="32.064" y="6.012" class="c">│</text><rect height="2.171" width="3" x="33.065999999999995" y="4.342" class="d"></rect><text x="33.065999999999995" y="6.012" class="e">   </text><rect height="2.171" width="9" x="36.071999999999996" y="4.342" class="d"></rect><text x="36.071999999999996" y="6.012" class="g">★ Hello ★</text><rect height="2.171" width="3" x="45.089999999999996" y="4.342" class="d"></rect><text x="45.089999999999996" y="6.012" class="e">   </text><text x="48.096" y="6.012" class="c">│</text><text x="32.064" y="8.183" class="c">│</text><rect height="2.171" width="3" x="33.065999999999995" y="6.513" class="d"></rect><text x="33.065999999999995" y="8.183" class="e">   </text><rect height="2.171" width="8" x="36.071999999999996" y="6.513" class="d"></rect><text x="36.071999999999996" y="8.183" class="g">  there!</text><rect height="2.171" width="4" x="44.087999999999994" y="6.513" class="d"></rect><text x="44.087999999999994" y="8.183" class="e">    </text><text x="48.096" y="8.183" class="c">│</text><use xlink:href="#1" y="8.684"></use><text x="32.064" y="12.525" class="c">╰───────────────╯</text></svg></svg></g></svg></svg>