<svg xmlns="http://www.w3.org/2000/svg" xmlns:xlink="http://www.w3.org/1999/xlink" width="1040" height="105.13"><rect width="1040" height="105.13" rx="0" ry="0" class="a"></rect><svg height="65.13" viewBox="0 0 100 6.513" width="1000" x="20" xmlns="http://www.w3.org/2000/svg" xmlns:xlink="http://www.w3.org/1999/xlink" y="20"><style>.a{fill:rgb(40,45,53)}.b{font-family:'Fira Code',Monaco,Consolas,Menlo,'Bitstream Vera Sans Mono','Powerline Symbols',monospace}.c{fill:transparent}.d{fill:rgb(185,192,203);white-space:pre}</style><g font-family="&#x27;Fira Code&#x27;,Monaco,Consolas,Menlo,&#x27;Bitstream Vera Sans Mono&#x27;,&#x27;Powerline Symbols&#x27;,monospace" font-size="1.67" class="b"><defs><symbol id="a"><rect height="4" width="100" x="0" y="0" class="c"></rect></symbol></defs><rect height="6.513" width="100" class="a"></rect><svg x="0" y="0" width="100"><svg x="0"><use xlink:href="#a"></use><text x="0" y="1.67" class="d">●</text><text x="2.004" y="1.67" class="d">Ullamco</text><text x="10.02" y="1.67" class="d">Lorem</text><text x="16.032" y="1.67" class="d">qui</text><text x="20.04" y="1.67" class="d">mollit</text><text x="27.054" y="1.67" class="d">anim</text><text x="32.064" y="1.67" class="d">est.</text><text x="0" y="3.8409999999999997" class="d">●</text><text x="2.004" y="3.8409999999999997" class="d">Adipisicing</text><text x="14.027999999999999" y="3.8409999999999997" class="d">nostrud</text><text x="22.043999999999997" y="3.8409999999999997" class="d">duis</text><text x="27.054" y="3.8409999999999997" class="d">enim</text><text x="32.064" y="3.8409999999999997" class="d">deserunt</text><text x="41.082" y="3.8409999999999997" class="d">laborum</text><text x="49.098" y="3.8409999999999997" class="d">ad</text><text x="52.104" y="3.8409999999999997" class="d">qui</text><text x="56.111999999999995" y="3.8409999999999997" class="d">qui</text><text x="60.11999999999999" y="3.8409999999999997" class="d">magna</text><text x="66.13199999999999" y="3.8409999999999997" class="d">anim</text><text x="71.142" y="3.8409999999999997" class="d">esse</text><text x="76.15199999999999" y="3.8409999999999997" class="d">non</text><text x="0" y="6.012" class="d">anim.</text></svg></svg></g></svg></svg>