<svg xmlns="http://www.w3.org/2000/svg" xmlns:xlink="http://www.w3.org/1999/xlink" width="1040" height="148.55"><rect width="1040" height="148.55" rx="0" ry="0" class="a"></rect><svg height="108.55000000000001" viewBox="0 0 100 10.855" width="1000" x="20" xmlns="http://www.w3.org/2000/svg" xmlns:xlink="http://www.w3.org/1999/xlink" y="20"><style>.a{fill:rgb(40,45,53)}.b{font-family:'Fira Code',Monaco,Consolas,Menlo,'Bitstream Vera Sans Mono','Powerline Symbols',monospace}.c{fill:transparent}.d{fill:rgb(185,192,203);white-space:pre}</style><g font-family="&#x27;Fira Code&#x27;,Monaco,Consolas,Menlo,&#x27;Bitstream Vera Sans Mono&#x27;,&#x27;Powerline Symbols&#x27;,monospace" font-size="1.67" class="b"><defs><symbol id="a"><rect height="6" width="100" x="0" y="0" class="c"></rect></symbol></defs><rect height="10.855" width="100" class="a"></rect><svg x="0" y="0" width="100"><svg x="0"><use xlink:href="#a"></use><text x="0" y="1.67" class="d">LoremX adX ipsumX veniam</text><text x="25.05" y="1.67" class="d">esse</text><text x="30.059999999999995" y="1.67" class="d">nisiX deserunt</text><text x="45.089999999999996" y="1.67" class="d">duis.X QuiX incididuntX elit</text><text x="0" y="3.8409999999999997" class="d">elitX mollitX sint</text><text x="19.037999999999997" y="3.8409999999999997" class="d">nullaX consectetur</text><text x="38.07599999999999" y="3.8409999999999997" class="d">auteX commodo</text><text x="52.104" y="3.8409999999999997" class="d">doX elitX laborisX minim</text><text x="0" y="6.012" class="d">et.</text><text x="4.008" y="6.012" class="d">LaborisX ipsum</text><text x="19.037999999999997" y="6.012" class="d">mollit</text><text x="26.052" y="6.012" class="d">voluptateX et</text><text x="40.08" y="6.012" class="d">nonX doX incididunt</text><text x="60.11999999999999" y="6.012" class="d">eiusmod.X Anim</text><text x="0" y="8.183" class="d">consecteturX mollitX laborumX occaecatX eiusmodX excepteur.</text><text x="60.11999999999999" y="8.183" class="d">Ullamco</text><text x="68.136" y="8.183" class="d">non</text><text x="72.14399999999999" y="8.183" class="d">tempor</text><text x="0" y="10.354" class="d">esseX animX tempor</text><text x="19.037999999999997" y="10.354" class="d">magna</text><text x="25.05" y="10.354" class="d">non.</text></svg></svg></g></svg></svg>