<svg xmlns="http://www.w3.org/2000/svg" xmlns:xlink="http://www.w3.org/1999/xlink" width="1040" height="582.75"><rect width="1040" height="582.75" rx="0" ry="0" class="a"></rect><svg height="542.75" viewBox="0 0 100 54.275" width="1000" x="20" xmlns="http://www.w3.org/2000/svg" xmlns:xlink="http://www.w3.org/1999/xlink" y="20"><style>.a{fill:rgb(40,45,53)}.b{font-family:'Fira Code',Monaco,Consolas,Menlo,'Bitstream Vera Sans Mono','Powerline Symbols',monospace}.c{fill:transparent}.d{fill:rgb(102,194,205);font-style:italic;white-space:pre}.e{fill:rgb(111,119,131);font-style:italic;white-space:pre}.f{fill:rgb(185,192,203);white-space:pre}.g{fill:rgb(111,119,131);white-space:pre}</style><g font-family="&#x27;Fira Code&#x27;,Monaco,Consolas,Menlo,&#x27;Bitstream Vera Sans Mono&#x27;,&#x27;Powerline Symbols&#x27;,monospace" font-size="1.67" class="b"><defs><symbol id="a"><rect height="26" width="100" x="0" y="0" class="c"></rect></symbol></defs><rect height="54.275" width="100" class="a"></rect><svg x="0" y="0" width="100"><svg x="0"><use xlink:href="#a"></use><text x="0" y="1.67" class="d">rcmdcheck</text><text x="10.02" y="1.67" class="e">(1.2.1.9002)</text><text x="0" y="3.8409999999999997" class="f">├─callr</text><text x="8.016" y="3.8409999999999997" class="g">(1.0.0.9000)</text><text x="0" y="6.012" class="f">│</text><text x="2.004" y="6.012" class="f">├─processx</text><text x="13.026" y="6.012" class="g">(2.0.0.1)</text><text x="0" y="8.183" class="f">│</text><text x="2.004" y="8.183" class="f">│</text><text x="4.008" y="8.183" class="f">├─assertthat</text><text x="17.034" y="8.183" class="g">(0.2.0)</text><text x="0" y="10.354" class="f">│</text><text x="2.004" y="10.354" class="f">│</text><text x="4.008" y="10.354" class="f">├─crayon</text><text x="13.026" y="10.354" class="g">(1.3.4)</text><text x="0" y="12.525" class="f">│</text><text x="2.004" y="12.525" class="f">│</text><text x="4.008" y="12.525" class="f">├─debugme</text><text x="14.027999999999999" y="12.525" class="g">(1.0.2)</text><text x="0" y="14.696" class="f">│</text><text x="2.004" y="14.696" class="f">│</text><text x="4.008" y="14.696" class="f">│</text><text x="6.012" y="14.696" class="f">└─crayon</text><text x="15.029999999999998" y="14.696" class="g">(1.3.4)</text><text x="0" y="16.866999999999997" class="f">│</text><text x="2.004" y="16.866999999999997" class="f">│</text><text x="4.008" y="16.866999999999997" class="f">└─R6</text><text x="9.017999999999999" y="16.866999999999997" class="g">(2.2.2)</text><text x="0" y="19.037999999999997" class="f">│</text><text x="2.004" y="19.037999999999997" class="f">└─R6</text><text x="7.013999999999999" y="19.037999999999997" class="g">(2.2.2)</text><text x="0" y="21.209000000000003" class="f">├─clisymbols</text><text x="13.026" y="21.209000000000003" class="g">(1.2.0)</text><text x="0" y="23.380000000000003" class="f">├─crayon</text><text x="9.017999999999999" y="23.380000000000003" class="g">(1.3.4)</text><text x="0" y="25.550999999999995" class="f">├─desc</text><text x="7.013999999999999" y="25.550999999999995" class="g">(1.1.1.9000)</text><text x="0" y="27.722" class="f">│</text><text x="2.004" y="27.722" class="f">├─assertthat</text><text x="15.029999999999998" y="27.722" class="g">(0.2.0)</text><text x="0" y="29.893" class="f">│</text><text x="2.004" y="29.893" class="f">├─R6</text><text x="7.013999999999999" y="29.893" class="g">(2.2.2)</text><text x="0" y="32.064" class="f">│</text><text x="2.004" y="32.064" class="f">├─crayon</text><text x="11.021999999999998" y="32.064" class="g">(1.3.4)</text><text x="0" y="34.235" class="f">│</text><text x="2.004" y="34.235" class="f">└─rprojroot</text><text x="14.027999999999999" y="34.235" class="g">(1.2)</text><text x="0" y="36.406" class="f">│</text><text x="4.008" y="36.406" class="f">└─backports</text><text x="16.032" y="36.406" class="g">(1.1.1)</text><text x="0" y="38.577000000000005" class="f">├─digest</text><text x="9.017999999999999" y="38.577000000000005" class="g">(0.6.12)</text><text x="0" y="40.748000000000005" class="f">├─prettyunits</text><text x="14.027999999999999" y="40.748000000000005" class="g">(1.0.2)</text><text x="0" y="42.919" class="f">│</text><text x="2.004" y="42.919" class="f">├─magrittr</text><text x="13.026" y="42.919" class="g">(1.5)</text><text x="0" y="45.09" class="f">│</text><text x="2.004" y="45.09" class="f">└─assertthat</text><text x="15.029999999999998" y="45.09" class="g">(0.2.0)</text><text x="0" y="47.261" class="f">├─R6</text><text x="5.01" y="47.261" class="g">(2.2.2)</text><text x="0" y="49.431999999999995" class="f">├─rprojroot</text><text x="12.024" y="49.431999999999995" class="g">(1.2)</text><text x="0" y="51.603" class="f">│</text><text x="2.004" y="51.603" class="f">└─backports</text><text x="14.027999999999999" y="51.603" class="g">(1.1.1)</text><text x="0" y="53.774" class="f">└─withr</text><text x="8.016" y="53.774" class="g">(2.0.0)</text></svg></svg></g></svg></svg>