<svg xmlns="http://www.w3.org/2000/svg" xmlns:xlink="http://www.w3.org/1999/xlink" width="840" height="61.709999999999994"><rect width="840" height="61.709999999999994" rx="0" ry="0" class="a"></rect><svg height="21.709999999999997" viewBox="0 0 80 2.171" width="800" x="20" xmlns="http://www.w3.org/2000/svg" xmlns:xlink="http://www.w3.org/1999/xlink" y="20"><style>.a{fill:rgb(241,243,245)}.b{font-family:'Fira Code',Monaco,Consolas,Menlo,'Bitstream Vera Sans Mono','Powerline Symbols',monospace}.c{fill:rgb(23,36,49);white-space:pre}.d{fill:rgb(133,153,0);white-space:pre}.e{fill:transparent}.f{fill:rgb(23,36,49)}.h{animation-duration:11.897465s;animation-iteration-count:infinite;animation-name:g;animation-timing-function:steps(1,end)}@keyframes g{0%{transform:translateX(-0px)}1.2%{transform:translateX(-80px)}1.3%{transform:translateX(-160px)}2%{transform:translateX(-240px)}3%{transform:translateX(-320px)}3.9%{transform:translateX(-400px)}4.4%{transform:translateX(-480px)}5.3%{transform:translateX(-560px)}6.3%{transform:translateX(-640px)}7.3%{transform:translateX(-720px)}7.8%{transform:translateX(-800px)}8.7%{transform:translateX(-880px)}9.7%{transform:translateX(-960px)}10.6%{transform:translateX(-1040px)}11.2%{transform:translateX(-1120px)}12.1%{transform:translateX(-1200px)}13.1%{transform:translateX(-1280px)}13.6%{transform:translateX(-1360px)}14.5%{transform:translateX(-1440px)}15.5%{transform:translateX(-1520px)}16.4%{transform:translateX(-1600px)}17.4%{transform:translateX(-1680px)}17.9%{transform:translateX(-1760px)}18.9%{transform:translateX(-1840px)}19.8%{transform:translateX(-1920px)}20.7%{transform:translateX(-2000px)}21.3%{transform:translateX(-2080px)}22.2%{transform:translateX(-2160px)}23.2%{transform:translateX(-2240px)}23.7%{transform:translateX(-2320px)}24.7%{transform:translateX(-2400px)}25.6%{transform:translateX(-2480px)}26.6%{transform:translateX(-2560px)}27.1%{transform:translateX(-2640px)}28.1%{transform:translateX(-2720px)}29%{transform:translateX(-2800px)}29.9%{transform:translateX(-2880px)}30.5%{transform:translateX(-2960px)}31.4%{transform:translateX(-3040px)}32.4%{transform:translateX(-3120px)}33.3%{transform:translateX(-3200px)}33.9%{transform:translateX(-3280px)}34.8%{transform:translateX(-3360px)}35.8%{transform:translateX(-3440px)}36.7%{transform:translateX(-3520px)}37.3%{transform:translateX(-3600px)}38.2%{transform:translateX(-3680px)}39.2%{transform:translateX(-3760px)}39.7%{transform:translateX(-3840px)}40.7%{transform:translateX(-3920px)}41.6%{transform:translateX(-4000px)}42.6%{transform:translateX(-4080px)}43.1%{transform:translateX(-4160px)}44.1%{transform:translateX(-4240px)}45.1%{transform:translateX(-4320px)}45.6%{transform:translateX(-4400px)}46.6%{transform:translateX(-4480px)}47.5%{transform:translateX(-4560px)}48.5%{transform:translateX(-4640px)}49%{transform:translateX(-4720px)}49.6%{transform:translateX(-4800px)}49.6%{transform:translateX(-4880px)}49.6%{transform:translateX(-4960px)}100%{transform:translateX(-5040px)}}</style><g font-family="&#x27;Fira Code&#x27;,Monaco,Consolas,Menlo,&#x27;Bitstream Vera Sans Mono&#x27;,&#x27;Powerline Symbols&#x27;,monospace" font-size="1.67" class="b"><defs><symbol id="1"><text font-size="1.67" x="0" y="1.67" class="c">Cleaning</text><text font-size="1.67" x="9.017999999999999" y="1.67" class="c">data</text><text font-size="1.67" x="14.027999999999999" y="1.67" class="d">■■■■■■■■■■■■■■■■■■■■■■■■■■■■■■■</text><text font-size="1.67" x="47.093999999999994" y="1.67" class="c">100%</text><text font-size="1.67" x="52.104" y="1.67" class="c">|</text><text font-size="1.67" x="54.108" y="1.67" class="c">ETA:</text><text font-size="1.67" x="60.11999999999999" y="1.67" class="c">0s</text></symbol><symbol id="a"><rect height="1" width="80" x="0" y="0" class="e"></rect></symbol><symbol id="b"><rect height="2.171" width="1.1022" class="f"></rect></symbol></defs><rect height="2.171" width="80" class="a"></rect><g class="h"><svg x="0" y="0" width="5120"><svg x="0"><use xlink:href="#a"></use><use xlink:href="#b" x="-0.0040000000000000036" y="0"></use></svg><svg x="80"><use xlink:href="#a"></use></svg><svg x="160"><use xlink:href="#a"></use><text font-size="1.67" x="0" y="1.67" class="c">Cleaning</text><text font-size="1.67" x="9.017999999999999" y="1.67" class="c">data</text><text font-size="1.67" x="14.027999999999999" y="1.67" class="d">■</text><text font-size="1.67" x="49.098" y="1.67" class="c">1%</text><text font-size="1.67" x="52.104" y="1.67" class="c">|</text><text font-size="1.67" x="54.108" y="1.67" class="c">ETA:</text><text font-size="1.67" x="60.11999999999999" y="1.67" class="c">6s</text></svg><svg x="240"><use xlink:href="#a"></use><text font-size="1.67" x="0" y="1.67" class="c">Cleaning</text><text font-size="1.67" x="9.017999999999999" y="1.67" class="c">data</text><text font-size="1.67" x="14.027999999999999" y="1.67" class="d">■■</text><text font-size="1.67" x="49.098" y="1.67" class="c">2%</text><text font-size="1.67" x="52.104" y="1.67" class="c">|</text><text font-size="1.67" x="54.108" y="1.67" class="c">ETA:</text><text font-size="1.67" x="60.11999999999999" y="1.67" class="c">7s</text></svg><svg x="320"><use xlink:href="#a"></use><text font-size="1.67" x="0" y="1.67" class="c">Cleaning</text><text font-size="1.67" x="9.017999999999999" y="1.67" class="c">data</text><text font-size="1.67" x="14.027999999999999" y="1.67" class="d">■■</text><text font-size="1.67" x="49.098" y="1.67" class="c">4%</text><text font-size="1.67" x="52.104" y="1.67" class="c">|</text><text font-size="1.67" x="54.108" y="1.67" class="c">ETA:</text><text font-size="1.67" x="60.11999999999999" y="1.67" class="c">7s</text></svg><svg x="400"><use xlink:href="#a"></use><text font-size="1.67" x="0" y="1.67" class="c">Cleaning</text><text font-size="1.67" x="9.017999999999999" y="1.67" class="c">data</text><text font-size="1.67" x="14.027999999999999" y="1.67" class="d">■■■</text><text font-size="1.67" x="49.098" y="1.67" class="c">6%</text><text font-size="1.67" x="52.104" y="1.67" class="c">|</text><text font-size="1.67" x="54.108" y="1.67" class="c">ETA:</text><text font-size="1.67" x="60.11999999999999" y="1.67" class="c">6s</text></svg><svg x="480"><use xlink:href="#a"></use><text font-size="1.67" x="0" y="1.67" class="c">Cleaning</text><text font-size="1.67" x="9.017999999999999" y="1.67" class="c">data</text><text font-size="1.67" x="14.027999999999999" y="1.67" class="d">■■■</text><text font-size="1.67" x="49.098" y="1.67" class="c">7%</text><text font-size="1.67" x="52.104" y="1.67" class="c">|</text><text font-size="1.67" x="54.108" y="1.67" class="c">ETA:</text><text font-size="1.67" x="60.11999999999999" y="1.67" class="c">6s</text></svg><svg x="560"><use xlink:href="#a"></use><text font-size="1.67" x="0" y="1.67" class="c">Cleaning</text><text font-size="1.67" x="9.017999999999999" y="1.67" class="c">data</text><text font-size="1.67" x="14.027999999999999" y="1.67" class="d">■■■■</text><text font-size="1.67" x="49.098" y="1.67" class="c">9%</text><text font-size="1.67" x="52.104" y="1.67" class="c">|</text><text font-size="1.67" x="54.108" y="1.67" class="c">ETA:</text><text font-size="1.67" x="60.11999999999999" y="1.67" class="c">6s</text></svg><svg x="640"><use xlink:href="#a"></use><text font-size="1.67" x="0" y="1.67" class="c">Cleaning</text><text font-size="1.67" x="9.017999999999999" y="1.67" class="c">data</text><text font-size="1.67" x="14.027999999999999" y="1.67" class="d">■■■■</text><text font-size="1.67" x="48.096" y="1.67" class="c">11%</text><text font-size="1.67" x="52.104" y="1.67" class="c">|</text><text font-size="1.67" x="54.108" y="1.67" class="c">ETA:</text><text font-size="1.67" x="60.11999999999999" y="1.67" class="c">6s</text></svg><svg x="720"><use xlink:href="#a"></use><text font-size="1.67" x="0" y="1.67" class="c">Cleaning</text><text font-size="1.67" x="9.017999999999999" y="1.67" class="c">data</text><text font-size="1.67" x="14.027999999999999" y="1.67" class="d">■■■■■</text><text font-size="1.67" x="48.096" y="1.67" class="c">13%</text><text font-size="1.67" x="52.104" y="1.67" class="c">|</text><text font-size="1.67" x="54.108" y="1.67" class="c">ETA:</text><text font-size="1.67" x="60.11999999999999" y="1.67" class="c">5s</text></svg><svg x="800"><use xlink:href="#a"></use><text font-size="1.67" x="0" y="1.67" class="c">Cleaning</text><text font-size="1.67" x="9.017999999999999" y="1.67" class="c">data</text><text font-size="1.67" x="14.027999999999999" y="1.67" class="d">■■■■■</text><text font-size="1.67" x="48.096" y="1.67" class="c">14%</text><text font-size="1.67" x="52.104" y="1.67" class="c">|</text><text font-size="1.67" x="54.108" y="1.67" class="c">ETA:</text><text font-size="1.67" x="60.11999999999999" y="1.67" class="c">5s</text></svg><svg x="880"><use xlink:href="#a"></use><text font-size="1.67" x="0" y="1.67" class="c">Cleaning</text><text font-size="1.67" x="9.017999999999999" y="1.67" class="c">data</text><text font-size="1.67" x="14.027999999999999" y="1.67" class="d">■■■■■■</text><text font-size="1.67" x="48.096" y="1.67" class="c">16%</text><text font-size="1.67" x="52.104" y="1.67" class="c">|</text><text font-size="1.67" x="54.108" y="1.67" class="c">ETA:</text><text font-size="1.67" x="60.11999999999999" y="1.67" class="c">5s</text></svg><svg x="960"><use xlink:href="#a"></use><text font-size="1.67" x="0" y="1.67" class="c">Cleaning</text><text font-size="1.67" x="9.017999999999999" y="1.67" class="c">data</text><text font-size="1.67" x="14.027999999999999" y="1.67" class="d">■■■■■■</text><text font-size="1.67" x="48.096" y="1.67" class="c">18%</text><text font-size="1.67" x="52.104" y="1.67" class="c">|</text><text font-size="1.67" x="54.108" y="1.67" class="c">ETA:</text><text font-size="1.67" x="60.11999999999999" y="1.67" class="c">5s</text></svg><svg x="1040"><use xlink:href="#a"></use><text font-size="1.67" x="0" y="1.67" class="c">Cleaning</text><text font-size="1.67" x="9.017999999999999" y="1.67" class="c">data</text><text font-size="1.67" x="14.027999999999999" y="1.67" class="d">■■■■■■■</text><text font-size="1.67" x="48.096" y="1.67" class="c">20%</text><text font-size="1.67" x="52.104" y="1.67" class="c">|</text><text font-size="1.67" x="54.108" y="1.67" class="c">ETA:</text><text font-size="1.67" x="60.11999999999999" y="1.67" class="c">5s</text></svg><svg x="1120"><use xlink:href="#a"></use><text font-size="1.67" x="0" y="1.67" class="c">Cleaning</text><text font-size="1.67" x="9.017999999999999" y="1.67" class="c">data</text><text font-size="1.67" x="14.027999999999999" y="1.67" class="d">■■■■■■■</text><text font-size="1.67" x="48.096" y="1.67" class="c">21%</text><text font-size="1.67" x="52.104" y="1.67" class="c">|</text><text font-size="1.67" x="54.108" y="1.67" class="c">ETA:</text><text font-size="1.67" x="60.11999999999999" y="1.67" class="c">5s</text></svg><svg x="1200"><use xlink:href="#a"></use><text font-size="1.67" x="0" y="1.67" class="c">Cleaning</text><text font-size="1.67" x="9.017999999999999" y="1.67" class="c">data</text><text font-size="1.67" x="14.027999999999999" y="1.67" class="d">■■■■■■■■</text><text font-size="1.67" x="48.096" y="1.67" class="c">23%</text><text font-size="1.67" x="52.104" y="1.67" class="c">|</text><text font-size="1.67" x="54.108" y="1.67" class="c">ETA:</text><text font-size="1.67" x="60.11999999999999" y="1.67" class="c">5s</text></svg><svg x="1280"><use xlink:href="#a"></use><text font-size="1.67" x="0" y="1.67" class="c">Cleaning</text><text font-size="1.67" x="9.017999999999999" y="1.67" class="c">data</text><text font-size="1.67" x="14.027999999999999" y="1.67" class="d">■■■■■■■■■</text><text font-size="1.67" x="48.096" y="1.67" class="c">25%</text><text font-size="1.67" x="52.104" y="1.67" class="c">|</text><text font-size="1.67" x="54.108" y="1.67" class="c">ETA:</text><text font-size="1.67" x="60.11999999999999" y="1.67" class="c">4s</text></svg><svg x="1360"><use xlink:href="#a"></use><text font-size="1.67" x="0" y="1.67" class="c">Cleaning</text><text font-size="1.67" x="9.017999999999999" y="1.67" class="c">data</text><text font-size="1.67" x="14.027999999999999" y="1.67" class="d">■■■■■■■■■</text><text font-size="1.67" x="48.096" y="1.67" class="c">26%</text><text font-size="1.67" x="52.104" y="1.67" class="c">|</text><text font-size="1.67" x="54.108" y="1.67" class="c">ETA:</text><text font-size="1.67" x="60.11999999999999" y="1.67" class="c">4s</text></svg><svg x="1440"><use xlink:href="#a"></use><text font-size="1.67" x="0" y="1.67" class="c">Cleaning</text><text font-size="1.67" x="9.017999999999999" y="1.67" class="c">data</text><text font-size="1.67" x="14.027999999999999" y="1.67" class="d">■■■■■■■■■</text><text font-size="1.67" x="48.096" y="1.67" class="c">28%</text><text font-size="1.67" x="52.104" y="1.67" class="c">|</text><text font-size="1.67" x="54.108" y="1.67" class="c">ETA:</text><text font-size="1.67" x="60.11999999999999" y="1.67" class="c">4s</text></svg><svg x="1520"><use xlink:href="#a"></use><text font-size="1.67" x="0" y="1.67" class="c">Cleaning</text><text font-size="1.67" x="9.017999999999999" y="1.67" class="c">data</text><text font-size="1.67" x="14.027999999999999" y="1.67" class="d">■■■■■■■■■■</text><text font-size="1.67" x="48.096" y="1.67" class="c">30%</text><text font-size="1.67" x="52.104" y="1.67" class="c">|</text><text font-size="1.67" x="54.108" y="1.67" class="c">ETA:</text><text font-size="1.67" x="60.11999999999999" y="1.67" class="c">4s</text></svg><svg x="1600"><use xlink:href="#a"></use><text font-size="1.67" x="0" y="1.67" class="c">Cleaning</text><text font-size="1.67" x="9.017999999999999" y="1.67" class="c">data</text><text font-size="1.67" x="14.027999999999999" y="1.67" class="d">■■■■■■■■■■■</text><text font-size="1.67" x="48.096" y="1.67" class="c">32%</text><text font-size="1.67" x="52.104" y="1.67" class="c">|</text><text font-size="1.67" x="54.108" y="1.67" class="c">ETA:</text><text font-size="1.67" x="60.11999999999999" y="1.67" class="c">4s</text></svg><svg x="1680"><use xlink:href="#a"></use><text font-size="1.67" x="0" y="1.67" class="c">Cleaning</text><text font-size="1.67" x="9.017999999999999" y="1.67" class="c">data</text><text font-size="1.67" x="14.027999999999999" y="1.67" class="d">■■■■■■■■■■■</text><text font-size="1.67" x="48.096" y="1.67" class="c">34%</text><text font-size="1.67" x="52.104" y="1.67" class="c">|</text><text font-size="1.67" x="54.108" y="1.67" class="c">ETA:</text><text font-size="1.67" x="60.11999999999999" y="1.67" class="c">4s</text></svg><svg x="1760"><use xlink:href="#a"></use><text font-size="1.67" x="0" y="1.67" class="c">Cleaning</text><text font-size="1.67" x="9.017999999999999" y="1.67" class="c">data</text><text font-size="1.67" x="14.027999999999999" y="1.67" class="d">■■■■■■■■■■■</text><text font-size="1.67" x="48.096" y="1.67" class="c">35%</text><text font-size="1.67" x="52.104" y="1.67" class="c">|</text><text font-size="1.67" x="54.108" y="1.67" class="c">ETA:</text><text font-size="1.67" x="60.11999999999999" y="1.67" class="c">4s</text></svg><svg x="1840"><use xlink:href="#a"></use><text font-size="1.67" x="0" y="1.67" class="c">Cleaning</text><text font-size="1.67" x="9.017999999999999" y="1.67" class="c">data</text><text font-size="1.67" x="14.027999999999999" y="1.67" class="d">■■■■■■■■■■■■</text><text font-size="1.67" x="48.096" y="1.67" class="c">37%</text><text font-size="1.67" x="52.104" y="1.67" class="c">|</text><text font-size="1.67" x="54.108" y="1.67" class="c">ETA:</text><text font-size="1.67" x="60.11999999999999" y="1.67" class="c">4s</text></svg><svg x="1920"><use xlink:href="#a"></use><text font-size="1.67" x="0" y="1.67" class="c">Cleaning</text><text font-size="1.67" x="9.017999999999999" y="1.67" class="c">data</text><text font-size="1.67" x="14.027999999999999" y="1.67" class="d">■■■■■■■■■■■■■</text><text font-size="1.67" x="48.096" y="1.67" class="c">39%</text><text font-size="1.67" x="52.104" y="1.67" class="c">|</text><text font-size="1.67" x="54.108" y="1.67" class="c">ETA:</text><text font-size="1.67" x="60.11999999999999" y="1.67" class="c">4s</text></svg><svg x="2000"><use xlink:href="#a"></use><text font-size="1.67" x="0" y="1.67" class="c">Cleaning</text><text font-size="1.67" x="9.017999999999999" y="1.67" class="c">data</text><text font-size="1.67" x="14.027999999999999" y="1.67" class="d">■■■■■■■■■■■■■</text><text font-size="1.67" x="48.096" y="1.67" class="c">41%</text><text font-size="1.67" x="52.104" y="1.67" class="c">|</text><text font-size="1.67" x="54.108" y="1.67" class="c">ETA:</text><text font-size="1.67" x="60.11999999999999" y="1.67" class="c">3s</text></svg><svg x="2080"><use xlink:href="#a"></use><text font-size="1.67" x="0" y="1.67" class="c">Cleaning</text><text font-size="1.67" x="9.017999999999999" y="1.67" class="c">data</text><text font-size="1.67" x="14.027999999999999" y="1.67" class="d">■■■■■■■■■■■■■■</text><text font-size="1.67" x="48.096" y="1.67" class="c">42%</text><text font-size="1.67" x="52.104" y="1.67" class="c">|</text><text font-size="1.67" x="54.108" y="1.67" class="c">ETA:</text><text font-size="1.67" x="60.11999999999999" y="1.67" class="c">3s</text></svg><svg x="2160"><use xlink:href="#a"></use><text font-size="1.67" x="0" y="1.67" class="c">Cleaning</text><text font-size="1.67" x="9.017999999999999" y="1.67" class="c">data</text><text font-size="1.67" x="14.027999999999999" y="1.67" class="d">■■■■■■■■■■■■■■</text><text font-size="1.67" x="48.096" y="1.67" class="c">44%</text><text font-size="1.67" x="52.104" y="1.67" class="c">|</text><text font-size="1.67" x="54.108" y="1.67" class="c">ETA:</text><text font-size="1.67" x="60.11999999999999" y="1.67" class="c">3s</text></svg><svg x="2240"><use xlink:href="#a"></use><text font-size="1.67" x="0" y="1.67" class="c">Cleaning</text><text font-size="1.67" x="9.017999999999999" y="1.67" class="c">data</text><text font-size="1.67" x="14.027999999999999" y="1.67" class="d">■■■■■■■■■■■■■■■</text><text font-size="1.67" x="48.096" y="1.67" class="c">46%</text><text font-size="1.67" x="52.104" y="1.67" class="c">|</text><text font-size="1.67" x="54.108" y="1.67" class="c">ETA:</text><text font-size="1.67" x="60.11999999999999" y="1.67" class="c">3s</text></svg><svg x="2320"><use xlink:href="#a"></use><text font-size="1.67" x="0" y="1.67" class="c">Cleaning</text><text font-size="1.67" x="9.017999999999999" y="1.67" class="c">data</text><text font-size="1.67" x="14.027999999999999" y="1.67" class="d">■■■■■■■■■■■■■■■</text><text font-size="1.67" x="48.096" y="1.67" class="c">47%</text><text font-size="1.67" x="52.104" y="1.67" class="c">|</text><text font-size="1.67" x="54.108" y="1.67" class="c">ETA:</text><text font-size="1.67" x="60.11999999999999" y="1.67" class="c">3s</text></svg><svg x="2400"><use xlink:href="#a"></use><text font-size="1.67" x="0" y="1.67" class="c">Cleaning</text><text font-size="1.67" x="9.017999999999999" y="1.67" class="c">data</text><text font-size="1.67" x="14.027999999999999" y="1.67" class="d">■■■■■■■■■■■■■■■■</text><text font-size="1.67" x="48.096" y="1.67" class="c">49%</text><text font-size="1.67" x="52.104" y="1.67" class="c">|</text><text font-size="1.67" x="54.108" y="1.67" class="c">ETA:</text><text font-size="1.67" x="60.11999999999999" y="1.67" class="c">3s</text></svg><svg x="2480"><use xlink:href="#a"></use><text font-size="1.67" x="0" y="1.67" class="c">Cleaning</text><text font-size="1.67" x="9.017999999999999" y="1.67" class="c">data</text><text font-size="1.67" x="14.027999999999999" y="1.67" class="d">■■■■■■■■■■■■■■■■</text><text font-size="1.67" x="48.096" y="1.67" class="c">51%</text><text font-size="1.67" x="52.104" y="1.67" class="c">|</text><text font-size="1.67" x="54.108" y="1.67" class="c">ETA:</text><text font-size="1.67" x="60.11999999999999" y="1.67" class="c">3s</text></svg><svg x="2560"><use xlink:href="#a"></use><text font-size="1.67" x="0" y="1.67" class="c">Cleaning</text><text font-size="1.67" x="9.017999999999999" y="1.67" class="c">data</text><text font-size="1.67" x="14.027999999999999" y="1.67" class="d">■■■■■■■■■■■■■■■■■</text><text font-size="1.67" x="48.096" y="1.67" class="c">53%</text><text font-size="1.67" x="52.104" y="1.67" class="c">|</text><text font-size="1.67" x="54.108" y="1.67" class="c">ETA:</text><text font-size="1.67" x="60.11999999999999" y="1.67" class="c">3s</text></svg><svg x="2640"><use xlink:href="#a"></use><text font-size="1.67" x="0" y="1.67" class="c">Cleaning</text><text font-size="1.67" x="9.017999999999999" y="1.67" class="c">data</text><text font-size="1.67" x="14.027999999999999" y="1.67" class="d">■■■■■■■■■■■■■■■■■</text><text font-size="1.67" x="48.096" y="1.67" class="c">54%</text><text font-size="1.67" x="52.104" y="1.67" class="c">|</text><text font-size="1.67" x="54.108" y="1.67" class="c">ETA:</text><text font-size="1.67" x="60.11999999999999" y="1.67" class="c">3s</text></svg><svg x="2720"><use xlink:href="#a"></use><text font-size="1.67" x="0" y="1.67" class="c">Cleaning</text><text font-size="1.67" x="9.017999999999999" y="1.67" class="c">data</text><text font-size="1.67" x="14.027999999999999" y="1.67" class="d">■■■■■■■■■■■■■■■■■■</text><text font-size="1.67" x="48.096" y="1.67" class="c">56%</text><text font-size="1.67" x="52.104" y="1.67" class="c">|</text><text font-size="1.67" x="54.108" y="1.67" class="c">ETA:</text><text font-size="1.67" x="60.11999999999999" y="1.67" class="c">3s</text></svg><svg x="2800"><use xlink:href="#a"></use><text font-size="1.67" x="0" y="1.67" class="c">Cleaning</text><text font-size="1.67" x="9.017999999999999" y="1.67" class="c">data</text><text font-size="1.67" x="14.027999999999999" y="1.67" class="d">■■■■■■■■■■■■■■■■■■</text><text font-size="1.67" x="48.096" y="1.67" class="c">58%</text><text font-size="1.67" x="52.104" y="1.67" class="c">|</text><text font-size="1.67" x="54.108" y="1.67" class="c">ETA:</text><text font-size="1.67" x="60.11999999999999" y="1.67" class="c">2s</text></svg><svg x="2880"><use xlink:href="#a"></use><text font-size="1.67" x="0" y="1.67" class="c">Cleaning</text><text font-size="1.67" x="9.017999999999999" y="1.67" class="c">data</text><text font-size="1.67" x="14.027999999999999" y="1.67" class="d">■■■■■■■■■■■■■■■■■■■</text><text font-size="1.67" x="48.096" y="1.67" class="c">60%</text><text font-size="1.67" x="52.104" y="1.67" class="c">|</text><text font-size="1.67" x="54.108" y="1.67" class="c">ETA:</text><text font-size="1.67" x="60.11999999999999" y="1.67" class="c">2s</text></svg><svg x="2960"><use xlink:href="#a"></use><text font-size="1.67" x="0" y="1.67" class="c">Cleaning</text><text font-size="1.67" x="9.017999999999999" y="1.67" class="c">data</text><text font-size="1.67" x="14.027999999999999" y="1.67" class="d">■■■■■■■■■■■■■■■■■■■</text><text font-size="1.67" x="48.096" y="1.67" class="c">61%</text><text font-size="1.67" x="52.104" y="1.67" class="c">|</text><text font-size="1.67" x="54.108" y="1.67" class="c">ETA:</text><text font-size="1.67" x="60.11999999999999" y="1.67" class="c">2s</text></svg><svg x="3040"><use xlink:href="#a"></use><text font-size="1.67" x="0" y="1.67" class="c">Cleaning</text><text font-size="1.67" x="9.017999999999999" y="1.67" class="c">data</text><text font-size="1.67" x="14.027999999999999" y="1.67" class="d">■■■■■■■■■■■■■■■■■■■■</text><text font-size="1.67" x="48.096" y="1.67" class="c">63%</text><text font-size="1.67" x="52.104" y="1.67" class="c">|</text><text font-size="1.67" x="54.108" y="1.67" class="c">ETA:</text><text font-size="1.67" x="60.11999999999999" y="1.67" class="c">2s</text></svg><svg x="3120"><use xlink:href="#a"></use><text font-size="1.67" x="0" y="1.67" class="c">Cleaning</text><text font-size="1.67" x="9.017999999999999" y="1.67" class="c">data</text><text font-size="1.67" x="14.027999999999999" y="1.67" class="d">■■■■■■■■■■■■■■■■■■■■■</text><text font-size="1.67" x="48.096" y="1.67" class="c">65%</text><text font-size="1.67" x="52.104" y="1.67" class="c">|</text><text font-size="1.67" x="54.108" y="1.67" class="c">ETA:</text><text font-size="1.67" x="60.11999999999999" y="1.67" class="c">2s</text></svg><svg x="3200"><use xlink:href="#a"></use><text font-size="1.67" x="0" y="1.67" class="c">Cleaning</text><text font-size="1.67" x="9.017999999999999" y="1.67" class="c">data</text><text font-size="1.67" x="14.027999999999999" y="1.67" class="d">■■■■■■■■■■■■■■■■■■■■■</text><text font-size="1.67" x="48.096" y="1.67" class="c">67%</text><text font-size="1.67" x="52.104" y="1.67" class="c">|</text><text font-size="1.67" x="54.108" y="1.67" class="c">ETA:</text><text font-size="1.67" x="60.11999999999999" y="1.67" class="c">2s</text></svg><svg x="3280"><use xlink:href="#a"></use><text font-size="1.67" x="0" y="1.67" class="c">Cleaning</text><text font-size="1.67" x="9.017999999999999" y="1.67" class="c">data</text><text font-size="1.67" x="14.027999999999999" y="1.67" class="d">■■■■■■■■■■■■■■■■■■■■■</text><text font-size="1.67" x="48.096" y="1.67" class="c">68%</text><text font-size="1.67" x="52.104" y="1.67" class="c">|</text><text font-size="1.67" x="54.108" y="1.67" class="c">ETA:</text><text font-size="1.67" x="60.11999999999999" y="1.67" class="c">2s</text></svg><svg x="3360"><use xlink:href="#a"></use><text font-size="1.67" x="0" y="1.67" class="c">Cleaning</text><text font-size="1.67" x="9.017999999999999" y="1.67" class="c">data</text><text font-size="1.67" x="14.027999999999999" y="1.67" class="d">■■■■■■■■■■■■■■■■■■■■■■</text><text font-size="1.67" x="48.096" y="1.67" class="c">70%</text><text font-size="1.67" x="52.104" y="1.67" class="c">|</text><text font-size="1.67" x="54.108" y="1.67" class="c">ETA:</text><text font-size="1.67" x="60.11999999999999" y="1.67" class="c">2s</text></svg><svg x="3440"><use xlink:href="#a"></use><text font-size="1.67" x="0" y="1.67" class="c">Cleaning</text><text font-size="1.67" x="9.017999999999999" y="1.67" class="c">data</text><text font-size="1.67" x="14.027999999999999" y="1.67" class="d">■■■■■■■■■■■■■■■■■■■■■■■</text><text font-size="1.67" x="48.096" y="1.67" class="c">72%</text><text font-size="1.67" x="52.104" y="1.67" class="c">|</text><text font-size="1.67" x="54.108" y="1.67" class="c">ETA:</text><text font-size="1.67" x="60.11999999999999" y="1.67" class="c">2s</text></svg><svg x="3520"><use xlink:href="#a"></use><text font-size="1.67" x="0" y="1.67" class="c">Cleaning</text><text font-size="1.67" x="9.017999999999999" y="1.67" class="c">data</text><text font-size="1.67" x="14.027999999999999" y="1.67" class="d">■■■■■■■■■■■■■■■■■■■■■■■</text><text font-size="1.67" x="48.096" y="1.67" class="c">74%</text><text font-size="1.67" x="52.104" y="1.67" class="c">|</text><text font-size="1.67" x="54.108" y="1.67" class="c">ETA:</text><text font-size="1.67" x="60.11999999999999" y="1.67" class="c">2s</text></svg><svg x="3600"><use xlink:href="#a"></use><text font-size="1.67" x="0" y="1.67" class="c">Cleaning</text><text font-size="1.67" x="9.017999999999999" y="1.67" class="c">data</text><text font-size="1.67" x="14.027999999999999" y="1.67" class="d">■■■■■■■■■■■■■■■■■■■■■■■</text><text font-size="1.67" x="48.096" y="1.67" class="c">75%</text><text font-size="1.67" x="52.104" y="1.67" class="c">|</text><text font-size="1.67" x="54.108" y="1.67" class="c">ETA:</text><text font-size="1.67" x="60.11999999999999" y="1.67" class="c">1s</text></svg><svg x="3680"><use xlink:href="#a"></use><text font-size="1.67" x="0" y="1.67" class="c">Cleaning</text><text font-size="1.67" x="9.017999999999999" y="1.67" class="c">data</text><text font-size="1.67" x="14.027999999999999" y="1.67" class="d">■■■■■■■■■■■■■■■■■■■■■■■■</text><text font-size="1.67" x="48.096" y="1.67" class="c">77%</text><text font-size="1.67" x="52.104" y="1.67" class="c">|</text><text font-size="1.67" x="54.108" y="1.67" class="c">ETA:</text><text font-size="1.67" x="60.11999999999999" y="1.67" class="c">1s</text></svg><svg x="3760"><use xlink:href="#a"></use><text font-size="1.67" x="0" y="1.67" class="c">Cleaning</text><text font-size="1.67" x="9.017999999999999" y="1.67" class="c">data</text><text font-size="1.67" x="14.027999999999999" y="1.67" class="d">■■■■■■■■■■■■■■■■■■■■■■■■■</text><text font-size="1.67" x="48.096" y="1.67" class="c">79%</text><text font-size="1.67" x="52.104" y="1.67" class="c">|</text><text font-size="1.67" x="54.108" y="1.67" class="c">ETA:</text><text font-size="1.67" x="60.11999999999999" y="1.67" class="c">1s</text></svg><svg x="3840"><use xlink:href="#a"></use><text font-size="1.67" x="0" y="1.67" class="c">Cleaning</text><text font-size="1.67" x="9.017999999999999" y="1.67" class="c">data</text><text font-size="1.67" x="14.027999999999999" y="1.67" class="d">■■■■■■■■■■■■■■■■■■■■■■■■■</text><text font-size="1.67" x="48.096" y="1.67" class="c">80%</text><text font-size="1.67" x="52.104" y="1.67" class="c">|</text><text font-size="1.67" x="54.108" y="1.67" class="c">ETA:</text><text font-size="1.67" x="60.11999999999999" y="1.67" class="c">1s</text></svg><svg x="3920"><use xlink:href="#a"></use><text font-size="1.67" x="0" y="1.67" class="c">Cleaning</text><text font-size="1.67" x="9.017999999999999" y="1.67" class="c">data</text><text font-size="1.67" x="14.027999999999999" y="1.67" class="d">■■■■■■■■■■■■■■■■■■■■■■■■■■</text><text font-size="1.67" x="48.096" y="1.67" class="c">82%</text><text font-size="1.67" x="52.104" y="1.67" class="c">|</text><text font-size="1.67" x="54.108" y="1.67" class="c">ETA:</text><text font-size="1.67" x="60.11999999999999" y="1.67" class="c">1s</text></svg><svg x="4000"><use xlink:href="#a"></use><text font-size="1.67" x="0" y="1.67" class="c">Cleaning</text><text font-size="1.67" x="9.017999999999999" y="1.67" class="c">data</text><text font-size="1.67" x="14.027999999999999" y="1.67" class="d">■■■■■■■■■■■■■■■■■■■■■■■■■■</text><text font-size="1.67" x="48.096" y="1.67" class="c">84%</text><text font-size="1.67" x="52.104" y="1.67" class="c">|</text><text font-size="1.67" x="54.108" y="1.67" class="c">ETA:</text><text font-size="1.67" x="60.11999999999999" y="1.67" class="c">1s</text></svg><svg x="4080"><use xlink:href="#a"></use><text font-size="1.67" x="0" y="1.67" class="c">Cleaning</text><text font-size="1.67" x="9.017999999999999" y="1.67" class="c">data</text><text font-size="1.67" x="14.027999999999999" y="1.67" class="d">■■■■■■■■■■■■■■■■■■■■■■■■■■■</text><text font-size="1.67" x="48.096" y="1.67" class="c">86%</text><text font-size="1.67" x="52.104" y="1.67" class="c">|</text><text font-size="1.67" x="54.108" y="1.67" class="c">ETA:</text><text font-size="1.67" x="60.11999999999999" y="1.67" class="c">1s</text></svg><svg x="4160"><use xlink:href="#a"></use><text font-size="1.67" x="0" y="1.67" class="c">Cleaning</text><text font-size="1.67" x="9.017999999999999" y="1.67" class="c">data</text><text font-size="1.67" x="14.027999999999999" y="1.67" class="d">■■■■■■■■■■■■■■■■■■■■■■■■■■■</text><text font-size="1.67" x="48.096" y="1.67" class="c">87%</text><text font-size="1.67" x="52.104" y="1.67" class="c">|</text><text font-size="1.67" x="54.108" y="1.67" class="c">ETA:</text><text font-size="1.67" x="60.11999999999999" y="1.67" class="c">1s</text></svg><svg x="4240"><use xlink:href="#a"></use><text font-size="1.67" x="0" y="1.67" class="c">Cleaning</text><text font-size="1.67" x="9.017999999999999" y="1.67" class="c">data</text><text font-size="1.67" x="14.027999999999999" y="1.67" class="d">■■■■■■■■■■■■■■■■■■■■■■■■■■■■</text><text font-size="1.67" x="48.096" y="1.67" class="c">89%</text><text font-size="1.67" x="52.104" y="1.67" class="c">|</text><text font-size="1.67" x="54.108" y="1.67" class="c">ETA:</text><text font-size="1.67" x="60.11999999999999" y="1.67" class="c">1s</text></svg><svg x="4320"><use xlink:href="#a"></use><text font-size="1.67" x="0" y="1.67" class="c">Cleaning</text><text font-size="1.67" x="9.017999999999999" y="1.67" class="c">data</text><text font-size="1.67" x="14.027999999999999" y="1.67" class="d">■■■■■■■■■■■■■■■■■■■■■■■■■■■■</text><text font-size="1.67" x="48.096" y="1.67" class="c">91%</text><text font-size="1.67" x="52.104" y="1.67" class="c">|</text><text font-size="1.67" x="54.108" y="1.67" class="c">ETA:</text><text font-size="1.67" x="60.11999999999999" y="1.67" class="c">1s</text></svg><svg x="4400"><use xlink:href="#a"></use><text font-size="1.67" x="0" y="1.67" class="c">Cleaning</text><text font-size="1.67" x="9.017999999999999" y="1.67" class="c">data</text><text font-size="1.67" x="14.027999999999999" y="1.67" class="d">■■■■■■■■■■■■■■■■■■■■■■■■■■■■■</text><text font-size="1.67" x="48.096" y="1.67" class="c">92%</text><text font-size="1.67" x="52.104" y="1.67" class="c">|</text><text font-size="1.67" x="54.108" y="1.67" class="c">ETA:</text><text font-size="1.67" x="60.11999999999999" y="1.67" class="c">0s</text></svg><svg x="4480"><use xlink:href="#a"></use><text font-size="1.67" x="0" y="1.67" class="c">Cleaning</text><text font-size="1.67" x="9.017999999999999" y="1.67" class="c">data</text><text font-size="1.67" x="14.027999999999999" y="1.67" class="d">■■■■■■■■■■■■■■■■■■■■■■■■■■■■■</text><text font-size="1.67" x="48.096" y="1.67" class="c">94%</text><text font-size="1.67" x="52.104" y="1.67" class="c">|</text><text font-size="1.67" x="54.108" y="1.67" class="c">ETA:</text><text font-size="1.67" x="60.11999999999999" y="1.67" class="c">0s</text></svg><svg x="4560"><use xlink:href="#a"></use><text font-size="1.67" x="0" y="1.67" class="c">Cleaning</text><text font-size="1.67" x="9.017999999999999" y="1.67" class="c">data</text><text font-size="1.67" x="14.027999999999999" y="1.67" class="d">■■■■■■■■■■■■■■■■■■■■■■■■■■■■■■</text><text font-size="1.67" x="48.096" y="1.67" class="c">96%</text><text font-size="1.67" x="52.104" y="1.67" class="c">|</text><text font-size="1.67" x="54.108" y="1.67" class="c">ETA:</text><text font-size="1.67" x="60.11999999999999" y="1.67" class="c">0s</text></svg><svg x="4640"><use xlink:href="#a"></use><text font-size="1.67" x="0" y="1.67" class="c">Cleaning</text><text font-size="1.67" x="9.017999999999999" y="1.67" class="c">data</text><text font-size="1.67" x="14.027999999999999" y="1.67" class="d">■■■■■■■■■■■■■■■■■■■■■■■■■■■■■■</text><text font-size="1.67" x="48.096" y="1.67" class="c">98%</text><text font-size="1.67" x="52.104" y="1.67" class="c">|</text><text font-size="1.67" x="54.108" y="1.67" class="c">ETA:</text><text font-size="1.67" x="60.11999999999999" y="1.67" class="c">0s</text></svg><svg x="4720"><use xlink:href="#a"></use><text font-size="1.67" x="0" y="1.67" class="c">Cleaning</text><text font-size="1.67" x="9.017999999999999" y="1.67" class="c">data</text><text font-size="1.67" x="14.027999999999999" y="1.67" class="d">■■■■■■■■■■■■■■■■■■■■■■■■■■■■■■■</text><text font-size="1.67" x="48.096" y="1.67" class="c">99%</text><text font-size="1.67" x="52.104" y="1.67" class="c">|</text><text font-size="1.67" x="54.108" y="1.67" class="c">ETA:</text><text font-size="1.67" x="60.11999999999999" y="1.67" class="c">0s</text></svg><svg x="4800"><use xlink:href="#a"></use><use xlink:href="#1" y="0"></use></svg><svg x="4880"><use xlink:href="#a"></use><use xlink:href="#1" y="0"></use></svg><svg x="4960"><use xlink:href="#a"></use><use xlink:href="#1" y="0"></use></svg><svg x="5040"><use xlink:href="#a"></use><use xlink:href="#1" y="0"></use></svg></svg></g></g></svg></svg>