<svg xmlns="http://www.w3.org/2000/svg" xmlns:xlink="http://www.w3.org/1999/xlink" width="1040" height="83.41999999999999"><rect width="1040" height="83.41999999999999" rx="0" ry="0" class="a"></rect><svg height="43.419999999999995" viewBox="0 0 100 4.342" width="1000" x="20" xmlns="http://www.w3.org/2000/svg" xmlns:xlink="http://www.w3.org/1999/xlink" y="20"><style>.a{fill:rgb(40,45,53)}.b{font-family:'Fira Code',Monaco,Consolas,Menlo,'Bitstream Vera Sans Mono','Powerline Symbols',monospace}.c{fill:rgb(185,192,203);white-space:pre}.d{fill:rgb(168,204,140);white-space:pre}.e{fill:transparent}.g{animation-duration:12.6068170070648s;animation-iteration-count:infinite;animation-name:f;animation-timing-function:steps(1,end)}@keyframes f{0%{transform:translateX(-0px)}8.2%{transform:translateX(-100px)}9.4%{transform:translateX(-200px)}9.5%{transform:translateX(-300px)}10.4%{transform:translateX(-400px)}11.4%{transform:translateX(-500px)}12.3%{transform:translateX(-600px)}13%{transform:translateX(-700px)}13.7%{transform:translateX(-800px)}14.6%{transform:translateX(-900px)}15.6%{transform:translateX(-1000px)}16.3%{transform:translateX(-1100px)}17%{transform:translateX(-1200px)}18%{transform:translateX(-1300px)}18.7%{transform:translateX(-1400px)}19.6%{transform:translateX(-1500px)}20.6%{transform:translateX(-1600px)}21.3%{transform:translateX(-1700px)}22.2%{transform:translateX(-1800px)}22.9%{transform:translateX(-1900px)}23.9%{transform:translateX(-2000px)}24.6%{transform:translateX(-2100px)}25.5%{transform:translateX(-2200px)}26.5%{transform:translateX(-2300px)}27.1%{transform:translateX(-2400px)}28.1%{transform:translateX(-2500px)}29.1%{transform:translateX(-2600px)}29.8%{transform:translateX(-2700px)}30.7%{transform:translateX(-2800px)}31.4%{transform:translateX(-2900px)}32.3%{transform:translateX(-3000px)}33.2%{transform:translateX(-3100px)}33.9%{transform:translateX(-3200px)}34.8%{transform:translateX(-3300px)}35.8%{transform:translateX(-3400px)}36.5%{transform:translateX(-3500px)}37.2%{transform:translateX(-3600px)}38.2%{transform:translateX(-3700px)}38.9%{transform:translateX(-3800px)}39.9%{transform:translateX(-3900px)}40.6%{transform:translateX(-4000px)}41.5%{transform:translateX(-4100px)}42.2%{transform:translateX(-4200px)}42.5%{transform:translateX(-4300px)}42.6%{transform:translateX(-4400px)}43.2%{transform:translateX(-4500px)}44.2%{transform:translateX(-4600px)}44.9%{transform:translateX(-4700px)}45.9%{transform:translateX(-4800px)}46.9%{transform:translateX(-4900px)}47.6%{transform:translateX(-5000px)}48.5%{transform:translateX(-5100px)}49.2%{transform:translateX(-5200px)}50.1%{transform:translateX(-5300px)}50.8%{transform:translateX(-5400px)}51.8%{transform:translateX(-5500px)}52.5%{transform:translateX(-5600px)}53.5%{transform:translateX(-5700px)}54.5%{transform:translateX(-5800px)}55.2%{transform:translateX(-5900px)}55.9%{transform:translateX(-6000px)}56.9%{transform:translateX(-6100px)}57.6%{transform:translateX(-6200px)}58.7%{transform:translateX(-6300px)}59.3%{transform:translateX(-6400px)}60.3%{transform:translateX(-6500px)}61.2%{transform:translateX(-6600px)}61.9%{transform:translateX(-6700px)}63%{transform:translateX(-6800px)}63.6%{transform:translateX(-6900px)}64.6%{transform:translateX(-7000px)}65.2%{transform:translateX(-7100px)}66.2%{transform:translateX(-7200px)}67.1%{transform:translateX(-7300px)}67.8%{transform:translateX(-7400px)}68.8%{transform:translateX(-7500px)}69.5%{transform:translateX(-7600px)}70.5%{transform:translateX(-7700px)}71.4%{transform:translateX(-7800px)}72.1%{transform:translateX(-7900px)}73%{transform:translateX(-8000px)}73.7%{transform:translateX(-8100px)}74.7%{transform:translateX(-8200px)}75.3%{transform:translateX(-8300px)}75.3%{transform:translateX(-8400px)}100%{transform:translateX(-8500px)}}</style><g font-family="&#x27;Fira Code&#x27;,Monaco,Consolas,Menlo,&#x27;Bitstream Vera Sans Mono&#x27;,&#x27;Powerline Symbols&#x27;,monospace" font-size="1.67" class="b"><defs><symbol id="1"><text x="0" y="1.67" class="c">Cleaning</text><text x="9.017999999999999" y="1.67" class="c">data</text><text x="14.027999999999999" y="1.67" class="c">#1</text><text x="17.034" y="1.67" class="d">■■■■■■■■■■■■■■■■■■■■■■■■■■■■■■■</text><text x="50.1" y="1.67" class="c">100%</text><text x="55.10999999999999" y="1.67" class="c">|</text><text x="57.114" y="1.67" class="c">ETA:</text><text x="63.12599999999999" y="1.67" class="c">0s</text></symbol><symbol id="2"><text x="0" y="1.67" class="c">Cleaning</text><text x="9.017999999999999" y="1.67" class="c">data</text><text x="14.027999999999999" y="1.67" class="c">#2</text><text x="17.034" y="1.67" class="d">■■■■■■■■■■■■■■■■■■■■■■■■■■■■■■■</text><text x="50.1" y="1.67" class="c">100%</text><text x="55.10999999999999" y="1.67" class="c">|</text><text x="57.114" y="1.67" class="c">ETA:</text><text x="63.12599999999999" y="1.67" class="c">0s</text></symbol><symbol id="a"><rect height="3" width="100" x="0" y="0" class="e"></rect></symbol></defs><rect height="4.342" width="100" class="a"></rect><g class="g"><svg x="0" y="0" width="8600"><svg x="0"><use xlink:href="#a"></use></svg><svg x="100"><use xlink:href="#a"></use></svg><svg x="200"><use xlink:href="#a"></use></svg><svg x="300"><use xlink:href="#a"></use><text x="0" y="1.67" class="c">Cleaning</text><text x="9.017999999999999" y="1.67" class="c">data</text><text x="14.027999999999999" y="1.67" class="c">#1</text><text x="17.034" y="1.67" class="d">■</text><text x="52.104" y="1.67" class="c">1%</text><text x="55.10999999999999" y="1.67" class="c">|</text><text x="57.114" y="1.67" class="c">ETA:</text><text x="63.12599999999999" y="1.67" class="c">4s</text></svg><svg x="400"><use xlink:href="#a"></use><text x="0" y="1.67" class="c">Cleaning</text><text x="9.017999999999999" y="1.67" class="c">data</text><text x="14.027999999999999" y="1.67" class="c">#1</text><text x="17.034" y="1.67" class="d">■■</text><text x="52.104" y="1.67" class="c">4%</text><text x="55.10999999999999" y="1.67" class="c">|</text><text x="57.114" y="1.67" class="c">ETA:</text><text x="63.12599999999999" y="1.67" class="c">4s</text></svg><svg x="500"><use xlink:href="#a"></use><text x="0" y="1.67" class="c">Cleaning</text><text x="9.017999999999999" y="1.67" class="c">data</text><text x="14.027999999999999" y="1.67" class="c">#1</text><text x="17.034" y="1.67" class="d">■■■</text><text x="52.104" y="1.67" class="c">7%</text><text x="55.10999999999999" y="1.67" class="c">|</text><text x="57.114" y="1.67" class="c">ETA:</text><text x="63.12599999999999" y="1.67" class="c">4s</text></svg><svg x="600"><use xlink:href="#a"></use><text x="0" y="1.67" class="c">Cleaning</text><text x="9.017999999999999" y="1.67" class="c">data</text><text x="14.027999999999999" y="1.67" class="c">#1</text><text x="17.034" y="1.67" class="d">■■■■</text><text x="52.104" y="1.67" class="c">9%</text><text x="55.10999999999999" y="1.67" class="c">|</text><text x="57.114" y="1.67" class="c">ETA:</text><text x="63.12599999999999" y="1.67" class="c">4s</text></svg><svg x="700"><use xlink:href="#a"></use><text x="0" y="1.67" class="c">Cleaning</text><text x="9.017999999999999" y="1.67" class="c">data</text><text x="14.027999999999999" y="1.67" class="c">#1</text><text x="17.034" y="1.67" class="d">■■■■</text><text x="51.102" y="1.67" class="c">11%</text><text x="55.10999999999999" y="1.67" class="c">|</text><text x="57.114" y="1.67" class="c">ETA:</text><text x="63.12599999999999" y="1.67" class="c">4s</text></svg><svg x="800"><use xlink:href="#a"></use><text x="0" y="1.67" class="c">Cleaning</text><text x="9.017999999999999" y="1.67" class="c">data</text><text x="14.027999999999999" y="1.67" class="c">#1</text><text x="17.034" y="1.67" class="d">■■■■■</text><text x="51.102" y="1.67" class="c">13%</text><text x="55.10999999999999" y="1.67" class="c">|</text><text x="57.114" y="1.67" class="c">ETA:</text><text x="63.12599999999999" y="1.67" class="c">4s</text></svg><svg x="900"><use xlink:href="#a"></use><text x="0" y="1.67" class="c">Cleaning</text><text x="9.017999999999999" y="1.67" class="c">data</text><text x="14.027999999999999" y="1.67" class="c">#1</text><text x="17.034" y="1.67" class="d">■■■■■■</text><text x="51.102" y="1.67" class="c">16%</text><text x="55.10999999999999" y="1.67" class="c">|</text><text x="57.114" y="1.67" class="c">ETA:</text><text x="63.12599999999999" y="1.67" class="c">4s</text></svg><svg x="1000"><use xlink:href="#a"></use><text x="0" y="1.67" class="c">Cleaning</text><text x="9.017999999999999" y="1.67" class="c">data</text><text x="14.027999999999999" y="1.67" class="c">#1</text><text x="17.034" y="1.67" class="d">■■■■■■■</text><text x="51.102" y="1.67" class="c">19%</text><text x="55.10999999999999" y="1.67" class="c">|</text><text x="57.114" y="1.67" class="c">ETA:</text><text x="63.12599999999999" y="1.67" class="c">3s</text></svg><svg x="1100"><use xlink:href="#a"></use><text x="0" y="1.67" class="c">Cleaning</text><text x="9.017999999999999" y="1.67" class="c">data</text><text x="14.027999999999999" y="1.67" class="c">#1</text><text x="17.034" y="1.67" class="d">■■■■■■■</text><text x="51.102" y="1.67" class="c">21%</text><text x="55.10999999999999" y="1.67" class="c">|</text><text x="57.114" y="1.67" class="c">ETA:</text><text x="63.12599999999999" y="1.67" class="c">3s</text></svg><svg x="1200"><use xlink:href="#a"></use><text x="0" y="1.67" class="c">Cleaning</text><text x="9.017999999999999" y="1.67" class="c">data</text><text x="14.027999999999999" y="1.67" class="c">#1</text><text x="17.034" y="1.67" class="d">■■■■■■■■</text><text x="51.102" y="1.67" class="c">23%</text><text x="55.10999999999999" y="1.67" class="c">|</text><text x="57.114" y="1.67" class="c">ETA:</text><text x="63.12599999999999" y="1.67" class="c">3s</text></svg><svg x="1300"><use xlink:href="#a"></use><text x="0" y="1.67" class="c">Cleaning</text><text x="9.017999999999999" y="1.67" class="c">data</text><text x="14.027999999999999" y="1.67" class="c">#1</text><text x="17.034" y="1.67" class="d">■■■■■■■■■</text><text x="51.102" y="1.67" class="c">26%</text><text x="55.10999999999999" y="1.67" class="c">|</text><text x="57.114" y="1.67" class="c">ETA:</text><text x="63.12599999999999" y="1.67" class="c">3s</text></svg><svg x="1400"><use xlink:href="#a"></use><text x="0" y="1.67" class="c">Cleaning</text><text x="9.017999999999999" y="1.67" class="c">data</text><text x="14.027999999999999" y="1.67" class="c">#1</text><text x="17.034" y="1.67" class="d">■■■■■■■■■</text><text x="51.102" y="1.67" class="c">28%</text><text x="55.10999999999999" y="1.67" class="c">|</text><text x="57.114" y="1.67" class="c">ETA:</text><text x="63.12599999999999" y="1.67" class="c">3s</text></svg><svg x="1500"><use xlink:href="#a"></use><text x="0" y="1.67" class="c">Cleaning</text><text x="9.017999999999999" y="1.67" class="c">data</text><text x="14.027999999999999" y="1.67" class="c">#1</text><text x="17.034" y="1.67" class="d">■■■■■■■■■■</text><text x="51.102" y="1.67" class="c">31%</text><text x="55.10999999999999" y="1.67" class="c">|</text><text x="57.114" y="1.67" class="c">ETA:</text><text x="63.12599999999999" y="1.67" class="c">3s</text></svg><svg x="1600"><use xlink:href="#a"></use><text x="0" y="1.67" class="c">Cleaning</text><text x="9.017999999999999" y="1.67" class="c">data</text><text x="14.027999999999999" y="1.67" class="c">#1</text><text x="17.034" y="1.67" class="d">■■■■■■■■■■■</text><text x="51.102" y="1.67" class="c">34%</text><text x="55.10999999999999" y="1.67" class="c">|</text><text x="57.114" y="1.67" class="c">ETA:</text><text x="63.12599999999999" y="1.67" class="c">3s</text></svg><svg x="1700"><use xlink:href="#a"></use><text x="0" y="1.67" class="c">Cleaning</text><text x="9.017999999999999" y="1.67" class="c">data</text><text x="14.027999999999999" y="1.67" class="c">#1</text><text x="17.034" y="1.67" class="d">■■■■■■■■■■■■</text><text x="51.102" y="1.67" class="c">36%</text><text x="55.10999999999999" y="1.67" class="c">|</text><text x="57.114" y="1.67" class="c">ETA:</text><text x="63.12599999999999" y="1.67" class="c">3s</text></svg><svg x="1800"><use xlink:href="#a"></use><text x="0" y="1.67" class="c">Cleaning</text><text x="9.017999999999999" y="1.67" class="c">data</text><text x="14.027999999999999" y="1.67" class="c">#1</text><text x="17.034" y="1.67" class="d">■■■■■■■■■■■■■</text><text x="51.102" y="1.67" class="c">39%</text><text x="55.10999999999999" y="1.67" class="c">|</text><text x="57.114" y="1.67" class="c">ETA:</text><text x="63.12599999999999" y="1.67" class="c">3s</text></svg><svg x="1900"><use xlink:href="#a"></use><text x="0" y="1.67" class="c">Cleaning</text><text x="9.017999999999999" y="1.67" class="c">data</text><text x="14.027999999999999" y="1.67" class="c">#1</text><text x="17.034" y="1.67" class="d">■■■■■■■■■■■■■</text><text x="51.102" y="1.67" class="c">41%</text><text x="55.10999999999999" y="1.67" class="c">|</text><text x="57.114" y="1.67" class="c">ETA:</text><text x="63.12599999999999" y="1.67" class="c">2s</text></svg><svg x="2000"><use xlink:href="#a"></use><text x="0" y="1.67" class="c">Cleaning</text><text x="9.017999999999999" y="1.67" class="c">data</text><text x="14.027999999999999" y="1.67" class="c">#1</text><text x="17.034" y="1.67" class="d">■■■■■■■■■■■■■■</text><text x="51.102" y="1.67" class="c">44%</text><text x="55.10999999999999" y="1.67" class="c">|</text><text x="57.114" y="1.67" class="c">ETA:</text><text x="63.12599999999999" y="1.67" class="c">2s</text></svg><svg x="2100"><use xlink:href="#a"></use><text x="0" y="1.67" class="c">Cleaning</text><text x="9.017999999999999" y="1.67" class="c">data</text><text x="14.027999999999999" y="1.67" class="c">#1</text><text x="17.034" y="1.67" class="d">■■■■■■■■■■■■■■■</text><text x="51.102" y="1.67" class="c">46%</text><text x="55.10999999999999" y="1.67" class="c">|</text><text x="57.114" y="1.67" class="c">ETA:</text><text x="63.12599999999999" y="1.67" class="c">2s</text></svg><svg x="2200"><use xlink:href="#a"></use><text x="0" y="1.67" class="c">Cleaning</text><text x="9.017999999999999" y="1.67" class="c">data</text><text x="14.027999999999999" y="1.67" class="c">#1</text><text x="17.034" y="1.67" class="d">■■■■■■■■■■■■■■■■</text><text x="51.102" y="1.67" class="c">49%</text><text x="55.10999999999999" y="1.67" class="c">|</text><text x="57.114" y="1.67" class="c">ETA:</text><text x="63.12599999999999" y="1.67" class="c">2s</text></svg><svg x="2300"><use xlink:href="#a"></use><text x="0" y="1.67" class="c">Cleaning</text><text x="9.017999999999999" y="1.67" class="c">data</text><text x="14.027999999999999" y="1.67" class="c">#1</text><text x="17.034" y="1.67" class="d">■■■■■■■■■■■■■■■■■</text><text x="51.102" y="1.67" class="c">52%</text><text x="55.10999999999999" y="1.67" class="c">|</text><text x="57.114" y="1.67" class="c">ETA:</text><text x="63.12599999999999" y="1.67" class="c">2s</text></svg><svg x="2400"><use xlink:href="#a"></use><text x="0" y="1.67" class="c">Cleaning</text><text x="9.017999999999999" y="1.67" class="c">data</text><text x="14.027999999999999" y="1.67" class="c">#1</text><text x="17.034" y="1.67" class="d">■■■■■■■■■■■■■■■■■</text><text x="51.102" y="1.67" class="c">54%</text><text x="55.10999999999999" y="1.67" class="c">|</text><text x="57.114" y="1.67" class="c">ETA:</text><text x="63.12599999999999" y="1.67" class="c">2s</text></svg><svg x="2500"><use xlink:href="#a"></use><text x="0" y="1.67" class="c">Cleaning</text><text x="9.017999999999999" y="1.67" class="c">data</text><text x="14.027999999999999" y="1.67" class="c">#1</text><text x="17.034" y="1.67" class="d">■■■■■■■■■■■■■■■■■■</text><text x="51.102" y="1.67" class="c">57%</text><text x="55.10999999999999" y="1.67" class="c">|</text><text x="57.114" y="1.67" class="c">ETA:</text><text x="63.12599999999999" y="1.67" class="c">2s</text></svg><svg x="2600"><use xlink:href="#a"></use><text x="0" y="1.67" class="c">Cleaning</text><text x="9.017999999999999" y="1.67" class="c">data</text><text x="14.027999999999999" y="1.67" class="c">#1</text><text x="17.034" y="1.67" class="d">■■■■■■■■■■■■■■■■■■■</text><text x="51.102" y="1.67" class="c">60%</text><text x="55.10999999999999" y="1.67" class="c">|</text><text x="57.114" y="1.67" class="c">ETA:</text><text x="63.12599999999999" y="1.67" class="c">2s</text></svg><svg x="2700"><use xlink:href="#a"></use><text x="0" y="1.67" class="c">Cleaning</text><text x="9.017999999999999" y="1.67" class="c">data</text><text x="14.027999999999999" y="1.67" class="c">#1</text><text x="17.034" y="1.67" class="d">■■■■■■■■■■■■■■■■■■■■</text><text x="51.102" y="1.67" class="c">62%</text><text x="55.10999999999999" y="1.67" class="c">|</text><text x="57.114" y="1.67" class="c">ETA:</text><text x="63.12599999999999" y="1.67" class="c">2s</text></svg><svg x="2800"><use xlink:href="#a"></use><text x="0" y="1.67" class="c">Cleaning</text><text x="9.017999999999999" y="1.67" class="c">data</text><text x="14.027999999999999" y="1.67" class="c">#1</text><text x="17.034" y="1.67" class="d">■■■■■■■■■■■■■■■■■■■■■</text><text x="51.102" y="1.67" class="c">65%</text><text x="55.10999999999999" y="1.67" class="c">|</text><text x="57.114" y="1.67" class="c">ETA:</text><text x="63.12599999999999" y="1.67" class="c">1s</text></svg><svg x="2900"><use xlink:href="#a"></use><text x="0" y="1.67" class="c">Cleaning</text><text x="9.017999999999999" y="1.67" class="c">data</text><text x="14.027999999999999" y="1.67" class="c">#1</text><text x="17.034" y="1.67" class="d">■■■■■■■■■■■■■■■■■■■■■</text><text x="51.102" y="1.67" class="c">67%</text><text x="55.10999999999999" y="1.67" class="c">|</text><text x="57.114" y="1.67" class="c">ETA:</text><text x="63.12599999999999" y="1.67" class="c">1s</text></svg><svg x="3000"><use xlink:href="#a"></use><text x="0" y="1.67" class="c">Cleaning</text><text x="9.017999999999999" y="1.67" class="c">data</text><text x="14.027999999999999" y="1.67" class="c">#1</text><text x="17.034" y="1.67" class="d">■■■■■■■■■■■■■■■■■■■■■■</text><text x="51.102" y="1.67" class="c">70%</text><text x="55.10999999999999" y="1.67" class="c">|</text><text x="57.114" y="1.67" class="c">ETA:</text><text x="63.12599999999999" y="1.67" class="c">1s</text></svg><svg x="3100"><use xlink:href="#a"></use><text x="0" y="1.67" class="c">Cleaning</text><text x="9.017999999999999" y="1.67" class="c">data</text><text x="14.027999999999999" y="1.67" class="c">#1</text><text x="17.034" y="1.67" class="d">■■■■■■■■■■■■■■■■■■■■■■■</text><text x="51.102" y="1.67" class="c">73%</text><text x="55.10999999999999" y="1.67" class="c">|</text><text x="57.114" y="1.67" class="c">ETA:</text><text x="63.12599999999999" y="1.67" class="c">1s</text></svg><svg x="3200"><use xlink:href="#a"></use><text x="0" y="1.67" class="c">Cleaning</text><text x="9.017999999999999" y="1.67" class="c">data</text><text x="14.027999999999999" y="1.67" class="c">#1</text><text x="17.034" y="1.67" class="d">■■■■■■■■■■■■■■■■■■■■■■■</text><text x="51.102" y="1.67" class="c">75%</text><text x="55.10999999999999" y="1.67" class="c">|</text><text x="57.114" y="1.67" class="c">ETA:</text><text x="63.12599999999999" y="1.67" class="c">1s</text></svg><svg x="3300"><use xlink:href="#a"></use><text x="0" y="1.67" class="c">Cleaning</text><text x="9.017999999999999" y="1.67" class="c">data</text><text x="14.027999999999999" y="1.67" class="c">#1</text><text x="17.034" y="1.67" class="d">■■■■■■■■■■■■■■■■■■■■■■■■</text><text x="51.102" y="1.67" class="c">78%</text><text x="55.10999999999999" y="1.67" class="c">|</text><text x="57.114" y="1.67" class="c">ETA:</text><text x="63.12599999999999" y="1.67" class="c">1s</text></svg><svg x="3400"><use xlink:href="#a"></use><text x="0" y="1.67" class="c">Cleaning</text><text x="9.017999999999999" y="1.67" class="c">data</text><text x="14.027999999999999" y="1.67" class="c">#1</text><text x="17.034" y="1.67" class="d">■■■■■■■■■■■■■■■■■■■■■■■■■</text><text x="51.102" y="1.67" class="c">81%</text><text x="55.10999999999999" y="1.67" class="c">|</text><text x="57.114" y="1.67" class="c">ETA:</text><text x="63.12599999999999" y="1.67" class="c">1s</text></svg><svg x="3500"><use xlink:href="#a"></use><text x="0" y="1.67" class="c">Cleaning</text><text x="9.017999999999999" y="1.67" class="c">data</text><text x="14.027999999999999" y="1.67" class="c">#1</text><text x="17.034" y="1.67" class="d">■■■■■■■■■■■■■■■■■■■■■■■■■■</text><text x="51.102" y="1.67" class="c">83%</text><text x="55.10999999999999" y="1.67" class="c">|</text><text x="57.114" y="1.67" class="c">ETA:</text><text x="63.12599999999999" y="1.67" class="c">1s</text></svg><svg x="3600"><use xlink:href="#a"></use><text x="0" y="1.67" class="c">Cleaning</text><text x="9.017999999999999" y="1.67" class="c">data</text><text x="14.027999999999999" y="1.67" class="c">#1</text><text x="17.034" y="1.67" class="d">■■■■■■■■■■■■■■■■■■■■■■■■■■■</text><text x="51.102" y="1.67" class="c">85%</text><text x="55.10999999999999" y="1.67" class="c">|</text><text x="57.114" y="1.67" class="c">ETA:</text><text x="63.12599999999999" y="1.67" class="c">1s</text></svg><svg x="3700"><use xlink:href="#a"></use><text x="0" y="1.67" class="c">Cleaning</text><text x="9.017999999999999" y="1.67" class="c">data</text><text x="14.027999999999999" y="1.67" class="c">#1</text><text x="17.034" y="1.67" class="d">■■■■■■■■■■■■■■■■■■■■■■■■■■■</text><text x="51.102" y="1.67" class="c">88%</text><text x="55.10999999999999" y="1.67" class="c">|</text><text x="57.114" y="1.67" class="c">ETA:</text><text x="63.12599999999999" y="1.67" class="c">0s</text></svg><svg x="3800"><use xlink:href="#a"></use><text x="0" y="1.67" class="c">Cleaning</text><text x="9.017999999999999" y="1.67" class="c">data</text><text x="14.027999999999999" y="1.67" class="c">#1</text><text x="17.034" y="1.67" class="d">■■■■■■■■■■■■■■■■■■■■■■■■■■■■</text><text x="51.102" y="1.67" class="c">90%</text><text x="55.10999999999999" y="1.67" class="c">|</text><text x="57.114" y="1.67" class="c">ETA:</text><text x="63.12599999999999" y="1.67" class="c">0s</text></svg><svg x="3900"><use xlink:href="#a"></use><text x="0" y="1.67" class="c">Cleaning</text><text x="9.017999999999999" y="1.67" class="c">data</text><text x="14.027999999999999" y="1.67" class="c">#1</text><text x="17.034" y="1.67" class="d">■■■■■■■■■■■■■■■■■■■■■■■■■■■■■</text><text x="51.102" y="1.67" class="c">93%</text><text x="55.10999999999999" y="1.67" class="c">|</text><text x="57.114" y="1.67" class="c">ETA:</text><text x="63.12599999999999" y="1.67" class="c">0s</text></svg><svg x="4000"><use xlink:href="#a"></use><text x="0" y="1.67" class="c">Cleaning</text><text x="9.017999999999999" y="1.67" class="c">data</text><text x="14.027999999999999" y="1.67" class="c">#1</text><text x="17.034" y="1.67" class="d">■■■■■■■■■■■■■■■■■■■■■■■■■■■■■</text><text x="51.102" y="1.67" class="c">95%</text><text x="55.10999999999999" y="1.67" class="c">|</text><text x="57.114" y="1.67" class="c">ETA:</text><text x="63.12599999999999" y="1.67" class="c">0s</text></svg><svg x="4100"><use xlink:href="#a"></use><text x="0" y="1.67" class="c">Cleaning</text><text x="9.017999999999999" y="1.67" class="c">data</text><text x="14.027999999999999" y="1.67" class="c">#1</text><text x="17.034" y="1.67" class="d">■■■■■■■■■■■■■■■■■■■■■■■■■■■■■■</text><text x="51.102" y="1.67" class="c">98%</text><text x="55.10999999999999" y="1.67" class="c">|</text><text x="57.114" y="1.67" class="c">ETA:</text><text x="63.12599999999999" y="1.67" class="c">0s</text></svg><svg x="4200"><use xlink:href="#a"></use><use xlink:href="#1" y="0"></use></svg><svg x="4300"><use xlink:href="#a"></use><use xlink:href="#1" y="0"></use></svg><svg x="4400"><use xlink:href="#a"></use><use xlink:href="#1" y="0"></use><text x="0" y="3.8409999999999997" class="c">Cleaning</text><text x="9.017999999999999" y="3.8409999999999997" class="c">data</text><text x="14.027999999999999" y="3.8409999999999997" class="c">#2</text><text x="17.034" y="3.8409999999999997" class="d">■</text><text x="52.104" y="3.8409999999999997" class="c">1%</text><text x="55.10999999999999" y="3.8409999999999997" class="c">|</text><text x="57.114" y="3.8409999999999997" class="c">ETA:</text><text x="63.12599999999999" y="3.8409999999999997" class="c">4s</text></svg><svg x="4500"><use xlink:href="#a"></use><use xlink:href="#1" y="0"></use><text x="0" y="3.8409999999999997" class="c">Cleaning</text><text x="9.017999999999999" y="3.8409999999999997" class="c">data</text><text x="14.027999999999999" y="3.8409999999999997" class="c">#2</text><text x="17.034" y="3.8409999999999997" class="d">■■</text><text x="52.104" y="3.8409999999999997" class="c">3%</text><text x="55.10999999999999" y="3.8409999999999997" class="c">|</text><text x="57.114" y="3.8409999999999997" class="c">ETA:</text><text x="63.12599999999999" y="3.8409999999999997" class="c">4s</text></svg><svg x="4600"><use xlink:href="#a"></use><use xlink:href="#1" y="0"></use><text x="0" y="3.8409999999999997" class="c">Cleaning</text><text x="9.017999999999999" y="3.8409999999999997" class="c">data</text><text x="14.027999999999999" y="3.8409999999999997" class="c">#2</text><text x="17.034" y="3.8409999999999997" class="d">■■■</text><text x="52.104" y="3.8409999999999997" class="c">6%</text><text x="55.10999999999999" y="3.8409999999999997" class="c">|</text><text x="57.114" y="3.8409999999999997" class="c">ETA:</text><text x="63.12599999999999" y="3.8409999999999997" class="c">4s</text></svg><svg x="4700"><use xlink:href="#a"></use><use xlink:href="#1" y="0"></use><text x="0" y="3.8409999999999997" class="c">Cleaning</text><text x="9.017999999999999" y="3.8409999999999997" class="c">data</text><text x="14.027999999999999" y="3.8409999999999997" class="c">#2</text><text x="17.034" y="3.8409999999999997" class="d">■■■</text><text x="52.104" y="3.8409999999999997" class="c">8%</text><text x="55.10999999999999" y="3.8409999999999997" class="c">|</text><text x="57.114" y="3.8409999999999997" class="c">ETA:</text><text x="63.12599999999999" y="3.8409999999999997" class="c">4s</text></svg><svg x="4800"><use xlink:href="#a"></use><use xlink:href="#1" y="0"></use><text x="0" y="3.8409999999999997" class="c">Cleaning</text><text x="9.017999999999999" y="3.8409999999999997" class="c">data</text><text x="14.027999999999999" y="3.8409999999999997" class="c">#2</text><text x="17.034" y="3.8409999999999997" class="d">■■■■</text><text x="51.102" y="3.8409999999999997" class="c">11%</text><text x="55.10999999999999" y="3.8409999999999997" class="c">|</text><text x="57.114" y="3.8409999999999997" class="c">ETA:</text><text x="63.12599999999999" y="3.8409999999999997" class="c">4s</text></svg><svg x="4900"><use xlink:href="#a"></use><use xlink:href="#1" y="0"></use><text x="0" y="3.8409999999999997" class="c">Cleaning</text><text x="9.017999999999999" y="3.8409999999999997" class="c">data</text><text x="14.027999999999999" y="3.8409999999999997" class="c">#2</text><text x="17.034" y="3.8409999999999997" class="d">■■■■■</text><text x="51.102" y="3.8409999999999997" class="c">14%</text><text x="55.10999999999999" y="3.8409999999999997" class="c">|</text><text x="57.114" y="3.8409999999999997" class="c">ETA:</text><text x="63.12599999999999" y="3.8409999999999997" class="c">4s</text></svg><svg x="5000"><use xlink:href="#a"></use><use xlink:href="#1" y="0"></use><text x="0" y="3.8409999999999997" class="c">Cleaning</text><text x="9.017999999999999" y="3.8409999999999997" class="c">data</text><text x="14.027999999999999" y="3.8409999999999997" class="c">#2</text><text x="17.034" y="3.8409999999999997" class="d">■■■■■■</text><text x="51.102" y="3.8409999999999997" class="c">16%</text><text x="55.10999999999999" y="3.8409999999999997" class="c">|</text><text x="57.114" y="3.8409999999999997" class="c">ETA:</text><text x="63.12599999999999" y="3.8409999999999997" class="c">4s</text></svg><svg x="5100"><use xlink:href="#a"></use><use xlink:href="#1" y="0"></use><text x="0" y="3.8409999999999997" class="c">Cleaning</text><text x="9.017999999999999" y="3.8409999999999997" class="c">data</text><text x="14.027999999999999" y="3.8409999999999997" class="c">#2</text><text x="17.034" y="3.8409999999999997" class="d">■■■■■■■</text><text x="51.102" y="3.8409999999999997" class="c">19%</text><text x="55.10999999999999" y="3.8409999999999997" class="c">|</text><text x="57.114" y="3.8409999999999997" class="c">ETA:</text><text x="63.12599999999999" y="3.8409999999999997" class="c">3s</text></svg><svg x="5200"><use xlink:href="#a"></use><use xlink:href="#1" y="0"></use><text x="0" y="3.8409999999999997" class="c">Cleaning</text><text x="9.017999999999999" y="3.8409999999999997" class="c">data</text><text x="14.027999999999999" y="3.8409999999999997" class="c">#2</text><text x="17.034" y="3.8409999999999997" class="d">■■■■■■■</text><text x="51.102" y="3.8409999999999997" class="c">21%</text><text x="55.10999999999999" y="3.8409999999999997" class="c">|</text><text x="57.114" y="3.8409999999999997" class="c">ETA:</text><text x="63.12599999999999" y="3.8409999999999997" class="c">3s</text></svg><svg x="5300"><use xlink:href="#a"></use><use xlink:href="#1" y="0"></use><text x="0" y="3.8409999999999997" class="c">Cleaning</text><text x="9.017999999999999" y="3.8409999999999997" class="c">data</text><text x="14.027999999999999" y="3.8409999999999997" class="c">#2</text><text x="17.034" y="3.8409999999999997" class="d">■■■■■■■■</text><text x="51.102" y="3.8409999999999997" class="c">24%</text><text x="55.10999999999999" y="3.8409999999999997" class="c">|</text><text x="57.114" y="3.8409999999999997" class="c">ETA:</text><text x="63.12599999999999" y="3.8409999999999997" class="c">3s</text></svg><svg x="5400"><use xlink:href="#a"></use><use xlink:href="#1" y="0"></use><text x="0" y="3.8409999999999997" class="c">Cleaning</text><text x="9.017999999999999" y="3.8409999999999997" class="c">data</text><text x="14.027999999999999" y="3.8409999999999997" class="c">#2</text><text x="17.034" y="3.8409999999999997" class="d">■■■■■■■■■</text><text x="51.102" y="3.8409999999999997" class="c">26%</text><text x="55.10999999999999" y="3.8409999999999997" class="c">|</text><text x="57.114" y="3.8409999999999997" class="c">ETA:</text><text x="63.12599999999999" y="3.8409999999999997" class="c">3s</text></svg><svg x="5500"><use xlink:href="#a"></use><use xlink:href="#1" y="0"></use><text x="0" y="3.8409999999999997" class="c">Cleaning</text><text x="9.017999999999999" y="3.8409999999999997" class="c">data</text><text x="14.027999999999999" y="3.8409999999999997" class="c">#2</text><text x="17.034" y="3.8409999999999997" class="d">■■■■■■■■■■</text><text x="51.102" y="3.8409999999999997" class="c">29%</text><text x="55.10999999999999" y="3.8409999999999997" class="c">|</text><text x="57.114" y="3.8409999999999997" class="c">ETA:</text><text x="63.12599999999999" y="3.8409999999999997" class="c">3s</text></svg><svg x="5600"><use xlink:href="#a"></use><use xlink:href="#1" y="0"></use><text x="0" y="3.8409999999999997" class="c">Cleaning</text><text x="9.017999999999999" y="3.8409999999999997" class="c">data</text><text x="14.027999999999999" y="3.8409999999999997" class="c">#2</text><text x="17.034" y="3.8409999999999997" class="d">■■■■■■■■■■</text><text x="51.102" y="3.8409999999999997" class="c">31%</text><text x="55.10999999999999" y="3.8409999999999997" class="c">|</text><text x="57.114" y="3.8409999999999997" class="c">ETA:</text><text x="63.12599999999999" y="3.8409999999999997" class="c">3s</text></svg><svg x="5700"><use xlink:href="#a"></use><use xlink:href="#1" y="0"></use><text x="0" y="3.8409999999999997" class="c">Cleaning</text><text x="9.017999999999999" y="3.8409999999999997" class="c">data</text><text x="14.027999999999999" y="3.8409999999999997" class="c">#2</text><text x="17.034" y="3.8409999999999997" class="d">■■■■■■■■■■■</text><text x="51.102" y="3.8409999999999997" class="c">34%</text><text x="55.10999999999999" y="3.8409999999999997" class="c">|</text><text x="57.114" y="3.8409999999999997" class="c">ETA:</text><text x="63.12599999999999" y="3.8409999999999997" class="c">3s</text></svg><svg x="5800"><use xlink:href="#a"></use><use xlink:href="#1" y="0"></use><text x="0" y="3.8409999999999997" class="c">Cleaning</text><text x="9.017999999999999" y="3.8409999999999997" class="c">data</text><text x="14.027999999999999" y="3.8409999999999997" class="c">#2</text><text x="17.034" y="3.8409999999999997" class="d">■■■■■■■■■■■■</text><text x="51.102" y="3.8409999999999997" class="c">37%</text><text x="55.10999999999999" y="3.8409999999999997" class="c">|</text><text x="57.114" y="3.8409999999999997" class="c">ETA:</text><text x="63.12599999999999" y="3.8409999999999997" class="c">3s</text></svg><svg x="5900"><use xlink:href="#a"></use><use xlink:href="#1" y="0"></use><text x="0" y="3.8409999999999997" class="c">Cleaning</text><text x="9.017999999999999" y="3.8409999999999997" class="c">data</text><text x="14.027999999999999" y="3.8409999999999997" class="c">#2</text><text x="17.034" y="3.8409999999999997" class="d">■■■■■■■■■■■■■</text><text x="51.102" y="3.8409999999999997" class="c">39%</text><text x="55.10999999999999" y="3.8409999999999997" class="c">|</text><text x="57.114" y="3.8409999999999997" class="c">ETA:</text><text x="63.12599999999999" y="3.8409999999999997" class="c">3s</text></svg><svg x="6000"><use xlink:href="#a"></use><use xlink:href="#1" y="0"></use><text x="0" y="3.8409999999999997" class="c">Cleaning</text><text x="9.017999999999999" y="3.8409999999999997" class="c">data</text><text x="14.027999999999999" y="3.8409999999999997" class="c">#2</text><text x="17.034" y="3.8409999999999997" class="d">■■■■■■■■■■■■■</text><text x="51.102" y="3.8409999999999997" class="c">41%</text><text x="55.10999999999999" y="3.8409999999999997" class="c">|</text><text x="57.114" y="3.8409999999999997" class="c">ETA:</text><text x="63.12599999999999" y="3.8409999999999997" class="c">2s</text></svg><svg x="6100"><use xlink:href="#a"></use><use xlink:href="#1" y="0"></use><text x="0" y="3.8409999999999997" class="c">Cleaning</text><text x="9.017999999999999" y="3.8409999999999997" class="c">data</text><text x="14.027999999999999" y="3.8409999999999997" class="c">#2</text><text x="17.034" y="3.8409999999999997" class="d">■■■■■■■■■■■■■■</text><text x="51.102" y="3.8409999999999997" class="c">44%</text><text x="55.10999999999999" y="3.8409999999999997" class="c">|</text><text x="57.114" y="3.8409999999999997" class="c">ETA:</text><text x="63.12599999999999" y="3.8409999999999997" class="c">2s</text></svg><svg x="6200"><use xlink:href="#a"></use><use xlink:href="#1" y="0"></use><text x="0" y="3.8409999999999997" class="c">Cleaning</text><text x="9.017999999999999" y="3.8409999999999997" class="c">data</text><text x="14.027999999999999" y="3.8409999999999997" class="c">#2</text><text x="17.034" y="3.8409999999999997" class="d">■■■■■■■■■■■■■■■</text><text x="51.102" y="3.8409999999999997" class="c">46%</text><text x="55.10999999999999" y="3.8409999999999997" class="c">|</text><text x="57.114" y="3.8409999999999997" class="c">ETA:</text><text x="63.12599999999999" y="3.8409999999999997" class="c">2s</text></svg><svg x="6300"><use xlink:href="#a"></use><use xlink:href="#1" y="0"></use><text x="0" y="3.8409999999999997" class="c">Cleaning</text><text x="9.017999999999999" y="3.8409999999999997" class="c">data</text><text x="14.027999999999999" y="3.8409999999999997" class="c">#2</text><text x="17.034" y="3.8409999999999997" class="d">■■■■■■■■■■■■■■■■</text><text x="51.102" y="3.8409999999999997" class="c">49%</text><text x="55.10999999999999" y="3.8409999999999997" class="c">|</text><text x="57.114" y="3.8409999999999997" class="c">ETA:</text><text x="63.12599999999999" y="3.8409999999999997" class="c">2s</text></svg><svg x="6400"><use xlink:href="#a"></use><use xlink:href="#1" y="0"></use><text x="0" y="3.8409999999999997" class="c">Cleaning</text><text x="9.017999999999999" y="3.8409999999999997" class="c">data</text><text x="14.027999999999999" y="3.8409999999999997" class="c">#2</text><text x="17.034" y="3.8409999999999997" class="d">■■■■■■■■■■■■■■■■</text><text x="51.102" y="3.8409999999999997" class="c">51%</text><text x="55.10999999999999" y="3.8409999999999997" class="c">|</text><text x="57.114" y="3.8409999999999997" class="c">ETA:</text><text x="63.12599999999999" y="3.8409999999999997" class="c">2s</text></svg><svg x="6500"><use xlink:href="#a"></use><use xlink:href="#1" y="0"></use><text x="0" y="3.8409999999999997" class="c">Cleaning</text><text x="9.017999999999999" y="3.8409999999999997" class="c">data</text><text x="14.027999999999999" y="3.8409999999999997" class="c">#2</text><text x="17.034" y="3.8409999999999997" class="d">■■■■■■■■■■■■■■■■■</text><text x="51.102" y="3.8409999999999997" class="c">54%</text><text x="55.10999999999999" y="3.8409999999999997" class="c">|</text><text x="57.114" y="3.8409999999999997" class="c">ETA:</text><text x="63.12599999999999" y="3.8409999999999997" class="c">2s</text></svg><svg x="6600"><use xlink:href="#a"></use><use xlink:href="#1" y="0"></use><text x="0" y="3.8409999999999997" class="c">Cleaning</text><text x="9.017999999999999" y="3.8409999999999997" class="c">data</text><text x="14.027999999999999" y="3.8409999999999997" class="c">#2</text><text x="17.034" y="3.8409999999999997" class="d">■■■■■■■■■■■■■■■■■■</text><text x="51.102" y="3.8409999999999997" class="c">57%</text><text x="55.10999999999999" y="3.8409999999999997" class="c">|</text><text x="57.114" y="3.8409999999999997" class="c">ETA:</text><text x="63.12599999999999" y="3.8409999999999997" class="c">2s</text></svg><svg x="6700"><use xlink:href="#a"></use><use xlink:href="#1" y="0"></use><text x="0" y="3.8409999999999997" class="c">Cleaning</text><text x="9.017999999999999" y="3.8409999999999997" class="c">data</text><text x="14.027999999999999" y="3.8409999999999997" class="c">#2</text><text x="17.034" y="3.8409999999999997" class="d">■■■■■■■■■■■■■■■■■■■</text><text x="51.102" y="3.8409999999999997" class="c">59%</text><text x="55.10999999999999" y="3.8409999999999997" class="c">|</text><text x="57.114" y="3.8409999999999997" class="c">ETA:</text><text x="63.12599999999999" y="3.8409999999999997" class="c">2s</text></svg><svg x="6800"><use xlink:href="#a"></use><use xlink:href="#1" y="0"></use><text x="0" y="3.8409999999999997" class="c">Cleaning</text><text x="9.017999999999999" y="3.8409999999999997" class="c">data</text><text x="14.027999999999999" y="3.8409999999999997" class="c">#2</text><text x="17.034" y="3.8409999999999997" class="d">■■■■■■■■■■■■■■■■■■■■</text><text x="51.102" y="3.8409999999999997" class="c">62%</text><text x="55.10999999999999" y="3.8409999999999997" class="c">|</text><text x="57.114" y="3.8409999999999997" class="c">ETA:</text><text x="63.12599999999999" y="3.8409999999999997" class="c">2s</text></svg><svg x="6900"><use xlink:href="#a"></use><use xlink:href="#1" y="0"></use><text x="0" y="3.8409999999999997" class="c">Cleaning</text><text x="9.017999999999999" y="3.8409999999999997" class="c">data</text><text x="14.027999999999999" y="3.8409999999999997" class="c">#2</text><text x="17.034" y="3.8409999999999997" class="d">■■■■■■■■■■■■■■■■■■■■</text><text x="51.102" y="3.8409999999999997" class="c">64%</text><text x="55.10999999999999" y="3.8409999999999997" class="c">|</text><text x="57.114" y="3.8409999999999997" class="c">ETA:</text><text x="63.12599999999999" y="3.8409999999999997" class="c">2s</text></svg><svg x="7000"><use xlink:href="#a"></use><use xlink:href="#1" y="0"></use><text x="0" y="3.8409999999999997" class="c">Cleaning</text><text x="9.017999999999999" y="3.8409999999999997" class="c">data</text><text x="14.027999999999999" y="3.8409999999999997" class="c">#2</text><text x="17.034" y="3.8409999999999997" class="d">■■■■■■■■■■■■■■■■■■■■■</text><text x="51.102" y="3.8409999999999997" class="c">67%</text><text x="55.10999999999999" y="3.8409999999999997" class="c">|</text><text x="57.114" y="3.8409999999999997" class="c">ETA:</text><text x="63.12599999999999" y="3.8409999999999997" class="c">1s</text></svg><svg x="7100"><use xlink:href="#a"></use><use xlink:href="#1" y="0"></use><text x="0" y="3.8409999999999997" class="c">Cleaning</text><text x="9.017999999999999" y="3.8409999999999997" class="c">data</text><text x="14.027999999999999" y="3.8409999999999997" class="c">#2</text><text x="17.034" y="3.8409999999999997" class="d">■■■■■■■■■■■■■■■■■■■■■■</text><text x="51.102" y="3.8409999999999997" class="c">69%</text><text x="55.10999999999999" y="3.8409999999999997" class="c">|</text><text x="57.114" y="3.8409999999999997" class="c">ETA:</text><text x="63.12599999999999" y="3.8409999999999997" class="c">1s</text></svg><svg x="7200"><use xlink:href="#a"></use><use xlink:href="#1" y="0"></use><text x="0" y="3.8409999999999997" class="c">Cleaning</text><text x="9.017999999999999" y="3.8409999999999997" class="c">data</text><text x="14.027999999999999" y="3.8409999999999997" class="c">#2</text><text x="17.034" y="3.8409999999999997" class="d">■■■■■■■■■■■■■■■■■■■■■■■</text><text x="51.102" y="3.8409999999999997" class="c">72%</text><text x="55.10999999999999" y="3.8409999999999997" class="c">|</text><text x="57.114" y="3.8409999999999997" class="c">ETA:</text><text x="63.12599999999999" y="3.8409999999999997" class="c">1s</text></svg><svg x="7300"><use xlink:href="#a"></use><use xlink:href="#1" y="0"></use><text x="0" y="3.8409999999999997" class="c">Cleaning</text><text x="9.017999999999999" y="3.8409999999999997" class="c">data</text><text x="14.027999999999999" y="3.8409999999999997" class="c">#2</text><text x="17.034" y="3.8409999999999997" class="d">■■■■■■■■■■■■■■■■■■■■■■■</text><text x="51.102" y="3.8409999999999997" class="c">75%</text><text x="55.10999999999999" y="3.8409999999999997" class="c">|</text><text x="57.114" y="3.8409999999999997" class="c">ETA:</text><text x="63.12599999999999" y="3.8409999999999997" class="c">1s</text></svg><svg x="7400"><use xlink:href="#a"></use><use xlink:href="#1" y="0"></use><text x="0" y="3.8409999999999997" class="c">Cleaning</text><text x="9.017999999999999" y="3.8409999999999997" class="c">data</text><text x="14.027999999999999" y="3.8409999999999997" class="c">#2</text><text x="17.034" y="3.8409999999999997" class="d">■■■■■■■■■■■■■■■■■■■■■■■■</text><text x="51.102" y="3.8409999999999997" class="c">77%</text><text x="55.10999999999999" y="3.8409999999999997" class="c">|</text><text x="57.114" y="3.8409999999999997" class="c">ETA:</text><text x="63.12599999999999" y="3.8409999999999997" class="c">1s</text></svg><svg x="7500"><use xlink:href="#a"></use><use xlink:href="#1" y="0"></use><text x="0" y="3.8409999999999997" class="c">Cleaning</text><text x="9.017999999999999" y="3.8409999999999997" class="c">data</text><text x="14.027999999999999" y="3.8409999999999997" class="c">#2</text><text x="17.034" y="3.8409999999999997" class="d">■■■■■■■■■■■■■■■■■■■■■■■■■</text><text x="51.102" y="3.8409999999999997" class="c">80%</text><text x="55.10999999999999" y="3.8409999999999997" class="c">|</text><text x="57.114" y="3.8409999999999997" class="c">ETA:</text><text x="63.12599999999999" y="3.8409999999999997" class="c">1s</text></svg><svg x="7600"><use xlink:href="#a"></use><use xlink:href="#1" y="0"></use><text x="0" y="3.8409999999999997" class="c">Cleaning</text><text x="9.017999999999999" y="3.8409999999999997" class="c">data</text><text x="14.027999999999999" y="3.8409999999999997" class="c">#2</text><text x="17.034" y="3.8409999999999997" class="d">■■■■■■■■■■■■■■■■■■■■■■■■■■</text><text x="51.102" y="3.8409999999999997" class="c">82%</text><text x="55.10999999999999" y="3.8409999999999997" class="c">|</text><text x="57.114" y="3.8409999999999997" class="c">ETA:</text><text x="63.12599999999999" y="3.8409999999999997" class="c">1s</text></svg><svg x="7700"><use xlink:href="#a"></use><use xlink:href="#1" y="0"></use><text x="0" y="3.8409999999999997" class="c">Cleaning</text><text x="9.017999999999999" y="3.8409999999999997" class="c">data</text><text x="14.027999999999999" y="3.8409999999999997" class="c">#2</text><text x="17.034" y="3.8409999999999997" class="d">■■■■■■■■■■■■■■■■■■■■■■■■■■■</text><text x="51.102" y="3.8409999999999997" class="c">85%</text><text x="55.10999999999999" y="3.8409999999999997" class="c">|</text><text x="57.114" y="3.8409999999999997" class="c">ETA:</text><text x="63.12599999999999" y="3.8409999999999997" class="c">1s</text></svg><svg x="7800"><use xlink:href="#a"></use><use xlink:href="#1" y="0"></use><text x="0" y="3.8409999999999997" class="c">Cleaning</text><text x="9.017999999999999" y="3.8409999999999997" class="c">data</text><text x="14.027999999999999" y="3.8409999999999997" class="c">#2</text><text x="17.034" y="3.8409999999999997" class="d">■■■■■■■■■■■■■■■■■■■■■■■■■■■</text><text x="51.102" y="3.8409999999999997" class="c">88%</text><text x="55.10999999999999" y="3.8409999999999997" class="c">|</text><text x="57.114" y="3.8409999999999997" class="c">ETA:</text><text x="63.12599999999999" y="3.8409999999999997" class="c">1s</text></svg><svg x="7900"><use xlink:href="#a"></use><use xlink:href="#1" y="0"></use><text x="0" y="3.8409999999999997" class="c">Cleaning</text><text x="9.017999999999999" y="3.8409999999999997" class="c">data</text><text x="14.027999999999999" y="3.8409999999999997" class="c">#2</text><text x="17.034" y="3.8409999999999997" class="d">■■■■■■■■■■■■■■■■■■■■■■■■■■■■</text><text x="51.102" y="3.8409999999999997" class="c">90%</text><text x="55.10999999999999" y="3.8409999999999997" class="c">|</text><text x="57.114" y="3.8409999999999997" class="c">ETA:</text><text x="63.12599999999999" y="3.8409999999999997" class="c">0s</text></svg><svg x="8000"><use xlink:href="#a"></use><use xlink:href="#1" y="0"></use><text x="0" y="3.8409999999999997" class="c">Cleaning</text><text x="9.017999999999999" y="3.8409999999999997" class="c">data</text><text x="14.027999999999999" y="3.8409999999999997" class="c">#2</text><text x="17.034" y="3.8409999999999997" class="d">■■■■■■■■■■■■■■■■■■■■■■■■■■■■■</text><text x="51.102" y="3.8409999999999997" class="c">93%</text><text x="55.10999999999999" y="3.8409999999999997" class="c">|</text><text x="57.114" y="3.8409999999999997" class="c">ETA:</text><text x="63.12599999999999" y="3.8409999999999997" class="c">0s</text></svg><svg x="8100"><use xlink:href="#a"></use><use xlink:href="#1" y="0"></use><text x="0" y="3.8409999999999997" class="c">Cleaning</text><text x="9.017999999999999" y="3.8409999999999997" class="c">data</text><text x="14.027999999999999" y="3.8409999999999997" class="c">#2</text><text x="17.034" y="3.8409999999999997" class="d">■■■■■■■■■■■■■■■■■■■■■■■■■■■■■</text><text x="51.102" y="3.8409999999999997" class="c">95%</text><text x="55.10999999999999" y="3.8409999999999997" class="c">|</text><text x="57.114" y="3.8409999999999997" class="c">ETA:</text><text x="63.12599999999999" y="3.8409999999999997" class="c">0s</text></svg><svg x="8200"><use xlink:href="#a"></use><use xlink:href="#1" y="0"></use><text x="0" y="3.8409999999999997" class="c">Cleaning</text><text x="9.017999999999999" y="3.8409999999999997" class="c">data</text><text x="14.027999999999999" y="3.8409999999999997" class="c">#2</text><text x="17.034" y="3.8409999999999997" class="d">■■■■■■■■■■■■■■■■■■■■■■■■■■■■■■</text><text x="51.102" y="3.8409999999999997" class="c">98%</text><text x="55.10999999999999" y="3.8409999999999997" class="c">|</text><text x="57.114" y="3.8409999999999997" class="c">ETA:</text><text x="63.12599999999999" y="3.8409999999999997" class="c">0s</text></svg><svg x="8300"><use xlink:href="#a"></use><use xlink:href="#1" y="0"></use><use xlink:href="#2" y="2.171"></use></svg><svg x="8400"><use xlink:href="#a"></use><use xlink:href="#1" y="0"></use><use xlink:href="#2" y="2.171"></use></svg><svg x="8500"><use xlink:href="#a"></use><use xlink:href="#1" y="0"></use><use xlink:href="#2" y="2.171"></use></svg></svg></g></g></svg></svg>