<svg xmlns="http://www.w3.org/2000/svg" xmlns:xlink="http://www.w3.org/1999/xlink" width="1040" height="61.709999999999994"><rect width="1040" height="61.709999999999994" rx="0" ry="0" class="a"></rect><svg height="21.709999999999997" viewBox="0 0 100 2.171" width="1000" x="20" xmlns="http://www.w3.org/2000/svg" xmlns:xlink="http://www.w3.org/1999/xlink" y="20"><style>.a{fill:rgb(40,45,53)}.b{font-family:'Fira Code',Monaco,Consolas,Menlo,'Bitstream Vera Sans Mono','Powerline Symbols',monospace}.c{fill:rgb(185,192,203);white-space:pre}.d{fill:transparent}.f{animation-duration:9.5177788734436s;animation-iteration-count:infinite;animation-name:e;animation-timing-function:steps(1,end)}@keyframes e{0%{transform:translateX(-0px)}0.1%{transform:translateX(-100px)}1.5%{transform:translateX(-200px)}1.6%{transform:translateX(-300px)}2.7%{transform:translateX(-400px)}3.8%{transform:translateX(-500px)}4.9%{transform:translateX(-600px)}6%{transform:translateX(-700px)}7%{transform:translateX(-800px)}8.1%{transform:translateX(-900px)}9.1%{transform:translateX(-1000px)}10.3%{transform:translateX(-1100px)}11.4%{transform:translateX(-1200px)}12.4%{transform:translateX(-1300px)}13.5%{transform:translateX(-1400px)}14.6%{transform:translateX(-1500px)}15.7%{transform:translateX(-1600px)}16.7%{transform:translateX(-1700px)}17.9%{transform:translateX(-1800px)}18.9%{transform:translateX(-1900px)}20%{transform:translateX(-2000px)}21.1%{transform:translateX(-2100px)}22%{transform:translateX(-2200px)}23.2%{transform:translateX(-2300px)}24.2%{transform:translateX(-2400px)}25.3%{transform:translateX(-2500px)}26.3%{transform:translateX(-2600px)}27.4%{transform:translateX(-2700px)}28.5%{transform:translateX(-2800px)}29.7%{transform:translateX(-2900px)}30.6%{transform:translateX(-3000px)}31.8%{transform:translateX(-3100px)}32.8%{transform:translateX(-3200px)}33.9%{transform:translateX(-3300px)}35.1%{transform:translateX(-3400px)}36.2%{transform:translateX(-3500px)}37.3%{transform:translateX(-3600px)}38.3%{transform:translateX(-3700px)}39.4%{transform:translateX(-3800px)}40.5%{transform:translateX(-3900px)}41.6%{transform:translateX(-4000px)}42.7%{transform:translateX(-4100px)}43.6%{transform:translateX(-4200px)}44.7%{transform:translateX(-4300px)}45.8%{transform:translateX(-4400px)}47%{transform:translateX(-4500px)}48%{transform:translateX(-4600px)}49%{transform:translateX(-4700px)}50.1%{transform:translateX(-4800px)}51.1%{transform:translateX(-4900px)}52.3%{transform:translateX(-5000px)}53.3%{transform:translateX(-5100px)}54.4%{transform:translateX(-5200px)}55.6%{transform:translateX(-5300px)}56.6%{transform:translateX(-5400px)}57.6%{transform:translateX(-5500px)}58.7%{transform:translateX(-5600px)}59.7%{transform:translateX(-5700px)}60.7%{transform:translateX(-5800px)}61.9%{transform:translateX(-5900px)}62.9%{transform:translateX(-6000px)}64%{transform:translateX(-6100px)}65.1%{transform:translateX(-6200px)}66.2%{transform:translateX(-6300px)}67.2%{transform:translateX(-6400px)}67.3%{transform:translateX(-6500px)}67.4%{transform:translateX(-6600px)}67.4%{transform:translateX(-6700px)}100%{transform:translateX(-6800px)}}</style><g font-family="&#x27;Fira Code&#x27;,Monaco,Consolas,Menlo,&#x27;Bitstream Vera Sans Mono&#x27;,&#x27;Powerline Symbols&#x27;,monospace" font-size="1.67" class="b"><defs><symbol id="1"><text x="0" y="1.67" class="c">⠸</text><text x="2.004" y="1.67" class="c">Walking</text><text x="10.02" y="1.67" class="c">directories</text><text x="22.043999999999997" y="1.67" class="c">463</text><text x="26.052" y="1.67" class="c">done</text><text x="31.061999999999998" y="1.67" class="c">(74/s)</text><text x="38.07599999999999" y="1.67" class="c">|</text><text x="40.08" y="1.67" class="c">6.3s</text></symbol><symbol id="a"><rect height="2" width="100" x="0" y="0" class="d"></rect></symbol></defs><rect height="2.171" width="100" class="a"></rect><g class="f"><svg x="0" y="0" width="6900"><svg x="0"><use xlink:href="#a"></use></svg><svg x="100"><use xlink:href="#a"></use></svg><svg x="200"><use xlink:href="#a"></use></svg><svg x="300"><use xlink:href="#a"></use><text x="0" y="1.67" class="c">⠙</text><text x="2.004" y="1.67" class="c">Walking</text><text x="10.02" y="1.67" class="c">directories</text><text x="22.043999999999997" y="1.67" class="c">1</text><text x="24.048" y="1.67" class="c">done</text><text x="29.058" y="1.67" class="c">(57/s)</text><text x="36.071999999999996" y="1.67" class="c">|</text><text x="38.07599999999999" y="1.67" class="c">18ms</text></svg><svg x="400"><use xlink:href="#a"></use><text x="0" y="1.67" class="c">⠹</text><text x="2.004" y="1.67" class="c">Walking</text><text x="10.02" y="1.67" class="c">directories</text><text x="22.043999999999997" y="1.67" class="c">9</text><text x="24.048" y="1.67" class="c">done</text><text x="29.058" y="1.67" class="c">(71/s)</text><text x="36.071999999999996" y="1.67" class="c">|</text><text x="38.07599999999999" y="1.67" class="c">127ms</text></svg><svg x="500"><use xlink:href="#a"></use><text x="0" y="1.67" class="c">⠸</text><text x="2.004" y="1.67" class="c">Walking</text><text x="10.02" y="1.67" class="c">directories</text><text x="22.043999999999997" y="1.67" class="c">16</text><text x="25.05" y="1.67" class="c">done</text><text x="30.059999999999995" y="1.67" class="c">(72/s)</text><text x="37.074" y="1.67" class="c">|</text><text x="39.077999999999996" y="1.67" class="c">223ms</text></svg><svg x="600"><use xlink:href="#a"></use><text x="0" y="1.67" class="c">⠼</text><text x="2.004" y="1.67" class="c">Walking</text><text x="10.02" y="1.67" class="c">directories</text><text x="22.043999999999997" y="1.67" class="c">24</text><text x="25.05" y="1.67" class="c">done</text><text x="30.059999999999995" y="1.67" class="c">(71/s)</text><text x="37.074" y="1.67" class="c">|</text><text x="39.077999999999996" y="1.67" class="c">337ms</text></svg><svg x="700"><use xlink:href="#a"></use><text x="0" y="1.67" class="c">⠴</text><text x="2.004" y="1.67" class="c">Walking</text><text x="10.02" y="1.67" class="c">directories</text><text x="22.043999999999997" y="1.67" class="c">31</text><text x="25.05" y="1.67" class="c">done</text><text x="30.059999999999995" y="1.67" class="c">(72/s)</text><text x="37.074" y="1.67" class="c">|</text><text x="39.077999999999996" y="1.67" class="c">432ms</text></svg><svg x="800"><use xlink:href="#a"></use><text x="0" y="1.67" class="c">⠦</text><text x="2.004" y="1.67" class="c">Walking</text><text x="10.02" y="1.67" class="c">directories</text><text x="22.043999999999997" y="1.67" class="c">38</text><text x="25.05" y="1.67" class="c">done</text><text x="30.059999999999995" y="1.67" class="c">(71/s)</text><text x="37.074" y="1.67" class="c">|</text><text x="39.077999999999996" y="1.67" class="c">535ms</text></svg><svg x="900"><use xlink:href="#a"></use><text x="0" y="1.67" class="c">⠧</text><text x="2.004" y="1.67" class="c">Walking</text><text x="10.02" y="1.67" class="c">directories</text><text x="22.043999999999997" y="1.67" class="c">46</text><text x="25.05" y="1.67" class="c">done</text><text x="30.059999999999995" y="1.67" class="c">(72/s)</text><text x="37.074" y="1.67" class="c">|</text><text x="39.077999999999996" y="1.67" class="c">643ms</text></svg><svg x="1000"><use xlink:href="#a"></use><text x="0" y="1.67" class="c">⠇</text><text x="2.004" y="1.67" class="c">Walking</text><text x="10.02" y="1.67" class="c">directories</text><text x="22.043999999999997" y="1.67" class="c">53</text><text x="25.05" y="1.67" class="c">done</text><text x="30.059999999999995" y="1.67" class="c">(72/s)</text><text x="37.074" y="1.67" class="c">|</text><text x="39.077999999999996" y="1.67" class="c">739ms</text></svg><svg x="1100"><use xlink:href="#a"></use><text x="0" y="1.67" class="c">⠏</text><text x="2.004" y="1.67" class="c">Walking</text><text x="10.02" y="1.67" class="c">directories</text><text x="22.043999999999997" y="1.67" class="c">61</text><text x="25.05" y="1.67" class="c">done</text><text x="30.059999999999995" y="1.67" class="c">(72/s)</text><text x="37.074" y="1.67" class="c">|</text><text x="39.077999999999996" y="1.67" class="c">849ms</text></svg><svg x="1200"><use xlink:href="#a"></use><text x="0" y="1.67" class="c">⠋</text><text x="2.004" y="1.67" class="c">Walking</text><text x="10.02" y="1.67" class="c">directories</text><text x="22.043999999999997" y="1.67" class="c">68</text><text x="25.05" y="1.67" class="c">done</text><text x="30.059999999999995" y="1.67" class="c">(72/s)</text><text x="37.074" y="1.67" class="c">|</text><text x="39.077999999999996" y="1.67" class="c">949ms</text></svg><svg x="1300"><use xlink:href="#a"></use><text x="0" y="1.67" class="c">⠙</text><text x="2.004" y="1.67" class="c">Walking</text><text x="10.02" y="1.67" class="c">directories</text><text x="22.043999999999997" y="1.67" class="c">75</text><text x="25.05" y="1.67" class="c">done</text><text x="30.059999999999995" y="1.67" class="c">(72/s)</text><text x="37.074" y="1.67" class="c">|</text><text x="39.077999999999996" y="1.67" class="c">1s</text></svg><svg x="1400"><use xlink:href="#a"></use><text x="0" y="1.67" class="c">⠹</text><text x="2.004" y="1.67" class="c">Walking</text><text x="10.02" y="1.67" class="c">directories</text><text x="22.043999999999997" y="1.67" class="c">83</text><text x="25.05" y="1.67" class="c">done</text><text x="30.059999999999995" y="1.67" class="c">(72/s)</text><text x="37.074" y="1.67" class="c">|</text><text x="39.077999999999996" y="1.67" class="c">1.2s</text></svg><svg x="1500"><use xlink:href="#a"></use><text x="0" y="1.67" class="c">⠸</text><text x="2.004" y="1.67" class="c">Walking</text><text x="10.02" y="1.67" class="c">directories</text><text x="22.043999999999997" y="1.67" class="c">90</text><text x="25.05" y="1.67" class="c">done</text><text x="30.059999999999995" y="1.67" class="c">(72/s)</text><text x="37.074" y="1.67" class="c">|</text><text x="39.077999999999996" y="1.67" class="c">1.2s</text></svg><svg x="1600"><use xlink:href="#a"></use><text x="0" y="1.67" class="c">⠼</text><text x="2.004" y="1.67" class="c">Walking</text><text x="10.02" y="1.67" class="c">directories</text><text x="22.043999999999997" y="1.67" class="c">98</text><text x="25.05" y="1.67" class="c">done</text><text x="30.059999999999995" y="1.67" class="c">(72/s)</text><text x="37.074" y="1.67" class="c">|</text><text x="39.077999999999996" y="1.67" class="c">1.4s</text></svg><svg x="1700"><use xlink:href="#a"></use><text x="0" y="1.67" class="c">⠴</text><text x="2.004" y="1.67" class="c">Walking</text><text x="10.02" y="1.67" class="c">directories</text><text x="22.043999999999997" y="1.67" class="c">105</text><text x="26.052" y="1.67" class="c">done</text><text x="31.061999999999998" y="1.67" class="c">(72/s)</text><text x="38.07599999999999" y="1.67" class="c">|</text><text x="40.08" y="1.67" class="c">1.5s</text></svg><svg x="1800"><use xlink:href="#a"></use><text x="0" y="1.67" class="c">⠦</text><text x="2.004" y="1.67" class="c">Walking</text><text x="10.02" y="1.67" class="c">directories</text><text x="22.043999999999997" y="1.67" class="c">113</text><text x="26.052" y="1.67" class="c">done</text><text x="31.061999999999998" y="1.67" class="c">(72/s)</text><text x="38.07599999999999" y="1.67" class="c">|</text><text x="40.08" y="1.67" class="c">1.6s</text></svg><svg x="1900"><use xlink:href="#a"></use><text x="0" y="1.67" class="c">⠧</text><text x="2.004" y="1.67" class="c">Walking</text><text x="10.02" y="1.67" class="c">directories</text><text x="22.043999999999997" y="1.67" class="c">120</text><text x="26.052" y="1.67" class="c">done</text><text x="31.061999999999998" y="1.67" class="c">(72/s)</text><text x="38.07599999999999" y="1.67" class="c">|</text><text x="40.08" y="1.67" class="c">1.7s</text></svg><svg x="2000"><use xlink:href="#a"></use><text x="0" y="1.67" class="c">⠇</text><text x="2.004" y="1.67" class="c">Walking</text><text x="10.02" y="1.67" class="c">directories</text><text x="22.043999999999997" y="1.67" class="c">128</text><text x="26.052" y="1.67" class="c">done</text><text x="31.061999999999998" y="1.67" class="c">(72/s)</text><text x="38.07599999999999" y="1.67" class="c">|</text><text x="40.08" y="1.67" class="c">1.8s</text></svg><svg x="2100"><use xlink:href="#a"></use><text x="0" y="1.67" class="c">⠏</text><text x="2.004" y="1.67" class="c">Walking</text><text x="10.02" y="1.67" class="c">directories</text><text x="22.043999999999997" y="1.67" class="c">136</text><text x="26.052" y="1.67" class="c">done</text><text x="31.061999999999998" y="1.67" class="c">(73/s)</text><text x="38.07599999999999" y="1.67" class="c">|</text><text x="40.08" y="1.67" class="c">1.9s</text></svg><svg x="2200"><use xlink:href="#a"></use><text x="0" y="1.67" class="c">⠋</text><text x="2.004" y="1.67" class="c">Walking</text><text x="10.02" y="1.67" class="c">directories</text><text x="22.043999999999997" y="1.67" class="c">142</text><text x="26.052" y="1.67" class="c">done</text><text x="31.061999999999998" y="1.67" class="c">(72/s)</text><text x="38.07599999999999" y="1.67" class="c">|</text><text x="40.08" y="1.67" class="c">2s</text></svg><svg x="2300"><use xlink:href="#a"></use><text x="0" y="1.67" class="c">⠙</text><text x="2.004" y="1.67" class="c">Walking</text><text x="10.02" y="1.67" class="c">directories</text><text x="22.043999999999997" y="1.67" class="c">150</text><text x="26.052" y="1.67" class="c">done</text><text x="31.061999999999998" y="1.67" class="c">(73/s)</text><text x="38.07599999999999" y="1.67" class="c">|</text><text x="40.08" y="1.67" class="c">2.1s</text></svg><svg x="2400"><use xlink:href="#a"></use><text x="0" y="1.67" class="c">⠹</text><text x="2.004" y="1.67" class="c">Walking</text><text x="10.02" y="1.67" class="c">directories</text><text x="22.043999999999997" y="1.67" class="c">157</text><text x="26.052" y="1.67" class="c">done</text><text x="31.061999999999998" y="1.67" class="c">(72/s)</text><text x="38.07599999999999" y="1.67" class="c">|</text><text x="40.08" y="1.67" class="c">2.2s</text></svg><svg x="2500"><use xlink:href="#a"></use><text x="0" y="1.67" class="c">⠸</text><text x="2.004" y="1.67" class="c">Walking</text><text x="10.02" y="1.67" class="c">directories</text><text x="22.043999999999997" y="1.67" class="c">165</text><text x="26.052" y="1.67" class="c">done</text><text x="31.061999999999998" y="1.67" class="c">(73/s)</text><text x="38.07599999999999" y="1.67" class="c">|</text><text x="40.08" y="1.67" class="c">2.3s</text></svg><svg x="2600"><use xlink:href="#a"></use><text x="0" y="1.67" class="c">⠼</text><text x="2.004" y="1.67" class="c">Walking</text><text x="10.02" y="1.67" class="c">directories</text><text x="22.043999999999997" y="1.67" class="c">172</text><text x="26.052" y="1.67" class="c">done</text><text x="31.061999999999998" y="1.67" class="c">(73/s)</text><text x="38.07599999999999" y="1.67" class="c">|</text><text x="40.08" y="1.67" class="c">2.4s</text></svg><svg x="2700"><use xlink:href="#a"></use><text x="0" y="1.67" class="c">⠴</text><text x="2.004" y="1.67" class="c">Walking</text><text x="10.02" y="1.67" class="c">directories</text><text x="22.043999999999997" y="1.67" class="c">180</text><text x="26.052" y="1.67" class="c">done</text><text x="31.061999999999998" y="1.67" class="c">(73/s)</text><text x="38.07599999999999" y="1.67" class="c">|</text><text x="40.08" y="1.67" class="c">2.5s</text></svg><svg x="2800"><use xlink:href="#a"></use><text x="0" y="1.67" class="c">⠦</text><text x="2.004" y="1.67" class="c">Walking</text><text x="10.02" y="1.67" class="c">directories</text><text x="22.043999999999997" y="1.67" class="c">188</text><text x="26.052" y="1.67" class="c">done</text><text x="31.061999999999998" y="1.67" class="c">(73/s)</text><text x="38.07599999999999" y="1.67" class="c">|</text><text x="40.08" y="1.67" class="c">2.6s</text></svg><svg x="2900"><use xlink:href="#a"></use><text x="0" y="1.67" class="c">⠧</text><text x="2.004" y="1.67" class="c">Walking</text><text x="10.02" y="1.67" class="c">directories</text><text x="22.043999999999997" y="1.67" class="c">196</text><text x="26.052" y="1.67" class="c">done</text><text x="31.061999999999998" y="1.67" class="c">(73/s)</text><text x="38.07599999999999" y="1.67" class="c">|</text><text x="40.08" y="1.67" class="c">2.7s</text></svg><svg x="3000"><use xlink:href="#a"></use><text x="0" y="1.67" class="c">⠇</text><text x="2.004" y="1.67" class="c">Walking</text><text x="10.02" y="1.67" class="c">directories</text><text x="22.043999999999997" y="1.67" class="c">203</text><text x="26.052" y="1.67" class="c">done</text><text x="31.061999999999998" y="1.67" class="c">(73/s)</text><text x="38.07599999999999" y="1.67" class="c">|</text><text x="40.08" y="1.67" class="c">2.8s</text></svg><svg x="3100"><use xlink:href="#a"></use><text x="0" y="1.67" class="c">⠏</text><text x="2.004" y="1.67" class="c">Walking</text><text x="10.02" y="1.67" class="c">directories</text><text x="22.043999999999997" y="1.67" class="c">210</text><text x="26.052" y="1.67" class="c">done</text><text x="31.061999999999998" y="1.67" class="c">(73/s)</text><text x="38.07599999999999" y="1.67" class="c">|</text><text x="40.08" y="1.67" class="c">2.9s</text></svg><svg x="3200"><use xlink:href="#a"></use><text x="0" y="1.67" class="c">⠋</text><text x="2.004" y="1.67" class="c">Walking</text><text x="10.02" y="1.67" class="c">directories</text><text x="22.043999999999997" y="1.67" class="c">217</text><text x="26.052" y="1.67" class="c">done</text><text x="31.061999999999998" y="1.67" class="c">(73/s)</text><text x="38.07599999999999" y="1.67" class="c">|</text><text x="40.08" y="1.67" class="c">3s</text></svg><svg x="3300"><use xlink:href="#a"></use><text x="0" y="1.67" class="c">⠙</text><text x="2.004" y="1.67" class="c">Walking</text><text x="10.02" y="1.67" class="c">directories</text><text x="22.043999999999997" y="1.67" class="c">225</text><text x="26.052" y="1.67" class="c">done</text><text x="31.061999999999998" y="1.67" class="c">(73/s)</text><text x="38.07599999999999" y="1.67" class="c">|</text><text x="40.08" y="1.67" class="c">3.1s</text></svg><svg x="3400"><use xlink:href="#a"></use><text x="0" y="1.67" class="c">⠹</text><text x="2.004" y="1.67" class="c">Walking</text><text x="10.02" y="1.67" class="c">directories</text><text x="22.043999999999997" y="1.67" class="c">233</text><text x="26.052" y="1.67" class="c">done</text><text x="31.061999999999998" y="1.67" class="c">(73/s)</text><text x="38.07599999999999" y="1.67" class="c">|</text><text x="40.08" y="1.67" class="c">3.2s</text></svg><svg x="3500"><use xlink:href="#a"></use><text x="0" y="1.67" class="c">⠸</text><text x="2.004" y="1.67" class="c">Walking</text><text x="10.02" y="1.67" class="c">directories</text><text x="22.043999999999997" y="1.67" class="c">241</text><text x="26.052" y="1.67" class="c">done</text><text x="31.061999999999998" y="1.67" class="c">(73/s)</text><text x="38.07599999999999" y="1.67" class="c">|</text><text x="40.08" y="1.67" class="c">3.3s</text></svg><svg x="3600"><use xlink:href="#a"></use><text x="0" y="1.67" class="c">⠼</text><text x="2.004" y="1.67" class="c">Walking</text><text x="10.02" y="1.67" class="c">directories</text><text x="22.043999999999997" y="1.67" class="c">249</text><text x="26.052" y="1.67" class="c">done</text><text x="31.061999999999998" y="1.67" class="c">(73/s)</text><text x="38.07599999999999" y="1.67" class="c">|</text><text x="40.08" y="1.67" class="c">3.4s</text></svg><svg x="3700"><use xlink:href="#a"></use><text x="0" y="1.67" class="c">⠴</text><text x="2.004" y="1.67" class="c">Walking</text><text x="10.02" y="1.67" class="c">directories</text><text x="22.043999999999997" y="1.67" class="c">256</text><text x="26.052" y="1.67" class="c">done</text><text x="31.061999999999998" y="1.67" class="c">(73/s)</text><text x="38.07599999999999" y="1.67" class="c">|</text><text x="40.08" y="1.67" class="c">3.5s</text></svg><svg x="3800"><use xlink:href="#a"></use><text x="0" y="1.67" class="c">⠦</text><text x="2.004" y="1.67" class="c">Walking</text><text x="10.02" y="1.67" class="c">directories</text><text x="22.043999999999997" y="1.67" class="c">264</text><text x="26.052" y="1.67" class="c">done</text><text x="31.061999999999998" y="1.67" class="c">(73/s)</text><text x="38.07599999999999" y="1.67" class="c">|</text><text x="40.08" y="1.67" class="c">3.6s</text></svg><svg x="3900"><use xlink:href="#a"></use><text x="0" y="1.67" class="c">⠧</text><text x="2.004" y="1.67" class="c">Walking</text><text x="10.02" y="1.67" class="c">directories</text><text x="22.043999999999997" y="1.67" class="c">272</text><text x="26.052" y="1.67" class="c">done</text><text x="31.061999999999998" y="1.67" class="c">(73/s)</text><text x="38.07599999999999" y="1.67" class="c">|</text><text x="40.08" y="1.67" class="c">3.7s</text></svg><svg x="4000"><use xlink:href="#a"></use><text x="0" y="1.67" class="c">⠇</text><text x="2.004" y="1.67" class="c">Walking</text><text x="10.02" y="1.67" class="c">directories</text><text x="22.043999999999997" y="1.67" class="c">280</text><text x="26.052" y="1.67" class="c">done</text><text x="31.061999999999998" y="1.67" class="c">(73/s)</text><text x="38.07599999999999" y="1.67" class="c">|</text><text x="40.08" y="1.67" class="c">3.8s</text></svg><svg x="4100"><use xlink:href="#a"></use><text x="0" y="1.67" class="c">⠏</text><text x="2.004" y="1.67" class="c">Walking</text><text x="10.02" y="1.67" class="c">directories</text><text x="22.043999999999997" y="1.67" class="c">288</text><text x="26.052" y="1.67" class="c">done</text><text x="31.061999999999998" y="1.67" class="c">(73/s)</text><text x="38.07599999999999" y="1.67" class="c">|</text><text x="40.08" y="1.67" class="c">3.9s</text></svg><svg x="4200"><use xlink:href="#a"></use><text x="0" y="1.67" class="c">⠋</text><text x="2.004" y="1.67" class="c">Walking</text><text x="10.02" y="1.67" class="c">directories</text><text x="22.043999999999997" y="1.67" class="c">295</text><text x="26.052" y="1.67" class="c">done</text><text x="31.061999999999998" y="1.67" class="c">(73/s)</text><text x="38.07599999999999" y="1.67" class="c">|</text><text x="40.08" y="1.67" class="c">4s</text></svg><svg x="4300"><use xlink:href="#a"></use><text x="0" y="1.67" class="c">⠙</text><text x="2.004" y="1.67" class="c">Walking</text><text x="10.02" y="1.67" class="c">directories</text><text x="22.043999999999997" y="1.67" class="c">303</text><text x="26.052" y="1.67" class="c">done</text><text x="31.061999999999998" y="1.67" class="c">(73/s)</text><text x="38.07599999999999" y="1.67" class="c">|</text><text x="40.08" y="1.67" class="c">4.1s</text></svg><svg x="4400"><use xlink:href="#a"></use><text x="0" y="1.67" class="c">⠹</text><text x="2.004" y="1.67" class="c">Walking</text><text x="10.02" y="1.67" class="c">directories</text><text x="22.043999999999997" y="1.67" class="c">311</text><text x="26.052" y="1.67" class="c">done</text><text x="31.061999999999998" y="1.67" class="c">(74/s)</text><text x="38.07599999999999" y="1.67" class="c">|</text><text x="40.08" y="1.67" class="c">4.2s</text></svg><svg x="4500"><use xlink:href="#a"></use><text x="0" y="1.67" class="c">⠸</text><text x="2.004" y="1.67" class="c">Walking</text><text x="10.02" y="1.67" class="c">directories</text><text x="22.043999999999997" y="1.67" class="c">319</text><text x="26.052" y="1.67" class="c">done</text><text x="31.061999999999998" y="1.67" class="c">(73/s)</text><text x="38.07599999999999" y="1.67" class="c">|</text><text x="40.08" y="1.67" class="c">4.3s</text></svg><svg x="4600"><use xlink:href="#a"></use><text x="0" y="1.67" class="c">⠼</text><text x="2.004" y="1.67" class="c">Walking</text><text x="10.02" y="1.67" class="c">directories</text><text x="22.043999999999997" y="1.67" class="c">326</text><text x="26.052" y="1.67" class="c">done</text><text x="31.061999999999998" y="1.67" class="c">(74/s)</text><text x="38.07599999999999" y="1.67" class="c">|</text><text x="40.08" y="1.67" class="c">4.4s</text></svg><svg x="4700"><use xlink:href="#a"></use><text x="0" y="1.67" class="c">⠴</text><text x="2.004" y="1.67" class="c">Walking</text><text x="10.02" y="1.67" class="c">directories</text><text x="22.043999999999997" y="1.67" class="c">333</text><text x="26.052" y="1.67" class="c">done</text><text x="31.061999999999998" y="1.67" class="c">(73/s)</text><text x="38.07599999999999" y="1.67" class="c">|</text><text x="40.08" y="1.67" class="c">4.5s</text></svg><svg x="4800"><use xlink:href="#a"></use><text x="0" y="1.67" class="c">⠦</text><text x="2.004" y="1.67" class="c">Walking</text><text x="10.02" y="1.67" class="c">directories</text><text x="22.043999999999997" y="1.67" class="c">341</text><text x="26.052" y="1.67" class="c">done</text><text x="31.061999999999998" y="1.67" class="c">(74/s)</text><text x="38.07599999999999" y="1.67" class="c">|</text><text x="40.08" y="1.67" class="c">4.6s</text></svg><svg x="4900"><use xlink:href="#a"></use><text x="0" y="1.67" class="c">⠧</text><text x="2.004" y="1.67" class="c">Walking</text><text x="10.02" y="1.67" class="c">directories</text><text x="22.043999999999997" y="1.67" class="c">348</text><text x="26.052" y="1.67" class="c">done</text><text x="31.061999999999998" y="1.67" class="c">(74/s)</text><text x="38.07599999999999" y="1.67" class="c">|</text><text x="40.08" y="1.67" class="c">4.7s</text></svg><svg x="5000"><use xlink:href="#a"></use><text x="0" y="1.67" class="c">⠇</text><text x="2.004" y="1.67" class="c">Walking</text><text x="10.02" y="1.67" class="c">directories</text><text x="22.043999999999997" y="1.67" class="c">356</text><text x="26.052" y="1.67" class="c">done</text><text x="31.061999999999998" y="1.67" class="c">(74/s)</text><text x="38.07599999999999" y="1.67" class="c">|</text><text x="40.08" y="1.67" class="c">4.8s</text></svg><svg x="5100"><use xlink:href="#a"></use><text x="0" y="1.67" class="c">⠏</text><text x="2.004" y="1.67" class="c">Walking</text><text x="10.02" y="1.67" class="c">directories</text><text x="22.043999999999997" y="1.67" class="c">363</text><text x="26.052" y="1.67" class="c">done</text><text x="31.061999999999998" y="1.67" class="c">(74/s)</text><text x="38.07599999999999" y="1.67" class="c">|</text><text x="40.08" y="1.67" class="c">4.9s</text></svg><svg x="5200"><use xlink:href="#a"></use><text x="0" y="1.67" class="c">⠋</text><text x="2.004" y="1.67" class="c">Walking</text><text x="10.02" y="1.67" class="c">directories</text><text x="22.043999999999997" y="1.67" class="c">371</text><text x="26.052" y="1.67" class="c">done</text><text x="31.061999999999998" y="1.67" class="c">(74/s)</text><text x="38.07599999999999" y="1.67" class="c">|</text><text x="40.08" y="1.67" class="c">5s</text></svg><svg x="5300"><use xlink:href="#a"></use><text x="0" y="1.67" class="c">⠙</text><text x="2.004" y="1.67" class="c">Walking</text><text x="10.02" y="1.67" class="c">directories</text><text x="22.043999999999997" y="1.67" class="c">379</text><text x="26.052" y="1.67" class="c">done</text><text x="31.061999999999998" y="1.67" class="c">(74/s)</text><text x="38.07599999999999" y="1.67" class="c">|</text><text x="40.08" y="1.67" class="c">5.2s</text></svg><svg x="5400"><use xlink:href="#a"></use><text x="0" y="1.67" class="c">⠹</text><text x="2.004" y="1.67" class="c">Walking</text><text x="10.02" y="1.67" class="c">directories</text><text x="22.043999999999997" y="1.67" class="c">386</text><text x="26.052" y="1.67" class="c">done</text><text x="31.061999999999998" y="1.67" class="c">(73/s)</text><text x="38.07599999999999" y="1.67" class="c">|</text><text x="40.08" y="1.67" class="c">5.3s</text></svg><svg x="5500"><use xlink:href="#a"></use><text x="0" y="1.67" class="c">⠸</text><text x="2.004" y="1.67" class="c">Walking</text><text x="10.02" y="1.67" class="c">directories</text><text x="22.043999999999997" y="1.67" class="c">393</text><text x="26.052" y="1.67" class="c">done</text><text x="31.061999999999998" y="1.67" class="c">(73/s)</text><text x="38.07599999999999" y="1.67" class="c">|</text><text x="40.08" y="1.67" class="c">5.4s</text></svg><svg x="5600"><use xlink:href="#a"></use><text x="0" y="1.67" class="c">⠼</text><text x="2.004" y="1.67" class="c">Walking</text><text x="10.02" y="1.67" class="c">directories</text><text x="22.043999999999997" y="1.67" class="c">400</text><text x="26.052" y="1.67" class="c">done</text><text x="31.061999999999998" y="1.67" class="c">(73/s)</text><text x="38.07599999999999" y="1.67" class="c">|</text><text x="40.08" y="1.67" class="c">5.4s</text></svg><svg x="5700"><use xlink:href="#a"></use><text x="0" y="1.67" class="c">⠴</text><text x="2.004" y="1.67" class="c">Walking</text><text x="10.02" y="1.67" class="c">directories</text><text x="22.043999999999997" y="1.67" class="c">407</text><text x="26.052" y="1.67" class="c">done</text><text x="31.061999999999998" y="1.67" class="c">(73/s)</text><text x="38.07599999999999" y="1.67" class="c">|</text><text x="40.08" y="1.67" class="c">5.5s</text></svg><svg x="5800"><use xlink:href="#a"></use><text x="0" y="1.67" class="c">⠦</text><text x="2.004" y="1.67" class="c">Walking</text><text x="10.02" y="1.67" class="c">directories</text><text x="22.043999999999997" y="1.67" class="c">415</text><text x="26.052" y="1.67" class="c">done</text><text x="31.061999999999998" y="1.67" class="c">(73/s)</text><text x="38.07599999999999" y="1.67" class="c">|</text><text x="40.08" y="1.67" class="c">5.6s</text></svg><svg x="5900"><use xlink:href="#a"></use><text x="0" y="1.67" class="c">⠧</text><text x="2.004" y="1.67" class="c">Walking</text><text x="10.02" y="1.67" class="c">directories</text><text x="22.043999999999997" y="1.67" class="c">423</text><text x="26.052" y="1.67" class="c">done</text><text x="31.061999999999998" y="1.67" class="c">(74/s)</text><text x="38.07599999999999" y="1.67" class="c">|</text><text x="40.08" y="1.67" class="c">5.8s</text></svg><svg x="6000"><use xlink:href="#a"></use><text x="0" y="1.67" class="c">⠇</text><text x="2.004" y="1.67" class="c">Walking</text><text x="10.02" y="1.67" class="c">directories</text><text x="22.043999999999997" y="1.67" class="c">431</text><text x="26.052" y="1.67" class="c">done</text><text x="31.061999999999998" y="1.67" class="c">(74/s)</text><text x="38.07599999999999" y="1.67" class="c">|</text><text x="40.08" y="1.67" class="c">5.9s</text></svg><svg x="6100"><use xlink:href="#a"></use><text x="0" y="1.67" class="c">⠏</text><text x="2.004" y="1.67" class="c">Walking</text><text x="10.02" y="1.67" class="c">directories</text><text x="22.043999999999997" y="1.67" class="c">439</text><text x="26.052" y="1.67" class="c">done</text><text x="31.061999999999998" y="1.67" class="c">(74/s)</text><text x="38.07599999999999" y="1.67" class="c">|</text><text x="40.08" y="1.67" class="c">6s</text></svg><svg x="6200"><use xlink:href="#a"></use><text x="0" y="1.67" class="c">⠋</text><text x="2.004" y="1.67" class="c">Walking</text><text x="10.02" y="1.67" class="c">directories</text><text x="22.043999999999997" y="1.67" class="c">447</text><text x="26.052" y="1.67" class="c">done</text><text x="31.061999999999998" y="1.67" class="c">(74/s)</text><text x="38.07599999999999" y="1.67" class="c">|</text><text x="40.08" y="1.67" class="c">6.1s</text></svg><svg x="6300"><use xlink:href="#a"></use><text x="0" y="1.67" class="c">⠙</text><text x="2.004" y="1.67" class="c">Walking</text><text x="10.02" y="1.67" class="c">directories</text><text x="22.043999999999997" y="1.67" class="c">455</text><text x="26.052" y="1.67" class="c">done</text><text x="31.061999999999998" y="1.67" class="c">(74/s)</text><text x="38.07599999999999" y="1.67" class="c">|</text><text x="40.08" y="1.67" class="c">6.2s</text></svg><svg x="6400"><use xlink:href="#a"></use><text x="0" y="1.67" class="c">⠹</text><text x="2.004" y="1.67" class="c">Walking</text><text x="10.02" y="1.67" class="c">directories</text><text x="22.043999999999997" y="1.67" class="c">462</text><text x="26.052" y="1.67" class="c">done</text><text x="31.061999999999998" y="1.67" class="c">(74/s)</text><text x="38.07599999999999" y="1.67" class="c">|</text><text x="40.08" y="1.67" class="c">6.3s</text></svg><svg x="6500"><use xlink:href="#a"></use><use xlink:href="#1" y="0"></use></svg><svg x="6600"><use xlink:href="#a"></use><use xlink:href="#1" y="0"></use></svg><svg x="6700"><use xlink:href="#a"></use><use xlink:href="#1" y="0"></use></svg><svg x="6800"><use xlink:href="#a"></use><use xlink:href="#1" y="0"></use></svg></svg></g></g></svg></svg>