<svg xmlns="http://www.w3.org/2000/svg" xmlns:xlink="http://www.w3.org/1999/xlink" width="840" height="61.709999999999994"><rect width="840" height="61.709999999999994" rx="0" ry="0" class="a"></rect><svg height="21.709999999999997" viewBox="0 0 80 2.171" width="800" x="20" xmlns="http://www.w3.org/2000/svg" xmlns:xlink="http://www.w3.org/1999/xlink" y="20"><style>.a{fill:rgb(241,243,245)}.b{font-family:'Fira Code',Monaco,Consolas,Menlo,'Bitstream Vera Sans Mono','Powerline Symbols',monospace}.c{fill:rgb(23,36,49);white-space:pre}.d{fill:transparent}.e{fill:rgb(23,36,49)}.g{animation-duration:11.4111449999999s;animation-iteration-count:infinite;animation-name:f;animation-timing-function:steps(1,end)}@keyframes f{0%{transform:translateX(-0px)}0.4%{transform:translateX(-80px)}0.5%{transform:translateX(-160px)}0.9%{transform:translateX(-240px)}1.8%{transform:translateX(-320px)}2.7%{transform:translateX(-400px)}3.6%{transform:translateX(-480px)}4.5%{transform:translateX(-560px)}5.3%{transform:translateX(-640px)}6.2%{transform:translateX(-720px)}7.1%{transform:translateX(-800px)}7.9%{transform:translateX(-880px)}8.8%{transform:translateX(-960px)}9.8%{transform:translateX(-1040px)}10.6%{transform:translateX(-1120px)}11.5%{transform:translateX(-1200px)}12.4%{transform:translateX(-1280px)}13.2%{transform:translateX(-1360px)}14.1%{transform:translateX(-1440px)}15%{transform:translateX(-1520px)}15.9%{transform:translateX(-1600px)}16.8%{transform:translateX(-1680px)}17.7%{transform:translateX(-1760px)}18.5%{transform:translateX(-1840px)}19.4%{transform:translateX(-1920px)}20.3%{transform:translateX(-2000px)}21.1%{transform:translateX(-2080px)}22%{transform:translateX(-2160px)}22.8%{transform:translateX(-2240px)}23.8%{transform:translateX(-2320px)}24.7%{transform:translateX(-2400px)}25.5%{transform:translateX(-2480px)}26.4%{transform:translateX(-2560px)}27.3%{transform:translateX(-2640px)}28.1%{transform:translateX(-2720px)}29%{transform:translateX(-2800px)}29.9%{transform:translateX(-2880px)}30.7%{transform:translateX(-2960px)}31.7%{transform:translateX(-3040px)}32.6%{transform:translateX(-3120px)}33.4%{transform:translateX(-3200px)}34.3%{transform:translateX(-3280px)}35.2%{transform:translateX(-3360px)}36%{transform:translateX(-3440px)}36.9%{transform:translateX(-3520px)}37.8%{transform:translateX(-3600px)}38.7%{transform:translateX(-3680px)}39.6%{transform:translateX(-3760px)}40.4%{transform:translateX(-3840px)}41.3%{transform:translateX(-3920px)}42.2%{transform:translateX(-4000px)}43%{transform:translateX(-4080px)}43.9%{transform:translateX(-4160px)}44.9%{transform:translateX(-4240px)}45.7%{transform:translateX(-4320px)}46.6%{transform:translateX(-4400px)}47.3%{transform:translateX(-4480px)}47.4%{transform:translateX(-4560px)}47.4%{transform:translateX(-4640px)}47.4%{transform:translateX(-4720px)}100%{transform:translateX(-4800px)}}</style><g font-family="&#x27;Fira Code&#x27;,Monaco,Consolas,Menlo,&#x27;Bitstream Vera Sans Mono&#x27;,&#x27;Powerline Symbols&#x27;,monospace" font-size="1.67" class="b"><defs><symbol id="1"><text font-size="1.67" x="0" y="1.67" class="c">⠴</text><text font-size="1.67" x="2.004" y="1.67" class="c">Walking</text><text font-size="1.67" x="10.02" y="1.67" class="c">directories</text><text font-size="1.67" x="22.043999999999997" y="1.67" class="c">463</text><text font-size="1.67" x="26.052" y="1.67" class="c">done</text><text font-size="1.67" x="31.061999999999998" y="1.67" class="c">(86/s)</text><text font-size="1.67" x="38.07599999999999" y="1.67" class="c">|</text><text font-size="1.67" x="40.08" y="1.67" class="c">5.4s</text></symbol><symbol id="a"><rect height="1" width="80" x="0" y="0" class="d"></rect></symbol><symbol id="b"><rect height="2.171" width="1.1022" class="e"></rect></symbol></defs><rect height="2.171" width="80" class="a"></rect><g class="g"><svg x="0" y="0" width="4880"><svg x="0"><use xlink:href="#a"></use><use xlink:href="#b" x="-0.0040000000000000036" y="0"></use></svg><svg x="80"><use xlink:href="#a"></use></svg><svg x="160"><use xlink:href="#a"></use><text font-size="1.67" x="0" y="1.67" class="c">⠙</text><text font-size="1.67" x="2.004" y="1.67" class="c">Walking</text><text font-size="1.67" x="10.02" y="1.67" class="c">directories</text><text font-size="1.67" x="22.043999999999997" y="1.67" class="c">1</text><text font-size="1.67" x="24.048" y="1.67" class="c">done</text><text font-size="1.67" x="29.058" y="1.67" class="c">(83/s)</text><text font-size="1.67" x="36.071999999999996" y="1.67" class="c">|</text><text font-size="1.67" x="38.07599999999999" y="1.67" class="c">13ms</text></svg><svg x="240"><use xlink:href="#a"></use><text font-size="1.67" x="0" y="1.67" class="c">⠹</text><text font-size="1.67" x="2.004" y="1.67" class="c">Walking</text><text font-size="1.67" x="10.02" y="1.67" class="c">directories</text><text font-size="1.67" x="22.043999999999997" y="1.67" class="c">5</text><text font-size="1.67" x="24.048" y="1.67" class="c">done</text><text font-size="1.67" x="29.058" y="1.67" class="c">(72/s)</text><text font-size="1.67" x="36.071999999999996" y="1.67" class="c">|</text><text font-size="1.67" x="38.07599999999999" y="1.67" class="c">70ms</text></svg><svg x="320"><use xlink:href="#a"></use><text font-size="1.67" x="0" y="1.67" class="c">⠸</text><text font-size="1.67" x="2.004" y="1.67" class="c">Walking</text><text font-size="1.67" x="10.02" y="1.67" class="c">directories</text><text font-size="1.67" x="22.043999999999997" y="1.67" class="c">14</text><text font-size="1.67" x="25.05" y="1.67" class="c">done</text><text font-size="1.67" x="30.059999999999995" y="1.67" class="c">(82/s)</text><text font-size="1.67" x="37.074" y="1.67" class="c">|</text><text font-size="1.67" x="39.077999999999996" y="1.67" class="c">172ms</text></svg><svg x="400"><use xlink:href="#a"></use><text font-size="1.67" x="0" y="1.67" class="c">⠼</text><text font-size="1.67" x="2.004" y="1.67" class="c">Walking</text><text font-size="1.67" x="10.02" y="1.67" class="c">directories</text><text font-size="1.67" x="22.043999999999997" y="1.67" class="c">22</text><text font-size="1.67" x="25.05" y="1.67" class="c">done</text><text font-size="1.67" x="30.059999999999995" y="1.67" class="c">(83/s)</text><text font-size="1.67" x="37.074" y="1.67" class="c">|</text><text font-size="1.67" x="39.077999999999996" y="1.67" class="c">267ms</text></svg><svg x="480"><use xlink:href="#a"></use><text font-size="1.67" x="0" y="1.67" class="c">⠴</text><text font-size="1.67" x="2.004" y="1.67" class="c">Walking</text><text font-size="1.67" x="10.02" y="1.67" class="c">directories</text><text font-size="1.67" x="22.043999999999997" y="1.67" class="c">31</text><text font-size="1.67" x="25.05" y="1.67" class="c">done</text><text font-size="1.67" x="30.059999999999995" y="1.67" class="c">(84/s)</text><text font-size="1.67" x="37.074" y="1.67" class="c">|</text><text font-size="1.67" x="39.077999999999996" y="1.67" class="c">370ms</text></svg><svg x="560"><use xlink:href="#a"></use><text font-size="1.67" x="0" y="1.67" class="c">⠦</text><text font-size="1.67" x="2.004" y="1.67" class="c">Walking</text><text font-size="1.67" x="10.02" y="1.67" class="c">directories</text><text font-size="1.67" x="22.043999999999997" y="1.67" class="c">40</text><text font-size="1.67" x="25.05" y="1.67" class="c">done</text><text font-size="1.67" x="30.059999999999995" y="1.67" class="c">(85/s)</text><text font-size="1.67" x="37.074" y="1.67" class="c">|</text><text font-size="1.67" x="39.077999999999996" y="1.67" class="c">473ms</text></svg><svg x="640"><use xlink:href="#a"></use><text font-size="1.67" x="0" y="1.67" class="c">⠧</text><text font-size="1.67" x="2.004" y="1.67" class="c">Walking</text><text font-size="1.67" x="10.02" y="1.67" class="c">directories</text><text font-size="1.67" x="22.043999999999997" y="1.67" class="c">48</text><text font-size="1.67" x="25.05" y="1.67" class="c">done</text><text font-size="1.67" x="30.059999999999995" y="1.67" class="c">(85/s)</text><text font-size="1.67" x="37.074" y="1.67" class="c">|</text><text font-size="1.67" x="39.077999999999996" y="1.67" class="c">569ms</text></svg><svg x="720"><use xlink:href="#a"></use><text font-size="1.67" x="0" y="1.67" class="c">⠇</text><text font-size="1.67" x="2.004" y="1.67" class="c">Walking</text><text font-size="1.67" x="10.02" y="1.67" class="c">directories</text><text font-size="1.67" x="22.043999999999997" y="1.67" class="c">57</text><text font-size="1.67" x="25.05" y="1.67" class="c">done</text><text font-size="1.67" x="30.059999999999995" y="1.67" class="c">(85/s)</text><text font-size="1.67" x="37.074" y="1.67" class="c">|</text><text font-size="1.67" x="39.077999999999996" y="1.67" class="c">671ms</text></svg><svg x="800"><use xlink:href="#a"></use><text font-size="1.67" x="0" y="1.67" class="c">⠏</text><text font-size="1.67" x="2.004" y="1.67" class="c">Walking</text><text font-size="1.67" x="10.02" y="1.67" class="c">directories</text><text font-size="1.67" x="22.043999999999997" y="1.67" class="c">66</text><text font-size="1.67" x="25.05" y="1.67" class="c">done</text><text font-size="1.67" x="30.059999999999995" y="1.67" class="c">(85/s)</text><text font-size="1.67" x="37.074" y="1.67" class="c">|</text><text font-size="1.67" x="39.077999999999996" y="1.67" class="c">773ms</text></svg><svg x="880"><use xlink:href="#a"></use><text font-size="1.67" x="0" y="1.67" class="c">⠋</text><text font-size="1.67" x="2.004" y="1.67" class="c">Walking</text><text font-size="1.67" x="10.02" y="1.67" class="c">directories</text><text font-size="1.67" x="22.043999999999997" y="1.67" class="c">74</text><text font-size="1.67" x="25.05" y="1.67" class="c">done</text><text font-size="1.67" x="30.059999999999995" y="1.67" class="c">(85/s)</text><text font-size="1.67" x="37.074" y="1.67" class="c">|</text><text font-size="1.67" x="39.077999999999996" y="1.67" class="c">868ms</text></svg><svg x="960"><use xlink:href="#a"></use><text font-size="1.67" x="0" y="1.67" class="c">⠙</text><text font-size="1.67" x="2.004" y="1.67" class="c">Walking</text><text font-size="1.67" x="10.02" y="1.67" class="c">directories</text><text font-size="1.67" x="22.043999999999997" y="1.67" class="c">83</text><text font-size="1.67" x="25.05" y="1.67" class="c">done</text><text font-size="1.67" x="30.059999999999995" y="1.67" class="c">(86/s)</text><text font-size="1.67" x="37.074" y="1.67" class="c">|</text><text font-size="1.67" x="39.077999999999996" y="1.67" class="c">970ms</text></svg><svg x="1040"><use xlink:href="#a"></use><text font-size="1.67" x="0" y="1.67" class="c">⠹</text><text font-size="1.67" x="2.004" y="1.67" class="c">Walking</text><text font-size="1.67" x="10.02" y="1.67" class="c">directories</text><text font-size="1.67" x="22.043999999999997" y="1.67" class="c">92</text><text font-size="1.67" x="25.05" y="1.67" class="c">done</text><text font-size="1.67" x="30.059999999999995" y="1.67" class="c">(86/s)</text><text font-size="1.67" x="37.074" y="1.67" class="c">|</text><text font-size="1.67" x="39.077999999999996" y="1.67" class="c">1.1s</text></svg><svg x="1120"><use xlink:href="#a"></use><text font-size="1.67" x="0" y="1.67" class="c">⠸</text><text font-size="1.67" x="2.004" y="1.67" class="c">Walking</text><text font-size="1.67" x="10.02" y="1.67" class="c">directories</text><text font-size="1.67" x="22.043999999999997" y="1.67" class="c">100</text><text font-size="1.67" x="26.052" y="1.67" class="c">done</text><text font-size="1.67" x="31.061999999999998" y="1.67" class="c">(86/s)</text><text font-size="1.67" x="38.07599999999999" y="1.67" class="c">|</text><text font-size="1.67" x="40.08" y="1.67" class="c">1.2s</text></svg><svg x="1200"><use xlink:href="#a"></use><text font-size="1.67" x="0" y="1.67" class="c">⠼</text><text font-size="1.67" x="2.004" y="1.67" class="c">Walking</text><text font-size="1.67" x="10.02" y="1.67" class="c">directories</text><text font-size="1.67" x="22.043999999999997" y="1.67" class="c">109</text><text font-size="1.67" x="26.052" y="1.67" class="c">done</text><text font-size="1.67" x="31.061999999999998" y="1.67" class="c">(86/s)</text><text font-size="1.67" x="38.07599999999999" y="1.67" class="c">|</text><text font-size="1.67" x="40.08" y="1.67" class="c">1.3s</text></svg><svg x="1280"><use xlink:href="#a"></use><text font-size="1.67" x="0" y="1.67" class="c">⠴</text><text font-size="1.67" x="2.004" y="1.67" class="c">Walking</text><text font-size="1.67" x="10.02" y="1.67" class="c">directories</text><text font-size="1.67" x="22.043999999999997" y="1.67" class="c">118</text><text font-size="1.67" x="26.052" y="1.67" class="c">done</text><text font-size="1.67" x="31.061999999999998" y="1.67" class="c">(86/s)</text><text font-size="1.67" x="38.07599999999999" y="1.67" class="c">|</text><text font-size="1.67" x="40.08" y="1.67" class="c">1.4s</text></svg><svg x="1360"><use xlink:href="#a"></use><text font-size="1.67" x="0" y="1.67" class="c">⠦</text><text font-size="1.67" x="2.004" y="1.67" class="c">Walking</text><text font-size="1.67" x="10.02" y="1.67" class="c">directories</text><text font-size="1.67" x="22.043999999999997" y="1.67" class="c">126</text><text font-size="1.67" x="26.052" y="1.67" class="c">done</text><text font-size="1.67" x="31.061999999999998" y="1.67" class="c">(86/s)</text><text font-size="1.67" x="38.07599999999999" y="1.67" class="c">|</text><text font-size="1.67" x="40.08" y="1.67" class="c">1.5s</text></svg><svg x="1440"><use xlink:href="#a"></use><text font-size="1.67" x="0" y="1.67" class="c">⠧</text><text font-size="1.67" x="2.004" y="1.67" class="c">Walking</text><text font-size="1.67" x="10.02" y="1.67" class="c">directories</text><text font-size="1.67" x="22.043999999999997" y="1.67" class="c">135</text><text font-size="1.67" x="26.052" y="1.67" class="c">done</text><text font-size="1.67" x="31.061999999999998" y="1.67" class="c">(86/s)</text><text font-size="1.67" x="38.07599999999999" y="1.67" class="c">|</text><text font-size="1.67" x="40.08" y="1.67" class="c">1.6s</text></svg><svg x="1520"><use xlink:href="#a"></use><text font-size="1.67" x="0" y="1.67" class="c">⠇</text><text font-size="1.67" x="2.004" y="1.67" class="c">Walking</text><text font-size="1.67" x="10.02" y="1.67" class="c">directories</text><text font-size="1.67" x="22.043999999999997" y="1.67" class="c">144</text><text font-size="1.67" x="26.052" y="1.67" class="c">done</text><text font-size="1.67" x="31.061999999999998" y="1.67" class="c">(86/s)</text><text font-size="1.67" x="38.07599999999999" y="1.67" class="c">|</text><text font-size="1.67" x="40.08" y="1.67" class="c">1.7s</text></svg><svg x="1600"><use xlink:href="#a"></use><text font-size="1.67" x="0" y="1.67" class="c">⠏</text><text font-size="1.67" x="2.004" y="1.67" class="c">Walking</text><text font-size="1.67" x="10.02" y="1.67" class="c">directories</text><text font-size="1.67" x="22.043999999999997" y="1.67" class="c">152</text><text font-size="1.67" x="26.052" y="1.67" class="c">done</text><text font-size="1.67" x="31.061999999999998" y="1.67" class="c">(86/s)</text><text font-size="1.67" x="38.07599999999999" y="1.67" class="c">|</text><text font-size="1.67" x="40.08" y="1.67" class="c">1.8s</text></svg><svg x="1680"><use xlink:href="#a"></use><text font-size="1.67" x="0" y="1.67" class="c">⠋</text><text font-size="1.67" x="2.004" y="1.67" class="c">Walking</text><text font-size="1.67" x="10.02" y="1.67" class="c">directories</text><text font-size="1.67" x="22.043999999999997" y="1.67" class="c">161</text><text font-size="1.67" x="26.052" y="1.67" class="c">done</text><text font-size="1.67" x="31.061999999999998" y="1.67" class="c">(86/s)</text><text font-size="1.67" x="38.07599999999999" y="1.67" class="c">|</text><text font-size="1.67" x="40.08" y="1.67" class="c">1.9s</text></svg><svg x="1760"><use xlink:href="#a"></use><text font-size="1.67" x="0" y="1.67" class="c">⠙</text><text font-size="1.67" x="2.004" y="1.67" class="c">Walking</text><text font-size="1.67" x="10.02" y="1.67" class="c">directories</text><text font-size="1.67" x="22.043999999999997" y="1.67" class="c">170</text><text font-size="1.67" x="26.052" y="1.67" class="c">done</text><text font-size="1.67" x="31.061999999999998" y="1.67" class="c">(86/s)</text><text font-size="1.67" x="38.07599999999999" y="1.67" class="c">|</text><text font-size="1.67" x="40.08" y="1.67" class="c">2s</text></svg><svg x="1840"><use xlink:href="#a"></use><text font-size="1.67" x="0" y="1.67" class="c">⠹</text><text font-size="1.67" x="2.004" y="1.67" class="c">Walking</text><text font-size="1.67" x="10.02" y="1.67" class="c">directories</text><text font-size="1.67" x="22.043999999999997" y="1.67" class="c">178</text><text font-size="1.67" x="26.052" y="1.67" class="c">done</text><text font-size="1.67" x="31.061999999999998" y="1.67" class="c">(86/s)</text><text font-size="1.67" x="38.07599999999999" y="1.67" class="c">|</text><text font-size="1.67" x="40.08" y="1.67" class="c">2.1s</text></svg><svg x="1920"><use xlink:href="#a"></use><text font-size="1.67" x="0" y="1.67" class="c">⠸</text><text font-size="1.67" x="2.004" y="1.67" class="c">Walking</text><text font-size="1.67" x="10.02" y="1.67" class="c">directories</text><text font-size="1.67" x="22.043999999999997" y="1.67" class="c">187</text><text font-size="1.67" x="26.052" y="1.67" class="c">done</text><text font-size="1.67" x="31.061999999999998" y="1.67" class="c">(86/s)</text><text font-size="1.67" x="38.07599999999999" y="1.67" class="c">|</text><text font-size="1.67" x="40.08" y="1.67" class="c">2.2s</text></svg><svg x="2000"><use xlink:href="#a"></use><text font-size="1.67" x="0" y="1.67" class="c">⠼</text><text font-size="1.67" x="2.004" y="1.67" class="c">Walking</text><text font-size="1.67" x="10.02" y="1.67" class="c">directories</text><text font-size="1.67" x="22.043999999999997" y="1.67" class="c">196</text><text font-size="1.67" x="26.052" y="1.67" class="c">done</text><text font-size="1.67" x="31.061999999999998" y="1.67" class="c">(86/s)</text><text font-size="1.67" x="38.07599999999999" y="1.67" class="c">|</text><text font-size="1.67" x="40.08" y="1.67" class="c">2.3s</text></svg><svg x="2080"><use xlink:href="#a"></use><text font-size="1.67" x="0" y="1.67" class="c">⠴</text><text font-size="1.67" x="2.004" y="1.67" class="c">Walking</text><text font-size="1.67" x="10.02" y="1.67" class="c">directories</text><text font-size="1.67" x="22.043999999999997" y="1.67" class="c">204</text><text font-size="1.67" x="26.052" y="1.67" class="c">done</text><text font-size="1.67" x="31.061999999999998" y="1.67" class="c">(86/s)</text><text font-size="1.67" x="38.07599999999999" y="1.67" class="c">|</text><text font-size="1.67" x="40.08" y="1.67" class="c">2.4s</text></svg><svg x="2160"><use xlink:href="#a"></use><text font-size="1.67" x="0" y="1.67" class="c">⠦</text><text font-size="1.67" x="2.004" y="1.67" class="c">Walking</text><text font-size="1.67" x="10.02" y="1.67" class="c">directories</text><text font-size="1.67" x="22.043999999999997" y="1.67" class="c">213</text><text font-size="1.67" x="26.052" y="1.67" class="c">done</text><text font-size="1.67" x="31.061999999999998" y="1.67" class="c">(86/s)</text><text font-size="1.67" x="38.07599999999999" y="1.67" class="c">|</text><text font-size="1.67" x="40.08" y="1.67" class="c">2.5s</text></svg><svg x="2240"><use xlink:href="#a"></use><text font-size="1.67" x="0" y="1.67" class="c">⠧</text><text font-size="1.67" x="2.004" y="1.67" class="c">Walking</text><text font-size="1.67" x="10.02" y="1.67" class="c">directories</text><text font-size="1.67" x="22.043999999999997" y="1.67" class="c">221</text><text font-size="1.67" x="26.052" y="1.67" class="c">done</text><text font-size="1.67" x="31.061999999999998" y="1.67" class="c">(86/s)</text><text font-size="1.67" x="38.07599999999999" y="1.67" class="c">|</text><text font-size="1.67" x="40.08" y="1.67" class="c">2.6s</text></svg><svg x="2320"><use xlink:href="#a"></use><text font-size="1.67" x="0" y="1.67" class="c">⠇</text><text font-size="1.67" x="2.004" y="1.67" class="c">Walking</text><text font-size="1.67" x="10.02" y="1.67" class="c">directories</text><text font-size="1.67" x="22.043999999999997" y="1.67" class="c">230</text><text font-size="1.67" x="26.052" y="1.67" class="c">done</text><text font-size="1.67" x="31.061999999999998" y="1.67" class="c">(86/s)</text><text font-size="1.67" x="38.07599999999999" y="1.67" class="c">|</text><text font-size="1.67" x="40.08" y="1.67" class="c">2.7s</text></svg><svg x="2400"><use xlink:href="#a"></use><text font-size="1.67" x="0" y="1.67" class="c">⠏</text><text font-size="1.67" x="2.004" y="1.67" class="c">Walking</text><text font-size="1.67" x="10.02" y="1.67" class="c">directories</text><text font-size="1.67" x="22.043999999999997" y="1.67" class="c">239</text><text font-size="1.67" x="26.052" y="1.67" class="c">done</text><text font-size="1.67" x="31.061999999999998" y="1.67" class="c">(86/s)</text><text font-size="1.67" x="38.07599999999999" y="1.67" class="c">|</text><text font-size="1.67" x="40.08" y="1.67" class="c">2.8s</text></svg><svg x="2480"><use xlink:href="#a"></use><text font-size="1.67" x="0" y="1.67" class="c">⠋</text><text font-size="1.67" x="2.004" y="1.67" class="c">Walking</text><text font-size="1.67" x="10.02" y="1.67" class="c">directories</text><text font-size="1.67" x="22.043999999999997" y="1.67" class="c">247</text><text font-size="1.67" x="26.052" y="1.67" class="c">done</text><text font-size="1.67" x="31.061999999999998" y="1.67" class="c">(86/s)</text><text font-size="1.67" x="38.07599999999999" y="1.67" class="c">|</text><text font-size="1.67" x="40.08" y="1.67" class="c">2.9s</text></svg><svg x="2560"><use xlink:href="#a"></use><text font-size="1.67" x="0" y="1.67" class="c">⠙</text><text font-size="1.67" x="2.004" y="1.67" class="c">Walking</text><text font-size="1.67" x="10.02" y="1.67" class="c">directories</text><text font-size="1.67" x="22.043999999999997" y="1.67" class="c">256</text><text font-size="1.67" x="26.052" y="1.67" class="c">done</text><text font-size="1.67" x="31.061999999999998" y="1.67" class="c">(86/s)</text><text font-size="1.67" x="38.07599999999999" y="1.67" class="c">|</text><text font-size="1.67" x="40.08" y="1.67" class="c">3s</text></svg><svg x="2640"><use xlink:href="#a"></use><text font-size="1.67" x="0" y="1.67" class="c">⠹</text><text font-size="1.67" x="2.004" y="1.67" class="c">Walking</text><text font-size="1.67" x="10.02" y="1.67" class="c">directories</text><text font-size="1.67" x="22.043999999999997" y="1.67" class="c">265</text><text font-size="1.67" x="26.052" y="1.67" class="c">done</text><text font-size="1.67" x="31.061999999999998" y="1.67" class="c">(86/s)</text><text font-size="1.67" x="38.07599999999999" y="1.67" class="c">|</text><text font-size="1.67" x="40.08" y="1.67" class="c">3.1s</text></svg><svg x="2720"><use xlink:href="#a"></use><text font-size="1.67" x="0" y="1.67" class="c">⠸</text><text font-size="1.67" x="2.004" y="1.67" class="c">Walking</text><text font-size="1.67" x="10.02" y="1.67" class="c">directories</text><text font-size="1.67" x="22.043999999999997" y="1.67" class="c">273</text><text font-size="1.67" x="26.052" y="1.67" class="c">done</text><text font-size="1.67" x="31.061999999999998" y="1.67" class="c">(86/s)</text><text font-size="1.67" x="38.07599999999999" y="1.67" class="c">|</text><text font-size="1.67" x="40.08" y="1.67" class="c">3.2s</text></svg><svg x="2800"><use xlink:href="#a"></use><text font-size="1.67" x="0" y="1.67" class="c">⠼</text><text font-size="1.67" x="2.004" y="1.67" class="c">Walking</text><text font-size="1.67" x="10.02" y="1.67" class="c">directories</text><text font-size="1.67" x="22.043999999999997" y="1.67" class="c">282</text><text font-size="1.67" x="26.052" y="1.67" class="c">done</text><text font-size="1.67" x="31.061999999999998" y="1.67" class="c">(86/s)</text><text font-size="1.67" x="38.07599999999999" y="1.67" class="c">|</text><text font-size="1.67" x="40.08" y="1.67" class="c">3.3s</text></svg><svg x="2880"><use xlink:href="#a"></use><text font-size="1.67" x="0" y="1.67" class="c">⠴</text><text font-size="1.67" x="2.004" y="1.67" class="c">Walking</text><text font-size="1.67" x="10.02" y="1.67" class="c">directories</text><text font-size="1.67" x="22.043999999999997" y="1.67" class="c">291</text><text font-size="1.67" x="26.052" y="1.67" class="c">done</text><text font-size="1.67" x="31.061999999999998" y="1.67" class="c">(86/s)</text><text font-size="1.67" x="38.07599999999999" y="1.67" class="c">|</text><text font-size="1.67" x="40.08" y="1.67" class="c">3.4s</text></svg><svg x="2960"><use xlink:href="#a"></use><text font-size="1.67" x="0" y="1.67" class="c">⠦</text><text font-size="1.67" x="2.004" y="1.67" class="c">Walking</text><text font-size="1.67" x="10.02" y="1.67" class="c">directories</text><text font-size="1.67" x="22.043999999999997" y="1.67" class="c">299</text><text font-size="1.67" x="26.052" y="1.67" class="c">done</text><text font-size="1.67" x="31.061999999999998" y="1.67" class="c">(86/s)</text><text font-size="1.67" x="38.07599999999999" y="1.67" class="c">|</text><text font-size="1.67" x="40.08" y="1.67" class="c">3.5s</text></svg><svg x="3040"><use xlink:href="#a"></use><text font-size="1.67" x="0" y="1.67" class="c">⠧</text><text font-size="1.67" x="2.004" y="1.67" class="c">Walking</text><text font-size="1.67" x="10.02" y="1.67" class="c">directories</text><text font-size="1.67" x="22.043999999999997" y="1.67" class="c">308</text><text font-size="1.67" x="26.052" y="1.67" class="c">done</text><text font-size="1.67" x="31.061999999999998" y="1.67" class="c">(86/s)</text><text font-size="1.67" x="38.07599999999999" y="1.67" class="c">|</text><text font-size="1.67" x="40.08" y="1.67" class="c">3.6s</text></svg><svg x="3120"><use xlink:href="#a"></use><text font-size="1.67" x="0" y="1.67" class="c">⠇</text><text font-size="1.67" x="2.004" y="1.67" class="c">Walking</text><text font-size="1.67" x="10.02" y="1.67" class="c">directories</text><text font-size="1.67" x="22.043999999999997" y="1.67" class="c">317</text><text font-size="1.67" x="26.052" y="1.67" class="c">done</text><text font-size="1.67" x="31.061999999999998" y="1.67" class="c">(86/s)</text><text font-size="1.67" x="38.07599999999999" y="1.67" class="c">|</text><text font-size="1.67" x="40.08" y="1.67" class="c">3.7s</text></svg><svg x="3200"><use xlink:href="#a"></use><text font-size="1.67" x="0" y="1.67" class="c">⠏</text><text font-size="1.67" x="2.004" y="1.67" class="c">Walking</text><text font-size="1.67" x="10.02" y="1.67" class="c">directories</text><text font-size="1.67" x="22.043999999999997" y="1.67" class="c">325</text><text font-size="1.67" x="26.052" y="1.67" class="c">done</text><text font-size="1.67" x="31.061999999999998" y="1.67" class="c">(86/s)</text><text font-size="1.67" x="38.07599999999999" y="1.67" class="c">|</text><text font-size="1.67" x="40.08" y="1.67" class="c">3.8s</text></svg><svg x="3280"><use xlink:href="#a"></use><text font-size="1.67" x="0" y="1.67" class="c">⠋</text><text font-size="1.67" x="2.004" y="1.67" class="c">Walking</text><text font-size="1.67" x="10.02" y="1.67" class="c">directories</text><text font-size="1.67" x="22.043999999999997" y="1.67" class="c">334</text><text font-size="1.67" x="26.052" y="1.67" class="c">done</text><text font-size="1.67" x="31.061999999999998" y="1.67" class="c">(86/s)</text><text font-size="1.67" x="38.07599999999999" y="1.67" class="c">|</text><text font-size="1.67" x="40.08" y="1.67" class="c">3.9s</text></svg><svg x="3360"><use xlink:href="#a"></use><text font-size="1.67" x="0" y="1.67" class="c">⠙</text><text font-size="1.67" x="2.004" y="1.67" class="c">Walking</text><text font-size="1.67" x="10.02" y="1.67" class="c">directories</text><text font-size="1.67" x="22.043999999999997" y="1.67" class="c">343</text><text font-size="1.67" x="26.052" y="1.67" class="c">done</text><text font-size="1.67" x="31.061999999999998" y="1.67" class="c">(86/s)</text><text font-size="1.67" x="38.07599999999999" y="1.67" class="c">|</text><text font-size="1.67" x="40.08" y="1.67" class="c">4s</text></svg><svg x="3440"><use xlink:href="#a"></use><text font-size="1.67" x="0" y="1.67" class="c">⠹</text><text font-size="1.67" x="2.004" y="1.67" class="c">Walking</text><text font-size="1.67" x="10.02" y="1.67" class="c">directories</text><text font-size="1.67" x="22.043999999999997" y="1.67" class="c">351</text><text font-size="1.67" x="26.052" y="1.67" class="c">done</text><text font-size="1.67" x="31.061999999999998" y="1.67" class="c">(86/s)</text><text font-size="1.67" x="38.07599999999999" y="1.67" class="c">|</text><text font-size="1.67" x="40.08" y="1.67" class="c">4.1s</text></svg><svg x="3520"><use xlink:href="#a"></use><text font-size="1.67" x="0" y="1.67" class="c">⠸</text><text font-size="1.67" x="2.004" y="1.67" class="c">Walking</text><text font-size="1.67" x="10.02" y="1.67" class="c">directories</text><text font-size="1.67" x="22.043999999999997" y="1.67" class="c">360</text><text font-size="1.67" x="26.052" y="1.67" class="c">done</text><text font-size="1.67" x="31.061999999999998" y="1.67" class="c">(86/s)</text><text font-size="1.67" x="38.07599999999999" y="1.67" class="c">|</text><text font-size="1.67" x="40.08" y="1.67" class="c">4.2s</text></svg><svg x="3600"><use xlink:href="#a"></use><text font-size="1.67" x="0" y="1.67" class="c">⠼</text><text font-size="1.67" x="2.004" y="1.67" class="c">Walking</text><text font-size="1.67" x="10.02" y="1.67" class="c">directories</text><text font-size="1.67" x="22.043999999999997" y="1.67" class="c">368</text><text font-size="1.67" x="26.052" y="1.67" class="c">done</text><text font-size="1.67" x="31.061999999999998" y="1.67" class="c">(86/s)</text><text font-size="1.67" x="38.07599999999999" y="1.67" class="c">|</text><text font-size="1.67" x="40.08" y="1.67" class="c">4.3s</text></svg><svg x="3680"><use xlink:href="#a"></use><text font-size="1.67" x="0" y="1.67" class="c">⠴</text><text font-size="1.67" x="2.004" y="1.67" class="c">Walking</text><text font-size="1.67" x="10.02" y="1.67" class="c">directories</text><text font-size="1.67" x="22.043999999999997" y="1.67" class="c">377</text><text font-size="1.67" x="26.052" y="1.67" class="c">done</text><text font-size="1.67" x="31.061999999999998" y="1.67" class="c">(86/s)</text><text font-size="1.67" x="38.07599999999999" y="1.67" class="c">|</text><text font-size="1.67" x="40.08" y="1.67" class="c">4.4s</text></svg><svg x="3760"><use xlink:href="#a"></use><text font-size="1.67" x="0" y="1.67" class="c">⠦</text><text font-size="1.67" x="2.004" y="1.67" class="c">Walking</text><text font-size="1.67" x="10.02" y="1.67" class="c">directories</text><text font-size="1.67" x="22.043999999999997" y="1.67" class="c">386</text><text font-size="1.67" x="26.052" y="1.67" class="c">done</text><text font-size="1.67" x="31.061999999999998" y="1.67" class="c">(86/s)</text><text font-size="1.67" x="38.07599999999999" y="1.67" class="c">|</text><text font-size="1.67" x="40.08" y="1.67" class="c">4.5s</text></svg><svg x="3840"><use xlink:href="#a"></use><text font-size="1.67" x="0" y="1.67" class="c">⠧</text><text font-size="1.67" x="2.004" y="1.67" class="c">Walking</text><text font-size="1.67" x="10.02" y="1.67" class="c">directories</text><text font-size="1.67" x="22.043999999999997" y="1.67" class="c">394</text><text font-size="1.67" x="26.052" y="1.67" class="c">done</text><text font-size="1.67" x="31.061999999999998" y="1.67" class="c">(86/s)</text><text font-size="1.67" x="38.07599999999999" y="1.67" class="c">|</text><text font-size="1.67" x="40.08" y="1.67" class="c">4.6s</text></svg><svg x="3920"><use xlink:href="#a"></use><text font-size="1.67" x="0" y="1.67" class="c">⠇</text><text font-size="1.67" x="2.004" y="1.67" class="c">Walking</text><text font-size="1.67" x="10.02" y="1.67" class="c">directories</text><text font-size="1.67" x="22.043999999999997" y="1.67" class="c">403</text><text font-size="1.67" x="26.052" y="1.67" class="c">done</text><text font-size="1.67" x="31.061999999999998" y="1.67" class="c">(86/s)</text><text font-size="1.67" x="38.07599999999999" y="1.67" class="c">|</text><text font-size="1.67" x="40.08" y="1.67" class="c">4.7s</text></svg><svg x="4000"><use xlink:href="#a"></use><text font-size="1.67" x="0" y="1.67" class="c">⠏</text><text font-size="1.67" x="2.004" y="1.67" class="c">Walking</text><text font-size="1.67" x="10.02" y="1.67" class="c">directories</text><text font-size="1.67" x="22.043999999999997" y="1.67" class="c">412</text><text font-size="1.67" x="26.052" y="1.67" class="c">done</text><text font-size="1.67" x="31.061999999999998" y="1.67" class="c">(86/s)</text><text font-size="1.67" x="38.07599999999999" y="1.67" class="c">|</text><text font-size="1.67" x="40.08" y="1.67" class="c">4.8s</text></svg><svg x="4080"><use xlink:href="#a"></use><text font-size="1.67" x="0" y="1.67" class="c">⠋</text><text font-size="1.67" x="2.004" y="1.67" class="c">Walking</text><text font-size="1.67" x="10.02" y="1.67" class="c">directories</text><text font-size="1.67" x="22.043999999999997" y="1.67" class="c">420</text><text font-size="1.67" x="26.052" y="1.67" class="c">done</text><text font-size="1.67" x="31.061999999999998" y="1.67" class="c">(86/s)</text><text font-size="1.67" x="38.07599999999999" y="1.67" class="c">|</text><text font-size="1.67" x="40.08" y="1.67" class="c">4.9s</text></svg><svg x="4160"><use xlink:href="#a"></use><text font-size="1.67" x="0" y="1.67" class="c">⠙</text><text font-size="1.67" x="2.004" y="1.67" class="c">Walking</text><text font-size="1.67" x="10.02" y="1.67" class="c">directories</text><text font-size="1.67" x="22.043999999999997" y="1.67" class="c">429</text><text font-size="1.67" x="26.052" y="1.67" class="c">done</text><text font-size="1.67" x="31.061999999999998" y="1.67" class="c">(86/s)</text><text font-size="1.67" x="38.07599999999999" y="1.67" class="c">|</text><text font-size="1.67" x="40.08" y="1.67" class="c">5s</text></svg><svg x="4240"><use xlink:href="#a"></use><text font-size="1.67" x="0" y="1.67" class="c">⠹</text><text font-size="1.67" x="2.004" y="1.67" class="c">Walking</text><text font-size="1.67" x="10.02" y="1.67" class="c">directories</text><text font-size="1.67" x="22.043999999999997" y="1.67" class="c">438</text><text font-size="1.67" x="26.052" y="1.67" class="c">done</text><text font-size="1.67" x="31.061999999999998" y="1.67" class="c">(86/s)</text><text font-size="1.67" x="38.07599999999999" y="1.67" class="c">|</text><text font-size="1.67" x="40.08" y="1.67" class="c">5.1s</text></svg><svg x="4320"><use xlink:href="#a"></use><text font-size="1.67" x="0" y="1.67" class="c">⠸</text><text font-size="1.67" x="2.004" y="1.67" class="c">Walking</text><text font-size="1.67" x="10.02" y="1.67" class="c">directories</text><text font-size="1.67" x="22.043999999999997" y="1.67" class="c">446</text><text font-size="1.67" x="26.052" y="1.67" class="c">done</text><text font-size="1.67" x="31.061999999999998" y="1.67" class="c">(86/s)</text><text font-size="1.67" x="38.07599999999999" y="1.67" class="c">|</text><text font-size="1.67" x="40.08" y="1.67" class="c">5.2s</text></svg><svg x="4400"><use xlink:href="#a"></use><text font-size="1.67" x="0" y="1.67" class="c">⠼</text><text font-size="1.67" x="2.004" y="1.67" class="c">Walking</text><text font-size="1.67" x="10.02" y="1.67" class="c">directories</text><text font-size="1.67" x="22.043999999999997" y="1.67" class="c">455</text><text font-size="1.67" x="26.052" y="1.67" class="c">done</text><text font-size="1.67" x="31.061999999999998" y="1.67" class="c">(86/s)</text><text font-size="1.67" x="38.07599999999999" y="1.67" class="c">|</text><text font-size="1.67" x="40.08" y="1.67" class="c">5.3s</text></svg><svg x="4480"><use xlink:href="#a"></use><use xlink:href="#1" y="0"></use></svg><svg x="4560"><use xlink:href="#a"></use><use xlink:href="#1" y="0"></use></svg><svg x="4640"><use xlink:href="#a"></use><use xlink:href="#1" y="0"></use></svg><svg x="4720"><use xlink:href="#a"></use><use xlink:href="#1" y="0"></use></svg><svg x="4800"><use xlink:href="#a"></use><use xlink:href="#1" y="0"></use></svg></svg></g></g></svg></svg>