<svg xmlns="http://www.w3.org/2000/svg" xmlns:xlink="http://www.w3.org/1999/xlink" width="840" height="61.709999999999994"><rect width="840" height="61.709999999999994" rx="0" ry="0" class="a"></rect><svg height="21.709999999999997" viewBox="0 0 80 2.171" width="800" x="20" xmlns="http://www.w3.org/2000/svg" xmlns:xlink="http://www.w3.org/1999/xlink" y="20"><style>.a{fill:rgb(241,243,245)}.b{font-family:'Fira Code',Monaco,Consolas,Menlo,'Bitstream Vera Sans Mono','Powerline Symbols',monospace}.c{fill:rgb(23,36,49);white-space:pre}.d{fill:transparent}.e{fill:rgb(23,36,49)}.g{animation-duration:11.3797969999999s;animation-iteration-count:infinite;animation-name:f;animation-timing-function:steps(1,end)}@keyframes f{0%{transform:translateX(-0px)}0.4%{transform:translateX(-80px)}0.5%{transform:translateX(-160px)}1.2%{transform:translateX(-240px)}2.1%{transform:translateX(-320px)}3%{transform:translateX(-400px)}3.8%{transform:translateX(-480px)}4.7%{transform:translateX(-560px)}5.6%{transform:translateX(-640px)}6.5%{transform:translateX(-720px)}7.4%{transform:translateX(-800px)}8.2%{transform:translateX(-880px)}9.2%{transform:translateX(-960px)}10%{transform:translateX(-1040px)}10.9%{transform:translateX(-1120px)}11.8%{transform:translateX(-1200px)}12.7%{transform:translateX(-1280px)}13.5%{transform:translateX(-1360px)}14.4%{transform:translateX(-1440px)}15.3%{transform:translateX(-1520px)}16.1%{transform:translateX(-1600px)}17%{transform:translateX(-1680px)}18%{transform:translateX(-1760px)}18.8%{transform:translateX(-1840px)}19.7%{transform:translateX(-1920px)}20.6%{transform:translateX(-2000px)}21.5%{transform:translateX(-2080px)}22.3%{transform:translateX(-2160px)}23.2%{transform:translateX(-2240px)}24.1%{transform:translateX(-2320px)}24.9%{transform:translateX(-2400px)}25.8%{transform:translateX(-2480px)}26.8%{transform:translateX(-2560px)}27.6%{transform:translateX(-2640px)}28.5%{transform:translateX(-2720px)}29.4%{transform:translateX(-2800px)}30.2%{transform:translateX(-2880px)}31.1%{transform:translateX(-2960px)}32%{transform:translateX(-3040px)}32.9%{transform:translateX(-3120px)}33.7%{transform:translateX(-3200px)}34.7%{transform:translateX(-3280px)}35.6%{transform:translateX(-3360px)}36.4%{transform:translateX(-3440px)}37.3%{transform:translateX(-3520px)}38.2%{transform:translateX(-3600px)}39.1%{transform:translateX(-3680px)}39.9%{transform:translateX(-3760px)}40.8%{transform:translateX(-3840px)}41.7%{transform:translateX(-3920px)}42.6%{transform:translateX(-4000px)}43.5%{transform:translateX(-4080px)}44.4%{transform:translateX(-4160px)}45.2%{transform:translateX(-4240px)}46.1%{transform:translateX(-4320px)}47%{transform:translateX(-4400px)}47.2%{transform:translateX(-4480px)}47.3%{transform:translateX(-4560px)}47.3%{transform:translateX(-4640px)}47.3%{transform:translateX(-4720px)}100%{transform:translateX(-4800px)}}</style><g font-family="&#x27;Fira Code&#x27;,Monaco,Consolas,Menlo,&#x27;Bitstream Vera Sans Mono&#x27;,&#x27;Powerline Symbols&#x27;,monospace" font-size="1.67" class="b"><defs><symbol id="1"><text font-size="1.67" x="0" y="1.67" class="c">⠴</text><text font-size="1.67" x="2.004" y="1.67" class="c">Walking</text><text font-size="1.67" x="10.02" y="1.67" class="c">directories</text><text font-size="1.67" x="22.043999999999997" y="1.67" class="c">463</text><text font-size="1.67" x="26.052" y="1.67" class="c">done</text><text font-size="1.67" x="31.061999999999998" y="1.67" class="c">(87/s)</text><text font-size="1.67" x="38.07599999999999" y="1.67" class="c">|</text><text font-size="1.67" x="40.08" y="1.67" class="c">5.3s</text></symbol><symbol id="a"><rect height="1" width="80" x="0" y="0" class="d"></rect></symbol><symbol id="b"><rect height="2.171" width="1.1022" class="e"></rect></symbol></defs><rect height="2.171" width="80" class="a"></rect><g class="g"><svg x="0" y="0" width="4880"><svg x="0"><use xlink:href="#a"></use><use xlink:href="#b" x="-0.0040000000000000036" y="0"></use></svg><svg x="80"><use xlink:href="#a"></use></svg><svg x="160"><use xlink:href="#a"></use><text font-size="1.67" x="0" y="1.67" class="c">⠙</text><text font-size="1.67" x="2.004" y="1.67" class="c">Walking</text><text font-size="1.67" x="10.02" y="1.67" class="c">directories</text><text font-size="1.67" x="22.043999999999997" y="1.67" class="c">1</text><text font-size="1.67" x="24.048" y="1.67" class="c">done</text><text font-size="1.67" x="29.058" y="1.67" class="c">(86/s)</text><text font-size="1.67" x="36.071999999999996" y="1.67" class="c">|</text><text font-size="1.67" x="38.07599999999999" y="1.67" class="c">12ms</text></svg><svg x="240"><use xlink:href="#a"></use><text font-size="1.67" x="0" y="1.67" class="c">⠹</text><text font-size="1.67" x="2.004" y="1.67" class="c">Walking</text><text font-size="1.67" x="10.02" y="1.67" class="c">directories</text><text font-size="1.67" x="22.043999999999997" y="1.67" class="c">8</text><text font-size="1.67" x="24.048" y="1.67" class="c">done</text><text font-size="1.67" x="29.058" y="1.67" class="c">(81/s)</text><text font-size="1.67" x="36.071999999999996" y="1.67" class="c">|</text><text font-size="1.67" x="38.07599999999999" y="1.67" class="c">99ms</text></svg><svg x="320"><use xlink:href="#a"></use><text font-size="1.67" x="0" y="1.67" class="c">⠸</text><text font-size="1.67" x="2.004" y="1.67" class="c">Walking</text><text font-size="1.67" x="10.02" y="1.67" class="c">directories</text><text font-size="1.67" x="22.043999999999997" y="1.67" class="c">17</text><text font-size="1.67" x="25.05" y="1.67" class="c">done</text><text font-size="1.67" x="30.059999999999995" y="1.67" class="c">(84/s)</text><text font-size="1.67" x="37.074" y="1.67" class="c">|</text><text font-size="1.67" x="39.077999999999996" y="1.67" class="c">202ms</text></svg><svg x="400"><use xlink:href="#a"></use><text font-size="1.67" x="0" y="1.67" class="c">⠼</text><text font-size="1.67" x="2.004" y="1.67" class="c">Walking</text><text font-size="1.67" x="10.02" y="1.67" class="c">directories</text><text font-size="1.67" x="22.043999999999997" y="1.67" class="c">26</text><text font-size="1.67" x="25.05" y="1.67" class="c">done</text><text font-size="1.67" x="30.059999999999995" y="1.67" class="c">(86/s)</text><text font-size="1.67" x="37.074" y="1.67" class="c">|</text><text font-size="1.67" x="39.077999999999996" y="1.67" class="c">304ms</text></svg><svg x="480"><use xlink:href="#a"></use><text font-size="1.67" x="0" y="1.67" class="c">⠴</text><text font-size="1.67" x="2.004" y="1.67" class="c">Walking</text><text font-size="1.67" x="10.02" y="1.67" class="c">directories</text><text font-size="1.67" x="22.043999999999997" y="1.67" class="c">34</text><text font-size="1.67" x="25.05" y="1.67" class="c">done</text><text font-size="1.67" x="30.059999999999995" y="1.67" class="c">(86/s)</text><text font-size="1.67" x="37.074" y="1.67" class="c">|</text><text font-size="1.67" x="39.077999999999996" y="1.67" class="c">398ms</text></svg><svg x="560"><use xlink:href="#a"></use><text font-size="1.67" x="0" y="1.67" class="c">⠦</text><text font-size="1.67" x="2.004" y="1.67" class="c">Walking</text><text font-size="1.67" x="10.02" y="1.67" class="c">directories</text><text font-size="1.67" x="22.043999999999997" y="1.67" class="c">43</text><text font-size="1.67" x="25.05" y="1.67" class="c">done</text><text font-size="1.67" x="30.059999999999995" y="1.67" class="c">(86/s)</text><text font-size="1.67" x="37.074" y="1.67" class="c">|</text><text font-size="1.67" x="39.077999999999996" y="1.67" class="c">501ms</text></svg><svg x="640"><use xlink:href="#a"></use><text font-size="1.67" x="0" y="1.67" class="c">⠧</text><text font-size="1.67" x="2.004" y="1.67" class="c">Walking</text><text font-size="1.67" x="10.02" y="1.67" class="c">directories</text><text font-size="1.67" x="22.043999999999997" y="1.67" class="c">52</text><text font-size="1.67" x="25.05" y="1.67" class="c">done</text><text font-size="1.67" x="30.059999999999995" y="1.67" class="c">(86/s)</text><text font-size="1.67" x="37.074" y="1.67" class="c">|</text><text font-size="1.67" x="39.077999999999996" y="1.67" class="c">604ms</text></svg><svg x="720"><use xlink:href="#a"></use><text font-size="1.67" x="0" y="1.67" class="c">⠇</text><text font-size="1.67" x="2.004" y="1.67" class="c">Walking</text><text font-size="1.67" x="10.02" y="1.67" class="c">directories</text><text font-size="1.67" x="22.043999999999997" y="1.67" class="c">60</text><text font-size="1.67" x="25.05" y="1.67" class="c">done</text><text font-size="1.67" x="30.059999999999995" y="1.67" class="c">(86/s)</text><text font-size="1.67" x="37.074" y="1.67" class="c">|</text><text font-size="1.67" x="39.077999999999996" y="1.67" class="c">697ms</text></svg><svg x="800"><use xlink:href="#a"></use><text font-size="1.67" x="0" y="1.67" class="c">⠏</text><text font-size="1.67" x="2.004" y="1.67" class="c">Walking</text><text font-size="1.67" x="10.02" y="1.67" class="c">directories</text><text font-size="1.67" x="22.043999999999997" y="1.67" class="c">69</text><text font-size="1.67" x="25.05" y="1.67" class="c">done</text><text font-size="1.67" x="30.059999999999995" y="1.67" class="c">(86/s)</text><text font-size="1.67" x="37.074" y="1.67" class="c">|</text><text font-size="1.67" x="39.077999999999996" y="1.67" class="c">801ms</text></svg><svg x="880"><use xlink:href="#a"></use><text font-size="1.67" x="0" y="1.67" class="c">⠋</text><text font-size="1.67" x="2.004" y="1.67" class="c">Walking</text><text font-size="1.67" x="10.02" y="1.67" class="c">directories</text><text font-size="1.67" x="22.043999999999997" y="1.67" class="c">78</text><text font-size="1.67" x="25.05" y="1.67" class="c">done</text><text font-size="1.67" x="30.059999999999995" y="1.67" class="c">(87/s)</text><text font-size="1.67" x="37.074" y="1.67" class="c">|</text><text font-size="1.67" x="39.077999999999996" y="1.67" class="c">902ms</text></svg><svg x="960"><use xlink:href="#a"></use><text font-size="1.67" x="0" y="1.67" class="c">⠙</text><text font-size="1.67" x="2.004" y="1.67" class="c">Walking</text><text font-size="1.67" x="10.02" y="1.67" class="c">directories</text><text font-size="1.67" x="22.043999999999997" y="1.67" class="c">87</text><text font-size="1.67" x="25.05" y="1.67" class="c">done</text><text font-size="1.67" x="30.059999999999995" y="1.67" class="c">(87/s)</text><text font-size="1.67" x="37.074" y="1.67" class="c">|</text><text font-size="1.67" x="39.077999999999996" y="1.67" class="c">1s</text></svg><svg x="1040"><use xlink:href="#a"></use><text font-size="1.67" x="0" y="1.67" class="c">⠹</text><text font-size="1.67" x="2.004" y="1.67" class="c">Walking</text><text font-size="1.67" x="10.02" y="1.67" class="c">directories</text><text font-size="1.67" x="22.043999999999997" y="1.67" class="c">95</text><text font-size="1.67" x="25.05" y="1.67" class="c">done</text><text font-size="1.67" x="30.059999999999995" y="1.67" class="c">(87/s)</text><text font-size="1.67" x="37.074" y="1.67" class="c">|</text><text font-size="1.67" x="39.077999999999996" y="1.67" class="c">1.1s</text></svg><svg x="1120"><use xlink:href="#a"></use><text font-size="1.67" x="0" y="1.67" class="c">⠸</text><text font-size="1.67" x="2.004" y="1.67" class="c">Walking</text><text font-size="1.67" x="10.02" y="1.67" class="c">directories</text><text font-size="1.67" x="22.043999999999997" y="1.67" class="c">104</text><text font-size="1.67" x="26.052" y="1.67" class="c">done</text><text font-size="1.67" x="31.061999999999998" y="1.67" class="c">(87/s)</text><text font-size="1.67" x="38.07599999999999" y="1.67" class="c">|</text><text font-size="1.67" x="40.08" y="1.67" class="c">1.2s</text></svg><svg x="1200"><use xlink:href="#a"></use><text font-size="1.67" x="0" y="1.67" class="c">⠼</text><text font-size="1.67" x="2.004" y="1.67" class="c">Walking</text><text font-size="1.67" x="10.02" y="1.67" class="c">directories</text><text font-size="1.67" x="22.043999999999997" y="1.67" class="c">113</text><text font-size="1.67" x="26.052" y="1.67" class="c">done</text><text font-size="1.67" x="31.061999999999998" y="1.67" class="c">(87/s)</text><text font-size="1.67" x="38.07599999999999" y="1.67" class="c">|</text><text font-size="1.67" x="40.08" y="1.67" class="c">1.3s</text></svg><svg x="1280"><use xlink:href="#a"></use><text font-size="1.67" x="0" y="1.67" class="c">⠴</text><text font-size="1.67" x="2.004" y="1.67" class="c">Walking</text><text font-size="1.67" x="10.02" y="1.67" class="c">directories</text><text font-size="1.67" x="22.043999999999997" y="1.67" class="c">122</text><text font-size="1.67" x="26.052" y="1.67" class="c">done</text><text font-size="1.67" x="31.061999999999998" y="1.67" class="c">(87/s)</text><text font-size="1.67" x="38.07599999999999" y="1.67" class="c">|</text><text font-size="1.67" x="40.08" y="1.67" class="c">1.4s</text></svg><svg x="1360"><use xlink:href="#a"></use><text font-size="1.67" x="0" y="1.67" class="c">⠦</text><text font-size="1.67" x="2.004" y="1.67" class="c">Walking</text><text font-size="1.67" x="10.02" y="1.67" class="c">directories</text><text font-size="1.67" x="22.043999999999997" y="1.67" class="c">130</text><text font-size="1.67" x="26.052" y="1.67" class="c">done</text><text font-size="1.67" x="31.061999999999998" y="1.67" class="c">(87/s)</text><text font-size="1.67" x="38.07599999999999" y="1.67" class="c">|</text><text font-size="1.67" x="40.08" y="1.67" class="c">1.5s</text></svg><svg x="1440"><use xlink:href="#a"></use><text font-size="1.67" x="0" y="1.67" class="c">⠧</text><text font-size="1.67" x="2.004" y="1.67" class="c">Walking</text><text font-size="1.67" x="10.02" y="1.67" class="c">directories</text><text font-size="1.67" x="22.043999999999997" y="1.67" class="c">139</text><text font-size="1.67" x="26.052" y="1.67" class="c">done</text><text font-size="1.67" x="31.061999999999998" y="1.67" class="c">(87/s)</text><text font-size="1.67" x="38.07599999999999" y="1.67" class="c">|</text><text font-size="1.67" x="40.08" y="1.67" class="c">1.6s</text></svg><svg x="1520"><use xlink:href="#a"></use><text font-size="1.67" x="0" y="1.67" class="c">⠇</text><text font-size="1.67" x="2.004" y="1.67" class="c">Walking</text><text font-size="1.67" x="10.02" y="1.67" class="c">directories</text><text font-size="1.67" x="22.043999999999997" y="1.67" class="c">148</text><text font-size="1.67" x="26.052" y="1.67" class="c">done</text><text font-size="1.67" x="31.061999999999998" y="1.67" class="c">(87/s)</text><text font-size="1.67" x="38.07599999999999" y="1.67" class="c">|</text><text font-size="1.67" x="40.08" y="1.67" class="c">1.7s</text></svg><svg x="1600"><use xlink:href="#a"></use><text font-size="1.67" x="0" y="1.67" class="c">⠏</text><text font-size="1.67" x="2.004" y="1.67" class="c">Walking</text><text font-size="1.67" x="10.02" y="1.67" class="c">directories</text><text font-size="1.67" x="22.043999999999997" y="1.67" class="c">156</text><text font-size="1.67" x="26.052" y="1.67" class="c">done</text><text font-size="1.67" x="31.061999999999998" y="1.67" class="c">(87/s)</text><text font-size="1.67" x="38.07599999999999" y="1.67" class="c">|</text><text font-size="1.67" x="40.08" y="1.67" class="c">1.8s</text></svg><svg x="1680"><use xlink:href="#a"></use><text font-size="1.67" x="0" y="1.67" class="c">⠋</text><text font-size="1.67" x="2.004" y="1.67" class="c">Walking</text><text font-size="1.67" x="10.02" y="1.67" class="c">directories</text><text font-size="1.67" x="22.043999999999997" y="1.67" class="c">165</text><text font-size="1.67" x="26.052" y="1.67" class="c">done</text><text font-size="1.67" x="31.061999999999998" y="1.67" class="c">(87/s)</text><text font-size="1.67" x="38.07599999999999" y="1.67" class="c">|</text><text font-size="1.67" x="40.08" y="1.67" class="c">1.9s</text></svg><svg x="1760"><use xlink:href="#a"></use><text font-size="1.67" x="0" y="1.67" class="c">⠙</text><text font-size="1.67" x="2.004" y="1.67" class="c">Walking</text><text font-size="1.67" x="10.02" y="1.67" class="c">directories</text><text font-size="1.67" x="22.043999999999997" y="1.67" class="c">174</text><text font-size="1.67" x="26.052" y="1.67" class="c">done</text><text font-size="1.67" x="31.061999999999998" y="1.67" class="c">(87/s)</text><text font-size="1.67" x="38.07599999999999" y="1.67" class="c">|</text><text font-size="1.67" x="40.08" y="1.67" class="c">2s</text></svg><svg x="1840"><use xlink:href="#a"></use><text font-size="1.67" x="0" y="1.67" class="c">⠹</text><text font-size="1.67" x="2.004" y="1.67" class="c">Walking</text><text font-size="1.67" x="10.02" y="1.67" class="c">directories</text><text font-size="1.67" x="22.043999999999997" y="1.67" class="c">182</text><text font-size="1.67" x="26.052" y="1.67" class="c">done</text><text font-size="1.67" x="31.061999999999998" y="1.67" class="c">(87/s)</text><text font-size="1.67" x="38.07599999999999" y="1.67" class="c">|</text><text font-size="1.67" x="40.08" y="1.67" class="c">2.1s</text></svg><svg x="1920"><use xlink:href="#a"></use><text font-size="1.67" x="0" y="1.67" class="c">⠸</text><text font-size="1.67" x="2.004" y="1.67" class="c">Walking</text><text font-size="1.67" x="10.02" y="1.67" class="c">directories</text><text font-size="1.67" x="22.043999999999997" y="1.67" class="c">191</text><text font-size="1.67" x="26.052" y="1.67" class="c">done</text><text font-size="1.67" x="31.061999999999998" y="1.67" class="c">(87/s)</text><text font-size="1.67" x="38.07599999999999" y="1.67" class="c">|</text><text font-size="1.67" x="40.08" y="1.67" class="c">2.2s</text></svg><svg x="2000"><use xlink:href="#a"></use><text font-size="1.67" x="0" y="1.67" class="c">⠼</text><text font-size="1.67" x="2.004" y="1.67" class="c">Walking</text><text font-size="1.67" x="10.02" y="1.67" class="c">directories</text><text font-size="1.67" x="22.043999999999997" y="1.67" class="c">200</text><text font-size="1.67" x="26.052" y="1.67" class="c">done</text><text font-size="1.67" x="31.061999999999998" y="1.67" class="c">(87/s)</text><text font-size="1.67" x="38.07599999999999" y="1.67" class="c">|</text><text font-size="1.67" x="40.08" y="1.67" class="c">2.3s</text></svg><svg x="2080"><use xlink:href="#a"></use><text font-size="1.67" x="0" y="1.67" class="c">⠴</text><text font-size="1.67" x="2.004" y="1.67" class="c">Walking</text><text font-size="1.67" x="10.02" y="1.67" class="c">directories</text><text font-size="1.67" x="22.043999999999997" y="1.67" class="c">209</text><text font-size="1.67" x="26.052" y="1.67" class="c">done</text><text font-size="1.67" x="31.061999999999998" y="1.67" class="c">(87/s)</text><text font-size="1.67" x="38.07599999999999" y="1.67" class="c">|</text><text font-size="1.67" x="40.08" y="1.67" class="c">2.4s</text></svg><svg x="2160"><use xlink:href="#a"></use><text font-size="1.67" x="0" y="1.67" class="c">⠦</text><text font-size="1.67" x="2.004" y="1.67" class="c">Walking</text><text font-size="1.67" x="10.02" y="1.67" class="c">directories</text><text font-size="1.67" x="22.043999999999997" y="1.67" class="c">217</text><text font-size="1.67" x="26.052" y="1.67" class="c">done</text><text font-size="1.67" x="31.061999999999998" y="1.67" class="c">(87/s)</text><text font-size="1.67" x="38.07599999999999" y="1.67" class="c">|</text><text font-size="1.67" x="40.08" y="1.67" class="c">2.5s</text></svg><svg x="2240"><use xlink:href="#a"></use><text font-size="1.67" x="0" y="1.67" class="c">⠧</text><text font-size="1.67" x="2.004" y="1.67" class="c">Walking</text><text font-size="1.67" x="10.02" y="1.67" class="c">directories</text><text font-size="1.67" x="22.043999999999997" y="1.67" class="c">226</text><text font-size="1.67" x="26.052" y="1.67" class="c">done</text><text font-size="1.67" x="31.061999999999998" y="1.67" class="c">(87/s)</text><text font-size="1.67" x="38.07599999999999" y="1.67" class="c">|</text><text font-size="1.67" x="40.08" y="1.67" class="c">2.6s</text></svg><svg x="2320"><use xlink:href="#a"></use><text font-size="1.67" x="0" y="1.67" class="c">⠇</text><text font-size="1.67" x="2.004" y="1.67" class="c">Walking</text><text font-size="1.67" x="10.02" y="1.67" class="c">directories</text><text font-size="1.67" x="22.043999999999997" y="1.67" class="c">235</text><text font-size="1.67" x="26.052" y="1.67" class="c">done</text><text font-size="1.67" x="31.061999999999998" y="1.67" class="c">(87/s)</text><text font-size="1.67" x="38.07599999999999" y="1.67" class="c">|</text><text font-size="1.67" x="40.08" y="1.67" class="c">2.7s</text></svg><svg x="2400"><use xlink:href="#a"></use><text font-size="1.67" x="0" y="1.67" class="c">⠏</text><text font-size="1.67" x="2.004" y="1.67" class="c">Walking</text><text font-size="1.67" x="10.02" y="1.67" class="c">directories</text><text font-size="1.67" x="22.043999999999997" y="1.67" class="c">243</text><text font-size="1.67" x="26.052" y="1.67" class="c">done</text><text font-size="1.67" x="31.061999999999998" y="1.67" class="c">(87/s)</text><text font-size="1.67" x="38.07599999999999" y="1.67" class="c">|</text><text font-size="1.67" x="40.08" y="1.67" class="c">2.8s</text></svg><svg x="2480"><use xlink:href="#a"></use><text font-size="1.67" x="0" y="1.67" class="c">⠋</text><text font-size="1.67" x="2.004" y="1.67" class="c">Walking</text><text font-size="1.67" x="10.02" y="1.67" class="c">directories</text><text font-size="1.67" x="22.043999999999997" y="1.67" class="c">252</text><text font-size="1.67" x="26.052" y="1.67" class="c">done</text><text font-size="1.67" x="31.061999999999998" y="1.67" class="c">(87/s)</text><text font-size="1.67" x="38.07599999999999" y="1.67" class="c">|</text><text font-size="1.67" x="40.08" y="1.67" class="c">2.9s</text></svg><svg x="2560"><use xlink:href="#a"></use><text font-size="1.67" x="0" y="1.67" class="c">⠙</text><text font-size="1.67" x="2.004" y="1.67" class="c">Walking</text><text font-size="1.67" x="10.02" y="1.67" class="c">directories</text><text font-size="1.67" x="22.043999999999997" y="1.67" class="c">261</text><text font-size="1.67" x="26.052" y="1.67" class="c">done</text><text font-size="1.67" x="31.061999999999998" y="1.67" class="c">(87/s)</text><text font-size="1.67" x="38.07599999999999" y="1.67" class="c">|</text><text font-size="1.67" x="40.08" y="1.67" class="c">3s</text></svg><svg x="2640"><use xlink:href="#a"></use><text font-size="1.67" x="0" y="1.67" class="c">⠹</text><text font-size="1.67" x="2.004" y="1.67" class="c">Walking</text><text font-size="1.67" x="10.02" y="1.67" class="c">directories</text><text font-size="1.67" x="22.043999999999997" y="1.67" class="c">269</text><text font-size="1.67" x="26.052" y="1.67" class="c">done</text><text font-size="1.67" x="31.061999999999998" y="1.67" class="c">(87/s)</text><text font-size="1.67" x="38.07599999999999" y="1.67" class="c">|</text><text font-size="1.67" x="40.08" y="1.67" class="c">3.1s</text></svg><svg x="2720"><use xlink:href="#a"></use><text font-size="1.67" x="0" y="1.67" class="c">⠸</text><text font-size="1.67" x="2.004" y="1.67" class="c">Walking</text><text font-size="1.67" x="10.02" y="1.67" class="c">directories</text><text font-size="1.67" x="22.043999999999997" y="1.67" class="c">278</text><text font-size="1.67" x="26.052" y="1.67" class="c">done</text><text font-size="1.67" x="31.061999999999998" y="1.67" class="c">(87/s)</text><text font-size="1.67" x="38.07599999999999" y="1.67" class="c">|</text><text font-size="1.67" x="40.08" y="1.67" class="c">3.2s</text></svg><svg x="2800"><use xlink:href="#a"></use><text font-size="1.67" x="0" y="1.67" class="c">⠼</text><text font-size="1.67" x="2.004" y="1.67" class="c">Walking</text><text font-size="1.67" x="10.02" y="1.67" class="c">directories</text><text font-size="1.67" x="22.043999999999997" y="1.67" class="c">287</text><text font-size="1.67" x="26.052" y="1.67" class="c">done</text><text font-size="1.67" x="31.061999999999998" y="1.67" class="c">(87/s)</text><text font-size="1.67" x="38.07599999999999" y="1.67" class="c">|</text><text font-size="1.67" x="40.08" y="1.67" class="c">3.3s</text></svg><svg x="2880"><use xlink:href="#a"></use><text font-size="1.67" x="0" y="1.67" class="c">⠴</text><text font-size="1.67" x="2.004" y="1.67" class="c">Walking</text><text font-size="1.67" x="10.02" y="1.67" class="c">directories</text><text font-size="1.67" x="22.043999999999997" y="1.67" class="c">295</text><text font-size="1.67" x="26.052" y="1.67" class="c">done</text><text font-size="1.67" x="31.061999999999998" y="1.67" class="c">(87/s)</text><text font-size="1.67" x="38.07599999999999" y="1.67" class="c">|</text><text font-size="1.67" x="40.08" y="1.67" class="c">3.4s</text></svg><svg x="2960"><use xlink:href="#a"></use><text font-size="1.67" x="0" y="1.67" class="c">⠦</text><text font-size="1.67" x="2.004" y="1.67" class="c">Walking</text><text font-size="1.67" x="10.02" y="1.67" class="c">directories</text><text font-size="1.67" x="22.043999999999997" y="1.67" class="c">304</text><text font-size="1.67" x="26.052" y="1.67" class="c">done</text><text font-size="1.67" x="31.061999999999998" y="1.67" class="c">(87/s)</text><text font-size="1.67" x="38.07599999999999" y="1.67" class="c">|</text><text font-size="1.67" x="40.08" y="1.67" class="c">3.5s</text></svg><svg x="3040"><use xlink:href="#a"></use><text font-size="1.67" x="0" y="1.67" class="c">⠧</text><text font-size="1.67" x="2.004" y="1.67" class="c">Walking</text><text font-size="1.67" x="10.02" y="1.67" class="c">directories</text><text font-size="1.67" x="22.043999999999997" y="1.67" class="c">313</text><text font-size="1.67" x="26.052" y="1.67" class="c">done</text><text font-size="1.67" x="31.061999999999998" y="1.67" class="c">(87/s)</text><text font-size="1.67" x="38.07599999999999" y="1.67" class="c">|</text><text font-size="1.67" x="40.08" y="1.67" class="c">3.6s</text></svg><svg x="3120"><use xlink:href="#a"></use><text font-size="1.67" x="0" y="1.67" class="c">⠇</text><text font-size="1.67" x="2.004" y="1.67" class="c">Walking</text><text font-size="1.67" x="10.02" y="1.67" class="c">directories</text><text font-size="1.67" x="22.043999999999997" y="1.67" class="c">322</text><text font-size="1.67" x="26.052" y="1.67" class="c">done</text><text font-size="1.67" x="31.061999999999998" y="1.67" class="c">(87/s)</text><text font-size="1.67" x="38.07599999999999" y="1.67" class="c">|</text><text font-size="1.67" x="40.08" y="1.67" class="c">3.7s</text></svg><svg x="3200"><use xlink:href="#a"></use><text font-size="1.67" x="0" y="1.67" class="c">⠏</text><text font-size="1.67" x="2.004" y="1.67" class="c">Walking</text><text font-size="1.67" x="10.02" y="1.67" class="c">directories</text><text font-size="1.67" x="22.043999999999997" y="1.67" class="c">330</text><text font-size="1.67" x="26.052" y="1.67" class="c">done</text><text font-size="1.67" x="31.061999999999998" y="1.67" class="c">(87/s)</text><text font-size="1.67" x="38.07599999999999" y="1.67" class="c">|</text><text font-size="1.67" x="40.08" y="1.67" class="c">3.8s</text></svg><svg x="3280"><use xlink:href="#a"></use><text font-size="1.67" x="0" y="1.67" class="c">⠋</text><text font-size="1.67" x="2.004" y="1.67" class="c">Walking</text><text font-size="1.67" x="10.02" y="1.67" class="c">directories</text><text font-size="1.67" x="22.043999999999997" y="1.67" class="c">339</text><text font-size="1.67" x="26.052" y="1.67" class="c">done</text><text font-size="1.67" x="31.061999999999998" y="1.67" class="c">(87/s)</text><text font-size="1.67" x="38.07599999999999" y="1.67" class="c">|</text><text font-size="1.67" x="40.08" y="1.67" class="c">3.9s</text></svg><svg x="3360"><use xlink:href="#a"></use><text font-size="1.67" x="0" y="1.67" class="c">⠙</text><text font-size="1.67" x="2.004" y="1.67" class="c">Walking</text><text font-size="1.67" x="10.02" y="1.67" class="c">directories</text><text font-size="1.67" x="22.043999999999997" y="1.67" class="c">348</text><text font-size="1.67" x="26.052" y="1.67" class="c">done</text><text font-size="1.67" x="31.061999999999998" y="1.67" class="c">(87/s)</text><text font-size="1.67" x="38.07599999999999" y="1.67" class="c">|</text><text font-size="1.67" x="40.08" y="1.67" class="c">4s</text></svg><svg x="3440"><use xlink:href="#a"></use><text font-size="1.67" x="0" y="1.67" class="c">⠹</text><text font-size="1.67" x="2.004" y="1.67" class="c">Walking</text><text font-size="1.67" x="10.02" y="1.67" class="c">directories</text><text font-size="1.67" x="22.043999999999997" y="1.67" class="c">356</text><text font-size="1.67" x="26.052" y="1.67" class="c">done</text><text font-size="1.67" x="31.061999999999998" y="1.67" class="c">(87/s)</text><text font-size="1.67" x="38.07599999999999" y="1.67" class="c">|</text><text font-size="1.67" x="40.08" y="1.67" class="c">4.1s</text></svg><svg x="3520"><use xlink:href="#a"></use><text font-size="1.67" x="0" y="1.67" class="c">⠸</text><text font-size="1.67" x="2.004" y="1.67" class="c">Walking</text><text font-size="1.67" x="10.02" y="1.67" class="c">directories</text><text font-size="1.67" x="22.043999999999997" y="1.67" class="c">365</text><text font-size="1.67" x="26.052" y="1.67" class="c">done</text><text font-size="1.67" x="31.061999999999998" y="1.67" class="c">(87/s)</text><text font-size="1.67" x="38.07599999999999" y="1.67" class="c">|</text><text font-size="1.67" x="40.08" y="1.67" class="c">4.2s</text></svg><svg x="3600"><use xlink:href="#a"></use><text font-size="1.67" x="0" y="1.67" class="c">⠼</text><text font-size="1.67" x="2.004" y="1.67" class="c">Walking</text><text font-size="1.67" x="10.02" y="1.67" class="c">directories</text><text font-size="1.67" x="22.043999999999997" y="1.67" class="c">374</text><text font-size="1.67" x="26.052" y="1.67" class="c">done</text><text font-size="1.67" x="31.061999999999998" y="1.67" class="c">(87/s)</text><text font-size="1.67" x="38.07599999999999" y="1.67" class="c">|</text><text font-size="1.67" x="40.08" y="1.67" class="c">4.3s</text></svg><svg x="3680"><use xlink:href="#a"></use><text font-size="1.67" x="0" y="1.67" class="c">⠴</text><text font-size="1.67" x="2.004" y="1.67" class="c">Walking</text><text font-size="1.67" x="10.02" y="1.67" class="c">directories</text><text font-size="1.67" x="22.043999999999997" y="1.67" class="c">383</text><text font-size="1.67" x="26.052" y="1.67" class="c">done</text><text font-size="1.67" x="31.061999999999998" y="1.67" class="c">(87/s)</text><text font-size="1.67" x="38.07599999999999" y="1.67" class="c">|</text><text font-size="1.67" x="40.08" y="1.67" class="c">4.4s</text></svg><svg x="3760"><use xlink:href="#a"></use><text font-size="1.67" x="0" y="1.67" class="c">⠦</text><text font-size="1.67" x="2.004" y="1.67" class="c">Walking</text><text font-size="1.67" x="10.02" y="1.67" class="c">directories</text><text font-size="1.67" x="22.043999999999997" y="1.67" class="c">391</text><text font-size="1.67" x="26.052" y="1.67" class="c">done</text><text font-size="1.67" x="31.061999999999998" y="1.67" class="c">(87/s)</text><text font-size="1.67" x="38.07599999999999" y="1.67" class="c">|</text><text font-size="1.67" x="40.08" y="1.67" class="c">4.5s</text></svg><svg x="3840"><use xlink:href="#a"></use><text font-size="1.67" x="0" y="1.67" class="c">⠧</text><text font-size="1.67" x="2.004" y="1.67" class="c">Walking</text><text font-size="1.67" x="10.02" y="1.67" class="c">directories</text><text font-size="1.67" x="22.043999999999997" y="1.67" class="c">400</text><text font-size="1.67" x="26.052" y="1.67" class="c">done</text><text font-size="1.67" x="31.061999999999998" y="1.67" class="c">(87/s)</text><text font-size="1.67" x="38.07599999999999" y="1.67" class="c">|</text><text font-size="1.67" x="40.08" y="1.67" class="c">4.6s</text></svg><svg x="3920"><use xlink:href="#a"></use><text font-size="1.67" x="0" y="1.67" class="c">⠇</text><text font-size="1.67" x="2.004" y="1.67" class="c">Walking</text><text font-size="1.67" x="10.02" y="1.67" class="c">directories</text><text font-size="1.67" x="22.043999999999997" y="1.67" class="c">408</text><text font-size="1.67" x="26.052" y="1.67" class="c">done</text><text font-size="1.67" x="31.061999999999998" y="1.67" class="c">(87/s)</text><text font-size="1.67" x="38.07599999999999" y="1.67" class="c">|</text><text font-size="1.67" x="40.08" y="1.67" class="c">4.7s</text></svg><svg x="4000"><use xlink:href="#a"></use><text font-size="1.67" x="0" y="1.67" class="c">⠏</text><text font-size="1.67" x="2.004" y="1.67" class="c">Walking</text><text font-size="1.67" x="10.02" y="1.67" class="c">directories</text><text font-size="1.67" x="22.043999999999997" y="1.67" class="c">417</text><text font-size="1.67" x="26.052" y="1.67" class="c">done</text><text font-size="1.67" x="31.061999999999998" y="1.67" class="c">(87/s)</text><text font-size="1.67" x="38.07599999999999" y="1.67" class="c">|</text><text font-size="1.67" x="40.08" y="1.67" class="c">4.8s</text></svg><svg x="4080"><use xlink:href="#a"></use><text font-size="1.67" x="0" y="1.67" class="c">⠋</text><text font-size="1.67" x="2.004" y="1.67" class="c">Walking</text><text font-size="1.67" x="10.02" y="1.67" class="c">directories</text><text font-size="1.67" x="22.043999999999997" y="1.67" class="c">426</text><text font-size="1.67" x="26.052" y="1.67" class="c">done</text><text font-size="1.67" x="31.061999999999998" y="1.67" class="c">(87/s)</text><text font-size="1.67" x="38.07599999999999" y="1.67" class="c">|</text><text font-size="1.67" x="40.08" y="1.67" class="c">4.9s</text></svg><svg x="4160"><use xlink:href="#a"></use><text font-size="1.67" x="0" y="1.67" class="c">⠙</text><text font-size="1.67" x="2.004" y="1.67" class="c">Walking</text><text font-size="1.67" x="10.02" y="1.67" class="c">directories</text><text font-size="1.67" x="22.043999999999997" y="1.67" class="c">435</text><text font-size="1.67" x="26.052" y="1.67" class="c">done</text><text font-size="1.67" x="31.061999999999998" y="1.67" class="c">(87/s)</text><text font-size="1.67" x="38.07599999999999" y="1.67" class="c">|</text><text font-size="1.67" x="40.08" y="1.67" class="c">5s</text></svg><svg x="4240"><use xlink:href="#a"></use><text font-size="1.67" x="0" y="1.67" class="c">⠹</text><text font-size="1.67" x="2.004" y="1.67" class="c">Walking</text><text font-size="1.67" x="10.02" y="1.67" class="c">directories</text><text font-size="1.67" x="22.043999999999997" y="1.67" class="c">443</text><text font-size="1.67" x="26.052" y="1.67" class="c">done</text><text font-size="1.67" x="31.061999999999998" y="1.67" class="c">(87/s)</text><text font-size="1.67" x="38.07599999999999" y="1.67" class="c">|</text><text font-size="1.67" x="40.08" y="1.67" class="c">5.1s</text></svg><svg x="4320"><use xlink:href="#a"></use><text font-size="1.67" x="0" y="1.67" class="c">⠸</text><text font-size="1.67" x="2.004" y="1.67" class="c">Walking</text><text font-size="1.67" x="10.02" y="1.67" class="c">directories</text><text font-size="1.67" x="22.043999999999997" y="1.67" class="c">452</text><text font-size="1.67" x="26.052" y="1.67" class="c">done</text><text font-size="1.67" x="31.061999999999998" y="1.67" class="c">(87/s)</text><text font-size="1.67" x="38.07599999999999" y="1.67" class="c">|</text><text font-size="1.67" x="40.08" y="1.67" class="c">5.2s</text></svg><svg x="4400"><use xlink:href="#a"></use><text font-size="1.67" x="0" y="1.67" class="c">⠼</text><text font-size="1.67" x="2.004" y="1.67" class="c">Walking</text><text font-size="1.67" x="10.02" y="1.67" class="c">directories</text><text font-size="1.67" x="22.043999999999997" y="1.67" class="c">461</text><text font-size="1.67" x="26.052" y="1.67" class="c">done</text><text font-size="1.67" x="31.061999999999998" y="1.67" class="c">(87/s)</text><text font-size="1.67" x="38.07599999999999" y="1.67" class="c">|</text><text font-size="1.67" x="40.08" y="1.67" class="c">5.3s</text></svg><svg x="4480"><use xlink:href="#a"></use><use xlink:href="#1" y="0"></use></svg><svg x="4560"><use xlink:href="#a"></use><use xlink:href="#1" y="0"></use></svg><svg x="4640"><use xlink:href="#a"></use><use xlink:href="#1" y="0"></use></svg><svg x="4720"><use xlink:href="#a"></use><use xlink:href="#1" y="0"></use></svg><svg x="4800"><use xlink:href="#a"></use><use xlink:href="#1" y="0"></use></svg></svg></g></g></svg></svg>