<svg xmlns="http://www.w3.org/2000/svg" xmlns:xlink="http://www.w3.org/1999/xlink" width="840" height="61.709999999999994"><rect width="840" height="61.709999999999994" rx="0" ry="0" class="a"></rect><svg height="21.709999999999997" viewBox="0 0 80 2.171" width="800" x="20" xmlns="http://www.w3.org/2000/svg" xmlns:xlink="http://www.w3.org/1999/xlink" y="20"><style>.a{fill:rgb(241,243,245)}.b{font-family:'Fira Code',Monaco,Consolas,Menlo,'Bitstream Vera Sans Mono','Powerline Symbols',monospace}.c{fill:rgb(23,36,49);white-space:pre}.d{fill:transparent}.e{fill:rgb(23,36,49)}.g{animation-duration:11.2909560000001s;animation-iteration-count:infinite;animation-name:f;animation-timing-function:steps(1,end)}@keyframes f{0%{transform:translateX(-0px)}0.4%{transform:translateX(-80px)}0.5%{transform:translateX(-160px)}1.4%{transform:translateX(-240px)}2.3%{transform:translateX(-320px)}3.2%{transform:translateX(-400px)}4%{transform:translateX(-480px)}5%{transform:translateX(-560px)}5.8%{transform:translateX(-640px)}6.7%{transform:translateX(-720px)}7.6%{transform:translateX(-800px)}8.5%{transform:translateX(-880px)}9.4%{transform:translateX(-960px)}10.3%{transform:translateX(-1040px)}11.2%{transform:translateX(-1120px)}12.1%{transform:translateX(-1200px)}13%{transform:translateX(-1280px)}13.9%{transform:translateX(-1360px)}14.7%{transform:translateX(-1440px)}15.6%{transform:translateX(-1520px)}16.5%{transform:translateX(-1600px)}17.4%{transform:translateX(-1680px)}18.3%{transform:translateX(-1760px)}19.1%{transform:translateX(-1840px)}20%{transform:translateX(-1920px)}20.9%{transform:translateX(-2000px)}21.8%{transform:translateX(-2080px)}22.7%{transform:translateX(-2160px)}23.6%{transform:translateX(-2240px)}24.5%{transform:translateX(-2320px)}25.3%{transform:translateX(-2400px)}26.2%{transform:translateX(-2480px)}27.1%{transform:translateX(-2560px)}28%{transform:translateX(-2640px)}28.9%{transform:translateX(-2720px)}29.8%{transform:translateX(-2800px)}30.6%{transform:translateX(-2880px)}31.5%{transform:translateX(-2960px)}32.4%{transform:translateX(-3040px)}33.3%{transform:translateX(-3120px)}34.2%{transform:translateX(-3200px)}35.1%{transform:translateX(-3280px)}36%{transform:translateX(-3360px)}36.9%{transform:translateX(-3440px)}37.8%{transform:translateX(-3520px)}38.7%{transform:translateX(-3600px)}39.6%{transform:translateX(-3680px)}40.5%{transform:translateX(-3760px)}41.4%{transform:translateX(-3840px)}42.2%{transform:translateX(-3920px)}43.1%{transform:translateX(-4000px)}44%{transform:translateX(-4080px)}44.9%{transform:translateX(-4160px)}45.8%{transform:translateX(-4240px)}46.7%{transform:translateX(-4320px)}46.8%{transform:translateX(-4400px)}46.9%{transform:translateX(-4480px)}46.9%{transform:translateX(-4560px)}46.9%{transform:translateX(-4640px)}100%{transform:translateX(-4720px)}}</style><g font-family="&#x27;Fira Code&#x27;,Monaco,Consolas,Menlo,&#x27;Bitstream Vera Sans Mono&#x27;,&#x27;Powerline Symbols&#x27;,monospace" font-size="1.67" class="b"><defs><symbol id="1"><text font-size="1.67" x="0" y="1.67" class="c">⠼</text><text font-size="1.67" x="2.004" y="1.67" class="c">Walking</text><text font-size="1.67" x="10.02" y="1.67" class="c">directories</text><text font-size="1.67" x="22.043999999999997" y="1.67" class="c">463</text><text font-size="1.67" x="26.052" y="1.67" class="c">done</text><text font-size="1.67" x="31.061999999999998" y="1.67" class="c">(88/s)</text><text font-size="1.67" x="38.07599999999999" y="1.67" class="c">|</text><text font-size="1.67" x="40.08" y="1.67" class="c">5.3s</text></symbol><symbol id="a"><rect height="1" width="80" x="0" y="0" class="d"></rect></symbol><symbol id="b"><rect height="2.171" width="1.1022" class="e"></rect></symbol></defs><rect height="2.171" width="80" class="a"></rect><g class="g"><svg x="0" y="0" width="4800"><svg x="0"><use xlink:href="#a"></use><use xlink:href="#b" x="-0.0040000000000000036" y="0"></use></svg><svg x="80"><use xlink:href="#a"></use></svg><svg x="160"><use xlink:href="#a"></use><text font-size="1.67" x="0" y="1.67" class="c">⠙</text><text font-size="1.67" x="2.004" y="1.67" class="c">Walking</text><text font-size="1.67" x="10.02" y="1.67" class="c">directories</text><text font-size="1.67" x="22.043999999999997" y="1.67" class="c">1</text><text font-size="1.67" x="24.048" y="1.67" class="c">done</text><text font-size="1.67" x="29.058" y="1.67" class="c">(84/s)</text><text font-size="1.67" x="36.071999999999996" y="1.67" class="c">|</text><text font-size="1.67" x="38.07599999999999" y="1.67" class="c">13ms</text></svg><svg x="240"><use xlink:href="#a"></use><text font-size="1.67" x="0" y="1.67" class="c">⠹</text><text font-size="1.67" x="2.004" y="1.67" class="c">Walking</text><text font-size="1.67" x="10.02" y="1.67" class="c">directories</text><text font-size="1.67" x="22.043999999999997" y="1.67" class="c">11</text><text font-size="1.67" x="25.05" y="1.67" class="c">done</text><text font-size="1.67" x="30.059999999999995" y="1.67" class="c">(86/s)</text><text font-size="1.67" x="37.074" y="1.67" class="c">|</text><text font-size="1.67" x="39.077999999999996" y="1.67" class="c">129ms</text></svg><svg x="320"><use xlink:href="#a"></use><text font-size="1.67" x="0" y="1.67" class="c">⠸</text><text font-size="1.67" x="2.004" y="1.67" class="c">Walking</text><text font-size="1.67" x="10.02" y="1.67" class="c">directories</text><text font-size="1.67" x="22.043999999999997" y="1.67" class="c">20</text><text font-size="1.67" x="25.05" y="1.67" class="c">done</text><text font-size="1.67" x="30.059999999999995" y="1.67" class="c">(87/s)</text><text font-size="1.67" x="37.074" y="1.67" class="c">|</text><text font-size="1.67" x="39.077999999999996" y="1.67" class="c">230ms</text></svg><svg x="400"><use xlink:href="#a"></use><text font-size="1.67" x="0" y="1.67" class="c">⠼</text><text font-size="1.67" x="2.004" y="1.67" class="c">Walking</text><text font-size="1.67" x="10.02" y="1.67" class="c">directories</text><text font-size="1.67" x="22.043999999999997" y="1.67" class="c">28</text><text font-size="1.67" x="25.05" y="1.67" class="c">done</text><text font-size="1.67" x="30.059999999999995" y="1.67" class="c">(87/s)</text><text font-size="1.67" x="37.074" y="1.67" class="c">|</text><text font-size="1.67" x="39.077999999999996" y="1.67" class="c">322ms</text></svg><svg x="480"><use xlink:href="#a"></use><text font-size="1.67" x="0" y="1.67" class="c">⠴</text><text font-size="1.67" x="2.004" y="1.67" class="c">Walking</text><text font-size="1.67" x="10.02" y="1.67" class="c">directories</text><text font-size="1.67" x="22.043999999999997" y="1.67" class="c">37</text><text font-size="1.67" x="25.05" y="1.67" class="c">done</text><text font-size="1.67" x="30.059999999999995" y="1.67" class="c">(88/s)</text><text font-size="1.67" x="37.074" y="1.67" class="c">|</text><text font-size="1.67" x="39.077999999999996" y="1.67" class="c">423ms</text></svg><svg x="560"><use xlink:href="#a"></use><text font-size="1.67" x="0" y="1.67" class="c">⠦</text><text font-size="1.67" x="2.004" y="1.67" class="c">Walking</text><text font-size="1.67" x="10.02" y="1.67" class="c">directories</text><text font-size="1.67" x="22.043999999999997" y="1.67" class="c">46</text><text font-size="1.67" x="25.05" y="1.67" class="c">done</text><text font-size="1.67" x="30.059999999999995" y="1.67" class="c">(88/s)</text><text font-size="1.67" x="37.074" y="1.67" class="c">|</text><text font-size="1.67" x="39.077999999999996" y="1.67" class="c">524ms</text></svg><svg x="640"><use xlink:href="#a"></use><text font-size="1.67" x="0" y="1.67" class="c">⠧</text><text font-size="1.67" x="2.004" y="1.67" class="c">Walking</text><text font-size="1.67" x="10.02" y="1.67" class="c">directories</text><text font-size="1.67" x="22.043999999999997" y="1.67" class="c">55</text><text font-size="1.67" x="25.05" y="1.67" class="c">done</text><text font-size="1.67" x="30.059999999999995" y="1.67" class="c">(88/s)</text><text font-size="1.67" x="37.074" y="1.67" class="c">|</text><text font-size="1.67" x="39.077999999999996" y="1.67" class="c">627ms</text></svg><svg x="720"><use xlink:href="#a"></use><text font-size="1.67" x="0" y="1.67" class="c">⠇</text><text font-size="1.67" x="2.004" y="1.67" class="c">Walking</text><text font-size="1.67" x="10.02" y="1.67" class="c">directories</text><text font-size="1.67" x="22.043999999999997" y="1.67" class="c">64</text><text font-size="1.67" x="25.05" y="1.67" class="c">done</text><text font-size="1.67" x="30.059999999999995" y="1.67" class="c">(88/s)</text><text font-size="1.67" x="37.074" y="1.67" class="c">|</text><text font-size="1.67" x="39.077999999999996" y="1.67" class="c">727ms</text></svg><svg x="800"><use xlink:href="#a"></use><text font-size="1.67" x="0" y="1.67" class="c">⠏</text><text font-size="1.67" x="2.004" y="1.67" class="c">Walking</text><text font-size="1.67" x="10.02" y="1.67" class="c">directories</text><text font-size="1.67" x="22.043999999999997" y="1.67" class="c">73</text><text font-size="1.67" x="25.05" y="1.67" class="c">done</text><text font-size="1.67" x="30.059999999999995" y="1.67" class="c">(88/s)</text><text font-size="1.67" x="37.074" y="1.67" class="c">|</text><text font-size="1.67" x="39.077999999999996" y="1.67" class="c">828ms</text></svg><svg x="880"><use xlink:href="#a"></use><text font-size="1.67" x="0" y="1.67" class="c">⠋</text><text font-size="1.67" x="2.004" y="1.67" class="c">Walking</text><text font-size="1.67" x="10.02" y="1.67" class="c">directories</text><text font-size="1.67" x="22.043999999999997" y="1.67" class="c">82</text><text font-size="1.67" x="25.05" y="1.67" class="c">done</text><text font-size="1.67" x="30.059999999999995" y="1.67" class="c">(88/s)</text><text font-size="1.67" x="37.074" y="1.67" class="c">|</text><text font-size="1.67" x="39.077999999999996" y="1.67" class="c">931ms</text></svg><svg x="960"><use xlink:href="#a"></use><text font-size="1.67" x="0" y="1.67" class="c">⠙</text><text font-size="1.67" x="2.004" y="1.67" class="c">Walking</text><text font-size="1.67" x="10.02" y="1.67" class="c">directories</text><text font-size="1.67" x="22.043999999999997" y="1.67" class="c">91</text><text font-size="1.67" x="25.05" y="1.67" class="c">done</text><text font-size="1.67" x="30.059999999999995" y="1.67" class="c">(88/s)</text><text font-size="1.67" x="37.074" y="1.67" class="c">|</text><text font-size="1.67" x="39.077999999999996" y="1.67" class="c">1s</text></svg><svg x="1040"><use xlink:href="#a"></use><text font-size="1.67" x="0" y="1.67" class="c">⠹</text><text font-size="1.67" x="2.004" y="1.67" class="c">Walking</text><text font-size="1.67" x="10.02" y="1.67" class="c">directories</text><text font-size="1.67" x="22.043999999999997" y="1.67" class="c">99</text><text font-size="1.67" x="25.05" y="1.67" class="c">done</text><text font-size="1.67" x="30.059999999999995" y="1.67" class="c">(88/s)</text><text font-size="1.67" x="37.074" y="1.67" class="c">|</text><text font-size="1.67" x="39.077999999999996" y="1.67" class="c">1.1s</text></svg><svg x="1120"><use xlink:href="#a"></use><text font-size="1.67" x="0" y="1.67" class="c">⠸</text><text font-size="1.67" x="2.004" y="1.67" class="c">Walking</text><text font-size="1.67" x="10.02" y="1.67" class="c">directories</text><text font-size="1.67" x="22.043999999999997" y="1.67" class="c">108</text><text font-size="1.67" x="26.052" y="1.67" class="c">done</text><text font-size="1.67" x="31.061999999999998" y="1.67" class="c">(88/s)</text><text font-size="1.67" x="38.07599999999999" y="1.67" class="c">|</text><text font-size="1.67" x="40.08" y="1.67" class="c">1.2s</text></svg><svg x="1200"><use xlink:href="#a"></use><text font-size="1.67" x="0" y="1.67" class="c">⠼</text><text font-size="1.67" x="2.004" y="1.67" class="c">Walking</text><text font-size="1.67" x="10.02" y="1.67" class="c">directories</text><text font-size="1.67" x="22.043999999999997" y="1.67" class="c">117</text><text font-size="1.67" x="26.052" y="1.67" class="c">done</text><text font-size="1.67" x="31.061999999999998" y="1.67" class="c">(88/s)</text><text font-size="1.67" x="38.07599999999999" y="1.67" class="c">|</text><text font-size="1.67" x="40.08" y="1.67" class="c">1.3s</text></svg><svg x="1280"><use xlink:href="#a"></use><text font-size="1.67" x="0" y="1.67" class="c">⠴</text><text font-size="1.67" x="2.004" y="1.67" class="c">Walking</text><text font-size="1.67" x="10.02" y="1.67" class="c">directories</text><text font-size="1.67" x="22.043999999999997" y="1.67" class="c">126</text><text font-size="1.67" x="26.052" y="1.67" class="c">done</text><text font-size="1.67" x="31.061999999999998" y="1.67" class="c">(88/s)</text><text font-size="1.67" x="38.07599999999999" y="1.67" class="c">|</text><text font-size="1.67" x="40.08" y="1.67" class="c">1.4s</text></svg><svg x="1360"><use xlink:href="#a"></use><text font-size="1.67" x="0" y="1.67" class="c">⠦</text><text font-size="1.67" x="2.004" y="1.67" class="c">Walking</text><text font-size="1.67" x="10.02" y="1.67" class="c">directories</text><text font-size="1.67" x="22.043999999999997" y="1.67" class="c">135</text><text font-size="1.67" x="26.052" y="1.67" class="c">done</text><text font-size="1.67" x="31.061999999999998" y="1.67" class="c">(88/s)</text><text font-size="1.67" x="38.07599999999999" y="1.67" class="c">|</text><text font-size="1.67" x="40.08" y="1.67" class="c">1.5s</text></svg><svg x="1440"><use xlink:href="#a"></use><text font-size="1.67" x="0" y="1.67" class="c">⠧</text><text font-size="1.67" x="2.004" y="1.67" class="c">Walking</text><text font-size="1.67" x="10.02" y="1.67" class="c">directories</text><text font-size="1.67" x="22.043999999999997" y="1.67" class="c">143</text><text font-size="1.67" x="26.052" y="1.67" class="c">done</text><text font-size="1.67" x="31.061999999999998" y="1.67" class="c">(88/s)</text><text font-size="1.67" x="38.07599999999999" y="1.67" class="c">|</text><text font-size="1.67" x="40.08" y="1.67" class="c">1.6s</text></svg><svg x="1520"><use xlink:href="#a"></use><text font-size="1.67" x="0" y="1.67" class="c">⠇</text><text font-size="1.67" x="2.004" y="1.67" class="c">Walking</text><text font-size="1.67" x="10.02" y="1.67" class="c">directories</text><text font-size="1.67" x="22.043999999999997" y="1.67" class="c">152</text><text font-size="1.67" x="26.052" y="1.67" class="c">done</text><text font-size="1.67" x="31.061999999999998" y="1.67" class="c">(88/s)</text><text font-size="1.67" x="38.07599999999999" y="1.67" class="c">|</text><text font-size="1.67" x="40.08" y="1.67" class="c">1.7s</text></svg><svg x="1600"><use xlink:href="#a"></use><text font-size="1.67" x="0" y="1.67" class="c">⠏</text><text font-size="1.67" x="2.004" y="1.67" class="c">Walking</text><text font-size="1.67" x="10.02" y="1.67" class="c">directories</text><text font-size="1.67" x="22.043999999999997" y="1.67" class="c">161</text><text font-size="1.67" x="26.052" y="1.67" class="c">done</text><text font-size="1.67" x="31.061999999999998" y="1.67" class="c">(88/s)</text><text font-size="1.67" x="38.07599999999999" y="1.67" class="c">|</text><text font-size="1.67" x="40.08" y="1.67" class="c">1.8s</text></svg><svg x="1680"><use xlink:href="#a"></use><text font-size="1.67" x="0" y="1.67" class="c">⠋</text><text font-size="1.67" x="2.004" y="1.67" class="c">Walking</text><text font-size="1.67" x="10.02" y="1.67" class="c">directories</text><text font-size="1.67" x="22.043999999999997" y="1.67" class="c">170</text><text font-size="1.67" x="26.052" y="1.67" class="c">done</text><text font-size="1.67" x="31.061999999999998" y="1.67" class="c">(88/s)</text><text font-size="1.67" x="38.07599999999999" y="1.67" class="c">|</text><text font-size="1.67" x="40.08" y="1.67" class="c">1.9s</text></svg><svg x="1760"><use xlink:href="#a"></use><text font-size="1.67" x="0" y="1.67" class="c">⠙</text><text font-size="1.67" x="2.004" y="1.67" class="c">Walking</text><text font-size="1.67" x="10.02" y="1.67" class="c">directories</text><text font-size="1.67" x="22.043999999999997" y="1.67" class="c">179</text><text font-size="1.67" x="26.052" y="1.67" class="c">done</text><text font-size="1.67" x="31.061999999999998" y="1.67" class="c">(88/s)</text><text font-size="1.67" x="38.07599999999999" y="1.67" class="c">|</text><text font-size="1.67" x="40.08" y="1.67" class="c">2s</text></svg><svg x="1840"><use xlink:href="#a"></use><text font-size="1.67" x="0" y="1.67" class="c">⠹</text><text font-size="1.67" x="2.004" y="1.67" class="c">Walking</text><text font-size="1.67" x="10.02" y="1.67" class="c">directories</text><text font-size="1.67" x="22.043999999999997" y="1.67" class="c">187</text><text font-size="1.67" x="26.052" y="1.67" class="c">done</text><text font-size="1.67" x="31.061999999999998" y="1.67" class="c">(88/s)</text><text font-size="1.67" x="38.07599999999999" y="1.67" class="c">|</text><text font-size="1.67" x="40.08" y="1.67" class="c">2.1s</text></svg><svg x="1920"><use xlink:href="#a"></use><text font-size="1.67" x="0" y="1.67" class="c">⠸</text><text font-size="1.67" x="2.004" y="1.67" class="c">Walking</text><text font-size="1.67" x="10.02" y="1.67" class="c">directories</text><text font-size="1.67" x="22.043999999999997" y="1.67" class="c">196</text><text font-size="1.67" x="26.052" y="1.67" class="c">done</text><text font-size="1.67" x="31.061999999999998" y="1.67" class="c">(88/s)</text><text font-size="1.67" x="38.07599999999999" y="1.67" class="c">|</text><text font-size="1.67" x="40.08" y="1.67" class="c">2.2s</text></svg><svg x="2000"><use xlink:href="#a"></use><text font-size="1.67" x="0" y="1.67" class="c">⠼</text><text font-size="1.67" x="2.004" y="1.67" class="c">Walking</text><text font-size="1.67" x="10.02" y="1.67" class="c">directories</text><text font-size="1.67" x="22.043999999999997" y="1.67" class="c">205</text><text font-size="1.67" x="26.052" y="1.67" class="c">done</text><text font-size="1.67" x="31.061999999999998" y="1.67" class="c">(88/s)</text><text font-size="1.67" x="38.07599999999999" y="1.67" class="c">|</text><text font-size="1.67" x="40.08" y="1.67" class="c">2.3s</text></svg><svg x="2080"><use xlink:href="#a"></use><text font-size="1.67" x="0" y="1.67" class="c">⠴</text><text font-size="1.67" x="2.004" y="1.67" class="c">Walking</text><text font-size="1.67" x="10.02" y="1.67" class="c">directories</text><text font-size="1.67" x="22.043999999999997" y="1.67" class="c">214</text><text font-size="1.67" x="26.052" y="1.67" class="c">done</text><text font-size="1.67" x="31.061999999999998" y="1.67" class="c">(88/s)</text><text font-size="1.67" x="38.07599999999999" y="1.67" class="c">|</text><text font-size="1.67" x="40.08" y="1.67" class="c">2.4s</text></svg><svg x="2160"><use xlink:href="#a"></use><text font-size="1.67" x="0" y="1.67" class="c">⠦</text><text font-size="1.67" x="2.004" y="1.67" class="c">Walking</text><text font-size="1.67" x="10.02" y="1.67" class="c">directories</text><text font-size="1.67" x="22.043999999999997" y="1.67" class="c">223</text><text font-size="1.67" x="26.052" y="1.67" class="c">done</text><text font-size="1.67" x="31.061999999999998" y="1.67" class="c">(88/s)</text><text font-size="1.67" x="38.07599999999999" y="1.67" class="c">|</text><text font-size="1.67" x="40.08" y="1.67" class="c">2.5s</text></svg><svg x="2240"><use xlink:href="#a"></use><text font-size="1.67" x="0" y="1.67" class="c">⠧</text><text font-size="1.67" x="2.004" y="1.67" class="c">Walking</text><text font-size="1.67" x="10.02" y="1.67" class="c">directories</text><text font-size="1.67" x="22.043999999999997" y="1.67" class="c">232</text><text font-size="1.67" x="26.052" y="1.67" class="c">done</text><text font-size="1.67" x="31.061999999999998" y="1.67" class="c">(88/s)</text><text font-size="1.67" x="38.07599999999999" y="1.67" class="c">|</text><text font-size="1.67" x="40.08" y="1.67" class="c">2.6s</text></svg><svg x="2320"><use xlink:href="#a"></use><text font-size="1.67" x="0" y="1.67" class="c">⠇</text><text font-size="1.67" x="2.004" y="1.67" class="c">Walking</text><text font-size="1.67" x="10.02" y="1.67" class="c">directories</text><text font-size="1.67" x="22.043999999999997" y="1.67" class="c">241</text><text font-size="1.67" x="26.052" y="1.67" class="c">done</text><text font-size="1.67" x="31.061999999999998" y="1.67" class="c">(88/s)</text><text font-size="1.67" x="38.07599999999999" y="1.67" class="c">|</text><text font-size="1.67" x="40.08" y="1.67" class="c">2.7s</text></svg><svg x="2400"><use xlink:href="#a"></use><text font-size="1.67" x="0" y="1.67" class="c">⠏</text><text font-size="1.67" x="2.004" y="1.67" class="c">Walking</text><text font-size="1.67" x="10.02" y="1.67" class="c">directories</text><text font-size="1.67" x="22.043999999999997" y="1.67" class="c">249</text><text font-size="1.67" x="26.052" y="1.67" class="c">done</text><text font-size="1.67" x="31.061999999999998" y="1.67" class="c">(88/s)</text><text font-size="1.67" x="38.07599999999999" y="1.67" class="c">|</text><text font-size="1.67" x="40.08" y="1.67" class="c">2.8s</text></svg><svg x="2480"><use xlink:href="#a"></use><text font-size="1.67" x="0" y="1.67" class="c">⠋</text><text font-size="1.67" x="2.004" y="1.67" class="c">Walking</text><text font-size="1.67" x="10.02" y="1.67" class="c">directories</text><text font-size="1.67" x="22.043999999999997" y="1.67" class="c">258</text><text font-size="1.67" x="26.052" y="1.67" class="c">done</text><text font-size="1.67" x="31.061999999999998" y="1.67" class="c">(88/s)</text><text font-size="1.67" x="38.07599999999999" y="1.67" class="c">|</text><text font-size="1.67" x="40.08" y="1.67" class="c">2.9s</text></svg><svg x="2560"><use xlink:href="#a"></use><text font-size="1.67" x="0" y="1.67" class="c">⠙</text><text font-size="1.67" x="2.004" y="1.67" class="c">Walking</text><text font-size="1.67" x="10.02" y="1.67" class="c">directories</text><text font-size="1.67" x="22.043999999999997" y="1.67" class="c">267</text><text font-size="1.67" x="26.052" y="1.67" class="c">done</text><text font-size="1.67" x="31.061999999999998" y="1.67" class="c">(88/s)</text><text font-size="1.67" x="38.07599999999999" y="1.67" class="c">|</text><text font-size="1.67" x="40.08" y="1.67" class="c">3s</text></svg><svg x="2640"><use xlink:href="#a"></use><text font-size="1.67" x="0" y="1.67" class="c">⠹</text><text font-size="1.67" x="2.004" y="1.67" class="c">Walking</text><text font-size="1.67" x="10.02" y="1.67" class="c">directories</text><text font-size="1.67" x="22.043999999999997" y="1.67" class="c">276</text><text font-size="1.67" x="26.052" y="1.67" class="c">done</text><text font-size="1.67" x="31.061999999999998" y="1.67" class="c">(88/s)</text><text font-size="1.67" x="38.07599999999999" y="1.67" class="c">|</text><text font-size="1.67" x="40.08" y="1.67" class="c">3.1s</text></svg><svg x="2720"><use xlink:href="#a"></use><text font-size="1.67" x="0" y="1.67" class="c">⠸</text><text font-size="1.67" x="2.004" y="1.67" class="c">Walking</text><text font-size="1.67" x="10.02" y="1.67" class="c">directories</text><text font-size="1.67" x="22.043999999999997" y="1.67" class="c">285</text><text font-size="1.67" x="26.052" y="1.67" class="c">done</text><text font-size="1.67" x="31.061999999999998" y="1.67" class="c">(88/s)</text><text font-size="1.67" x="38.07599999999999" y="1.67" class="c">|</text><text font-size="1.67" x="40.08" y="1.67" class="c">3.2s</text></svg><svg x="2800"><use xlink:href="#a"></use><text font-size="1.67" x="0" y="1.67" class="c">⠼</text><text font-size="1.67" x="2.004" y="1.67" class="c">Walking</text><text font-size="1.67" x="10.02" y="1.67" class="c">directories</text><text font-size="1.67" x="22.043999999999997" y="1.67" class="c">294</text><text font-size="1.67" x="26.052" y="1.67" class="c">done</text><text font-size="1.67" x="31.061999999999998" y="1.67" class="c">(88/s)</text><text font-size="1.67" x="38.07599999999999" y="1.67" class="c">|</text><text font-size="1.67" x="40.08" y="1.67" class="c">3.3s</text></svg><svg x="2880"><use xlink:href="#a"></use><text font-size="1.67" x="0" y="1.67" class="c">⠴</text><text font-size="1.67" x="2.004" y="1.67" class="c">Walking</text><text font-size="1.67" x="10.02" y="1.67" class="c">directories</text><text font-size="1.67" x="22.043999999999997" y="1.67" class="c">302</text><text font-size="1.67" x="26.052" y="1.67" class="c">done</text><text font-size="1.67" x="31.061999999999998" y="1.67" class="c">(88/s)</text><text font-size="1.67" x="38.07599999999999" y="1.67" class="c">|</text><text font-size="1.67" x="40.08" y="1.67" class="c">3.4s</text></svg><svg x="2960"><use xlink:href="#a"></use><text font-size="1.67" x="0" y="1.67" class="c">⠦</text><text font-size="1.67" x="2.004" y="1.67" class="c">Walking</text><text font-size="1.67" x="10.02" y="1.67" class="c">directories</text><text font-size="1.67" x="22.043999999999997" y="1.67" class="c">311</text><text font-size="1.67" x="26.052" y="1.67" class="c">done</text><text font-size="1.67" x="31.061999999999998" y="1.67" class="c">(88/s)</text><text font-size="1.67" x="38.07599999999999" y="1.67" class="c">|</text><text font-size="1.67" x="40.08" y="1.67" class="c">3.5s</text></svg><svg x="3040"><use xlink:href="#a"></use><text font-size="1.67" x="0" y="1.67" class="c">⠧</text><text font-size="1.67" x="2.004" y="1.67" class="c">Walking</text><text font-size="1.67" x="10.02" y="1.67" class="c">directories</text><text font-size="1.67" x="22.043999999999997" y="1.67" class="c">320</text><text font-size="1.67" x="26.052" y="1.67" class="c">done</text><text font-size="1.67" x="31.061999999999998" y="1.67" class="c">(88/s)</text><text font-size="1.67" x="38.07599999999999" y="1.67" class="c">|</text><text font-size="1.67" x="40.08" y="1.67" class="c">3.6s</text></svg><svg x="3120"><use xlink:href="#a"></use><text font-size="1.67" x="0" y="1.67" class="c">⠇</text><text font-size="1.67" x="2.004" y="1.67" class="c">Walking</text><text font-size="1.67" x="10.02" y="1.67" class="c">directories</text><text font-size="1.67" x="22.043999999999997" y="1.67" class="c">329</text><text font-size="1.67" x="26.052" y="1.67" class="c">done</text><text font-size="1.67" x="31.061999999999998" y="1.67" class="c">(88/s)</text><text font-size="1.67" x="38.07599999999999" y="1.67" class="c">|</text><text font-size="1.67" x="40.08" y="1.67" class="c">3.7s</text></svg><svg x="3200"><use xlink:href="#a"></use><text font-size="1.67" x="0" y="1.67" class="c">⠏</text><text font-size="1.67" x="2.004" y="1.67" class="c">Walking</text><text font-size="1.67" x="10.02" y="1.67" class="c">directories</text><text font-size="1.67" x="22.043999999999997" y="1.67" class="c">338</text><text font-size="1.67" x="26.052" y="1.67" class="c">done</text><text font-size="1.67" x="31.061999999999998" y="1.67" class="c">(88/s)</text><text font-size="1.67" x="38.07599999999999" y="1.67" class="c">|</text><text font-size="1.67" x="40.08" y="1.67" class="c">3.8s</text></svg><svg x="3280"><use xlink:href="#a"></use><text font-size="1.67" x="0" y="1.67" class="c">⠋</text><text font-size="1.67" x="2.004" y="1.67" class="c">Walking</text><text font-size="1.67" x="10.02" y="1.67" class="c">directories</text><text font-size="1.67" x="22.043999999999997" y="1.67" class="c">347</text><text font-size="1.67" x="26.052" y="1.67" class="c">done</text><text font-size="1.67" x="31.061999999999998" y="1.67" class="c">(88/s)</text><text font-size="1.67" x="38.07599999999999" y="1.67" class="c">|</text><text font-size="1.67" x="40.08" y="1.67" class="c">3.9s</text></svg><svg x="3360"><use xlink:href="#a"></use><text font-size="1.67" x="0" y="1.67" class="c">⠙</text><text font-size="1.67" x="2.004" y="1.67" class="c">Walking</text><text font-size="1.67" x="10.02" y="1.67" class="c">directories</text><text font-size="1.67" x="22.043999999999997" y="1.67" class="c">355</text><text font-size="1.67" x="26.052" y="1.67" class="c">done</text><text font-size="1.67" x="31.061999999999998" y="1.67" class="c">(88/s)</text><text font-size="1.67" x="38.07599999999999" y="1.67" class="c">|</text><text font-size="1.67" x="40.08" y="1.67" class="c">4s</text></svg><svg x="3440"><use xlink:href="#a"></use><text font-size="1.67" x="0" y="1.67" class="c">⠹</text><text font-size="1.67" x="2.004" y="1.67" class="c">Walking</text><text font-size="1.67" x="10.02" y="1.67" class="c">directories</text><text font-size="1.67" x="22.043999999999997" y="1.67" class="c">364</text><text font-size="1.67" x="26.052" y="1.67" class="c">done</text><text font-size="1.67" x="31.061999999999998" y="1.67" class="c">(88/s)</text><text font-size="1.67" x="38.07599999999999" y="1.67" class="c">|</text><text font-size="1.67" x="40.08" y="1.67" class="c">4.1s</text></svg><svg x="3520"><use xlink:href="#a"></use><text font-size="1.67" x="0" y="1.67" class="c">⠸</text><text font-size="1.67" x="2.004" y="1.67" class="c">Walking</text><text font-size="1.67" x="10.02" y="1.67" class="c">directories</text><text font-size="1.67" x="22.043999999999997" y="1.67" class="c">373</text><text font-size="1.67" x="26.052" y="1.67" class="c">done</text><text font-size="1.67" x="31.061999999999998" y="1.67" class="c">(88/s)</text><text font-size="1.67" x="38.07599999999999" y="1.67" class="c">|</text><text font-size="1.67" x="40.08" y="1.67" class="c">4.2s</text></svg><svg x="3600"><use xlink:href="#a"></use><text font-size="1.67" x="0" y="1.67" class="c">⠼</text><text font-size="1.67" x="2.004" y="1.67" class="c">Walking</text><text font-size="1.67" x="10.02" y="1.67" class="c">directories</text><text font-size="1.67" x="22.043999999999997" y="1.67" class="c">382</text><text font-size="1.67" x="26.052" y="1.67" class="c">done</text><text font-size="1.67" x="31.061999999999998" y="1.67" class="c">(88/s)</text><text font-size="1.67" x="38.07599999999999" y="1.67" class="c">|</text><text font-size="1.67" x="40.08" y="1.67" class="c">4.3s</text></svg><svg x="3680"><use xlink:href="#a"></use><text font-size="1.67" x="0" y="1.67" class="c">⠴</text><text font-size="1.67" x="2.004" y="1.67" class="c">Walking</text><text font-size="1.67" x="10.02" y="1.67" class="c">directories</text><text font-size="1.67" x="22.043999999999997" y="1.67" class="c">391</text><text font-size="1.67" x="26.052" y="1.67" class="c">done</text><text font-size="1.67" x="31.061999999999998" y="1.67" class="c">(88/s)</text><text font-size="1.67" x="38.07599999999999" y="1.67" class="c">|</text><text font-size="1.67" x="40.08" y="1.67" class="c">4.4s</text></svg><svg x="3760"><use xlink:href="#a"></use><text font-size="1.67" x="0" y="1.67" class="c">⠦</text><text font-size="1.67" x="2.004" y="1.67" class="c">Walking</text><text font-size="1.67" x="10.02" y="1.67" class="c">directories</text><text font-size="1.67" x="22.043999999999997" y="1.67" class="c">400</text><text font-size="1.67" x="26.052" y="1.67" class="c">done</text><text font-size="1.67" x="31.061999999999998" y="1.67" class="c">(88/s)</text><text font-size="1.67" x="38.07599999999999" y="1.67" class="c">|</text><text font-size="1.67" x="40.08" y="1.67" class="c">4.5s</text></svg><svg x="3840"><use xlink:href="#a"></use><text font-size="1.67" x="0" y="1.67" class="c">⠧</text><text font-size="1.67" x="2.004" y="1.67" class="c">Walking</text><text font-size="1.67" x="10.02" y="1.67" class="c">directories</text><text font-size="1.67" x="22.043999999999997" y="1.67" class="c">409</text><text font-size="1.67" x="26.052" y="1.67" class="c">done</text><text font-size="1.67" x="31.061999999999998" y="1.67" class="c">(88/s)</text><text font-size="1.67" x="38.07599999999999" y="1.67" class="c">|</text><text font-size="1.67" x="40.08" y="1.67" class="c">4.6s</text></svg><svg x="3920"><use xlink:href="#a"></use><text font-size="1.67" x="0" y="1.67" class="c">⠇</text><text font-size="1.67" x="2.004" y="1.67" class="c">Walking</text><text font-size="1.67" x="10.02" y="1.67" class="c">directories</text><text font-size="1.67" x="22.043999999999997" y="1.67" class="c">417</text><text font-size="1.67" x="26.052" y="1.67" class="c">done</text><text font-size="1.67" x="31.061999999999998" y="1.67" class="c">(88/s)</text><text font-size="1.67" x="38.07599999999999" y="1.67" class="c">|</text><text font-size="1.67" x="40.08" y="1.67" class="c">4.7s</text></svg><svg x="4000"><use xlink:href="#a"></use><text font-size="1.67" x="0" y="1.67" class="c">⠏</text><text font-size="1.67" x="2.004" y="1.67" class="c">Walking</text><text font-size="1.67" x="10.02" y="1.67" class="c">directories</text><text font-size="1.67" x="22.043999999999997" y="1.67" class="c">426</text><text font-size="1.67" x="26.052" y="1.67" class="c">done</text><text font-size="1.67" x="31.061999999999998" y="1.67" class="c">(88/s)</text><text font-size="1.67" x="38.07599999999999" y="1.67" class="c">|</text><text font-size="1.67" x="40.08" y="1.67" class="c">4.8s</text></svg><svg x="4080"><use xlink:href="#a"></use><text font-size="1.67" x="0" y="1.67" class="c">⠋</text><text font-size="1.67" x="2.004" y="1.67" class="c">Walking</text><text font-size="1.67" x="10.02" y="1.67" class="c">directories</text><text font-size="1.67" x="22.043999999999997" y="1.67" class="c">435</text><text font-size="1.67" x="26.052" y="1.67" class="c">done</text><text font-size="1.67" x="31.061999999999998" y="1.67" class="c">(88/s)</text><text font-size="1.67" x="38.07599999999999" y="1.67" class="c">|</text><text font-size="1.67" x="40.08" y="1.67" class="c">4.9s</text></svg><svg x="4160"><use xlink:href="#a"></use><text font-size="1.67" x="0" y="1.67" class="c">⠙</text><text font-size="1.67" x="2.004" y="1.67" class="c">Walking</text><text font-size="1.67" x="10.02" y="1.67" class="c">directories</text><text font-size="1.67" x="22.043999999999997" y="1.67" class="c">444</text><text font-size="1.67" x="26.052" y="1.67" class="c">done</text><text font-size="1.67" x="31.061999999999998" y="1.67" class="c">(88/s)</text><text font-size="1.67" x="38.07599999999999" y="1.67" class="c">|</text><text font-size="1.67" x="40.08" y="1.67" class="c">5s</text></svg><svg x="4240"><use xlink:href="#a"></use><text font-size="1.67" x="0" y="1.67" class="c">⠹</text><text font-size="1.67" x="2.004" y="1.67" class="c">Walking</text><text font-size="1.67" x="10.02" y="1.67" class="c">directories</text><text font-size="1.67" x="22.043999999999997" y="1.67" class="c">453</text><text font-size="1.67" x="26.052" y="1.67" class="c">done</text><text font-size="1.67" x="31.061999999999998" y="1.67" class="c">(88/s)</text><text font-size="1.67" x="38.07599999999999" y="1.67" class="c">|</text><text font-size="1.67" x="40.08" y="1.67" class="c">5.1s</text></svg><svg x="4320"><use xlink:href="#a"></use><text font-size="1.67" x="0" y="1.67" class="c">⠸</text><text font-size="1.67" x="2.004" y="1.67" class="c">Walking</text><text font-size="1.67" x="10.02" y="1.67" class="c">directories</text><text font-size="1.67" x="22.043999999999997" y="1.67" class="c">462</text><text font-size="1.67" x="26.052" y="1.67" class="c">done</text><text font-size="1.67" x="31.061999999999998" y="1.67" class="c">(88/s)</text><text font-size="1.67" x="38.07599999999999" y="1.67" class="c">|</text><text font-size="1.67" x="40.08" y="1.67" class="c">5.2s</text></svg><svg x="4400"><use xlink:href="#a"></use><text font-size="1.67" x="0" y="1.67" class="c">⠼</text><text font-size="1.67" x="2.004" y="1.67" class="c">Walking</text><text font-size="1.67" x="10.02" y="1.67" class="c">directories</text><text font-size="1.67" x="22.043999999999997" y="1.67" class="c">463</text><text font-size="1.67" x="26.052" y="1.67" class="c">done</text><text font-size="1.67" x="31.061999999999998" y="1.67" class="c">(88/s)</text><text font-size="1.67" x="38.07599999999999" y="1.67" class="c">|</text><text font-size="1.67" x="40.08" y="1.67" class="c">5.2s</text></svg><svg x="4480"><use xlink:href="#a"></use><use xlink:href="#1" y="0"></use></svg><svg x="4560"><use xlink:href="#a"></use><use xlink:href="#1" y="0"></use></svg><svg x="4640"><use xlink:href="#a"></use><use xlink:href="#1" y="0"></use></svg><svg x="4720"><use xlink:href="#a"></use><use xlink:href="#1" y="0"></use></svg></svg></g></g></svg></svg>