<svg xmlns="http://www.w3.org/2000/svg" xmlns:xlink="http://www.w3.org/1999/xlink" width="1040" height="61.709999999999994"><rect width="1040" height="61.709999999999994" rx="0" ry="0" class="a"></rect><svg height="21.709999999999997" viewBox="0 0 100 2.171" width="1000" x="20" xmlns="http://www.w3.org/2000/svg" xmlns:xlink="http://www.w3.org/1999/xlink" y="20"><style>.a{fill:rgb(40,45,53)}.b{font-family:'Fira Code',Monaco,Consolas,Menlo,'Bitstream Vera Sans Mono','Powerline Symbols',monospace}.c{fill:rgb(185,192,203);white-space:pre}.d{fill:transparent}.f{animation-duration:11.8490149974823s;animation-iteration-count:infinite;animation-name:e;animation-timing-function:steps(1,end)}@keyframes e{0%{transform:translateX(-0px)}0%{transform:translateX(-100px)}1.6%{transform:translateX(-200px)}1.7%{transform:translateX(-300px)}3.1%{transform:translateX(-400px)}4.6%{transform:translateX(-500px)}5.8%{transform:translateX(-600px)}7%{transform:translateX(-700px)}7.3%{transform:translateX(-800px)}8.2%{transform:translateX(-900px)}9.2%{transform:translateX(-1000px)}10.1%{transform:translateX(-1100px)}11.3%{transform:translateX(-1200px)}12.2%{transform:translateX(-1300px)}13.1%{transform:translateX(-1400px)}13.8%{transform:translateX(-1500px)}15.9%{transform:translateX(-1600px)}16.8%{transform:translateX(-1700px)}17.7%{transform:translateX(-1800px)}18.6%{transform:translateX(-1900px)}20%{transform:translateX(-2000px)}20.8%{transform:translateX(-2100px)}21.6%{transform:translateX(-2200px)}22.5%{transform:translateX(-2300px)}23.5%{transform:translateX(-2400px)}24.4%{transform:translateX(-2500px)}25.2%{transform:translateX(-2600px)}26.1%{transform:translateX(-2700px)}27%{transform:translateX(-2800px)}28.5%{transform:translateX(-2900px)}29.5%{transform:translateX(-3000px)}31.1%{transform:translateX(-3100px)}32%{transform:translateX(-3200px)}33.4%{transform:translateX(-3300px)}34.3%{transform:translateX(-3400px)}35.3%{transform:translateX(-3500px)}36.2%{transform:translateX(-3600px)}37.1%{transform:translateX(-3700px)}38%{transform:translateX(-3800px)}39.6%{transform:translateX(-3900px)}40.4%{transform:translateX(-4000px)}41.3%{transform:translateX(-4100px)}42.2%{transform:translateX(-4200px)}43.1%{transform:translateX(-4300px)}43.9%{transform:translateX(-4400px)}45.3%{transform:translateX(-4500px)}46.3%{transform:translateX(-4600px)}47.7%{transform:translateX(-4700px)}48%{transform:translateX(-4800px)}48.9%{transform:translateX(-4900px)}49.8%{transform:translateX(-5000px)}50.6%{transform:translateX(-5100px)}51.5%{transform:translateX(-5200px)}52.4%{transform:translateX(-5300px)}53.8%{transform:translateX(-5400px)}54.8%{transform:translateX(-5500px)}56.2%{transform:translateX(-5600px)}57%{transform:translateX(-5700px)}57.7%{transform:translateX(-5800px)}58.6%{transform:translateX(-5900px)}59.5%{transform:translateX(-6000px)}60.4%{transform:translateX(-6100px)}61.4%{transform:translateX(-6200px)}63%{transform:translateX(-6300px)}65.5%{transform:translateX(-6400px)}65.8%{transform:translateX(-6500px)}66.7%{transform:translateX(-6600px)}67.6%{transform:translateX(-6700px)}68.5%{transform:translateX(-6800px)}69.4%{transform:translateX(-6900px)}70.7%{transform:translateX(-7000px)}71.6%{transform:translateX(-7100px)}73.5%{transform:translateX(-7200px)}73.6%{transform:translateX(-7300px)}73.7%{transform:translateX(-7400px)}73.7%{transform:translateX(-7500px)}100%{transform:translateX(-7600px)}}</style><g font-family="&#x27;Fira Code&#x27;,Monaco,Consolas,Menlo,&#x27;Bitstream Vera Sans Mono&#x27;,&#x27;Powerline Symbols&#x27;,monospace" font-size="1.67" class="b"><defs><symbol id="1"><text x="0" y="1.67" class="c">⠙</text><text x="2.004" y="1.67" class="c">Walking</text><text x="10.02" y="1.67" class="c">directories</text><text x="22.043999999999997" y="1.67" class="c">463</text><text x="26.052" y="1.67" class="c">done</text><text x="31.061999999999998" y="1.67" class="c">(54/s)</text><text x="38.07599999999999" y="1.67" class="c">|</text><text x="40.08" y="1.67" class="c">8.5s</text></symbol><symbol id="a"><rect height="2" width="100" x="0" y="0" class="d"></rect></symbol></defs><rect height="2.171" width="100" class="a"></rect><g class="f"><svg x="0" y="0" width="7700"><svg x="0"><use xlink:href="#a"></use></svg><svg x="100"><use xlink:href="#a"></use></svg><svg x="200"><use xlink:href="#a"></use></svg><svg x="300"><use xlink:href="#a"></use><text x="0" y="1.67" class="c">⠙</text><text x="2.004" y="1.67" class="c">Walking</text><text x="10.02" y="1.67" class="c">directories</text><text x="22.043999999999997" y="1.67" class="c">1</text><text x="24.048" y="1.67" class="c">done</text><text x="29.058" y="1.67" class="c">(85/s)</text><text x="36.071999999999996" y="1.67" class="c">|</text><text x="38.07599999999999" y="1.67" class="c">12ms</text></svg><svg x="400"><use xlink:href="#a"></use><text x="0" y="1.67" class="c">⠹</text><text x="2.004" y="1.67" class="c">Walking</text><text x="10.02" y="1.67" class="c">directories</text><text x="22.043999999999997" y="1.67" class="c">5</text><text x="24.048" y="1.67" class="c">done</text><text x="29.058" y="1.67" class="c">(26/s)</text><text x="36.071999999999996" y="1.67" class="c">|</text><text x="38.07599999999999" y="1.67" class="c">192ms</text></svg><svg x="500"><use xlink:href="#a"></use><text x="0" y="1.67" class="c">⠸</text><text x="2.004" y="1.67" class="c">Walking</text><text x="10.02" y="1.67" class="c">directories</text><text x="22.043999999999997" y="1.67" class="c">7</text><text x="24.048" y="1.67" class="c">done</text><text x="29.058" y="1.67" class="c">(19/s)</text><text x="36.071999999999996" y="1.67" class="c">|</text><text x="38.07599999999999" y="1.67" class="c">371ms</text></svg><svg x="600"><use xlink:href="#a"></use><text x="0" y="1.67" class="c">⠼</text><text x="2.004" y="1.67" class="c">Walking</text><text x="10.02" y="1.67" class="c">directories</text><text x="22.043999999999997" y="1.67" class="c">9</text><text x="24.048" y="1.67" class="c">done</text><text x="29.058" y="1.67" class="c">(18/s)</text><text x="36.071999999999996" y="1.67" class="c">|</text><text x="38.07599999999999" y="1.67" class="c">509ms</text></svg><svg x="700"><use xlink:href="#a"></use><text x="0" y="1.67" class="c">⠴</text><text x="2.004" y="1.67" class="c">Walking</text><text x="10.02" y="1.67" class="c">directories</text><text x="22.043999999999997" y="1.67" class="c">14</text><text x="25.05" y="1.67" class="c">done</text><text x="30.059999999999995" y="1.67" class="c">(22/s)</text><text x="37.074" y="1.67" class="c">|</text><text x="39.077999999999996" y="1.67" class="c">648ms</text></svg><svg x="800"><use xlink:href="#a"></use><text x="0" y="1.67" class="c">⠦</text><text x="2.004" y="1.67" class="c">Walking</text><text x="10.02" y="1.67" class="c">directories</text><text x="22.043999999999997" y="1.67" class="c">16</text><text x="25.05" y="1.67" class="c">done</text><text x="30.059999999999995" y="1.67" class="c">(23/s)</text><text x="37.074" y="1.67" class="c">|</text><text x="39.077999999999996" y="1.67" class="c">684ms</text></svg><svg x="900"><use xlink:href="#a"></use><text x="0" y="1.67" class="c">⠧</text><text x="2.004" y="1.67" class="c">Walking</text><text x="10.02" y="1.67" class="c">directories</text><text x="22.043999999999997" y="1.67" class="c">25</text><text x="25.05" y="1.67" class="c">done</text><text x="30.059999999999995" y="1.67" class="c">(32/s)</text><text x="37.074" y="1.67" class="c">|</text><text x="39.077999999999996" y="1.67" class="c">789ms</text></svg><svg x="1000"><use xlink:href="#a"></use><text x="0" y="1.67" class="c">⠇</text><text x="2.004" y="1.67" class="c">Walking</text><text x="10.02" y="1.67" class="c">directories</text><text x="22.043999999999997" y="1.67" class="c">31</text><text x="25.05" y="1.67" class="c">done</text><text x="30.059999999999995" y="1.67" class="c">(34/s)</text><text x="37.074" y="1.67" class="c">|</text><text x="39.077999999999996" y="1.67" class="c">907ms</text></svg><svg x="1100"><use xlink:href="#a"></use><text x="0" y="1.67" class="c">⠏</text><text x="2.004" y="1.67" class="c">Walking</text><text x="10.02" y="1.67" class="c">directories</text><text x="22.043999999999997" y="1.67" class="c">37</text><text x="25.05" y="1.67" class="c">done</text><text x="30.059999999999995" y="1.67" class="c">(37/s)</text><text x="37.074" y="1.67" class="c">|</text><text x="39.077999999999996" y="1.67" class="c">1s</text></svg><svg x="1200"><use xlink:href="#a"></use><text x="0" y="1.67" class="c">⠋</text><text x="2.004" y="1.67" class="c">Walking</text><text x="10.02" y="1.67" class="c">directories</text><text x="22.043999999999997" y="1.67" class="c">43</text><text x="25.05" y="1.67" class="c">done</text><text x="30.059999999999995" y="1.67" class="c">(37/s)</text><text x="37.074" y="1.67" class="c">|</text><text x="39.077999999999996" y="1.67" class="c">1.2s</text></svg><svg x="1300"><use xlink:href="#a"></use><text x="0" y="1.67" class="c">⠙</text><text x="2.004" y="1.67" class="c">Walking</text><text x="10.02" y="1.67" class="c">directories</text><text x="22.043999999999997" y="1.67" class="c">45</text><text x="25.05" y="1.67" class="c">done</text><text x="30.059999999999995" y="1.67" class="c">(36/s)</text><text x="37.074" y="1.67" class="c">|</text><text x="39.077999999999996" y="1.67" class="c">1.3s</text></svg><svg x="1400"><use xlink:href="#a"></use><text x="0" y="1.67" class="c">⠹</text><text x="2.004" y="1.67" class="c">Walking</text><text x="10.02" y="1.67" class="c">directories</text><text x="22.043999999999997" y="1.67" class="c">54</text><text x="25.05" y="1.67" class="c">done</text><text x="30.059999999999995" y="1.67" class="c">(40/s)</text><text x="37.074" y="1.67" class="c">|</text><text x="39.077999999999996" y="1.67" class="c">1.4s</text></svg><svg x="1500"><use xlink:href="#a"></use><text x="0" y="1.67" class="c">⠸</text><text x="2.004" y="1.67" class="c">Walking</text><text x="10.02" y="1.67" class="c">directories</text><text x="22.043999999999997" y="1.67" class="c">55</text><text x="25.05" y="1.67" class="c">done</text><text x="30.059999999999995" y="1.67" class="c">(38/s)</text><text x="37.074" y="1.67" class="c">|</text><text x="39.077999999999996" y="1.67" class="c">1.5s</text></svg><svg x="1600"><use xlink:href="#a"></use><text x="0" y="1.67" class="c">⠼</text><text x="2.004" y="1.67" class="c">Walking</text><text x="10.02" y="1.67" class="c">directories</text><text x="22.043999999999997" y="1.67" class="c">63</text><text x="25.05" y="1.67" class="c">done</text><text x="30.059999999999995" y="1.67" class="c">(37/s)</text><text x="37.074" y="1.67" class="c">|</text><text x="39.077999999999996" y="1.67" class="c">1.7s</text></svg><svg x="1700"><use xlink:href="#a"></use><text x="0" y="1.67" class="c">⠴</text><text x="2.004" y="1.67" class="c">Walking</text><text x="10.02" y="1.67" class="c">directories</text><text x="22.043999999999997" y="1.67" class="c">66</text><text x="25.05" y="1.67" class="c">done</text><text x="30.059999999999995" y="1.67" class="c">(36/s)</text><text x="37.074" y="1.67" class="c">|</text><text x="39.077999999999996" y="1.67" class="c">1.8s</text></svg><svg x="1800"><use xlink:href="#a"></use><text x="0" y="1.67" class="c">⠦</text><text x="2.004" y="1.67" class="c">Walking</text><text x="10.02" y="1.67" class="c">directories</text><text x="22.043999999999997" y="1.67" class="c">72</text><text x="25.05" y="1.67" class="c">done</text><text x="30.059999999999995" y="1.67" class="c">(38/s)</text><text x="37.074" y="1.67" class="c">|</text><text x="39.077999999999996" y="1.67" class="c">1.9s</text></svg><svg x="1900"><use xlink:href="#a"></use><text x="0" y="1.67" class="c">⠧</text><text x="2.004" y="1.67" class="c">Walking</text><text x="10.02" y="1.67" class="c">directories</text><text x="22.043999999999997" y="1.67" class="c">81</text><text x="25.05" y="1.67" class="c">done</text><text x="30.059999999999995" y="1.67" class="c">(40/s)</text><text x="37.074" y="1.67" class="c">|</text><text x="39.077999999999996" y="1.67" class="c">2s</text></svg><svg x="2000"><use xlink:href="#a"></use><text x="0" y="1.67" class="c">⠇</text><text x="2.004" y="1.67" class="c">Walking</text><text x="10.02" y="1.67" class="c">directories</text><text x="22.043999999999997" y="1.67" class="c">89</text><text x="25.05" y="1.67" class="c">done</text><text x="30.059999999999995" y="1.67" class="c">(41/s)</text><text x="37.074" y="1.67" class="c">|</text><text x="39.077999999999996" y="1.67" class="c">2.2s</text></svg><svg x="2100"><use xlink:href="#a"></use><text x="0" y="1.67" class="c">⠏</text><text x="2.004" y="1.67" class="c">Walking</text><text x="10.02" y="1.67" class="c">directories</text><text x="22.043999999999997" y="1.67" class="c">97</text><text x="25.05" y="1.67" class="c">done</text><text x="30.059999999999995" y="1.67" class="c">(42/s)</text><text x="37.074" y="1.67" class="c">|</text><text x="39.077999999999996" y="1.67" class="c">2.3s</text></svg><svg x="2200"><use xlink:href="#a"></use><text x="0" y="1.67" class="c">⠋</text><text x="2.004" y="1.67" class="c">Walking</text><text x="10.02" y="1.67" class="c">directories</text><text x="22.043999999999997" y="1.67" class="c">105</text><text x="26.052" y="1.67" class="c">done</text><text x="31.061999999999998" y="1.67" class="c">(44/s)</text><text x="38.07599999999999" y="1.67" class="c">|</text><text x="40.08" y="1.67" class="c">2.4s</text></svg><svg x="2300"><use xlink:href="#a"></use><text x="0" y="1.67" class="c">⠙</text><text x="2.004" y="1.67" class="c">Walking</text><text x="10.02" y="1.67" class="c">directories</text><text x="22.043999999999997" y="1.67" class="c">107</text><text x="26.052" y="1.67" class="c">done</text><text x="31.061999999999998" y="1.67" class="c">(43/s)</text><text x="38.07599999999999" y="1.67" class="c">|</text><text x="40.08" y="1.67" class="c">2.5s</text></svg><svg x="2400"><use xlink:href="#a"></use><text x="0" y="1.67" class="c">⠹</text><text x="2.004" y="1.67" class="c">Walking</text><text x="10.02" y="1.67" class="c">directories</text><text x="22.043999999999997" y="1.67" class="c">109</text><text x="26.052" y="1.67" class="c">done</text><text x="31.061999999999998" y="1.67" class="c">(42/s)</text><text x="38.07599999999999" y="1.67" class="c">|</text><text x="40.08" y="1.67" class="c">2.6s</text></svg><svg x="2500"><use xlink:href="#a"></use><text x="0" y="1.67" class="c">⠸</text><text x="2.004" y="1.67" class="c">Walking</text><text x="10.02" y="1.67" class="c">directories</text><text x="22.043999999999997" y="1.67" class="c">114</text><text x="26.052" y="1.67" class="c">done</text><text x="31.061999999999998" y="1.67" class="c">(42/s)</text><text x="38.07599999999999" y="1.67" class="c">|</text><text x="40.08" y="1.67" class="c">2.7s</text></svg><svg x="2600"><use xlink:href="#a"></use><text x="0" y="1.67" class="c">⠼</text><text x="2.004" y="1.67" class="c">Walking</text><text x="10.02" y="1.67" class="c">directories</text><text x="22.043999999999997" y="1.67" class="c">122</text><text x="26.052" y="1.67" class="c">done</text><text x="31.061999999999998" y="1.67" class="c">(44/s)</text><text x="38.07599999999999" y="1.67" class="c">|</text><text x="40.08" y="1.67" class="c">2.8s</text></svg><svg x="2700"><use xlink:href="#a"></use><text x="0" y="1.67" class="c">⠴</text><text x="2.004" y="1.67" class="c">Walking</text><text x="10.02" y="1.67" class="c">directories</text><text x="22.043999999999997" y="1.67" class="c">131</text><text x="26.052" y="1.67" class="c">done</text><text x="31.061999999999998" y="1.67" class="c">(45/s)</text><text x="38.07599999999999" y="1.67" class="c">|</text><text x="40.08" y="1.67" class="c">2.9s</text></svg><svg x="2800"><use xlink:href="#a"></use><text x="0" y="1.67" class="c">⠦</text><text x="2.004" y="1.67" class="c">Walking</text><text x="10.02" y="1.67" class="c">directories</text><text x="22.043999999999997" y="1.67" class="c">140</text><text x="26.052" y="1.67" class="c">done</text><text x="31.061999999999998" y="1.67" class="c">(46/s)</text><text x="38.07599999999999" y="1.67" class="c">|</text><text x="40.08" y="1.67" class="c">3s</text></svg><svg x="2900"><use xlink:href="#a"></use><text x="0" y="1.67" class="c">⠧</text><text x="2.004" y="1.67" class="c">Walking</text><text x="10.02" y="1.67" class="c">directories</text><text x="22.043999999999997" y="1.67" class="c">148</text><text x="26.052" y="1.67" class="c">done</text><text x="31.061999999999998" y="1.67" class="c">(46/s)</text><text x="38.07599999999999" y="1.67" class="c">|</text><text x="40.08" y="1.67" class="c">3.2s</text></svg><svg x="3000"><use xlink:href="#a"></use><text x="0" y="1.67" class="c">⠇</text><text x="2.004" y="1.67" class="c">Walking</text><text x="10.02" y="1.67" class="c">directories</text><text x="22.043999999999997" y="1.67" class="c">159</text><text x="26.052" y="1.67" class="c">done</text><text x="31.061999999999998" y="1.67" class="c">(48/s)</text><text x="38.07599999999999" y="1.67" class="c">|</text><text x="40.08" y="1.67" class="c">3.3s</text></svg><svg x="3100"><use xlink:href="#a"></use><text x="0" y="1.67" class="c">⠏</text><text x="2.004" y="1.67" class="c">Walking</text><text x="10.02" y="1.67" class="c">directories</text><text x="22.043999999999997" y="1.67" class="c">167</text><text x="26.052" y="1.67" class="c">done</text><text x="31.061999999999998" y="1.67" class="c">(48/s)</text><text x="38.07599999999999" y="1.67" class="c">|</text><text x="40.08" y="1.67" class="c">3.5s</text></svg><svg x="3200"><use xlink:href="#a"></use><text x="0" y="1.67" class="c">⠋</text><text x="2.004" y="1.67" class="c">Walking</text><text x="10.02" y="1.67" class="c">directories</text><text x="22.043999999999997" y="1.67" class="c">172</text><text x="26.052" y="1.67" class="c">done</text><text x="31.061999999999998" y="1.67" class="c">(48/s)</text><text x="38.07599999999999" y="1.67" class="c">|</text><text x="40.08" y="1.67" class="c">3.6s</text></svg><svg x="3300"><use xlink:href="#a"></use><text x="0" y="1.67" class="c">⠙</text><text x="2.004" y="1.67" class="c">Walking</text><text x="10.02" y="1.67" class="c">directories</text><text x="22.043999999999997" y="1.67" class="c">181</text><text x="26.052" y="1.67" class="c">done</text><text x="31.061999999999998" y="1.67" class="c">(48/s)</text><text x="38.07599999999999" y="1.67" class="c">|</text><text x="40.08" y="1.67" class="c">3.8s</text></svg><svg x="3400"><use xlink:href="#a"></use><text x="0" y="1.67" class="c">⠹</text><text x="2.004" y="1.67" class="c">Walking</text><text x="10.02" y="1.67" class="c">directories</text><text x="22.043999999999997" y="1.67" class="c">189</text><text x="26.052" y="1.67" class="c">done</text><text x="31.061999999999998" y="1.67" class="c">(49/s)</text><text x="38.07599999999999" y="1.67" class="c">|</text><text x="40.08" y="1.67" class="c">3.9s</text></svg><svg x="3500"><use xlink:href="#a"></use><text x="0" y="1.67" class="c">⠸</text><text x="2.004" y="1.67" class="c">Walking</text><text x="10.02" y="1.67" class="c">directories</text><text x="22.043999999999997" y="1.67" class="c">198</text><text x="26.052" y="1.67" class="c">done</text><text x="31.061999999999998" y="1.67" class="c">(50/s)</text><text x="38.07599999999999" y="1.67" class="c">|</text><text x="40.08" y="1.67" class="c">4s</text></svg><svg x="3600"><use xlink:href="#a"></use><text x="0" y="1.67" class="c">⠼</text><text x="2.004" y="1.67" class="c">Walking</text><text x="10.02" y="1.67" class="c">directories</text><text x="22.043999999999997" y="1.67" class="c">207</text><text x="26.052" y="1.67" class="c">done</text><text x="31.061999999999998" y="1.67" class="c">(50/s)</text><text x="38.07599999999999" y="1.67" class="c">|</text><text x="40.08" y="1.67" class="c">4.1s</text></svg><svg x="3700"><use xlink:href="#a"></use><text x="0" y="1.67" class="c">⠴</text><text x="2.004" y="1.67" class="c">Walking</text><text x="10.02" y="1.67" class="c">directories</text><text x="22.043999999999997" y="1.67" class="c">210</text><text x="26.052" y="1.67" class="c">done</text><text x="31.061999999999998" y="1.67" class="c">(50/s)</text><text x="38.07599999999999" y="1.67" class="c">|</text><text x="40.08" y="1.67" class="c">4.2s</text></svg><svg x="3800"><use xlink:href="#a"></use><text x="0" y="1.67" class="c">⠦</text><text x="2.004" y="1.67" class="c">Walking</text><text x="10.02" y="1.67" class="c">directories</text><text x="22.043999999999997" y="1.67" class="c">219</text><text x="26.052" y="1.67" class="c">done</text><text x="31.061999999999998" y="1.67" class="c">(51/s)</text><text x="38.07599999999999" y="1.67" class="c">|</text><text x="40.08" y="1.67" class="c">4.3s</text></svg><svg x="3900"><use xlink:href="#a"></use><text x="0" y="1.67" class="c">⠧</text><text x="2.004" y="1.67" class="c">Walking</text><text x="10.02" y="1.67" class="c">directories</text><text x="22.043999999999997" y="1.67" class="c">227</text><text x="26.052" y="1.67" class="c">done</text><text x="31.061999999999998" y="1.67" class="c">(50/s)</text><text x="38.07599999999999" y="1.67" class="c">|</text><text x="40.08" y="1.67" class="c">4.5s</text></svg><svg x="4000"><use xlink:href="#a"></use><text x="0" y="1.67" class="c">⠇</text><text x="2.004" y="1.67" class="c">Walking</text><text x="10.02" y="1.67" class="c">directories</text><text x="22.043999999999997" y="1.67" class="c">231</text><text x="26.052" y="1.67" class="c">done</text><text x="31.061999999999998" y="1.67" class="c">(50/s)</text><text x="38.07599999999999" y="1.67" class="c">|</text><text x="40.08" y="1.67" class="c">4.6s</text></svg><svg x="4100"><use xlink:href="#a"></use><text x="0" y="1.67" class="c">⠏</text><text x="2.004" y="1.67" class="c">Walking</text><text x="10.02" y="1.67" class="c">directories</text><text x="22.043999999999997" y="1.67" class="c">234</text><text x="26.052" y="1.67" class="c">done</text><text x="31.061999999999998" y="1.67" class="c">(50/s)</text><text x="38.07599999999999" y="1.67" class="c">|</text><text x="40.08" y="1.67" class="c">4.7s</text></svg><svg x="4200"><use xlink:href="#a"></use><text x="0" y="1.67" class="c">⠋</text><text x="2.004" y="1.67" class="c">Walking</text><text x="10.02" y="1.67" class="c">directories</text><text x="22.043999999999997" y="1.67" class="c">242</text><text x="26.052" y="1.67" class="c">done</text><text x="31.061999999999998" y="1.67" class="c">(50/s)</text><text x="38.07599999999999" y="1.67" class="c">|</text><text x="40.08" y="1.67" class="c">4.8s</text></svg><svg x="4300"><use xlink:href="#a"></use><text x="0" y="1.67" class="c">⠙</text><text x="2.004" y="1.67" class="c">Walking</text><text x="10.02" y="1.67" class="c">directories</text><text x="22.043999999999997" y="1.67" class="c">251</text><text x="26.052" y="1.67" class="c">done</text><text x="31.061999999999998" y="1.67" class="c">(51/s)</text><text x="38.07599999999999" y="1.67" class="c">|</text><text x="40.08" y="1.67" class="c">4.9s</text></svg><svg x="4400"><use xlink:href="#a"></use><text x="0" y="1.67" class="c">⠹</text><text x="2.004" y="1.67" class="c">Walking</text><text x="10.02" y="1.67" class="c">directories</text><text x="22.043999999999997" y="1.67" class="c">255</text><text x="26.052" y="1.67" class="c">done</text><text x="31.061999999999998" y="1.67" class="c">(51/s)</text><text x="38.07599999999999" y="1.67" class="c">|</text><text x="40.08" y="1.67" class="c">5s</text></svg><svg x="4500"><use xlink:href="#a"></use><text x="0" y="1.67" class="c">⠸</text><text x="2.004" y="1.67" class="c">Walking</text><text x="10.02" y="1.67" class="c">directories</text><text x="22.043999999999997" y="1.67" class="c">261</text><text x="26.052" y="1.67" class="c">done</text><text x="31.061999999999998" y="1.67" class="c">(50/s)</text><text x="38.07599999999999" y="1.67" class="c">|</text><text x="40.08" y="1.67" class="c">5.2s</text></svg><svg x="4600"><use xlink:href="#a"></use><text x="0" y="1.67" class="c">⠼</text><text x="2.004" y="1.67" class="c">Walking</text><text x="10.02" y="1.67" class="c">directories</text><text x="22.043999999999997" y="1.67" class="c">264</text><text x="26.052" y="1.67" class="c">done</text><text x="31.061999999999998" y="1.67" class="c">(50/s)</text><text x="38.07599999999999" y="1.67" class="c">|</text><text x="40.08" y="1.67" class="c">5.3s</text></svg><svg x="4700"><use xlink:href="#a"></use><text x="0" y="1.67" class="c">⠴</text><text x="2.004" y="1.67" class="c">Walking</text><text x="10.02" y="1.67" class="c">directories</text><text x="22.043999999999997" y="1.67" class="c">273</text><text x="26.052" y="1.67" class="c">done</text><text x="31.061999999999998" y="1.67" class="c">(50/s)</text><text x="38.07599999999999" y="1.67" class="c">|</text><text x="40.08" y="1.67" class="c">5.5s</text></svg><svg x="4800"><use xlink:href="#a"></use><text x="0" y="1.67" class="c">⠦</text><text x="2.004" y="1.67" class="c">Walking</text><text x="10.02" y="1.67" class="c">directories</text><text x="22.043999999999997" y="1.67" class="c">275</text><text x="26.052" y="1.67" class="c">done</text><text x="31.061999999999998" y="1.67" class="c">(50/s)</text><text x="38.07599999999999" y="1.67" class="c">|</text><text x="40.08" y="1.67" class="c">5.5s</text></svg><svg x="4900"><use xlink:href="#a"></use><text x="0" y="1.67" class="c">⠧</text><text x="2.004" y="1.67" class="c">Walking</text><text x="10.02" y="1.67" class="c">directories</text><text x="22.043999999999997" y="1.67" class="c">282</text><text x="26.052" y="1.67" class="c">done</text><text x="31.061999999999998" y="1.67" class="c">(50/s)</text><text x="38.07599999999999" y="1.67" class="c">|</text><text x="40.08" y="1.67" class="c">5.6s</text></svg><svg x="5000"><use xlink:href="#a"></use><text x="0" y="1.67" class="c">⠇</text><text x="2.004" y="1.67" class="c">Walking</text><text x="10.02" y="1.67" class="c">directories</text><text x="22.043999999999997" y="1.67" class="c">291</text><text x="26.052" y="1.67" class="c">done</text><text x="31.061999999999998" y="1.67" class="c">(51/s)</text><text x="38.07599999999999" y="1.67" class="c">|</text><text x="40.08" y="1.67" class="c">5.7s</text></svg><svg x="5100"><use xlink:href="#a"></use><text x="0" y="1.67" class="c">⠏</text><text x="2.004" y="1.67" class="c">Walking</text><text x="10.02" y="1.67" class="c">directories</text><text x="22.043999999999997" y="1.67" class="c">299</text><text x="26.052" y="1.67" class="c">done</text><text x="31.061999999999998" y="1.67" class="c">(51/s)</text><text x="38.07599999999999" y="1.67" class="c">|</text><text x="40.08" y="1.67" class="c">5.8s</text></svg><svg x="5200"><use xlink:href="#a"></use><text x="0" y="1.67" class="c">⠋</text><text x="2.004" y="1.67" class="c">Walking</text><text x="10.02" y="1.67" class="c">directories</text><text x="22.043999999999997" y="1.67" class="c">305</text><text x="26.052" y="1.67" class="c">done</text><text x="31.061999999999998" y="1.67" class="c">(52/s)</text><text x="38.07599999999999" y="1.67" class="c">|</text><text x="40.08" y="1.67" class="c">5.9s</text></svg><svg x="5300"><use xlink:href="#a"></use><text x="0" y="1.67" class="c">⠙</text><text x="2.004" y="1.67" class="c">Walking</text><text x="10.02" y="1.67" class="c">directories</text><text x="22.043999999999997" y="1.67" class="c">314</text><text x="26.052" y="1.67" class="c">done</text><text x="31.061999999999998" y="1.67" class="c">(52/s)</text><text x="38.07599999999999" y="1.67" class="c">|</text><text x="40.08" y="1.67" class="c">6s</text></svg><svg x="5400"><use xlink:href="#a"></use><text x="0" y="1.67" class="c">⠹</text><text x="2.004" y="1.67" class="c">Walking</text><text x="10.02" y="1.67" class="c">directories</text><text x="22.043999999999997" y="1.67" class="c">322</text><text x="26.052" y="1.67" class="c">done</text><text x="31.061999999999998" y="1.67" class="c">(52/s)</text><text x="38.07599999999999" y="1.67" class="c">|</text><text x="40.08" y="1.67" class="c">6.2s</text></svg><svg x="5500"><use xlink:href="#a"></use><text x="0" y="1.67" class="c">⠸</text><text x="2.004" y="1.67" class="c">Walking</text><text x="10.02" y="1.67" class="c">directories</text><text x="22.043999999999997" y="1.67" class="c">333</text><text x="26.052" y="1.67" class="c">done</text><text x="31.061999999999998" y="1.67" class="c">(53/s)</text><text x="38.07599999999999" y="1.67" class="c">|</text><text x="40.08" y="1.67" class="c">6.3s</text></svg><svg x="5600"><use xlink:href="#a"></use><text x="0" y="1.67" class="c">⠼</text><text x="2.004" y="1.67" class="c">Walking</text><text x="10.02" y="1.67" class="c">directories</text><text x="22.043999999999997" y="1.67" class="c">340</text><text x="26.052" y="1.67" class="c">done</text><text x="31.061999999999998" y="1.67" class="c">(52/s)</text><text x="38.07599999999999" y="1.67" class="c">|</text><text x="40.08" y="1.67" class="c">6.5s</text></svg><svg x="5700"><use xlink:href="#a"></use><text x="0" y="1.67" class="c">⠴</text><text x="2.004" y="1.67" class="c">Walking</text><text x="10.02" y="1.67" class="c">directories</text><text x="22.043999999999997" y="1.67" class="c">341</text><text x="26.052" y="1.67" class="c">done</text><text x="31.061999999999998" y="1.67" class="c">(52/s)</text><text x="38.07599999999999" y="1.67" class="c">|</text><text x="40.08" y="1.67" class="c">6.6s</text></svg><svg x="5800"><use xlink:href="#a"></use><text x="0" y="1.67" class="c">⠦</text><text x="2.004" y="1.67" class="c">Walking</text><text x="10.02" y="1.67" class="c">directories</text><text x="22.043999999999997" y="1.67" class="c">347</text><text x="26.052" y="1.67" class="c">done</text><text x="31.061999999999998" y="1.67" class="c">(52/s)</text><text x="38.07599999999999" y="1.67" class="c">|</text><text x="40.08" y="1.67" class="c">6.7s</text></svg><svg x="5900"><use xlink:href="#a"></use><text x="0" y="1.67" class="c">⠧</text><text x="2.004" y="1.67" class="c">Walking</text><text x="10.02" y="1.67" class="c">directories</text><text x="22.043999999999997" y="1.67" class="c">356</text><text x="26.052" y="1.67" class="c">done</text><text x="31.061999999999998" y="1.67" class="c">(53/s)</text><text x="38.07599999999999" y="1.67" class="c">|</text><text x="40.08" y="1.67" class="c">6.8s</text></svg><svg x="6000"><use xlink:href="#a"></use><text x="0" y="1.67" class="c">⠇</text><text x="2.004" y="1.67" class="c">Walking</text><text x="10.02" y="1.67" class="c">directories</text><text x="22.043999999999997" y="1.67" class="c">365</text><text x="26.052" y="1.67" class="c">done</text><text x="31.061999999999998" y="1.67" class="c">(53/s)</text><text x="38.07599999999999" y="1.67" class="c">|</text><text x="40.08" y="1.67" class="c">6.9s</text></svg><svg x="6100"><use xlink:href="#a"></use><text x="0" y="1.67" class="c">⠏</text><text x="2.004" y="1.67" class="c">Walking</text><text x="10.02" y="1.67" class="c">directories</text><text x="22.043999999999997" y="1.67" class="c">375</text><text x="26.052" y="1.67" class="c">done</text><text x="31.061999999999998" y="1.67" class="c">(54/s)</text><text x="38.07599999999999" y="1.67" class="c">|</text><text x="40.08" y="1.67" class="c">7s</text></svg><svg x="6200"><use xlink:href="#a"></use><text x="0" y="1.67" class="c">⠋</text><text x="2.004" y="1.67" class="c">Walking</text><text x="10.02" y="1.67" class="c">directories</text><text x="22.043999999999997" y="1.67" class="c">379</text><text x="26.052" y="1.67" class="c">done</text><text x="31.061999999999998" y="1.67" class="c">(53/s)</text><text x="38.07599999999999" y="1.67" class="c">|</text><text x="40.08" y="1.67" class="c">7.1s</text></svg><svg x="6300"><use xlink:href="#a"></use><text x="0" y="1.67" class="c">⠙</text><text x="2.004" y="1.67" class="c">Walking</text><text x="10.02" y="1.67" class="c">directories</text><text x="22.043999999999997" y="1.67" class="c">390</text><text x="26.052" y="1.67" class="c">done</text><text x="31.061999999999998" y="1.67" class="c">(54/s)</text><text x="38.07599999999999" y="1.67" class="c">|</text><text x="40.08" y="1.67" class="c">7.3s</text></svg><svg x="6400"><use xlink:href="#a"></use><text x="0" y="1.67" class="c">⠹</text><text x="2.004" y="1.67" class="c">Walking</text><text x="10.02" y="1.67" class="c">directories</text><text x="22.043999999999997" y="1.67" class="c">403</text><text x="26.052" y="1.67" class="c">done</text><text x="31.061999999999998" y="1.67" class="c">(53/s)</text><text x="38.07599999999999" y="1.67" class="c">|</text><text x="40.08" y="1.67" class="c">7.6s</text></svg><svg x="6500"><use xlink:href="#a"></use><text x="0" y="1.67" class="c">⠸</text><text x="2.004" y="1.67" class="c">Walking</text><text x="10.02" y="1.67" class="c">directories</text><text x="22.043999999999997" y="1.67" class="c">406</text><text x="26.052" y="1.67" class="c">done</text><text x="31.061999999999998" y="1.67" class="c">(53/s)</text><text x="38.07599999999999" y="1.67" class="c">|</text><text x="40.08" y="1.67" class="c">7.6s</text></svg><svg x="6600"><use xlink:href="#a"></use><text x="0" y="1.67" class="c">⠼</text><text x="2.004" y="1.67" class="c">Walking</text><text x="10.02" y="1.67" class="c">directories</text><text x="22.043999999999997" y="1.67" class="c">415</text><text x="26.052" y="1.67" class="c">done</text><text x="31.061999999999998" y="1.67" class="c">(54/s)</text><text x="38.07599999999999" y="1.67" class="c">|</text><text x="40.08" y="1.67" class="c">7.7s</text></svg><svg x="6700"><use xlink:href="#a"></use><text x="0" y="1.67" class="c">⠴</text><text x="2.004" y="1.67" class="c">Walking</text><text x="10.02" y="1.67" class="c">directories</text><text x="22.043999999999997" y="1.67" class="c">424</text><text x="26.052" y="1.67" class="c">done</text><text x="31.061999999999998" y="1.67" class="c">(54/s)</text><text x="38.07599999999999" y="1.67" class="c">|</text><text x="40.08" y="1.67" class="c">7.8s</text></svg><svg x="6800"><use xlink:href="#a"></use><text x="0" y="1.67" class="c">⠦</text><text x="2.004" y="1.67" class="c">Walking</text><text x="10.02" y="1.67" class="c">directories</text><text x="22.043999999999997" y="1.67" class="c">433</text><text x="26.052" y="1.67" class="c">done</text><text x="31.061999999999998" y="1.67" class="c">(55/s)</text><text x="38.07599999999999" y="1.67" class="c">|</text><text x="40.08" y="1.67" class="c">7.9s</text></svg><svg x="6900"><use xlink:href="#a"></use><text x="0" y="1.67" class="c">⠧</text><text x="2.004" y="1.67" class="c">Walking</text><text x="10.02" y="1.67" class="c">directories</text><text x="22.043999999999997" y="1.67" class="c">442</text><text x="26.052" y="1.67" class="c">done</text><text x="31.061999999999998" y="1.67" class="c">(55/s)</text><text x="38.07599999999999" y="1.67" class="c">|</text><text x="40.08" y="1.67" class="c">8s</text></svg><svg x="7000"><use xlink:href="#a"></use><text x="0" y="1.67" class="c">⠇</text><text x="2.004" y="1.67" class="c">Walking</text><text x="10.02" y="1.67" class="c">directories</text><text x="22.043999999999997" y="1.67" class="c">449</text><text x="26.052" y="1.67" class="c">done</text><text x="31.061999999999998" y="1.67" class="c">(55/s)</text><text x="38.07599999999999" y="1.67" class="c">|</text><text x="40.08" y="1.67" class="c">8.2s</text></svg><svg x="7100"><use xlink:href="#a"></use><text x="0" y="1.67" class="c">⠏</text><text x="2.004" y="1.67" class="c">Walking</text><text x="10.02" y="1.67" class="c">directories</text><text x="22.043999999999997" y="1.67" class="c">452</text><text x="26.052" y="1.67" class="c">done</text><text x="31.061999999999998" y="1.67" class="c">(54/s)</text><text x="38.07599999999999" y="1.67" class="c">|</text><text x="40.08" y="1.67" class="c">8.3s</text></svg><svg x="7200"><use xlink:href="#a"></use><text x="0" y="1.67" class="c">⠋</text><text x="2.004" y="1.67" class="c">Walking</text><text x="10.02" y="1.67" class="c">directories</text><text x="22.043999999999997" y="1.67" class="c">462</text><text x="26.052" y="1.67" class="c">done</text><text x="31.061999999999998" y="1.67" class="c">(54/s)</text><text x="38.07599999999999" y="1.67" class="c">|</text><text x="40.08" y="1.67" class="c">8.5s</text></svg><svg x="7300"><use xlink:href="#a"></use><use xlink:href="#1" y="0"></use></svg><svg x="7400"><use xlink:href="#a"></use><use xlink:href="#1" y="0"></use></svg><svg x="7500"><use xlink:href="#a"></use><use xlink:href="#1" y="0"></use></svg><svg x="7600"><use xlink:href="#a"></use><use xlink:href="#1" y="0"></use></svg></svg></g></g></svg></svg>