<svg xmlns="http://www.w3.org/2000/svg" xmlns:xlink="http://www.w3.org/1999/xlink" width="1040" height="61.709999999999994"><rect width="1040" height="61.709999999999994" rx="0" ry="0" class="a"></rect><svg height="21.709999999999997" viewBox="0 0 100 2.171" width="1000" x="20" xmlns="http://www.w3.org/2000/svg" xmlns:xlink="http://www.w3.org/1999/xlink" y="20"><style>.a{fill:rgb(40,45,53)}.b{font-family:'Fira Code',Monaco,Consolas,Menlo,'Bitstream Vera Sans Mono','Powerline Symbols',monospace}.c{fill:rgb(185,192,203);white-space:pre}.d{fill:transparent}.f{animation-duration:9.50627207756042s;animation-iteration-count:infinite;animation-name:e;animation-timing-function:steps(1,end)}@keyframes e{0%{transform:translateX(-0px)}0.1%{transform:translateX(-100px)}1.5%{transform:translateX(-200px)}1.6%{transform:translateX(-300px)}1.9%{transform:translateX(-400px)}2.8%{transform:translateX(-500px)}3.9%{transform:translateX(-600px)}5%{transform:translateX(-700px)}6.1%{transform:translateX(-800px)}7.2%{transform:translateX(-900px)}8.2%{transform:translateX(-1000px)}9.6%{transform:translateX(-1100px)}10.4%{transform:translateX(-1200px)}11.5%{transform:translateX(-1300px)}12.6%{transform:translateX(-1400px)}13.6%{transform:translateX(-1500px)}14.8%{transform:translateX(-1600px)}15.8%{transform:translateX(-1700px)}16.9%{transform:translateX(-1800px)}18%{transform:translateX(-1900px)}19.2%{transform:translateX(-2000px)}20.2%{transform:translateX(-2100px)}21.3%{transform:translateX(-2200px)}22.2%{transform:translateX(-2300px)}23.4%{transform:translateX(-2400px)}24.4%{transform:translateX(-2500px)}25.5%{transform:translateX(-2600px)}26.6%{transform:translateX(-2700px)}27.7%{transform:translateX(-2800px)}28.8%{transform:translateX(-2900px)}29.9%{transform:translateX(-3000px)}30.9%{transform:translateX(-3100px)}32%{transform:translateX(-3200px)}33.1%{transform:translateX(-3300px)}34.2%{transform:translateX(-3400px)}35.2%{transform:translateX(-3500px)}36.3%{transform:translateX(-3600px)}37.6%{transform:translateX(-3700px)}39.1%{transform:translateX(-3800px)}39.7%{transform:translateX(-3900px)}40.7%{transform:translateX(-4000px)}41.8%{transform:translateX(-4100px)}42.8%{transform:translateX(-4200px)}43.9%{transform:translateX(-4300px)}45%{transform:translateX(-4400px)}46%{transform:translateX(-4500px)}47%{transform:translateX(-4600px)}48.2%{transform:translateX(-4700px)}49.3%{transform:translateX(-4800px)}50.4%{transform:translateX(-4900px)}51.3%{transform:translateX(-5000px)}52.5%{transform:translateX(-5100px)}53.6%{transform:translateX(-5200px)}54.6%{transform:translateX(-5300px)}55.7%{transform:translateX(-5400px)}56.7%{transform:translateX(-5500px)}57.8%{transform:translateX(-5600px)}59%{transform:translateX(-5700px)}60.1%{transform:translateX(-5800px)}61.1%{transform:translateX(-5900px)}62.2%{transform:translateX(-6000px)}63.3%{transform:translateX(-6100px)}64.4%{transform:translateX(-6200px)}65.5%{transform:translateX(-6300px)}66.6%{transform:translateX(-6400px)}67.2%{transform:translateX(-6500px)}67.3%{transform:translateX(-6600px)}67.3%{transform:translateX(-6700px)}100%{transform:translateX(-6800px)}}</style><g font-family="&#x27;Fira Code&#x27;,Monaco,Consolas,Menlo,&#x27;Bitstream Vera Sans Mono&#x27;,&#x27;Powerline Symbols&#x27;,monospace" font-size="1.67" class="b"><defs><symbol id="1"><text x="0" y="1.67" class="c">⠸</text><text x="2.004" y="1.67" class="c">Walking</text><text x="10.02" y="1.67" class="c">directories</text><text x="22.043999999999997" y="1.67" class="c">463</text><text x="26.052" y="1.67" class="c">done</text><text x="31.061999999999998" y="1.67" class="c">(74/s)</text><text x="38.07599999999999" y="1.67" class="c">|</text><text x="40.08" y="1.67" class="c">6.3s</text></symbol><symbol id="a"><rect height="2" width="100" x="0" y="0" class="d"></rect></symbol></defs><rect height="2.171" width="100" class="a"></rect><g class="f"><svg x="0" y="0" width="6900"><svg x="0"><use xlink:href="#a"></use></svg><svg x="100"><use xlink:href="#a"></use></svg><svg x="200"><use xlink:href="#a"></use></svg><svg x="300"><use xlink:href="#a"></use><text x="0" y="1.67" class="c">⠙</text><text x="2.004" y="1.67" class="c">Walking</text><text x="10.02" y="1.67" class="c">directories</text><text x="22.043999999999997" y="1.67" class="c">1</text><text x="24.048" y="1.67" class="c">done</text><text x="29.058" y="1.67" class="c">(66/s)</text><text x="36.071999999999996" y="1.67" class="c">|</text><text x="38.07599999999999" y="1.67" class="c">16ms</text></svg><svg x="400"><use xlink:href="#a"></use><text x="0" y="1.67" class="c">⠹</text><text x="2.004" y="1.67" class="c">Walking</text><text x="10.02" y="1.67" class="c">directories</text><text x="22.043999999999997" y="1.67" class="c">2</text><text x="24.048" y="1.67" class="c">done</text><text x="29.058" y="1.67" class="c">(43/s)</text><text x="36.071999999999996" y="1.67" class="c">|</text><text x="38.07599999999999" y="1.67" class="c">47ms</text></svg><svg x="500"><use xlink:href="#a"></use><text x="0" y="1.67" class="c">⠸</text><text x="2.004" y="1.67" class="c">Walking</text><text x="10.02" y="1.67" class="c">directories</text><text x="22.043999999999997" y="1.67" class="c">8</text><text x="24.048" y="1.67" class="c">done</text><text x="29.058" y="1.67" class="c">(58/s)</text><text x="36.071999999999996" y="1.67" class="c">|</text><text x="38.07599999999999" y="1.67" class="c">138ms</text></svg><svg x="600"><use xlink:href="#a"></use><text x="0" y="1.67" class="c">⠼</text><text x="2.004" y="1.67" class="c">Walking</text><text x="10.02" y="1.67" class="c">directories</text><text x="22.043999999999997" y="1.67" class="c">15</text><text x="25.05" y="1.67" class="c">done</text><text x="30.059999999999995" y="1.67" class="c">(62/s)</text><text x="37.074" y="1.67" class="c">|</text><text x="39.077999999999996" y="1.67" class="c">242ms</text></svg><svg x="700"><use xlink:href="#a"></use><text x="0" y="1.67" class="c">⠴</text><text x="2.004" y="1.67" class="c">Walking</text><text x="10.02" y="1.67" class="c">directories</text><text x="22.043999999999997" y="1.67" class="c">23</text><text x="25.05" y="1.67" class="c">done</text><text x="30.059999999999995" y="1.67" class="c">(66/s)</text><text x="37.074" y="1.67" class="c">|</text><text x="39.077999999999996" y="1.67" class="c">348ms</text></svg><svg x="800"><use xlink:href="#a"></use><text x="0" y="1.67" class="c">⠦</text><text x="2.004" y="1.67" class="c">Walking</text><text x="10.02" y="1.67" class="c">directories</text><text x="22.043999999999997" y="1.67" class="c">31</text><text x="25.05" y="1.67" class="c">done</text><text x="30.059999999999995" y="1.67" class="c">(69/s)</text><text x="37.074" y="1.67" class="c">|</text><text x="39.077999999999996" y="1.67" class="c">449ms</text></svg><svg x="900"><use xlink:href="#a"></use><text x="0" y="1.67" class="c">⠧</text><text x="2.004" y="1.67" class="c">Walking</text><text x="10.02" y="1.67" class="c">directories</text><text x="22.043999999999997" y="1.67" class="c">39</text><text x="25.05" y="1.67" class="c">done</text><text x="30.059999999999995" y="1.67" class="c">(70/s)</text><text x="37.074" y="1.67" class="c">|</text><text x="39.077999999999996" y="1.67" class="c">555ms</text></svg><svg x="1000"><use xlink:href="#a"></use><text x="0" y="1.67" class="c">⠇</text><text x="2.004" y="1.67" class="c">Walking</text><text x="10.02" y="1.67" class="c">directories</text><text x="22.043999999999997" y="1.67" class="c">46</text><text x="25.05" y="1.67" class="c">done</text><text x="30.059999999999995" y="1.67" class="c">(70/s)</text><text x="37.074" y="1.67" class="c">|</text><text x="39.077999999999996" y="1.67" class="c">654ms</text></svg><svg x="1100"><use xlink:href="#a"></use><text x="0" y="1.67" class="c">⠏</text><text x="2.004" y="1.67" class="c">Walking</text><text x="10.02" y="1.67" class="c">directories</text><text x="22.043999999999997" y="1.67" class="c">54</text><text x="25.05" y="1.67" class="c">done</text><text x="30.059999999999995" y="1.67" class="c">(71/s)</text><text x="37.074" y="1.67" class="c">|</text><text x="39.077999999999996" y="1.67" class="c">766ms</text></svg><svg x="1200"><use xlink:href="#a"></use><text x="0" y="1.67" class="c">⠋</text><text x="2.004" y="1.67" class="c">Walking</text><text x="10.02" y="1.67" class="c">directories</text><text x="22.043999999999997" y="1.67" class="c">61</text><text x="25.05" y="1.67" class="c">done</text><text x="30.059999999999995" y="1.67" class="c">(71/s)</text><text x="37.074" y="1.67" class="c">|</text><text x="39.077999999999996" y="1.67" class="c">865ms</text></svg><svg x="1300"><use xlink:href="#a"></use><text x="0" y="1.67" class="c">⠙</text><text x="2.004" y="1.67" class="c">Walking</text><text x="10.02" y="1.67" class="c">directories</text><text x="22.043999999999997" y="1.67" class="c">69</text><text x="25.05" y="1.67" class="c">done</text><text x="30.059999999999995" y="1.67" class="c">(71/s)</text><text x="37.074" y="1.67" class="c">|</text><text x="39.077999999999996" y="1.67" class="c">971ms</text></svg><svg x="1400"><use xlink:href="#a"></use><text x="0" y="1.67" class="c">⠹</text><text x="2.004" y="1.67" class="c">Walking</text><text x="10.02" y="1.67" class="c">directories</text><text x="22.043999999999997" y="1.67" class="c">77</text><text x="25.05" y="1.67" class="c">done</text><text x="30.059999999999995" y="1.67" class="c">(72/s)</text><text x="37.074" y="1.67" class="c">|</text><text x="39.077999999999996" y="1.67" class="c">1.1s</text></svg><svg x="1500"><use xlink:href="#a"></use><text x="0" y="1.67" class="c">⠸</text><text x="2.004" y="1.67" class="c">Walking</text><text x="10.02" y="1.67" class="c">directories</text><text x="22.043999999999997" y="1.67" class="c">85</text><text x="25.05" y="1.67" class="c">done</text><text x="30.059999999999995" y="1.67" class="c">(73/s)</text><text x="37.074" y="1.67" class="c">|</text><text x="39.077999999999996" y="1.67" class="c">1.2s</text></svg><svg x="1600"><use xlink:href="#a"></use><text x="0" y="1.67" class="c">⠼</text><text x="2.004" y="1.67" class="c">Walking</text><text x="10.02" y="1.67" class="c">directories</text><text x="22.043999999999997" y="1.67" class="c">93</text><text x="25.05" y="1.67" class="c">done</text><text x="30.059999999999995" y="1.67" class="c">(73/s)</text><text x="37.074" y="1.67" class="c">|</text><text x="39.077999999999996" y="1.67" class="c">1.3s</text></svg><svg x="1700"><use xlink:href="#a"></use><text x="0" y="1.67" class="c">⠴</text><text x="2.004" y="1.67" class="c">Walking</text><text x="10.02" y="1.67" class="c">directories</text><text x="22.043999999999997" y="1.67" class="c">100</text><text x="26.052" y="1.67" class="c">done</text><text x="31.061999999999998" y="1.67" class="c">(73/s)</text><text x="38.07599999999999" y="1.67" class="c">|</text><text x="40.08" y="1.67" class="c">1.4s</text></svg><svg x="1800"><use xlink:href="#a"></use><text x="0" y="1.67" class="c">⠦</text><text x="2.004" y="1.67" class="c">Walking</text><text x="10.02" y="1.67" class="c">directories</text><text x="22.043999999999997" y="1.67" class="c">108</text><text x="26.052" y="1.67" class="c">done</text><text x="31.061999999999998" y="1.67" class="c">(73/s)</text><text x="38.07599999999999" y="1.67" class="c">|</text><text x="40.08" y="1.67" class="c">1.5s</text></svg><svg x="1900"><use xlink:href="#a"></use><text x="0" y="1.67" class="c">⠧</text><text x="2.004" y="1.67" class="c">Walking</text><text x="10.02" y="1.67" class="c">directories</text><text x="22.043999999999997" y="1.67" class="c">116</text><text x="26.052" y="1.67" class="c">done</text><text x="31.061999999999998" y="1.67" class="c">(73/s)</text><text x="38.07599999999999" y="1.67" class="c">|</text><text x="40.08" y="1.67" class="c">1.6s</text></svg><svg x="2000"><use xlink:href="#a"></use><text x="0" y="1.67" class="c">⠇</text><text x="2.004" y="1.67" class="c">Walking</text><text x="10.02" y="1.67" class="c">directories</text><text x="22.043999999999997" y="1.67" class="c">124</text><text x="26.052" y="1.67" class="c">done</text><text x="31.061999999999998" y="1.67" class="c">(73/s)</text><text x="38.07599999999999" y="1.67" class="c">|</text><text x="40.08" y="1.67" class="c">1.7s</text></svg><svg x="2100"><use xlink:href="#a"></use><text x="0" y="1.67" class="c">⠏</text><text x="2.004" y="1.67" class="c">Walking</text><text x="10.02" y="1.67" class="c">directories</text><text x="22.043999999999997" y="1.67" class="c">131</text><text x="26.052" y="1.67" class="c">done</text><text x="31.061999999999998" y="1.67" class="c">(73/s)</text><text x="38.07599999999999" y="1.67" class="c">|</text><text x="40.08" y="1.67" class="c">1.8s</text></svg><svg x="2200"><use xlink:href="#a"></use><text x="0" y="1.67" class="c">⠋</text><text x="2.004" y="1.67" class="c">Walking</text><text x="10.02" y="1.67" class="c">directories</text><text x="22.043999999999997" y="1.67" class="c">139</text><text x="26.052" y="1.67" class="c">done</text><text x="31.061999999999998" y="1.67" class="c">(73/s)</text><text x="38.07599999999999" y="1.67" class="c">|</text><text x="40.08" y="1.67" class="c">1.9s</text></svg><svg x="2300"><use xlink:href="#a"></use><text x="0" y="1.67" class="c">⠙</text><text x="2.004" y="1.67" class="c">Walking</text><text x="10.02" y="1.67" class="c">directories</text><text x="22.043999999999997" y="1.67" class="c">146</text><text x="26.052" y="1.67" class="c">done</text><text x="31.061999999999998" y="1.67" class="c">(73/s)</text><text x="38.07599999999999" y="1.67" class="c">|</text><text x="40.08" y="1.67" class="c">2s</text></svg><svg x="2400"><use xlink:href="#a"></use><text x="0" y="1.67" class="c">⠹</text><text x="2.004" y="1.67" class="c">Walking</text><text x="10.02" y="1.67" class="c">directories</text><text x="22.043999999999997" y="1.67" class="c">154</text><text x="26.052" y="1.67" class="c">done</text><text x="31.061999999999998" y="1.67" class="c">(74/s)</text><text x="38.07599999999999" y="1.67" class="c">|</text><text x="40.08" y="1.67" class="c">2.1s</text></svg><svg x="2500"><use xlink:href="#a"></use><text x="0" y="1.67" class="c">⠸</text><text x="2.004" y="1.67" class="c">Walking</text><text x="10.02" y="1.67" class="c">directories</text><text x="22.043999999999997" y="1.67" class="c">162</text><text x="26.052" y="1.67" class="c">done</text><text x="31.061999999999998" y="1.67" class="c">(74/s)</text><text x="38.07599999999999" y="1.67" class="c">|</text><text x="40.08" y="1.67" class="c">2.2s</text></svg><svg x="2600"><use xlink:href="#a"></use><text x="0" y="1.67" class="c">⠼</text><text x="2.004" y="1.67" class="c">Walking</text><text x="10.02" y="1.67" class="c">directories</text><text x="22.043999999999997" y="1.67" class="c">169</text><text x="26.052" y="1.67" class="c">done</text><text x="31.061999999999998" y="1.67" class="c">(74/s)</text><text x="38.07599999999999" y="1.67" class="c">|</text><text x="40.08" y="1.67" class="c">2.3s</text></svg><svg x="2700"><use xlink:href="#a"></use><text x="0" y="1.67" class="c">⠴</text><text x="2.004" y="1.67" class="c">Walking</text><text x="10.02" y="1.67" class="c">directories</text><text x="22.043999999999997" y="1.67" class="c">177</text><text x="26.052" y="1.67" class="c">done</text><text x="31.061999999999998" y="1.67" class="c">(74/s)</text><text x="38.07599999999999" y="1.67" class="c">|</text><text x="40.08" y="1.67" class="c">2.4s</text></svg><svg x="2800"><use xlink:href="#a"></use><text x="0" y="1.67" class="c">⠦</text><text x="2.004" y="1.67" class="c">Walking</text><text x="10.02" y="1.67" class="c">directories</text><text x="22.043999999999997" y="1.67" class="c">185</text><text x="26.052" y="1.67" class="c">done</text><text x="31.061999999999998" y="1.67" class="c">(74/s)</text><text x="38.07599999999999" y="1.67" class="c">|</text><text x="40.08" y="1.67" class="c">2.5s</text></svg><svg x="2900"><use xlink:href="#a"></use><text x="0" y="1.67" class="c">⠧</text><text x="2.004" y="1.67" class="c">Walking</text><text x="10.02" y="1.67" class="c">directories</text><text x="22.043999999999997" y="1.67" class="c">194</text><text x="26.052" y="1.67" class="c">done</text><text x="31.061999999999998" y="1.67" class="c">(74/s)</text><text x="38.07599999999999" y="1.67" class="c">|</text><text x="40.08" y="1.67" class="c">2.6s</text></svg><svg x="3000"><use xlink:href="#a"></use><text x="0" y="1.67" class="c">⠇</text><text x="2.004" y="1.67" class="c">Walking</text><text x="10.02" y="1.67" class="c">directories</text><text x="22.043999999999997" y="1.67" class="c">202</text><text x="26.052" y="1.67" class="c">done</text><text x="31.061999999999998" y="1.67" class="c">(74/s)</text><text x="38.07599999999999" y="1.67" class="c">|</text><text x="40.08" y="1.67" class="c">2.7s</text></svg><svg x="3100"><use xlink:href="#a"></use><text x="0" y="1.67" class="c">⠏</text><text x="2.004" y="1.67" class="c">Walking</text><text x="10.02" y="1.67" class="c">directories</text><text x="22.043999999999997" y="1.67" class="c">209</text><text x="26.052" y="1.67" class="c">done</text><text x="31.061999999999998" y="1.67" class="c">(74/s)</text><text x="38.07599999999999" y="1.67" class="c">|</text><text x="40.08" y="1.67" class="c">2.8s</text></svg><svg x="3200"><use xlink:href="#a"></use><text x="0" y="1.67" class="c">⠋</text><text x="2.004" y="1.67" class="c">Walking</text><text x="10.02" y="1.67" class="c">directories</text><text x="22.043999999999997" y="1.67" class="c">218</text><text x="26.052" y="1.67" class="c">done</text><text x="31.061999999999998" y="1.67" class="c">(75/s)</text><text x="38.07599999999999" y="1.67" class="c">|</text><text x="40.08" y="1.67" class="c">2.9s</text></svg><svg x="3300"><use xlink:href="#a"></use><text x="0" y="1.67" class="c">⠙</text><text x="2.004" y="1.67" class="c">Walking</text><text x="10.02" y="1.67" class="c">directories</text><text x="22.043999999999997" y="1.67" class="c">225</text><text x="26.052" y="1.67" class="c">done</text><text x="31.061999999999998" y="1.67" class="c">(75/s)</text><text x="38.07599999999999" y="1.67" class="c">|</text><text x="40.08" y="1.67" class="c">3s</text></svg><svg x="3400"><use xlink:href="#a"></use><text x="0" y="1.67" class="c">⠹</text><text x="2.004" y="1.67" class="c">Walking</text><text x="10.02" y="1.67" class="c">directories</text><text x="22.043999999999997" y="1.67" class="c">233</text><text x="26.052" y="1.67" class="c">done</text><text x="31.061999999999998" y="1.67" class="c">(75/s)</text><text x="38.07599999999999" y="1.67" class="c">|</text><text x="40.08" y="1.67" class="c">3.1s</text></svg><svg x="3500"><use xlink:href="#a"></use><text x="0" y="1.67" class="c">⠸</text><text x="2.004" y="1.67" class="c">Walking</text><text x="10.02" y="1.67" class="c">directories</text><text x="22.043999999999997" y="1.67" class="c">241</text><text x="26.052" y="1.67" class="c">done</text><text x="31.061999999999998" y="1.67" class="c">(75/s)</text><text x="38.07599999999999" y="1.67" class="c">|</text><text x="40.08" y="1.67" class="c">3.2s</text></svg><svg x="3600"><use xlink:href="#a"></use><text x="0" y="1.67" class="c">⠼</text><text x="2.004" y="1.67" class="c">Walking</text><text x="10.02" y="1.67" class="c">directories</text><text x="22.043999999999997" y="1.67" class="c">248</text><text x="26.052" y="1.67" class="c">done</text><text x="31.061999999999998" y="1.67" class="c">(75/s)</text><text x="38.07599999999999" y="1.67" class="c">|</text><text x="40.08" y="1.67" class="c">3.3s</text></svg><svg x="3700"><use xlink:href="#a"></use><text x="0" y="1.67" class="c">⠴</text><text x="2.004" y="1.67" class="c">Walking</text><text x="10.02" y="1.67" class="c">directories</text><text x="22.043999999999997" y="1.67" class="c">256</text><text x="26.052" y="1.67" class="c">done</text><text x="31.061999999999998" y="1.67" class="c">(75/s)</text><text x="38.07599999999999" y="1.67" class="c">|</text><text x="40.08" y="1.67" class="c">3.4s</text></svg><svg x="3800"><use xlink:href="#a"></use><text x="0" y="1.67" class="c">⠦</text><text x="2.004" y="1.67" class="c">Walking</text><text x="10.02" y="1.67" class="c">directories</text><text x="22.043999999999997" y="1.67" class="c">262</text><text x="26.052" y="1.67" class="c">done</text><text x="31.061999999999998" y="1.67" class="c">(74/s)</text><text x="38.07599999999999" y="1.67" class="c">|</text><text x="40.08" y="1.67" class="c">3.5s</text></svg><svg x="3900"><use xlink:href="#a"></use><text x="0" y="1.67" class="c">⠧</text><text x="2.004" y="1.67" class="c">Walking</text><text x="10.02" y="1.67" class="c">directories</text><text x="22.043999999999997" y="1.67" class="c">265</text><text x="26.052" y="1.67" class="c">done</text><text x="31.061999999999998" y="1.67" class="c">(73/s)</text><text x="38.07599999999999" y="1.67" class="c">|</text><text x="40.08" y="1.67" class="c">3.6s</text></svg><svg x="4000"><use xlink:href="#a"></use><text x="0" y="1.67" class="c">⠇</text><text x="2.004" y="1.67" class="c">Walking</text><text x="10.02" y="1.67" class="c">directories</text><text x="22.043999999999997" y="1.67" class="c">272</text><text x="26.052" y="1.67" class="c">done</text><text x="31.061999999999998" y="1.67" class="c">(73/s)</text><text x="38.07599999999999" y="1.67" class="c">|</text><text x="40.08" y="1.67" class="c">3.7s</text></svg><svg x="4100"><use xlink:href="#a"></use><text x="0" y="1.67" class="c">⠏</text><text x="2.004" y="1.67" class="c">Walking</text><text x="10.02" y="1.67" class="c">directories</text><text x="22.043999999999997" y="1.67" class="c">280</text><text x="26.052" y="1.67" class="c">done</text><text x="31.061999999999998" y="1.67" class="c">(73/s)</text><text x="38.07599999999999" y="1.67" class="c">|</text><text x="40.08" y="1.67" class="c">3.8s</text></svg><svg x="4200"><use xlink:href="#a"></use><text x="0" y="1.67" class="c">⠋</text><text x="2.004" y="1.67" class="c">Walking</text><text x="10.02" y="1.67" class="c">directories</text><text x="22.043999999999997" y="1.67" class="c">287</text><text x="26.052" y="1.67" class="c">done</text><text x="31.061999999999998" y="1.67" class="c">(73/s)</text><text x="38.07599999999999" y="1.67" class="c">|</text><text x="40.08" y="1.67" class="c">3.9s</text></svg><svg x="4300"><use xlink:href="#a"></use><text x="0" y="1.67" class="c">⠙</text><text x="2.004" y="1.67" class="c">Walking</text><text x="10.02" y="1.67" class="c">directories</text><text x="22.043999999999997" y="1.67" class="c">295</text><text x="26.052" y="1.67" class="c">done</text><text x="31.061999999999998" y="1.67" class="c">(73/s)</text><text x="38.07599999999999" y="1.67" class="c">|</text><text x="40.08" y="1.67" class="c">4.1s</text></svg><svg x="4400"><use xlink:href="#a"></use><text x="0" y="1.67" class="c">⠹</text><text x="2.004" y="1.67" class="c">Walking</text><text x="10.02" y="1.67" class="c">directories</text><text x="22.043999999999997" y="1.67" class="c">303</text><text x="26.052" y="1.67" class="c">done</text><text x="31.061999999999998" y="1.67" class="c">(73/s)</text><text x="38.07599999999999" y="1.67" class="c">|</text><text x="40.08" y="1.67" class="c">4.2s</text></svg><svg x="4500"><use xlink:href="#a"></use><text x="0" y="1.67" class="c">⠸</text><text x="2.004" y="1.67" class="c">Walking</text><text x="10.02" y="1.67" class="c">directories</text><text x="22.043999999999997" y="1.67" class="c">310</text><text x="26.052" y="1.67" class="c">done</text><text x="31.061999999999998" y="1.67" class="c">(73/s)</text><text x="38.07599999999999" y="1.67" class="c">|</text><text x="40.08" y="1.67" class="c">4.2s</text></svg><svg x="4600"><use xlink:href="#a"></use><text x="0" y="1.67" class="c">⠼</text><text x="2.004" y="1.67" class="c">Walking</text><text x="10.02" y="1.67" class="c">directories</text><text x="22.043999999999997" y="1.67" class="c">318</text><text x="26.052" y="1.67" class="c">done</text><text x="31.061999999999998" y="1.67" class="c">(73/s)</text><text x="38.07599999999999" y="1.67" class="c">|</text><text x="40.08" y="1.67" class="c">4.3s</text></svg><svg x="4700"><use xlink:href="#a"></use><text x="0" y="1.67" class="c">⠴</text><text x="2.004" y="1.67" class="c">Walking</text><text x="10.02" y="1.67" class="c">directories</text><text x="22.043999999999997" y="1.67" class="c">327</text><text x="26.052" y="1.67" class="c">done</text><text x="31.061999999999998" y="1.67" class="c">(73/s)</text><text x="38.07599999999999" y="1.67" class="c">|</text><text x="40.08" y="1.67" class="c">4.5s</text></svg><svg x="4800"><use xlink:href="#a"></use><text x="0" y="1.67" class="c">⠦</text><text x="2.004" y="1.67" class="c">Walking</text><text x="10.02" y="1.67" class="c">directories</text><text x="22.043999999999997" y="1.67" class="c">335</text><text x="26.052" y="1.67" class="c">done</text><text x="31.061999999999998" y="1.67" class="c">(73/s)</text><text x="38.07599999999999" y="1.67" class="c">|</text><text x="40.08" y="1.67" class="c">4.6s</text></svg><svg x="4900"><use xlink:href="#a"></use><text x="0" y="1.67" class="c">⠧</text><text x="2.004" y="1.67" class="c">Walking</text><text x="10.02" y="1.67" class="c">directories</text><text x="22.043999999999997" y="1.67" class="c">343</text><text x="26.052" y="1.67" class="c">done</text><text x="31.061999999999998" y="1.67" class="c">(74/s)</text><text x="38.07599999999999" y="1.67" class="c">|</text><text x="40.08" y="1.67" class="c">4.7s</text></svg><svg x="5000"><use xlink:href="#a"></use><text x="0" y="1.67" class="c">⠇</text><text x="2.004" y="1.67" class="c">Walking</text><text x="10.02" y="1.67" class="c">directories</text><text x="22.043999999999997" y="1.67" class="c">350</text><text x="26.052" y="1.67" class="c">done</text><text x="31.061999999999998" y="1.67" class="c">(74/s)</text><text x="38.07599999999999" y="1.67" class="c">|</text><text x="40.08" y="1.67" class="c">4.8s</text></svg><svg x="5100"><use xlink:href="#a"></use><text x="0" y="1.67" class="c">⠏</text><text x="2.004" y="1.67" class="c">Walking</text><text x="10.02" y="1.67" class="c">directories</text><text x="22.043999999999997" y="1.67" class="c">358</text><text x="26.052" y="1.67" class="c">done</text><text x="31.061999999999998" y="1.67" class="c">(74/s)</text><text x="38.07599999999999" y="1.67" class="c">|</text><text x="40.08" y="1.67" class="c">4.9s</text></svg><svg x="5200"><use xlink:href="#a"></use><text x="0" y="1.67" class="c">⠋</text><text x="2.004" y="1.67" class="c">Walking</text><text x="10.02" y="1.67" class="c">directories</text><text x="22.043999999999997" y="1.67" class="c">366</text><text x="26.052" y="1.67" class="c">done</text><text x="31.061999999999998" y="1.67" class="c">(74/s)</text><text x="38.07599999999999" y="1.67" class="c">|</text><text x="40.08" y="1.67" class="c">5s</text></svg><svg x="5300"><use xlink:href="#a"></use><text x="0" y="1.67" class="c">⠙</text><text x="2.004" y="1.67" class="c">Walking</text><text x="10.02" y="1.67" class="c">directories</text><text x="22.043999999999997" y="1.67" class="c">373</text><text x="26.052" y="1.67" class="c">done</text><text x="31.061999999999998" y="1.67" class="c">(74/s)</text><text x="38.07599999999999" y="1.67" class="c">|</text><text x="40.08" y="1.67" class="c">5.1s</text></svg><svg x="5400"><use xlink:href="#a"></use><text x="0" y="1.67" class="c">⠹</text><text x="2.004" y="1.67" class="c">Walking</text><text x="10.02" y="1.67" class="c">directories</text><text x="22.043999999999997" y="1.67" class="c">381</text><text x="26.052" y="1.67" class="c">done</text><text x="31.061999999999998" y="1.67" class="c">(74/s)</text><text x="38.07599999999999" y="1.67" class="c">|</text><text x="40.08" y="1.67" class="c">5.2s</text></svg><svg x="5500"><use xlink:href="#a"></use><text x="0" y="1.67" class="c">⠸</text><text x="2.004" y="1.67" class="c">Walking</text><text x="10.02" y="1.67" class="c">directories</text><text x="22.043999999999997" y="1.67" class="c">388</text><text x="26.052" y="1.67" class="c">done</text><text x="31.061999999999998" y="1.67" class="c">(74/s)</text><text x="38.07599999999999" y="1.67" class="c">|</text><text x="40.08" y="1.67" class="c">5.3s</text></svg><svg x="5600"><use xlink:href="#a"></use><text x="0" y="1.67" class="c">⠼</text><text x="2.004" y="1.67" class="c">Walking</text><text x="10.02" y="1.67" class="c">directories</text><text x="22.043999999999997" y="1.67" class="c">396</text><text x="26.052" y="1.67" class="c">done</text><text x="31.061999999999998" y="1.67" class="c">(74/s)</text><text x="38.07599999999999" y="1.67" class="c">|</text><text x="40.08" y="1.67" class="c">5.4s</text></svg><svg x="5700"><use xlink:href="#a"></use><text x="0" y="1.67" class="c">⠴</text><text x="2.004" y="1.67" class="c">Walking</text><text x="10.02" y="1.67" class="c">directories</text><text x="22.043999999999997" y="1.67" class="c">404</text><text x="26.052" y="1.67" class="c">done</text><text x="31.061999999999998" y="1.67" class="c">(74/s)</text><text x="38.07599999999999" y="1.67" class="c">|</text><text x="40.08" y="1.67" class="c">5.5s</text></svg><svg x="5800"><use xlink:href="#a"></use><text x="0" y="1.67" class="c">⠦</text><text x="2.004" y="1.67" class="c">Walking</text><text x="10.02" y="1.67" class="c">directories</text><text x="22.043999999999997" y="1.67" class="c">412</text><text x="26.052" y="1.67" class="c">done</text><text x="31.061999999999998" y="1.67" class="c">(74/s)</text><text x="38.07599999999999" y="1.67" class="c">|</text><text x="40.08" y="1.67" class="c">5.6s</text></svg><svg x="5900"><use xlink:href="#a"></use><text x="0" y="1.67" class="c">⠧</text><text x="2.004" y="1.67" class="c">Walking</text><text x="10.02" y="1.67" class="c">directories</text><text x="22.043999999999997" y="1.67" class="c">420</text><text x="26.052" y="1.67" class="c">done</text><text x="31.061999999999998" y="1.67" class="c">(74/s)</text><text x="38.07599999999999" y="1.67" class="c">|</text><text x="40.08" y="1.67" class="c">5.7s</text></svg><svg x="6000"><use xlink:href="#a"></use><text x="0" y="1.67" class="c">⠇</text><text x="2.004" y="1.67" class="c">Walking</text><text x="10.02" y="1.67" class="c">directories</text><text x="22.043999999999997" y="1.67" class="c">427</text><text x="26.052" y="1.67" class="c">done</text><text x="31.061999999999998" y="1.67" class="c">(74/s)</text><text x="38.07599999999999" y="1.67" class="c">|</text><text x="40.08" y="1.67" class="c">5.8s</text></svg><svg x="6100"><use xlink:href="#a"></use><text x="0" y="1.67" class="c">⠏</text><text x="2.004" y="1.67" class="c">Walking</text><text x="10.02" y="1.67" class="c">directories</text><text x="22.043999999999997" y="1.67" class="c">435</text><text x="26.052" y="1.67" class="c">done</text><text x="31.061999999999998" y="1.67" class="c">(74/s)</text><text x="38.07599999999999" y="1.67" class="c">|</text><text x="40.08" y="1.67" class="c">5.9s</text></svg><svg x="6200"><use xlink:href="#a"></use><text x="0" y="1.67" class="c">⠋</text><text x="2.004" y="1.67" class="c">Walking</text><text x="10.02" y="1.67" class="c">directories</text><text x="22.043999999999997" y="1.67" class="c">443</text><text x="26.052" y="1.67" class="c">done</text><text x="31.061999999999998" y="1.67" class="c">(74/s)</text><text x="38.07599999999999" y="1.67" class="c">|</text><text x="40.08" y="1.67" class="c">6s</text></svg><svg x="6300"><use xlink:href="#a"></use><text x="0" y="1.67" class="c">⠙</text><text x="2.004" y="1.67" class="c">Walking</text><text x="10.02" y="1.67" class="c">directories</text><text x="22.043999999999997" y="1.67" class="c">450</text><text x="26.052" y="1.67" class="c">done</text><text x="31.061999999999998" y="1.67" class="c">(74/s)</text><text x="38.07599999999999" y="1.67" class="c">|</text><text x="40.08" y="1.67" class="c">6.1s</text></svg><svg x="6400"><use xlink:href="#a"></use><text x="0" y="1.67" class="c">⠹</text><text x="2.004" y="1.67" class="c">Walking</text><text x="10.02" y="1.67" class="c">directories</text><text x="22.043999999999997" y="1.67" class="c">458</text><text x="26.052" y="1.67" class="c">done</text><text x="31.061999999999998" y="1.67" class="c">(74/s)</text><text x="38.07599999999999" y="1.67" class="c">|</text><text x="40.08" y="1.67" class="c">6.2s</text></svg><svg x="6500"><use xlink:href="#a"></use><use xlink:href="#1" y="0"></use></svg><svg x="6600"><use xlink:href="#a"></use><use xlink:href="#1" y="0"></use></svg><svg x="6700"><use xlink:href="#a"></use><use xlink:href="#1" y="0"></use></svg><svg x="6800"><use xlink:href="#a"></use><use xlink:href="#1" y="0"></use></svg></svg></g></g></svg></svg>