<svg xmlns="http://www.w3.org/2000/svg" xmlns:xlink="http://www.w3.org/1999/xlink" width="1040" height="61.709999999999994"><rect width="1040" height="61.709999999999994" rx="0" ry="0" class="a"></rect><svg height="21.709999999999997" viewBox="0 0 100 2.171" width="1000" x="20" xmlns="http://www.w3.org/2000/svg" xmlns:xlink="http://www.w3.org/1999/xlink" y="20"><style>.a{fill:rgb(40,45,53)}.b{font-family:'Fira Code',Monaco,Consolas,Menlo,'Bitstream Vera Sans Mono','Powerline Symbols',monospace}.c{fill:rgb(185,192,203);white-space:pre}.d{fill:transparent}.f{animation-duration:10.6456780433655s;animation-iteration-count:infinite;animation-name:e;animation-timing-function:steps(1,end)}@keyframes e{0%{transform:translateX(-0px)}0%{transform:translateX(-100px)}1.2%{transform:translateX(-200px)}1.3%{transform:translateX(-300px)}1.8%{transform:translateX(-400px)}2.7%{transform:translateX(-500px)}3.8%{transform:translateX(-600px)}4.8%{transform:translateX(-700px)}5.7%{transform:translateX(-800px)}6.7%{transform:translateX(-900px)}7.8%{transform:translateX(-1000px)}8.8%{transform:translateX(-1100px)}9.8%{transform:translateX(-1200px)}10.8%{transform:translateX(-1300px)}11.9%{transform:translateX(-1400px)}13%{transform:translateX(-1500px)}13.9%{transform:translateX(-1600px)}14.9%{transform:translateX(-1700px)}15.9%{transform:translateX(-1800px)}16.9%{transform:translateX(-1900px)}17.9%{transform:translateX(-2000px)}19%{transform:translateX(-2100px)}20%{transform:translateX(-2200px)}21%{transform:translateX(-2300px)}22%{transform:translateX(-2400px)}22.9%{transform:translateX(-2500px)}24%{transform:translateX(-2600px)}25%{transform:translateX(-2700px)}26%{transform:translateX(-2800px)}26.9%{transform:translateX(-2900px)}27.9%{transform:translateX(-3000px)}28.9%{transform:translateX(-3100px)}29.7%{transform:translateX(-3200px)}30.7%{transform:translateX(-3300px)}31.7%{transform:translateX(-3400px)}32.6%{transform:translateX(-3500px)}33.6%{transform:translateX(-3600px)}34.6%{transform:translateX(-3700px)}35.6%{transform:translateX(-3800px)}36.6%{transform:translateX(-3900px)}37.7%{transform:translateX(-4000px)}38.6%{transform:translateX(-4100px)}39.5%{transform:translateX(-4200px)}40.5%{transform:translateX(-4300px)}41.6%{transform:translateX(-4400px)}42.5%{transform:translateX(-4500px)}43.5%{transform:translateX(-4600px)}44.5%{transform:translateX(-4700px)}45.6%{transform:translateX(-4800px)}46.5%{transform:translateX(-4900px)}47.5%{transform:translateX(-5000px)}48.5%{transform:translateX(-5100px)}49.5%{transform:translateX(-5200px)}50.4%{transform:translateX(-5300px)}51.4%{transform:translateX(-5400px)}52.4%{transform:translateX(-5500px)}53.4%{transform:translateX(-5600px)}54.4%{transform:translateX(-5700px)}55.4%{transform:translateX(-5800px)}56.4%{transform:translateX(-5900px)}57.5%{transform:translateX(-6000px)}58.4%{transform:translateX(-6100px)}59.4%{transform:translateX(-6200px)}60.4%{transform:translateX(-6300px)}61.3%{transform:translateX(-6400px)}62.4%{transform:translateX(-6500px)}63.3%{transform:translateX(-6600px)}64.4%{transform:translateX(-6700px)}65.3%{transform:translateX(-6800px)}66.3%{transform:translateX(-6900px)}67.3%{transform:translateX(-7000px)}68.2%{transform:translateX(-7100px)}69.2%{transform:translateX(-7200px)}70.2%{transform:translateX(-7300px)}70.7%{transform:translateX(-7400px)}70.8%{transform:translateX(-7500px)}70.8%{transform:translateX(-7600px)}100%{transform:translateX(-7700px)}}</style><g font-family="&#x27;Fira Code&#x27;,Monaco,Consolas,Menlo,&#x27;Bitstream Vera Sans Mono&#x27;,&#x27;Powerline Symbols&#x27;,monospace" font-size="1.67" class="b"><defs><symbol id="1"><text x="0" y="1.67" class="c">⠹</text><text x="2.004" y="1.67" class="c">Walking</text><text x="10.02" y="1.67" class="c">directories</text><text x="22.043999999999997" y="1.67" class="c">463</text><text x="26.052" y="1.67" class="c">done</text><text x="31.061999999999998" y="1.67" class="c">(62/s)</text><text x="38.07599999999999" y="1.67" class="c">|</text><text x="40.08" y="1.67" class="c">7.4s</text></symbol><symbol id="a"><rect height="2" width="100" x="0" y="0" class="d"></rect></symbol></defs><rect height="2.171" width="100" class="a"></rect><g class="f"><svg x="0" y="0" width="7800"><svg x="0"><use xlink:href="#a"></use></svg><svg x="100"><use xlink:href="#a"></use></svg><svg x="200"><use xlink:href="#a"></use></svg><svg x="300"><use xlink:href="#a"></use><text x="0" y="1.67" class="c">⠙</text><text x="2.004" y="1.67" class="c">Walking</text><text x="10.02" y="1.67" class="c">directories</text><text x="22.043999999999997" y="1.67" class="c">1</text><text x="24.048" y="1.67" class="c">done</text><text x="29.058" y="1.67" class="c">(82/s)</text><text x="36.071999999999996" y="1.67" class="c">|</text><text x="38.07599999999999" y="1.67" class="c">13ms</text></svg><svg x="400"><use xlink:href="#a"></use><text x="0" y="1.67" class="c">⠹</text><text x="2.004" y="1.67" class="c">Walking</text><text x="10.02" y="1.67" class="c">directories</text><text x="22.043999999999997" y="1.67" class="c">4</text><text x="24.048" y="1.67" class="c">done</text><text x="29.058" y="1.67" class="c">(53/s)</text><text x="36.071999999999996" y="1.67" class="c">|</text><text x="38.07599999999999" y="1.67" class="c">77ms</text></svg><svg x="500"><use xlink:href="#a"></use><text x="0" y="1.67" class="c">⠸</text><text x="2.004" y="1.67" class="c">Walking</text><text x="10.02" y="1.67" class="c">directories</text><text x="22.043999999999997" y="1.67" class="c">10</text><text x="25.05" y="1.67" class="c">done</text><text x="30.059999999999995" y="1.67" class="c">(59/s)</text><text x="37.074" y="1.67" class="c">|</text><text x="39.077999999999996" y="1.67" class="c">170ms</text></svg><svg x="600"><use xlink:href="#a"></use><text x="0" y="1.67" class="c">⠼</text><text x="2.004" y="1.67" class="c">Walking</text><text x="10.02" y="1.67" class="c">directories</text><text x="22.043999999999997" y="1.67" class="c">18</text><text x="25.05" y="1.67" class="c">done</text><text x="30.059999999999995" y="1.67" class="c">(64/s)</text><text x="37.074" y="1.67" class="c">|</text><text x="39.077999999999996" y="1.67" class="c">281ms</text></svg><svg x="700"><use xlink:href="#a"></use><text x="0" y="1.67" class="c">⠴</text><text x="2.004" y="1.67" class="c">Walking</text><text x="10.02" y="1.67" class="c">directories</text><text x="22.043999999999997" y="1.67" class="c">25</text><text x="25.05" y="1.67" class="c">done</text><text x="30.059999999999995" y="1.67" class="c">(64/s)</text><text x="37.074" y="1.67" class="c">|</text><text x="39.077999999999996" y="1.67" class="c">389ms</text></svg><svg x="800"><use xlink:href="#a"></use><text x="0" y="1.67" class="c">⠦</text><text x="2.004" y="1.67" class="c">Walking</text><text x="10.02" y="1.67" class="c">directories</text><text x="22.043999999999997" y="1.67" class="c">32</text><text x="25.05" y="1.67" class="c">done</text><text x="30.059999999999995" y="1.67" class="c">(66/s)</text><text x="37.074" y="1.67" class="c">|</text><text x="39.077999999999996" y="1.67" class="c">489ms</text></svg><svg x="900"><use xlink:href="#a"></use><text x="0" y="1.67" class="c">⠧</text><text x="2.004" y="1.67" class="c">Walking</text><text x="10.02" y="1.67" class="c">directories</text><text x="22.043999999999997" y="1.67" class="c">38</text><text x="25.05" y="1.67" class="c">done</text><text x="30.059999999999995" y="1.67" class="c">(65/s)</text><text x="37.074" y="1.67" class="c">|</text><text x="39.077999999999996" y="1.67" class="c">590ms</text></svg><svg x="1000"><use xlink:href="#a"></use><text x="0" y="1.67" class="c">⠇</text><text x="2.004" y="1.67" class="c">Walking</text><text x="10.02" y="1.67" class="c">directories</text><text x="22.043999999999997" y="1.67" class="c">45</text><text x="25.05" y="1.67" class="c">done</text><text x="30.059999999999995" y="1.67" class="c">(64/s)</text><text x="37.074" y="1.67" class="c">|</text><text x="39.077999999999996" y="1.67" class="c">707ms</text></svg><svg x="1100"><use xlink:href="#a"></use><text x="0" y="1.67" class="c">⠏</text><text x="2.004" y="1.67" class="c">Walking</text><text x="10.02" y="1.67" class="c">directories</text><text x="22.043999999999997" y="1.67" class="c">52</text><text x="25.05" y="1.67" class="c">done</text><text x="30.059999999999995" y="1.67" class="c">(64/s)</text><text x="37.074" y="1.67" class="c">|</text><text x="39.077999999999996" y="1.67" class="c">819ms</text></svg><svg x="1200"><use xlink:href="#a"></use><text x="0" y="1.67" class="c">⠋</text><text x="2.004" y="1.67" class="c">Walking</text><text x="10.02" y="1.67" class="c">directories</text><text x="22.043999999999997" y="1.67" class="c">58</text><text x="25.05" y="1.67" class="c">done</text><text x="30.059999999999995" y="1.67" class="c">(63/s)</text><text x="37.074" y="1.67" class="c">|</text><text x="39.077999999999996" y="1.67" class="c">921ms</text></svg><svg x="1300"><use xlink:href="#a"></use><text x="0" y="1.67" class="c">⠙</text><text x="2.004" y="1.67" class="c">Walking</text><text x="10.02" y="1.67" class="c">directories</text><text x="22.043999999999997" y="1.67" class="c">65</text><text x="25.05" y="1.67" class="c">done</text><text x="30.059999999999995" y="1.67" class="c">(63/s)</text><text x="37.074" y="1.67" class="c">|</text><text x="39.077999999999996" y="1.67" class="c">1s</text></svg><svg x="1400"><use xlink:href="#a"></use><text x="0" y="1.67" class="c">⠹</text><text x="2.004" y="1.67" class="c">Walking</text><text x="10.02" y="1.67" class="c">directories</text><text x="22.043999999999997" y="1.67" class="c">72</text><text x="25.05" y="1.67" class="c">done</text><text x="30.059999999999995" y="1.67" class="c">(63/s)</text><text x="37.074" y="1.67" class="c">|</text><text x="39.077999999999996" y="1.67" class="c">1.2s</text></svg><svg x="1500"><use xlink:href="#a"></use><text x="0" y="1.67" class="c">⠸</text><text x="2.004" y="1.67" class="c">Walking</text><text x="10.02" y="1.67" class="c">directories</text><text x="22.043999999999997" y="1.67" class="c">79</text><text x="25.05" y="1.67" class="c">done</text><text x="30.059999999999995" y="1.67" class="c">(63/s)</text><text x="37.074" y="1.67" class="c">|</text><text x="39.077999999999996" y="1.67" class="c">1.3s</text></svg><svg x="1600"><use xlink:href="#a"></use><text x="0" y="1.67" class="c">⠼</text><text x="2.004" y="1.67" class="c">Walking</text><text x="10.02" y="1.67" class="c">directories</text><text x="22.043999999999997" y="1.67" class="c">85</text><text x="25.05" y="1.67" class="c">done</text><text x="30.059999999999995" y="1.67" class="c">(62/s)</text><text x="37.074" y="1.67" class="c">|</text><text x="39.077999999999996" y="1.67" class="c">1.4s</text></svg><svg x="1700"><use xlink:href="#a"></use><text x="0" y="1.67" class="c">⠴</text><text x="2.004" y="1.67" class="c">Walking</text><text x="10.02" y="1.67" class="c">directories</text><text x="22.043999999999997" y="1.67" class="c">92</text><text x="25.05" y="1.67" class="c">done</text><text x="30.059999999999995" y="1.67" class="c">(63/s)</text><text x="37.074" y="1.67" class="c">|</text><text x="39.077999999999996" y="1.67" class="c">1.5s</text></svg><svg x="1800"><use xlink:href="#a"></use><text x="0" y="1.67" class="c">⠦</text><text x="2.004" y="1.67" class="c">Walking</text><text x="10.02" y="1.67" class="c">directories</text><text x="22.043999999999997" y="1.67" class="c">99</text><text x="25.05" y="1.67" class="c">done</text><text x="30.059999999999995" y="1.67" class="c">(63/s)</text><text x="37.074" y="1.67" class="c">|</text><text x="39.077999999999996" y="1.67" class="c">1.6s</text></svg><svg x="1900"><use xlink:href="#a"></use><text x="0" y="1.67" class="c">⠧</text><text x="2.004" y="1.67" class="c">Walking</text><text x="10.02" y="1.67" class="c">directories</text><text x="22.043999999999997" y="1.67" class="c">105</text><text x="26.052" y="1.67" class="c">done</text><text x="31.061999999999998" y="1.67" class="c">(63/s)</text><text x="38.07599999999999" y="1.67" class="c">|</text><text x="40.08" y="1.67" class="c">1.7s</text></svg><svg x="2000"><use xlink:href="#a"></use><text x="0" y="1.67" class="c">⠇</text><text x="2.004" y="1.67" class="c">Walking</text><text x="10.02" y="1.67" class="c">directories</text><text x="22.043999999999997" y="1.67" class="c">112</text><text x="26.052" y="1.67" class="c">done</text><text x="31.061999999999998" y="1.67" class="c">(63/s)</text><text x="38.07599999999999" y="1.67" class="c">|</text><text x="40.08" y="1.67" class="c">1.8s</text></svg><svg x="2100"><use xlink:href="#a"></use><text x="0" y="1.67" class="c">⠏</text><text x="2.004" y="1.67" class="c">Walking</text><text x="10.02" y="1.67" class="c">directories</text><text x="22.043999999999997" y="1.67" class="c">119</text><text x="26.052" y="1.67" class="c">done</text><text x="31.061999999999998" y="1.67" class="c">(63/s)</text><text x="38.07599999999999" y="1.67" class="c">|</text><text x="40.08" y="1.67" class="c">1.9s</text></svg><svg x="2200"><use xlink:href="#a"></use><text x="0" y="1.67" class="c">⠋</text><text x="2.004" y="1.67" class="c">Walking</text><text x="10.02" y="1.67" class="c">directories</text><text x="22.043999999999997" y="1.67" class="c">126</text><text x="26.052" y="1.67" class="c">done</text><text x="31.061999999999998" y="1.67" class="c">(63/s)</text><text x="38.07599999999999" y="1.67" class="c">|</text><text x="40.08" y="1.67" class="c">2s</text></svg><svg x="2300"><use xlink:href="#a"></use><text x="0" y="1.67" class="c">⠙</text><text x="2.004" y="1.67" class="c">Walking</text><text x="10.02" y="1.67" class="c">directories</text><text x="22.043999999999997" y="1.67" class="c">132</text><text x="26.052" y="1.67" class="c">done</text><text x="31.061999999999998" y="1.67" class="c">(62/s)</text><text x="38.07599999999999" y="1.67" class="c">|</text><text x="40.08" y="1.67" class="c">2.1s</text></svg><svg x="2400"><use xlink:href="#a"></use><text x="0" y="1.67" class="c">⠹</text><text x="2.004" y="1.67" class="c">Walking</text><text x="10.02" y="1.67" class="c">directories</text><text x="22.043999999999997" y="1.67" class="c">138</text><text x="26.052" y="1.67" class="c">done</text><text x="31.061999999999998" y="1.67" class="c">(62/s)</text><text x="38.07599999999999" y="1.67" class="c">|</text><text x="40.08" y="1.67" class="c">2.2s</text></svg><svg x="2500"><use xlink:href="#a"></use><text x="0" y="1.67" class="c">⠸</text><text x="2.004" y="1.67" class="c">Walking</text><text x="10.02" y="1.67" class="c">directories</text><text x="22.043999999999997" y="1.67" class="c">144</text><text x="26.052" y="1.67" class="c">done</text><text x="31.061999999999998" y="1.67" class="c">(62/s)</text><text x="38.07599999999999" y="1.67" class="c">|</text><text x="40.08" y="1.67" class="c">2.3s</text></svg><svg x="2600"><use xlink:href="#a"></use><text x="0" y="1.67" class="c">⠼</text><text x="2.004" y="1.67" class="c">Walking</text><text x="10.02" y="1.67" class="c">directories</text><text x="22.043999999999997" y="1.67" class="c">151</text><text x="26.052" y="1.67" class="c">done</text><text x="31.061999999999998" y="1.67" class="c">(62/s)</text><text x="38.07599999999999" y="1.67" class="c">|</text><text x="40.08" y="1.67" class="c">2.4s</text></svg><svg x="2700"><use xlink:href="#a"></use><text x="0" y="1.67" class="c">⠴</text><text x="2.004" y="1.67" class="c">Walking</text><text x="10.02" y="1.67" class="c">directories</text><text x="22.043999999999997" y="1.67" class="c">158</text><text x="26.052" y="1.67" class="c">done</text><text x="31.061999999999998" y="1.67" class="c">(62/s)</text><text x="38.07599999999999" y="1.67" class="c">|</text><text x="40.08" y="1.67" class="c">2.5s</text></svg><svg x="2800"><use xlink:href="#a"></use><text x="0" y="1.67" class="c">⠦</text><text x="2.004" y="1.67" class="c">Walking</text><text x="10.02" y="1.67" class="c">directories</text><text x="22.043999999999997" y="1.67" class="c">164</text><text x="26.052" y="1.67" class="c">done</text><text x="31.061999999999998" y="1.67" class="c">(62/s)</text><text x="38.07599999999999" y="1.67" class="c">|</text><text x="40.08" y="1.67" class="c">2.6s</text></svg><svg x="2900"><use xlink:href="#a"></use><text x="0" y="1.67" class="c">⠧</text><text x="2.004" y="1.67" class="c">Walking</text><text x="10.02" y="1.67" class="c">directories</text><text x="22.043999999999997" y="1.67" class="c">170</text><text x="26.052" y="1.67" class="c">done</text><text x="31.061999999999998" y="1.67" class="c">(62/s)</text><text x="38.07599999999999" y="1.67" class="c">|</text><text x="40.08" y="1.67" class="c">2.7s</text></svg><svg x="3000"><use xlink:href="#a"></use><text x="0" y="1.67" class="c">⠇</text><text x="2.004" y="1.67" class="c">Walking</text><text x="10.02" y="1.67" class="c">directories</text><text x="22.043999999999997" y="1.67" class="c">176</text><text x="26.052" y="1.67" class="c">done</text><text x="31.061999999999998" y="1.67" class="c">(62/s)</text><text x="38.07599999999999" y="1.67" class="c">|</text><text x="40.08" y="1.67" class="c">2.9s</text></svg><svg x="3100"><use xlink:href="#a"></use><text x="0" y="1.67" class="c">⠏</text><text x="2.004" y="1.67" class="c">Walking</text><text x="10.02" y="1.67" class="c">directories</text><text x="22.043999999999997" y="1.67" class="c">183</text><text x="26.052" y="1.67" class="c">done</text><text x="31.061999999999998" y="1.67" class="c">(62/s)</text><text x="38.07599999999999" y="1.67" class="c">|</text><text x="40.08" y="1.67" class="c">3s</text></svg><svg x="3200"><use xlink:href="#a"></use><text x="0" y="1.67" class="c">⠋</text><text x="2.004" y="1.67" class="c">Walking</text><text x="10.02" y="1.67" class="c">directories</text><text x="22.043999999999997" y="1.67" class="c">189</text><text x="26.052" y="1.67" class="c">done</text><text x="31.061999999999998" y="1.67" class="c">(62/s)</text><text x="38.07599999999999" y="1.67" class="c">|</text><text x="40.08" y="1.67" class="c">3s</text></svg><svg x="3300"><use xlink:href="#a"></use><text x="0" y="1.67" class="c">⠙</text><text x="2.004" y="1.67" class="c">Walking</text><text x="10.02" y="1.67" class="c">directories</text><text x="22.043999999999997" y="1.67" class="c">195</text><text x="26.052" y="1.67" class="c">done</text><text x="31.061999999999998" y="1.67" class="c">(62/s)</text><text x="38.07599999999999" y="1.67" class="c">|</text><text x="40.08" y="1.67" class="c">3.1s</text></svg><svg x="3400"><use xlink:href="#a"></use><text x="0" y="1.67" class="c">⠹</text><text x="2.004" y="1.67" class="c">Walking</text><text x="10.02" y="1.67" class="c">directories</text><text x="22.043999999999997" y="1.67" class="c">201</text><text x="26.052" y="1.67" class="c">done</text><text x="31.061999999999998" y="1.67" class="c">(62/s)</text><text x="38.07599999999999" y="1.67" class="c">|</text><text x="40.08" y="1.67" class="c">3.3s</text></svg><svg x="3500"><use xlink:href="#a"></use><text x="0" y="1.67" class="c">⠸</text><text x="2.004" y="1.67" class="c">Walking</text><text x="10.02" y="1.67" class="c">directories</text><text x="22.043999999999997" y="1.67" class="c">207</text><text x="26.052" y="1.67" class="c">done</text><text x="31.061999999999998" y="1.67" class="c">(62/s)</text><text x="38.07599999999999" y="1.67" class="c">|</text><text x="40.08" y="1.67" class="c">3.4s</text></svg><svg x="3600"><use xlink:href="#a"></use><text x="0" y="1.67" class="c">⠼</text><text x="2.004" y="1.67" class="c">Walking</text><text x="10.02" y="1.67" class="c">directories</text><text x="22.043999999999997" y="1.67" class="c">214</text><text x="26.052" y="1.67" class="c">done</text><text x="31.061999999999998" y="1.67" class="c">(62/s)</text><text x="38.07599999999999" y="1.67" class="c">|</text><text x="40.08" y="1.67" class="c">3.5s</text></svg><svg x="3700"><use xlink:href="#a"></use><text x="0" y="1.67" class="c">⠴</text><text x="2.004" y="1.67" class="c">Walking</text><text x="10.02" y="1.67" class="c">directories</text><text x="22.043999999999997" y="1.67" class="c">221</text><text x="26.052" y="1.67" class="c">done</text><text x="31.061999999999998" y="1.67" class="c">(62/s)</text><text x="38.07599999999999" y="1.67" class="c">|</text><text x="40.08" y="1.67" class="c">3.6s</text></svg><svg x="3800"><use xlink:href="#a"></use><text x="0" y="1.67" class="c">⠦</text><text x="2.004" y="1.67" class="c">Walking</text><text x="10.02" y="1.67" class="c">directories</text><text x="22.043999999999997" y="1.67" class="c">227</text><text x="26.052" y="1.67" class="c">done</text><text x="31.061999999999998" y="1.67" class="c">(62/s)</text><text x="38.07599999999999" y="1.67" class="c">|</text><text x="40.08" y="1.67" class="c">3.7s</text></svg><svg x="3900"><use xlink:href="#a"></use><text x="0" y="1.67" class="c">⠧</text><text x="2.004" y="1.67" class="c">Walking</text><text x="10.02" y="1.67" class="c">directories</text><text x="22.043999999999997" y="1.67" class="c">234</text><text x="26.052" y="1.67" class="c">done</text><text x="31.061999999999998" y="1.67" class="c">(62/s)</text><text x="38.07599999999999" y="1.67" class="c">|</text><text x="40.08" y="1.67" class="c">3.8s</text></svg><svg x="4000"><use xlink:href="#a"></use><text x="0" y="1.67" class="c">⠇</text><text x="2.004" y="1.67" class="c">Walking</text><text x="10.02" y="1.67" class="c">directories</text><text x="22.043999999999997" y="1.67" class="c">241</text><text x="26.052" y="1.67" class="c">done</text><text x="31.061999999999998" y="1.67" class="c">(62/s)</text><text x="38.07599999999999" y="1.67" class="c">|</text><text x="40.08" y="1.67" class="c">3.9s</text></svg><svg x="4100"><use xlink:href="#a"></use><text x="0" y="1.67" class="c">⠏</text><text x="2.004" y="1.67" class="c">Walking</text><text x="10.02" y="1.67" class="c">directories</text><text x="22.043999999999997" y="1.67" class="c">247</text><text x="26.052" y="1.67" class="c">done</text><text x="31.061999999999998" y="1.67" class="c">(62/s)</text><text x="38.07599999999999" y="1.67" class="c">|</text><text x="40.08" y="1.67" class="c">4s</text></svg><svg x="4200"><use xlink:href="#a"></use><text x="0" y="1.67" class="c">⠋</text><text x="2.004" y="1.67" class="c">Walking</text><text x="10.02" y="1.67" class="c">directories</text><text x="22.043999999999997" y="1.67" class="c">253</text><text x="26.052" y="1.67" class="c">done</text><text x="31.061999999999998" y="1.67" class="c">(62/s)</text><text x="38.07599999999999" y="1.67" class="c">|</text><text x="40.08" y="1.67" class="c">4.1s</text></svg><svg x="4300"><use xlink:href="#a"></use><text x="0" y="1.67" class="c">⠙</text><text x="2.004" y="1.67" class="c">Walking</text><text x="10.02" y="1.67" class="c">directories</text><text x="22.043999999999997" y="1.67" class="c">260</text><text x="26.052" y="1.67" class="c">done</text><text x="31.061999999999998" y="1.67" class="c">(62/s)</text><text x="38.07599999999999" y="1.67" class="c">|</text><text x="40.08" y="1.67" class="c">4.2s</text></svg><svg x="4400"><use xlink:href="#a"></use><text x="0" y="1.67" class="c">⠹</text><text x="2.004" y="1.67" class="c">Walking</text><text x="10.02" y="1.67" class="c">directories</text><text x="22.043999999999997" y="1.67" class="c">267</text><text x="26.052" y="1.67" class="c">done</text><text x="31.061999999999998" y="1.67" class="c">(62/s)</text><text x="38.07599999999999" y="1.67" class="c">|</text><text x="40.08" y="1.67" class="c">4.3s</text></svg><svg x="4500"><use xlink:href="#a"></use><text x="0" y="1.67" class="c">⠸</text><text x="2.004" y="1.67" class="c">Walking</text><text x="10.02" y="1.67" class="c">directories</text><text x="22.043999999999997" y="1.67" class="c">273</text><text x="26.052" y="1.67" class="c">done</text><text x="31.061999999999998" y="1.67" class="c">(62/s)</text><text x="38.07599999999999" y="1.67" class="c">|</text><text x="40.08" y="1.67" class="c">4.4s</text></svg><svg x="4600"><use xlink:href="#a"></use><text x="0" y="1.67" class="c">⠼</text><text x="2.004" y="1.67" class="c">Walking</text><text x="10.02" y="1.67" class="c">directories</text><text x="22.043999999999997" y="1.67" class="c">280</text><text x="26.052" y="1.67" class="c">done</text><text x="31.061999999999998" y="1.67" class="c">(62/s)</text><text x="38.07599999999999" y="1.67" class="c">|</text><text x="40.08" y="1.67" class="c">4.5s</text></svg><svg x="4700"><use xlink:href="#a"></use><text x="0" y="1.67" class="c">⠴</text><text x="2.004" y="1.67" class="c">Walking</text><text x="10.02" y="1.67" class="c">directories</text><text x="22.043999999999997" y="1.67" class="c">287</text><text x="26.052" y="1.67" class="c">done</text><text x="31.061999999999998" y="1.67" class="c">(62/s)</text><text x="38.07599999999999" y="1.67" class="c">|</text><text x="40.08" y="1.67" class="c">4.6s</text></svg><svg x="4800"><use xlink:href="#a"></use><text x="0" y="1.67" class="c">⠦</text><text x="2.004" y="1.67" class="c">Walking</text><text x="10.02" y="1.67" class="c">directories</text><text x="22.043999999999997" y="1.67" class="c">294</text><text x="26.052" y="1.67" class="c">done</text><text x="31.061999999999998" y="1.67" class="c">(62/s)</text><text x="38.07599999999999" y="1.67" class="c">|</text><text x="40.08" y="1.67" class="c">4.7s</text></svg><svg x="4900"><use xlink:href="#a"></use><text x="0" y="1.67" class="c">⠧</text><text x="2.004" y="1.67" class="c">Walking</text><text x="10.02" y="1.67" class="c">directories</text><text x="22.043999999999997" y="1.67" class="c">300</text><text x="26.052" y="1.67" class="c">done</text><text x="31.061999999999998" y="1.67" class="c">(62/s)</text><text x="38.07599999999999" y="1.67" class="c">|</text><text x="40.08" y="1.67" class="c">4.8s</text></svg><svg x="5000"><use xlink:href="#a"></use><text x="0" y="1.67" class="c">⠇</text><text x="2.004" y="1.67" class="c">Walking</text><text x="10.02" y="1.67" class="c">directories</text><text x="22.043999999999997" y="1.67" class="c">306</text><text x="26.052" y="1.67" class="c">done</text><text x="31.061999999999998" y="1.67" class="c">(62/s)</text><text x="38.07599999999999" y="1.67" class="c">|</text><text x="40.08" y="1.67" class="c">4.9s</text></svg><svg x="5100"><use xlink:href="#a"></use><text x="0" y="1.67" class="c">⠏</text><text x="2.004" y="1.67" class="c">Walking</text><text x="10.02" y="1.67" class="c">directories</text><text x="22.043999999999997" y="1.67" class="c">313</text><text x="26.052" y="1.67" class="c">done</text><text x="31.061999999999998" y="1.67" class="c">(62/s)</text><text x="38.07599999999999" y="1.67" class="c">|</text><text x="40.08" y="1.67" class="c">5s</text></svg><svg x="5200"><use xlink:href="#a"></use><text x="0" y="1.67" class="c">⠋</text><text x="2.004" y="1.67" class="c">Walking</text><text x="10.02" y="1.67" class="c">directories</text><text x="22.043999999999997" y="1.67" class="c">320</text><text x="26.052" y="1.67" class="c">done</text><text x="31.061999999999998" y="1.67" class="c">(62/s)</text><text x="38.07599999999999" y="1.67" class="c">|</text><text x="40.08" y="1.67" class="c">5.2s</text></svg><svg x="5300"><use xlink:href="#a"></use><text x="0" y="1.67" class="c">⠙</text><text x="2.004" y="1.67" class="c">Walking</text><text x="10.02" y="1.67" class="c">directories</text><text x="22.043999999999997" y="1.67" class="c">326</text><text x="26.052" y="1.67" class="c">done</text><text x="31.061999999999998" y="1.67" class="c">(62/s)</text><text x="38.07599999999999" y="1.67" class="c">|</text><text x="40.08" y="1.67" class="c">5.2s</text></svg><svg x="5400"><use xlink:href="#a"></use><text x="0" y="1.67" class="c">⠹</text><text x="2.004" y="1.67" class="c">Walking</text><text x="10.02" y="1.67" class="c">directories</text><text x="22.043999999999997" y="1.67" class="c">333</text><text x="26.052" y="1.67" class="c">done</text><text x="31.061999999999998" y="1.67" class="c">(62/s)</text><text x="38.07599999999999" y="1.67" class="c">|</text><text x="40.08" y="1.67" class="c">5.4s</text></svg><svg x="5500"><use xlink:href="#a"></use><text x="0" y="1.67" class="c">⠸</text><text x="2.004" y="1.67" class="c">Walking</text><text x="10.02" y="1.67" class="c">directories</text><text x="22.043999999999997" y="1.67" class="c">340</text><text x="26.052" y="1.67" class="c">done</text><text x="31.061999999999998" y="1.67" class="c">(62/s)</text><text x="38.07599999999999" y="1.67" class="c">|</text><text x="40.08" y="1.67" class="c">5.5s</text></svg><svg x="5600"><use xlink:href="#a"></use><text x="0" y="1.67" class="c">⠼</text><text x="2.004" y="1.67" class="c">Walking</text><text x="10.02" y="1.67" class="c">directories</text><text x="22.043999999999997" y="1.67" class="c">347</text><text x="26.052" y="1.67" class="c">done</text><text x="31.061999999999998" y="1.67" class="c">(62/s)</text><text x="38.07599999999999" y="1.67" class="c">|</text><text x="40.08" y="1.67" class="c">5.6s</text></svg><svg x="5700"><use xlink:href="#a"></use><text x="0" y="1.67" class="c">⠴</text><text x="2.004" y="1.67" class="c">Walking</text><text x="10.02" y="1.67" class="c">directories</text><text x="22.043999999999997" y="1.67" class="c">354</text><text x="26.052" y="1.67" class="c">done</text><text x="31.061999999999998" y="1.67" class="c">(62/s)</text><text x="38.07599999999999" y="1.67" class="c">|</text><text x="40.08" y="1.67" class="c">5.7s</text></svg><svg x="5800"><use xlink:href="#a"></use><text x="0" y="1.67" class="c">⠦</text><text x="2.004" y="1.67" class="c">Walking</text><text x="10.02" y="1.67" class="c">directories</text><text x="22.043999999999997" y="1.67" class="c">361</text><text x="26.052" y="1.67" class="c">done</text><text x="31.061999999999998" y="1.67" class="c">(62/s)</text><text x="38.07599999999999" y="1.67" class="c">|</text><text x="40.08" y="1.67" class="c">5.8s</text></svg><svg x="5900"><use xlink:href="#a"></use><text x="0" y="1.67" class="c">⠧</text><text x="2.004" y="1.67" class="c">Walking</text><text x="10.02" y="1.67" class="c">directories</text><text x="22.043999999999997" y="1.67" class="c">368</text><text x="26.052" y="1.67" class="c">done</text><text x="31.061999999999998" y="1.67" class="c">(63/s)</text><text x="38.07599999999999" y="1.67" class="c">|</text><text x="40.08" y="1.67" class="c">5.9s</text></svg><svg x="6000"><use xlink:href="#a"></use><text x="0" y="1.67" class="c">⠇</text><text x="2.004" y="1.67" class="c">Walking</text><text x="10.02" y="1.67" class="c">directories</text><text x="22.043999999999997" y="1.67" class="c">375</text><text x="26.052" y="1.67" class="c">done</text><text x="31.061999999999998" y="1.67" class="c">(63/s)</text><text x="38.07599999999999" y="1.67" class="c">|</text><text x="40.08" y="1.67" class="c">6s</text></svg><svg x="6100"><use xlink:href="#a"></use><text x="0" y="1.67" class="c">⠏</text><text x="2.004" y="1.67" class="c">Walking</text><text x="10.02" y="1.67" class="c">directories</text><text x="22.043999999999997" y="1.67" class="c">382</text><text x="26.052" y="1.67" class="c">done</text><text x="31.061999999999998" y="1.67" class="c">(63/s)</text><text x="38.07599999999999" y="1.67" class="c">|</text><text x="40.08" y="1.67" class="c">6.1s</text></svg><svg x="6200"><use xlink:href="#a"></use><text x="0" y="1.67" class="c">⠋</text><text x="2.004" y="1.67" class="c">Walking</text><text x="10.02" y="1.67" class="c">directories</text><text x="22.043999999999997" y="1.67" class="c">388</text><text x="26.052" y="1.67" class="c">done</text><text x="31.061999999999998" y="1.67" class="c">(63/s)</text><text x="38.07599999999999" y="1.67" class="c">|</text><text x="40.08" y="1.67" class="c">6.2s</text></svg><svg x="6300"><use xlink:href="#a"></use><text x="0" y="1.67" class="c">⠙</text><text x="2.004" y="1.67" class="c">Walking</text><text x="10.02" y="1.67" class="c">directories</text><text x="22.043999999999997" y="1.67" class="c">395</text><text x="26.052" y="1.67" class="c">done</text><text x="31.061999999999998" y="1.67" class="c">(63/s)</text><text x="38.07599999999999" y="1.67" class="c">|</text><text x="40.08" y="1.67" class="c">6.3s</text></svg><svg x="6400"><use xlink:href="#a"></use><text x="0" y="1.67" class="c">⠹</text><text x="2.004" y="1.67" class="c">Walking</text><text x="10.02" y="1.67" class="c">directories</text><text x="22.043999999999997" y="1.67" class="c">401</text><text x="26.052" y="1.67" class="c">done</text><text x="31.061999999999998" y="1.67" class="c">(63/s)</text><text x="38.07599999999999" y="1.67" class="c">|</text><text x="40.08" y="1.67" class="c">6.4s</text></svg><svg x="6500"><use xlink:href="#a"></use><text x="0" y="1.67" class="c">⠸</text><text x="2.004" y="1.67" class="c">Walking</text><text x="10.02" y="1.67" class="c">directories</text><text x="22.043999999999997" y="1.67" class="c">408</text><text x="26.052" y="1.67" class="c">done</text><text x="31.061999999999998" y="1.67" class="c">(63/s)</text><text x="38.07599999999999" y="1.67" class="c">|</text><text x="40.08" y="1.67" class="c">6.5s</text></svg><svg x="6600"><use xlink:href="#a"></use><text x="0" y="1.67" class="c">⠼</text><text x="2.004" y="1.67" class="c">Walking</text><text x="10.02" y="1.67" class="c">directories</text><text x="22.043999999999997" y="1.67" class="c">414</text><text x="26.052" y="1.67" class="c">done</text><text x="31.061999999999998" y="1.67" class="c">(63/s)</text><text x="38.07599999999999" y="1.67" class="c">|</text><text x="40.08" y="1.67" class="c">6.6s</text></svg><svg x="6700"><use xlink:href="#a"></use><text x="0" y="1.67" class="c">⠴</text><text x="2.004" y="1.67" class="c">Walking</text><text x="10.02" y="1.67" class="c">directories</text><text x="22.043999999999997" y="1.67" class="c">421</text><text x="26.052" y="1.67" class="c">done</text><text x="31.061999999999998" y="1.67" class="c">(62/s)</text><text x="38.07599999999999" y="1.67" class="c">|</text><text x="40.08" y="1.67" class="c">6.7s</text></svg><svg x="6800"><use xlink:href="#a"></use><text x="0" y="1.67" class="c">⠦</text><text x="2.004" y="1.67" class="c">Walking</text><text x="10.02" y="1.67" class="c">directories</text><text x="22.043999999999997" y="1.67" class="c">427</text><text x="26.052" y="1.67" class="c">done</text><text x="31.061999999999998" y="1.67" class="c">(63/s)</text><text x="38.07599999999999" y="1.67" class="c">|</text><text x="40.08" y="1.67" class="c">6.8s</text></svg><svg x="6900"><use xlink:href="#a"></use><text x="0" y="1.67" class="c">⠧</text><text x="2.004" y="1.67" class="c">Walking</text><text x="10.02" y="1.67" class="c">directories</text><text x="22.043999999999997" y="1.67" class="c">433</text><text x="26.052" y="1.67" class="c">done</text><text x="31.061999999999998" y="1.67" class="c">(62/s)</text><text x="38.07599999999999" y="1.67" class="c">|</text><text x="40.08" y="1.67" class="c">6.9s</text></svg><svg x="7000"><use xlink:href="#a"></use><text x="0" y="1.67" class="c">⠇</text><text x="2.004" y="1.67" class="c">Walking</text><text x="10.02" y="1.67" class="c">directories</text><text x="22.043999999999997" y="1.67" class="c">440</text><text x="26.052" y="1.67" class="c">done</text><text x="31.061999999999998" y="1.67" class="c">(62/s)</text><text x="38.07599999999999" y="1.67" class="c">|</text><text x="40.08" y="1.67" class="c">7s</text></svg><svg x="7100"><use xlink:href="#a"></use><text x="0" y="1.67" class="c">⠏</text><text x="2.004" y="1.67" class="c">Walking</text><text x="10.02" y="1.67" class="c">directories</text><text x="22.043999999999997" y="1.67" class="c">446</text><text x="26.052" y="1.67" class="c">done</text><text x="31.061999999999998" y="1.67" class="c">(62/s)</text><text x="38.07599999999999" y="1.67" class="c">|</text><text x="40.08" y="1.67" class="c">7.1s</text></svg><svg x="7200"><use xlink:href="#a"></use><text x="0" y="1.67" class="c">⠋</text><text x="2.004" y="1.67" class="c">Walking</text><text x="10.02" y="1.67" class="c">directories</text><text x="22.043999999999997" y="1.67" class="c">452</text><text x="26.052" y="1.67" class="c">done</text><text x="31.061999999999998" y="1.67" class="c">(62/s)</text><text x="38.07599999999999" y="1.67" class="c">|</text><text x="40.08" y="1.67" class="c">7.2s</text></svg><svg x="7300"><use xlink:href="#a"></use><text x="0" y="1.67" class="c">⠙</text><text x="2.004" y="1.67" class="c">Walking</text><text x="10.02" y="1.67" class="c">directories</text><text x="22.043999999999997" y="1.67" class="c">459</text><text x="26.052" y="1.67" class="c">done</text><text x="31.061999999999998" y="1.67" class="c">(62/s)</text><text x="38.07599999999999" y="1.67" class="c">|</text><text x="40.08" y="1.67" class="c">7.4s</text></svg><svg x="7400"><use xlink:href="#a"></use><text x="0" y="1.67" class="c">⠹</text><text x="2.004" y="1.67" class="c">Walking</text><text x="10.02" y="1.67" class="c">directories</text><text x="22.043999999999997" y="1.67" class="c">463</text><text x="26.052" y="1.67" class="c">done</text><text x="31.061999999999998" y="1.67" class="c">(63/s)</text><text x="38.07599999999999" y="1.67" class="c">|</text><text x="40.08" y="1.67" class="c">7.4s</text></svg><svg x="7500"><use xlink:href="#a"></use><use xlink:href="#1" y="0"></use></svg><svg x="7600"><use xlink:href="#a"></use><use xlink:href="#1" y="0"></use></svg><svg x="7700"><use xlink:href="#a"></use><use xlink:href="#1" y="0"></use></svg></svg></g></g></svg></svg>