<svg xmlns="http://www.w3.org/2000/svg" xmlns:xlink="http://www.w3.org/1999/xlink" width="1040" height="61.709999999999994"><rect width="1040" height="61.709999999999994" rx="0" ry="0" class="a"></rect><svg height="21.709999999999997" viewBox="0 0 100 2.171" width="1000" x="20" xmlns="http://www.w3.org/2000/svg" xmlns:xlink="http://www.w3.org/1999/xlink" y="20"><style>.a{fill:rgb(40,45,53)}.b{font-family:'Fira Code',Monaco,Consolas,Menlo,'Bitstream Vera Sans Mono','Powerline Symbols',monospace}.c{fill:rgb(185,192,203);white-space:pre}.d{fill:transparent}.f{animation-duration:15.2010090351105s;animation-iteration-count:infinite;animation-name:e;animation-timing-function:steps(1,end)}@keyframes e{0%{transform:translateX(-0px)}0%{transform:translateX(-100px)}1.3%{transform:translateX(-200px)}1.4%{transform:translateX(-300px)}2.9%{transform:translateX(-400px)}3.6%{transform:translateX(-500px)}4.5%{transform:translateX(-600px)}5.4%{transform:translateX(-700px)}6.1%{transform:translateX(-800px)}7%{transform:translateX(-900px)}7.4%{transform:translateX(-1000px)}8.3%{transform:translateX(-1100px)}8.9%{transform:translateX(-1200px)}10.1%{transform:translateX(-1300px)}11.5%{transform:translateX(-1400px)}12.1%{transform:translateX(-1500px)}14%{transform:translateX(-1600px)}14.3%{transform:translateX(-1700px)}15%{transform:translateX(-1800px)}16.1%{transform:translateX(-1900px)}16.9%{transform:translateX(-2000px)}18.5%{transform:translateX(-2100px)}18.7%{transform:translateX(-2200px)}20.2%{transform:translateX(-2300px)}21.2%{transform:translateX(-2400px)}22.7%{transform:translateX(-2500px)}23.6%{transform:translateX(-2600px)}24.6%{transform:translateX(-2700px)}25.3%{transform:translateX(-2800px)}27%{transform:translateX(-2900px)}27.6%{transform:translateX(-3000px)}28.3%{transform:translateX(-3100px)}29.4%{transform:translateX(-3200px)}30.3%{transform:translateX(-3300px)}31.1%{transform:translateX(-3400px)}31.8%{transform:translateX(-3500px)}32.6%{transform:translateX(-3600px)}33.2%{transform:translateX(-3700px)}33.9%{transform:translateX(-3800px)}35.3%{transform:translateX(-3900px)}36.5%{transform:translateX(-4000px)}36.7%{transform:translateX(-4100px)}37.7%{transform:translateX(-4200px)}38.3%{transform:translateX(-4300px)}40%{transform:translateX(-4400px)}40.7%{transform:translateX(-4500px)}41.7%{transform:translateX(-4600px)}42.5%{transform:translateX(-4700px)}43.1%{transform:translateX(-4800px)}44.5%{transform:translateX(-4900px)}45.1%{transform:translateX(-5000px)}45.8%{transform:translateX(-5100px)}46.5%{transform:translateX(-5200px)}47.1%{transform:translateX(-5300px)}47.8%{transform:translateX(-5400px)}49.2%{transform:translateX(-5500px)}50.1%{transform:translateX(-5600px)}51.5%{transform:translateX(-5700px)}52.7%{transform:translateX(-5800px)}53.4%{transform:translateX(-5900px)}54.2%{transform:translateX(-6000px)}55%{transform:translateX(-6100px)}56%{transform:translateX(-6200px)}57.5%{transform:translateX(-6300px)}58.2%{transform:translateX(-6400px)}59.3%{transform:translateX(-6500px)}60.1%{transform:translateX(-6600px)}60.8%{transform:translateX(-6700px)}61.6%{transform:translateX(-6800px)}62.8%{transform:translateX(-6900px)}64%{transform:translateX(-7000px)}64.1%{transform:translateX(-7100px)}64.8%{transform:translateX(-7200px)}66.4%{transform:translateX(-7300px)}67.5%{transform:translateX(-7400px)}68.1%{transform:translateX(-7500px)}68.8%{transform:translateX(-7600px)}69.7%{transform:translateX(-7700px)}70.7%{transform:translateX(-7800px)}71.2%{transform:translateX(-7900px)}72.1%{transform:translateX(-8000px)}72.7%{transform:translateX(-8100px)}73.3%{transform:translateX(-8200px)}74%{transform:translateX(-8300px)}75.4%{transform:translateX(-8400px)}76.3%{transform:translateX(-8500px)}77.8%{transform:translateX(-8600px)}79.4%{transform:translateX(-8700px)}79.5%{transform:translateX(-8800px)}79.6%{transform:translateX(-8900px)}79.6%{transform:translateX(-9000px)}100%{transform:translateX(-9100px)}}</style><g font-family="&#x27;Fira Code&#x27;,Monaco,Consolas,Menlo,&#x27;Bitstream Vera Sans Mono&#x27;,&#x27;Powerline Symbols&#x27;,monospace" font-size="1.67" class="b"><defs><symbol id="1"><text x="0" y="1.67" class="c">⠦</text><text x="2.004" y="1.67" class="c">Walking</text><text x="10.02" y="1.67" class="c">directories</text><text x="22.043999999999997" y="1.67" class="c">463</text><text x="26.052" y="1.67" class="c">done</text><text x="31.061999999999998" y="1.67" class="c">(39/s)</text><text x="38.07599999999999" y="1.67" class="c">|</text><text x="40.08" y="1.67" class="c">11.9s</text></symbol><symbol id="a"><rect height="2" width="100" x="0" y="0" class="d"></rect></symbol></defs><rect height="2.171" width="100" class="a"></rect><g class="f"><svg x="0" y="0" width="9200"><svg x="0"><use xlink:href="#a"></use></svg><svg x="100"><use xlink:href="#a"></use></svg><svg x="200"><use xlink:href="#a"></use></svg><svg x="300"><use xlink:href="#a"></use><text x="0" y="1.67" class="c">⠙</text><text x="2.004" y="1.67" class="c">Walking</text><text x="10.02" y="1.67" class="c">directories</text><text x="22.043999999999997" y="1.67" class="c">1</text><text x="24.048" y="1.67" class="c">done</text><text x="29.058" y="1.67" class="c">(85/s)</text><text x="36.071999999999996" y="1.67" class="c">|</text><text x="38.07599999999999" y="1.67" class="c">12ms</text></svg><svg x="400"><use xlink:href="#a"></use><text x="0" y="1.67" class="c">⠹</text><text x="2.004" y="1.67" class="c">Walking</text><text x="10.02" y="1.67" class="c">directories</text><text x="22.043999999999997" y="1.67" class="c">16</text><text x="25.05" y="1.67" class="c">done</text><text x="30.059999999999995" y="1.67" class="c">(63/s)</text><text x="37.074" y="1.67" class="c">|</text><text x="39.077999999999996" y="1.67" class="c">255ms</text></svg><svg x="500"><use xlink:href="#a"></use><text x="0" y="1.67" class="c">⠸</text><text x="2.004" y="1.67" class="c">Walking</text><text x="10.02" y="1.67" class="c">directories</text><text x="22.043999999999997" y="1.67" class="c">18</text><text x="25.05" y="1.67" class="c">done</text><text x="30.059999999999995" y="1.67" class="c">(50/s)</text><text x="37.074" y="1.67" class="c">|</text><text x="39.077999999999996" y="1.67" class="c">363ms</text></svg><svg x="600"><use xlink:href="#a"></use><text x="0" y="1.67" class="c">⠼</text><text x="2.004" y="1.67" class="c">Walking</text><text x="10.02" y="1.67" class="c">directories</text><text x="22.043999999999997" y="1.67" class="c">23</text><text x="25.05" y="1.67" class="c">done</text><text x="30.059999999999995" y="1.67" class="c">(47/s)</text><text x="37.074" y="1.67" class="c">|</text><text x="39.077999999999996" y="1.67" class="c">494ms</text></svg><svg x="700"><use xlink:href="#a"></use><text x="0" y="1.67" class="c">⠴</text><text x="2.004" y="1.67" class="c">Walking</text><text x="10.02" y="1.67" class="c">directories</text><text x="22.043999999999997" y="1.67" class="c">28</text><text x="25.05" y="1.67" class="c">done</text><text x="30.059999999999995" y="1.67" class="c">(45/s)</text><text x="37.074" y="1.67" class="c">|</text><text x="39.077999999999996" y="1.67" class="c">628ms</text></svg><svg x="800"><use xlink:href="#a"></use><text x="0" y="1.67" class="c">⠦</text><text x="2.004" y="1.67" class="c">Walking</text><text x="10.02" y="1.67" class="c">directories</text><text x="22.043999999999997" y="1.67" class="c">30</text><text x="25.05" y="1.67" class="c">done</text><text x="30.059999999999995" y="1.67" class="c">(40/s)</text><text x="37.074" y="1.67" class="c">|</text><text x="39.077999999999996" y="1.67" class="c">742ms</text></svg><svg x="900"><use xlink:href="#a"></use><text x="0" y="1.67" class="c">⠧</text><text x="2.004" y="1.67" class="c">Walking</text><text x="10.02" y="1.67" class="c">directories</text><text x="22.043999999999997" y="1.67" class="c">36</text><text x="25.05" y="1.67" class="c">done</text><text x="30.059999999999995" y="1.67" class="c">(41/s)</text><text x="37.074" y="1.67" class="c">|</text><text x="39.077999999999996" y="1.67" class="c">883ms</text></svg><svg x="1000"><use xlink:href="#a"></use><text x="0" y="1.67" class="c">⠇</text><text x="2.004" y="1.67" class="c">Walking</text><text x="10.02" y="1.67" class="c">directories</text><text x="22.043999999999997" y="1.67" class="c">38</text><text x="25.05" y="1.67" class="c">done</text><text x="30.059999999999995" y="1.67" class="c">(41/s)</text><text x="37.074" y="1.67" class="c">|</text><text x="39.077999999999996" y="1.67" class="c">932ms</text></svg><svg x="1100"><use xlink:href="#a"></use><text x="0" y="1.67" class="c">⠏</text><text x="2.004" y="1.67" class="c">Walking</text><text x="10.02" y="1.67" class="c">directories</text><text x="22.043999999999997" y="1.67" class="c">40</text><text x="25.05" y="1.67" class="c">done</text><text x="30.059999999999995" y="1.67" class="c">(38/s)</text><text x="37.074" y="1.67" class="c">|</text><text x="39.077999999999996" y="1.67" class="c">1.1s</text></svg><svg x="1200"><use xlink:href="#a"></use><text x="0" y="1.67" class="c">⠋</text><text x="2.004" y="1.67" class="c">Walking</text><text x="10.02" y="1.67" class="c">directories</text><text x="22.043999999999997" y="1.67" class="c">43</text><text x="25.05" y="1.67" class="c">done</text><text x="30.059999999999995" y="1.67" class="c">(37/s)</text><text x="37.074" y="1.67" class="c">|</text><text x="39.077999999999996" y="1.67" class="c">1.2s</text></svg><svg x="1300"><use xlink:href="#a"></use><text x="0" y="1.67" class="c">⠙</text><text x="2.004" y="1.67" class="c">Walking</text><text x="10.02" y="1.67" class="c">directories</text><text x="22.043999999999997" y="1.67" class="c">53</text><text x="25.05" y="1.67" class="c">done</text><text x="30.059999999999995" y="1.67" class="c">(39/s)</text><text x="37.074" y="1.67" class="c">|</text><text x="39.077999999999996" y="1.67" class="c">1.4s</text></svg><svg x="1400"><use xlink:href="#a"></use><text x="0" y="1.67" class="c">⠹</text><text x="2.004" y="1.67" class="c">Walking</text><text x="10.02" y="1.67" class="c">directories</text><text x="22.043999999999997" y="1.67" class="c">61</text><text x="25.05" y="1.67" class="c">done</text><text x="30.059999999999995" y="1.67" class="c">(39/s)</text><text x="37.074" y="1.67" class="c">|</text><text x="39.077999999999996" y="1.67" class="c">1.6s</text></svg><svg x="1500"><use xlink:href="#a"></use><text x="0" y="1.67" class="c">⠸</text><text x="2.004" y="1.67" class="c">Walking</text><text x="10.02" y="1.67" class="c">directories</text><text x="22.043999999999997" y="1.67" class="c">69</text><text x="25.05" y="1.67" class="c">done</text><text x="30.059999999999995" y="1.67" class="c">(42/s)</text><text x="37.074" y="1.67" class="c">|</text><text x="39.077999999999996" y="1.67" class="c">1.6s</text></svg><svg x="1600"><use xlink:href="#a"></use><text x="0" y="1.67" class="c">⠼</text><text x="2.004" y="1.67" class="c">Walking</text><text x="10.02" y="1.67" class="c">directories</text><text x="22.043999999999997" y="1.67" class="c">81</text><text x="25.05" y="1.67" class="c">done</text><text x="30.059999999999995" y="1.67" class="c">(42/s)</text><text x="37.074" y="1.67" class="c">|</text><text x="39.077999999999996" y="1.67" class="c">1.9s</text></svg><svg x="1700"><use xlink:href="#a"></use><text x="0" y="1.67" class="c">⠴</text><text x="2.004" y="1.67" class="c">Walking</text><text x="10.02" y="1.67" class="c">directories</text><text x="22.043999999999997" y="1.67" class="c">84</text><text x="25.05" y="1.67" class="c">done</text><text x="30.059999999999995" y="1.67" class="c">(42/s)</text><text x="37.074" y="1.67" class="c">|</text><text x="39.077999999999996" y="1.67" class="c">2s</text></svg><svg x="1800"><use xlink:href="#a"></use><text x="0" y="1.67" class="c">⠦</text><text x="2.004" y="1.67" class="c">Walking</text><text x="10.02" y="1.67" class="c">directories</text><text x="22.043999999999997" y="1.67" class="c">93</text><text x="25.05" y="1.67" class="c">done</text><text x="30.059999999999995" y="1.67" class="c">(45/s)</text><text x="37.074" y="1.67" class="c">|</text><text x="39.077999999999996" y="1.67" class="c">2.1s</text></svg><svg x="1900"><use xlink:href="#a"></use><text x="0" y="1.67" class="c">⠧</text><text x="2.004" y="1.67" class="c">Walking</text><text x="10.02" y="1.67" class="c">directories</text><text x="22.043999999999997" y="1.67" class="c">98</text><text x="25.05" y="1.67" class="c">done</text><text x="30.059999999999995" y="1.67" class="c">(43/s)</text><text x="37.074" y="1.67" class="c">|</text><text x="39.077999999999996" y="1.67" class="c">2.3s</text></svg><svg x="2000"><use xlink:href="#a"></use><text x="0" y="1.67" class="c">⠇</text><text x="2.004" y="1.67" class="c">Walking</text><text x="10.02" y="1.67" class="c">directories</text><text x="22.043999999999997" y="1.67" class="c">108</text><text x="26.052" y="1.67" class="c">done</text><text x="31.061999999999998" y="1.67" class="c">(46/s)</text><text x="38.07599999999999" y="1.67" class="c">|</text><text x="40.08" y="1.67" class="c">2.4s</text></svg><svg x="2100"><use xlink:href="#a"></use><text x="0" y="1.67" class="c">⠏</text><text x="2.004" y="1.67" class="c">Walking</text><text x="10.02" y="1.67" class="c">directories</text><text x="22.043999999999997" y="1.67" class="c">118</text><text x="26.052" y="1.67" class="c">done</text><text x="31.061999999999998" y="1.67" class="c">(45/s)</text><text x="38.07599999999999" y="1.67" class="c">|</text><text x="40.08" y="1.67" class="c">2.6s</text></svg><svg x="2200"><use xlink:href="#a"></use><text x="0" y="1.67" class="c">⠋</text><text x="2.004" y="1.67" class="c">Walking</text><text x="10.02" y="1.67" class="c">directories</text><text x="22.043999999999997" y="1.67" class="c">119</text><text x="26.052" y="1.67" class="c">done</text><text x="31.061999999999998" y="1.67" class="c">(45/s)</text><text x="38.07599999999999" y="1.67" class="c">|</text><text x="40.08" y="1.67" class="c">2.7s</text></svg><svg x="2300"><use xlink:href="#a"></use><text x="0" y="1.67" class="c">⠙</text><text x="2.004" y="1.67" class="c">Walking</text><text x="10.02" y="1.67" class="c">directories</text><text x="22.043999999999997" y="1.67" class="c">127</text><text x="26.052" y="1.67" class="c">done</text><text x="31.061999999999998" y="1.67" class="c">(44/s)</text><text x="38.07599999999999" y="1.67" class="c">|</text><text x="40.08" y="1.67" class="c">2.9s</text></svg><svg x="2400"><use xlink:href="#a"></use><text x="0" y="1.67" class="c">⠹</text><text x="2.004" y="1.67" class="c">Walking</text><text x="10.02" y="1.67" class="c">directories</text><text x="22.043999999999997" y="1.67" class="c">132</text><text x="26.052" y="1.67" class="c">done</text><text x="31.061999999999998" y="1.67" class="c">(43/s)</text><text x="38.07599999999999" y="1.67" class="c">|</text><text x="40.08" y="1.67" class="c">3s</text></svg><svg x="2500"><use xlink:href="#a"></use><text x="0" y="1.67" class="c">⠸</text><text x="2.004" y="1.67" class="c">Walking</text><text x="10.02" y="1.67" class="c">directories</text><text x="22.043999999999997" y="1.67" class="c">141</text><text x="26.052" y="1.67" class="c">done</text><text x="31.061999999999998" y="1.67" class="c">(43/s)</text><text x="38.07599999999999" y="1.67" class="c">|</text><text x="40.08" y="1.67" class="c">3.3s</text></svg><svg x="2600"><use xlink:href="#a"></use><text x="0" y="1.67" class="c">⠼</text><text x="2.004" y="1.67" class="c">Walking</text><text x="10.02" y="1.67" class="c">directories</text><text x="22.043999999999997" y="1.67" class="c">144</text><text x="26.052" y="1.67" class="c">done</text><text x="31.061999999999998" y="1.67" class="c">(42/s)</text><text x="38.07599999999999" y="1.67" class="c">|</text><text x="40.08" y="1.67" class="c">3.4s</text></svg><svg x="2700"><use xlink:href="#a"></use><text x="0" y="1.67" class="c">⠴</text><text x="2.004" y="1.67" class="c">Walking</text><text x="10.02" y="1.67" class="c">directories</text><text x="22.043999999999997" y="1.67" class="c">149</text><text x="26.052" y="1.67" class="c">done</text><text x="31.061999999999998" y="1.67" class="c">(42/s)</text><text x="38.07599999999999" y="1.67" class="c">|</text><text x="40.08" y="1.67" class="c">3.5s</text></svg><svg x="2800"><use xlink:href="#a"></use><text x="0" y="1.67" class="c">⠦</text><text x="2.004" y="1.67" class="c">Walking</text><text x="10.02" y="1.67" class="c">directories</text><text x="22.043999999999997" y="1.67" class="c">157</text><text x="26.052" y="1.67" class="c">done</text><text x="31.061999999999998" y="1.67" class="c">(43/s)</text><text x="38.07599999999999" y="1.67" class="c">|</text><text x="40.08" y="1.67" class="c">3.7s</text></svg><svg x="2900"><use xlink:href="#a"></use><text x="0" y="1.67" class="c">⠧</text><text x="2.004" y="1.67" class="c">Walking</text><text x="10.02" y="1.67" class="c">directories</text><text x="22.043999999999997" y="1.67" class="c">168</text><text x="26.052" y="1.67" class="c">done</text><text x="31.061999999999998" y="1.67" class="c">(43/s)</text><text x="38.07599999999999" y="1.67" class="c">|</text><text x="40.08" y="1.67" class="c">3.9s</text></svg><svg x="3000"><use xlink:href="#a"></use><text x="0" y="1.67" class="c">⠇</text><text x="2.004" y="1.67" class="c">Walking</text><text x="10.02" y="1.67" class="c">directories</text><text x="22.043999999999997" y="1.67" class="c">172</text><text x="26.052" y="1.67" class="c">done</text><text x="31.061999999999998" y="1.67" class="c">(43/s)</text><text x="38.07599999999999" y="1.67" class="c">|</text><text x="40.08" y="1.67" class="c">4s</text></svg><svg x="3100"><use xlink:href="#a"></use><text x="0" y="1.67" class="c">⠏</text><text x="2.004" y="1.67" class="c">Walking</text><text x="10.02" y="1.67" class="c">directories</text><text x="22.043999999999997" y="1.67" class="c">174</text><text x="26.052" y="1.67" class="c">done</text><text x="31.061999999999998" y="1.67" class="c">(42/s)</text><text x="38.07599999999999" y="1.67" class="c">|</text><text x="40.08" y="1.67" class="c">4.1s</text></svg><svg x="3200"><use xlink:href="#a"></use><text x="0" y="1.67" class="c">⠋</text><text x="2.004" y="1.67" class="c">Walking</text><text x="10.02" y="1.67" class="c">directories</text><text x="22.043999999999997" y="1.67" class="c">180</text><text x="26.052" y="1.67" class="c">done</text><text x="31.061999999999998" y="1.67" class="c">(42/s)</text><text x="38.07599999999999" y="1.67" class="c">|</text><text x="40.08" y="1.67" class="c">4.3s</text></svg><svg x="3300"><use xlink:href="#a"></use><text x="0" y="1.67" class="c">⠙</text><text x="2.004" y="1.67" class="c">Walking</text><text x="10.02" y="1.67" class="c">directories</text><text x="22.043999999999997" y="1.67" class="c">182</text><text x="26.052" y="1.67" class="c">done</text><text x="31.061999999999998" y="1.67" class="c">(41/s)</text><text x="38.07599999999999" y="1.67" class="c">|</text><text x="40.08" y="1.67" class="c">4.4s</text></svg><svg x="3400"><use xlink:href="#a"></use><text x="0" y="1.67" class="c">⠹</text><text x="2.004" y="1.67" class="c">Walking</text><text x="10.02" y="1.67" class="c">directories</text><text x="22.043999999999997" y="1.67" class="c">185</text><text x="26.052" y="1.67" class="c">done</text><text x="31.061999999999998" y="1.67" class="c">(41/s)</text><text x="38.07599999999999" y="1.67" class="c">|</text><text x="40.08" y="1.67" class="c">4.5s</text></svg><svg x="3500"><use xlink:href="#a"></use><text x="0" y="1.67" class="c">⠸</text><text x="2.004" y="1.67" class="c">Walking</text><text x="10.02" y="1.67" class="c">directories</text><text x="22.043999999999997" y="1.67" class="c">188</text><text x="26.052" y="1.67" class="c">done</text><text x="31.061999999999998" y="1.67" class="c">(40/s)</text><text x="38.07599999999999" y="1.67" class="c">|</text><text x="40.08" y="1.67" class="c">4.7s</text></svg><svg x="3600"><use xlink:href="#a"></use><text x="0" y="1.67" class="c">⠼</text><text x="2.004" y="1.67" class="c">Walking</text><text x="10.02" y="1.67" class="c">directories</text><text x="22.043999999999997" y="1.67" class="c">191</text><text x="26.052" y="1.67" class="c">done</text><text x="31.061999999999998" y="1.67" class="c">(40/s)</text><text x="38.07599999999999" y="1.67" class="c">|</text><text x="40.08" y="1.67" class="c">4.8s</text></svg><svg x="3700"><use xlink:href="#a"></use><text x="0" y="1.67" class="c">⠴</text><text x="2.004" y="1.67" class="c">Walking</text><text x="10.02" y="1.67" class="c">directories</text><text x="22.043999999999997" y="1.67" class="c">199</text><text x="26.052" y="1.67" class="c">done</text><text x="31.061999999999998" y="1.67" class="c">(41/s)</text><text x="38.07599999999999" y="1.67" class="c">|</text><text x="40.08" y="1.67" class="c">4.9s</text></svg><svg x="3800"><use xlink:href="#a"></use><text x="0" y="1.67" class="c">⠦</text><text x="2.004" y="1.67" class="c">Walking</text><text x="10.02" y="1.67" class="c">directories</text><text x="22.043999999999997" y="1.67" class="c">207</text><text x="26.052" y="1.67" class="c">done</text><text x="31.061999999999998" y="1.67" class="c">(42/s)</text><text x="38.07599999999999" y="1.67" class="c">|</text><text x="40.08" y="1.67" class="c">5s</text></svg><svg x="3900"><use xlink:href="#a"></use><text x="0" y="1.67" class="c">⠧</text><text x="2.004" y="1.67" class="c">Walking</text><text x="10.02" y="1.67" class="c">directories</text><text x="22.043999999999997" y="1.67" class="c">212</text><text x="26.052" y="1.67" class="c">done</text><text x="31.061999999999998" y="1.67" class="c">(41/s)</text><text x="38.07599999999999" y="1.67" class="c">|</text><text x="40.08" y="1.67" class="c">5.2s</text></svg><svg x="4000"><use xlink:href="#a"></use><text x="0" y="1.67" class="c">⠇</text><text x="2.004" y="1.67" class="c">Walking</text><text x="10.02" y="1.67" class="c">directories</text><text x="22.043999999999997" y="1.67" class="c">214</text><text x="26.052" y="1.67" class="c">done</text><text x="31.061999999999998" y="1.67" class="c">(40/s)</text><text x="38.07599999999999" y="1.67" class="c">|</text><text x="40.08" y="1.67" class="c">5.4s</text></svg><svg x="4100"><use xlink:href="#a"></use><text x="0" y="1.67" class="c">⠏</text><text x="2.004" y="1.67" class="c">Walking</text><text x="10.02" y="1.67" class="c">directories</text><text x="22.043999999999997" y="1.67" class="c">216</text><text x="26.052" y="1.67" class="c">done</text><text x="31.061999999999998" y="1.67" class="c">(40/s)</text><text x="38.07599999999999" y="1.67" class="c">|</text><text x="40.08" y="1.67" class="c">5.4s</text></svg><svg x="4200"><use xlink:href="#a"></use><text x="0" y="1.67" class="c">⠋</text><text x="2.004" y="1.67" class="c">Walking</text><text x="10.02" y="1.67" class="c">directories</text><text x="22.043999999999997" y="1.67" class="c">220</text><text x="26.052" y="1.67" class="c">done</text><text x="31.061999999999998" y="1.67" class="c">(40/s)</text><text x="38.07599999999999" y="1.67" class="c">|</text><text x="40.08" y="1.67" class="c">5.5s</text></svg><svg x="4300"><use xlink:href="#a"></use><text x="0" y="1.67" class="c">⠙</text><text x="2.004" y="1.67" class="c">Walking</text><text x="10.02" y="1.67" class="c">directories</text><text x="22.043999999999997" y="1.67" class="c">228</text><text x="26.052" y="1.67" class="c">done</text><text x="31.061999999999998" y="1.67" class="c">(40/s)</text><text x="38.07599999999999" y="1.67" class="c">|</text><text x="40.08" y="1.67" class="c">5.6s</text></svg><svg x="4400"><use xlink:href="#a"></use><text x="0" y="1.67" class="c">⠹</text><text x="2.004" y="1.67" class="c">Walking</text><text x="10.02" y="1.67" class="c">directories</text><text x="22.043999999999997" y="1.67" class="c">238</text><text x="26.052" y="1.67" class="c">done</text><text x="31.061999999999998" y="1.67" class="c">(40/s)</text><text x="38.07599999999999" y="1.67" class="c">|</text><text x="40.08" y="1.67" class="c">5.9s</text></svg><svg x="4500"><use xlink:href="#a"></use><text x="0" y="1.67" class="c">⠸</text><text x="2.004" y="1.67" class="c">Walking</text><text x="10.02" y="1.67" class="c">directories</text><text x="22.043999999999997" y="1.67" class="c">245</text><text x="26.052" y="1.67" class="c">done</text><text x="31.061999999999998" y="1.67" class="c">(41/s)</text><text x="38.07599999999999" y="1.67" class="c">|</text><text x="40.08" y="1.67" class="c">6s</text></svg><svg x="4600"><use xlink:href="#a"></use><text x="0" y="1.67" class="c">⠼</text><text x="2.004" y="1.67" class="c">Walking</text><text x="10.02" y="1.67" class="c">directories</text><text x="22.043999999999997" y="1.67" class="c">252</text><text x="26.052" y="1.67" class="c">done</text><text x="31.061999999999998" y="1.67" class="c">(41/s)</text><text x="38.07599999999999" y="1.67" class="c">|</text><text x="40.08" y="1.67" class="c">6.2s</text></svg><svg x="4700"><use xlink:href="#a"></use><text x="0" y="1.67" class="c">⠴</text><text x="2.004" y="1.67" class="c">Walking</text><text x="10.02" y="1.67" class="c">directories</text><text x="22.043999999999997" y="1.67" class="c">256</text><text x="26.052" y="1.67" class="c">done</text><text x="31.061999999999998" y="1.67" class="c">(41/s)</text><text x="38.07599999999999" y="1.67" class="c">|</text><text x="40.08" y="1.67" class="c">6.3s</text></svg><svg x="4800"><use xlink:href="#a"></use><text x="0" y="1.67" class="c">⠦</text><text x="2.004" y="1.67" class="c">Walking</text><text x="10.02" y="1.67" class="c">directories</text><text x="22.043999999999997" y="1.67" class="c">264</text><text x="26.052" y="1.67" class="c">done</text><text x="31.061999999999998" y="1.67" class="c">(41/s)</text><text x="38.07599999999999" y="1.67" class="c">|</text><text x="40.08" y="1.67" class="c">6.4s</text></svg><svg x="4900"><use xlink:href="#a"></use><text x="0" y="1.67" class="c">⠧</text><text x="2.004" y="1.67" class="c">Walking</text><text x="10.02" y="1.67" class="c">directories</text><text x="22.043999999999997" y="1.67" class="c">270</text><text x="26.052" y="1.67" class="c">done</text><text x="31.061999999999998" y="1.67" class="c">(41/s)</text><text x="38.07599999999999" y="1.67" class="c">|</text><text x="40.08" y="1.67" class="c">6.6s</text></svg><svg x="5000"><use xlink:href="#a"></use><text x="0" y="1.67" class="c">⠇</text><text x="2.004" y="1.67" class="c">Walking</text><text x="10.02" y="1.67" class="c">directories</text><text x="22.043999999999997" y="1.67" class="c">271</text><text x="26.052" y="1.67" class="c">done</text><text x="31.061999999999998" y="1.67" class="c">(41/s)</text><text x="38.07599999999999" y="1.67" class="c">|</text><text x="40.08" y="1.67" class="c">6.7s</text></svg><svg x="5100"><use xlink:href="#a"></use><text x="0" y="1.67" class="c">⠏</text><text x="2.004" y="1.67" class="c">Walking</text><text x="10.02" y="1.67" class="c">directories</text><text x="22.043999999999997" y="1.67" class="c">274</text><text x="26.052" y="1.67" class="c">done</text><text x="31.061999999999998" y="1.67" class="c">(40/s)</text><text x="38.07599999999999" y="1.67" class="c">|</text><text x="40.08" y="1.67" class="c">6.8s</text></svg><svg x="5200"><use xlink:href="#a"></use><text x="0" y="1.67" class="c">⠋</text><text x="2.004" y="1.67" class="c">Walking</text><text x="10.02" y="1.67" class="c">directories</text><text x="22.043999999999997" y="1.67" class="c">276</text><text x="26.052" y="1.67" class="c">done</text><text x="31.061999999999998" y="1.67" class="c">(40/s)</text><text x="38.07599999999999" y="1.67" class="c">|</text><text x="40.08" y="1.67" class="c">6.9s</text></svg><svg x="5300"><use xlink:href="#a"></use><text x="0" y="1.67" class="c">⠙</text><text x="2.004" y="1.67" class="c">Walking</text><text x="10.02" y="1.67" class="c">directories</text><text x="22.043999999999997" y="1.67" class="c">281</text><text x="26.052" y="1.67" class="c">done</text><text x="31.061999999999998" y="1.67" class="c">(40/s)</text><text x="38.07599999999999" y="1.67" class="c">|</text><text x="40.08" y="1.67" class="c">7s</text></svg><svg x="5400"><use xlink:href="#a"></use><text x="0" y="1.67" class="c">⠹</text><text x="2.004" y="1.67" class="c">Walking</text><text x="10.02" y="1.67" class="c">directories</text><text x="22.043999999999997" y="1.67" class="c">290</text><text x="26.052" y="1.67" class="c">done</text><text x="31.061999999999998" y="1.67" class="c">(41/s)</text><text x="38.07599999999999" y="1.67" class="c">|</text><text x="40.08" y="1.67" class="c">7.1s</text></svg><svg x="5500"><use xlink:href="#a"></use><text x="0" y="1.67" class="c">⠸</text><text x="2.004" y="1.67" class="c">Walking</text><text x="10.02" y="1.67" class="c">directories</text><text x="22.043999999999997" y="1.67" class="c">293</text><text x="26.052" y="1.67" class="c">done</text><text x="31.061999999999998" y="1.67" class="c">(40/s)</text><text x="38.07599999999999" y="1.67" class="c">|</text><text x="40.08" y="1.67" class="c">7.3s</text></svg><svg x="5600"><use xlink:href="#a"></use><text x="0" y="1.67" class="c">⠼</text><text x="2.004" y="1.67" class="c">Walking</text><text x="10.02" y="1.67" class="c">directories</text><text x="22.043999999999997" y="1.67" class="c">296</text><text x="26.052" y="1.67" class="c">done</text><text x="31.061999999999998" y="1.67" class="c">(40/s)</text><text x="38.07599999999999" y="1.67" class="c">|</text><text x="40.08" y="1.67" class="c">7.4s</text></svg><svg x="5700"><use xlink:href="#a"></use><text x="0" y="1.67" class="c">⠴</text><text x="2.004" y="1.67" class="c">Walking</text><text x="10.02" y="1.67" class="c">directories</text><text x="22.043999999999997" y="1.67" class="c">307</text><text x="26.052" y="1.67" class="c">done</text><text x="31.061999999999998" y="1.67" class="c">(40/s)</text><text x="38.07599999999999" y="1.67" class="c">|</text><text x="40.08" y="1.67" class="c">7.6s</text></svg><svg x="5800"><use xlink:href="#a"></use><text x="0" y="1.67" class="c">⠦</text><text x="2.004" y="1.67" class="c">Walking</text><text x="10.02" y="1.67" class="c">directories</text><text x="22.043999999999997" y="1.67" class="c">309</text><text x="26.052" y="1.67" class="c">done</text><text x="31.061999999999998" y="1.67" class="c">(40/s)</text><text x="38.07599999999999" y="1.67" class="c">|</text><text x="40.08" y="1.67" class="c">7.8s</text></svg><svg x="5900"><use xlink:href="#a"></use><text x="0" y="1.67" class="c">⠧</text><text x="2.004" y="1.67" class="c">Walking</text><text x="10.02" y="1.67" class="c">directories</text><text x="22.043999999999997" y="1.67" class="c">313</text><text x="26.052" y="1.67" class="c">done</text><text x="31.061999999999998" y="1.67" class="c">(39/s)</text><text x="38.07599999999999" y="1.67" class="c">|</text><text x="40.08" y="1.67" class="c">7.9s</text></svg><svg x="6000"><use xlink:href="#a"></use><text x="0" y="1.67" class="c">⠇</text><text x="2.004" y="1.67" class="c">Walking</text><text x="10.02" y="1.67" class="c">directories</text><text x="22.043999999999997" y="1.67" class="c">315</text><text x="26.052" y="1.67" class="c">done</text><text x="31.061999999999998" y="1.67" class="c">(39/s)</text><text x="38.07599999999999" y="1.67" class="c">|</text><text x="40.08" y="1.67" class="c">8s</text></svg><svg x="6100"><use xlink:href="#a"></use><text x="0" y="1.67" class="c">⠏</text><text x="2.004" y="1.67" class="c">Walking</text><text x="10.02" y="1.67" class="c">directories</text><text x="22.043999999999997" y="1.67" class="c">320</text><text x="26.052" y="1.67" class="c">done</text><text x="31.061999999999998" y="1.67" class="c">(39/s)</text><text x="38.07599999999999" y="1.67" class="c">|</text><text x="40.08" y="1.67" class="c">8.2s</text></svg><svg x="6200"><use xlink:href="#a"></use><text x="0" y="1.67" class="c">⠋</text><text x="2.004" y="1.67" class="c">Walking</text><text x="10.02" y="1.67" class="c">directories</text><text x="22.043999999999997" y="1.67" class="c">322</text><text x="26.052" y="1.67" class="c">done</text><text x="31.061999999999998" y="1.67" class="c">(39/s)</text><text x="38.07599999999999" y="1.67" class="c">|</text><text x="40.08" y="1.67" class="c">8.3s</text></svg><svg x="6300"><use xlink:href="#a"></use><text x="0" y="1.67" class="c">⠙</text><text x="2.004" y="1.67" class="c">Walking</text><text x="10.02" y="1.67" class="c">directories</text><text x="22.043999999999997" y="1.67" class="c">328</text><text x="26.052" y="1.67" class="c">done</text><text x="31.061999999999998" y="1.67" class="c">(38/s)</text><text x="38.07599999999999" y="1.67" class="c">|</text><text x="40.08" y="1.67" class="c">8.6s</text></svg><svg x="6400"><use xlink:href="#a"></use><text x="0" y="1.67" class="c">⠹</text><text x="2.004" y="1.67" class="c">Walking</text><text x="10.02" y="1.67" class="c">directories</text><text x="22.043999999999997" y="1.67" class="c">330</text><text x="26.052" y="1.67" class="c">done</text><text x="31.061999999999998" y="1.67" class="c">(38/s)</text><text x="38.07599999999999" y="1.67" class="c">|</text><text x="40.08" y="1.67" class="c">8.6s</text></svg><svg x="6500"><use xlink:href="#a"></use><text x="0" y="1.67" class="c">⠸</text><text x="2.004" y="1.67" class="c">Walking</text><text x="10.02" y="1.67" class="c">directories</text><text x="22.043999999999997" y="1.67" class="c">338</text><text x="26.052" y="1.67" class="c">done</text><text x="31.061999999999998" y="1.67" class="c">(38/s)</text><text x="38.07599999999999" y="1.67" class="c">|</text><text x="40.08" y="1.67" class="c">8.8s</text></svg><svg x="6600"><use xlink:href="#a"></use><text x="0" y="1.67" class="c">⠼</text><text x="2.004" y="1.67" class="c">Walking</text><text x="10.02" y="1.67" class="c">directories</text><text x="22.043999999999997" y="1.67" class="c">341</text><text x="26.052" y="1.67" class="c">done</text><text x="31.061999999999998" y="1.67" class="c">(38/s)</text><text x="38.07599999999999" y="1.67" class="c">|</text><text x="40.08" y="1.67" class="c">8.9s</text></svg><svg x="6700"><use xlink:href="#a"></use><text x="0" y="1.67" class="c">⠴</text><text x="2.004" y="1.67" class="c">Walking</text><text x="10.02" y="1.67" class="c">directories</text><text x="22.043999999999997" y="1.67" class="c">347</text><text x="26.052" y="1.67" class="c">done</text><text x="31.061999999999998" y="1.67" class="c">(38/s)</text><text x="38.07599999999999" y="1.67" class="c">|</text><text x="40.08" y="1.67" class="c">9s</text></svg><svg x="6800"><use xlink:href="#a"></use><text x="0" y="1.67" class="c">⠦</text><text x="2.004" y="1.67" class="c">Walking</text><text x="10.02" y="1.67" class="c">directories</text><text x="22.043999999999997" y="1.67" class="c">350</text><text x="26.052" y="1.67" class="c">done</text><text x="31.061999999999998" y="1.67" class="c">(38/s)</text><text x="38.07599999999999" y="1.67" class="c">|</text><text x="40.08" y="1.67" class="c">9.2s</text></svg><svg x="6900"><use xlink:href="#a"></use><text x="0" y="1.67" class="c">⠧</text><text x="2.004" y="1.67" class="c">Walking</text><text x="10.02" y="1.67" class="c">directories</text><text x="22.043999999999997" y="1.67" class="c">356</text><text x="26.052" y="1.67" class="c">done</text><text x="31.061999999999998" y="1.67" class="c">(38/s)</text><text x="38.07599999999999" y="1.67" class="c">|</text><text x="40.08" y="1.67" class="c">9.4s</text></svg><svg x="7000"><use xlink:href="#a"></use><text x="0" y="1.67" class="c">⠇</text><text x="2.004" y="1.67" class="c">Walking</text><text x="10.02" y="1.67" class="c">directories</text><text x="22.043999999999997" y="1.67" class="c">360</text><text x="26.052" y="1.67" class="c">done</text><text x="31.061999999999998" y="1.67" class="c">(38/s)</text><text x="38.07599999999999" y="1.67" class="c">|</text><text x="40.08" y="1.67" class="c">9.5s</text></svg><svg x="7100"><use xlink:href="#a"></use><text x="0" y="1.67" class="c">⠏</text><text x="2.004" y="1.67" class="c">Walking</text><text x="10.02" y="1.67" class="c">directories</text><text x="22.043999999999997" y="1.67" class="c">361</text><text x="26.052" y="1.67" class="c">done</text><text x="31.061999999999998" y="1.67" class="c">(38/s)</text><text x="38.07599999999999" y="1.67" class="c">|</text><text x="40.08" y="1.67" class="c">9.6s</text></svg><svg x="7200"><use xlink:href="#a"></use><text x="0" y="1.67" class="c">⠋</text><text x="2.004" y="1.67" class="c">Walking</text><text x="10.02" y="1.67" class="c">directories</text><text x="22.043999999999997" y="1.67" class="c">370</text><text x="26.052" y="1.67" class="c">done</text><text x="31.061999999999998" y="1.67" class="c">(38/s)</text><text x="38.07599999999999" y="1.67" class="c">|</text><text x="40.08" y="1.67" class="c">9.7s</text></svg><svg x="7300"><use xlink:href="#a"></use><text x="0" y="1.67" class="c">⠙</text><text x="2.004" y="1.67" class="c">Walking</text><text x="10.02" y="1.67" class="c">directories</text><text x="22.043999999999997" y="1.67" class="c">385</text><text x="26.052" y="1.67" class="c">done</text><text x="31.061999999999998" y="1.67" class="c">(39/s)</text><text x="38.07599999999999" y="1.67" class="c">|</text><text x="40.08" y="1.67" class="c">9.9s</text></svg><svg x="7400"><use xlink:href="#a"></use><text x="0" y="1.67" class="c">⠹</text><text x="2.004" y="1.67" class="c">Walking</text><text x="10.02" y="1.67" class="c">directories</text><text x="22.043999999999997" y="1.67" class="c">388</text><text x="26.052" y="1.67" class="c">done</text><text x="31.061999999999998" y="1.67" class="c">(39/s)</text><text x="38.07599999999999" y="1.67" class="c">|</text><text x="40.08" y="1.67" class="c">10.1s</text></svg><svg x="7500"><use xlink:href="#a"></use><text x="0" y="1.67" class="c">⠸</text><text x="2.004" y="1.67" class="c">Walking</text><text x="10.02" y="1.67" class="c">directories</text><text x="22.043999999999997" y="1.67" class="c">392</text><text x="26.052" y="1.67" class="c">done</text><text x="31.061999999999998" y="1.67" class="c">(39/s)</text><text x="38.07599999999999" y="1.67" class="c">|</text><text x="40.08" y="1.67" class="c">10.2s</text></svg><svg x="7600"><use xlink:href="#a"></use><text x="0" y="1.67" class="c">⠼</text><text x="2.004" y="1.67" class="c">Walking</text><text x="10.02" y="1.67" class="c">directories</text><text x="22.043999999999997" y="1.67" class="c">394</text><text x="26.052" y="1.67" class="c">done</text><text x="31.061999999999998" y="1.67" class="c">(38/s)</text><text x="38.07599999999999" y="1.67" class="c">|</text><text x="40.08" y="1.67" class="c">10.3s</text></svg><svg x="7700"><use xlink:href="#a"></use><text x="0" y="1.67" class="c">⠴</text><text x="2.004" y="1.67" class="c">Walking</text><text x="10.02" y="1.67" class="c">directories</text><text x="22.043999999999997" y="1.67" class="c">398</text><text x="26.052" y="1.67" class="c">done</text><text x="31.061999999999998" y="1.67" class="c">(38/s)</text><text x="38.07599999999999" y="1.67" class="c">|</text><text x="40.08" y="1.67" class="c">10.4s</text></svg><svg x="7800"><use xlink:href="#a"></use><text x="0" y="1.67" class="c">⠦</text><text x="2.004" y="1.67" class="c">Walking</text><text x="10.02" y="1.67" class="c">directories</text><text x="22.043999999999997" y="1.67" class="c">401</text><text x="26.052" y="1.67" class="c">done</text><text x="31.061999999999998" y="1.67" class="c">(38/s)</text><text x="38.07599999999999" y="1.67" class="c">|</text><text x="40.08" y="1.67" class="c">10.6s</text></svg><svg x="7900"><use xlink:href="#a"></use><text x="0" y="1.67" class="c">⠧</text><text x="2.004" y="1.67" class="c">Walking</text><text x="10.02" y="1.67" class="c">directories</text><text x="22.043999999999997" y="1.67" class="c">405</text><text x="26.052" y="1.67" class="c">done</text><text x="31.061999999999998" y="1.67" class="c">(38/s)</text><text x="38.07599999999999" y="1.67" class="c">|</text><text x="40.08" y="1.67" class="c">10.6s</text></svg><svg x="8000"><use xlink:href="#a"></use><text x="0" y="1.67" class="c">⠇</text><text x="2.004" y="1.67" class="c">Walking</text><text x="10.02" y="1.67" class="c">directories</text><text x="22.043999999999997" y="1.67" class="c">408</text><text x="26.052" y="1.67" class="c">done</text><text x="31.061999999999998" y="1.67" class="c">(38/s)</text><text x="38.07599999999999" y="1.67" class="c">|</text><text x="40.08" y="1.67" class="c">10.8s</text></svg><svg x="8100"><use xlink:href="#a"></use><text x="0" y="1.67" class="c">⠏</text><text x="2.004" y="1.67" class="c">Walking</text><text x="10.02" y="1.67" class="c">directories</text><text x="22.043999999999997" y="1.67" class="c">415</text><text x="26.052" y="1.67" class="c">done</text><text x="31.061999999999998" y="1.67" class="c">(38/s)</text><text x="38.07599999999999" y="1.67" class="c">|</text><text x="40.08" y="1.67" class="c">10.9s</text></svg><svg x="8200"><use xlink:href="#a"></use><text x="0" y="1.67" class="c">⠋</text><text x="2.004" y="1.67" class="c">Walking</text><text x="10.02" y="1.67" class="c">directories</text><text x="22.043999999999997" y="1.67" class="c">419</text><text x="26.052" y="1.67" class="c">done</text><text x="31.061999999999998" y="1.67" class="c">(38/s)</text><text x="38.07599999999999" y="1.67" class="c">|</text><text x="40.08" y="1.67" class="c">11s</text></svg><svg x="8300"><use xlink:href="#a"></use><text x="0" y="1.67" class="c">⠙</text><text x="2.004" y="1.67" class="c">Walking</text><text x="10.02" y="1.67" class="c">directories</text><text x="22.043999999999997" y="1.67" class="c">427</text><text x="26.052" y="1.67" class="c">done</text><text x="31.061999999999998" y="1.67" class="c">(39/s)</text><text x="38.07599999999999" y="1.67" class="c">|</text><text x="40.08" y="1.67" class="c">11.1s</text></svg><svg x="8400"><use xlink:href="#a"></use><text x="0" y="1.67" class="c">⠹</text><text x="2.004" y="1.67" class="c">Walking</text><text x="10.02" y="1.67" class="c">directories</text><text x="22.043999999999997" y="1.67" class="c">435</text><text x="26.052" y="1.67" class="c">done</text><text x="31.061999999999998" y="1.67" class="c">(39/s)</text><text x="38.07599999999999" y="1.67" class="c">|</text><text x="40.08" y="1.67" class="c">11.3s</text></svg><svg x="8500"><use xlink:href="#a"></use><text x="0" y="1.67" class="c">⠸</text><text x="2.004" y="1.67" class="c">Walking</text><text x="10.02" y="1.67" class="c">directories</text><text x="22.043999999999997" y="1.67" class="c">441</text><text x="26.052" y="1.67" class="c">done</text><text x="31.061999999999998" y="1.67" class="c">(39/s)</text><text x="38.07599999999999" y="1.67" class="c">|</text><text x="40.08" y="1.67" class="c">11.4s</text></svg><svg x="8600"><use xlink:href="#a"></use><text x="0" y="1.67" class="c">⠼</text><text x="2.004" y="1.67" class="c">Walking</text><text x="10.02" y="1.67" class="c">directories</text><text x="22.043999999999997" y="1.67" class="c">447</text><text x="26.052" y="1.67" class="c">done</text><text x="31.061999999999998" y="1.67" class="c">(38/s)</text><text x="38.07599999999999" y="1.67" class="c">|</text><text x="40.08" y="1.67" class="c">11.6s</text></svg><svg x="8700"><use xlink:href="#a"></use><text x="0" y="1.67" class="c">⠴</text><text x="2.004" y="1.67" class="c">Walking</text><text x="10.02" y="1.67" class="c">directories</text><text x="22.043999999999997" y="1.67" class="c">462</text><text x="26.052" y="1.67" class="c">done</text><text x="31.061999999999998" y="1.67" class="c">(39/s)</text><text x="38.07599999999999" y="1.67" class="c">|</text><text x="40.08" y="1.67" class="c">11.9s</text></svg><svg x="8800"><use xlink:href="#a"></use><use xlink:href="#1" y="0"></use></svg><svg x="8900"><use xlink:href="#a"></use><use xlink:href="#1" y="0"></use></svg><svg x="9000"><use xlink:href="#a"></use><use xlink:href="#1" y="0"></use></svg><svg x="9100"><use xlink:href="#a"></use><use xlink:href="#1" y="0"></use></svg></svg></g></g></svg></svg>