<svg xmlns="http://www.w3.org/2000/svg" xmlns:xlink="http://www.w3.org/1999/xlink" width="1040" height="61.709999999999994"><rect width="1040" height="61.709999999999994" rx="0" ry="0" class="a"></rect><svg height="21.709999999999997" viewBox="0 0 100 2.171" width="1000" x="20" xmlns="http://www.w3.org/2000/svg" xmlns:xlink="http://www.w3.org/1999/xlink" y="20"><style>.a{fill:rgb(40,45,53)}.b{font-family:'Fira Code',Monaco,Consolas,Menlo,'Bitstream Vera Sans Mono','Powerline Symbols',monospace}.c{fill:rgb(185,192,203);white-space:pre}.d{fill:rgb(168,204,140);white-space:pre}.e{fill:transparent}.g{animation-duration:15.3483221530914s;animation-iteration-count:infinite;animation-name:f;animation-timing-function:steps(1,end)}@keyframes f{0%{transform:translateX(-0px)}0.1%{transform:translateX(-100px)}0.9%{transform:translateX(-200px)}1%{transform:translateX(-300px)}2.3%{transform:translateX(-400px)}3.6%{transform:translateX(-500px)}4.9%{transform:translateX(-600px)}6.3%{transform:translateX(-700px)}7.6%{transform:translateX(-800px)}8.9%{transform:translateX(-900px)}10.2%{transform:translateX(-1000px)}11.6%{transform:translateX(-1100px)}12.9%{transform:translateX(-1200px)}14.2%{transform:translateX(-1300px)}15.5%{transform:translateX(-1400px)}16.9%{transform:translateX(-1500px)}18.1%{transform:translateX(-1600px)}19.5%{transform:translateX(-1700px)}20.8%{transform:translateX(-1800px)}22.1%{transform:translateX(-1900px)}23.4%{transform:translateX(-2000px)}24.7%{transform:translateX(-2100px)}26%{transform:translateX(-2200px)}27.6%{transform:translateX(-2300px)}28.7%{transform:translateX(-2400px)}30%{transform:translateX(-2500px)}31.3%{transform:translateX(-2600px)}32.7%{transform:translateX(-2700px)}34%{transform:translateX(-2800px)}35.3%{transform:translateX(-2900px)}36.6%{transform:translateX(-3000px)}37.9%{transform:translateX(-3100px)}39.2%{transform:translateX(-3200px)}40.5%{transform:translateX(-3300px)}41.9%{transform:translateX(-3400px)}43.2%{transform:translateX(-3500px)}44.5%{transform:translateX(-3600px)}45.8%{transform:translateX(-3700px)}47.1%{transform:translateX(-3800px)}48.4%{transform:translateX(-3900px)}49.8%{transform:translateX(-4000px)}51.1%{transform:translateX(-4100px)}52.4%{transform:translateX(-4200px)}53.7%{transform:translateX(-4300px)}55%{transform:translateX(-4400px)}56.4%{transform:translateX(-4500px)}57.7%{transform:translateX(-4600px)}59%{transform:translateX(-4700px)}60.3%{transform:translateX(-4800px)}61.6%{transform:translateX(-4900px)}62.9%{transform:translateX(-5000px)}64.2%{transform:translateX(-5100px)}65.5%{transform:translateX(-5200px)}66.9%{transform:translateX(-5300px)}68.2%{transform:translateX(-5400px)}69.5%{transform:translateX(-5500px)}70.9%{transform:translateX(-5600px)}72.2%{transform:translateX(-5700px)}73.5%{transform:translateX(-5800px)}74.8%{transform:translateX(-5900px)}76.1%{transform:translateX(-6000px)}77.4%{transform:translateX(-6100px)}78.8%{transform:translateX(-6200px)}79.8%{transform:translateX(-6300px)}79.8%{transform:translateX(-6400px)}100%{transform:translateX(-6500px)}}</style><g font-family="&#x27;Fira Code&#x27;,Monaco,Consolas,Menlo,&#x27;Bitstream Vera Sans Mono&#x27;,&#x27;Powerline Symbols&#x27;,monospace" font-size="1.67" class="b"><defs><symbol id="1"><text x="0" y="1.67" class="c">Step</text><text x="5.01" y="1.67" class="c">2</text><text x="7.013999999999999" y="1.67" class="c">|</text><text x="9.017999999999999" y="1.67" class="d">■■■■■■■■■■■■■■■■■■■■■■■■■■■■■■■</text><text x="42.083999999999996" y="1.67" class="c">100%</text></symbol><symbol id="a"><rect height="2" width="100" x="0" y="0" class="e"></rect></symbol></defs><rect height="2.171" width="100" class="a"></rect><g class="g"><svg x="0" y="0" width="6600"><svg x="0"><use xlink:href="#a"></use></svg><svg x="100"><use xlink:href="#a"></use></svg><svg x="200"><use xlink:href="#a"></use></svg><svg x="300"><use xlink:href="#a"></use><text x="0" y="1.67" class="c">Step</text><text x="5.01" y="1.67" class="c">1</text><text x="7.013999999999999" y="1.67" class="c">|</text><text x="9.017999999999999" y="1.67" class="d">■</text><text x="44.087999999999994" y="1.67" class="c">0%</text></svg><svg x="400"><use xlink:href="#a"></use><text x="0" y="1.67" class="c">Step</text><text x="5.01" y="1.67" class="c">1</text><text x="7.013999999999999" y="1.67" class="c">|</text><text x="9.017999999999999" y="1.67" class="d">■■</text><text x="44.087999999999994" y="1.67" class="c">2%</text></svg><svg x="500"><use xlink:href="#a"></use><text x="0" y="1.67" class="c">Step</text><text x="5.01" y="1.67" class="c">1</text><text x="7.013999999999999" y="1.67" class="c">|</text><text x="9.017999999999999" y="1.67" class="d">■■</text><text x="44.087999999999994" y="1.67" class="c">3%</text></svg><svg x="600"><use xlink:href="#a"></use><text x="0" y="1.67" class="c">Step</text><text x="5.01" y="1.67" class="c">1</text><text x="7.013999999999999" y="1.67" class="c">|</text><text x="9.017999999999999" y="1.67" class="d">■■■</text><text x="44.087999999999994" y="1.67" class="c">5%</text></svg><svg x="700"><use xlink:href="#a"></use><text x="0" y="1.67" class="c">Step</text><text x="5.01" y="1.67" class="c">1</text><text x="7.013999999999999" y="1.67" class="c">|</text><text x="9.017999999999999" y="1.67" class="d">■■■</text><text x="44.087999999999994" y="1.67" class="c">7%</text></svg><svg x="800"><use xlink:href="#a"></use><text x="0" y="1.67" class="c">Step</text><text x="5.01" y="1.67" class="c">1</text><text x="7.013999999999999" y="1.67" class="c">|</text><text x="9.017999999999999" y="1.67" class="d">■■■■</text><text x="44.087999999999994" y="1.67" class="c">8%</text></svg><svg x="900"><use xlink:href="#a"></use><text x="0" y="1.67" class="c">Step</text><text x="5.01" y="1.67" class="c">1</text><text x="7.013999999999999" y="1.67" class="c">|</text><text x="9.017999999999999" y="1.67" class="d">■■■■</text><text x="43.086" y="1.67" class="c">10%</text></svg><svg x="1000"><use xlink:href="#a"></use><text x="0" y="1.67" class="c">Step</text><text x="5.01" y="1.67" class="c">1</text><text x="7.013999999999999" y="1.67" class="c">|</text><text x="9.017999999999999" y="1.67" class="d">■■■■■</text><text x="43.086" y="1.67" class="c">12%</text></svg><svg x="1100"><use xlink:href="#a"></use><text x="0" y="1.67" class="c">Step</text><text x="5.01" y="1.67" class="c">1</text><text x="7.013999999999999" y="1.67" class="c">|</text><text x="9.017999999999999" y="1.67" class="d">■■■■■</text><text x="43.086" y="1.67" class="c">13%</text></svg><svg x="1200"><use xlink:href="#a"></use><text x="0" y="1.67" class="c">Step</text><text x="5.01" y="1.67" class="c">1</text><text x="7.013999999999999" y="1.67" class="c">|</text><text x="9.017999999999999" y="1.67" class="d">■■■■■■</text><text x="43.086" y="1.67" class="c">15%</text></svg><svg x="1300"><use xlink:href="#a"></use><text x="0" y="1.67" class="c">Step</text><text x="5.01" y="1.67" class="c">1</text><text x="7.013999999999999" y="1.67" class="c">|</text><text x="9.017999999999999" y="1.67" class="d">■■■■■■</text><text x="43.086" y="1.67" class="c">17%</text></svg><svg x="1400"><use xlink:href="#a"></use><text x="0" y="1.67" class="c">Step</text><text x="5.01" y="1.67" class="c">1</text><text x="7.013999999999999" y="1.67" class="c">|</text><text x="9.017999999999999" y="1.67" class="d">■■■■■■■</text><text x="43.086" y="1.67" class="c">18%</text></svg><svg x="1500"><use xlink:href="#a"></use><text x="0" y="1.67" class="c">Step</text><text x="5.01" y="1.67" class="c">1</text><text x="7.013999999999999" y="1.67" class="c">|</text><text x="9.017999999999999" y="1.67" class="d">■■■■■■■</text><text x="43.086" y="1.67" class="c">20%</text></svg><svg x="1600"><use xlink:href="#a"></use><text x="0" y="1.67" class="c">Step</text><text x="5.01" y="1.67" class="c">1</text><text x="7.013999999999999" y="1.67" class="c">|</text><text x="9.017999999999999" y="1.67" class="d">■■■■■■■■</text><text x="43.086" y="1.67" class="c">22%</text></svg><svg x="1700"><use xlink:href="#a"></use><text x="0" y="1.67" class="c">Step</text><text x="5.01" y="1.67" class="c">1</text><text x="7.013999999999999" y="1.67" class="c">|</text><text x="9.017999999999999" y="1.67" class="d">■■■■■■■■</text><text x="43.086" y="1.67" class="c">24%</text></svg><svg x="1800"><use xlink:href="#a"></use><text x="0" y="1.67" class="c">Step</text><text x="5.01" y="1.67" class="c">1</text><text x="7.013999999999999" y="1.67" class="c">|</text><text x="9.017999999999999" y="1.67" class="d">■■■■■■■■■</text><text x="43.086" y="1.67" class="c">25%</text></svg><svg x="1900"><use xlink:href="#a"></use><text x="0" y="1.67" class="c">Step</text><text x="5.01" y="1.67" class="c">1</text><text x="7.013999999999999" y="1.67" class="c">|</text><text x="9.017999999999999" y="1.67" class="d">■■■■■■■■■</text><text x="43.086" y="1.67" class="c">27%</text></svg><svg x="2000"><use xlink:href="#a"></use><text x="0" y="1.67" class="c">Step</text><text x="5.01" y="1.67" class="c">1</text><text x="7.013999999999999" y="1.67" class="c">|</text><text x="9.017999999999999" y="1.67" class="d">■■■■■■■■■■</text><text x="43.086" y="1.67" class="c">29%</text></svg><svg x="2100"><use xlink:href="#a"></use><text x="0" y="1.67" class="c">Step</text><text x="5.01" y="1.67" class="c">1</text><text x="7.013999999999999" y="1.67" class="c">|</text><text x="9.017999999999999" y="1.67" class="d">■■■■■■■■■■</text><text x="43.086" y="1.67" class="c">30%</text></svg><svg x="2200"><use xlink:href="#a"></use><text x="0" y="1.67" class="c">Step</text><text x="5.01" y="1.67" class="c">1</text><text x="7.013999999999999" y="1.67" class="c">|</text><text x="9.017999999999999" y="1.67" class="d">■■■■■■■■■■■</text><text x="43.086" y="1.67" class="c">32%</text></svg><svg x="2300"><use xlink:href="#a"></use><text x="0" y="1.67" class="c">Step</text><text x="5.01" y="1.67" class="c">1</text><text x="7.013999999999999" y="1.67" class="c">|</text><text x="9.017999999999999" y="1.67" class="d">■■■■■■■■■■■</text><text x="43.086" y="1.67" class="c">34%</text></svg><svg x="2400"><use xlink:href="#a"></use><text x="0" y="1.67" class="c">Step</text><text x="5.01" y="1.67" class="c">1</text><text x="7.013999999999999" y="1.67" class="c">|</text><text x="9.017999999999999" y="1.67" class="d">■■■■■■■■■■■■</text><text x="43.086" y="1.67" class="c">35%</text></svg><svg x="2500"><use xlink:href="#a"></use><text x="0" y="1.67" class="c">Step</text><text x="5.01" y="1.67" class="c">1</text><text x="7.013999999999999" y="1.67" class="c">|</text><text x="9.017999999999999" y="1.67" class="d">■■■■■■■■■■■■</text><text x="43.086" y="1.67" class="c">37%</text></svg><svg x="2600"><use xlink:href="#a"></use><text x="0" y="1.67" class="c">Step</text><text x="5.01" y="1.67" class="c">1</text><text x="7.013999999999999" y="1.67" class="c">|</text><text x="9.017999999999999" y="1.67" class="d">■■■■■■■■■■■■■</text><text x="43.086" y="1.67" class="c">39%</text></svg><svg x="2700"><use xlink:href="#a"></use><text x="0" y="1.67" class="c">Step</text><text x="5.01" y="1.67" class="c">1</text><text x="7.013999999999999" y="1.67" class="c">|</text><text x="9.017999999999999" y="1.67" class="d">■■■■■■■■■■■■■</text><text x="43.086" y="1.67" class="c">40%</text></svg><svg x="2800"><use xlink:href="#a"></use><text x="0" y="1.67" class="c">Step</text><text x="5.01" y="1.67" class="c">1</text><text x="7.013999999999999" y="1.67" class="c">|</text><text x="9.017999999999999" y="1.67" class="d">■■■■■■■■■■■■■■</text><text x="43.086" y="1.67" class="c">42%</text></svg><svg x="2900"><use xlink:href="#a"></use><text x="0" y="1.67" class="c">Step</text><text x="5.01" y="1.67" class="c">1</text><text x="7.013999999999999" y="1.67" class="c">|</text><text x="9.017999999999999" y="1.67" class="d">■■■■■■■■■■■■■■</text><text x="43.086" y="1.67" class="c">44%</text></svg><svg x="3000"><use xlink:href="#a"></use><text x="0" y="1.67" class="c">Step</text><text x="5.01" y="1.67" class="c">1</text><text x="7.013999999999999" y="1.67" class="c">|</text><text x="9.017999999999999" y="1.67" class="d">■■■■■■■■■■■■■■■</text><text x="43.086" y="1.67" class="c">45%</text></svg><svg x="3100"><use xlink:href="#a"></use><text x="0" y="1.67" class="c">Step</text><text x="5.01" y="1.67" class="c">1</text><text x="7.013999999999999" y="1.67" class="c">|</text><text x="9.017999999999999" y="1.67" class="d">■■■■■■■■■■■■■■■</text><text x="43.086" y="1.67" class="c">47%</text></svg><svg x="3200"><use xlink:href="#a"></use><text x="0" y="1.67" class="c">Step</text><text x="5.01" y="1.67" class="c">1</text><text x="7.013999999999999" y="1.67" class="c">|</text><text x="9.017999999999999" y="1.67" class="d">■■■■■■■■■■■■■■■■</text><text x="43.086" y="1.67" class="c">49%</text></svg><svg x="3300"><use xlink:href="#a"></use><text x="0" y="1.67" class="c">Step</text><text x="5.01" y="1.67" class="c">2</text><text x="7.013999999999999" y="1.67" class="c">|</text><text x="9.017999999999999" y="1.67" class="d">■■■■■■■■■■■■■■■■</text><text x="43.086" y="1.67" class="c">50%</text></svg><svg x="3400"><use xlink:href="#a"></use><text x="0" y="1.67" class="c">Step</text><text x="5.01" y="1.67" class="c">2</text><text x="7.013999999999999" y="1.67" class="c">|</text><text x="9.017999999999999" y="1.67" class="d">■■■■■■■■■■■■■■■■■</text><text x="43.086" y="1.67" class="c">52%</text></svg><svg x="3500"><use xlink:href="#a"></use><text x="0" y="1.67" class="c">Step</text><text x="5.01" y="1.67" class="c">2</text><text x="7.013999999999999" y="1.67" class="c">|</text><text x="9.017999999999999" y="1.67" class="d">■■■■■■■■■■■■■■■■■</text><text x="43.086" y="1.67" class="c">54%</text></svg><svg x="3600"><use xlink:href="#a"></use><text x="0" y="1.67" class="c">Step</text><text x="5.01" y="1.67" class="c">2</text><text x="7.013999999999999" y="1.67" class="c">|</text><text x="9.017999999999999" y="1.67" class="d">■■■■■■■■■■■■■■■■■■</text><text x="43.086" y="1.67" class="c">55%</text></svg><svg x="3700"><use xlink:href="#a"></use><text x="0" y="1.67" class="c">Step</text><text x="5.01" y="1.67" class="c">2</text><text x="7.013999999999999" y="1.67" class="c">|</text><text x="9.017999999999999" y="1.67" class="d">■■■■■■■■■■■■■■■■■■</text><text x="43.086" y="1.67" class="c">57%</text></svg><svg x="3800"><use xlink:href="#a"></use><text x="0" y="1.67" class="c">Step</text><text x="5.01" y="1.67" class="c">2</text><text x="7.013999999999999" y="1.67" class="c">|</text><text x="9.017999999999999" y="1.67" class="d">■■■■■■■■■■■■■■■■■■■</text><text x="43.086" y="1.67" class="c">59%</text></svg><svg x="3900"><use xlink:href="#a"></use><text x="0" y="1.67" class="c">Step</text><text x="5.01" y="1.67" class="c">2</text><text x="7.013999999999999" y="1.67" class="c">|</text><text x="9.017999999999999" y="1.67" class="d">■■■■■■■■■■■■■■■■■■■</text><text x="43.086" y="1.67" class="c">60%</text></svg><svg x="4000"><use xlink:href="#a"></use><text x="0" y="1.67" class="c">Step</text><text x="5.01" y="1.67" class="c">2</text><text x="7.013999999999999" y="1.67" class="c">|</text><text x="9.017999999999999" y="1.67" class="d">■■■■■■■■■■■■■■■■■■■■</text><text x="43.086" y="1.67" class="c">62%</text></svg><svg x="4100"><use xlink:href="#a"></use><text x="0" y="1.67" class="c">Step</text><text x="5.01" y="1.67" class="c">2</text><text x="7.013999999999999" y="1.67" class="c">|</text><text x="9.017999999999999" y="1.67" class="d">■■■■■■■■■■■■■■■■■■■■</text><text x="43.086" y="1.67" class="c">64%</text></svg><svg x="4200"><use xlink:href="#a"></use><text x="0" y="1.67" class="c">Step</text><text x="5.01" y="1.67" class="c">2</text><text x="7.013999999999999" y="1.67" class="c">|</text><text x="9.017999999999999" y="1.67" class="d">■■■■■■■■■■■■■■■■■■■■■</text><text x="43.086" y="1.67" class="c">65%</text></svg><svg x="4300"><use xlink:href="#a"></use><text x="0" y="1.67" class="c">Step</text><text x="5.01" y="1.67" class="c">2</text><text x="7.013999999999999" y="1.67" class="c">|</text><text x="9.017999999999999" y="1.67" class="d">■■■■■■■■■■■■■■■■■■■■■</text><text x="43.086" y="1.67" class="c">67%</text></svg><svg x="4400"><use xlink:href="#a"></use><text x="0" y="1.67" class="c">Step</text><text x="5.01" y="1.67" class="c">2</text><text x="7.013999999999999" y="1.67" class="c">|</text><text x="9.017999999999999" y="1.67" class="d">■■■■■■■■■■■■■■■■■■■■■■</text><text x="43.086" y="1.67" class="c">69%</text></svg><svg x="4500"><use xlink:href="#a"></use><text x="0" y="1.67" class="c">Step</text><text x="5.01" y="1.67" class="c">2</text><text x="7.013999999999999" y="1.67" class="c">|</text><text x="9.017999999999999" y="1.67" class="d">■■■■■■■■■■■■■■■■■■■■■■</text><text x="43.086" y="1.67" class="c">70%</text></svg><svg x="4600"><use xlink:href="#a"></use><text x="0" y="1.67" class="c">Step</text><text x="5.01" y="1.67" class="c">2</text><text x="7.013999999999999" y="1.67" class="c">|</text><text x="9.017999999999999" y="1.67" class="d">■■■■■■■■■■■■■■■■■■■■■■■</text><text x="43.086" y="1.67" class="c">72%</text></svg><svg x="4700"><use xlink:href="#a"></use><text x="0" y="1.67" class="c">Step</text><text x="5.01" y="1.67" class="c">2</text><text x="7.013999999999999" y="1.67" class="c">|</text><text x="9.017999999999999" y="1.67" class="d">■■■■■■■■■■■■■■■■■■■■■■■</text><text x="43.086" y="1.67" class="c">74%</text></svg><svg x="4800"><use xlink:href="#a"></use><text x="0" y="1.67" class="c">Step</text><text x="5.01" y="1.67" class="c">2</text><text x="7.013999999999999" y="1.67" class="c">|</text><text x="9.017999999999999" y="1.67" class="d">■■■■■■■■■■■■■■■■■■■■■■■■</text><text x="43.086" y="1.67" class="c">75%</text></svg><svg x="4900"><use xlink:href="#a"></use><text x="0" y="1.67" class="c">Step</text><text x="5.01" y="1.67" class="c">2</text><text x="7.013999999999999" y="1.67" class="c">|</text><text x="9.017999999999999" y="1.67" class="d">■■■■■■■■■■■■■■■■■■■■■■■■</text><text x="43.086" y="1.67" class="c">77%</text></svg><svg x="5000"><use xlink:href="#a"></use><text x="0" y="1.67" class="c">Step</text><text x="5.01" y="1.67" class="c">2</text><text x="7.013999999999999" y="1.67" class="c">|</text><text x="9.017999999999999" y="1.67" class="d">■■■■■■■■■■■■■■■■■■■■■■■■■</text><text x="43.086" y="1.67" class="c">79%</text></svg><svg x="5100"><use xlink:href="#a"></use><text x="0" y="1.67" class="c">Step</text><text x="5.01" y="1.67" class="c">2</text><text x="7.013999999999999" y="1.67" class="c">|</text><text x="9.017999999999999" y="1.67" class="d">■■■■■■■■■■■■■■■■■■■■■■■■■</text><text x="43.086" y="1.67" class="c">80%</text></svg><svg x="5200"><use xlink:href="#a"></use><text x="0" y="1.67" class="c">Step</text><text x="5.01" y="1.67" class="c">2</text><text x="7.013999999999999" y="1.67" class="c">|</text><text x="9.017999999999999" y="1.67" class="d">■■■■■■■■■■■■■■■■■■■■■■■■■■</text><text x="43.086" y="1.67" class="c">82%</text></svg><svg x="5300"><use xlink:href="#a"></use><text x="0" y="1.67" class="c">Step</text><text x="5.01" y="1.67" class="c">2</text><text x="7.013999999999999" y="1.67" class="c">|</text><text x="9.017999999999999" y="1.67" class="d">■■■■■■■■■■■■■■■■■■■■■■■■■■</text><text x="43.086" y="1.67" class="c">84%</text></svg><svg x="5400"><use xlink:href="#a"></use><text x="0" y="1.67" class="c">Step</text><text x="5.01" y="1.67" class="c">2</text><text x="7.013999999999999" y="1.67" class="c">|</text><text x="9.017999999999999" y="1.67" class="d">■■■■■■■■■■■■■■■■■■■■■■■■■■■</text><text x="43.086" y="1.67" class="c">85%</text></svg><svg x="5500"><use xlink:href="#a"></use><text x="0" y="1.67" class="c">Step</text><text x="5.01" y="1.67" class="c">2</text><text x="7.013999999999999" y="1.67" class="c">|</text><text x="9.017999999999999" y="1.67" class="d">■■■■■■■■■■■■■■■■■■■■■■■■■■■</text><text x="43.086" y="1.67" class="c">87%</text></svg><svg x="5600"><use xlink:href="#a"></use><text x="0" y="1.67" class="c">Step</text><text x="5.01" y="1.67" class="c">2</text><text x="7.013999999999999" y="1.67" class="c">|</text><text x="9.017999999999999" y="1.67" class="d">■■■■■■■■■■■■■■■■■■■■■■■■■■■■</text><text x="43.086" y="1.67" class="c">89%</text></svg><svg x="5700"><use xlink:href="#a"></use><text x="0" y="1.67" class="c">Step</text><text x="5.01" y="1.67" class="c">2</text><text x="7.013999999999999" y="1.67" class="c">|</text><text x="9.017999999999999" y="1.67" class="d">■■■■■■■■■■■■■■■■■■■■■■■■■■■■</text><text x="43.086" y="1.67" class="c">91%</text></svg><svg x="5800"><use xlink:href="#a"></use><text x="0" y="1.67" class="c">Step</text><text x="5.01" y="1.67" class="c">2</text><text x="7.013999999999999" y="1.67" class="c">|</text><text x="9.017999999999999" y="1.67" class="d">■■■■■■■■■■■■■■■■■■■■■■■■■■■■■</text><text x="43.086" y="1.67" class="c">92%</text></svg><svg x="5900"><use xlink:href="#a"></use><text x="0" y="1.67" class="c">Step</text><text x="5.01" y="1.67" class="c">2</text><text x="7.013999999999999" y="1.67" class="c">|</text><text x="9.017999999999999" y="1.67" class="d">■■■■■■■■■■■■■■■■■■■■■■■■■■■■■</text><text x="43.086" y="1.67" class="c">94%</text></svg><svg x="6000"><use xlink:href="#a"></use><text x="0" y="1.67" class="c">Step</text><text x="5.01" y="1.67" class="c">2</text><text x="7.013999999999999" y="1.67" class="c">|</text><text x="9.017999999999999" y="1.67" class="d">■■■■■■■■■■■■■■■■■■■■■■■■■■■■■■</text><text x="43.086" y="1.67" class="c">95%</text></svg><svg x="6100"><use xlink:href="#a"></use><text x="0" y="1.67" class="c">Step</text><text x="5.01" y="1.67" class="c">2</text><text x="7.013999999999999" y="1.67" class="c">|</text><text x="9.017999999999999" y="1.67" class="d">■■■■■■■■■■■■■■■■■■■■■■■■■■■■■■</text><text x="43.086" y="1.67" class="c">97%</text></svg><svg x="6200"><use xlink:href="#a"></use><text x="0" y="1.67" class="c">Step</text><text x="5.01" y="1.67" class="c">2</text><text x="7.013999999999999" y="1.67" class="c">|</text><text x="9.017999999999999" y="1.67" class="d">■■■■■■■■■■■■■■■■■■■■■■■■■■■■■■■</text><text x="43.086" y="1.67" class="c">99%</text></svg><svg x="6300"><use xlink:href="#a"></use><use xlink:href="#1" y="0"></use></svg><svg x="6400"><use xlink:href="#a"></use><use xlink:href="#1" y="0"></use></svg><svg x="6500"><use xlink:href="#a"></use><use xlink:href="#1" y="0"></use></svg></svg></g></g></svg></svg>