<svg xmlns="http://www.w3.org/2000/svg" xmlns:xlink="http://www.w3.org/1999/xlink" width="1040" height="61.709999999999994"><rect width="1040" height="61.709999999999994" rx="0" ry="0" class="a"></rect><svg height="21.709999999999997" viewBox="0 0 100 2.171" width="1000" x="20" xmlns="http://www.w3.org/2000/svg" xmlns:xlink="http://www.w3.org/1999/xlink" y="20"><style>.a{fill:rgb(40,45,53)}.b{font-family:'Fira Code',Monaco,Consolas,Menlo,'Bitstream Vera Sans Mono','Powerline Symbols',monospace}.c{fill:rgb(185,192,203);white-space:pre}.d{fill:rgb(168,204,140);white-space:pre}.e{fill:transparent}.g{animation-duration:12.7629399299622s;animation-iteration-count:infinite;animation-name:f;animation-timing-function:steps(1,end)}@keyframes f{0%{transform:translateX(-0px)}0.2%{transform:translateX(-100px)}1.1%{transform:translateX(-200px)}1.2%{transform:translateX(-300px)}1.5%{transform:translateX(-400px)}3.1%{transform:translateX(-500px)}4.7%{transform:translateX(-600px)}6.2%{transform:translateX(-700px)}7.8%{transform:translateX(-800px)}9.4%{transform:translateX(-900px)}11%{transform:translateX(-1000px)}12.6%{transform:translateX(-1100px)}14.2%{transform:translateX(-1200px)}15.8%{transform:translateX(-1300px)}17.3%{transform:translateX(-1400px)}19%{transform:translateX(-1500px)}20.5%{transform:translateX(-1600px)}22.1%{transform:translateX(-1700px)}23.7%{transform:translateX(-1800px)}25.3%{transform:translateX(-1900px)}26.8%{transform:translateX(-2000px)}28.4%{transform:translateX(-2100px)}30%{transform:translateX(-2200px)}31.6%{transform:translateX(-2300px)}33.2%{transform:translateX(-2400px)}34.8%{transform:translateX(-2500px)}36.3%{transform:translateX(-2600px)}37.9%{transform:translateX(-2700px)}39.5%{transform:translateX(-2800px)}41.1%{transform:translateX(-2900px)}42.7%{transform:translateX(-3000px)}44.2%{transform:translateX(-3100px)}45.8%{transform:translateX(-3200px)}47.4%{transform:translateX(-3300px)}49%{transform:translateX(-3400px)}50.6%{transform:translateX(-3500px)}52.2%{transform:translateX(-3600px)}53.8%{transform:translateX(-3700px)}55.4%{transform:translateX(-3800px)}56.9%{transform:translateX(-3900px)}58.5%{transform:translateX(-4000px)}60.1%{transform:translateX(-4100px)}61.7%{transform:translateX(-4200px)}63.2%{transform:translateX(-4300px)}64.8%{transform:translateX(-4400px)}66.4%{transform:translateX(-4500px)}67.9%{transform:translateX(-4600px)}69.5%{transform:translateX(-4700px)}71.1%{transform:translateX(-4800px)}72.7%{transform:translateX(-4900px)}74.2%{transform:translateX(-5000px)}75.7%{transform:translateX(-5100px)}75.7%{transform:translateX(-5200px)}100%{transform:translateX(-5300px)}}</style><g font-family="&#x27;Fira Code&#x27;,Monaco,Consolas,Menlo,&#x27;Bitstream Vera Sans Mono&#x27;,&#x27;Powerline Symbols&#x27;,monospace" font-size="1.67" class="b"><defs><symbol id="1"><text x="0" y="1.67" class="c">Step</text><text x="5.01" y="1.67" class="c">1</text><text x="7.013999999999999" y="1.67" class="c">|</text><text x="9.017999999999999" y="1.67" class="d">■</text><text x="44.087999999999994" y="1.67" class="c">0%</text></symbol><symbol id="2"><text x="0" y="1.67" class="c">Step</text><text x="5.01" y="1.67" class="c">2</text><text x="7.013999999999999" y="1.67" class="c">|</text><text x="9.017999999999999" y="1.67" class="d">■■■■■■■■■■■■■■■■■■■■■■■■■■■■■■■</text><text x="42.083999999999996" y="1.67" class="c">100%</text></symbol><symbol id="a"><rect height="2" width="100" x="0" y="0" class="e"></rect></symbol></defs><rect height="2.171" width="100" class="a"></rect><g class="g"><svg x="0" y="0" width="5400"><svg x="0"><use xlink:href="#a"></use></svg><svg x="100"><use xlink:href="#a"></use></svg><svg x="200"><use xlink:href="#a"></use></svg><svg x="300"><use xlink:href="#a"></use><use xlink:href="#1" y="0"></use></svg><svg x="400"><use xlink:href="#a"></use><use xlink:href="#1" y="0"></use></svg><svg x="500"><use xlink:href="#a"></use><text x="0" y="1.67" class="c">Step</text><text x="5.01" y="1.67" class="c">1</text><text x="7.013999999999999" y="1.67" class="c">|</text><text x="9.017999999999999" y="1.67" class="d">■■</text><text x="44.087999999999994" y="1.67" class="c">2%</text></svg><svg x="600"><use xlink:href="#a"></use><text x="0" y="1.67" class="c">Step</text><text x="5.01" y="1.67" class="c">1</text><text x="7.013999999999999" y="1.67" class="c">|</text><text x="9.017999999999999" y="1.67" class="d">■■</text><text x="44.087999999999994" y="1.67" class="c">5%</text></svg><svg x="700"><use xlink:href="#a"></use><text x="0" y="1.67" class="c">Step</text><text x="5.01" y="1.67" class="c">1</text><text x="7.013999999999999" y="1.67" class="c">|</text><text x="9.017999999999999" y="1.67" class="d">■■■</text><text x="44.087999999999994" y="1.67" class="c">7%</text></svg><svg x="800"><use xlink:href="#a"></use><text x="0" y="1.67" class="c">Step</text><text x="5.01" y="1.67" class="c">1</text><text x="7.013999999999999" y="1.67" class="c">|</text><text x="9.017999999999999" y="1.67" class="d">■■■■</text><text x="44.087999999999994" y="1.67" class="c">9%</text></svg><svg x="900"><use xlink:href="#a"></use><text x="0" y="1.67" class="c">Step</text><text x="5.01" y="1.67" class="c">1</text><text x="7.013999999999999" y="1.67" class="c">|</text><text x="9.017999999999999" y="1.67" class="d">■■■■</text><text x="43.086" y="1.67" class="c">11%</text></svg><svg x="1000"><use xlink:href="#a"></use><text x="0" y="1.67" class="c">Step</text><text x="5.01" y="1.67" class="c">1</text><text x="7.013999999999999" y="1.67" class="c">|</text><text x="9.017999999999999" y="1.67" class="d">■■■■■</text><text x="43.086" y="1.67" class="c">13%</text></svg><svg x="1100"><use xlink:href="#a"></use><text x="0" y="1.67" class="c">Step</text><text x="5.01" y="1.67" class="c">1</text><text x="7.013999999999999" y="1.67" class="c">|</text><text x="9.017999999999999" y="1.67" class="d">■■■■■■</text><text x="43.086" y="1.67" class="c">15%</text></svg><svg x="1200"><use xlink:href="#a"></use><text x="0" y="1.67" class="c">Step</text><text x="5.01" y="1.67" class="c">1</text><text x="7.013999999999999" y="1.67" class="c">|</text><text x="9.017999999999999" y="1.67" class="d">■■■■■■</text><text x="43.086" y="1.67" class="c">17%</text></svg><svg x="1300"><use xlink:href="#a"></use><text x="0" y="1.67" class="c">Step</text><text x="5.01" y="1.67" class="c">1</text><text x="7.013999999999999" y="1.67" class="c">|</text><text x="9.017999999999999" y="1.67" class="d">■■■■■■■</text><text x="43.086" y="1.67" class="c">20%</text></svg><svg x="1400"><use xlink:href="#a"></use><text x="0" y="1.67" class="c">Step</text><text x="5.01" y="1.67" class="c">1</text><text x="7.013999999999999" y="1.67" class="c">|</text><text x="9.017999999999999" y="1.67" class="d">■■■■■■■</text><text x="43.086" y="1.67" class="c">22%</text></svg><svg x="1500"><use xlink:href="#a"></use><text x="0" y="1.67" class="c">Step</text><text x="5.01" y="1.67" class="c">1</text><text x="7.013999999999999" y="1.67" class="c">|</text><text x="9.017999999999999" y="1.67" class="d">■■■■■■■■</text><text x="43.086" y="1.67" class="c">24%</text></svg><svg x="1600"><use xlink:href="#a"></use><text x="0" y="1.67" class="c">Step</text><text x="5.01" y="1.67" class="c">1</text><text x="7.013999999999999" y="1.67" class="c">|</text><text x="9.017999999999999" y="1.67" class="d">■■■■■■■■■</text><text x="43.086" y="1.67" class="c">26%</text></svg><svg x="1700"><use xlink:href="#a"></use><text x="0" y="1.67" class="c">Step</text><text x="5.01" y="1.67" class="c">1</text><text x="7.013999999999999" y="1.67" class="c">|</text><text x="9.017999999999999" y="1.67" class="d">■■■■■■■■■</text><text x="43.086" y="1.67" class="c">28%</text></svg><svg x="1800"><use xlink:href="#a"></use><text x="0" y="1.67" class="c">Step</text><text x="5.01" y="1.67" class="c">1</text><text x="7.013999999999999" y="1.67" class="c">|</text><text x="9.017999999999999" y="1.67" class="d">■■■■■■■■■■</text><text x="43.086" y="1.67" class="c">30%</text></svg><svg x="1900"><use xlink:href="#a"></use><text x="0" y="1.67" class="c">Step</text><text x="5.01" y="1.67" class="c">1</text><text x="7.013999999999999" y="1.67" class="c">|</text><text x="9.017999999999999" y="1.67" class="d">■■■■■■■■■■■</text><text x="43.086" y="1.67" class="c">32%</text></svg><svg x="2000"><use xlink:href="#a"></use><text x="0" y="1.67" class="c">Step</text><text x="5.01" y="1.67" class="c">1</text><text x="7.013999999999999" y="1.67" class="c">|</text><text x="9.017999999999999" y="1.67" class="d">■■■■■■■■■■■</text><text x="43.086" y="1.67" class="c">34%</text></svg><svg x="2100"><use xlink:href="#a"></use><text x="0" y="1.67" class="c">Step</text><text x="5.01" y="1.67" class="c">1</text><text x="7.013999999999999" y="1.67" class="c">|</text><text x="9.017999999999999" y="1.67" class="d">■■■■■■■■■■■■</text><text x="43.086" y="1.67" class="c">36%</text></svg><svg x="2200"><use xlink:href="#a"></use><text x="0" y="1.67" class="c">Step</text><text x="5.01" y="1.67" class="c">1</text><text x="7.013999999999999" y="1.67" class="c">|</text><text x="9.017999999999999" y="1.67" class="d">■■■■■■■■■■■■</text><text x="43.086" y="1.67" class="c">38%</text></svg><svg x="2300"><use xlink:href="#a"></use><text x="0" y="1.67" class="c">Step</text><text x="5.01" y="1.67" class="c">1</text><text x="7.013999999999999" y="1.67" class="c">|</text><text x="9.017999999999999" y="1.67" class="d">■■■■■■■■■■■■■</text><text x="43.086" y="1.67" class="c">40%</text></svg><svg x="2400"><use xlink:href="#a"></use><text x="0" y="1.67" class="c">Step</text><text x="5.01" y="1.67" class="c">1</text><text x="7.013999999999999" y="1.67" class="c">|</text><text x="9.017999999999999" y="1.67" class="d">■■■■■■■■■■■■■■</text><text x="43.086" y="1.67" class="c">43%</text></svg><svg x="2500"><use xlink:href="#a"></use><text x="0" y="1.67" class="c">Step</text><text x="5.01" y="1.67" class="c">1</text><text x="7.013999999999999" y="1.67" class="c">|</text><text x="9.017999999999999" y="1.67" class="d">■■■■■■■■■■■■■■</text><text x="43.086" y="1.67" class="c">45%</text></svg><svg x="2600"><use xlink:href="#a"></use><text x="0" y="1.67" class="c">Step</text><text x="5.01" y="1.67" class="c">1</text><text x="7.013999999999999" y="1.67" class="c">|</text><text x="9.017999999999999" y="1.67" class="d">■■■■■■■■■■■■■■■</text><text x="43.086" y="1.67" class="c">47%</text></svg><svg x="2700"><use xlink:href="#a"></use><text x="0" y="1.67" class="c">Step</text><text x="5.01" y="1.67" class="c">1</text><text x="7.013999999999999" y="1.67" class="c">|</text><text x="9.017999999999999" y="1.67" class="d">■■■■■■■■■■■■■■■■</text><text x="43.086" y="1.67" class="c">49%</text></svg><svg x="2800"><use xlink:href="#a"></use><text x="0" y="1.67" class="c">Step</text><text x="5.01" y="1.67" class="c">2</text><text x="7.013999999999999" y="1.67" class="c">|</text><text x="9.017999999999999" y="1.67" class="d">■■■■■■■■■■■■■■■■</text><text x="43.086" y="1.67" class="c">51%</text></svg><svg x="2900"><use xlink:href="#a"></use><text x="0" y="1.67" class="c">Step</text><text x="5.01" y="1.67" class="c">2</text><text x="7.013999999999999" y="1.67" class="c">|</text><text x="9.017999999999999" y="1.67" class="d">■■■■■■■■■■■■■■■■■</text><text x="43.086" y="1.67" class="c">53%</text></svg><svg x="3000"><use xlink:href="#a"></use><text x="0" y="1.67" class="c">Step</text><text x="5.01" y="1.67" class="c">2</text><text x="7.013999999999999" y="1.67" class="c">|</text><text x="9.017999999999999" y="1.67" class="d">■■■■■■■■■■■■■■■■■■</text><text x="43.086" y="1.67" class="c">55%</text></svg><svg x="3100"><use xlink:href="#a"></use><text x="0" y="1.67" class="c">Step</text><text x="5.01" y="1.67" class="c">2</text><text x="7.013999999999999" y="1.67" class="c">|</text><text x="9.017999999999999" y="1.67" class="d">■■■■■■■■■■■■■■■■■■</text><text x="43.086" y="1.67" class="c">57%</text></svg><svg x="3200"><use xlink:href="#a"></use><text x="0" y="1.67" class="c">Step</text><text x="5.01" y="1.67" class="c">2</text><text x="7.013999999999999" y="1.67" class="c">|</text><text x="9.017999999999999" y="1.67" class="d">■■■■■■■■■■■■■■■■■■■</text><text x="43.086" y="1.67" class="c">60%</text></svg><svg x="3300"><use xlink:href="#a"></use><text x="0" y="1.67" class="c">Step</text><text x="5.01" y="1.67" class="c">2</text><text x="7.013999999999999" y="1.67" class="c">|</text><text x="9.017999999999999" y="1.67" class="d">■■■■■■■■■■■■■■■■■■■■</text><text x="43.086" y="1.67" class="c">62%</text></svg><svg x="3400"><use xlink:href="#a"></use><text x="0" y="1.67" class="c">Step</text><text x="5.01" y="1.67" class="c">2</text><text x="7.013999999999999" y="1.67" class="c">|</text><text x="9.017999999999999" y="1.67" class="d">■■■■■■■■■■■■■■■■■■■■</text><text x="43.086" y="1.67" class="c">64%</text></svg><svg x="3500"><use xlink:href="#a"></use><text x="0" y="1.67" class="c">Step</text><text x="5.01" y="1.67" class="c">2</text><text x="7.013999999999999" y="1.67" class="c">|</text><text x="9.017999999999999" y="1.67" class="d">■■■■■■■■■■■■■■■■■■■■■</text><text x="43.086" y="1.67" class="c">66%</text></svg><svg x="3600"><use xlink:href="#a"></use><text x="0" y="1.67" class="c">Step</text><text x="5.01" y="1.67" class="c">2</text><text x="7.013999999999999" y="1.67" class="c">|</text><text x="9.017999999999999" y="1.67" class="d">■■■■■■■■■■■■■■■■■■■■■</text><text x="43.086" y="1.67" class="c">68%</text></svg><svg x="3700"><use xlink:href="#a"></use><text x="0" y="1.67" class="c">Step</text><text x="5.01" y="1.67" class="c">2</text><text x="7.013999999999999" y="1.67" class="c">|</text><text x="9.017999999999999" y="1.67" class="d">■■■■■■■■■■■■■■■■■■■■■■</text><text x="43.086" y="1.67" class="c">71%</text></svg><svg x="3800"><use xlink:href="#a"></use><text x="0" y="1.67" class="c">Step</text><text x="5.01" y="1.67" class="c">2</text><text x="7.013999999999999" y="1.67" class="c">|</text><text x="9.017999999999999" y="1.67" class="d">■■■■■■■■■■■■■■■■■■■■■■■</text><text x="43.086" y="1.67" class="c">73%</text></svg><svg x="3900"><use xlink:href="#a"></use><text x="0" y="1.67" class="c">Step</text><text x="5.01" y="1.67" class="c">2</text><text x="7.013999999999999" y="1.67" class="c">|</text><text x="9.017999999999999" y="1.67" class="d">■■■■■■■■■■■■■■■■■■■■■■■</text><text x="43.086" y="1.67" class="c">75%</text></svg><svg x="4000"><use xlink:href="#a"></use><text x="0" y="1.67" class="c">Step</text><text x="5.01" y="1.67" class="c">2</text><text x="7.013999999999999" y="1.67" class="c">|</text><text x="9.017999999999999" y="1.67" class="d">■■■■■■■■■■■■■■■■■■■■■■■■</text><text x="43.086" y="1.67" class="c">77%</text></svg><svg x="4100"><use xlink:href="#a"></use><text x="0" y="1.67" class="c">Step</text><text x="5.01" y="1.67" class="c">2</text><text x="7.013999999999999" y="1.67" class="c">|</text><text x="9.017999999999999" y="1.67" class="d">■■■■■■■■■■■■■■■■■■■■■■■■■</text><text x="43.086" y="1.67" class="c">79%</text></svg><svg x="4200"><use xlink:href="#a"></use><text x="0" y="1.67" class="c">Step</text><text x="5.01" y="1.67" class="c">2</text><text x="7.013999999999999" y="1.67" class="c">|</text><text x="9.017999999999999" y="1.67" class="d">■■■■■■■■■■■■■■■■■■■■■■■■■</text><text x="43.086" y="1.67" class="c">81%</text></svg><svg x="4300"><use xlink:href="#a"></use><text x="0" y="1.67" class="c">Step</text><text x="5.01" y="1.67" class="c">2</text><text x="7.013999999999999" y="1.67" class="c">|</text><text x="9.017999999999999" y="1.67" class="d">■■■■■■■■■■■■■■■■■■■■■■■■■■</text><text x="43.086" y="1.67" class="c">84%</text></svg><svg x="4400"><use xlink:href="#a"></use><text x="0" y="1.67" class="c">Step</text><text x="5.01" y="1.67" class="c">2</text><text x="7.013999999999999" y="1.67" class="c">|</text><text x="9.017999999999999" y="1.67" class="d">■■■■■■■■■■■■■■■■■■■■■■■■■■■</text><text x="43.086" y="1.67" class="c">86%</text></svg><svg x="4500"><use xlink:href="#a"></use><text x="0" y="1.67" class="c">Step</text><text x="5.01" y="1.67" class="c">2</text><text x="7.013999999999999" y="1.67" class="c">|</text><text x="9.017999999999999" y="1.67" class="d">■■■■■■■■■■■■■■■■■■■■■■■■■■■</text><text x="43.086" y="1.67" class="c">88%</text></svg><svg x="4600"><use xlink:href="#a"></use><text x="0" y="1.67" class="c">Step</text><text x="5.01" y="1.67" class="c">2</text><text x="7.013999999999999" y="1.67" class="c">|</text><text x="9.017999999999999" y="1.67" class="d">■■■■■■■■■■■■■■■■■■■■■■■■■■■■</text><text x="43.086" y="1.67" class="c">90%</text></svg><svg x="4700"><use xlink:href="#a"></use><text x="0" y="1.67" class="c">Step</text><text x="5.01" y="1.67" class="c">2</text><text x="7.013999999999999" y="1.67" class="c">|</text><text x="9.017999999999999" y="1.67" class="d">■■■■■■■■■■■■■■■■■■■■■■■■■■■■■</text><text x="43.086" y="1.67" class="c">92%</text></svg><svg x="4800"><use xlink:href="#a"></use><text x="0" y="1.67" class="c">Step</text><text x="5.01" y="1.67" class="c">2</text><text x="7.013999999999999" y="1.67" class="c">|</text><text x="9.017999999999999" y="1.67" class="d">■■■■■■■■■■■■■■■■■■■■■■■■■■■■■</text><text x="43.086" y="1.67" class="c">94%</text></svg><svg x="4900"><use xlink:href="#a"></use><text x="0" y="1.67" class="c">Step</text><text x="5.01" y="1.67" class="c">2</text><text x="7.013999999999999" y="1.67" class="c">|</text><text x="9.017999999999999" y="1.67" class="d">■■■■■■■■■■■■■■■■■■■■■■■■■■■■■■</text><text x="43.086" y="1.67" class="c">96%</text></svg><svg x="5000"><use xlink:href="#a"></use><text x="0" y="1.67" class="c">Step</text><text x="5.01" y="1.67" class="c">2</text><text x="7.013999999999999" y="1.67" class="c">|</text><text x="9.017999999999999" y="1.67" class="d">■■■■■■■■■■■■■■■■■■■■■■■■■■■■■■</text><text x="43.086" y="1.67" class="c">98%</text></svg><svg x="5100"><use xlink:href="#a"></use><use xlink:href="#2" y="0"></use></svg><svg x="5200"><use xlink:href="#a"></use><use xlink:href="#2" y="0"></use></svg><svg x="5300"><use xlink:href="#a"></use><use xlink:href="#2" y="0"></use></svg></svg></g></g></svg></svg>