<svg xmlns="http://www.w3.org/2000/svg" xmlns:xlink="http://www.w3.org/1999/xlink" width="840" height="61.709999999999994"><rect width="840" height="61.709999999999994" rx="0" ry="0" class="a"></rect><svg height="21.709999999999997" viewBox="0 0 80 2.171" width="800" x="20" xmlns="http://www.w3.org/2000/svg" xmlns:xlink="http://www.w3.org/1999/xlink" y="20"><style>.a{fill:rgb(241,243,245)}.b{font-family:'Fira Code',Monaco,Consolas,Menlo,'Bitstream Vera Sans Mono','Powerline Symbols',monospace}.c{fill:rgb(23,36,49);white-space:pre}.d{fill:rgb(133,153,0);white-space:pre}.e{fill:transparent}.g{animation-duration:12.663251s;animation-iteration-count:infinite;animation-name:f;animation-timing-function:steps(1,end)}@keyframes f{0%{transform:translateX(-0px)}0.5%{transform:translateX(-80px)}0.5%{transform:translateX(-160px)}1.6%{transform:translateX(-240px)}3.2%{transform:translateX(-320px)}4.7%{transform:translateX(-400px)}6.3%{transform:translateX(-480px)}7.9%{transform:translateX(-560px)}9.5%{transform:translateX(-640px)}11.1%{transform:translateX(-720px)}12.7%{transform:translateX(-800px)}14.2%{transform:translateX(-880px)}15.8%{transform:translateX(-960px)}17.4%{transform:translateX(-1040px)}19%{transform:translateX(-1120px)}20.6%{transform:translateX(-1200px)}22.2%{transform:translateX(-1280px)}23.7%{transform:translateX(-1360px)}25.3%{transform:translateX(-1440px)}26.9%{transform:translateX(-1520px)}28.5%{transform:translateX(-1600px)}30%{transform:translateX(-1680px)}31.6%{transform:translateX(-1760px)}33.2%{transform:translateX(-1840px)}34.8%{transform:translateX(-1920px)}36.4%{transform:translateX(-2000px)}37.9%{transform:translateX(-2080px)}39.5%{transform:translateX(-2160px)}41.1%{transform:translateX(-2240px)}42.7%{transform:translateX(-2320px)}44.3%{transform:translateX(-2400px)}45.8%{transform:translateX(-2480px)}47.4%{transform:translateX(-2560px)}49%{transform:translateX(-2640px)}50.6%{transform:translateX(-2720px)}52.2%{transform:translateX(-2800px)}52.6%{transform:translateX(-2880px)}52.6%{transform:translateX(-2960px)}52.6%{transform:translateX(-3040px)}100%{transform:translateX(-3120px)}}</style><g font-family="&#x27;Fira Code&#x27;,Monaco,Consolas,Menlo,&#x27;Bitstream Vera Sans Mono&#x27;,&#x27;Powerline Symbols&#x27;,monospace" font-size="1.67" class="b"><defs><symbol id="1"><text font-size="1.67" x="0" y="1.67" class="c">Step</text><text font-size="1.67" x="5.01" y="1.67" class="c">2</text><text font-size="1.67" x="7.013999999999999" y="1.67" class="c">|</text><text font-size="1.67" x="9.017999999999999" y="1.67" class="d">■■■■■■■■■■■■■■■■■■■■■■■■■■■■■■■</text><text font-size="1.67" x="42.083999999999996" y="1.67" class="c">100%</text></symbol><symbol id="a"><rect height="1" width="80" x="0" y="0" class="e"></rect></symbol></defs><rect height="2.171" width="80" class="a"></rect><g class="g"><svg x="0" y="0" width="3200"><svg x="0"><use xlink:href="#a"></use></svg><svg x="80"><use xlink:href="#a"></use></svg><svg x="160"><use xlink:href="#a"></use><text font-size="1.67" x="0" y="1.67" class="c">Step</text><text font-size="1.67" x="5.01" y="1.67" class="c">1</text><text font-size="1.67" x="7.013999999999999" y="1.67" class="c">|</text><text font-size="1.67" x="9.017999999999999" y="1.67" class="d">■</text><text font-size="1.67" x="44.087999999999994" y="1.67" class="c">0%</text></svg><svg x="240"><use xlink:href="#a"></use><text font-size="1.67" x="0" y="1.67" class="c">Step</text><text font-size="1.67" x="5.01" y="1.67" class="c">1</text><text font-size="1.67" x="7.013999999999999" y="1.67" class="c">|</text><text font-size="1.67" x="9.017999999999999" y="1.67" class="d">■■</text><text font-size="1.67" x="44.087999999999994" y="1.67" class="c">2%</text></svg><svg x="320"><use xlink:href="#a"></use><text font-size="1.67" x="0" y="1.67" class="c">Step</text><text font-size="1.67" x="5.01" y="1.67" class="c">1</text><text font-size="1.67" x="7.013999999999999" y="1.67" class="c">|</text><text font-size="1.67" x="9.017999999999999" y="1.67" class="d">■■■</text><text font-size="1.67" x="44.087999999999994" y="1.67" class="c">5%</text></svg><svg x="400"><use xlink:href="#a"></use><text font-size="1.67" x="0" y="1.67" class="c">Step</text><text font-size="1.67" x="5.01" y="1.67" class="c">1</text><text font-size="1.67" x="7.013999999999999" y="1.67" class="c">|</text><text font-size="1.67" x="9.017999999999999" y="1.67" class="d">■■■</text><text font-size="1.67" x="44.087999999999994" y="1.67" class="c">8%</text></svg><svg x="480"><use xlink:href="#a"></use><text font-size="1.67" x="0" y="1.67" class="c">Step</text><text font-size="1.67" x="5.01" y="1.67" class="c">1</text><text font-size="1.67" x="7.013999999999999" y="1.67" class="c">|</text><text font-size="1.67" x="9.017999999999999" y="1.67" class="d">■■■■</text><text font-size="1.67" x="43.086" y="1.67" class="c">11%</text></svg><svg x="560"><use xlink:href="#a"></use><text font-size="1.67" x="0" y="1.67" class="c">Step</text><text font-size="1.67" x="5.01" y="1.67" class="c">1</text><text font-size="1.67" x="7.013999999999999" y="1.67" class="c">|</text><text font-size="1.67" x="9.017999999999999" y="1.67" class="d">■■■■■</text><text font-size="1.67" x="43.086" y="1.67" class="c">14%</text></svg><svg x="640"><use xlink:href="#a"></use><text font-size="1.67" x="0" y="1.67" class="c">Step</text><text font-size="1.67" x="5.01" y="1.67" class="c">1</text><text font-size="1.67" x="7.013999999999999" y="1.67" class="c">|</text><text font-size="1.67" x="9.017999999999999" y="1.67" class="d">■■■■■■</text><text font-size="1.67" x="43.086" y="1.67" class="c">17%</text></svg><svg x="720"><use xlink:href="#a"></use><text font-size="1.67" x="0" y="1.67" class="c">Step</text><text font-size="1.67" x="5.01" y="1.67" class="c">1</text><text font-size="1.67" x="7.013999999999999" y="1.67" class="c">|</text><text font-size="1.67" x="9.017999999999999" y="1.67" class="d">■■■■■■■</text><text font-size="1.67" x="43.086" y="1.67" class="c">20%</text></svg><svg x="800"><use xlink:href="#a"></use><text font-size="1.67" x="0" y="1.67" class="c">Step</text><text font-size="1.67" x="5.01" y="1.67" class="c">1</text><text font-size="1.67" x="7.013999999999999" y="1.67" class="c">|</text><text font-size="1.67" x="9.017999999999999" y="1.67" class="d">■■■■■■■■</text><text font-size="1.67" x="43.086" y="1.67" class="c">23%</text></svg><svg x="880"><use xlink:href="#a"></use><text font-size="1.67" x="0" y="1.67" class="c">Step</text><text font-size="1.67" x="5.01" y="1.67" class="c">1</text><text font-size="1.67" x="7.013999999999999" y="1.67" class="c">|</text><text font-size="1.67" x="9.017999999999999" y="1.67" class="d">■■■■■■■■■</text><text font-size="1.67" x="43.086" y="1.67" class="c">26%</text></svg><svg x="960"><use xlink:href="#a"></use><text font-size="1.67" x="0" y="1.67" class="c">Step</text><text font-size="1.67" x="5.01" y="1.67" class="c">1</text><text font-size="1.67" x="7.013999999999999" y="1.67" class="c">|</text><text font-size="1.67" x="9.017999999999999" y="1.67" class="d">■■■■■■■■■■</text><text font-size="1.67" x="43.086" y="1.67" class="c">29%</text></svg><svg x="1040"><use xlink:href="#a"></use><text font-size="1.67" x="0" y="1.67" class="c">Step</text><text font-size="1.67" x="5.01" y="1.67" class="c">1</text><text font-size="1.67" x="7.013999999999999" y="1.67" class="c">|</text><text font-size="1.67" x="9.017999999999999" y="1.67" class="d">■■■■■■■■■■■</text><text font-size="1.67" x="43.086" y="1.67" class="c">32%</text></svg><svg x="1120"><use xlink:href="#a"></use><text font-size="1.67" x="0" y="1.67" class="c">Step</text><text font-size="1.67" x="5.01" y="1.67" class="c">1</text><text font-size="1.67" x="7.013999999999999" y="1.67" class="c">|</text><text font-size="1.67" x="9.017999999999999" y="1.67" class="d">■■■■■■■■■■■■</text><text font-size="1.67" x="43.086" y="1.67" class="c">35%</text></svg><svg x="1200"><use xlink:href="#a"></use><text font-size="1.67" x="0" y="1.67" class="c">Step</text><text font-size="1.67" x="5.01" y="1.67" class="c">1</text><text font-size="1.67" x="7.013999999999999" y="1.67" class="c">|</text><text font-size="1.67" x="9.017999999999999" y="1.67" class="d">■■■■■■■■■■■■</text><text font-size="1.67" x="43.086" y="1.67" class="c">38%</text></svg><svg x="1280"><use xlink:href="#a"></use><text font-size="1.67" x="0" y="1.67" class="c">Step</text><text font-size="1.67" x="5.01" y="1.67" class="c">1</text><text font-size="1.67" x="7.013999999999999" y="1.67" class="c">|</text><text font-size="1.67" x="9.017999999999999" y="1.67" class="d">■■■■■■■■■■■■■</text><text font-size="1.67" x="43.086" y="1.67" class="c">41%</text></svg><svg x="1360"><use xlink:href="#a"></use><text font-size="1.67" x="0" y="1.67" class="c">Step</text><text font-size="1.67" x="5.01" y="1.67" class="c">1</text><text font-size="1.67" x="7.013999999999999" y="1.67" class="c">|</text><text font-size="1.67" x="9.017999999999999" y="1.67" class="d">■■■■■■■■■■■■■■</text><text font-size="1.67" x="43.086" y="1.67" class="c">44%</text></svg><svg x="1440"><use xlink:href="#a"></use><text font-size="1.67" x="0" y="1.67" class="c">Step</text><text font-size="1.67" x="5.01" y="1.67" class="c">1</text><text font-size="1.67" x="7.013999999999999" y="1.67" class="c">|</text><text font-size="1.67" x="9.017999999999999" y="1.67" class="d">■■■■■■■■■■■■■■■</text><text font-size="1.67" x="43.086" y="1.67" class="c">47%</text></svg><svg x="1520"><use xlink:href="#a"></use><text font-size="1.67" x="0" y="1.67" class="c">Step</text><text font-size="1.67" x="5.01" y="1.67" class="c">1</text><text font-size="1.67" x="7.013999999999999" y="1.67" class="c">|</text><text font-size="1.67" x="9.017999999999999" y="1.67" class="d">■■■■■■■■■■■■■■■■</text><text font-size="1.67" x="43.086" y="1.67" class="c">50%</text></svg><svg x="1600"><use xlink:href="#a"></use><text font-size="1.67" x="0" y="1.67" class="c">Step</text><text font-size="1.67" x="5.01" y="1.67" class="c">2</text><text font-size="1.67" x="7.013999999999999" y="1.67" class="c">|</text><text font-size="1.67" x="9.017999999999999" y="1.67" class="d">■■■■■■■■■■■■■■■■■</text><text font-size="1.67" x="43.086" y="1.67" class="c">53%</text></svg><svg x="1680"><use xlink:href="#a"></use><text font-size="1.67" x="0" y="1.67" class="c">Step</text><text font-size="1.67" x="5.01" y="1.67" class="c">2</text><text font-size="1.67" x="7.013999999999999" y="1.67" class="c">|</text><text font-size="1.67" x="9.017999999999999" y="1.67" class="d">■■■■■■■■■■■■■■■■■■</text><text font-size="1.67" x="43.086" y="1.67" class="c">56%</text></svg><svg x="1760"><use xlink:href="#a"></use><text font-size="1.67" x="0" y="1.67" class="c">Step</text><text font-size="1.67" x="5.01" y="1.67" class="c">2</text><text font-size="1.67" x="7.013999999999999" y="1.67" class="c">|</text><text font-size="1.67" x="9.017999999999999" y="1.67" class="d">■■■■■■■■■■■■■■■■■■■</text><text font-size="1.67" x="43.086" y="1.67" class="c">59%</text></svg><svg x="1840"><use xlink:href="#a"></use><text font-size="1.67" x="0" y="1.67" class="c">Step</text><text font-size="1.67" x="5.01" y="1.67" class="c">2</text><text font-size="1.67" x="7.013999999999999" y="1.67" class="c">|</text><text font-size="1.67" x="9.017999999999999" y="1.67" class="d">■■■■■■■■■■■■■■■■■■■■</text><text font-size="1.67" x="43.086" y="1.67" class="c">62%</text></svg><svg x="1920"><use xlink:href="#a"></use><text font-size="1.67" x="0" y="1.67" class="c">Step</text><text font-size="1.67" x="5.01" y="1.67" class="c">2</text><text font-size="1.67" x="7.013999999999999" y="1.67" class="c">|</text><text font-size="1.67" x="9.017999999999999" y="1.67" class="d">■■■■■■■■■■■■■■■■■■■■</text><text font-size="1.67" x="43.086" y="1.67" class="c">65%</text></svg><svg x="2000"><use xlink:href="#a"></use><text font-size="1.67" x="0" y="1.67" class="c">Step</text><text font-size="1.67" x="5.01" y="1.67" class="c">2</text><text font-size="1.67" x="7.013999999999999" y="1.67" class="c">|</text><text font-size="1.67" x="9.017999999999999" y="1.67" class="d">■■■■■■■■■■■■■■■■■■■■■</text><text font-size="1.67" x="43.086" y="1.67" class="c">68%</text></svg><svg x="2080"><use xlink:href="#a"></use><text font-size="1.67" x="0" y="1.67" class="c">Step</text><text font-size="1.67" x="5.01" y="1.67" class="c">2</text><text font-size="1.67" x="7.013999999999999" y="1.67" class="c">|</text><text font-size="1.67" x="9.017999999999999" y="1.67" class="d">■■■■■■■■■■■■■■■■■■■■■■</text><text font-size="1.67" x="43.086" y="1.67" class="c">71%</text></svg><svg x="2160"><use xlink:href="#a"></use><text font-size="1.67" x="0" y="1.67" class="c">Step</text><text font-size="1.67" x="5.01" y="1.67" class="c">2</text><text font-size="1.67" x="7.013999999999999" y="1.67" class="c">|</text><text font-size="1.67" x="9.017999999999999" y="1.67" class="d">■■■■■■■■■■■■■■■■■■■■■■■</text><text font-size="1.67" x="43.086" y="1.67" class="c">74%</text></svg><svg x="2240"><use xlink:href="#a"></use><text font-size="1.67" x="0" y="1.67" class="c">Step</text><text font-size="1.67" x="5.01" y="1.67" class="c">2</text><text font-size="1.67" x="7.013999999999999" y="1.67" class="c">|</text><text font-size="1.67" x="9.017999999999999" y="1.67" class="d">■■■■■■■■■■■■■■■■■■■■■■■■</text><text font-size="1.67" x="43.086" y="1.67" class="c">77%</text></svg><svg x="2320"><use xlink:href="#a"></use><text font-size="1.67" x="0" y="1.67" class="c">Step</text><text font-size="1.67" x="5.01" y="1.67" class="c">2</text><text font-size="1.67" x="7.013999999999999" y="1.67" class="c">|</text><text font-size="1.67" x="9.017999999999999" y="1.67" class="d">■■■■■■■■■■■■■■■■■■■■■■■■■</text><text font-size="1.67" x="43.086" y="1.67" class="c">80%</text></svg><svg x="2400"><use xlink:href="#a"></use><text font-size="1.67" x="0" y="1.67" class="c">Step</text><text font-size="1.67" x="5.01" y="1.67" class="c">2</text><text font-size="1.67" x="7.013999999999999" y="1.67" class="c">|</text><text font-size="1.67" x="9.017999999999999" y="1.67" class="d">■■■■■■■■■■■■■■■■■■■■■■■■■■</text><text font-size="1.67" x="43.086" y="1.67" class="c">84%</text></svg><svg x="2480"><use xlink:href="#a"></use><text font-size="1.67" x="0" y="1.67" class="c">Step</text><text font-size="1.67" x="5.01" y="1.67" class="c">2</text><text font-size="1.67" x="7.013999999999999" y="1.67" class="c">|</text><text font-size="1.67" x="9.017999999999999" y="1.67" class="d">■■■■■■■■■■■■■■■■■■■■■■■■■■■</text><text font-size="1.67" x="43.086" y="1.67" class="c">87%</text></svg><svg x="2560"><use xlink:href="#a"></use><text font-size="1.67" x="0" y="1.67" class="c">Step</text><text font-size="1.67" x="5.01" y="1.67" class="c">2</text><text font-size="1.67" x="7.013999999999999" y="1.67" class="c">|</text><text font-size="1.67" x="9.017999999999999" y="1.67" class="d">■■■■■■■■■■■■■■■■■■■■■■■■■■■■</text><text font-size="1.67" x="43.086" y="1.67" class="c">90%</text></svg><svg x="2640"><use xlink:href="#a"></use><text font-size="1.67" x="0" y="1.67" class="c">Step</text><text font-size="1.67" x="5.01" y="1.67" class="c">2</text><text font-size="1.67" x="7.013999999999999" y="1.67" class="c">|</text><text font-size="1.67" x="9.017999999999999" y="1.67" class="d">■■■■■■■■■■■■■■■■■■■■■■■■■■■■■</text><text font-size="1.67" x="43.086" y="1.67" class="c">93%</text></svg><svg x="2720"><use xlink:href="#a"></use><text font-size="1.67" x="0" y="1.67" class="c">Step</text><text font-size="1.67" x="5.01" y="1.67" class="c">2</text><text font-size="1.67" x="7.013999999999999" y="1.67" class="c">|</text><text font-size="1.67" x="9.017999999999999" y="1.67" class="d">■■■■■■■■■■■■■■■■■■■■■■■■■■■■■■</text><text font-size="1.67" x="43.086" y="1.67" class="c">96%</text></svg><svg x="2800"><use xlink:href="#a"></use><text font-size="1.67" x="0" y="1.67" class="c">Step</text><text font-size="1.67" x="5.01" y="1.67" class="c">2</text><text font-size="1.67" x="7.013999999999999" y="1.67" class="c">|</text><text font-size="1.67" x="9.017999999999999" y="1.67" class="d">■■■■■■■■■■■■■■■■■■■■■■■■■■■■■■■</text><text font-size="1.67" x="43.086" y="1.67" class="c">99%</text></svg><svg x="2880"><use xlink:href="#a"></use><use xlink:href="#1" y="0"></use></svg><svg x="2960"><use xlink:href="#a"></use><use xlink:href="#1" y="0"></use></svg><svg x="3040"><use xlink:href="#a"></use><use xlink:href="#1" y="0"></use></svg><svg x="3120"><use xlink:href="#a"></use><use xlink:href="#1" y="0"></use></svg></svg></g></g></svg></svg>