<svg xmlns="http://www.w3.org/2000/svg" xmlns:xlink="http://www.w3.org/1999/xlink" width="740" height="582.75"><rect width="740" height="582.75" rx="0" ry="0" class="a"></rect><svg height="542.75" viewBox="0 0 70 54.275" width="700" x="20" xmlns="http://www.w3.org/2000/svg" xmlns:xlink="http://www.w3.org/1999/xlink" y="20"><style>.a{fill:rgb(247,247,247)}.b{font-family:'Fira Code',Monaco,Consolas,Menlo,'Bitstream Vera Sans Mono','Powerline Symbols',monospace}.c{fill:transparent}.d{fill:rgb(42,161,152);white-space:pre}.e{fill:rgb(101,123,131);font-weight:bold;white-space:pre}.f{fill:rgb(101,123,131);white-space:pre}.g{fill:rgb(220,50,47);white-space:pre}.h{fill:rgb(181,137,0);white-space:pre}.i{fill:rgb(133,153,0);white-space:pre}.j{fill:rgb(38,139,210);white-space:pre}.k{fill:rgb(178,178,178);white-space:pre}.l{fill:rgb(101,123,131);font-style:italic;white-space:pre}.m{fill:rgb(38,139,210);font-style:italic;white-space:pre}.n{fill:rgb(158,158,158);font-style:italic;white-space:pre}</style><g font-family="&#x27;Fira Code&#x27;,Monaco,Consolas,Menlo,&#x27;Bitstream Vera Sans Mono&#x27;,&#x27;Powerline Symbols&#x27;,monospace" font-size="1.67" class="b"><defs><symbol id="a"><rect height="25" width="70" x="0" y="0" class="c"></rect></symbol></defs><rect height="54.275" width="70" class="a"></rect><svg x="0" y="0" width="70"><svg x="0"><use xlink:href="#a"></use><text x="0" y="1.67" class="d">──</text><text x="3.006" y="1.67" class="e">Heading</text><text x="11.021999999999998" y="1.67" class="e">1</text><text x="13.026" y="1.67" class="d">─────────────────────────────────────────────────────────</text><text x="0" y="6.012" class="f">──</text><text x="3.006" y="6.012" class="e">Heading</text><text x="11.021999999999998" y="6.012" class="e">2</text><text x="13.026" y="6.012" class="f">──</text><text x="0" y="10.354" class="f">──</text><text x="3.006" y="10.354" class="f">Heading</text><text x="11.021999999999998" y="10.354" class="f">3</text><text x="0" y="12.525" class="g">✖</text><text x="2.004" y="12.525" class="f">Danger</text><text x="9.017999999999999" y="12.525" class="f">alert</text><text x="0" y="14.696" class="h">!</text><text x="2.004" y="14.696" class="f">Warning</text><text x="10.02" y="14.696" class="f">alert</text><text x="0" y="16.866999999999997" class="d">ℹ</text><text x="2.004" y="16.866999999999997" class="f">Info</text><text x="7.013999999999999" y="16.866999999999997" class="f">alert</text><text x="0" y="19.037999999999997" class="i">✔</text><text x="2.004" y="19.037999999999997" class="f">Success</text><text x="10.02" y="19.037999999999997" class="f">alert</text><text x="0" y="21.209000000000003" class="f">→</text><text x="2.004" y="21.209000000000003" class="f">Alert</text><text x="8.016" y="21.209000000000003" class="f">for</text><text x="12.024" y="21.209000000000003" class="f">starting</text><text x="21.041999999999998" y="21.209000000000003" class="f">a</text><text x="23.045999999999996" y="21.209000000000003" class="f">process</text><text x="31.061999999999998" y="21.209000000000003" class="f">or</text><text x="34.068" y="21.209000000000003" class="f">computation</text><text x="0" y="25.550999999999995" class="f">Packages</text><text x="9.017999999999999" y="25.550999999999995" class="f">and</text><text x="13.026" y="25.550999999999995" class="f">versions:</text><text x="23.045999999999996" y="25.550999999999995" class="j">cli</text><text x="27.054" y="25.550999999999995" class="f">1.0.0.</text><text x="0" y="27.722" class="f">Time</text><text x="5.01" y="27.722" class="f">intervals:</text><text x="16.032" y="27.722" class="k">[3.4s]</text><text x="0" y="29.893" class="l">Emphasis</text><text x="9.017999999999999" y="29.893" class="f">and</text><text x="13.026" y="29.893" class="e">strong</text><text x="20.04" y="29.893" class="e">emphasis</text><text x="0" y="32.064" class="f">This</text><text x="5.01" y="32.064" class="f">is</text><text x="8.016" y="32.064" class="f">a</text><text x="10.02" y="32.064" class="f">piece</text><text x="16.032" y="32.064" class="f">of</text><text x="19.037999999999997" y="32.064" class="f">code:</text><text x="25.05" y="32.064" class="f">`sum(x)</text><text x="33.065999999999995" y="32.064" class="f">/</text><text x="35.06999999999999" y="32.064" class="f">length(x)`</text><text x="0" y="34.235" class="f">Function</text><text x="9.017999999999999" y="34.235" class="f">names:</text><text x="16.032" y="34.235" class="f">`cli::simple_theme()`</text><text x="0" y="36.406" class="f">Files:</text><text x="7.013999999999999" y="36.406" class="j">/usr/bin/env</text><text x="0" y="38.577000000000005" class="f">URLs:</text><text x="6.012" y="38.577000000000005" class="m">&lt;https://r-project.org&gt;</text><text x="0" y="42.919" class="f">──</text><text x="3.006" y="42.919" class="e">Longer</text><text x="10.02" y="42.919" class="e">code</text><text x="15.029999999999998" y="42.919" class="e">chunk</text><text x="21.041999999999998" y="42.919" class="f">──</text><text x="0" y="47.261" class="n">#</text><text x="2.004" y="47.261" class="n">window</text><text x="9.017999999999999" y="47.261" class="n">functions</text><text x="19.037999999999997" y="47.261" class="n">are</text><text x="23.045999999999996" y="47.261" class="n">useful</text><text x="30.059999999999995" y="47.261" class="n">for</text><text x="34.068" y="47.261" class="n">grouped</text><text x="42.083999999999996" y="47.261" class="n">mutates</text><text x="0" y="49.431999999999995" class="f">mtcars</text><text x="7.013999999999999" y="49.431999999999995" class="i">%&gt;%</text><text x="2.004" y="51.603" class="d">group_by</text><text x="10.02" y="51.603" class="h">(</text><text x="11.021999999999998" y="51.603" class="f">cyl</text><text x="14.027999999999999" y="51.603" class="h">)</text><text x="16.032" y="51.603" class="i">%&gt;%</text><text x="2.004" y="53.774" class="d">mutate</text><text x="8.016" y="53.774" class="h">(</text><text x="9.017999999999999" y="53.774" class="f">rank</text><text x="14.027999999999999" y="53.774" class="f">=</text><text x="16.032" y="53.774" class="d">min_rank</text><text x="24.048" y="53.774" class="j">(</text><text x="25.05" y="53.774" class="d">desc(</text><text x="30.059999999999995" y="53.774" class="f">mpg</text><text x="33.065999999999995" y="53.774" class="d">)</text><text x="34.068" y="53.774" class="j">)</text><text x="35.06999999999999" y="53.774" class="h">)</text></svg></svg></g></svg></svg>