<svg xmlns="http://www.w3.org/2000/svg" xmlns:xlink="http://www.w3.org/1999/xlink" width="740" height="235.39000000000001"><rect width="740" height="235.39000000000001" rx="0" ry="0" class="a"></rect><svg height="195.39000000000001" viewBox="0 0 70 19.539" width="700" x="20" xmlns="http://www.w3.org/2000/svg" xmlns:xlink="http://www.w3.org/1999/xlink" y="20"><style>.a{fill:rgb(247,247,247)}.b{font-family:'Fira Code',Monaco,Consolas,Menlo,'Bitstream Vera Sans Mono','Powerline Symbols',monospace}.c{fill:transparent}.d{fill:rgb(101,123,131);white-space:pre}</style><g font-family="&#x27;Fira Code&#x27;,Monaco,Consolas,Menlo,&#x27;Bitstream Vera Sans Mono&#x27;,&#x27;Powerline Symbols&#x27;,monospace" font-size="1.67" class="b"><defs><symbol id="a"><rect height="9" width="70" x="0" y="0" class="c"></rect></symbol></defs><rect height="19.539" width="70" class="a"></rect><svg x="0" y="0" width="70"><svg x="0"><use xlink:href="#a"></use><text x="0" y="1.67" class="d">Aliquip</text><text x="8.016" y="1.67" class="d">et</text><text x="11.021999999999998" y="1.67" class="d">fugiat</text><text x="18.035999999999998" y="1.67" class="d">fugiat</text><text x="25.05" y="1.67" class="d">laboris</text><text x="33.065999999999995" y="1.67" class="d">in</text><text x="36.071999999999996" y="1.67" class="d">magna</text><text x="42.083999999999996" y="1.67" class="d">consectetur</text><text x="54.108" y="1.67" class="d">nostrud</text><text x="62.123999999999995" y="1.67" class="d">esse</text><text x="0" y="3.8409999999999997" class="d">commodo.</text><text x="9.017999999999999" y="3.8409999999999997" class="d">Incididunt</text><text x="20.04" y="3.8409999999999997" class="d">nostrud</text><text x="28.055999999999997" y="3.8409999999999997" class="d">sit</text><text x="32.064" y="3.8409999999999997" class="d">consequat</text><text x="42.083999999999996" y="3.8409999999999997" class="d">eiusmod</text><text x="50.1" y="3.8409999999999997" class="d">eiusmod</text><text x="58.116" y="3.8409999999999997" class="d">sit</text><text x="62.123999999999995" y="3.8409999999999997" class="d">ipsum</text><text x="0" y="6.012" class="d">commodo</text><text x="8.016" y="6.012" class="d">occaecat</text><text x="17.034" y="6.012" class="d">cupidatat</text><text x="27.054" y="6.012" class="d">amet.</text><text x="33.065999999999995" y="6.012" class="d">Eu</text><text x="36.071999999999996" y="6.012" class="d">quis</text><text x="41.082" y="6.012" class="d">nulla</text><text x="47.093999999999994" y="6.012" class="d">dolore</text><text x="54.108" y="6.012" class="d">ad</text><text x="57.114" y="6.012" class="d">nulla</text><text x="0" y="8.183" class="d">officia.</text><text x="9.017999999999999" y="8.183" class="d">Ea</text><text x="12.024" y="8.183" class="d">sunt</text><text x="17.034" y="8.183" class="d">duis</text><text x="22.043999999999997" y="8.183" class="d">adipisicing</text><text x="34.068" y="8.183" class="d">nulla</text><text x="40.08" y="8.183" class="d">enim</text><text x="45.089999999999996" y="8.183" class="d">labore</text><text x="52.104" y="8.183" class="d">sit</text><text x="56.111999999999995" y="8.183" class="d">officia</text><text x="0" y="10.354" class="d">aliquip</text><text x="8.016" y="10.354" class="d">deserunt</text><text x="17.034" y="10.354" class="d">veniam.</text><text x="25.05" y="10.354" class="d">Nostrud</text><text x="33.065999999999995" y="10.354" class="d">dolor</text><text x="39.077999999999996" y="10.354" class="d">et</text><text x="42.083999999999996" y="10.354" class="d">ut</text><text x="45.089999999999996" y="10.354" class="d">labore</text><text x="52.104" y="10.354" class="d">amet</text><text x="57.114" y="10.354" class="d">ex</text><text x="60.11999999999999" y="10.354" class="d">id</text><text x="63.12599999999999" y="10.354" class="d">non</text><text x="67.134" y="10.354" class="d">ex</text><text x="0" y="12.525" class="d">adipisicing</text><text x="12.024" y="12.525" class="d">minim</text><text x="18.035999999999998" y="12.525" class="d">mollit</text><text x="25.05" y="12.525" class="d">in</text><text x="28.055999999999997" y="12.525" class="d">nulla.</text><text x="35.06999999999999" y="12.525" class="d">Eiusmod</text><text x="43.086" y="12.525" class="d">anim</text><text x="48.096" y="12.525" class="d">amet</text><text x="53.105999999999995" y="12.525" class="d">ea</text><text x="56.111999999999995" y="12.525" class="d">qui</text><text x="60.11999999999999" y="12.525" class="d">duis</text><text x="0" y="14.696" class="d">ipsum</text><text x="6.012" y="14.696" class="d">pariatur</text><text x="15.029999999999998" y="14.696" class="d">elit</text><text x="20.04" y="14.696" class="d">Lorem</text><text x="26.052" y="14.696" class="d">eiusmod.</text><text x="35.06999999999999" y="14.696" class="d">In</text><text x="38.07599999999999" y="14.696" class="d">Lorem</text><text x="44.087999999999994" y="14.696" class="d">magna</text><text x="50.1" y="14.696" class="d">consectetur</text><text x="0" y="16.866999999999997" class="d">consequat</text><text x="10.02" y="16.866999999999997" class="d">elit</text><text x="15.029999999999998" y="16.866999999999997" class="d">ut</text><text x="18.035999999999998" y="16.866999999999997" class="d">cupidatat</text><text x="28.055999999999997" y="16.866999999999997" class="d">eiusmod</text><text x="36.071999999999996" y="16.866999999999997" class="d">tempor</text><text x="43.086" y="16.866999999999997" class="d">sint</text><text x="48.096" y="16.866999999999997" class="d">laborum</text><text x="56.111999999999995" y="16.866999999999997" class="d">aute</text><text x="61.12199999999999" y="16.866999999999997" class="d">laboris.</text><text x="0" y="19.037999999999997" class="d">Cillum</text><text x="7.013999999999999" y="19.037999999999997" class="d">laborum</text><text x="15.029999999999998" y="19.037999999999997" class="d">tempor</text><text x="22.043999999999997" y="19.037999999999997" class="d">in</text><text x="25.05" y="19.037999999999997" class="d">est.</text></svg></svg></g></svg></svg>