<svg xmlns="http://www.w3.org/2000/svg" xmlns:xlink="http://www.w3.org/1999/xlink" width="740" height="148.55"><rect width="740" height="148.55" rx="0" ry="0" class="a"></rect><svg height="108.55000000000001" viewBox="0 0 70 10.855" width="700" x="20" xmlns="http://www.w3.org/2000/svg" xmlns:xlink="http://www.w3.org/1999/xlink" y="20"><style>.a{fill:rgb(40,45,53)}.b{font-family:'Fira Code',Monaco,Consolas,Menlo,'Bitstream Vera Sans Mono','Powerline Symbols',monospace}.c{fill:transparent}.d{fill:rgb(232,131,136);white-space:pre}.e{fill:rgb(219,171,121);white-space:pre}.f{fill:rgb(102,194,205);white-space:pre}.g{fill:rgb(113,190,242);white-space:pre}.h{fill:rgb(185,192,203);white-space:pre}.i{fill:rgb(168,204,140);white-space:pre}</style><g font-family="&#x27;Fira Code&#x27;,Monaco,Consolas,Menlo,&#x27;Bitstream Vera Sans Mono&#x27;,&#x27;Powerline Symbols&#x27;,monospace" font-size="1.67" class="b"><defs><symbol id="a"><rect height="6" width="70" x="0" y="0" class="c"></rect></symbol></defs><rect height="10.855" width="70" class="a"></rect><svg x="0" y="0" width="70"><svg x="0"><use xlink:href="#a"></use><text x="0" y="1.67" class="d">function</text><text x="9.017999999999999" y="1.67" class="e">()</text><text x="0" y="3.8409999999999997" class="e">{</text><text x="4.008" y="6.012" class="f">message</text><text x="11.021999999999998" y="6.012" class="g">(</text><text x="12.024" y="6.012" class="e">&quot;Just</text><text x="18.035999999999998" y="6.012" class="e">an</text><text x="21.041999999999998" y="6.012" class="e">example</text><text x="29.058" y="6.012" class="e">function&quot;</text><text x="38.07599999999999" y="6.012" class="g">)</text><text x="4.008" y="8.183" class="h">graphics::</text><text x="14.027999999999999" y="8.183" class="f">pairs</text><text x="19.037999999999997" y="8.183" class="g">(</text><text x="20.04" y="8.183" class="h">iris,</text><text x="26.052" y="8.183" class="h">col</text><text x="30.059999999999995" y="8.183" class="h">=</text><text x="32.064" y="8.183" class="g">1</text><text x="33.065999999999995" y="8.183" class="i">:</text><text x="34.068" y="8.183" class="g">4)</text><text x="0" y="10.354" class="e">}</text></svg></svg></g></svg></svg>