<svg xmlns="http://www.w3.org/2000/svg" xmlns:xlink="http://www.w3.org/1999/xlink" width="740" height="148.55"><rect width="740" height="148.55" rx="0" ry="0" class="a"></rect><svg height="108.55000000000001" viewBox="0 0 70 10.855" width="700" x="20" xmlns="http://www.w3.org/2000/svg" xmlns:xlink="http://www.w3.org/1999/xlink" y="20"><style>.a{fill:rgb(40,45,53)}.b{font-family:'Fira Code',Monaco,Consolas,Menlo,'Bitstream Vera Sans Mono','Powerline Symbols',monospace}.c{fill:transparent}.d{fill:rgb(185,192,203);white-space:pre}</style><g font-family="&#x27;Fira Code&#x27;,Monaco,Consolas,Menlo,&#x27;Bitstream Vera Sans Mono&#x27;,&#x27;Powerline Symbols&#x27;,monospace" font-size="1.67" class="b"><defs><symbol id="a"><rect height="6" width="70" x="0" y="0" class="c"></rect></symbol></defs><rect height="10.855" width="70" class="a"></rect><svg x="0" y="0" width="70"><svg x="0"><use xlink:href="#a"></use><text x="0" y="1.67" class="d">Lorem</text><text x="6.012" y="1.67" class="d">ad</text><text x="9.017999999999999" y="1.67" class="d">ipsum</text><text x="15.029999999999998" y="1.67" class="d">veniam</text><text x="22.043999999999997" y="1.67" class="d">esse</text><text x="27.054" y="1.67" class="d">nisi</text><text x="32.064" y="1.67" class="d">deserunt</text><text x="41.082" y="1.67" class="d">duis.</text><text x="47.093999999999994" y="1.67" class="d">Qui</text><text x="51.102" y="1.67" class="d">incididunt</text><text x="62.123999999999995" y="1.67" class="d">elit</text><text x="0" y="3.8409999999999997" class="d">elit</text><text x="5.01" y="3.8409999999999997" class="d">mollit</text><text x="12.024" y="3.8409999999999997" class="d">sint</text><text x="17.034" y="3.8409999999999997" class="d">nulla</text><text x="23.045999999999996" y="3.8409999999999997" class="d">consectetur</text><text x="35.06999999999999" y="3.8409999999999997" class="d">aute</text><text x="40.08" y="3.8409999999999997" class="d">commodo</text><text x="48.096" y="3.8409999999999997" class="d">do</text><text x="51.102" y="3.8409999999999997" class="d">elit</text><text x="56.111999999999995" y="3.8409999999999997" class="d">laboris</text><text x="64.128" y="3.8409999999999997" class="d">minim</text><text x="0" y="6.012" class="d">et.</text><text x="4.008" y="6.012" class="d">Laboris</text><text x="12.024" y="6.012" class="d">ipsum</text><text x="18.035999999999998" y="6.012" class="d">mollit</text><text x="25.05" y="6.012" class="d">voluptate</text><text x="35.06999999999999" y="6.012" class="d">et</text><text x="38.07599999999999" y="6.012" class="d">non</text><text x="42.083999999999996" y="6.012" class="d">do</text><text x="45.089999999999996" y="6.012" class="d">incididunt</text><text x="56.111999999999995" y="6.012" class="d">eiusmod.</text><text x="65.13" y="6.012" class="d">Anim</text><text x="0" y="8.183" class="d">consectetur</text><text x="12.024" y="8.183" class="d">mollit</text><text x="19.037999999999997" y="8.183" class="d">laborum</text><text x="27.054" y="8.183" class="d">occaecat</text><text x="36.071999999999996" y="8.183" class="d">eiusmod</text><text x="44.087999999999994" y="8.183" class="d">excepteur.</text><text x="55.10999999999999" y="8.183" class="d">Ullamco</text><text x="63.12599999999999" y="8.183" class="d">non</text><text x="0" y="10.354" class="d">tempor</text><text x="7.013999999999999" y="10.354" class="d">esse</text><text x="12.024" y="10.354" class="d">anim</text><text x="17.034" y="10.354" class="d">tempor</text><text x="24.048" y="10.354" class="d">magna</text><text x="30.059999999999995" y="10.354" class="d">non.</text></svg></svg></g></svg></svg>