<svg xmlns="http://www.w3.org/2000/svg" xmlns:xlink="http://www.w3.org/1999/xlink" width="840" height="61.709999999999994"><rect width="840" height="61.709999999999994" rx="0" ry="0" class="a"></rect><svg height="21.709999999999997" viewBox="0 0 80 2.171" width="800" x="20" xmlns="http://www.w3.org/2000/svg" xmlns:xlink="http://www.w3.org/1999/xlink" y="20"><style>.a{fill:rgb(241,243,245)}.b{font-family:'Fira Code',Monaco,Consolas,Menlo,'Bitstream Vera Sans Mono','Powerline Symbols',monospace}.c{fill:rgb(23,36,49);white-space:pre}.d{fill:rgb(133,153,0);white-space:pre}.e{fill:transparent}.g{animation-duration:10.680331s;animation-iteration-count:infinite;animation-name:f;animation-timing-function:steps(1,end)}@keyframes f{0%{transform:translateX(-0px)}0%{transform:translateX(-80px)}2.6%{transform:translateX(-160px)}4.3%{transform:translateX(-240px)}6.4%{transform:translateX(-320px)}8.2%{transform:translateX(-400px)}10%{transform:translateX(-480px)}12.2%{transform:translateX(-560px)}14.1%{transform:translateX(-640px)}15.8%{transform:translateX(-720px)}18%{transform:translateX(-800px)}19.7%{transform:translateX(-880px)}21.4%{transform:translateX(-960px)}23.7%{transform:translateX(-1040px)}25.4%{transform:translateX(-1120px)}27.1%{transform:translateX(-1200px)}29.3%{transform:translateX(-1280px)}31%{transform:translateX(-1360px)}33.1%{transform:translateX(-1440px)}34.9%{transform:translateX(-1520px)}36.6%{transform:translateX(-1600px)}38.9%{transform:translateX(-1680px)}40.6%{transform:translateX(-1760px)}42.5%{transform:translateX(-1840px)}43.8%{transform:translateX(-1920px)}43.8%{transform:translateX(-2000px)}43.8%{transform:translateX(-2080px)}100%{transform:translateX(-2160px)}}</style><g font-family="&#x27;Fira Code&#x27;,Monaco,Consolas,Menlo,&#x27;Bitstream Vera Sans Mono&#x27;,&#x27;Powerline Symbols&#x27;,monospace" font-size="1.67" class="b"><defs><symbol id="1"><text font-size="1.67" x="0" y="1.67" class="c">Downloading</text><text font-size="1.67" x="12.024" y="1.67" class="d">■■■■■■■■■■■■■■■■■■■■■■■■■■■■■■■</text><text font-size="1.67" x="45.089999999999996" y="1.67" class="c">100%</text><text font-size="1.67" x="50.1" y="1.67" class="c">|</text><text font-size="1.67" x="52.104" y="1.67" class="c">ETA:</text><text font-size="1.67" x="58.116" y="1.67" class="c">0s</text></symbol><symbol id="a"><rect height="1" width="80" x="0" y="0" class="e"></rect></symbol></defs><rect height="2.171" width="80" class="a"></rect><g class="g"><svg x="0" y="0" width="2240"><svg x="0"><use xlink:href="#a"></use></svg><svg x="80"><use xlink:href="#a"></use><text font-size="1.67" x="0" y="1.67" class="c">Downloading</text><text font-size="1.67" x="12.024" y="1.67" class="d">■</text><text font-size="1.67" x="47.093999999999994" y="1.67" class="c">0%</text><text font-size="1.67" x="50.1" y="1.67" class="c">|</text><text font-size="1.67" x="52.104" y="1.67" class="c">ETA:</text><text font-size="1.67" x="57.114" y="1.67" class="c">?</text></svg><svg x="160"><use xlink:href="#a"></use><text font-size="1.67" x="0" y="1.67" class="c">Downloading</text><text font-size="1.67" x="12.024" y="1.67" class="d">■■■</text><text font-size="1.67" x="47.093999999999994" y="1.67" class="c">6%</text><text font-size="1.67" x="50.1" y="1.67" class="c">|</text><text font-size="1.67" x="52.104" y="1.67" class="c">ETA:</text><text font-size="1.67" x="58.116" y="1.67" class="c">4s</text></svg><svg x="240"><use xlink:href="#a"></use><text font-size="1.67" x="0" y="1.67" class="c">Downloading</text><text font-size="1.67" x="12.024" y="1.67" class="d">■■■■</text><text font-size="1.67" x="46.09199999999999" y="1.67" class="c">10%</text><text font-size="1.67" x="50.1" y="1.67" class="c">|</text><text font-size="1.67" x="52.104" y="1.67" class="c">ETA:</text><text font-size="1.67" x="58.116" y="1.67" class="c">4s</text></svg><svg x="320"><use xlink:href="#a"></use><text font-size="1.67" x="0" y="1.67" class="c">Downloading</text><text font-size="1.67" x="12.024" y="1.67" class="d">■■■■■</text><text font-size="1.67" x="46.09199999999999" y="1.67" class="c">15%</text><text font-size="1.67" x="50.1" y="1.67" class="c">|</text><text font-size="1.67" x="52.104" y="1.67" class="c">ETA:</text><text font-size="1.67" x="58.116" y="1.67" class="c">4s</text></svg><svg x="400"><use xlink:href="#a"></use><text font-size="1.67" x="0" y="1.67" class="c">Downloading</text><text font-size="1.67" x="12.024" y="1.67" class="d">■■■■■■■</text><text font-size="1.67" x="46.09199999999999" y="1.67" class="c">19%</text><text font-size="1.67" x="50.1" y="1.67" class="c">|</text><text font-size="1.67" x="52.104" y="1.67" class="c">ETA:</text><text font-size="1.67" x="58.116" y="1.67" class="c">4s</text></svg><svg x="480"><use xlink:href="#a"></use><text font-size="1.67" x="0" y="1.67" class="c">Downloading</text><text font-size="1.67" x="12.024" y="1.67" class="d">■■■■■■■■</text><text font-size="1.67" x="46.09199999999999" y="1.67" class="c">23%</text><text font-size="1.67" x="50.1" y="1.67" class="c">|</text><text font-size="1.67" x="52.104" y="1.67" class="c">ETA:</text><text font-size="1.67" x="58.116" y="1.67" class="c">4s</text></svg><svg x="560"><use xlink:href="#a"></use><text font-size="1.67" x="0" y="1.67" class="c">Downloading</text><text font-size="1.67" x="12.024" y="1.67" class="d">■■■■■■■■■</text><text font-size="1.67" x="46.09199999999999" y="1.67" class="c">28%</text><text font-size="1.67" x="50.1" y="1.67" class="c">|</text><text font-size="1.67" x="52.104" y="1.67" class="c">ETA:</text><text font-size="1.67" x="58.116" y="1.67" class="c">3s</text></svg><svg x="640"><use xlink:href="#a"></use><text font-size="1.67" x="0" y="1.67" class="c">Downloading</text><text font-size="1.67" x="12.024" y="1.67" class="d">■■■■■■■■■■■</text><text font-size="1.67" x="46.09199999999999" y="1.67" class="c">32%</text><text font-size="1.67" x="50.1" y="1.67" class="c">|</text><text font-size="1.67" x="52.104" y="1.67" class="c">ETA:</text><text font-size="1.67" x="58.116" y="1.67" class="c">3s</text></svg><svg x="720"><use xlink:href="#a"></use><text font-size="1.67" x="0" y="1.67" class="c">Downloading</text><text font-size="1.67" x="12.024" y="1.67" class="d">■■■■■■■■■■■■</text><text font-size="1.67" x="46.09199999999999" y="1.67" class="c">36%</text><text font-size="1.67" x="50.1" y="1.67" class="c">|</text><text font-size="1.67" x="52.104" y="1.67" class="c">ETA:</text><text font-size="1.67" x="58.116" y="1.67" class="c">3s</text></svg><svg x="800"><use xlink:href="#a"></use><text font-size="1.67" x="0" y="1.67" class="c">Downloading</text><text font-size="1.67" x="12.024" y="1.67" class="d">■■■■■■■■■■■■■</text><text font-size="1.67" x="46.09199999999999" y="1.67" class="c">41%</text><text font-size="1.67" x="50.1" y="1.67" class="c">|</text><text font-size="1.67" x="52.104" y="1.67" class="c">ETA:</text><text font-size="1.67" x="58.116" y="1.67" class="c">3s</text></svg><svg x="880"><use xlink:href="#a"></use><text font-size="1.67" x="0" y="1.67" class="c">Downloading</text><text font-size="1.67" x="12.024" y="1.67" class="d">■■■■■■■■■■■■■■■</text><text font-size="1.67" x="46.09199999999999" y="1.67" class="c">45%</text><text font-size="1.67" x="50.1" y="1.67" class="c">|</text><text font-size="1.67" x="52.104" y="1.67" class="c">ETA:</text><text font-size="1.67" x="58.116" y="1.67" class="c">3s</text></svg><svg x="960"><use xlink:href="#a"></use><text font-size="1.67" x="0" y="1.67" class="c">Downloading</text><text font-size="1.67" x="12.024" y="1.67" class="d">■■■■■■■■■■■■■■■■</text><text font-size="1.67" x="46.09199999999999" y="1.67" class="c">49%</text><text font-size="1.67" x="50.1" y="1.67" class="c">|</text><text font-size="1.67" x="52.104" y="1.67" class="c">ETA:</text><text font-size="1.67" x="58.116" y="1.67" class="c">2s</text></svg><svg x="1040"><use xlink:href="#a"></use><text font-size="1.67" x="0" y="1.67" class="c">Downloading</text><text font-size="1.67" x="12.024" y="1.67" class="d">■■■■■■■■■■■■■■■■■</text><text font-size="1.67" x="46.09199999999999" y="1.67" class="c">54%</text><text font-size="1.67" x="50.1" y="1.67" class="c">|</text><text font-size="1.67" x="52.104" y="1.67" class="c">ETA:</text><text font-size="1.67" x="58.116" y="1.67" class="c">2s</text></svg><svg x="1120"><use xlink:href="#a"></use><text font-size="1.67" x="0" y="1.67" class="c">Downloading</text><text font-size="1.67" x="12.024" y="1.67" class="d">■■■■■■■■■■■■■■■■■■</text><text font-size="1.67" x="46.09199999999999" y="1.67" class="c">58%</text><text font-size="1.67" x="50.1" y="1.67" class="c">|</text><text font-size="1.67" x="52.104" y="1.67" class="c">ETA:</text><text font-size="1.67" x="58.116" y="1.67" class="c">2s</text></svg><svg x="1200"><use xlink:href="#a"></use><text font-size="1.67" x="0" y="1.67" class="c">Downloading</text><text font-size="1.67" x="12.024" y="1.67" class="d">■■■■■■■■■■■■■■■■■■■■</text><text font-size="1.67" x="46.09199999999999" y="1.67" class="c">62%</text><text font-size="1.67" x="50.1" y="1.67" class="c">|</text><text font-size="1.67" x="52.104" y="1.67" class="c">ETA:</text><text font-size="1.67" x="58.116" y="1.67" class="c">2s</text></svg><svg x="1280"><use xlink:href="#a"></use><text font-size="1.67" x="0" y="1.67" class="c">Downloading</text><text font-size="1.67" x="12.024" y="1.67" class="d">■■■■■■■■■■■■■■■■■■■■■</text><text font-size="1.67" x="46.09199999999999" y="1.67" class="c">67%</text><text font-size="1.67" x="50.1" y="1.67" class="c">|</text><text font-size="1.67" x="52.104" y="1.67" class="c">ETA:</text><text font-size="1.67" x="58.116" y="1.67" class="c">2s</text></svg><svg x="1360"><use xlink:href="#a"></use><text font-size="1.67" x="0" y="1.67" class="c">Downloading</text><text font-size="1.67" x="12.024" y="1.67" class="d">■■■■■■■■■■■■■■■■■■■■■■</text><text font-size="1.67" x="46.09199999999999" y="1.67" class="c">71%</text><text font-size="1.67" x="50.1" y="1.67" class="c">|</text><text font-size="1.67" x="52.104" y="1.67" class="c">ETA:</text><text font-size="1.67" x="58.116" y="1.67" class="c">1s</text></svg><svg x="1440"><use xlink:href="#a"></use><text font-size="1.67" x="0" y="1.67" class="c">Downloading</text><text font-size="1.67" x="12.024" y="1.67" class="d">■■■■■■■■■■■■■■■■■■■■■■■■</text><text font-size="1.67" x="46.09199999999999" y="1.67" class="c">76%</text><text font-size="1.67" x="50.1" y="1.67" class="c">|</text><text font-size="1.67" x="52.104" y="1.67" class="c">ETA:</text><text font-size="1.67" x="58.116" y="1.67" class="c">1s</text></svg><svg x="1520"><use xlink:href="#a"></use><text font-size="1.67" x="0" y="1.67" class="c">Downloading</text><text font-size="1.67" x="12.024" y="1.67" class="d">■■■■■■■■■■■■■■■■■■■■■■■■■</text><text font-size="1.67" x="46.09199999999999" y="1.67" class="c">80%</text><text font-size="1.67" x="50.1" y="1.67" class="c">|</text><text font-size="1.67" x="52.104" y="1.67" class="c">ETA:</text><text font-size="1.67" x="58.116" y="1.67" class="c">1s</text></svg><svg x="1600"><use xlink:href="#a"></use><text font-size="1.67" x="0" y="1.67" class="c">Downloading</text><text font-size="1.67" x="12.024" y="1.67" class="d">■■■■■■■■■■■■■■■■■■■■■■■■■■</text><text font-size="1.67" x="46.09199999999999" y="1.67" class="c">84%</text><text font-size="1.67" x="50.1" y="1.67" class="c">|</text><text font-size="1.67" x="52.104" y="1.67" class="c">ETA:</text><text font-size="1.67" x="58.116" y="1.67" class="c">1s</text></svg><svg x="1680"><use xlink:href="#a"></use><text font-size="1.67" x="0" y="1.67" class="c">Downloading</text><text font-size="1.67" x="12.024" y="1.67" class="d">■■■■■■■■■■■■■■■■■■■■■■■■■■■■</text><text font-size="1.67" x="46.09199999999999" y="1.67" class="c">89%</text><text font-size="1.67" x="50.1" y="1.67" class="c">|</text><text font-size="1.67" x="52.104" y="1.67" class="c">ETA:</text><text font-size="1.67" x="58.116" y="1.67" class="c">1s</text></svg><svg x="1760"><use xlink:href="#a"></use><text font-size="1.67" x="0" y="1.67" class="c">Downloading</text><text font-size="1.67" x="12.024" y="1.67" class="d">■■■■■■■■■■■■■■■■■■■■■■■■■■■■■</text><text font-size="1.67" x="46.09199999999999" y="1.67" class="c">93%</text><text font-size="1.67" x="50.1" y="1.67" class="c">|</text><text font-size="1.67" x="52.104" y="1.67" class="c">ETA:</text><text font-size="1.67" x="58.116" y="1.67" class="c">0s</text></svg><svg x="1840"><use xlink:href="#a"></use><text font-size="1.67" x="0" y="1.67" class="c">Downloading</text><text font-size="1.67" x="12.024" y="1.67" class="d">■■■■■■■■■■■■■■■■■■■■■■■■■■■■■■</text><text font-size="1.67" x="46.09199999999999" y="1.67" class="c">97%</text><text font-size="1.67" x="50.1" y="1.67" class="c">|</text><text font-size="1.67" x="52.104" y="1.67" class="c">ETA:</text><text font-size="1.67" x="58.116" y="1.67" class="c">0s</text></svg><svg x="1920"><use xlink:href="#a"></use><use xlink:href="#1" y="0"></use></svg><svg x="2000"><use xlink:href="#a"></use><use xlink:href="#1" y="0"></use></svg><svg x="2080"><use xlink:href="#a"></use><use xlink:href="#1" y="0"></use></svg><svg x="2160"><use xlink:href="#a"></use><use xlink:href="#1" y="0"></use></svg></svg></g></g></svg></svg>