<svg xmlns="http://www.w3.org/2000/svg" xmlns:xlink="http://www.w3.org/1999/xlink" width="740" height="61.709999999999994"><rect width="740" height="61.709999999999994" rx="0" ry="0" class="a"></rect><svg height="21.709999999999997" viewBox="0 0 70 2.171" width="700" x="20" xmlns="http://www.w3.org/2000/svg" xmlns:xlink="http://www.w3.org/1999/xlink" y="20"><style>.a{fill:rgb(40,45,53)}.b{font-family:'Fira Code',Monaco,Consolas,Menlo,'Bitstream Vera Sans Mono','Powerline Symbols',monospace}.c{fill:rgb(185,192,203);white-space:pre}.d{fill:rgb(168,204,140);white-space:pre}.e{fill:transparent}.g{animation-duration:8.03127312660217s;animation-iteration-count:infinite;animation-name:f;animation-timing-function:steps(1,end)}@keyframes f{0%{transform:translateX(-0px)}0.1%{transform:translateX(-70px)}1.6%{transform:translateX(-140px)}1.7%{transform:translateX(-210px)}4%{transform:translateX(-280px)}5.7%{transform:translateX(-350px)}6.9%{transform:translateX(-420px)}8.1%{transform:translateX(-490px)}9.2%{transform:translateX(-560px)}10.4%{transform:translateX(-630px)}12.2%{transform:translateX(-700px)}13.4%{transform:translateX(-770px)}14.6%{transform:translateX(-840px)}15.8%{transform:translateX(-910px)}17%{transform:translateX(-980px)}18.2%{transform:translateX(-1050px)}19.3%{transform:translateX(-1120px)}20.5%{transform:translateX(-1190px)}21.8%{transform:translateX(-1260px)}23.6%{transform:translateX(-1330px)}24.8%{transform:translateX(-1400px)}26%{transform:translateX(-1470px)}27.1%{transform:translateX(-1540px)}28.3%{transform:translateX(-1610px)}29.5%{transform:translateX(-1680px)}30.9%{transform:translateX(-1750px)}32%{transform:translateX(-1820px)}33.2%{transform:translateX(-1890px)}34.4%{transform:translateX(-1960px)}36.1%{transform:translateX(-2030px)}37.2%{transform:translateX(-2100px)}38.5%{transform:translateX(-2170px)}39.7%{transform:translateX(-2240px)}40.9%{transform:translateX(-2310px)}42.6%{transform:translateX(-2380px)}43.9%{transform:translateX(-2450px)}45.1%{transform:translateX(-2520px)}46.2%{transform:translateX(-2590px)}47.4%{transform:translateX(-2660px)}48.7%{transform:translateX(-2730px)}50%{transform:translateX(-2800px)}51.1%{transform:translateX(-2870px)}52.4%{transform:translateX(-2940px)}53.6%{transform:translateX(-3010px)}54.8%{transform:translateX(-3080px)}56.5%{transform:translateX(-3150px)}57.6%{transform:translateX(-3220px)}58.9%{transform:translateX(-3290px)}60.1%{transform:translateX(-3360px)}61.4%{transform:translateX(-3430px)}61.4%{transform:translateX(-3500px)}100%{transform:translateX(-3570px)}}</style><g font-family="&#x27;Fira Code&#x27;,Monaco,Consolas,Menlo,&#x27;Bitstream Vera Sans Mono&#x27;,&#x27;Powerline Symbols&#x27;,monospace" font-size="1.67" class="b"><defs><symbol id="1"><text x="0" y="1.67" class="c">Downloading</text><text x="12.024" y="1.67" class="d">■■■■■■■■■■■■■■■■■■■■■■■■■■■■■■■</text><text x="45.089999999999996" y="1.67" class="c">100%</text><text x="50.1" y="1.67" class="c">|</text><text x="52.104" y="1.67" class="c">ETA:</text><text x="58.116" y="1.67" class="c">0s</text></symbol><symbol id="a"><rect height="2" width="70" x="0" y="0" class="e"></rect></symbol></defs><rect height="2.171" width="70" class="a"></rect><g class="g"><svg x="0" y="0" width="3640"><svg x="0"><use xlink:href="#a"></use></svg><svg x="70"><use xlink:href="#a"></use></svg><svg x="140"><use xlink:href="#a"></use></svg><svg x="210"><use xlink:href="#a"></use><text x="0" y="1.67" class="c">Downloading</text><text x="12.024" y="1.67" class="d">■</text><text x="47.093999999999994" y="1.67" class="c">0%</text><text x="50.1" y="1.67" class="c">|</text><text x="52.104" y="1.67" class="c">ETA:</text><text x="57.114" y="1.67" class="c">?</text></svg><svg x="280"><use xlink:href="#a"></use><text x="0" y="1.67" class="c">Downloading</text><text x="12.024" y="1.67" class="d">■■</text><text x="47.093999999999994" y="1.67" class="c">4%</text><text x="50.1" y="1.67" class="c">|</text><text x="52.104" y="1.67" class="c">ETA:</text><text x="58.116" y="1.67" class="c">4s</text></svg><svg x="350"><use xlink:href="#a"></use><text x="0" y="1.67" class="c">Downloading</text><text x="12.024" y="1.67" class="d">■■■</text><text x="47.093999999999994" y="1.67" class="c">7%</text><text x="50.1" y="1.67" class="c">|</text><text x="52.104" y="1.67" class="c">ETA:</text><text x="58.116" y="1.67" class="c">4s</text></svg><svg x="420"><use xlink:href="#a"></use><text x="0" y="1.67" class="c">Downloading</text><text x="12.024" y="1.67" class="d">■■■■</text><text x="47.093999999999994" y="1.67" class="c">9%</text><text x="50.1" y="1.67" class="c">|</text><text x="52.104" y="1.67" class="c">ETA:</text><text x="58.116" y="1.67" class="c">4s</text></svg><svg x="490"><use xlink:href="#a"></use><text x="0" y="1.67" class="c">Downloading</text><text x="12.024" y="1.67" class="d">■■■■</text><text x="46.09199999999999" y="1.67" class="c">11%</text><text x="50.1" y="1.67" class="c">|</text><text x="52.104" y="1.67" class="c">ETA:</text><text x="58.116" y="1.67" class="c">4s</text></svg><svg x="560"><use xlink:href="#a"></use><text x="0" y="1.67" class="c">Downloading</text><text x="12.024" y="1.67" class="d">■■■■■</text><text x="46.09199999999999" y="1.67" class="c">13%</text><text x="50.1" y="1.67" class="c">|</text><text x="52.104" y="1.67" class="c">ETA:</text><text x="58.116" y="1.67" class="c">4s</text></svg><svg x="630"><use xlink:href="#a"></use><text x="0" y="1.67" class="c">Downloading</text><text x="12.024" y="1.67" class="d">■■■■■</text><text x="46.09199999999999" y="1.67" class="c">15%</text><text x="50.1" y="1.67" class="c">|</text><text x="52.104" y="1.67" class="c">ETA:</text><text x="58.116" y="1.67" class="c">4s</text></svg><svg x="700"><use xlink:href="#a"></use><text x="0" y="1.67" class="c">Downloading</text><text x="12.024" y="1.67" class="d">■■■■■■</text><text x="46.09199999999999" y="1.67" class="c">18%</text><text x="50.1" y="1.67" class="c">|</text><text x="52.104" y="1.67" class="c">ETA:</text><text x="58.116" y="1.67" class="c">4s</text></svg><svg x="770"><use xlink:href="#a"></use><text x="0" y="1.67" class="c">Downloading</text><text x="12.024" y="1.67" class="d">■■■■■■■</text><text x="46.09199999999999" y="1.67" class="c">20%</text><text x="50.1" y="1.67" class="c">|</text><text x="52.104" y="1.67" class="c">ETA:</text><text x="58.116" y="1.67" class="c">4s</text></svg><svg x="840"><use xlink:href="#a"></use><text x="0" y="1.67" class="c">Downloading</text><text x="12.024" y="1.67" class="d">■■■■■■■■</text><text x="46.09199999999999" y="1.67" class="c">22%</text><text x="50.1" y="1.67" class="c">|</text><text x="52.104" y="1.67" class="c">ETA:</text><text x="58.116" y="1.67" class="c">4s</text></svg><svg x="910"><use xlink:href="#a"></use><text x="0" y="1.67" class="c">Downloading</text><text x="12.024" y="1.67" class="d">■■■■■■■■</text><text x="46.09199999999999" y="1.67" class="c">24%</text><text x="50.1" y="1.67" class="c">|</text><text x="52.104" y="1.67" class="c">ETA:</text><text x="58.116" y="1.67" class="c">4s</text></svg><svg x="980"><use xlink:href="#a"></use><text x="0" y="1.67" class="c">Downloading</text><text x="12.024" y="1.67" class="d">■■■■■■■■■</text><text x="46.09199999999999" y="1.67" class="c">26%</text><text x="50.1" y="1.67" class="c">|</text><text x="52.104" y="1.67" class="c">ETA:</text><text x="58.116" y="1.67" class="c">4s</text></svg><svg x="1050"><use xlink:href="#a"></use><text x="0" y="1.67" class="c">Downloading</text><text x="12.024" y="1.67" class="d">■■■■■■■■■</text><text x="46.09199999999999" y="1.67" class="c">28%</text><text x="50.1" y="1.67" class="c">|</text><text x="52.104" y="1.67" class="c">ETA:</text><text x="58.116" y="1.67" class="c">3s</text></svg><svg x="1120"><use xlink:href="#a"></use><text x="0" y="1.67" class="c">Downloading</text><text x="12.024" y="1.67" class="d">■■■■■■■■■■</text><text x="46.09199999999999" y="1.67" class="c">30%</text><text x="50.1" y="1.67" class="c">|</text><text x="52.104" y="1.67" class="c">ETA:</text><text x="58.116" y="1.67" class="c">3s</text></svg><svg x="1190"><use xlink:href="#a"></use><text x="0" y="1.67" class="c">Downloading</text><text x="12.024" y="1.67" class="d">■■■■■■■■■■■</text><text x="46.09199999999999" y="1.67" class="c">32%</text><text x="50.1" y="1.67" class="c">|</text><text x="52.104" y="1.67" class="c">ETA:</text><text x="58.116" y="1.67" class="c">3s</text></svg><svg x="1260"><use xlink:href="#a"></use><text x="0" y="1.67" class="c">Downloading</text><text x="12.024" y="1.67" class="d">■■■■■■■■■■■</text><text x="46.09199999999999" y="1.67" class="c">34%</text><text x="50.1" y="1.67" class="c">|</text><text x="52.104" y="1.67" class="c">ETA:</text><text x="58.116" y="1.67" class="c">3s</text></svg><svg x="1330"><use xlink:href="#a"></use><text x="0" y="1.67" class="c">Downloading</text><text x="12.024" y="1.67" class="d">■■■■■■■■■■■■</text><text x="46.09199999999999" y="1.67" class="c">37%</text><text x="50.1" y="1.67" class="c">|</text><text x="52.104" y="1.67" class="c">ETA:</text><text x="58.116" y="1.67" class="c">3s</text></svg><svg x="1400"><use xlink:href="#a"></use><text x="0" y="1.67" class="c">Downloading</text><text x="12.024" y="1.67" class="d">■■■■■■■■■■■■■</text><text x="46.09199999999999" y="1.67" class="c">39%</text><text x="50.1" y="1.67" class="c">|</text><text x="52.104" y="1.67" class="c">ETA:</text><text x="58.116" y="1.67" class="c">3s</text></svg><svg x="1470"><use xlink:href="#a"></use><text x="0" y="1.67" class="c">Downloading</text><text x="12.024" y="1.67" class="d">■■■■■■■■■■■■■</text><text x="46.09199999999999" y="1.67" class="c">41%</text><text x="50.1" y="1.67" class="c">|</text><text x="52.104" y="1.67" class="c">ETA:</text><text x="58.116" y="1.67" class="c">3s</text></svg><svg x="1540"><use xlink:href="#a"></use><text x="0" y="1.67" class="c">Downloading</text><text x="12.024" y="1.67" class="d">■■■■■■■■■■■■■■</text><text x="46.09199999999999" y="1.67" class="c">43%</text><text x="50.1" y="1.67" class="c">|</text><text x="52.104" y="1.67" class="c">ETA:</text><text x="58.116" y="1.67" class="c">3s</text></svg><svg x="1610"><use xlink:href="#a"></use><text x="0" y="1.67" class="c">Downloading</text><text x="12.024" y="1.67" class="d">■■■■■■■■■■■■■■■</text><text x="46.09199999999999" y="1.67" class="c">45%</text><text x="50.1" y="1.67" class="c">|</text><text x="52.104" y="1.67" class="c">ETA:</text><text x="58.116" y="1.67" class="c">3s</text></svg><svg x="1680"><use xlink:href="#a"></use><text x="0" y="1.67" class="c">Downloading</text><text x="12.024" y="1.67" class="d">■■■■■■■■■■■■■■■</text><text x="46.09199999999999" y="1.67" class="c">47%</text><text x="50.1" y="1.67" class="c">|</text><text x="52.104" y="1.67" class="c">ETA:</text><text x="58.116" y="1.67" class="c">3s</text></svg><svg x="1750"><use xlink:href="#a"></use><text x="0" y="1.67" class="c">Downloading</text><text x="12.024" y="1.67" class="d">■■■■■■■■■■■■■■■■</text><text x="46.09199999999999" y="1.67" class="c">49%</text><text x="50.1" y="1.67" class="c">|</text><text x="52.104" y="1.67" class="c">ETA:</text><text x="58.116" y="1.67" class="c">2s</text></svg><svg x="1820"><use xlink:href="#a"></use><text x="0" y="1.67" class="c">Downloading</text><text x="12.024" y="1.67" class="d">■■■■■■■■■■■■■■■■</text><text x="46.09199999999999" y="1.67" class="c">51%</text><text x="50.1" y="1.67" class="c">|</text><text x="52.104" y="1.67" class="c">ETA:</text><text x="58.116" y="1.67" class="c">2s</text></svg><svg x="1890"><use xlink:href="#a"></use><text x="0" y="1.67" class="c">Downloading</text><text x="12.024" y="1.67" class="d">■■■■■■■■■■■■■■■■■</text><text x="46.09199999999999" y="1.67" class="c">53%</text><text x="50.1" y="1.67" class="c">|</text><text x="52.104" y="1.67" class="c">ETA:</text><text x="58.116" y="1.67" class="c">2s</text></svg><svg x="1960"><use xlink:href="#a"></use><text x="0" y="1.67" class="c">Downloading</text><text x="12.024" y="1.67" class="d">■■■■■■■■■■■■■■■■■</text><text x="46.09199999999999" y="1.67" class="c">55%</text><text x="50.1" y="1.67" class="c">|</text><text x="52.104" y="1.67" class="c">ETA:</text><text x="58.116" y="1.67" class="c">2s</text></svg><svg x="2030"><use xlink:href="#a"></use><text x="0" y="1.67" class="c">Downloading</text><text x="12.024" y="1.67" class="d">■■■■■■■■■■■■■■■■■■</text><text x="46.09199999999999" y="1.67" class="c">58%</text><text x="50.1" y="1.67" class="c">|</text><text x="52.104" y="1.67" class="c">ETA:</text><text x="58.116" y="1.67" class="c">2s</text></svg><svg x="2100"><use xlink:href="#a"></use><text x="0" y="1.67" class="c">Downloading</text><text x="12.024" y="1.67" class="d">■■■■■■■■■■■■■■■■■■■</text><text x="46.09199999999999" y="1.67" class="c">60%</text><text x="50.1" y="1.67" class="c">|</text><text x="52.104" y="1.67" class="c">ETA:</text><text x="58.116" y="1.67" class="c">2s</text></svg><svg x="2170"><use xlink:href="#a"></use><text x="0" y="1.67" class="c">Downloading</text><text x="12.024" y="1.67" class="d">■■■■■■■■■■■■■■■■■■■■</text><text x="46.09199999999999" y="1.67" class="c">62%</text><text x="50.1" y="1.67" class="c">|</text><text x="52.104" y="1.67" class="c">ETA:</text><text x="58.116" y="1.67" class="c">2s</text></svg><svg x="2240"><use xlink:href="#a"></use><text x="0" y="1.67" class="c">Downloading</text><text x="12.024" y="1.67" class="d">■■■■■■■■■■■■■■■■■■■■</text><text x="46.09199999999999" y="1.67" class="c">64%</text><text x="50.1" y="1.67" class="c">|</text><text x="52.104" y="1.67" class="c">ETA:</text><text x="58.116" y="1.67" class="c">2s</text></svg><svg x="2310"><use xlink:href="#a"></use><text x="0" y="1.67" class="c">Downloading</text><text x="12.024" y="1.67" class="d">■■■■■■■■■■■■■■■■■■■■■</text><text x="46.09199999999999" y="1.67" class="c">66%</text><text x="50.1" y="1.67" class="c">|</text><text x="52.104" y="1.67" class="c">ETA:</text><text x="58.116" y="1.67" class="c">2s</text></svg><svg x="2380"><use xlink:href="#a"></use><text x="0" y="1.67" class="c">Downloading</text><text x="12.024" y="1.67" class="d">■■■■■■■■■■■■■■■■■■■■■■</text><text x="46.09199999999999" y="1.67" class="c">69%</text><text x="50.1" y="1.67" class="c">|</text><text x="52.104" y="1.67" class="c">ETA:</text><text x="58.116" y="1.67" class="c">1s</text></svg><svg x="2450"><use xlink:href="#a"></use><text x="0" y="1.67" class="c">Downloading</text><text x="12.024" y="1.67" class="d">■■■■■■■■■■■■■■■■■■■■■■</text><text x="46.09199999999999" y="1.67" class="c">71%</text><text x="50.1" y="1.67" class="c">|</text><text x="52.104" y="1.67" class="c">ETA:</text><text x="58.116" y="1.67" class="c">1s</text></svg><svg x="2520"><use xlink:href="#a"></use><text x="0" y="1.67" class="c">Downloading</text><text x="12.024" y="1.67" class="d">■■■■■■■■■■■■■■■■■■■■■■■</text><text x="46.09199999999999" y="1.67" class="c">73%</text><text x="50.1" y="1.67" class="c">|</text><text x="52.104" y="1.67" class="c">ETA:</text><text x="58.116" y="1.67" class="c">1s</text></svg><svg x="2590"><use xlink:href="#a"></use><text x="0" y="1.67" class="c">Downloading</text><text x="12.024" y="1.67" class="d">■■■■■■■■■■■■■■■■■■■■■■■</text><text x="46.09199999999999" y="1.67" class="c">75%</text><text x="50.1" y="1.67" class="c">|</text><text x="52.104" y="1.67" class="c">ETA:</text><text x="58.116" y="1.67" class="c">1s</text></svg><svg x="2660"><use xlink:href="#a"></use><text x="0" y="1.67" class="c">Downloading</text><text x="12.024" y="1.67" class="d">■■■■■■■■■■■■■■■■■■■■■■■■</text><text x="46.09199999999999" y="1.67" class="c">77%</text><text x="50.1" y="1.67" class="c">|</text><text x="52.104" y="1.67" class="c">ETA:</text><text x="58.116" y="1.67" class="c">1s</text></svg><svg x="2730"><use xlink:href="#a"></use><text x="0" y="1.67" class="c">Downloading</text><text x="12.024" y="1.67" class="d">■■■■■■■■■■■■■■■■■■■■■■■■■</text><text x="46.09199999999999" y="1.67" class="c">79%</text><text x="50.1" y="1.67" class="c">|</text><text x="52.104" y="1.67" class="c">ETA:</text><text x="58.116" y="1.67" class="c">1s</text></svg><svg x="2800"><use xlink:href="#a"></use><text x="0" y="1.67" class="c">Downloading</text><text x="12.024" y="1.67" class="d">■■■■■■■■■■■■■■■■■■■■■■■■■</text><text x="46.09199999999999" y="1.67" class="c">81%</text><text x="50.1" y="1.67" class="c">|</text><text x="52.104" y="1.67" class="c">ETA:</text><text x="58.116" y="1.67" class="c">1s</text></svg><svg x="2870"><use xlink:href="#a"></use><text x="0" y="1.67" class="c">Downloading</text><text x="12.024" y="1.67" class="d">■■■■■■■■■■■■■■■■■■■■■■■■■■</text><text x="46.09199999999999" y="1.67" class="c">83%</text><text x="50.1" y="1.67" class="c">|</text><text x="52.104" y="1.67" class="c">ETA:</text><text x="58.116" y="1.67" class="c">1s</text></svg><svg x="2940"><use xlink:href="#a"></use><text x="0" y="1.67" class="c">Downloading</text><text x="12.024" y="1.67" class="d">■■■■■■■■■■■■■■■■■■■■■■■■■■■</text><text x="46.09199999999999" y="1.67" class="c">85%</text><text x="50.1" y="1.67" class="c">|</text><text x="52.104" y="1.67" class="c">ETA:</text><text x="58.116" y="1.67" class="c">1s</text></svg><svg x="3010"><use xlink:href="#a"></use><text x="0" y="1.67" class="c">Downloading</text><text x="12.024" y="1.67" class="d">■■■■■■■■■■■■■■■■■■■■■■■■■■■</text><text x="46.09199999999999" y="1.67" class="c">87%</text><text x="50.1" y="1.67" class="c">|</text><text x="52.104" y="1.67" class="c">ETA:</text><text x="58.116" y="1.67" class="c">1s</text></svg><svg x="3080"><use xlink:href="#a"></use><text x="0" y="1.67" class="c">Downloading</text><text x="12.024" y="1.67" class="d">■■■■■■■■■■■■■■■■■■■■■■■■■■■■</text><text x="46.09199999999999" y="1.67" class="c">89%</text><text x="50.1" y="1.67" class="c">|</text><text x="52.104" y="1.67" class="c">ETA:</text><text x="58.116" y="1.67" class="c">1s</text></svg><svg x="3150"><use xlink:href="#a"></use><text x="0" y="1.67" class="c">Downloading</text><text x="12.024" y="1.67" class="d">■■■■■■■■■■■■■■■■■■■■■■■■■■■■■</text><text x="46.09199999999999" y="1.67" class="c">92%</text><text x="50.1" y="1.67" class="c">|</text><text x="52.104" y="1.67" class="c">ETA:</text><text x="58.116" y="1.67" class="c">0s</text></svg><svg x="3220"><use xlink:href="#a"></use><text x="0" y="1.67" class="c">Downloading</text><text x="12.024" y="1.67" class="d">■■■■■■■■■■■■■■■■■■■■■■■■■■■■■</text><text x="46.09199999999999" y="1.67" class="c">94%</text><text x="50.1" y="1.67" class="c">|</text><text x="52.104" y="1.67" class="c">ETA:</text><text x="58.116" y="1.67" class="c">0s</text></svg><svg x="3290"><use xlink:href="#a"></use><text x="0" y="1.67" class="c">Downloading</text><text x="12.024" y="1.67" class="d">■■■■■■■■■■■■■■■■■■■■■■■■■■■■■■</text><text x="46.09199999999999" y="1.67" class="c">96%</text><text x="50.1" y="1.67" class="c">|</text><text x="52.104" y="1.67" class="c">ETA:</text><text x="58.116" y="1.67" class="c">0s</text></svg><svg x="3360"><use xlink:href="#a"></use><text x="0" y="1.67" class="c">Downloading</text><text x="12.024" y="1.67" class="d">■■■■■■■■■■■■■■■■■■■■■■■■■■■■■■</text><text x="46.09199999999999" y="1.67" class="c">98%</text><text x="50.1" y="1.67" class="c">|</text><text x="52.104" y="1.67" class="c">ETA:</text><text x="58.116" y="1.67" class="c">0s</text></svg><svg x="3430"><use xlink:href="#a"></use><use xlink:href="#1" y="0"></use></svg><svg x="3500"><use xlink:href="#a"></use><use xlink:href="#1" y="0"></use></svg><svg x="3570"><use xlink:href="#a"></use><use xlink:href="#1" y="0"></use></svg></svg></g></g></svg></svg>