<svg xmlns="http://www.w3.org/2000/svg" xmlns:xlink="http://www.w3.org/1999/xlink" width="740" height="61.709999999999994"><rect width="740" height="61.709999999999994" rx="0" ry="0" class="a"></rect><svg height="21.709999999999997" viewBox="0 0 70 2.171" width="700" x="20" xmlns="http://www.w3.org/2000/svg" xmlns:xlink="http://www.w3.org/1999/xlink" y="20"><style>.a{fill:rgb(40,45,53)}.b{font-family:'Fira Code',Monaco,Consolas,Menlo,'Bitstream Vera Sans Mono','Powerline Symbols',monospace}.c{fill:rgb(185,192,203);white-space:pre}.d{fill:transparent}.f{animation-duration:6.87520289421082s;animation-iteration-count:infinite;animation-name:e;animation-timing-function:steps(1,end)}@keyframes e{0%{transform:translateX(-0px)}0.1%{transform:translateX(-70px)}2.3%{transform:translateX(-140px)}2.5%{transform:translateX(-210px)}4.1%{transform:translateX(-280px)}5.2%{transform:translateX(-350px)}6.7%{transform:translateX(-420px)}8.3%{transform:translateX(-490px)}9.8%{transform:translateX(-560px)}11.4%{transform:translateX(-630px)}12.9%{transform:translateX(-700px)}14.5%{transform:translateX(-770px)}16.1%{transform:translateX(-840px)}17.1%{transform:translateX(-910px)}18.7%{transform:translateX(-980px)}20.3%{transform:translateX(-1050px)}21.9%{transform:translateX(-1120px)}23.4%{transform:translateX(-1190px)}24.5%{transform:translateX(-1260px)}26.1%{transform:translateX(-1330px)}27.6%{transform:translateX(-1400px)}29.2%{transform:translateX(-1470px)}30.7%{transform:translateX(-1540px)}32.2%{transform:translateX(-1610px)}33.8%{transform:translateX(-1680px)}34.9%{transform:translateX(-1750px)}36.4%{transform:translateX(-1820px)}38.1%{transform:translateX(-1890px)}39.7%{transform:translateX(-1960px)}41.3%{transform:translateX(-2030px)}42.4%{transform:translateX(-2100px)}43.9%{transform:translateX(-2170px)}45.5%{transform:translateX(-2240px)}47.1%{transform:translateX(-2310px)}48.7%{transform:translateX(-2380px)}49.9%{transform:translateX(-2450px)}51.5%{transform:translateX(-2520px)}53.1%{transform:translateX(-2590px)}54.2%{transform:translateX(-2660px)}54.9%{transform:translateX(-2730px)}54.9%{transform:translateX(-2800px)}100%{transform:translateX(-2870px)}}</style><g font-family="&#x27;Fira Code&#x27;,Monaco,Consolas,Menlo,&#x27;Bitstream Vera Sans Mono&#x27;,&#x27;Powerline Symbols&#x27;,monospace" font-size="1.67" class="b"><defs><symbol id="1"><text x="0" y="1.67" class="c">⠦</text><text x="2.004" y="1.67" class="c">Parameter</text><text x="12.024" y="1.67" class="c">tuning</text><text x="19.037999999999997" y="1.67" class="c">100</text><text x="23.045999999999996" y="1.67" class="c">done</text><text x="28.055999999999997" y="1.67" class="c">(27/s)</text><text x="35.06999999999999" y="1.67" class="c">|</text><text x="37.074" y="1.67" class="c">3.6s</text></symbol><symbol id="a"><rect height="2" width="70" x="0" y="0" class="d"></rect></symbol></defs><rect height="2.171" width="70" class="a"></rect><g class="f"><svg x="0" y="0" width="2940"><svg x="0"><use xlink:href="#a"></use></svg><svg x="70"><use xlink:href="#a"></use></svg><svg x="140"><use xlink:href="#a"></use></svg><svg x="210"><use xlink:href="#a"></use><text x="0" y="1.67" class="c">⠙</text><text x="2.004" y="1.67" class="c">Parameter</text><text x="12.024" y="1.67" class="c">tuning</text><text x="19.037999999999997" y="1.67" class="c">1</text><text x="21.041999999999998" y="1.67" class="c">done</text><text x="26.052" y="1.67" class="c">(28/s)</text><text x="33.065999999999995" y="1.67" class="c">|</text><text x="35.06999999999999" y="1.67" class="c">36ms</text></svg><svg x="280"><use xlink:href="#a"></use><text x="0" y="1.67" class="c">⠹</text><text x="2.004" y="1.67" class="c">Parameter</text><text x="12.024" y="1.67" class="c">tuning</text><text x="19.037999999999997" y="1.67" class="c">4</text><text x="21.041999999999998" y="1.67" class="c">done</text><text x="26.052" y="1.67" class="c">(26/s)</text><text x="33.065999999999995" y="1.67" class="c">|</text><text x="35.06999999999999" y="1.67" class="c">152ms</text></svg><svg x="350"><use xlink:href="#a"></use><text x="0" y="1.67" class="c">⠸</text><text x="2.004" y="1.67" class="c">Parameter</text><text x="12.024" y="1.67" class="c">tuning</text><text x="19.037999999999997" y="1.67" class="c">6</text><text x="21.041999999999998" y="1.67" class="c">done</text><text x="26.052" y="1.67" class="c">(26/s)</text><text x="33.065999999999995" y="1.67" class="c">|</text><text x="35.06999999999999" y="1.67" class="c">228ms</text></svg><svg x="420"><use xlink:href="#a"></use><text x="0" y="1.67" class="c">⠼</text><text x="2.004" y="1.67" class="c">Parameter</text><text x="12.024" y="1.67" class="c">tuning</text><text x="19.037999999999997" y="1.67" class="c">9</text><text x="21.041999999999998" y="1.67" class="c">done</text><text x="26.052" y="1.67" class="c">(27/s)</text><text x="33.065999999999995" y="1.67" class="c">|</text><text x="35.06999999999999" y="1.67" class="c">335ms</text></svg><svg x="490"><use xlink:href="#a"></use><text x="0" y="1.67" class="c">⠴</text><text x="2.004" y="1.67" class="c">Parameter</text><text x="12.024" y="1.67" class="c">tuning</text><text x="19.037999999999997" y="1.67" class="c">12</text><text x="22.043999999999997" y="1.67" class="c">done</text><text x="27.054" y="1.67" class="c">(27/s)</text><text x="34.068" y="1.67" class="c">|</text><text x="36.071999999999996" y="1.67" class="c">442ms</text></svg><svg x="560"><use xlink:href="#a"></use><text x="0" y="1.67" class="c">⠦</text><text x="2.004" y="1.67" class="c">Parameter</text><text x="12.024" y="1.67" class="c">tuning</text><text x="19.037999999999997" y="1.67" class="c">15</text><text x="22.043999999999997" y="1.67" class="c">done</text><text x="27.054" y="1.67" class="c">(27/s)</text><text x="34.068" y="1.67" class="c">|</text><text x="36.071999999999996" y="1.67" class="c">549ms</text></svg><svg x="630"><use xlink:href="#a"></use><text x="0" y="1.67" class="c">⠧</text><text x="2.004" y="1.67" class="c">Parameter</text><text x="12.024" y="1.67" class="c">tuning</text><text x="19.037999999999997" y="1.67" class="c">18</text><text x="22.043999999999997" y="1.67" class="c">done</text><text x="27.054" y="1.67" class="c">(28/s)</text><text x="34.068" y="1.67" class="c">|</text><text x="36.071999999999996" y="1.67" class="c">655ms</text></svg><svg x="700"><use xlink:href="#a"></use><text x="0" y="1.67" class="c">⠇</text><text x="2.004" y="1.67" class="c">Parameter</text><text x="12.024" y="1.67" class="c">tuning</text><text x="19.037999999999997" y="1.67" class="c">21</text><text x="22.043999999999997" y="1.67" class="c">done</text><text x="27.054" y="1.67" class="c">(28/s)</text><text x="34.068" y="1.67" class="c">|</text><text x="36.071999999999996" y="1.67" class="c">761ms</text></svg><svg x="770"><use xlink:href="#a"></use><text x="0" y="1.67" class="c">⠏</text><text x="2.004" y="1.67" class="c">Parameter</text><text x="12.024" y="1.67" class="c">tuning</text><text x="19.037999999999997" y="1.67" class="c">24</text><text x="22.043999999999997" y="1.67" class="c">done</text><text x="27.054" y="1.67" class="c">(28/s)</text><text x="34.068" y="1.67" class="c">|</text><text x="36.071999999999996" y="1.67" class="c">869ms</text></svg><svg x="840"><use xlink:href="#a"></use><text x="0" y="1.67" class="c">⠋</text><text x="2.004" y="1.67" class="c">Parameter</text><text x="12.024" y="1.67" class="c">tuning</text><text x="19.037999999999997" y="1.67" class="c">27</text><text x="22.043999999999997" y="1.67" class="c">done</text><text x="27.054" y="1.67" class="c">(28/s)</text><text x="34.068" y="1.67" class="c">|</text><text x="36.071999999999996" y="1.67" class="c">975ms</text></svg><svg x="910"><use xlink:href="#a"></use><text x="0" y="1.67" class="c">⠙</text><text x="2.004" y="1.67" class="c">Parameter</text><text x="12.024" y="1.67" class="c">tuning</text><text x="19.037999999999997" y="1.67" class="c">29</text><text x="22.043999999999997" y="1.67" class="c">done</text><text x="27.054" y="1.67" class="c">(28/s)</text><text x="34.068" y="1.67" class="c">|</text><text x="36.071999999999996" y="1.67" class="c">1s</text></svg><svg x="980"><use xlink:href="#a"></use><text x="0" y="1.67" class="c">⠹</text><text x="2.004" y="1.67" class="c">Parameter</text><text x="12.024" y="1.67" class="c">tuning</text><text x="19.037999999999997" y="1.67" class="c">32</text><text x="22.043999999999997" y="1.67" class="c">done</text><text x="27.054" y="1.67" class="c">(28/s)</text><text x="34.068" y="1.67" class="c">|</text><text x="36.071999999999996" y="1.67" class="c">1.2s</text></svg><svg x="1050"><use xlink:href="#a"></use><text x="0" y="1.67" class="c">⠸</text><text x="2.004" y="1.67" class="c">Parameter</text><text x="12.024" y="1.67" class="c">tuning</text><text x="19.037999999999997" y="1.67" class="c">35</text><text x="22.043999999999997" y="1.67" class="c">done</text><text x="27.054" y="1.67" class="c">(28/s)</text><text x="34.068" y="1.67" class="c">|</text><text x="36.071999999999996" y="1.67" class="c">1.3s</text></svg><svg x="1120"><use xlink:href="#a"></use><text x="0" y="1.67" class="c">⠼</text><text x="2.004" y="1.67" class="c">Parameter</text><text x="12.024" y="1.67" class="c">tuning</text><text x="19.037999999999997" y="1.67" class="c">38</text><text x="22.043999999999997" y="1.67" class="c">done</text><text x="27.054" y="1.67" class="c">(28/s)</text><text x="34.068" y="1.67" class="c">|</text><text x="36.071999999999996" y="1.67" class="c">1.4s</text></svg><svg x="1190"><use xlink:href="#a"></use><text x="0" y="1.67" class="c">⠴</text><text x="2.004" y="1.67" class="c">Parameter</text><text x="12.024" y="1.67" class="c">tuning</text><text x="19.037999999999997" y="1.67" class="c">41</text><text x="22.043999999999997" y="1.67" class="c">done</text><text x="27.054" y="1.67" class="c">(28/s)</text><text x="34.068" y="1.67" class="c">|</text><text x="36.071999999999996" y="1.67" class="c">1.5s</text></svg><svg x="1260"><use xlink:href="#a"></use><text x="0" y="1.67" class="c">⠦</text><text x="2.004" y="1.67" class="c">Parameter</text><text x="12.024" y="1.67" class="c">tuning</text><text x="19.037999999999997" y="1.67" class="c">43</text><text x="22.043999999999997" y="1.67" class="c">done</text><text x="27.054" y="1.67" class="c">(28/s)</text><text x="34.068" y="1.67" class="c">|</text><text x="36.071999999999996" y="1.67" class="c">1.6s</text></svg><svg x="1330"><use xlink:href="#a"></use><text x="0" y="1.67" class="c">⠧</text><text x="2.004" y="1.67" class="c">Parameter</text><text x="12.024" y="1.67" class="c">tuning</text><text x="19.037999999999997" y="1.67" class="c">46</text><text x="22.043999999999997" y="1.67" class="c">done</text><text x="27.054" y="1.67" class="c">(28/s)</text><text x="34.068" y="1.67" class="c">|</text><text x="36.071999999999996" y="1.67" class="c">1.7s</text></svg><svg x="1400"><use xlink:href="#a"></use><text x="0" y="1.67" class="c">⠇</text><text x="2.004" y="1.67" class="c">Parameter</text><text x="12.024" y="1.67" class="c">tuning</text><text x="19.037999999999997" y="1.67" class="c">49</text><text x="22.043999999999997" y="1.67" class="c">done</text><text x="27.054" y="1.67" class="c">(28/s)</text><text x="34.068" y="1.67" class="c">|</text><text x="36.071999999999996" y="1.67" class="c">1.8s</text></svg><svg x="1470"><use xlink:href="#a"></use><text x="0" y="1.67" class="c">⠏</text><text x="2.004" y="1.67" class="c">Parameter</text><text x="12.024" y="1.67" class="c">tuning</text><text x="19.037999999999997" y="1.67" class="c">52</text><text x="22.043999999999997" y="1.67" class="c">done</text><text x="27.054" y="1.67" class="c">(28/s)</text><text x="34.068" y="1.67" class="c">|</text><text x="36.071999999999996" y="1.67" class="c">1.9s</text></svg><svg x="1540"><use xlink:href="#a"></use><text x="0" y="1.67" class="c">⠋</text><text x="2.004" y="1.67" class="c">Parameter</text><text x="12.024" y="1.67" class="c">tuning</text><text x="19.037999999999997" y="1.67" class="c">55</text><text x="22.043999999999997" y="1.67" class="c">done</text><text x="27.054" y="1.67" class="c">(28/s)</text><text x="34.068" y="1.67" class="c">|</text><text x="36.071999999999996" y="1.67" class="c">2s</text></svg><svg x="1610"><use xlink:href="#a"></use><text x="0" y="1.67" class="c">⠙</text><text x="2.004" y="1.67" class="c">Parameter</text><text x="12.024" y="1.67" class="c">tuning</text><text x="19.037999999999997" y="1.67" class="c">58</text><text x="22.043999999999997" y="1.67" class="c">done</text><text x="27.054" y="1.67" class="c">(28/s)</text><text x="34.068" y="1.67" class="c">|</text><text x="36.071999999999996" y="1.67" class="c">2.1s</text></svg><svg x="1680"><use xlink:href="#a"></use><text x="0" y="1.67" class="c">⠹</text><text x="2.004" y="1.67" class="c">Parameter</text><text x="12.024" y="1.67" class="c">tuning</text><text x="19.037999999999997" y="1.67" class="c">61</text><text x="22.043999999999997" y="1.67" class="c">done</text><text x="27.054" y="1.67" class="c">(28/s)</text><text x="34.068" y="1.67" class="c">|</text><text x="36.071999999999996" y="1.67" class="c">2.2s</text></svg><svg x="1750"><use xlink:href="#a"></use><text x="0" y="1.67" class="c">⠸</text><text x="2.004" y="1.67" class="c">Parameter</text><text x="12.024" y="1.67" class="c">tuning</text><text x="19.037999999999997" y="1.67" class="c">63</text><text x="22.043999999999997" y="1.67" class="c">done</text><text x="27.054" y="1.67" class="c">(28/s)</text><text x="34.068" y="1.67" class="c">|</text><text x="36.071999999999996" y="1.67" class="c">2.3s</text></svg><svg x="1820"><use xlink:href="#a"></use><text x="0" y="1.67" class="c">⠼</text><text x="2.004" y="1.67" class="c">Parameter</text><text x="12.024" y="1.67" class="c">tuning</text><text x="19.037999999999997" y="1.67" class="c">66</text><text x="22.043999999999997" y="1.67" class="c">done</text><text x="27.054" y="1.67" class="c">(28/s)</text><text x="34.068" y="1.67" class="c">|</text><text x="36.071999999999996" y="1.67" class="c">2.4s</text></svg><svg x="1890"><use xlink:href="#a"></use><text x="0" y="1.67" class="c">⠴</text><text x="2.004" y="1.67" class="c">Parameter</text><text x="12.024" y="1.67" class="c">tuning</text><text x="19.037999999999997" y="1.67" class="c">69</text><text x="22.043999999999997" y="1.67" class="c">done</text><text x="27.054" y="1.67" class="c">(28/s)</text><text x="34.068" y="1.67" class="c">|</text><text x="36.071999999999996" y="1.67" class="c">2.5s</text></svg><svg x="1960"><use xlink:href="#a"></use><text x="0" y="1.67" class="c">⠦</text><text x="2.004" y="1.67" class="c">Parameter</text><text x="12.024" y="1.67" class="c">tuning</text><text x="19.037999999999997" y="1.67" class="c">72</text><text x="22.043999999999997" y="1.67" class="c">done</text><text x="27.054" y="1.67" class="c">(28/s)</text><text x="34.068" y="1.67" class="c">|</text><text x="36.071999999999996" y="1.67" class="c">2.6s</text></svg><svg x="2030"><use xlink:href="#a"></use><text x="0" y="1.67" class="c">⠧</text><text x="2.004" y="1.67" class="c">Parameter</text><text x="12.024" y="1.67" class="c">tuning</text><text x="19.037999999999997" y="1.67" class="c">75</text><text x="22.043999999999997" y="1.67" class="c">done</text><text x="27.054" y="1.67" class="c">(28/s)</text><text x="34.068" y="1.67" class="c">|</text><text x="36.071999999999996" y="1.67" class="c">2.7s</text></svg><svg x="2100"><use xlink:href="#a"></use><text x="0" y="1.67" class="c">⠇</text><text x="2.004" y="1.67" class="c">Parameter</text><text x="12.024" y="1.67" class="c">tuning</text><text x="19.037999999999997" y="1.67" class="c">77</text><text x="22.043999999999997" y="1.67" class="c">done</text><text x="27.054" y="1.67" class="c">(28/s)</text><text x="34.068" y="1.67" class="c">|</text><text x="36.071999999999996" y="1.67" class="c">2.8s</text></svg><svg x="2170"><use xlink:href="#a"></use><text x="0" y="1.67" class="c">⠏</text><text x="2.004" y="1.67" class="c">Parameter</text><text x="12.024" y="1.67" class="c">tuning</text><text x="19.037999999999997" y="1.67" class="c">80</text><text x="22.043999999999997" y="1.67" class="c">done</text><text x="27.054" y="1.67" class="c">(28/s)</text><text x="34.068" y="1.67" class="c">|</text><text x="36.071999999999996" y="1.67" class="c">2.9s</text></svg><svg x="2240"><use xlink:href="#a"></use><text x="0" y="1.67" class="c">⠋</text><text x="2.004" y="1.67" class="c">Parameter</text><text x="12.024" y="1.67" class="c">tuning</text><text x="19.037999999999997" y="1.67" class="c">83</text><text x="22.043999999999997" y="1.67" class="c">done</text><text x="27.054" y="1.67" class="c">(28/s)</text><text x="34.068" y="1.67" class="c">|</text><text x="36.071999999999996" y="1.67" class="c">3s</text></svg><svg x="2310"><use xlink:href="#a"></use><text x="0" y="1.67" class="c">⠙</text><text x="2.004" y="1.67" class="c">Parameter</text><text x="12.024" y="1.67" class="c">tuning</text><text x="19.037999999999997" y="1.67" class="c">86</text><text x="22.043999999999997" y="1.67" class="c">done</text><text x="27.054" y="1.67" class="c">(28/s)</text><text x="34.068" y="1.67" class="c">|</text><text x="36.071999999999996" y="1.67" class="c">3.1s</text></svg><svg x="2380"><use xlink:href="#a"></use><text x="0" y="1.67" class="c">⠹</text><text x="2.004" y="1.67" class="c">Parameter</text><text x="12.024" y="1.67" class="c">tuning</text><text x="19.037999999999997" y="1.67" class="c">89</text><text x="22.043999999999997" y="1.67" class="c">done</text><text x="27.054" y="1.67" class="c">(28/s)</text><text x="34.068" y="1.67" class="c">|</text><text x="36.071999999999996" y="1.67" class="c">3.2s</text></svg><svg x="2450"><use xlink:href="#a"></use><text x="0" y="1.67" class="c">⠸</text><text x="2.004" y="1.67" class="c">Parameter</text><text x="12.024" y="1.67" class="c">tuning</text><text x="19.037999999999997" y="1.67" class="c">91</text><text x="22.043999999999997" y="1.67" class="c">done</text><text x="27.054" y="1.67" class="c">(28/s)</text><text x="34.068" y="1.67" class="c">|</text><text x="36.071999999999996" y="1.67" class="c">3.3s</text></svg><svg x="2520"><use xlink:href="#a"></use><text x="0" y="1.67" class="c">⠼</text><text x="2.004" y="1.67" class="c">Parameter</text><text x="12.024" y="1.67" class="c">tuning</text><text x="19.037999999999997" y="1.67" class="c">94</text><text x="22.043999999999997" y="1.67" class="c">done</text><text x="27.054" y="1.67" class="c">(28/s)</text><text x="34.068" y="1.67" class="c">|</text><text x="36.071999999999996" y="1.67" class="c">3.4s</text></svg><svg x="2590"><use xlink:href="#a"></use><text x="0" y="1.67" class="c">⠴</text><text x="2.004" y="1.67" class="c">Parameter</text><text x="12.024" y="1.67" class="c">tuning</text><text x="19.037999999999997" y="1.67" class="c">97</text><text x="22.043999999999997" y="1.67" class="c">done</text><text x="27.054" y="1.67" class="c">(28/s)</text><text x="34.068" y="1.67" class="c">|</text><text x="36.071999999999996" y="1.67" class="c">3.5s</text></svg><svg x="2660"><use xlink:href="#a"></use><text x="0" y="1.67" class="c">⠦</text><text x="2.004" y="1.67" class="c">Parameter</text><text x="12.024" y="1.67" class="c">tuning</text><text x="19.037999999999997" y="1.67" class="c">99</text><text x="22.043999999999997" y="1.67" class="c">done</text><text x="27.054" y="1.67" class="c">(28/s)</text><text x="34.068" y="1.67" class="c">|</text><text x="36.071999999999996" y="1.67" class="c">3.6s</text></svg><svg x="2730"><use xlink:href="#a"></use><use xlink:href="#1" y="0"></use></svg><svg x="2800"><use xlink:href="#a"></use><use xlink:href="#1" y="0"></use></svg><svg x="2870"><use xlink:href="#a"></use><use xlink:href="#1" y="0"></use></svg></svg></g></g></svg></svg>