<svg xmlns="http://www.w3.org/2000/svg" xmlns:xlink="http://www.w3.org/1999/xlink" width="740" height="61.709999999999994"><rect width="740" height="61.709999999999994" rx="0" ry="0" class="a"></rect><svg height="21.709999999999997" viewBox="0 0 70 2.171" width="700" x="20" xmlns="http://www.w3.org/2000/svg" xmlns:xlink="http://www.w3.org/1999/xlink" y="20"><style>.a{fill:rgb(247,247,247)}.b{font-family:'Fira Code',Monaco,Consolas,Menlo,'Bitstream Vera Sans Mono','Powerline Symbols',monospace}.c{fill:rgb(101,123,131);white-space:pre}.d{fill:rgb(133,153,0);white-space:pre}.e{fill:transparent}.g{animation-duration:5.27008699999999s;animation-iteration-count:infinite;animation-name:f;animation-timing-function:steps(1,end)}.h{fill:rgb(0,43,54);white-space:pre}@keyframes f{0%{transform:translateX(-0px)}0.1%{transform:translateX(-70px)}0.1%{transform:translateX(-140px)}4%{transform:translateX(-210px)}6%{transform:translateX(-280px)}8%{transform:translateX(-350px)}10%{transform:translateX(-420px)}11.8%{transform:translateX(-490px)}13.8%{transform:translateX(-560px)}15.8%{transform:translateX(-630px)}17.7%{transform:translateX(-700px)}19.9%{transform:translateX(-770px)}22.1%{transform:translateX(-840px)}24.1%{transform:translateX(-910px)}26.1%{transform:translateX(-980px)}28.2%{transform:translateX(-1050px)}30.1%{transform:translateX(-1120px)}31.3%{transform:translateX(-1190px)}33.3%{transform:translateX(-1260px)}35.3%{transform:translateX(-1330px)}37.3%{transform:translateX(-1400px)}39.2%{transform:translateX(-1470px)}41.1%{transform:translateX(-1540px)}42.9%{transform:translateX(-1610px)}44.9%{transform:translateX(-1680px)}47%{transform:translateX(-1750px)}49%{transform:translateX(-1820px)}51%{transform:translateX(-1890px)}52.9%{transform:translateX(-1960px)}54.9%{transform:translateX(-2030px)}56.7%{transform:translateX(-2100px)}58.7%{transform:translateX(-2170px)}60.6%{transform:translateX(-2240px)}62.6%{transform:translateX(-2310px)}64.4%{transform:translateX(-2380px)}67.1%{transform:translateX(-2450px)}69.1%{transform:translateX(-2520px)}70.6%{transform:translateX(-2590px)}72.5%{transform:translateX(-2660px)}74.5%{transform:translateX(-2730px)}76.5%{transform:translateX(-2800px)}78.6%{transform:translateX(-2870px)}80.7%{transform:translateX(-2940px)}82.5%{transform:translateX(-3010px)}84.5%{transform:translateX(-3080px)}86.5%{transform:translateX(-3150px)}88.6%{transform:translateX(-3220px)}90.5%{transform:translateX(-3290px)}92.5%{transform:translateX(-3360px)}94.5%{transform:translateX(-3430px)}96.8%{transform:translateX(-3500px)}98.7%{transform:translateX(-3570px)}100%{transform:translateX(-3640px)}100%{transform:translateX(-3710px)}100%{transform:translateX(-3780px)}}</style><g font-family="&#x27;Fira Code&#x27;,Monaco,Consolas,Menlo,&#x27;Bitstream Vera Sans Mono&#x27;,&#x27;Powerline Symbols&#x27;,monospace" font-size="1.67" class="b"><defs><symbol id="1"><text x="0" y="1.67" class="c">Downloading</text><text x="12.024" y="1.67" class="d">███████████████████████████████</text><text x="45.089999999999996" y="1.67" class="c">100%</text><text x="50.1" y="1.67" class="c">|</text><text x="52.104" y="1.67" class="c">ETA:</text><text x="58.116" y="1.67" class="c">0s</text></symbol><symbol id="a"><rect height="1" width="70" x="0" y="0" class="e"></rect></symbol></defs><rect height="2.171" width="70" class="a"></rect><g class="g"><svg x="0" y="0" width="3850"><svg x="0"><use xlink:href="#a"></use></svg><svg x="70"><use xlink:href="#a"></use></svg><svg x="140"><use xlink:href="#a"></use><text x="0" y="1.67" class="c">Downloading</text><text x="12.024" y="1.67" class="d">█</text><text x="13.026" y="1.67" class="h">██████████████████████████████</text><text x="47.093999999999994" y="1.67" class="c">0%</text><text x="50.1" y="1.67" class="c">|</text><text x="52.104" y="1.67" class="c">ETA:</text><text x="57.114" y="1.67" class="c">?</text></svg><svg x="210"><use xlink:href="#a"></use><text x="0" y="1.67" class="c">Downloading</text><text x="12.024" y="1.67" class="d">██</text><text x="14.027999999999999" y="1.67" class="h">█████████████████████████████</text><text x="47.093999999999994" y="1.67" class="c">4%</text><text x="50.1" y="1.67" class="c">|</text><text x="52.104" y="1.67" class="c">ETA:</text><text x="58.116" y="1.67" class="c">4s</text></svg><svg x="280"><use xlink:href="#a"></use><text x="0" y="1.67" class="c">Downloading</text><text x="12.024" y="1.67" class="d">███</text><text x="15.029999999999998" y="1.67" class="h">████████████████████████████</text><text x="47.093999999999994" y="1.67" class="c">6%</text><text x="50.1" y="1.67" class="c">|</text><text x="52.104" y="1.67" class="c">ETA:</text><text x="58.116" y="1.67" class="c">5s</text></svg><svg x="350"><use xlink:href="#a"></use><text x="0" y="1.67" class="c">Downloading</text><text x="12.024" y="1.67" class="d">███</text><text x="15.029999999999998" y="1.67" class="h">████████████████████████████</text><text x="47.093999999999994" y="1.67" class="c">8%</text><text x="50.1" y="1.67" class="c">|</text><text x="52.104" y="1.67" class="c">ETA:</text><text x="58.116" y="1.67" class="c">5s</text></svg><svg x="420"><use xlink:href="#a"></use><text x="0" y="1.67" class="c">Downloading</text><text x="12.024" y="1.67" class="d">████</text><text x="16.032" y="1.67" class="h">███████████████████████████</text><text x="46.09199999999999" y="1.67" class="c">10%</text><text x="50.1" y="1.67" class="c">|</text><text x="52.104" y="1.67" class="c">ETA:</text><text x="58.116" y="1.67" class="c">5s</text></svg><svg x="490"><use xlink:href="#a"></use><text x="0" y="1.67" class="c">Downloading</text><text x="12.024" y="1.67" class="d">█████</text><text x="17.034" y="1.67" class="h">██████████████████████████</text><text x="46.09199999999999" y="1.67" class="c">12%</text><text x="50.1" y="1.67" class="c">|</text><text x="52.104" y="1.67" class="c">ETA:</text><text x="58.116" y="1.67" class="c">4s</text></svg><svg x="560"><use xlink:href="#a"></use><text x="0" y="1.67" class="c">Downloading</text><text x="12.024" y="1.67" class="d">█████</text><text x="17.034" y="1.67" class="h">██████████████████████████</text><text x="46.09199999999999" y="1.67" class="c">14%</text><text x="50.1" y="1.67" class="c">|</text><text x="52.104" y="1.67" class="c">ETA:</text><text x="58.116" y="1.67" class="c">4s</text></svg><svg x="630"><use xlink:href="#a"></use><text x="0" y="1.67" class="c">Downloading</text><text x="12.024" y="1.67" class="d">██████</text><text x="18.035999999999998" y="1.67" class="h">█████████████████████████</text><text x="46.09199999999999" y="1.67" class="c">16%</text><text x="50.1" y="1.67" class="c">|</text><text x="52.104" y="1.67" class="c">ETA:</text><text x="58.116" y="1.67" class="c">4s</text></svg><svg x="700"><use xlink:href="#a"></use><text x="0" y="1.67" class="c">Downloading</text><text x="12.024" y="1.67" class="d">██████</text><text x="18.035999999999998" y="1.67" class="h">█████████████████████████</text><text x="46.09199999999999" y="1.67" class="c">18%</text><text x="50.1" y="1.67" class="c">|</text><text x="52.104" y="1.67" class="c">ETA:</text><text x="58.116" y="1.67" class="c">4s</text></svg><svg x="770"><use xlink:href="#a"></use><text x="0" y="1.67" class="c">Downloading</text><text x="12.024" y="1.67" class="d">███████</text><text x="19.037999999999997" y="1.67" class="h">████████████████████████</text><text x="46.09199999999999" y="1.67" class="c">20%</text><text x="50.1" y="1.67" class="c">|</text><text x="52.104" y="1.67" class="c">ETA:</text><text x="58.116" y="1.67" class="c">4s</text></svg><svg x="840"><use xlink:href="#a"></use><text x="0" y="1.67" class="c">Downloading</text><text x="12.024" y="1.67" class="d">████████</text><text x="20.04" y="1.67" class="h">███████████████████████</text><text x="46.09199999999999" y="1.67" class="c">22%</text><text x="50.1" y="1.67" class="c">|</text><text x="52.104" y="1.67" class="c">ETA:</text><text x="58.116" y="1.67" class="c">4s</text></svg><svg x="910"><use xlink:href="#a"></use><text x="0" y="1.67" class="c">Downloading</text><text x="12.024" y="1.67" class="d">████████</text><text x="20.04" y="1.67" class="h">███████████████████████</text><text x="46.09199999999999" y="1.67" class="c">24%</text><text x="50.1" y="1.67" class="c">|</text><text x="52.104" y="1.67" class="c">ETA:</text><text x="58.116" y="1.67" class="c">4s</text></svg><svg x="980"><use xlink:href="#a"></use><text x="0" y="1.67" class="c">Downloading</text><text x="12.024" y="1.67" class="d">█████████</text><text x="21.041999999999998" y="1.67" class="h">██████████████████████</text><text x="46.09199999999999" y="1.67" class="c">26%</text><text x="50.1" y="1.67" class="c">|</text><text x="52.104" y="1.67" class="c">ETA:</text><text x="58.116" y="1.67" class="c">4s</text></svg><svg x="1050"><use xlink:href="#a"></use><text x="0" y="1.67" class="c">Downloading</text><text x="12.024" y="1.67" class="d">█████████</text><text x="21.041999999999998" y="1.67" class="h">██████████████████████</text><text x="46.09199999999999" y="1.67" class="c">28%</text><text x="50.1" y="1.67" class="c">|</text><text x="52.104" y="1.67" class="c">ETA:</text><text x="58.116" y="1.67" class="c">4s</text></svg><svg x="1120"><use xlink:href="#a"></use><text x="0" y="1.67" class="c">Downloading</text><text x="12.024" y="1.67" class="d">██████████</text><text x="22.043999999999997" y="1.67" class="h">█████████████████████</text><text x="46.09199999999999" y="1.67" class="c">30%</text><text x="50.1" y="1.67" class="c">|</text><text x="52.104" y="1.67" class="c">ETA:</text><text x="58.116" y="1.67" class="c">4s</text></svg><svg x="1190"><use xlink:href="#a"></use><text x="0" y="1.67" class="c">Downloading</text><text x="12.024" y="1.67" class="d">██████████</text><text x="22.043999999999997" y="1.67" class="h">█████████████████████</text><text x="46.09199999999999" y="1.67" class="c">31%</text><text x="50.1" y="1.67" class="c">|</text><text x="52.104" y="1.67" class="c">ETA:</text><text x="58.116" y="1.67" class="c">4s</text></svg><svg x="1260"><use xlink:href="#a"></use><text x="0" y="1.67" class="c">Downloading</text><text x="12.024" y="1.67" class="d">███████████</text><text x="23.045999999999996" y="1.67" class="h">████████████████████</text><text x="46.09199999999999" y="1.67" class="c">33%</text><text x="50.1" y="1.67" class="c">|</text><text x="52.104" y="1.67" class="c">ETA:</text><text x="58.116" y="1.67" class="c">4s</text></svg><svg x="1330"><use xlink:href="#a"></use><text x="0" y="1.67" class="c">Downloading</text><text x="12.024" y="1.67" class="d">███████████</text><text x="23.045999999999996" y="1.67" class="h">████████████████████</text><text x="46.09199999999999" y="1.67" class="c">35%</text><text x="50.1" y="1.67" class="c">|</text><text x="52.104" y="1.67" class="c">ETA:</text><text x="58.116" y="1.67" class="c">3s</text></svg><svg x="1400"><use xlink:href="#a"></use><text x="0" y="1.67" class="c">Downloading</text><text x="12.024" y="1.67" class="d">████████████</text><text x="24.048" y="1.67" class="h">███████████████████</text><text x="46.09199999999999" y="1.67" class="c">37%</text><text x="50.1" y="1.67" class="c">|</text><text x="52.104" y="1.67" class="c">ETA:</text><text x="58.116" y="1.67" class="c">3s</text></svg><svg x="1470"><use xlink:href="#a"></use><text x="0" y="1.67" class="c">Downloading</text><text x="12.024" y="1.67" class="d">█████████████</text><text x="25.05" y="1.67" class="h">██████████████████</text><text x="46.09199999999999" y="1.67" class="c">39%</text><text x="50.1" y="1.67" class="c">|</text><text x="52.104" y="1.67" class="c">ETA:</text><text x="58.116" y="1.67" class="c">3s</text></svg><svg x="1540"><use xlink:href="#a"></use><text x="0" y="1.67" class="c">Downloading</text><text x="12.024" y="1.67" class="d">█████████████</text><text x="25.05" y="1.67" class="h">██████████████████</text><text x="46.09199999999999" y="1.67" class="c">41%</text><text x="50.1" y="1.67" class="c">|</text><text x="52.104" y="1.67" class="c">ETA:</text><text x="58.116" y="1.67" class="c">3s</text></svg><svg x="1610"><use xlink:href="#a"></use><text x="0" y="1.67" class="c">Downloading</text><text x="12.024" y="1.67" class="d">██████████████</text><text x="26.052" y="1.67" class="h">█████████████████</text><text x="46.09199999999999" y="1.67" class="c">43%</text><text x="50.1" y="1.67" class="c">|</text><text x="52.104" y="1.67" class="c">ETA:</text><text x="58.116" y="1.67" class="c">3s</text></svg><svg x="1680"><use xlink:href="#a"></use><text x="0" y="1.67" class="c">Downloading</text><text x="12.024" y="1.67" class="d">███████████████</text><text x="27.054" y="1.67" class="h">████████████████</text><text x="46.09199999999999" y="1.67" class="c">45%</text><text x="50.1" y="1.67" class="c">|</text><text x="52.104" y="1.67" class="c">ETA:</text><text x="58.116" y="1.67" class="c">3s</text></svg><svg x="1750"><use xlink:href="#a"></use><text x="0" y="1.67" class="c">Downloading</text><text x="12.024" y="1.67" class="d">███████████████</text><text x="27.054" y="1.67" class="h">████████████████</text><text x="46.09199999999999" y="1.67" class="c">47%</text><text x="50.1" y="1.67" class="c">|</text><text x="52.104" y="1.67" class="c">ETA:</text><text x="58.116" y="1.67" class="c">3s</text></svg><svg x="1820"><use xlink:href="#a"></use><text x="0" y="1.67" class="c">Downloading</text><text x="12.024" y="1.67" class="d">████████████████</text><text x="28.055999999999997" y="1.67" class="h">███████████████</text><text x="46.09199999999999" y="1.67" class="c">49%</text><text x="50.1" y="1.67" class="c">|</text><text x="52.104" y="1.67" class="c">ETA:</text><text x="58.116" y="1.67" class="c">3s</text></svg><svg x="1890"><use xlink:href="#a"></use><text x="0" y="1.67" class="c">Downloading</text><text x="12.024" y="1.67" class="d">████████████████</text><text x="28.055999999999997" y="1.67" class="h">███████████████</text><text x="46.09199999999999" y="1.67" class="c">51%</text><text x="50.1" y="1.67" class="c">|</text><text x="52.104" y="1.67" class="c">ETA:</text><text x="58.116" y="1.67" class="c">3s</text></svg><svg x="1960"><use xlink:href="#a"></use><text x="0" y="1.67" class="c">Downloading</text><text x="12.024" y="1.67" class="d">█████████████████</text><text x="29.058" y="1.67" class="h">██████████████</text><text x="46.09199999999999" y="1.67" class="c">53%</text><text x="50.1" y="1.67" class="c">|</text><text x="52.104" y="1.67" class="c">ETA:</text><text x="58.116" y="1.67" class="c">2s</text></svg><svg x="2030"><use xlink:href="#a"></use><text x="0" y="1.67" class="c">Downloading</text><text x="12.024" y="1.67" class="d">█████████████████</text><text x="29.058" y="1.67" class="h">██████████████</text><text x="46.09199999999999" y="1.67" class="c">55%</text><text x="50.1" y="1.67" class="c">|</text><text x="52.104" y="1.67" class="c">ETA:</text><text x="58.116" y="1.67" class="c">2s</text></svg><svg x="2100"><use xlink:href="#a"></use><text x="0" y="1.67" class="c">Downloading</text><text x="12.024" y="1.67" class="d">██████████████████</text><text x="30.059999999999995" y="1.67" class="h">█████████████</text><text x="46.09199999999999" y="1.67" class="c">57%</text><text x="50.1" y="1.67" class="c">|</text><text x="52.104" y="1.67" class="c">ETA:</text><text x="58.116" y="1.67" class="c">2s</text></svg><svg x="2170"><use xlink:href="#a"></use><text x="0" y="1.67" class="c">Downloading</text><text x="12.024" y="1.67" class="d">███████████████████</text><text x="31.061999999999998" y="1.67" class="h">████████████</text><text x="46.09199999999999" y="1.67" class="c">59%</text><text x="50.1" y="1.67" class="c">|</text><text x="52.104" y="1.67" class="c">ETA:</text><text x="58.116" y="1.67" class="c">2s</text></svg><svg x="2240"><use xlink:href="#a"></use><text x="0" y="1.67" class="c">Downloading</text><text x="12.024" y="1.67" class="d">███████████████████</text><text x="31.061999999999998" y="1.67" class="h">████████████</text><text x="46.09199999999999" y="1.67" class="c">61%</text><text x="50.1" y="1.67" class="c">|</text><text x="52.104" y="1.67" class="c">ETA:</text><text x="58.116" y="1.67" class="c">2s</text></svg><svg x="2310"><use xlink:href="#a"></use><text x="0" y="1.67" class="c">Downloading</text><text x="12.024" y="1.67" class="d">████████████████████</text><text x="32.064" y="1.67" class="h">███████████</text><text x="46.09199999999999" y="1.67" class="c">63%</text><text x="50.1" y="1.67" class="c">|</text><text x="52.104" y="1.67" class="c">ETA:</text><text x="58.116" y="1.67" class="c">2s</text></svg><svg x="2380"><use xlink:href="#a"></use><text x="0" y="1.67" class="c">Downloading</text><text x="12.024" y="1.67" class="d">█████████████████████</text><text x="33.065999999999995" y="1.67" class="h">██████████</text><text x="46.09199999999999" y="1.67" class="c">65%</text><text x="50.1" y="1.67" class="c">|</text><text x="52.104" y="1.67" class="c">ETA:</text><text x="58.116" y="1.67" class="c">2s</text></svg><svg x="2450"><use xlink:href="#a"></use><text x="0" y="1.67" class="c">Downloading</text><text x="12.024" y="1.67" class="d">█████████████████████</text><text x="33.065999999999995" y="1.67" class="h">██████████</text><text x="46.09199999999999" y="1.67" class="c">68%</text><text x="50.1" y="1.67" class="c">|</text><text x="52.104" y="1.67" class="c">ETA:</text><text x="58.116" y="1.67" class="c">2s</text></svg><svg x="2520"><use xlink:href="#a"></use><text x="0" y="1.67" class="c">Downloading</text><text x="12.024" y="1.67" class="d">██████████████████████</text><text x="34.068" y="1.67" class="h">█████████</text><text x="46.09199999999999" y="1.67" class="c">70%</text><text x="50.1" y="1.67" class="c">|</text><text x="52.104" y="1.67" class="c">ETA:</text><text x="58.116" y="1.67" class="c">2s</text></svg><svg x="2590"><use xlink:href="#a"></use><text x="0" y="1.67" class="c">Downloading</text><text x="12.024" y="1.67" class="d">██████████████████████</text><text x="34.068" y="1.67" class="h">█████████</text><text x="46.09199999999999" y="1.67" class="c">71%</text><text x="50.1" y="1.67" class="c">|</text><text x="52.104" y="1.67" class="c">ETA:</text><text x="58.116" y="1.67" class="c">2s</text></svg><svg x="2660"><use xlink:href="#a"></use><text x="0" y="1.67" class="c">Downloading</text><text x="12.024" y="1.67" class="d">███████████████████████</text><text x="35.06999999999999" y="1.67" class="h">████████</text><text x="46.09199999999999" y="1.67" class="c">73%</text><text x="50.1" y="1.67" class="c">|</text><text x="52.104" y="1.67" class="c">ETA:</text><text x="58.116" y="1.67" class="c">1s</text></svg><svg x="2730"><use xlink:href="#a"></use><text x="0" y="1.67" class="c">Downloading</text><text x="12.024" y="1.67" class="d">███████████████████████</text><text x="35.06999999999999" y="1.67" class="h">████████</text><text x="46.09199999999999" y="1.67" class="c">75%</text><text x="50.1" y="1.67" class="c">|</text><text x="52.104" y="1.67" class="c">ETA:</text><text x="58.116" y="1.67" class="c">1s</text></svg><svg x="2800"><use xlink:href="#a"></use><text x="0" y="1.67" class="c">Downloading</text><text x="12.024" y="1.67" class="d">████████████████████████</text><text x="36.071999999999996" y="1.67" class="h">███████</text><text x="46.09199999999999" y="1.67" class="c">77%</text><text x="50.1" y="1.67" class="c">|</text><text x="52.104" y="1.67" class="c">ETA:</text><text x="58.116" y="1.67" class="c">1s</text></svg><svg x="2870"><use xlink:href="#a"></use><text x="0" y="1.67" class="c">Downloading</text><text x="12.024" y="1.67" class="d">█████████████████████████</text><text x="37.074" y="1.67" class="h">██████</text><text x="46.09199999999999" y="1.67" class="c">79%</text><text x="50.1" y="1.67" class="c">|</text><text x="52.104" y="1.67" class="c">ETA:</text><text x="58.116" y="1.67" class="c">1s</text></svg><svg x="2940"><use xlink:href="#a"></use><text x="0" y="1.67" class="c">Downloading</text><text x="12.024" y="1.67" class="d">█████████████████████████</text><text x="37.074" y="1.67" class="h">██████</text><text x="46.09199999999999" y="1.67" class="c">81%</text><text x="50.1" y="1.67" class="c">|</text><text x="52.104" y="1.67" class="c">ETA:</text><text x="58.116" y="1.67" class="c">1s</text></svg><svg x="3010"><use xlink:href="#a"></use><text x="0" y="1.67" class="c">Downloading</text><text x="12.024" y="1.67" class="d">██████████████████████████</text><text x="38.07599999999999" y="1.67" class="h">█████</text><text x="46.09199999999999" y="1.67" class="c">83%</text><text x="50.1" y="1.67" class="c">|</text><text x="52.104" y="1.67" class="c">ETA:</text><text x="58.116" y="1.67" class="c">1s</text></svg><svg x="3080"><use xlink:href="#a"></use><text x="0" y="1.67" class="c">Downloading</text><text x="12.024" y="1.67" class="d">███████████████████████████</text><text x="39.077999999999996" y="1.67" class="h">████</text><text x="46.09199999999999" y="1.67" class="c">85%</text><text x="50.1" y="1.67" class="c">|</text><text x="52.104" y="1.67" class="c">ETA:</text><text x="58.116" y="1.67" class="c">1s</text></svg><svg x="3150"><use xlink:href="#a"></use><text x="0" y="1.67" class="c">Downloading</text><text x="12.024" y="1.67" class="d">███████████████████████████</text><text x="39.077999999999996" y="1.67" class="h">████</text><text x="46.09199999999999" y="1.67" class="c">87%</text><text x="50.1" y="1.67" class="c">|</text><text x="52.104" y="1.67" class="c">ETA:</text><text x="58.116" y="1.67" class="c">1s</text></svg><svg x="3220"><use xlink:href="#a"></use><text x="0" y="1.67" class="c">Downloading</text><text x="12.024" y="1.67" class="d">████████████████████████████</text><text x="40.08" y="1.67" class="h">███</text><text x="46.09199999999999" y="1.67" class="c">89%</text><text x="50.1" y="1.67" class="c">|</text><text x="52.104" y="1.67" class="c">ETA:</text><text x="58.116" y="1.67" class="c">1s</text></svg><svg x="3290"><use xlink:href="#a"></use><text x="0" y="1.67" class="c">Downloading</text><text x="12.024" y="1.67" class="d">████████████████████████████</text><text x="40.08" y="1.67" class="h">███</text><text x="46.09199999999999" y="1.67" class="c">91%</text><text x="50.1" y="1.67" class="c">|</text><text x="52.104" y="1.67" class="c">ETA:</text><text x="58.116" y="1.67" class="c">0s</text></svg><svg x="3360"><use xlink:href="#a"></use><text x="0" y="1.67" class="c">Downloading</text><text x="12.024" y="1.67" class="d">█████████████████████████████</text><text x="41.082" y="1.67" class="h">██</text><text x="46.09199999999999" y="1.67" class="c">93%</text><text x="50.1" y="1.67" class="c">|</text><text x="52.104" y="1.67" class="c">ETA:</text><text x="58.116" y="1.67" class="c">0s</text></svg><svg x="3430"><use xlink:href="#a"></use><text x="0" y="1.67" class="c">Downloading</text><text x="12.024" y="1.67" class="d">█████████████████████████████</text><text x="41.082" y="1.67" class="h">██</text><text x="46.09199999999999" y="1.67" class="c">95%</text><text x="50.1" y="1.67" class="c">|</text><text x="52.104" y="1.67" class="c">ETA:</text><text x="58.116" y="1.67" class="c">0s</text></svg><svg x="3500"><use xlink:href="#a"></use><text x="0" y="1.67" class="c">Downloading</text><text x="12.024" y="1.67" class="d">██████████████████████████████</text><text x="42.083999999999996" y="1.67" class="h">█</text><text x="46.09199999999999" y="1.67" class="c">97%</text><text x="50.1" y="1.67" class="c">|</text><text x="52.104" y="1.67" class="c">ETA:</text><text x="58.116" y="1.67" class="c">0s</text></svg><svg x="3570"><use xlink:href="#a"></use><text x="0" y="1.67" class="c">Downloading</text><text x="12.024" y="1.67" class="d">███████████████████████████████</text><text x="46.09199999999999" y="1.67" class="c">99%</text><text x="50.1" y="1.67" class="c">|</text><text x="52.104" y="1.67" class="c">ETA:</text><text x="58.116" y="1.67" class="c">0s</text></svg><svg x="3640"><use xlink:href="#a"></use><use xlink:href="#1" y="0"></use></svg><svg x="3710"><use xlink:href="#a"></use><use xlink:href="#1" y="0"></use></svg><svg x="3780"><use xlink:href="#a"></use><use xlink:href="#1" y="0"></use></svg></svg></g></g></svg></svg>