<svg xmlns="http://www.w3.org/2000/svg" xmlns:xlink="http://www.w3.org/1999/xlink" width="740" height="126.83999999999999"><rect width="740" height="126.83999999999999" rx="0" ry="0" class="a"></rect><svg height="86.83999999999999" viewBox="0 0 70 8.684" width="700" x="20" xmlns="http://www.w3.org/2000/svg" xmlns:xlink="http://www.w3.org/1999/xlink" y="20"><style>.a{fill:rgb(40,45,53)}.b{font-family:'Fira Code',Monaco,Consolas,Menlo,'Bitstream Vera Sans Mono','Powerline Symbols',monospace}.c{fill:rgb(102,194,205);white-space:pre}.d{fill:rgb(185,192,203);white-space:pre}.e{fill:rgb(168,204,140);white-space:pre}.f{fill:transparent}.h{animation-duration:8.00512290000916s;animation-iteration-count:infinite;animation-name:g;animation-timing-function:steps(1,end)}@keyframes g{0%{transform:translateX(-0px)}0.1%{transform:translateX(-70px)}1.6%{transform:translateX(-140px)}2.2%{transform:translateX(-210px)}2.3%{transform:translateX(-280px)}3%{transform:translateX(-350px)}4.2%{transform:translateX(-420px)}5.4%{transform:translateX(-490px)}7%{transform:translateX(-560px)}8.3%{transform:translateX(-630px)}9.4%{transform:translateX(-700px)}10.6%{transform:translateX(-770px)}11.8%{transform:translateX(-840px)}13.1%{transform:translateX(-910px)}14.2%{transform:translateX(-980px)}15.9%{transform:translateX(-1050px)}17.1%{transform:translateX(-1120px)}18.3%{transform:translateX(-1190px)}19.5%{transform:translateX(-1260px)}20.7%{transform:translateX(-1330px)}22%{transform:translateX(-1400px)}23.2%{transform:translateX(-1470px)}24.4%{transform:translateX(-1540px)}26.1%{transform:translateX(-1610px)}27.3%{transform:translateX(-1680px)}28.5%{transform:translateX(-1750px)}29.7%{transform:translateX(-1820px)}30.9%{transform:translateX(-1890px)}31.5%{transform:translateX(-1960px)}31.5%{transform:translateX(-2030px)}32.1%{transform:translateX(-2100px)}33.3%{transform:translateX(-2170px)}34.9%{transform:translateX(-2240px)}36.1%{transform:translateX(-2310px)}37.3%{transform:translateX(-2380px)}38.5%{transform:translateX(-2450px)}39.7%{transform:translateX(-2520px)}40.9%{transform:translateX(-2590px)}42.6%{transform:translateX(-2660px)}43.8%{transform:translateX(-2730px)}45%{transform:translateX(-2800px)}46.2%{transform:translateX(-2870px)}47.5%{transform:translateX(-2940px)}48.7%{transform:translateX(-3010px)}49.9%{transform:translateX(-3080px)}51.1%{transform:translateX(-3150px)}52.8%{transform:translateX(-3220px)}54%{transform:translateX(-3290px)}55.2%{transform:translateX(-3360px)}56.4%{transform:translateX(-3430px)}57.6%{transform:translateX(-3500px)}58.8%{transform:translateX(-3570px)}60%{transform:translateX(-3640px)}61.2%{transform:translateX(-3710px)}61.2%{transform:translateX(-3780px)}61.2%{transform:translateX(-3850px)}100%{transform:translateX(-3920px)}}</style><g font-family="&#x27;Fira Code&#x27;,Monaco,Consolas,Menlo,&#x27;Bitstream Vera Sans Mono&#x27;,&#x27;Powerline Symbols&#x27;,monospace" font-size="1.67" class="b"><defs><symbol id="1"><text x="0" y="1.67" class="c">ℹ</text><text x="2.004" y="1.67" class="d">Before</text><text x="9.017999999999999" y="1.67" class="d">the</text><text x="13.026" y="1.67" class="d">progress</text><text x="22.043999999999997" y="1.67" class="d">bar</text></symbol><symbol id="2"><text x="0" y="1.67" class="d">Calculating</text><text x="12.024" y="1.67" class="e">■■■■■■■■■■■■■■■■</text><text x="46.09199999999999" y="1.67" class="d">49%</text><text x="50.1" y="1.67" class="d">|</text><text x="52.104" y="1.67" class="d">ETA:</text><text x="58.116" y="1.67" class="d">2s</text></symbol><symbol id="3"><text x="0" y="1.67" class="d">Already</text><text x="8.016" y="1.67" class="d">half</text><text x="13.026" y="1.67" class="d">way!</text></symbol><symbol id="4"><text x="0" y="1.67" class="d">Calculating</text><text x="12.024" y="1.67" class="e">■■■■■■■■■■■■■■■■■■■■■■■■■■■■■■■</text><text x="45.089999999999996" y="1.67" class="d">100%</text><text x="50.1" y="1.67" class="d">|</text><text x="52.104" y="1.67" class="d">ETA:</text><text x="58.116" y="1.67" class="d">0s</text></symbol><symbol id="5"><text x="0" y="1.67" class="c">ℹ</text><text x="2.004" y="1.67" class="d">All</text><text x="6.012" y="1.67" class="d">done</text></symbol><symbol id="a"><rect height="5" width="70" x="0" y="0" class="f"></rect></symbol></defs><rect height="8.684" width="70" class="a"></rect><g class="h"><svg x="0" y="0" width="3990"><svg x="0"><use xlink:href="#a"></use></svg><svg x="70"><use xlink:href="#a"></use></svg><svg x="140"><use xlink:href="#a"></use><use xlink:href="#1" y="0"></use></svg><svg x="210"><use xlink:href="#a"></use><use xlink:href="#1" y="0"></use></svg><svg x="280"><use xlink:href="#a"></use><use xlink:href="#1" y="0"></use><text x="0" y="3.8409999999999997" class="d">Calculating</text><text x="12.024" y="3.8409999999999997" class="e">■</text><text x="47.093999999999994" y="3.8409999999999997" class="d">1%</text><text x="50.1" y="3.8409999999999997" class="d">|</text><text x="52.104" y="3.8409999999999997" class="d">ETA:</text><text x="58.116" y="3.8409999999999997" class="d">5s</text></svg><svg x="350"><use xlink:href="#a"></use><use xlink:href="#1" y="0"></use><text x="0" y="3.8409999999999997" class="d">Calculating</text><text x="12.024" y="3.8409999999999997" class="e">■■</text><text x="47.093999999999994" y="3.8409999999999997" class="d">2%</text><text x="50.1" y="3.8409999999999997" class="d">|</text><text x="52.104" y="3.8409999999999997" class="d">ETA:</text><text x="58.116" y="3.8409999999999997" class="d">5s</text></svg><svg x="420"><use xlink:href="#a"></use><use xlink:href="#1" y="0"></use><text x="0" y="3.8409999999999997" class="d">Calculating</text><text x="12.024" y="3.8409999999999997" class="e">■■</text><text x="47.093999999999994" y="3.8409999999999997" class="d">4%</text><text x="50.1" y="3.8409999999999997" class="d">|</text><text x="52.104" y="3.8409999999999997" class="d">ETA:</text><text x="58.116" y="3.8409999999999997" class="d">5s</text></svg><svg x="490"><use xlink:href="#a"></use><use xlink:href="#1" y="0"></use><text x="0" y="3.8409999999999997" class="d">Calculating</text><text x="12.024" y="3.8409999999999997" class="e">■■■</text><text x="47.093999999999994" y="3.8409999999999997" class="d">6%</text><text x="50.1" y="3.8409999999999997" class="d">|</text><text x="52.104" y="3.8409999999999997" class="d">ETA:</text><text x="58.116" y="3.8409999999999997" class="d">5s</text></svg><svg x="560"><use xlink:href="#a"></use><use xlink:href="#1" y="0"></use><text x="0" y="3.8409999999999997" class="d">Calculating</text><text x="12.024" y="3.8409999999999997" class="e">■■■■</text><text x="47.093999999999994" y="3.8409999999999997" class="d">9%</text><text x="50.1" y="3.8409999999999997" class="d">|</text><text x="52.104" y="3.8409999999999997" class="d">ETA:</text><text x="58.116" y="3.8409999999999997" class="d">4s</text></svg><svg x="630"><use xlink:href="#a"></use><use xlink:href="#1" y="0"></use><text x="0" y="3.8409999999999997" class="d">Calculating</text><text x="12.024" y="3.8409999999999997" class="e">■■■■</text><text x="46.09199999999999" y="3.8409999999999997" class="d">11%</text><text x="50.1" y="3.8409999999999997" class="d">|</text><text x="52.104" y="3.8409999999999997" class="d">ETA:</text><text x="58.116" y="3.8409999999999997" class="d">4s</text></svg><svg x="700"><use xlink:href="#a"></use><use xlink:href="#1" y="0"></use><text x="0" y="3.8409999999999997" class="d">Calculating</text><text x="12.024" y="3.8409999999999997" class="e">■■■■■</text><text x="46.09199999999999" y="3.8409999999999997" class="d">13%</text><text x="50.1" y="3.8409999999999997" class="d">|</text><text x="52.104" y="3.8409999999999997" class="d">ETA:</text><text x="58.116" y="3.8409999999999997" class="d">4s</text></svg><svg x="770"><use xlink:href="#a"></use><use xlink:href="#1" y="0"></use><text x="0" y="3.8409999999999997" class="d">Calculating</text><text x="12.024" y="3.8409999999999997" class="e">■■■■■</text><text x="46.09199999999999" y="3.8409999999999997" class="d">15%</text><text x="50.1" y="3.8409999999999997" class="d">|</text><text x="52.104" y="3.8409999999999997" class="d">ETA:</text><text x="58.116" y="3.8409999999999997" class="d">4s</text></svg><svg x="840"><use xlink:href="#a"></use><use xlink:href="#1" y="0"></use><text x="0" y="3.8409999999999997" class="d">Calculating</text><text x="12.024" y="3.8409999999999997" class="e">■■■■■■</text><text x="46.09199999999999" y="3.8409999999999997" class="d">17%</text><text x="50.1" y="3.8409999999999997" class="d">|</text><text x="52.104" y="3.8409999999999997" class="d">ETA:</text><text x="58.116" y="3.8409999999999997" class="d">4s</text></svg><svg x="910"><use xlink:href="#a"></use><use xlink:href="#1" y="0"></use><text x="0" y="3.8409999999999997" class="d">Calculating</text><text x="12.024" y="3.8409999999999997" class="e">■■■■■■■</text><text x="46.09199999999999" y="3.8409999999999997" class="d">19%</text><text x="50.1" y="3.8409999999999997" class="d">|</text><text x="52.104" y="3.8409999999999997" class="d">ETA:</text><text x="58.116" y="3.8409999999999997" class="d">4s</text></svg><svg x="980"><use xlink:href="#a"></use><use xlink:href="#1" y="0"></use><text x="0" y="3.8409999999999997" class="d">Calculating</text><text x="12.024" y="3.8409999999999997" class="e">■■■■■■■</text><text x="46.09199999999999" y="3.8409999999999997" class="d">21%</text><text x="50.1" y="3.8409999999999997" class="d">|</text><text x="52.104" y="3.8409999999999997" class="d">ETA:</text><text x="58.116" y="3.8409999999999997" class="d">4s</text></svg><svg x="1050"><use xlink:href="#a"></use><use xlink:href="#1" y="0"></use><text x="0" y="3.8409999999999997" class="d">Calculating</text><text x="12.024" y="3.8409999999999997" class="e">■■■■■■■■</text><text x="46.09199999999999" y="3.8409999999999997" class="d">24%</text><text x="50.1" y="3.8409999999999997" class="d">|</text><text x="52.104" y="3.8409999999999997" class="d">ETA:</text><text x="58.116" y="3.8409999999999997" class="d">4s</text></svg><svg x="1120"><use xlink:href="#a"></use><use xlink:href="#1" y="0"></use><text x="0" y="3.8409999999999997" class="d">Calculating</text><text x="12.024" y="3.8409999999999997" class="e">■■■■■■■■■</text><text x="46.09199999999999" y="3.8409999999999997" class="d">26%</text><text x="50.1" y="3.8409999999999997" class="d">|</text><text x="52.104" y="3.8409999999999997" class="d">ETA:</text><text x="58.116" y="3.8409999999999997" class="d">4s</text></svg><svg x="1190"><use xlink:href="#a"></use><use xlink:href="#1" y="0"></use><text x="0" y="3.8409999999999997" class="d">Calculating</text><text x="12.024" y="3.8409999999999997" class="e">■■■■■■■■■</text><text x="46.09199999999999" y="3.8409999999999997" class="d">28%</text><text x="50.1" y="3.8409999999999997" class="d">|</text><text x="52.104" y="3.8409999999999997" class="d">ETA:</text><text x="58.116" y="3.8409999999999997" class="d">3s</text></svg><svg x="1260"><use xlink:href="#a"></use><use xlink:href="#1" y="0"></use><text x="0" y="3.8409999999999997" class="d">Calculating</text><text x="12.024" y="3.8409999999999997" class="e">■■■■■■■■■■</text><text x="46.09199999999999" y="3.8409999999999997" class="d">30%</text><text x="50.1" y="3.8409999999999997" class="d">|</text><text x="52.104" y="3.8409999999999997" class="d">ETA:</text><text x="58.116" y="3.8409999999999997" class="d">3s</text></svg><svg x="1330"><use xlink:href="#a"></use><use xlink:href="#1" y="0"></use><text x="0" y="3.8409999999999997" class="d">Calculating</text><text x="12.024" y="3.8409999999999997" class="e">■■■■■■■■■■■</text><text x="46.09199999999999" y="3.8409999999999997" class="d">32%</text><text x="50.1" y="3.8409999999999997" class="d">|</text><text x="52.104" y="3.8409999999999997" class="d">ETA:</text><text x="58.116" y="3.8409999999999997" class="d">3s</text></svg><svg x="1400"><use xlink:href="#a"></use><use xlink:href="#1" y="0"></use><text x="0" y="3.8409999999999997" class="d">Calculating</text><text x="12.024" y="3.8409999999999997" class="e">■■■■■■■■■■■</text><text x="46.09199999999999" y="3.8409999999999997" class="d">34%</text><text x="50.1" y="3.8409999999999997" class="d">|</text><text x="52.104" y="3.8409999999999997" class="d">ETA:</text><text x="58.116" y="3.8409999999999997" class="d">3s</text></svg><svg x="1470"><use xlink:href="#a"></use><use xlink:href="#1" y="0"></use><text x="0" y="3.8409999999999997" class="d">Calculating</text><text x="12.024" y="3.8409999999999997" class="e">■■■■■■■■■■■■</text><text x="46.09199999999999" y="3.8409999999999997" class="d">36%</text><text x="50.1" y="3.8409999999999997" class="d">|</text><text x="52.104" y="3.8409999999999997" class="d">ETA:</text><text x="58.116" y="3.8409999999999997" class="d">3s</text></svg><svg x="1540"><use xlink:href="#a"></use><use xlink:href="#1" y="0"></use><text x="0" y="3.8409999999999997" class="d">Calculating</text><text x="12.024" y="3.8409999999999997" class="e">■■■■■■■■■■■■</text><text x="46.09199999999999" y="3.8409999999999997" class="d">38%</text><text x="50.1" y="3.8409999999999997" class="d">|</text><text x="52.104" y="3.8409999999999997" class="d">ETA:</text><text x="58.116" y="3.8409999999999997" class="d">3s</text></svg><svg x="1610"><use xlink:href="#a"></use><use xlink:href="#1" y="0"></use><text x="0" y="3.8409999999999997" class="d">Calculating</text><text x="12.024" y="3.8409999999999997" class="e">■■■■■■■■■■■■■</text><text x="46.09199999999999" y="3.8409999999999997" class="d">41%</text><text x="50.1" y="3.8409999999999997" class="d">|</text><text x="52.104" y="3.8409999999999997" class="d">ETA:</text><text x="58.116" y="3.8409999999999997" class="d">3s</text></svg><svg x="1680"><use xlink:href="#a"></use><use xlink:href="#1" y="0"></use><text x="0" y="3.8409999999999997" class="d">Calculating</text><text x="12.024" y="3.8409999999999997" class="e">■■■■■■■■■■■■■■</text><text x="46.09199999999999" y="3.8409999999999997" class="d">43%</text><text x="50.1" y="3.8409999999999997" class="d">|</text><text x="52.104" y="3.8409999999999997" class="d">ETA:</text><text x="58.116" y="3.8409999999999997" class="d">3s</text></svg><svg x="1750"><use xlink:href="#a"></use><use xlink:href="#1" y="0"></use><text x="0" y="3.8409999999999997" class="d">Calculating</text><text x="12.024" y="3.8409999999999997" class="e">■■■■■■■■■■■■■■■</text><text x="46.09199999999999" y="3.8409999999999997" class="d">45%</text><text x="50.1" y="3.8409999999999997" class="d">|</text><text x="52.104" y="3.8409999999999997" class="d">ETA:</text><text x="58.116" y="3.8409999999999997" class="d">3s</text></svg><svg x="1820"><use xlink:href="#a"></use><use xlink:href="#1" y="0"></use><text x="0" y="3.8409999999999997" class="d">Calculating</text><text x="12.024" y="3.8409999999999997" class="e">■■■■■■■■■■■■■■■</text><text x="46.09199999999999" y="3.8409999999999997" class="d">47%</text><text x="50.1" y="3.8409999999999997" class="d">|</text><text x="52.104" y="3.8409999999999997" class="d">ETA:</text><text x="58.116" y="3.8409999999999997" class="d">3s</text></svg><svg x="1890"><use xlink:href="#a"></use><use xlink:href="#1" y="0"></use><use xlink:href="#2" y="2.171"></use></svg><svg x="1960"><use xlink:href="#a"></use><use xlink:href="#1" y="0"></use><use xlink:href="#3" y="2.171"></use></svg><svg x="2030"><use xlink:href="#a"></use><use xlink:href="#1" y="0"></use><use xlink:href="#3" y="2.171"></use><use xlink:href="#2" y="4.342"></use></svg><svg x="2100"><use xlink:href="#a"></use><use xlink:href="#1" y="0"></use><use xlink:href="#3" y="2.171"></use><text x="0" y="6.012" class="d">Calculating</text><text x="12.024" y="6.012" class="e">■■■■■■■■■■■■■■■■</text><text x="46.09199999999999" y="6.012" class="d">51%</text><text x="50.1" y="6.012" class="d">|</text><text x="52.104" y="6.012" class="d">ETA:</text><text x="58.116" y="6.012" class="d">2s</text></svg><svg x="2170"><use xlink:href="#a"></use><use xlink:href="#1" y="0"></use><use xlink:href="#3" y="2.171"></use><text x="0" y="6.012" class="d">Calculating</text><text x="12.024" y="6.012" class="e">■■■■■■■■■■■■■■■■■</text><text x="46.09199999999999" y="6.012" class="d">53%</text><text x="50.1" y="6.012" class="d">|</text><text x="52.104" y="6.012" class="d">ETA:</text><text x="58.116" y="6.012" class="d">2s</text></svg><svg x="2240"><use xlink:href="#a"></use><use xlink:href="#1" y="0"></use><use xlink:href="#3" y="2.171"></use><text x="0" y="6.012" class="d">Calculating</text><text x="12.024" y="6.012" class="e">■■■■■■■■■■■■■■■■■■</text><text x="46.09199999999999" y="6.012" class="d">56%</text><text x="50.1" y="6.012" class="d">|</text><text x="52.104" y="6.012" class="d">ETA:</text><text x="58.116" y="6.012" class="d">2s</text></svg><svg x="2310"><use xlink:href="#a"></use><use xlink:href="#1" y="0"></use><use xlink:href="#3" y="2.171"></use><text x="0" y="6.012" class="d">Calculating</text><text x="12.024" y="6.012" class="e">■■■■■■■■■■■■■■■■■■</text><text x="46.09199999999999" y="6.012" class="d">58%</text><text x="50.1" y="6.012" class="d">|</text><text x="52.104" y="6.012" class="d">ETA:</text><text x="58.116" y="6.012" class="d">2s</text></svg><svg x="2380"><use xlink:href="#a"></use><use xlink:href="#1" y="0"></use><use xlink:href="#3" y="2.171"></use><text x="0" y="6.012" class="d">Calculating</text><text x="12.024" y="6.012" class="e">■■■■■■■■■■■■■■■■■■■</text><text x="46.09199999999999" y="6.012" class="d">60%</text><text x="50.1" y="6.012" class="d">|</text><text x="52.104" y="6.012" class="d">ETA:</text><text x="58.116" y="6.012" class="d">2s</text></svg><svg x="2450"><use xlink:href="#a"></use><use xlink:href="#1" y="0"></use><use xlink:href="#3" y="2.171"></use><text x="0" y="6.012" class="d">Calculating</text><text x="12.024" y="6.012" class="e">■■■■■■■■■■■■■■■■■■■■</text><text x="46.09199999999999" y="6.012" class="d">62%</text><text x="50.1" y="6.012" class="d">|</text><text x="52.104" y="6.012" class="d">ETA:</text><text x="58.116" y="6.012" class="d">2s</text></svg><svg x="2520"><use xlink:href="#a"></use><use xlink:href="#1" y="0"></use><use xlink:href="#3" y="2.171"></use><text x="0" y="6.012" class="d">Calculating</text><text x="12.024" y="6.012" class="e">■■■■■■■■■■■■■■■■■■■■</text><text x="46.09199999999999" y="6.012" class="d">64%</text><text x="50.1" y="6.012" class="d">|</text><text x="52.104" y="6.012" class="d">ETA:</text><text x="58.116" y="6.012" class="d">2s</text></svg><svg x="2590"><use xlink:href="#a"></use><use xlink:href="#1" y="0"></use><use xlink:href="#3" y="2.171"></use><text x="0" y="6.012" class="d">Calculating</text><text x="12.024" y="6.012" class="e">■■■■■■■■■■■■■■■■■■■■■</text><text x="46.09199999999999" y="6.012" class="d">66%</text><text x="50.1" y="6.012" class="d">|</text><text x="52.104" y="6.012" class="d">ETA:</text><text x="58.116" y="6.012" class="d">2s</text></svg><svg x="2660"><use xlink:href="#a"></use><use xlink:href="#1" y="0"></use><use xlink:href="#3" y="2.171"></use><text x="0" y="6.012" class="d">Calculating</text><text x="12.024" y="6.012" class="e">■■■■■■■■■■■■■■■■■■■■■■</text><text x="46.09199999999999" y="6.012" class="d">69%</text><text x="50.1" y="6.012" class="d">|</text><text x="52.104" y="6.012" class="d">ETA:</text><text x="58.116" y="6.012" class="d">1s</text></svg><svg x="2730"><use xlink:href="#a"></use><use xlink:href="#1" y="0"></use><use xlink:href="#3" y="2.171"></use><text x="0" y="6.012" class="d">Calculating</text><text x="12.024" y="6.012" class="e">■■■■■■■■■■■■■■■■■■■■■■</text><text x="46.09199999999999" y="6.012" class="d">71%</text><text x="50.1" y="6.012" class="d">|</text><text x="52.104" y="6.012" class="d">ETA:</text><text x="58.116" y="6.012" class="d">1s</text></svg><svg x="2800"><use xlink:href="#a"></use><use xlink:href="#1" y="0"></use><use xlink:href="#3" y="2.171"></use><text x="0" y="6.012" class="d">Calculating</text><text x="12.024" y="6.012" class="e">■■■■■■■■■■■■■■■■■■■■■■■</text><text x="46.09199999999999" y="6.012" class="d">73%</text><text x="50.1" y="6.012" class="d">|</text><text x="52.104" y="6.012" class="d">ETA:</text><text x="58.116" y="6.012" class="d">1s</text></svg><svg x="2870"><use xlink:href="#a"></use><use xlink:href="#1" y="0"></use><use xlink:href="#3" y="2.171"></use><text x="0" y="6.012" class="d">Calculating</text><text x="12.024" y="6.012" class="e">■■■■■■■■■■■■■■■■■■■■■■■</text><text x="46.09199999999999" y="6.012" class="d">75%</text><text x="50.1" y="6.012" class="d">|</text><text x="52.104" y="6.012" class="d">ETA:</text><text x="58.116" y="6.012" class="d">1s</text></svg><svg x="2940"><use xlink:href="#a"></use><use xlink:href="#1" y="0"></use><use xlink:href="#3" y="2.171"></use><text x="0" y="6.012" class="d">Calculating</text><text x="12.024" y="6.012" class="e">■■■■■■■■■■■■■■■■■■■■■■■■</text><text x="46.09199999999999" y="6.012" class="d">77%</text><text x="50.1" y="6.012" class="d">|</text><text x="52.104" y="6.012" class="d">ETA:</text><text x="58.116" y="6.012" class="d">1s</text></svg><svg x="3010"><use xlink:href="#a"></use><use xlink:href="#1" y="0"></use><use xlink:href="#3" y="2.171"></use><text x="0" y="6.012" class="d">Calculating</text><text x="12.024" y="6.012" class="e">■■■■■■■■■■■■■■■■■■■■■■■■■</text><text x="46.09199999999999" y="6.012" class="d">79%</text><text x="50.1" y="6.012" class="d">|</text><text x="52.104" y="6.012" class="d">ETA:</text><text x="58.116" y="6.012" class="d">1s</text></svg><svg x="3080"><use xlink:href="#a"></use><use xlink:href="#1" y="0"></use><use xlink:href="#3" y="2.171"></use><text x="0" y="6.012" class="d">Calculating</text><text x="12.024" y="6.012" class="e">■■■■■■■■■■■■■■■■■■■■■■■■■</text><text x="46.09199999999999" y="6.012" class="d">81%</text><text x="50.1" y="6.012" class="d">|</text><text x="52.104" y="6.012" class="d">ETA:</text><text x="58.116" y="6.012" class="d">1s</text></svg><svg x="3150"><use xlink:href="#a"></use><use xlink:href="#1" y="0"></use><use xlink:href="#3" y="2.171"></use><text x="0" y="6.012" class="d">Calculating</text><text x="12.024" y="6.012" class="e">■■■■■■■■■■■■■■■■■■■■■■■■■■</text><text x="46.09199999999999" y="6.012" class="d">83%</text><text x="50.1" y="6.012" class="d">|</text><text x="52.104" y="6.012" class="d">ETA:</text><text x="58.116" y="6.012" class="d">1s</text></svg><svg x="3220"><use xlink:href="#a"></use><use xlink:href="#1" y="0"></use><use xlink:href="#3" y="2.171"></use><text x="0" y="6.012" class="d">Calculating</text><text x="12.024" y="6.012" class="e">■■■■■■■■■■■■■■■■■■■■■■■■■■■</text><text x="46.09199999999999" y="6.012" class="d">86%</text><text x="50.1" y="6.012" class="d">|</text><text x="52.104" y="6.012" class="d">ETA:</text><text x="58.116" y="6.012" class="d">1s</text></svg><svg x="3290"><use xlink:href="#a"></use><use xlink:href="#1" y="0"></use><use xlink:href="#3" y="2.171"></use><text x="0" y="6.012" class="d">Calculating</text><text x="12.024" y="6.012" class="e">■■■■■■■■■■■■■■■■■■■■■■■■■■■</text><text x="46.09199999999999" y="6.012" class="d">88%</text><text x="50.1" y="6.012" class="d">|</text><text x="52.104" y="6.012" class="d">ETA:</text><text x="58.116" y="6.012" class="d">1s</text></svg><svg x="3360"><use xlink:href="#a"></use><use xlink:href="#1" y="0"></use><use xlink:href="#3" y="2.171"></use><text x="0" y="6.012" class="d">Calculating</text><text x="12.024" y="6.012" class="e">■■■■■■■■■■■■■■■■■■■■■■■■■■■■</text><text x="46.09199999999999" y="6.012" class="d">90%</text><text x="50.1" y="6.012" class="d">|</text><text x="52.104" y="6.012" class="d">ETA:</text><text x="58.116" y="6.012" class="d">0s</text></svg><svg x="3430"><use xlink:href="#a"></use><use xlink:href="#1" y="0"></use><use xlink:href="#3" y="2.171"></use><text x="0" y="6.012" class="d">Calculating</text><text x="12.024" y="6.012" class="e">■■■■■■■■■■■■■■■■■■■■■■■■■■■■■</text><text x="46.09199999999999" y="6.012" class="d">92%</text><text x="50.1" y="6.012" class="d">|</text><text x="52.104" y="6.012" class="d">ETA:</text><text x="58.116" y="6.012" class="d">0s</text></svg><svg x="3500"><use xlink:href="#a"></use><use xlink:href="#1" y="0"></use><use xlink:href="#3" y="2.171"></use><text x="0" y="6.012" class="d">Calculating</text><text x="12.024" y="6.012" class="e">■■■■■■■■■■■■■■■■■■■■■■■■■■■■■</text><text x="46.09199999999999" y="6.012" class="d">94%</text><text x="50.1" y="6.012" class="d">|</text><text x="52.104" y="6.012" class="d">ETA:</text><text x="58.116" y="6.012" class="d">0s</text></svg><svg x="3570"><use xlink:href="#a"></use><use xlink:href="#1" y="0"></use><use xlink:href="#3" y="2.171"></use><text x="0" y="6.012" class="d">Calculating</text><text x="12.024" y="6.012" class="e">■■■■■■■■■■■■■■■■■■■■■■■■■■■■■■</text><text x="46.09199999999999" y="6.012" class="d">96%</text><text x="50.1" y="6.012" class="d">|</text><text x="52.104" y="6.012" class="d">ETA:</text><text x="58.116" y="6.012" class="d">0s</text></svg><svg x="3640"><use xlink:href="#a"></use><use xlink:href="#1" y="0"></use><use xlink:href="#3" y="2.171"></use><text x="0" y="6.012" class="d">Calculating</text><text x="12.024" y="6.012" class="e">■■■■■■■■■■■■■■■■■■■■■■■■■■■■■■</text><text x="46.09199999999999" y="6.012" class="d">98%</text><text x="50.1" y="6.012" class="d">|</text><text x="52.104" y="6.012" class="d">ETA:</text><text x="58.116" y="6.012" class="d">0s</text></svg><svg x="3710"><use xlink:href="#a"></use><use xlink:href="#1" y="0"></use><use xlink:href="#3" y="2.171"></use><use xlink:href="#4" y="4.342"></use></svg><svg x="3780"><use xlink:href="#a"></use><use xlink:href="#1" y="0"></use><use xlink:href="#3" y="2.171"></use><use xlink:href="#4" y="4.342"></use><use xlink:href="#5" y="6.513"></use></svg><svg x="3850"><use xlink:href="#a"></use><use xlink:href="#1" y="0"></use><use xlink:href="#3" y="2.171"></use><use xlink:href="#4" y="4.342"></use><use xlink:href="#5" y="6.513"></use></svg><svg x="3920"><use xlink:href="#a"></use><use xlink:href="#1" y="0"></use><use xlink:href="#3" y="2.171"></use><use xlink:href="#4" y="4.342"></use><use xlink:href="#5" y="6.513"></use></svg></svg></g></g></svg></svg>