<svg xmlns="http://www.w3.org/2000/svg" xmlns:xlink="http://www.w3.org/1999/xlink" width="740" height="61.709999999999994"><rect width="740" height="61.709999999999994" rx="0" ry="0" class="a"></rect><svg height="21.709999999999997" viewBox="0 0 70 2.171" width="700" x="20" xmlns="http://www.w3.org/2000/svg" xmlns:xlink="http://www.w3.org/1999/xlink" y="20"><style>.a{fill:rgb(40,45,53)}.b{font-family:'Fira Code',Monaco,Consolas,Menlo,'Bitstream Vera Sans Mono','Powerline Symbols',monospace}.c{fill:rgb(185,192,203);white-space:pre}.d{fill:rgb(168,204,140);white-space:pre}.e{fill:transparent}.g{animation-duration:9.13990187644958s;animation-iteration-count:infinite;animation-name:f;animation-timing-function:steps(1,end)}@keyframes f{0%{transform:translateX(-0px)}0.1%{transform:translateX(-70px)}1.9%{transform:translateX(-140px)}2%{transform:translateX(-210px)}3.3%{transform:translateX(-280px)}4.6%{transform:translateX(-350px)}5.3%{transform:translateX(-420px)}6.6%{transform:translateX(-490px)}7.8%{transform:translateX(-560px)}9.1%{transform:translateX(-630px)}9.8%{transform:translateX(-700px)}11.1%{transform:translateX(-770px)}12.4%{transform:translateX(-840px)}13.1%{transform:translateX(-910px)}14.3%{transform:translateX(-980px)}15.6%{transform:translateX(-1050px)}16.9%{transform:translateX(-1120px)}17.5%{transform:translateX(-1190px)}18.8%{transform:translateX(-1260px)}20%{transform:translateX(-1330px)}21.4%{transform:translateX(-1400px)}22.1%{transform:translateX(-1470px)}23.4%{transform:translateX(-1540px)}24.6%{transform:translateX(-1610px)}25.3%{transform:translateX(-1680px)}26.6%{transform:translateX(-1750px)}27.9%{transform:translateX(-1820px)}29.1%{transform:translateX(-1890px)}29.8%{transform:translateX(-1960px)}31.1%{transform:translateX(-2030px)}32.4%{transform:translateX(-2100px)}33.1%{transform:translateX(-2170px)}34.4%{transform:translateX(-2240px)}35.7%{transform:translateX(-2310px)}37%{transform:translateX(-2380px)}37.6%{transform:translateX(-2450px)}38.9%{transform:translateX(-2520px)}40.2%{transform:translateX(-2590px)}40.9%{transform:translateX(-2660px)}42.1%{transform:translateX(-2730px)}43.4%{transform:translateX(-2800px)}44.7%{transform:translateX(-2870px)}45.4%{transform:translateX(-2940px)}46.6%{transform:translateX(-3010px)}47.9%{transform:translateX(-3080px)}49.1%{transform:translateX(-3150px)}49.8%{transform:translateX(-3220px)}51.1%{transform:translateX(-3290px)}52.4%{transform:translateX(-3360px)}53.6%{transform:translateX(-3430px)}54.4%{transform:translateX(-3500px)}55.7%{transform:translateX(-3570px)}56.9%{transform:translateX(-3640px)}57.6%{transform:translateX(-3710px)}58.9%{transform:translateX(-3780px)}60.2%{transform:translateX(-3850px)}61.4%{transform:translateX(-3920px)}62.2%{transform:translateX(-3990px)}63.5%{transform:translateX(-4060px)}64.8%{transform:translateX(-4130px)}66%{transform:translateX(-4200px)}66%{transform:translateX(-4270px)}100%{transform:translateX(-4340px)}}</style><g font-family="&#x27;Fira Code&#x27;,Monaco,Consolas,Menlo,&#x27;Bitstream Vera Sans Mono&#x27;,&#x27;Powerline Symbols&#x27;,monospace" font-size="1.67" class="b"><defs><symbol id="1"><text x="0" y="1.67" class="c">Cleaning</text><text x="9.017999999999999" y="1.67" class="c">data</text><text x="14.027999999999999" y="1.67" class="d">■■■■■■■■■■■■■■■■■■■■■■■■■■■■■■■</text><text x="47.093999999999994" y="1.67" class="c">100%</text><text x="52.104" y="1.67" class="c">|</text><text x="54.108" y="1.67" class="c">ETA:</text><text x="60.11999999999999" y="1.67" class="c">0s</text></symbol><symbol id="a"><rect height="2" width="70" x="0" y="0" class="e"></rect></symbol></defs><rect height="2.171" width="70" class="a"></rect><g class="g"><svg x="0" y="0" width="4410"><svg x="0"><use xlink:href="#a"></use></svg><svg x="70"><use xlink:href="#a"></use></svg><svg x="140"><use xlink:href="#a"></use></svg><svg x="210"><use xlink:href="#a"></use><text x="0" y="1.67" class="c">Cleaning</text><text x="9.017999999999999" y="1.67" class="c">data</text><text x="14.027999999999999" y="1.67" class="d">■</text><text x="49.098" y="1.67" class="c">1%</text><text x="52.104" y="1.67" class="c">|</text><text x="54.108" y="1.67" class="c">ETA:</text><text x="60.11999999999999" y="1.67" class="c">5s</text></svg><svg x="280"><use xlink:href="#a"></use><text x="0" y="1.67" class="c">Cleaning</text><text x="9.017999999999999" y="1.67" class="c">data</text><text x="14.027999999999999" y="1.67" class="d">■■</text><text x="49.098" y="1.67" class="c">3%</text><text x="52.104" y="1.67" class="c">|</text><text x="54.108" y="1.67" class="c">ETA:</text><text x="60.11999999999999" y="1.67" class="c">6s</text></svg><svg x="350"><use xlink:href="#a"></use><text x="0" y="1.67" class="c">Cleaning</text><text x="9.017999999999999" y="1.67" class="c">data</text><text x="14.027999999999999" y="1.67" class="d">■■■</text><text x="49.098" y="1.67" class="c">5%</text><text x="52.104" y="1.67" class="c">|</text><text x="54.108" y="1.67" class="c">ETA:</text><text x="60.11999999999999" y="1.67" class="c">6s</text></svg><svg x="420"><use xlink:href="#a"></use><text x="0" y="1.67" class="c">Cleaning</text><text x="9.017999999999999" y="1.67" class="c">data</text><text x="14.027999999999999" y="1.67" class="d">■■■</text><text x="49.098" y="1.67" class="c">6%</text><text x="52.104" y="1.67" class="c">|</text><text x="54.108" y="1.67" class="c">ETA:</text><text x="60.11999999999999" y="1.67" class="c">6s</text></svg><svg x="490"><use xlink:href="#a"></use><text x="0" y="1.67" class="c">Cleaning</text><text x="9.017999999999999" y="1.67" class="c">data</text><text x="14.027999999999999" y="1.67" class="d">■■■</text><text x="49.098" y="1.67" class="c">8%</text><text x="52.104" y="1.67" class="c">|</text><text x="54.108" y="1.67" class="c">ETA:</text><text x="60.11999999999999" y="1.67" class="c">5s</text></svg><svg x="560"><use xlink:href="#a"></use><text x="0" y="1.67" class="c">Cleaning</text><text x="9.017999999999999" y="1.67" class="c">data</text><text x="14.027999999999999" y="1.67" class="d">■■■■</text><text x="48.096" y="1.67" class="c">10%</text><text x="52.104" y="1.67" class="c">|</text><text x="54.108" y="1.67" class="c">ETA:</text><text x="60.11999999999999" y="1.67" class="c">5s</text></svg><svg x="630"><use xlink:href="#a"></use><text x="0" y="1.67" class="c">Cleaning</text><text x="9.017999999999999" y="1.67" class="c">data</text><text x="14.027999999999999" y="1.67" class="d">■■■■■</text><text x="48.096" y="1.67" class="c">12%</text><text x="52.104" y="1.67" class="c">|</text><text x="54.108" y="1.67" class="c">ETA:</text><text x="60.11999999999999" y="1.67" class="c">5s</text></svg><svg x="700"><use xlink:href="#a"></use><text x="0" y="1.67" class="c">Cleaning</text><text x="9.017999999999999" y="1.67" class="c">data</text><text x="14.027999999999999" y="1.67" class="d">■■■■■</text><text x="48.096" y="1.67" class="c">13%</text><text x="52.104" y="1.67" class="c">|</text><text x="54.108" y="1.67" class="c">ETA:</text><text x="60.11999999999999" y="1.67" class="c">5s</text></svg><svg x="770"><use xlink:href="#a"></use><text x="0" y="1.67" class="c">Cleaning</text><text x="9.017999999999999" y="1.67" class="c">data</text><text x="14.027999999999999" y="1.67" class="d">■■■■■</text><text x="48.096" y="1.67" class="c">15%</text><text x="52.104" y="1.67" class="c">|</text><text x="54.108" y="1.67" class="c">ETA:</text><text x="60.11999999999999" y="1.67" class="c">5s</text></svg><svg x="840"><use xlink:href="#a"></use><text x="0" y="1.67" class="c">Cleaning</text><text x="9.017999999999999" y="1.67" class="c">data</text><text x="14.027999999999999" y="1.67" class="d">■■■■■■</text><text x="48.096" y="1.67" class="c">17%</text><text x="52.104" y="1.67" class="c">|</text><text x="54.108" y="1.67" class="c">ETA:</text><text x="60.11999999999999" y="1.67" class="c">5s</text></svg><svg x="910"><use xlink:href="#a"></use><text x="0" y="1.67" class="c">Cleaning</text><text x="9.017999999999999" y="1.67" class="c">data</text><text x="14.027999999999999" y="1.67" class="d">■■■■■■</text><text x="48.096" y="1.67" class="c">18%</text><text x="52.104" y="1.67" class="c">|</text><text x="54.108" y="1.67" class="c">ETA:</text><text x="60.11999999999999" y="1.67" class="c">5s</text></svg><svg x="980"><use xlink:href="#a"></use><text x="0" y="1.67" class="c">Cleaning</text><text x="9.017999999999999" y="1.67" class="c">data</text><text x="14.027999999999999" y="1.67" class="d">■■■■■■■</text><text x="48.096" y="1.67" class="c">20%</text><text x="52.104" y="1.67" class="c">|</text><text x="54.108" y="1.67" class="c">ETA:</text><text x="60.11999999999999" y="1.67" class="c">5s</text></svg><svg x="1050"><use xlink:href="#a"></use><text x="0" y="1.67" class="c">Cleaning</text><text x="9.017999999999999" y="1.67" class="c">data</text><text x="14.027999999999999" y="1.67" class="d">■■■■■■■■</text><text x="48.096" y="1.67" class="c">22%</text><text x="52.104" y="1.67" class="c">|</text><text x="54.108" y="1.67" class="c">ETA:</text><text x="60.11999999999999" y="1.67" class="c">5s</text></svg><svg x="1120"><use xlink:href="#a"></use><text x="0" y="1.67" class="c">Cleaning</text><text x="9.017999999999999" y="1.67" class="c">data</text><text x="14.027999999999999" y="1.67" class="d">■■■■■■■■</text><text x="48.096" y="1.67" class="c">24%</text><text x="52.104" y="1.67" class="c">|</text><text x="54.108" y="1.67" class="c">ETA:</text><text x="60.11999999999999" y="1.67" class="c">4s</text></svg><svg x="1190"><use xlink:href="#a"></use><text x="0" y="1.67" class="c">Cleaning</text><text x="9.017999999999999" y="1.67" class="c">data</text><text x="14.027999999999999" y="1.67" class="d">■■■■■■■■■</text><text x="48.096" y="1.67" class="c">25%</text><text x="52.104" y="1.67" class="c">|</text><text x="54.108" y="1.67" class="c">ETA:</text><text x="60.11999999999999" y="1.67" class="c">4s</text></svg><svg x="1260"><use xlink:href="#a"></use><text x="0" y="1.67" class="c">Cleaning</text><text x="9.017999999999999" y="1.67" class="c">data</text><text x="14.027999999999999" y="1.67" class="d">■■■■■■■■■</text><text x="48.096" y="1.67" class="c">27%</text><text x="52.104" y="1.67" class="c">|</text><text x="54.108" y="1.67" class="c">ETA:</text><text x="60.11999999999999" y="1.67" class="c">4s</text></svg><svg x="1330"><use xlink:href="#a"></use><text x="0" y="1.67" class="c">Cleaning</text><text x="9.017999999999999" y="1.67" class="c">data</text><text x="14.027999999999999" y="1.67" class="d">■■■■■■■■■■</text><text x="48.096" y="1.67" class="c">29%</text><text x="52.104" y="1.67" class="c">|</text><text x="54.108" y="1.67" class="c">ETA:</text><text x="60.11999999999999" y="1.67" class="c">4s</text></svg><svg x="1400"><use xlink:href="#a"></use><text x="0" y="1.67" class="c">Cleaning</text><text x="9.017999999999999" y="1.67" class="c">data</text><text x="14.027999999999999" y="1.67" class="d">■■■■■■■■■■</text><text x="48.096" y="1.67" class="c">31%</text><text x="52.104" y="1.67" class="c">|</text><text x="54.108" y="1.67" class="c">ETA:</text><text x="60.11999999999999" y="1.67" class="c">4s</text></svg><svg x="1470"><use xlink:href="#a"></use><text x="0" y="1.67" class="c">Cleaning</text><text x="9.017999999999999" y="1.67" class="c">data</text><text x="14.027999999999999" y="1.67" class="d">■■■■■■■■■■■</text><text x="48.096" y="1.67" class="c">32%</text><text x="52.104" y="1.67" class="c">|</text><text x="54.108" y="1.67" class="c">ETA:</text><text x="60.11999999999999" y="1.67" class="c">4s</text></svg><svg x="1540"><use xlink:href="#a"></use><text x="0" y="1.67" class="c">Cleaning</text><text x="9.017999999999999" y="1.67" class="c">data</text><text x="14.027999999999999" y="1.67" class="d">■■■■■■■■■■■</text><text x="48.096" y="1.67" class="c">34%</text><text x="52.104" y="1.67" class="c">|</text><text x="54.108" y="1.67" class="c">ETA:</text><text x="60.11999999999999" y="1.67" class="c">4s</text></svg><svg x="1610"><use xlink:href="#a"></use><text x="0" y="1.67" class="c">Cleaning</text><text x="9.017999999999999" y="1.67" class="c">data</text><text x="14.027999999999999" y="1.67" class="d">■■■■■■■■■■■■</text><text x="48.096" y="1.67" class="c">36%</text><text x="52.104" y="1.67" class="c">|</text><text x="54.108" y="1.67" class="c">ETA:</text><text x="60.11999999999999" y="1.67" class="c">4s</text></svg><svg x="1680"><use xlink:href="#a"></use><text x="0" y="1.67" class="c">Cleaning</text><text x="9.017999999999999" y="1.67" class="c">data</text><text x="14.027999999999999" y="1.67" class="d">■■■■■■■■■■■■</text><text x="48.096" y="1.67" class="c">37%</text><text x="52.104" y="1.67" class="c">|</text><text x="54.108" y="1.67" class="c">ETA:</text><text x="60.11999999999999" y="1.67" class="c">4s</text></svg><svg x="1750"><use xlink:href="#a"></use><text x="0" y="1.67" class="c">Cleaning</text><text x="9.017999999999999" y="1.67" class="c">data</text><text x="14.027999999999999" y="1.67" class="d">■■■■■■■■■■■■■</text><text x="48.096" y="1.67" class="c">39%</text><text x="52.104" y="1.67" class="c">|</text><text x="54.108" y="1.67" class="c">ETA:</text><text x="60.11999999999999" y="1.67" class="c">4s</text></svg><svg x="1820"><use xlink:href="#a"></use><text x="0" y="1.67" class="c">Cleaning</text><text x="9.017999999999999" y="1.67" class="c">data</text><text x="14.027999999999999" y="1.67" class="d">■■■■■■■■■■■■■</text><text x="48.096" y="1.67" class="c">41%</text><text x="52.104" y="1.67" class="c">|</text><text x="54.108" y="1.67" class="c">ETA:</text><text x="60.11999999999999" y="1.67" class="c">3s</text></svg><svg x="1890"><use xlink:href="#a"></use><text x="0" y="1.67" class="c">Cleaning</text><text x="9.017999999999999" y="1.67" class="c">data</text><text x="14.027999999999999" y="1.67" class="d">■■■■■■■■■■■■■■</text><text x="48.096" y="1.67" class="c">43%</text><text x="52.104" y="1.67" class="c">|</text><text x="54.108" y="1.67" class="c">ETA:</text><text x="60.11999999999999" y="1.67" class="c">3s</text></svg><svg x="1960"><use xlink:href="#a"></use><text x="0" y="1.67" class="c">Cleaning</text><text x="9.017999999999999" y="1.67" class="c">data</text><text x="14.027999999999999" y="1.67" class="d">■■■■■■■■■■■■■■</text><text x="48.096" y="1.67" class="c">44%</text><text x="52.104" y="1.67" class="c">|</text><text x="54.108" y="1.67" class="c">ETA:</text><text x="60.11999999999999" y="1.67" class="c">3s</text></svg><svg x="2030"><use xlink:href="#a"></use><text x="0" y="1.67" class="c">Cleaning</text><text x="9.017999999999999" y="1.67" class="c">data</text><text x="14.027999999999999" y="1.67" class="d">■■■■■■■■■■■■■■■</text><text x="48.096" y="1.67" class="c">46%</text><text x="52.104" y="1.67" class="c">|</text><text x="54.108" y="1.67" class="c">ETA:</text><text x="60.11999999999999" y="1.67" class="c">3s</text></svg><svg x="2100"><use xlink:href="#a"></use><text x="0" y="1.67" class="c">Cleaning</text><text x="9.017999999999999" y="1.67" class="c">data</text><text x="14.027999999999999" y="1.67" class="d">■■■■■■■■■■■■■■■</text><text x="48.096" y="1.67" class="c">48%</text><text x="52.104" y="1.67" class="c">|</text><text x="54.108" y="1.67" class="c">ETA:</text><text x="60.11999999999999" y="1.67" class="c">3s</text></svg><svg x="2170"><use xlink:href="#a"></use><text x="0" y="1.67" class="c">Cleaning</text><text x="9.017999999999999" y="1.67" class="c">data</text><text x="14.027999999999999" y="1.67" class="d">■■■■■■■■■■■■■■■■</text><text x="48.096" y="1.67" class="c">49%</text><text x="52.104" y="1.67" class="c">|</text><text x="54.108" y="1.67" class="c">ETA:</text><text x="60.11999999999999" y="1.67" class="c">3s</text></svg><svg x="2240"><use xlink:href="#a"></use><text x="0" y="1.67" class="c">Cleaning</text><text x="9.017999999999999" y="1.67" class="c">data</text><text x="14.027999999999999" y="1.67" class="d">■■■■■■■■■■■■■■■■</text><text x="48.096" y="1.67" class="c">51%</text><text x="52.104" y="1.67" class="c">|</text><text x="54.108" y="1.67" class="c">ETA:</text><text x="60.11999999999999" y="1.67" class="c">3s</text></svg><svg x="2310"><use xlink:href="#a"></use><text x="0" y="1.67" class="c">Cleaning</text><text x="9.017999999999999" y="1.67" class="c">data</text><text x="14.027999999999999" y="1.67" class="d">■■■■■■■■■■■■■■■■■</text><text x="48.096" y="1.67" class="c">53%</text><text x="52.104" y="1.67" class="c">|</text><text x="54.108" y="1.67" class="c">ETA:</text><text x="60.11999999999999" y="1.67" class="c">3s</text></svg><svg x="2380"><use xlink:href="#a"></use><text x="0" y="1.67" class="c">Cleaning</text><text x="9.017999999999999" y="1.67" class="c">data</text><text x="14.027999999999999" y="1.67" class="d">■■■■■■■■■■■■■■■■■</text><text x="48.096" y="1.67" class="c">55%</text><text x="52.104" y="1.67" class="c">|</text><text x="54.108" y="1.67" class="c">ETA:</text><text x="60.11999999999999" y="1.67" class="c">3s</text></svg><svg x="2450"><use xlink:href="#a"></use><text x="0" y="1.67" class="c">Cleaning</text><text x="9.017999999999999" y="1.67" class="c">data</text><text x="14.027999999999999" y="1.67" class="d">■■■■■■■■■■■■■■■■■■</text><text x="48.096" y="1.67" class="c">56%</text><text x="52.104" y="1.67" class="c">|</text><text x="54.108" y="1.67" class="c">ETA:</text><text x="60.11999999999999" y="1.67" class="c">3s</text></svg><svg x="2520"><use xlink:href="#a"></use><text x="0" y="1.67" class="c">Cleaning</text><text x="9.017999999999999" y="1.67" class="c">data</text><text x="14.027999999999999" y="1.67" class="d">■■■■■■■■■■■■■■■■■■</text><text x="48.096" y="1.67" class="c">58%</text><text x="52.104" y="1.67" class="c">|</text><text x="54.108" y="1.67" class="c">ETA:</text><text x="60.11999999999999" y="1.67" class="c">2s</text></svg><svg x="2590"><use xlink:href="#a"></use><text x="0" y="1.67" class="c">Cleaning</text><text x="9.017999999999999" y="1.67" class="c">data</text><text x="14.027999999999999" y="1.67" class="d">■■■■■■■■■■■■■■■■■■■</text><text x="48.096" y="1.67" class="c">60%</text><text x="52.104" y="1.67" class="c">|</text><text x="54.108" y="1.67" class="c">ETA:</text><text x="60.11999999999999" y="1.67" class="c">2s</text></svg><svg x="2660"><use xlink:href="#a"></use><text x="0" y="1.67" class="c">Cleaning</text><text x="9.017999999999999" y="1.67" class="c">data</text><text x="14.027999999999999" y="1.67" class="d">■■■■■■■■■■■■■■■■■■■</text><text x="48.096" y="1.67" class="c">61%</text><text x="52.104" y="1.67" class="c">|</text><text x="54.108" y="1.67" class="c">ETA:</text><text x="60.11999999999999" y="1.67" class="c">2s</text></svg><svg x="2730"><use xlink:href="#a"></use><text x="0" y="1.67" class="c">Cleaning</text><text x="9.017999999999999" y="1.67" class="c">data</text><text x="14.027999999999999" y="1.67" class="d">■■■■■■■■■■■■■■■■■■■■</text><text x="48.096" y="1.67" class="c">63%</text><text x="52.104" y="1.67" class="c">|</text><text x="54.108" y="1.67" class="c">ETA:</text><text x="60.11999999999999" y="1.67" class="c">2s</text></svg><svg x="2800"><use xlink:href="#a"></use><text x="0" y="1.67" class="c">Cleaning</text><text x="9.017999999999999" y="1.67" class="c">data</text><text x="14.027999999999999" y="1.67" class="d">■■■■■■■■■■■■■■■■■■■■■</text><text x="48.096" y="1.67" class="c">65%</text><text x="52.104" y="1.67" class="c">|</text><text x="54.108" y="1.67" class="c">ETA:</text><text x="60.11999999999999" y="1.67" class="c">2s</text></svg><svg x="2870"><use xlink:href="#a"></use><text x="0" y="1.67" class="c">Cleaning</text><text x="9.017999999999999" y="1.67" class="c">data</text><text x="14.027999999999999" y="1.67" class="d">■■■■■■■■■■■■■■■■■■■■■</text><text x="48.096" y="1.67" class="c">67%</text><text x="52.104" y="1.67" class="c">|</text><text x="54.108" y="1.67" class="c">ETA:</text><text x="60.11999999999999" y="1.67" class="c">2s</text></svg><svg x="2940"><use xlink:href="#a"></use><text x="0" y="1.67" class="c">Cleaning</text><text x="9.017999999999999" y="1.67" class="c">data</text><text x="14.027999999999999" y="1.67" class="d">■■■■■■■■■■■■■■■■■■■■■</text><text x="48.096" y="1.67" class="c">68%</text><text x="52.104" y="1.67" class="c">|</text><text x="54.108" y="1.67" class="c">ETA:</text><text x="60.11999999999999" y="1.67" class="c">2s</text></svg><svg x="3010"><use xlink:href="#a"></use><text x="0" y="1.67" class="c">Cleaning</text><text x="9.017999999999999" y="1.67" class="c">data</text><text x="14.027999999999999" y="1.67" class="d">■■■■■■■■■■■■■■■■■■■■■■</text><text x="48.096" y="1.67" class="c">70%</text><text x="52.104" y="1.67" class="c">|</text><text x="54.108" y="1.67" class="c">ETA:</text><text x="60.11999999999999" y="1.67" class="c">2s</text></svg><svg x="3080"><use xlink:href="#a"></use><text x="0" y="1.67" class="c">Cleaning</text><text x="9.017999999999999" y="1.67" class="c">data</text><text x="14.027999999999999" y="1.67" class="d">■■■■■■■■■■■■■■■■■■■■■■■</text><text x="48.096" y="1.67" class="c">72%</text><text x="52.104" y="1.67" class="c">|</text><text x="54.108" y="1.67" class="c">ETA:</text><text x="60.11999999999999" y="1.67" class="c">2s</text></svg><svg x="3150"><use xlink:href="#a"></use><text x="0" y="1.67" class="c">Cleaning</text><text x="9.017999999999999" y="1.67" class="c">data</text><text x="14.027999999999999" y="1.67" class="d">■■■■■■■■■■■■■■■■■■■■■■■</text><text x="48.096" y="1.67" class="c">74%</text><text x="52.104" y="1.67" class="c">|</text><text x="54.108" y="1.67" class="c">ETA:</text><text x="60.11999999999999" y="1.67" class="c">2s</text></svg><svg x="3220"><use xlink:href="#a"></use><text x="0" y="1.67" class="c">Cleaning</text><text x="9.017999999999999" y="1.67" class="c">data</text><text x="14.027999999999999" y="1.67" class="d">■■■■■■■■■■■■■■■■■■■■■■■</text><text x="48.096" y="1.67" class="c">75%</text><text x="52.104" y="1.67" class="c">|</text><text x="54.108" y="1.67" class="c">ETA:</text><text x="60.11999999999999" y="1.67" class="c">1s</text></svg><svg x="3290"><use xlink:href="#a"></use><text x="0" y="1.67" class="c">Cleaning</text><text x="9.017999999999999" y="1.67" class="c">data</text><text x="14.027999999999999" y="1.67" class="d">■■■■■■■■■■■■■■■■■■■■■■■■</text><text x="48.096" y="1.67" class="c">77%</text><text x="52.104" y="1.67" class="c">|</text><text x="54.108" y="1.67" class="c">ETA:</text><text x="60.11999999999999" y="1.67" class="c">1s</text></svg><svg x="3360"><use xlink:href="#a"></use><text x="0" y="1.67" class="c">Cleaning</text><text x="9.017999999999999" y="1.67" class="c">data</text><text x="14.027999999999999" y="1.67" class="d">■■■■■■■■■■■■■■■■■■■■■■■■■</text><text x="48.096" y="1.67" class="c">79%</text><text x="52.104" y="1.67" class="c">|</text><text x="54.108" y="1.67" class="c">ETA:</text><text x="60.11999999999999" y="1.67" class="c">1s</text></svg><svg x="3430"><use xlink:href="#a"></use><text x="0" y="1.67" class="c">Cleaning</text><text x="9.017999999999999" y="1.67" class="c">data</text><text x="14.027999999999999" y="1.67" class="d">■■■■■■■■■■■■■■■■■■■■■■■■■</text><text x="48.096" y="1.67" class="c">81%</text><text x="52.104" y="1.67" class="c">|</text><text x="54.108" y="1.67" class="c">ETA:</text><text x="60.11999999999999" y="1.67" class="c">1s</text></svg><svg x="3500"><use xlink:href="#a"></use><text x="0" y="1.67" class="c">Cleaning</text><text x="9.017999999999999" y="1.67" class="c">data</text><text x="14.027999999999999" y="1.67" class="d">■■■■■■■■■■■■■■■■■■■■■■■■■■</text><text x="48.096" y="1.67" class="c">82%</text><text x="52.104" y="1.67" class="c">|</text><text x="54.108" y="1.67" class="c">ETA:</text><text x="60.11999999999999" y="1.67" class="c">1s</text></svg><svg x="3570"><use xlink:href="#a"></use><text x="0" y="1.67" class="c">Cleaning</text><text x="9.017999999999999" y="1.67" class="c">data</text><text x="14.027999999999999" y="1.67" class="d">■■■■■■■■■■■■■■■■■■■■■■■■■■</text><text x="48.096" y="1.67" class="c">84%</text><text x="52.104" y="1.67" class="c">|</text><text x="54.108" y="1.67" class="c">ETA:</text><text x="60.11999999999999" y="1.67" class="c">1s</text></svg><svg x="3640"><use xlink:href="#a"></use><text x="0" y="1.67" class="c">Cleaning</text><text x="9.017999999999999" y="1.67" class="c">data</text><text x="14.027999999999999" y="1.67" class="d">■■■■■■■■■■■■■■■■■■■■■■■■■■■</text><text x="48.096" y="1.67" class="c">86%</text><text x="52.104" y="1.67" class="c">|</text><text x="54.108" y="1.67" class="c">ETA:</text><text x="60.11999999999999" y="1.67" class="c">1s</text></svg><svg x="3710"><use xlink:href="#a"></use><text x="0" y="1.67" class="c">Cleaning</text><text x="9.017999999999999" y="1.67" class="c">data</text><text x="14.027999999999999" y="1.67" class="d">■■■■■■■■■■■■■■■■■■■■■■■■■■■</text><text x="48.096" y="1.67" class="c">87%</text><text x="52.104" y="1.67" class="c">|</text><text x="54.108" y="1.67" class="c">ETA:</text><text x="60.11999999999999" y="1.67" class="c">1s</text></svg><svg x="3780"><use xlink:href="#a"></use><text x="0" y="1.67" class="c">Cleaning</text><text x="9.017999999999999" y="1.67" class="c">data</text><text x="14.027999999999999" y="1.67" class="d">■■■■■■■■■■■■■■■■■■■■■■■■■■■■</text><text x="48.096" y="1.67" class="c">89%</text><text x="52.104" y="1.67" class="c">|</text><text x="54.108" y="1.67" class="c">ETA:</text><text x="60.11999999999999" y="1.67" class="c">1s</text></svg><svg x="3850"><use xlink:href="#a"></use><text x="0" y="1.67" class="c">Cleaning</text><text x="9.017999999999999" y="1.67" class="c">data</text><text x="14.027999999999999" y="1.67" class="d">■■■■■■■■■■■■■■■■■■■■■■■■■■■■</text><text x="48.096" y="1.67" class="c">91%</text><text x="52.104" y="1.67" class="c">|</text><text x="54.108" y="1.67" class="c">ETA:</text><text x="60.11999999999999" y="1.67" class="c">1s</text></svg><svg x="3920"><use xlink:href="#a"></use><text x="0" y="1.67" class="c">Cleaning</text><text x="9.017999999999999" y="1.67" class="c">data</text><text x="14.027999999999999" y="1.67" class="d">■■■■■■■■■■■■■■■■■■■■■■■■■■■■■</text><text x="48.096" y="1.67" class="c">93%</text><text x="52.104" y="1.67" class="c">|</text><text x="54.108" y="1.67" class="c">ETA:</text><text x="60.11999999999999" y="1.67" class="c">0s</text></svg><svg x="3990"><use xlink:href="#a"></use><text x="0" y="1.67" class="c">Cleaning</text><text x="9.017999999999999" y="1.67" class="c">data</text><text x="14.027999999999999" y="1.67" class="d">■■■■■■■■■■■■■■■■■■■■■■■■■■■■■</text><text x="48.096" y="1.67" class="c">94%</text><text x="52.104" y="1.67" class="c">|</text><text x="54.108" y="1.67" class="c">ETA:</text><text x="60.11999999999999" y="1.67" class="c">0s</text></svg><svg x="4060"><use xlink:href="#a"></use><text x="0" y="1.67" class="c">Cleaning</text><text x="9.017999999999999" y="1.67" class="c">data</text><text x="14.027999999999999" y="1.67" class="d">■■■■■■■■■■■■■■■■■■■■■■■■■■■■■■</text><text x="48.096" y="1.67" class="c">96%</text><text x="52.104" y="1.67" class="c">|</text><text x="54.108" y="1.67" class="c">ETA:</text><text x="60.11999999999999" y="1.67" class="c">0s</text></svg><svg x="4130"><use xlink:href="#a"></use><text x="0" y="1.67" class="c">Cleaning</text><text x="9.017999999999999" y="1.67" class="c">data</text><text x="14.027999999999999" y="1.67" class="d">■■■■■■■■■■■■■■■■■■■■■■■■■■■■■■</text><text x="48.096" y="1.67" class="c">98%</text><text x="52.104" y="1.67" class="c">|</text><text x="54.108" y="1.67" class="c">ETA:</text><text x="60.11999999999999" y="1.67" class="c">0s</text></svg><svg x="4200"><use xlink:href="#a"></use><use xlink:href="#1" y="0"></use></svg><svg x="4270"><use xlink:href="#a"></use><use xlink:href="#1" y="0"></use></svg><svg x="4340"><use xlink:href="#a"></use><use xlink:href="#1" y="0"></use></svg></svg></g></g></svg></svg>