<svg xmlns="http://www.w3.org/2000/svg" xmlns:xlink="http://www.w3.org/1999/xlink" width="840" height="61.709999999999994"><rect width="840" height="61.709999999999994" rx="0" ry="0" class="a"></rect><svg height="21.709999999999997" viewBox="0 0 80 2.171" width="800" x="20" xmlns="http://www.w3.org/2000/svg" xmlns:xlink="http://www.w3.org/1999/xlink" y="20"><style>.a{fill:rgb(241,243,245)}.b{font-family:'Fira Code',Monaco,Consolas,Menlo,'Bitstream Vera Sans Mono','Powerline Symbols',monospace}.c{fill:rgb(23,36,49);white-space:pre}.d{fill:rgb(133,153,0);white-space:pre}.e{fill:transparent}.g{animation-duration:11.837182s;animation-iteration-count:infinite;animation-name:f;animation-timing-function:steps(1,end)}.h{fill:rgb(0,43,54);white-space:pre}@keyframes f{0%{transform:translateX(-0px)}1.5%{transform:translateX(-80px)}1.5%{transform:translateX(-160px)}3.5%{transform:translateX(-240px)}5%{transform:translateX(-320px)}7%{transform:translateX(-400px)}8.5%{transform:translateX(-480px)}10.1%{transform:translateX(-560px)}12%{transform:translateX(-640px)}13.5%{transform:translateX(-720px)}15.5%{transform:translateX(-800px)}17%{transform:translateX(-880px)}19%{transform:translateX(-960px)}20.4%{transform:translateX(-1040px)}22.4%{transform:translateX(-1120px)}24%{transform:translateX(-1200px)}25.5%{transform:translateX(-1280px)}27.5%{transform:translateX(-1360px)}28.9%{transform:translateX(-1440px)}30.8%{transform:translateX(-1520px)}32.3%{transform:translateX(-1600px)}34.3%{transform:translateX(-1680px)}35.8%{transform:translateX(-1760px)}37.8%{transform:translateX(-1840px)}39.3%{transform:translateX(-1920px)}41.1%{transform:translateX(-2000px)}43.1%{transform:translateX(-2080px)}44.5%{transform:translateX(-2160px)}46.4%{transform:translateX(-2240px)}47.8%{transform:translateX(-2320px)}49.3%{transform:translateX(-2400px)}49.3%{transform:translateX(-2480px)}49.3%{transform:translateX(-2560px)}100%{transform:translateX(-2640px)}}</style><g font-family="&#x27;Fira Code&#x27;,Monaco,Consolas,Menlo,&#x27;Bitstream Vera Sans Mono&#x27;,&#x27;Powerline Symbols&#x27;,monospace" font-size="1.67" class="b"><defs><symbol id="1"><text font-size="1.67" x="0" y="1.67" class="c">Cleaning</text><text font-size="1.67" x="9.017999999999999" y="1.67" class="c">data</text><text font-size="1.67" x="14.027999999999999" y="1.67" class="d">███████████████████████████████</text><text font-size="1.67" x="47.093999999999994" y="1.67" class="c">100%</text><text font-size="1.67" x="52.104" y="1.67" class="c">|</text><text font-size="1.67" x="54.108" y="1.67" class="c">ETA:</text><text font-size="1.67" x="60.11999999999999" y="1.67" class="c">0s</text></symbol><symbol id="a"><rect height="1" width="80" x="0" y="0" class="e"></rect></symbol></defs><rect height="2.171" width="80" class="a"></rect><g class="g"><svg x="0" y="0" width="2720"><svg x="0"><use xlink:href="#a"></use></svg><svg x="80"><use xlink:href="#a"></use></svg><svg x="160"><use xlink:href="#a"></use><text font-size="1.67" x="0" y="1.67" class="c">Cleaning</text><text font-size="1.67" x="9.017999999999999" y="1.67" class="c">data</text><text font-size="1.67" x="14.027999999999999" y="1.67" class="d">██</text><text font-size="1.67" x="16.032" y="1.67" class="h">█████████████████████████████</text><text font-size="1.67" x="49.098" y="1.67" class="c">3%</text><text font-size="1.67" x="52.104" y="1.67" class="c">|</text><text font-size="1.67" x="54.108" y="1.67" class="c">ETA:</text><text font-size="1.67" x="60.11999999999999" y="1.67" class="c">5s</text></svg><svg x="240"><use xlink:href="#a"></use><text font-size="1.67" x="0" y="1.67" class="c">Cleaning</text><text font-size="1.67" x="9.017999999999999" y="1.67" class="c">data</text><text font-size="1.67" x="14.027999999999999" y="1.67" class="d">███</text><text font-size="1.67" x="17.034" y="1.67" class="h">████████████████████████████</text><text font-size="1.67" x="49.098" y="1.67" class="c">7%</text><text font-size="1.67" x="52.104" y="1.67" class="c">|</text><text font-size="1.67" x="54.108" y="1.67" class="c">ETA:</text><text font-size="1.67" x="60.11999999999999" y="1.67" class="c">5s</text></svg><svg x="320"><use xlink:href="#a"></use><text font-size="1.67" x="0" y="1.67" class="c">Cleaning</text><text font-size="1.67" x="9.017999999999999" y="1.67" class="c">data</text><text font-size="1.67" x="14.027999999999999" y="1.67" class="d">████</text><text font-size="1.67" x="18.035999999999998" y="1.67" class="h">███████████████████████████</text><text font-size="1.67" x="48.096" y="1.67" class="c">10%</text><text font-size="1.67" x="52.104" y="1.67" class="c">|</text><text font-size="1.67" x="54.108" y="1.67" class="c">ETA:</text><text font-size="1.67" x="60.11999999999999" y="1.67" class="c">5s</text></svg><svg x="400"><use xlink:href="#a"></use><text font-size="1.67" x="0" y="1.67" class="c">Cleaning</text><text font-size="1.67" x="9.017999999999999" y="1.67" class="c">data</text><text font-size="1.67" x="14.027999999999999" y="1.67" class="d">█████</text><text font-size="1.67" x="19.037999999999997" y="1.67" class="h">██████████████████████████</text><text font-size="1.67" x="48.096" y="1.67" class="c">14%</text><text font-size="1.67" x="52.104" y="1.67" class="c">|</text><text font-size="1.67" x="54.108" y="1.67" class="c">ETA:</text><text font-size="1.67" x="60.11999999999999" y="1.67" class="c">5s</text></svg><svg x="480"><use xlink:href="#a"></use><text font-size="1.67" x="0" y="1.67" class="c">Cleaning</text><text font-size="1.67" x="9.017999999999999" y="1.67" class="c">data</text><text font-size="1.67" x="14.027999999999999" y="1.67" class="d">██████</text><text font-size="1.67" x="20.04" y="1.67" class="h">█████████████████████████</text><text font-size="1.67" x="48.096" y="1.67" class="c">17%</text><text font-size="1.67" x="52.104" y="1.67" class="c">|</text><text font-size="1.67" x="54.108" y="1.67" class="c">ETA:</text><text font-size="1.67" x="60.11999999999999" y="1.67" class="c">5s</text></svg><svg x="560"><use xlink:href="#a"></use><text font-size="1.67" x="0" y="1.67" class="c">Cleaning</text><text font-size="1.67" x="9.017999999999999" y="1.67" class="c">data</text><text font-size="1.67" x="14.027999999999999" y="1.67" class="d">███████</text><text font-size="1.67" x="21.041999999999998" y="1.67" class="h">████████████████████████</text><text font-size="1.67" x="48.096" y="1.67" class="c">20%</text><text font-size="1.67" x="52.104" y="1.67" class="c">|</text><text font-size="1.67" x="54.108" y="1.67" class="c">ETA:</text><text font-size="1.67" x="60.11999999999999" y="1.67" class="c">5s</text></svg><svg x="640"><use xlink:href="#a"></use><text font-size="1.67" x="0" y="1.67" class="c">Cleaning</text><text font-size="1.67" x="9.017999999999999" y="1.67" class="c">data</text><text font-size="1.67" x="14.027999999999999" y="1.67" class="d">████████</text><text font-size="1.67" x="22.043999999999997" y="1.67" class="h">███████████████████████</text><text font-size="1.67" x="48.096" y="1.67" class="c">24%</text><text font-size="1.67" x="52.104" y="1.67" class="c">|</text><text font-size="1.67" x="54.108" y="1.67" class="c">ETA:</text><text font-size="1.67" x="60.11999999999999" y="1.67" class="c">4s</text></svg><svg x="720"><use xlink:href="#a"></use><text font-size="1.67" x="0" y="1.67" class="c">Cleaning</text><text font-size="1.67" x="9.017999999999999" y="1.67" class="c">data</text><text font-size="1.67" x="14.027999999999999" y="1.67" class="d">█████████</text><text font-size="1.67" x="23.045999999999996" y="1.67" class="h">██████████████████████</text><text font-size="1.67" x="48.096" y="1.67" class="c">27%</text><text font-size="1.67" x="52.104" y="1.67" class="c">|</text><text font-size="1.67" x="54.108" y="1.67" class="c">ETA:</text><text font-size="1.67" x="60.11999999999999" y="1.67" class="c">4s</text></svg><svg x="800"><use xlink:href="#a"></use><text font-size="1.67" x="0" y="1.67" class="c">Cleaning</text><text font-size="1.67" x="9.017999999999999" y="1.67" class="c">data</text><text font-size="1.67" x="14.027999999999999" y="1.67" class="d">██████████</text><text font-size="1.67" x="24.048" y="1.67" class="h">█████████████████████</text><text font-size="1.67" x="48.096" y="1.67" class="c">31%</text><text font-size="1.67" x="52.104" y="1.67" class="c">|</text><text font-size="1.67" x="54.108" y="1.67" class="c">ETA:</text><text font-size="1.67" x="60.11999999999999" y="1.67" class="c">4s</text></svg><svg x="880"><use xlink:href="#a"></use><text font-size="1.67" x="0" y="1.67" class="c">Cleaning</text><text font-size="1.67" x="9.017999999999999" y="1.67" class="c">data</text><text font-size="1.67" x="14.027999999999999" y="1.67" class="d">███████████</text><text font-size="1.67" x="25.05" y="1.67" class="h">████████████████████</text><text font-size="1.67" x="48.096" y="1.67" class="c">34%</text><text font-size="1.67" x="52.104" y="1.67" class="c">|</text><text font-size="1.67" x="54.108" y="1.67" class="c">ETA:</text><text font-size="1.67" x="60.11999999999999" y="1.67" class="c">4s</text></svg><svg x="960"><use xlink:href="#a"></use><text font-size="1.67" x="0" y="1.67" class="c">Cleaning</text><text font-size="1.67" x="9.017999999999999" y="1.67" class="c">data</text><text font-size="1.67" x="14.027999999999999" y="1.67" class="d">████████████</text><text font-size="1.67" x="26.052" y="1.67" class="h">███████████████████</text><text font-size="1.67" x="48.096" y="1.67" class="c">38%</text><text font-size="1.67" x="52.104" y="1.67" class="c">|</text><text font-size="1.67" x="54.108" y="1.67" class="c">ETA:</text><text font-size="1.67" x="60.11999999999999" y="1.67" class="c">4s</text></svg><svg x="1040"><use xlink:href="#a"></use><text font-size="1.67" x="0" y="1.67" class="c">Cleaning</text><text font-size="1.67" x="9.017999999999999" y="1.67" class="c">data</text><text font-size="1.67" x="14.027999999999999" y="1.67" class="d">█████████████</text><text font-size="1.67" x="27.054" y="1.67" class="h">██████████████████</text><text font-size="1.67" x="48.096" y="1.67" class="c">41%</text><text font-size="1.67" x="52.104" y="1.67" class="c">|</text><text font-size="1.67" x="54.108" y="1.67" class="c">ETA:</text><text font-size="1.67" x="60.11999999999999" y="1.67" class="c">3s</text></svg><svg x="1120"><use xlink:href="#a"></use><text font-size="1.67" x="0" y="1.67" class="c">Cleaning</text><text font-size="1.67" x="9.017999999999999" y="1.67" class="c">data</text><text font-size="1.67" x="14.027999999999999" y="1.67" class="d">███████████████</text><text font-size="1.67" x="29.058" y="1.67" class="h">████████████████</text><text font-size="1.67" x="48.096" y="1.67" class="c">45%</text><text font-size="1.67" x="52.104" y="1.67" class="c">|</text><text font-size="1.67" x="54.108" y="1.67" class="c">ETA:</text><text font-size="1.67" x="60.11999999999999" y="1.67" class="c">3s</text></svg><svg x="1200"><use xlink:href="#a"></use><text font-size="1.67" x="0" y="1.67" class="c">Cleaning</text><text font-size="1.67" x="9.017999999999999" y="1.67" class="c">data</text><text font-size="1.67" x="14.027999999999999" y="1.67" class="d">███████████████</text><text font-size="1.67" x="29.058" y="1.67" class="h">████████████████</text><text font-size="1.67" x="48.096" y="1.67" class="c">48%</text><text font-size="1.67" x="52.104" y="1.67" class="c">|</text><text font-size="1.67" x="54.108" y="1.67" class="c">ETA:</text><text font-size="1.67" x="60.11999999999999" y="1.67" class="c">3s</text></svg><svg x="1280"><use xlink:href="#a"></use><text font-size="1.67" x="0" y="1.67" class="c">Cleaning</text><text font-size="1.67" x="9.017999999999999" y="1.67" class="c">data</text><text font-size="1.67" x="14.027999999999999" y="1.67" class="d">████████████████</text><text font-size="1.67" x="30.059999999999995" y="1.67" class="h">███████████████</text><text font-size="1.67" x="48.096" y="1.67" class="c">51%</text><text font-size="1.67" x="52.104" y="1.67" class="c">|</text><text font-size="1.67" x="54.108" y="1.67" class="c">ETA:</text><text font-size="1.67" x="60.11999999999999" y="1.67" class="c">3s</text></svg><svg x="1360"><use xlink:href="#a"></use><text font-size="1.67" x="0" y="1.67" class="c">Cleaning</text><text font-size="1.67" x="9.017999999999999" y="1.67" class="c">data</text><text font-size="1.67" x="14.027999999999999" y="1.67" class="d">█████████████████</text><text font-size="1.67" x="31.061999999999998" y="1.67" class="h">██████████████</text><text font-size="1.67" x="48.096" y="1.67" class="c">55%</text><text font-size="1.67" x="52.104" y="1.67" class="c">|</text><text font-size="1.67" x="54.108" y="1.67" class="c">ETA:</text><text font-size="1.67" x="60.11999999999999" y="1.67" class="c">3s</text></svg><svg x="1440"><use xlink:href="#a"></use><text font-size="1.67" x="0" y="1.67" class="c">Cleaning</text><text font-size="1.67" x="9.017999999999999" y="1.67" class="c">data</text><text font-size="1.67" x="14.027999999999999" y="1.67" class="d">██████████████████</text><text font-size="1.67" x="32.064" y="1.67" class="h">█████████████</text><text font-size="1.67" x="48.096" y="1.67" class="c">58%</text><text font-size="1.67" x="52.104" y="1.67" class="c">|</text><text font-size="1.67" x="54.108" y="1.67" class="c">ETA:</text><text font-size="1.67" x="60.11999999999999" y="1.67" class="c">2s</text></svg><svg x="1520"><use xlink:href="#a"></use><text font-size="1.67" x="0" y="1.67" class="c">Cleaning</text><text font-size="1.67" x="9.017999999999999" y="1.67" class="c">data</text><text font-size="1.67" x="14.027999999999999" y="1.67" class="d">████████████████████</text><text font-size="1.67" x="34.068" y="1.67" class="h">███████████</text><text font-size="1.67" x="48.096" y="1.67" class="c">62%</text><text font-size="1.67" x="52.104" y="1.67" class="c">|</text><text font-size="1.67" x="54.108" y="1.67" class="c">ETA:</text><text font-size="1.67" x="60.11999999999999" y="1.67" class="c">2s</text></svg><svg x="1600"><use xlink:href="#a"></use><text font-size="1.67" x="0" y="1.67" class="c">Cleaning</text><text font-size="1.67" x="9.017999999999999" y="1.67" class="c">data</text><text font-size="1.67" x="14.027999999999999" y="1.67" class="d">█████████████████████</text><text font-size="1.67" x="35.06999999999999" y="1.67" class="h">██████████</text><text font-size="1.67" x="48.096" y="1.67" class="c">65%</text><text font-size="1.67" x="52.104" y="1.67" class="c">|</text><text font-size="1.67" x="54.108" y="1.67" class="c">ETA:</text><text font-size="1.67" x="60.11999999999999" y="1.67" class="c">2s</text></svg><svg x="1680"><use xlink:href="#a"></use><text font-size="1.67" x="0" y="1.67" class="c">Cleaning</text><text font-size="1.67" x="9.017999999999999" y="1.67" class="c">data</text><text font-size="1.67" x="14.027999999999999" y="1.67" class="d">██████████████████████</text><text font-size="1.67" x="36.071999999999996" y="1.67" class="h">█████████</text><text font-size="1.67" x="48.096" y="1.67" class="c">69%</text><text font-size="1.67" x="52.104" y="1.67" class="c">|</text><text font-size="1.67" x="54.108" y="1.67" class="c">ETA:</text><text font-size="1.67" x="60.11999999999999" y="1.67" class="c">2s</text></svg><svg x="1760"><use xlink:href="#a"></use><text font-size="1.67" x="0" y="1.67" class="c">Cleaning</text><text font-size="1.67" x="9.017999999999999" y="1.67" class="c">data</text><text font-size="1.67" x="14.027999999999999" y="1.67" class="d">███████████████████████</text><text font-size="1.67" x="37.074" y="1.67" class="h">████████</text><text font-size="1.67" x="48.096" y="1.67" class="c">72%</text><text font-size="1.67" x="52.104" y="1.67" class="c">|</text><text font-size="1.67" x="54.108" y="1.67" class="c">ETA:</text><text font-size="1.67" x="60.11999999999999" y="1.67" class="c">2s</text></svg><svg x="1840"><use xlink:href="#a"></use><text font-size="1.67" x="0" y="1.67" class="c">Cleaning</text><text font-size="1.67" x="9.017999999999999" y="1.67" class="c">data</text><text font-size="1.67" x="14.027999999999999" y="1.67" class="d">████████████████████████</text><text font-size="1.67" x="38.07599999999999" y="1.67" class="h">███████</text><text font-size="1.67" x="48.096" y="1.67" class="c">76%</text><text font-size="1.67" x="52.104" y="1.67" class="c">|</text><text font-size="1.67" x="54.108" y="1.67" class="c">ETA:</text><text font-size="1.67" x="60.11999999999999" y="1.67" class="c">1s</text></svg><svg x="1920"><use xlink:href="#a"></use><text font-size="1.67" x="0" y="1.67" class="c">Cleaning</text><text font-size="1.67" x="9.017999999999999" y="1.67" class="c">data</text><text font-size="1.67" x="14.027999999999999" y="1.67" class="d">█████████████████████████</text><text font-size="1.67" x="39.077999999999996" y="1.67" class="h">██████</text><text font-size="1.67" x="48.096" y="1.67" class="c">79%</text><text font-size="1.67" x="52.104" y="1.67" class="c">|</text><text font-size="1.67" x="54.108" y="1.67" class="c">ETA:</text><text font-size="1.67" x="60.11999999999999" y="1.67" class="c">1s</text></svg><svg x="2000"><use xlink:href="#a"></use><text font-size="1.67" x="0" y="1.67" class="c">Cleaning</text><text font-size="1.67" x="9.017999999999999" y="1.67" class="c">data</text><text font-size="1.67" x="14.027999999999999" y="1.67" class="d">██████████████████████████</text><text font-size="1.67" x="40.08" y="1.67" class="h">█████</text><text font-size="1.67" x="48.096" y="1.67" class="c">83%</text><text font-size="1.67" x="52.104" y="1.67" class="c">|</text><text font-size="1.67" x="54.108" y="1.67" class="c">ETA:</text><text font-size="1.67" x="60.11999999999999" y="1.67" class="c">1s</text></svg><svg x="2080"><use xlink:href="#a"></use><text font-size="1.67" x="0" y="1.67" class="c">Cleaning</text><text font-size="1.67" x="9.017999999999999" y="1.67" class="c">data</text><text font-size="1.67" x="14.027999999999999" y="1.67" class="d">███████████████████████████</text><text font-size="1.67" x="41.082" y="1.67" class="h">████</text><text font-size="1.67" x="48.096" y="1.67" class="c">87%</text><text font-size="1.67" x="52.104" y="1.67" class="c">|</text><text font-size="1.67" x="54.108" y="1.67" class="c">ETA:</text><text font-size="1.67" x="60.11999999999999" y="1.67" class="c">1s</text></svg><svg x="2160"><use xlink:href="#a"></use><text font-size="1.67" x="0" y="1.67" class="c">Cleaning</text><text font-size="1.67" x="9.017999999999999" y="1.67" class="c">data</text><text font-size="1.67" x="14.027999999999999" y="1.67" class="d">████████████████████████████</text><text font-size="1.67" x="42.083999999999996" y="1.67" class="h">███</text><text font-size="1.67" x="48.096" y="1.67" class="c">90%</text><text font-size="1.67" x="52.104" y="1.67" class="c">|</text><text font-size="1.67" x="54.108" y="1.67" class="c">ETA:</text><text font-size="1.67" x="60.11999999999999" y="1.67" class="c">1s</text></svg><svg x="2240"><use xlink:href="#a"></use><text font-size="1.67" x="0" y="1.67" class="c">Cleaning</text><text font-size="1.67" x="9.017999999999999" y="1.67" class="c">data</text><text font-size="1.67" x="14.027999999999999" y="1.67" class="d">█████████████████████████████</text><text font-size="1.67" x="43.086" y="1.67" class="h">██</text><text font-size="1.67" x="48.096" y="1.67" class="c">94%</text><text font-size="1.67" x="52.104" y="1.67" class="c">|</text><text font-size="1.67" x="54.108" y="1.67" class="c">ETA:</text><text font-size="1.67" x="60.11999999999999" y="1.67" class="c">0s</text></svg><svg x="2320"><use xlink:href="#a"></use><text font-size="1.67" x="0" y="1.67" class="c">Cleaning</text><text font-size="1.67" x="9.017999999999999" y="1.67" class="c">data</text><text font-size="1.67" x="14.027999999999999" y="1.67" class="d">██████████████████████████████</text><text font-size="1.67" x="44.087999999999994" y="1.67" class="h">█</text><text font-size="1.67" x="48.096" y="1.67" class="c">97%</text><text font-size="1.67" x="52.104" y="1.67" class="c">|</text><text font-size="1.67" x="54.108" y="1.67" class="c">ETA:</text><text font-size="1.67" x="60.11999999999999" y="1.67" class="c">0s</text></svg><svg x="2400"><use xlink:href="#a"></use><use xlink:href="#1" y="0"></use></svg><svg x="2480"><use xlink:href="#a"></use><use xlink:href="#1" y="0"></use></svg><svg x="2560"><use xlink:href="#a"></use><use xlink:href="#1" y="0"></use></svg><svg x="2640"><use xlink:href="#a"></use><use xlink:href="#1" y="0"></use></svg></svg></g></g></svg></svg>