<svg xmlns="http://www.w3.org/2000/svg" xmlns:xlink="http://www.w3.org/1999/xlink" width="840" height="61.709999999999994"><rect width="840" height="61.709999999999994" rx="0" ry="0" class="a"></rect><svg height="21.709999999999997" viewBox="0 0 80 2.171" width="800" x="20" xmlns="http://www.w3.org/2000/svg" xmlns:xlink="http://www.w3.org/1999/xlink" y="20"><style>.a{fill:rgb(241,243,245)}.b{font-family:'Fira Code',Monaco,Consolas,Menlo,'Bitstream Vera Sans Mono','Powerline Symbols',monospace}.c{fill:rgb(23,36,49);white-space:pre}.d{fill:rgb(133,153,0);white-space:pre}.e{fill:transparent}.g{animation-duration:13.429691s;animation-iteration-count:infinite;animation-name:f;animation-timing-function:steps(1,end)}.h{fill:rgb(0,43,54);white-space:pre}@keyframes f{0%{transform:translateX(-0px)}0.3%{transform:translateX(-80px)}0.3%{transform:translateX(-160px)}1.8%{transform:translateX(-240px)}3.1%{transform:translateX(-320px)}4.8%{transform:translateX(-400px)}6.2%{transform:translateX(-480px)}7.8%{transform:translateX(-560px)}9.2%{transform:translateX(-640px)}10.6%{transform:translateX(-720px)}12.3%{transform:translateX(-800px)}13.6%{transform:translateX(-880px)}15.3%{transform:translateX(-960px)}16.7%{transform:translateX(-1040px)}18.3%{transform:translateX(-1120px)}19.7%{transform:translateX(-1200px)}21.4%{transform:translateX(-1280px)}22.8%{transform:translateX(-1360px)}24.4%{transform:translateX(-1440px)}26.1%{transform:translateX(-1520px)}27.5%{transform:translateX(-1600px)}27.7%{transform:translateX(-1680px)}27.7%{transform:translateX(-1760px)}28.7%{transform:translateX(-1840px)}28.9%{transform:translateX(-1920px)}30.4%{transform:translateX(-2000px)}31.9%{transform:translateX(-2080px)}33.5%{transform:translateX(-2160px)}34.9%{transform:translateX(-2240px)}36.5%{transform:translateX(-2320px)}38.1%{transform:translateX(-2400px)}39.6%{transform:translateX(-2480px)}41%{transform:translateX(-2560px)}42.6%{transform:translateX(-2640px)}43.9%{transform:translateX(-2720px)}45.6%{transform:translateX(-2800px)}47%{transform:translateX(-2880px)}48.6%{transform:translateX(-2960px)}50%{transform:translateX(-3040px)}51.6%{transform:translateX(-3120px)}53.3%{transform:translateX(-3200px)}54.7%{transform:translateX(-3280px)}55.3%{transform:translateX(-3360px)}55.3%{transform:translateX(-3440px)}55.3%{transform:translateX(-3520px)}100%{transform:translateX(-3600px)}}</style><g font-family="&#x27;Fira Code&#x27;,Monaco,Consolas,Menlo,&#x27;Bitstream Vera Sans Mono&#x27;,&#x27;Powerline Symbols&#x27;,monospace" font-size="1.67" class="b"><defs><symbol id="1"><text font-size="1.67" x="0" y="1.67" class="c">Parameter</text><text font-size="1.67" x="10.02" y="1.67" class="c">tuning</text><text font-size="1.67" x="17.034" y="1.67" class="d">███████████████████████████████</text><text font-size="1.67" x="50.1" y="1.67" class="c">100%</text><text font-size="1.67" x="55.10999999999999" y="1.67" class="c">|</text><text font-size="1.67" x="57.114" y="1.67" class="c">ETA:</text><text font-size="1.67" x="63.12599999999999" y="1.67" class="c">0s</text></symbol><symbol id="a"><rect height="1" width="80" x="0" y="0" class="e"></rect></symbol></defs><rect height="2.171" width="80" class="a"></rect><g class="g"><svg x="0" y="0" width="3680"><svg x="0"><use xlink:href="#a"></use></svg><svg x="80"><use xlink:href="#a"></use></svg><svg x="160"><use xlink:href="#a"></use><text font-size="1.67" x="0" y="1.67" class="c">Data</text><text font-size="1.67" x="5.01" y="1.67" class="c">cleaning</text><text font-size="1.67" x="14.027999999999999" y="1.67" class="d">█</text><text font-size="1.67" x="15.029999999999998" y="1.67" class="h">██████████████████████████████</text><text font-size="1.67" x="49.098" y="1.67" class="c">1%</text><text font-size="1.67" x="52.104" y="1.67" class="c">|</text><text font-size="1.67" x="54.108" y="1.67" class="c">ETA:</text><text font-size="1.67" x="60.11999999999999" y="1.67" class="c">3s</text></svg><svg x="240"><use xlink:href="#a"></use><text font-size="1.67" x="0" y="1.67" class="c">Data</text><text font-size="1.67" x="5.01" y="1.67" class="c">cleaning</text><text font-size="1.67" x="14.027999999999999" y="1.67" class="d">███</text><text font-size="1.67" x="17.034" y="1.67" class="h">████████████████████████████</text><text font-size="1.67" x="49.098" y="1.67" class="c">6%</text><text font-size="1.67" x="52.104" y="1.67" class="c">|</text><text font-size="1.67" x="54.108" y="1.67" class="c">ETA:</text><text font-size="1.67" x="60.11999999999999" y="1.67" class="c">3s</text></svg><svg x="320"><use xlink:href="#a"></use><text font-size="1.67" x="0" y="1.67" class="c">Data</text><text font-size="1.67" x="5.01" y="1.67" class="c">cleaning</text><text font-size="1.67" x="14.027999999999999" y="1.67" class="d">████</text><text font-size="1.67" x="18.035999999999998" y="1.67" class="h">███████████████████████████</text><text font-size="1.67" x="48.096" y="1.67" class="c">11%</text><text font-size="1.67" x="52.104" y="1.67" class="c">|</text><text font-size="1.67" x="54.108" y="1.67" class="c">ETA:</text><text font-size="1.67" x="60.11999999999999" y="1.67" class="c">3s</text></svg><svg x="400"><use xlink:href="#a"></use><text font-size="1.67" x="0" y="1.67" class="c">Data</text><text font-size="1.67" x="5.01" y="1.67" class="c">cleaning</text><text font-size="1.67" x="14.027999999999999" y="1.67" class="d">██████</text><text font-size="1.67" x="20.04" y="1.67" class="h">█████████████████████████</text><text font-size="1.67" x="48.096" y="1.67" class="c">17%</text><text font-size="1.67" x="52.104" y="1.67" class="c">|</text><text font-size="1.67" x="54.108" y="1.67" class="c">ETA:</text><text font-size="1.67" x="60.11999999999999" y="1.67" class="c">3s</text></svg><svg x="480"><use xlink:href="#a"></use><text font-size="1.67" x="0" y="1.67" class="c">Data</text><text font-size="1.67" x="5.01" y="1.67" class="c">cleaning</text><text font-size="1.67" x="14.027999999999999" y="1.67" class="d">████████</text><text font-size="1.67" x="22.043999999999997" y="1.67" class="h">███████████████████████</text><text font-size="1.67" x="48.096" y="1.67" class="c">22%</text><text font-size="1.67" x="52.104" y="1.67" class="c">|</text><text font-size="1.67" x="54.108" y="1.67" class="c">ETA:</text><text font-size="1.67" x="60.11999999999999" y="1.67" class="c">3s</text></svg><svg x="560"><use xlink:href="#a"></use><text font-size="1.67" x="0" y="1.67" class="c">Data</text><text font-size="1.67" x="5.01" y="1.67" class="c">cleaning</text><text font-size="1.67" x="14.027999999999999" y="1.67" class="d">█████████</text><text font-size="1.67" x="23.045999999999996" y="1.67" class="h">██████████████████████</text><text font-size="1.67" x="48.096" y="1.67" class="c">28%</text><text font-size="1.67" x="52.104" y="1.67" class="c">|</text><text font-size="1.67" x="54.108" y="1.67" class="c">ETA:</text><text font-size="1.67" x="60.11999999999999" y="1.67" class="c">3s</text></svg><svg x="640"><use xlink:href="#a"></use><text font-size="1.67" x="0" y="1.67" class="c">Data</text><text font-size="1.67" x="5.01" y="1.67" class="c">cleaning</text><text font-size="1.67" x="14.027999999999999" y="1.67" class="d">███████████</text><text font-size="1.67" x="25.05" y="1.67" class="h">████████████████████</text><text font-size="1.67" x="48.096" y="1.67" class="c">33%</text><text font-size="1.67" x="52.104" y="1.67" class="c">|</text><text font-size="1.67" x="54.108" y="1.67" class="c">ETA:</text><text font-size="1.67" x="60.11999999999999" y="1.67" class="c">2s</text></svg><svg x="720"><use xlink:href="#a"></use><text font-size="1.67" x="0" y="1.67" class="c">Data</text><text font-size="1.67" x="5.01" y="1.67" class="c">cleaning</text><text font-size="1.67" x="14.027999999999999" y="1.67" class="d">████████████</text><text font-size="1.67" x="26.052" y="1.67" class="h">███████████████████</text><text font-size="1.67" x="48.096" y="1.67" class="c">38%</text><text font-size="1.67" x="52.104" y="1.67" class="c">|</text><text font-size="1.67" x="54.108" y="1.67" class="c">ETA:</text><text font-size="1.67" x="60.11999999999999" y="1.67" class="c">2s</text></svg><svg x="800"><use xlink:href="#a"></use><text font-size="1.67" x="0" y="1.67" class="c">Data</text><text font-size="1.67" x="5.01" y="1.67" class="c">cleaning</text><text font-size="1.67" x="14.027999999999999" y="1.67" class="d">██████████████</text><text font-size="1.67" x="28.055999999999997" y="1.67" class="h">█████████████████</text><text font-size="1.67" x="48.096" y="1.67" class="c">44%</text><text font-size="1.67" x="52.104" y="1.67" class="c">|</text><text font-size="1.67" x="54.108" y="1.67" class="c">ETA:</text><text font-size="1.67" x="60.11999999999999" y="1.67" class="c">2s</text></svg><svg x="880"><use xlink:href="#a"></use><text font-size="1.67" x="0" y="1.67" class="c">Data</text><text font-size="1.67" x="5.01" y="1.67" class="c">cleaning</text><text font-size="1.67" x="14.027999999999999" y="1.67" class="d">████████████████</text><text font-size="1.67" x="30.059999999999995" y="1.67" class="h">███████████████</text><text font-size="1.67" x="48.096" y="1.67" class="c">49%</text><text font-size="1.67" x="52.104" y="1.67" class="c">|</text><text font-size="1.67" x="54.108" y="1.67" class="c">ETA:</text><text font-size="1.67" x="60.11999999999999" y="1.67" class="c">2s</text></svg><svg x="960"><use xlink:href="#a"></use><text font-size="1.67" x="0" y="1.67" class="c">Data</text><text font-size="1.67" x="5.01" y="1.67" class="c">cleaning</text><text font-size="1.67" x="14.027999999999999" y="1.67" class="d">█████████████████</text><text font-size="1.67" x="31.061999999999998" y="1.67" class="h">██████████████</text><text font-size="1.67" x="48.096" y="1.67" class="c">55%</text><text font-size="1.67" x="52.104" y="1.67" class="c">|</text><text font-size="1.67" x="54.108" y="1.67" class="c">ETA:</text><text font-size="1.67" x="60.11999999999999" y="1.67" class="c">2s</text></svg><svg x="1040"><use xlink:href="#a"></use><text font-size="1.67" x="0" y="1.67" class="c">Data</text><text font-size="1.67" x="5.01" y="1.67" class="c">cleaning</text><text font-size="1.67" x="14.027999999999999" y="1.67" class="d">███████████████████</text><text font-size="1.67" x="33.065999999999995" y="1.67" class="h">████████████</text><text font-size="1.67" x="48.096" y="1.67" class="c">60%</text><text font-size="1.67" x="52.104" y="1.67" class="c">|</text><text font-size="1.67" x="54.108" y="1.67" class="c">ETA:</text><text font-size="1.67" x="60.11999999999999" y="1.67" class="c">1s</text></svg><svg x="1120"><use xlink:href="#a"></use><text font-size="1.67" x="0" y="1.67" class="c">Data</text><text font-size="1.67" x="5.01" y="1.67" class="c">cleaning</text><text font-size="1.67" x="14.027999999999999" y="1.67" class="d">█████████████████████</text><text font-size="1.67" x="35.06999999999999" y="1.67" class="h">██████████</text><text font-size="1.67" x="48.096" y="1.67" class="c">66%</text><text font-size="1.67" x="52.104" y="1.67" class="c">|</text><text font-size="1.67" x="54.108" y="1.67" class="c">ETA:</text><text font-size="1.67" x="60.11999999999999" y="1.67" class="c">1s</text></svg><svg x="1200"><use xlink:href="#a"></use><text font-size="1.67" x="0" y="1.67" class="c">Data</text><text font-size="1.67" x="5.01" y="1.67" class="c">cleaning</text><text font-size="1.67" x="14.027999999999999" y="1.67" class="d">██████████████████████</text><text font-size="1.67" x="36.071999999999996" y="1.67" class="h">█████████</text><text font-size="1.67" x="48.096" y="1.67" class="c">71%</text><text font-size="1.67" x="52.104" y="1.67" class="c">|</text><text font-size="1.67" x="54.108" y="1.67" class="c">ETA:</text><text font-size="1.67" x="60.11999999999999" y="1.67" class="c">1s</text></svg><svg x="1280"><use xlink:href="#a"></use><text font-size="1.67" x="0" y="1.67" class="c">Data</text><text font-size="1.67" x="5.01" y="1.67" class="c">cleaning</text><text font-size="1.67" x="14.027999999999999" y="1.67" class="d">████████████████████████</text><text font-size="1.67" x="38.07599999999999" y="1.67" class="h">███████</text><text font-size="1.67" x="48.096" y="1.67" class="c">77%</text><text font-size="1.67" x="52.104" y="1.67" class="c">|</text><text font-size="1.67" x="54.108" y="1.67" class="c">ETA:</text><text font-size="1.67" x="60.11999999999999" y="1.67" class="c">1s</text></svg><svg x="1360"><use xlink:href="#a"></use><text font-size="1.67" x="0" y="1.67" class="c">Data</text><text font-size="1.67" x="5.01" y="1.67" class="c">cleaning</text><text font-size="1.67" x="14.027999999999999" y="1.67" class="d">██████████████████████████</text><text font-size="1.67" x="40.08" y="1.67" class="h">█████</text><text font-size="1.67" x="48.096" y="1.67" class="c">82%</text><text font-size="1.67" x="52.104" y="1.67" class="c">|</text><text font-size="1.67" x="54.108" y="1.67" class="c">ETA:</text><text font-size="1.67" x="60.11999999999999" y="1.67" class="c">1s</text></svg><svg x="1440"><use xlink:href="#a"></use><text font-size="1.67" x="0" y="1.67" class="c">Data</text><text font-size="1.67" x="5.01" y="1.67" class="c">cleaning</text><text font-size="1.67" x="14.027999999999999" y="1.67" class="d">███████████████████████████</text><text font-size="1.67" x="41.082" y="1.67" class="h">████</text><text font-size="1.67" x="48.096" y="1.67" class="c">88%</text><text font-size="1.67" x="52.104" y="1.67" class="c">|</text><text font-size="1.67" x="54.108" y="1.67" class="c">ETA:</text><text font-size="1.67" x="60.11999999999999" y="1.67" class="c">0s</text></svg><svg x="1520"><use xlink:href="#a"></use><text font-size="1.67" x="0" y="1.67" class="c">Data</text><text font-size="1.67" x="5.01" y="1.67" class="c">cleaning</text><text font-size="1.67" x="14.027999999999999" y="1.67" class="d">█████████████████████████████</text><text font-size="1.67" x="43.086" y="1.67" class="h">██</text><text font-size="1.67" x="48.096" y="1.67" class="c">94%</text><text font-size="1.67" x="52.104" y="1.67" class="c">|</text><text font-size="1.67" x="54.108" y="1.67" class="c">ETA:</text><text font-size="1.67" x="60.11999999999999" y="1.67" class="c">0s</text></svg><svg x="1600"><use xlink:href="#a"></use><text font-size="1.67" x="0" y="1.67" class="c">Data</text><text font-size="1.67" x="5.01" y="1.67" class="c">cleaning</text><text font-size="1.67" x="14.027999999999999" y="1.67" class="d">███████████████████████████████</text><text font-size="1.67" x="48.096" y="1.67" class="c">99%</text><text font-size="1.67" x="52.104" y="1.67" class="c">|</text><text font-size="1.67" x="54.108" y="1.67" class="c">ETA:</text><text font-size="1.67" x="60.11999999999999" y="1.67" class="c">0s</text></svg><svg x="1680"><use xlink:href="#a"></use></svg><svg x="1760"><use xlink:href="#a"></use></svg><svg x="1840"><use xlink:href="#a"></use></svg><svg x="1920"><use xlink:href="#a"></use><text font-size="1.67" x="0" y="1.67" class="c">Parameter</text><text font-size="1.67" x="10.02" y="1.67" class="c">tuning</text><text font-size="1.67" x="17.034" y="1.67" class="d">██</text><text font-size="1.67" x="19.037999999999997" y="1.67" class="h">█████████████████████████████</text><text font-size="1.67" x="52.104" y="1.67" class="c">4%</text><text font-size="1.67" x="55.10999999999999" y="1.67" class="c">|</text><text font-size="1.67" x="57.114" y="1.67" class="c">ETA:</text><text font-size="1.67" x="63.12599999999999" y="1.67" class="c">3s</text></svg><svg x="2000"><use xlink:href="#a"></use><text font-size="1.67" x="0" y="1.67" class="c">Parameter</text><text font-size="1.67" x="10.02" y="1.67" class="c">tuning</text><text font-size="1.67" x="17.034" y="1.67" class="d">████</text><text font-size="1.67" x="21.041999999999998" y="1.67" class="h">███████████████████████████</text><text font-size="1.67" x="51.102" y="1.67" class="c">10%</text><text font-size="1.67" x="55.10999999999999" y="1.67" class="c">|</text><text font-size="1.67" x="57.114" y="1.67" class="c">ETA:</text><text font-size="1.67" x="63.12599999999999" y="1.67" class="c">3s</text></svg><svg x="2080"><use xlink:href="#a"></use><text font-size="1.67" x="0" y="1.67" class="c">Parameter</text><text font-size="1.67" x="10.02" y="1.67" class="c">tuning</text><text font-size="1.67" x="17.034" y="1.67" class="d">█████</text><text font-size="1.67" x="22.043999999999997" y="1.67" class="h">██████████████████████████</text><text font-size="1.67" x="51.102" y="1.67" class="c">15%</text><text font-size="1.67" x="55.10999999999999" y="1.67" class="c">|</text><text font-size="1.67" x="57.114" y="1.67" class="c">ETA:</text><text font-size="1.67" x="63.12599999999999" y="1.67" class="c">3s</text></svg><svg x="2160"><use xlink:href="#a"></use><text font-size="1.67" x="0" y="1.67" class="c">Parameter</text><text font-size="1.67" x="10.02" y="1.67" class="c">tuning</text><text font-size="1.67" x="17.034" y="1.67" class="d">███████</text><text font-size="1.67" x="24.048" y="1.67" class="h">████████████████████████</text><text font-size="1.67" x="51.102" y="1.67" class="c">21%</text><text font-size="1.67" x="55.10999999999999" y="1.67" class="c">|</text><text font-size="1.67" x="57.114" y="1.67" class="c">ETA:</text><text font-size="1.67" x="63.12599999999999" y="1.67" class="c">3s</text></svg><svg x="2240"><use xlink:href="#a"></use><text font-size="1.67" x="0" y="1.67" class="c">Parameter</text><text font-size="1.67" x="10.02" y="1.67" class="c">tuning</text><text font-size="1.67" x="17.034" y="1.67" class="d">█████████</text><text font-size="1.67" x="26.052" y="1.67" class="h">██████████████████████</text><text font-size="1.67" x="51.102" y="1.67" class="c">26%</text><text font-size="1.67" x="55.10999999999999" y="1.67" class="c">|</text><text font-size="1.67" x="57.114" y="1.67" class="c">ETA:</text><text font-size="1.67" x="63.12599999999999" y="1.67" class="c">3s</text></svg><svg x="2320"><use xlink:href="#a"></use><text font-size="1.67" x="0" y="1.67" class="c">Parameter</text><text font-size="1.67" x="10.02" y="1.67" class="c">tuning</text><text font-size="1.67" x="17.034" y="1.67" class="d">███████████</text><text font-size="1.67" x="28.055999999999997" y="1.67" class="h">████████████████████</text><text font-size="1.67" x="51.102" y="1.67" class="c">32%</text><text font-size="1.67" x="55.10999999999999" y="1.67" class="c">|</text><text font-size="1.67" x="57.114" y="1.67" class="c">ETA:</text><text font-size="1.67" x="63.12599999999999" y="1.67" class="c">2s</text></svg><svg x="2400"><use xlink:href="#a"></use><text font-size="1.67" x="0" y="1.67" class="c">Parameter</text><text font-size="1.67" x="10.02" y="1.67" class="c">tuning</text><text font-size="1.67" x="17.034" y="1.67" class="d">████████████</text><text font-size="1.67" x="29.058" y="1.67" class="h">███████████████████</text><text font-size="1.67" x="51.102" y="1.67" class="c">38%</text><text font-size="1.67" x="55.10999999999999" y="1.67" class="c">|</text><text font-size="1.67" x="57.114" y="1.67" class="c">ETA:</text><text font-size="1.67" x="63.12599999999999" y="1.67" class="c">2s</text></svg><svg x="2480"><use xlink:href="#a"></use><text font-size="1.67" x="0" y="1.67" class="c">Parameter</text><text font-size="1.67" x="10.02" y="1.67" class="c">tuning</text><text font-size="1.67" x="17.034" y="1.67" class="d">██████████████</text><text font-size="1.67" x="31.061999999999998" y="1.67" class="h">█████████████████</text><text font-size="1.67" x="51.102" y="1.67" class="c">43%</text><text font-size="1.67" x="55.10999999999999" y="1.67" class="c">|</text><text font-size="1.67" x="57.114" y="1.67" class="c">ETA:</text><text font-size="1.67" x="63.12599999999999" y="1.67" class="c">2s</text></svg><svg x="2560"><use xlink:href="#a"></use><text font-size="1.67" x="0" y="1.67" class="c">Parameter</text><text font-size="1.67" x="10.02" y="1.67" class="c">tuning</text><text font-size="1.67" x="17.034" y="1.67" class="d">███████████████</text><text font-size="1.67" x="32.064" y="1.67" class="h">████████████████</text><text font-size="1.67" x="51.102" y="1.67" class="c">48%</text><text font-size="1.67" x="55.10999999999999" y="1.67" class="c">|</text><text font-size="1.67" x="57.114" y="1.67" class="c">ETA:</text><text font-size="1.67" x="63.12599999999999" y="1.67" class="c">2s</text></svg><svg x="2640"><use xlink:href="#a"></use><text font-size="1.67" x="0" y="1.67" class="c">Parameter</text><text font-size="1.67" x="10.02" y="1.67" class="c">tuning</text><text font-size="1.67" x="17.034" y="1.67" class="d">█████████████████</text><text font-size="1.67" x="34.068" y="1.67" class="h">██████████████</text><text font-size="1.67" x="51.102" y="1.67" class="c">54%</text><text font-size="1.67" x="55.10999999999999" y="1.67" class="c">|</text><text font-size="1.67" x="57.114" y="1.67" class="c">ETA:</text><text font-size="1.67" x="63.12599999999999" y="1.67" class="c">2s</text></svg><svg x="2720"><use xlink:href="#a"></use><text font-size="1.67" x="0" y="1.67" class="c">Parameter</text><text font-size="1.67" x="10.02" y="1.67" class="c">tuning</text><text font-size="1.67" x="17.034" y="1.67" class="d">███████████████████</text><text font-size="1.67" x="36.071999999999996" y="1.67" class="h">████████████</text><text font-size="1.67" x="51.102" y="1.67" class="c">59%</text><text font-size="1.67" x="55.10999999999999" y="1.67" class="c">|</text><text font-size="1.67" x="57.114" y="1.67" class="c">ETA:</text><text font-size="1.67" x="63.12599999999999" y="1.67" class="c">1s</text></svg><svg x="2800"><use xlink:href="#a"></use><text font-size="1.67" x="0" y="1.67" class="c">Parameter</text><text font-size="1.67" x="10.02" y="1.67" class="c">tuning</text><text font-size="1.67" x="17.034" y="1.67" class="d">█████████████████████</text><text font-size="1.67" x="38.07599999999999" y="1.67" class="h">██████████</text><text font-size="1.67" x="51.102" y="1.67" class="c">65%</text><text font-size="1.67" x="55.10999999999999" y="1.67" class="c">|</text><text font-size="1.67" x="57.114" y="1.67" class="c">ETA:</text><text font-size="1.67" x="63.12599999999999" y="1.67" class="c">1s</text></svg><svg x="2880"><use xlink:href="#a"></use><text font-size="1.67" x="0" y="1.67" class="c">Parameter</text><text font-size="1.67" x="10.02" y="1.67" class="c">tuning</text><text font-size="1.67" x="17.034" y="1.67" class="d">██████████████████████</text><text font-size="1.67" x="39.077999999999996" y="1.67" class="h">█████████</text><text font-size="1.67" x="51.102" y="1.67" class="c">70%</text><text font-size="1.67" x="55.10999999999999" y="1.67" class="c">|</text><text font-size="1.67" x="57.114" y="1.67" class="c">ETA:</text><text font-size="1.67" x="63.12599999999999" y="1.67" class="c">1s</text></svg><svg x="2960"><use xlink:href="#a"></use><text font-size="1.67" x="0" y="1.67" class="c">Parameter</text><text font-size="1.67" x="10.02" y="1.67" class="c">tuning</text><text font-size="1.67" x="17.034" y="1.67" class="d">████████████████████████</text><text font-size="1.67" x="41.082" y="1.67" class="h">███████</text><text font-size="1.67" x="51.102" y="1.67" class="c">76%</text><text font-size="1.67" x="55.10999999999999" y="1.67" class="c">|</text><text font-size="1.67" x="57.114" y="1.67" class="c">ETA:</text><text font-size="1.67" x="63.12599999999999" y="1.67" class="c">1s</text></svg><svg x="3040"><use xlink:href="#a"></use><text font-size="1.67" x="0" y="1.67" class="c">Parameter</text><text font-size="1.67" x="10.02" y="1.67" class="c">tuning</text><text font-size="1.67" x="17.034" y="1.67" class="d">█████████████████████████</text><text font-size="1.67" x="42.083999999999996" y="1.67" class="h">██████</text><text font-size="1.67" x="51.102" y="1.67" class="c">81%</text><text font-size="1.67" x="55.10999999999999" y="1.67" class="c">|</text><text font-size="1.67" x="57.114" y="1.67" class="c">ETA:</text><text font-size="1.67" x="63.12599999999999" y="1.67" class="c">1s</text></svg><svg x="3120"><use xlink:href="#a"></use><text font-size="1.67" x="0" y="1.67" class="c">Parameter</text><text font-size="1.67" x="10.02" y="1.67" class="c">tuning</text><text font-size="1.67" x="17.034" y="1.67" class="d">███████████████████████████</text><text font-size="1.67" x="44.087999999999994" y="1.67" class="h">████</text><text font-size="1.67" x="51.102" y="1.67" class="c">87%</text><text font-size="1.67" x="55.10999999999999" y="1.67" class="c">|</text><text font-size="1.67" x="57.114" y="1.67" class="c">ETA:</text><text font-size="1.67" x="63.12599999999999" y="1.67" class="c">0s</text></svg><svg x="3200"><use xlink:href="#a"></use><text font-size="1.67" x="0" y="1.67" class="c">Parameter</text><text font-size="1.67" x="10.02" y="1.67" class="c">tuning</text><text font-size="1.67" x="17.034" y="1.67" class="d">█████████████████████████████</text><text font-size="1.67" x="46.09199999999999" y="1.67" class="h">██</text><text font-size="1.67" x="51.102" y="1.67" class="c">93%</text><text font-size="1.67" x="55.10999999999999" y="1.67" class="c">|</text><text font-size="1.67" x="57.114" y="1.67" class="c">ETA:</text><text font-size="1.67" x="63.12599999999999" y="1.67" class="c">0s</text></svg><svg x="3280"><use xlink:href="#a"></use><text font-size="1.67" x="0" y="1.67" class="c">Parameter</text><text font-size="1.67" x="10.02" y="1.67" class="c">tuning</text><text font-size="1.67" x="17.034" y="1.67" class="d">██████████████████████████████</text><text font-size="1.67" x="47.093999999999994" y="1.67" class="h">█</text><text font-size="1.67" x="51.102" y="1.67" class="c">98%</text><text font-size="1.67" x="55.10999999999999" y="1.67" class="c">|</text><text font-size="1.67" x="57.114" y="1.67" class="c">ETA:</text><text font-size="1.67" x="63.12599999999999" y="1.67" class="c">0s</text></svg><svg x="3360"><use xlink:href="#a"></use><use xlink:href="#1" y="0"></use></svg><svg x="3440"><use xlink:href="#a"></use><use xlink:href="#1" y="0"></use></svg><svg x="3520"><use xlink:href="#a"></use><use xlink:href="#1" y="0"></use></svg><svg x="3600"><use xlink:href="#a"></use><use xlink:href="#1" y="0"></use></svg></svg></g></g></svg></svg>