<svg xmlns="http://www.w3.org/2000/svg" xmlns:xlink="http://www.w3.org/1999/xlink" width="740" height="148.55"><rect width="740" height="148.55" rx="0" ry="0" class="a"></rect><svg height="108.55000000000001" viewBox="0 0 70 10.855" width="700" x="20" xmlns="http://www.w3.org/2000/svg" xmlns:xlink="http://www.w3.org/1999/xlink" y="20"><style>.a{fill:rgb(40,45,53)}.b{font-family:'Fira Code',Monaco,Consolas,Menlo,'Bitstream Vera Sans Mono','Powerline Symbols',monospace}.c{fill:transparent}.d{fill:rgb(185,192,203);white-space:pre}.e{fill:rgb(168,204,140);white-space:pre}.f{fill:rgb(111,119,131);white-space:pre}.g{fill:rgb(232,131,136);white-space:pre}</style><g font-family="&#x27;Fira Code&#x27;,Monaco,Consolas,Menlo,&#x27;Bitstream Vera Sans Mono&#x27;,&#x27;Powerline Symbols&#x27;,monospace" font-size="1.67" class="b"><defs><symbol id="a"><rect height="6" width="70" x="0" y="0" class="c"></rect></symbol></defs><rect height="10.855" width="70" class="a"></rect><svg x="0" y="0" width="70"><svg x="0"><use xlink:href="#a"></use><text x="0" y="1.67" class="d">Style</text><text x="6.012" y="1.67" class="d">&#x27;classic&#x27;</text><text x="21.041999999999998" y="1.67" class="e">#####################</text><text x="55.10999999999999" y="1.67" class="d">66%</text><text x="59.117999999999995" y="1.67" class="d">|</text><text x="61.12199999999999" y="1.67" class="d">ETA:</text><text x="67.134" y="1.67" class="d">3s</text><text x="0" y="3.8409999999999997" class="d">Style</text><text x="6.012" y="3.8409999999999997" class="d">&#x27;squares&#x27;</text><text x="21.041999999999998" y="3.8409999999999997" class="e">■■■■■■■■■■■■■■■■■■■■■</text><text x="55.10999999999999" y="3.8409999999999997" class="d">66%</text><text x="59.117999999999995" y="3.8409999999999997" class="d">|</text><text x="61.12199999999999" y="3.8409999999999997" class="d">ETA:</text><text x="67.134" y="3.8409999999999997" class="d">3s</text><text x="0" y="6.012" class="d">Style</text><text x="6.012" y="6.012" class="d">&#x27;dot&#x27;</text><text x="21.041999999999998" y="6.012" class="f">────────────────────</text><text x="41.082" y="6.012" class="g">●</text><text x="42.083999999999996" y="6.012" class="f">──────────</text><text x="55.10999999999999" y="6.012" class="d">66%</text><text x="59.117999999999995" y="6.012" class="d">|</text><text x="61.12199999999999" y="6.012" class="d">ETA:</text><text x="67.134" y="6.012" class="d">3s</text><text x="0" y="8.183" class="d">Style</text><text x="6.012" y="8.183" class="d">&#x27;fillsquares&#x27;</text><text x="21.041999999999998" y="8.183" class="e">■■■■■■■■■■■■■■■■■■■■■</text><text x="42.083999999999996" y="8.183" class="f">□□□□□□□□□□</text><text x="55.10999999999999" y="8.183" class="d">66%</text><text x="59.117999999999995" y="8.183" class="d">|</text><text x="61.12199999999999" y="8.183" class="d">ETA:</text><text x="67.134" y="8.183" class="d">3s</text><text x="0" y="10.354" class="d">Style</text><text x="6.012" y="10.354" class="d">&#x27;bar&#x27;</text><text x="21.041999999999998" y="10.354" class="e">█████████████████████</text><text x="42.083999999999996" y="10.354" class="f">██████████</text><text x="55.10999999999999" y="10.354" class="d">66%</text><text x="59.117999999999995" y="10.354" class="d">|</text><text x="61.12199999999999" y="10.354" class="d">ETA:</text><text x="67.134" y="10.354" class="d">3s</text></svg></svg></g></svg></svg>