<svg xmlns="http://www.w3.org/2000/svg" xmlns:xlink="http://www.w3.org/1999/xlink" width="740" height="61.709999999999994"><rect width="740" height="61.709999999999994" rx="0" ry="0" class="a"></rect><svg height="21.709999999999997" viewBox="0 0 70 2.171" width="700" x="20" xmlns="http://www.w3.org/2000/svg" xmlns:xlink="http://www.w3.org/1999/xlink" y="20"><style>.a{fill:rgb(247,247,247)}.b{font-family:'Fira Code',Monaco,Consolas,Menlo,'Bitstream Vera Sans Mono','Powerline Symbols',monospace}.c{fill:rgb(101,123,131);white-space:pre}.d{fill:rgb(133,153,0);white-space:pre}.e{fill:transparent}.g{animation-duration:8.01468399999999s;animation-iteration-count:infinite;animation-name:f;animation-timing-function:steps(1,end)}.h{fill:rgb(0,43,54);white-space:pre}@keyframes f{0%{transform:translateX(-0px)}0.6%{transform:translateX(-70px)}0.6%{transform:translateX(-140px)}1.6%{transform:translateX(-210px)}3.1%{transform:translateX(-280px)}4.2%{transform:translateX(-350px)}5.7%{transform:translateX(-420px)}6.7%{transform:translateX(-490px)}8.2%{transform:translateX(-560px)}9.6%{transform:translateX(-630px)}11%{transform:translateX(-700px)}12%{transform:translateX(-770px)}13.5%{transform:translateX(-840px)}14.5%{transform:translateX(-910px)}15.9%{transform:translateX(-980px)}17.3%{transform:translateX(-1050px)}18.3%{transform:translateX(-1120px)}19.8%{transform:translateX(-1190px)}21.2%{transform:translateX(-1260px)}22.2%{transform:translateX(-1330px)}23.7%{transform:translateX(-1400px)}25.1%{transform:translateX(-1470px)}26.2%{transform:translateX(-1540px)}27.7%{transform:translateX(-1610px)}28.6%{transform:translateX(-1680px)}30%{transform:translateX(-1750px)}31.5%{transform:translateX(-1820px)}32.5%{transform:translateX(-1890px)}33.9%{transform:translateX(-1960px)}35.3%{transform:translateX(-2030px)}36.4%{transform:translateX(-2100px)}38%{transform:translateX(-2170px)}39.1%{transform:translateX(-2240px)}40.2%{transform:translateX(-2310px)}41.6%{transform:translateX(-2380px)}43%{transform:translateX(-2450px)}44.1%{transform:translateX(-2520px)}45.5%{transform:translateX(-2590px)}46.6%{transform:translateX(-2660px)}48%{transform:translateX(-2730px)}49.2%{transform:translateX(-2800px)}49.2%{transform:translateX(-2870px)}49.7%{transform:translateX(-2940px)}49.9%{transform:translateX(-3010px)}50.9%{transform:translateX(-3080px)}51.9%{transform:translateX(-3150px)}53.3%{transform:translateX(-3220px)}54.5%{transform:translateX(-3290px)}56%{transform:translateX(-3360px)}57.1%{transform:translateX(-3430px)}58.6%{transform:translateX(-3500px)}59.7%{transform:translateX(-3570px)}61.2%{transform:translateX(-3640px)}62.2%{transform:translateX(-3710px)}63.7%{transform:translateX(-3780px)}64.8%{transform:translateX(-3850px)}66.2%{transform:translateX(-3920px)}67.2%{transform:translateX(-3990px)}68.7%{transform:translateX(-4060px)}69.8%{transform:translateX(-4130px)}71.3%{transform:translateX(-4200px)}72.8%{transform:translateX(-4270px)}73.8%{transform:translateX(-4340px)}74.9%{transform:translateX(-4410px)}76.4%{transform:translateX(-4480px)}77.9%{transform:translateX(-4550px)}78.9%{transform:translateX(-4620px)}80.4%{transform:translateX(-4690px)}81.4%{transform:translateX(-4760px)}82.9%{transform:translateX(-4830px)}84.4%{transform:translateX(-4900px)}85.4%{transform:translateX(-4970px)}86.9%{transform:translateX(-5040px)}88%{transform:translateX(-5110px)}89.4%{transform:translateX(-5180px)}90.6%{transform:translateX(-5250px)}92%{transform:translateX(-5320px)}93.1%{transform:translateX(-5390px)}94.5%{transform:translateX(-5460px)}95.9%{transform:translateX(-5530px)}97%{transform:translateX(-5600px)}98.4%{transform:translateX(-5670px)}99.4%{transform:translateX(-5740px)}100%{transform:translateX(-5810px)}100%{transform:translateX(-5880px)}100%{transform:translateX(-5950px)}}</style><g font-family="&#x27;Fira Code&#x27;,Monaco,Consolas,Menlo,&#x27;Bitstream Vera Sans Mono&#x27;,&#x27;Powerline Symbols&#x27;,monospace" font-size="1.67" class="b"><defs><symbol id="1"><text x="0" y="1.67" class="c">Parameter</text><text x="10.02" y="1.67" class="c">tuning</text><text x="17.034" y="1.67" class="d">███████████████████████████████</text><text x="50.1" y="1.67" class="c">100%</text><text x="55.10999999999999" y="1.67" class="c">|</text><text x="57.114" y="1.67" class="c">ETA:</text><text x="63.12599999999999" y="1.67" class="c">0s</text></symbol><symbol id="a"><rect height="1" width="70" x="0" y="0" class="e"></rect></symbol></defs><rect height="2.171" width="70" class="a"></rect><g class="g"><svg x="0" y="0" width="6020"><svg x="0"><use xlink:href="#a"></use></svg><svg x="70"><use xlink:href="#a"></use></svg><svg x="140"><use xlink:href="#a"></use><text x="0" y="1.67" class="c">Data</text><text x="5.01" y="1.67" class="c">cleaning</text><text x="14.027999999999999" y="1.67" class="d">█</text><text x="15.029999999999998" y="1.67" class="h">██████████████████████████████</text><text x="49.098" y="1.67" class="c">1%</text><text x="52.104" y="1.67" class="c">|</text><text x="54.108" y="1.67" class="c">ETA:</text><text x="60.11999999999999" y="1.67" class="c">3s</text></svg><svg x="210"><use xlink:href="#a"></use><text x="0" y="1.67" class="c">Data</text><text x="5.01" y="1.67" class="c">cleaning</text><text x="14.027999999999999" y="1.67" class="d">██</text><text x="16.032" y="1.67" class="h">█████████████████████████████</text><text x="49.098" y="1.67" class="c">3%</text><text x="52.104" y="1.67" class="c">|</text><text x="54.108" y="1.67" class="c">ETA:</text><text x="60.11999999999999" y="1.67" class="c">4s</text></svg><svg x="280"><use xlink:href="#a"></use><text x="0" y="1.67" class="c">Data</text><text x="5.01" y="1.67" class="c">cleaning</text><text x="14.027999999999999" y="1.67" class="d">███</text><text x="17.034" y="1.67" class="h">████████████████████████████</text><text x="49.098" y="1.67" class="c">6%</text><text x="52.104" y="1.67" class="c">|</text><text x="54.108" y="1.67" class="c">ETA:</text><text x="60.11999999999999" y="1.67" class="c">3s</text></svg><svg x="350"><use xlink:href="#a"></use><text x="0" y="1.67" class="c">Data</text><text x="5.01" y="1.67" class="c">cleaning</text><text x="14.027999999999999" y="1.67" class="d">███</text><text x="17.034" y="1.67" class="h">████████████████████████████</text><text x="49.098" y="1.67" class="c">8%</text><text x="52.104" y="1.67" class="c">|</text><text x="54.108" y="1.67" class="c">ETA:</text><text x="60.11999999999999" y="1.67" class="c">4s</text></svg><svg x="420"><use xlink:href="#a"></use><text x="0" y="1.67" class="c">Data</text><text x="5.01" y="1.67" class="c">cleaning</text><text x="14.027999999999999" y="1.67" class="d">████</text><text x="18.035999999999998" y="1.67" class="h">███████████████████████████</text><text x="48.096" y="1.67" class="c">11%</text><text x="52.104" y="1.67" class="c">|</text><text x="54.108" y="1.67" class="c">ETA:</text><text x="60.11999999999999" y="1.67" class="c">3s</text></svg><svg x="490"><use xlink:href="#a"></use><text x="0" y="1.67" class="c">Data</text><text x="5.01" y="1.67" class="c">cleaning</text><text x="14.027999999999999" y="1.67" class="d">█████</text><text x="19.037999999999997" y="1.67" class="h">██████████████████████████</text><text x="48.096" y="1.67" class="c">13%</text><text x="52.104" y="1.67" class="c">|</text><text x="54.108" y="1.67" class="c">ETA:</text><text x="60.11999999999999" y="1.67" class="c">3s</text></svg><svg x="560"><use xlink:href="#a"></use><text x="0" y="1.67" class="c">Data</text><text x="5.01" y="1.67" class="c">cleaning</text><text x="14.027999999999999" y="1.67" class="d">██████</text><text x="20.04" y="1.67" class="h">█████████████████████████</text><text x="48.096" y="1.67" class="c">16%</text><text x="52.104" y="1.67" class="c">|</text><text x="54.108" y="1.67" class="c">ETA:</text><text x="60.11999999999999" y="1.67" class="c">3s</text></svg><svg x="630"><use xlink:href="#a"></use><text x="0" y="1.67" class="c">Data</text><text x="5.01" y="1.67" class="c">cleaning</text><text x="14.027999999999999" y="1.67" class="d">███████</text><text x="21.041999999999998" y="1.67" class="h">████████████████████████</text><text x="48.096" y="1.67" class="c">19%</text><text x="52.104" y="1.67" class="c">|</text><text x="54.108" y="1.67" class="c">ETA:</text><text x="60.11999999999999" y="1.67" class="c">3s</text></svg><svg x="700"><use xlink:href="#a"></use><text x="0" y="1.67" class="c">Data</text><text x="5.01" y="1.67" class="c">cleaning</text><text x="14.027999999999999" y="1.67" class="d">████████</text><text x="22.043999999999997" y="1.67" class="h">███████████████████████</text><text x="48.096" y="1.67" class="c">22%</text><text x="52.104" y="1.67" class="c">|</text><text x="54.108" y="1.67" class="c">ETA:</text><text x="60.11999999999999" y="1.67" class="c">3s</text></svg><svg x="770"><use xlink:href="#a"></use><text x="0" y="1.67" class="c">Data</text><text x="5.01" y="1.67" class="c">cleaning</text><text x="14.027999999999999" y="1.67" class="d">████████</text><text x="22.043999999999997" y="1.67" class="h">███████████████████████</text><text x="48.096" y="1.67" class="c">24%</text><text x="52.104" y="1.67" class="c">|</text><text x="54.108" y="1.67" class="c">ETA:</text><text x="60.11999999999999" y="1.67" class="c">3s</text></svg><svg x="840"><use xlink:href="#a"></use><text x="0" y="1.67" class="c">Data</text><text x="5.01" y="1.67" class="c">cleaning</text><text x="14.027999999999999" y="1.67" class="d">█████████</text><text x="23.045999999999996" y="1.67" class="h">██████████████████████</text><text x="48.096" y="1.67" class="c">27%</text><text x="52.104" y="1.67" class="c">|</text><text x="54.108" y="1.67" class="c">ETA:</text><text x="60.11999999999999" y="1.67" class="c">3s</text></svg><svg x="910"><use xlink:href="#a"></use><text x="0" y="1.67" class="c">Data</text><text x="5.01" y="1.67" class="c">cleaning</text><text x="14.027999999999999" y="1.67" class="d">██████████</text><text x="24.048" y="1.67" class="h">█████████████████████</text><text x="48.096" y="1.67" class="c">29%</text><text x="52.104" y="1.67" class="c">|</text><text x="54.108" y="1.67" class="c">ETA:</text><text x="60.11999999999999" y="1.67" class="c">3s</text></svg><svg x="980"><use xlink:href="#a"></use><text x="0" y="1.67" class="c">Data</text><text x="5.01" y="1.67" class="c">cleaning</text><text x="14.027999999999999" y="1.67" class="d">███████████</text><text x="25.05" y="1.67" class="h">████████████████████</text><text x="48.096" y="1.67" class="c">32%</text><text x="52.104" y="1.67" class="c">|</text><text x="54.108" y="1.67" class="c">ETA:</text><text x="60.11999999999999" y="1.67" class="c">3s</text></svg><svg x="1050"><use xlink:href="#a"></use><text x="0" y="1.67" class="c">Data</text><text x="5.01" y="1.67" class="c">cleaning</text><text x="14.027999999999999" y="1.67" class="d">███████████</text><text x="25.05" y="1.67" class="h">████████████████████</text><text x="48.096" y="1.67" class="c">35%</text><text x="52.104" y="1.67" class="c">|</text><text x="54.108" y="1.67" class="c">ETA:</text><text x="60.11999999999999" y="1.67" class="c">3s</text></svg><svg x="1120"><use xlink:href="#a"></use><text x="0" y="1.67" class="c">Data</text><text x="5.01" y="1.67" class="c">cleaning</text><text x="14.027999999999999" y="1.67" class="d">████████████</text><text x="26.052" y="1.67" class="h">███████████████████</text><text x="48.096" y="1.67" class="c">37%</text><text x="52.104" y="1.67" class="c">|</text><text x="54.108" y="1.67" class="c">ETA:</text><text x="60.11999999999999" y="1.67" class="c">2s</text></svg><svg x="1190"><use xlink:href="#a"></use><text x="0" y="1.67" class="c">Data</text><text x="5.01" y="1.67" class="c">cleaning</text><text x="14.027999999999999" y="1.67" class="d">█████████████</text><text x="27.054" y="1.67" class="h">██████████████████</text><text x="48.096" y="1.67" class="c">40%</text><text x="52.104" y="1.67" class="c">|</text><text x="54.108" y="1.67" class="c">ETA:</text><text x="60.11999999999999" y="1.67" class="c">2s</text></svg><svg x="1260"><use xlink:href="#a"></use><text x="0" y="1.67" class="c">Data</text><text x="5.01" y="1.67" class="c">cleaning</text><text x="14.027999999999999" y="1.67" class="d">██████████████</text><text x="28.055999999999997" y="1.67" class="h">█████████████████</text><text x="48.096" y="1.67" class="c">43%</text><text x="52.104" y="1.67" class="c">|</text><text x="54.108" y="1.67" class="c">ETA:</text><text x="60.11999999999999" y="1.67" class="c">2s</text></svg><svg x="1330"><use xlink:href="#a"></use><text x="0" y="1.67" class="c">Data</text><text x="5.01" y="1.67" class="c">cleaning</text><text x="14.027999999999999" y="1.67" class="d">███████████████</text><text x="29.058" y="1.67" class="h">████████████████</text><text x="48.096" y="1.67" class="c">45%</text><text x="52.104" y="1.67" class="c">|</text><text x="54.108" y="1.67" class="c">ETA:</text><text x="60.11999999999999" y="1.67" class="c">2s</text></svg><svg x="1400"><use xlink:href="#a"></use><text x="0" y="1.67" class="c">Data</text><text x="5.01" y="1.67" class="c">cleaning</text><text x="14.027999999999999" y="1.67" class="d">███████████████</text><text x="29.058" y="1.67" class="h">████████████████</text><text x="48.096" y="1.67" class="c">48%</text><text x="52.104" y="1.67" class="c">|</text><text x="54.108" y="1.67" class="c">ETA:</text><text x="60.11999999999999" y="1.67" class="c">2s</text></svg><svg x="1470"><use xlink:href="#a"></use><text x="0" y="1.67" class="c">Data</text><text x="5.01" y="1.67" class="c">cleaning</text><text x="14.027999999999999" y="1.67" class="d">████████████████</text><text x="30.059999999999995" y="1.67" class="h">███████████████</text><text x="48.096" y="1.67" class="c">51%</text><text x="52.104" y="1.67" class="c">|</text><text x="54.108" y="1.67" class="c">ETA:</text><text x="60.11999999999999" y="1.67" class="c">2s</text></svg><svg x="1540"><use xlink:href="#a"></use><text x="0" y="1.67" class="c">Data</text><text x="5.01" y="1.67" class="c">cleaning</text><text x="14.027999999999999" y="1.67" class="d">█████████████████</text><text x="31.061999999999998" y="1.67" class="h">██████████████</text><text x="48.096" y="1.67" class="c">53%</text><text x="52.104" y="1.67" class="c">|</text><text x="54.108" y="1.67" class="c">ETA:</text><text x="60.11999999999999" y="1.67" class="c">2s</text></svg><svg x="1610"><use xlink:href="#a"></use><text x="0" y="1.67" class="c">Data</text><text x="5.01" y="1.67" class="c">cleaning</text><text x="14.027999999999999" y="1.67" class="d">██████████████████</text><text x="32.064" y="1.67" class="h">█████████████</text><text x="48.096" y="1.67" class="c">56%</text><text x="52.104" y="1.67" class="c">|</text><text x="54.108" y="1.67" class="c">ETA:</text><text x="60.11999999999999" y="1.67" class="c">2s</text></svg><svg x="1680"><use xlink:href="#a"></use><text x="0" y="1.67" class="c">Data</text><text x="5.01" y="1.67" class="c">cleaning</text><text x="14.027999999999999" y="1.67" class="d">██████████████████</text><text x="32.064" y="1.67" class="h">█████████████</text><text x="48.096" y="1.67" class="c">58%</text><text x="52.104" y="1.67" class="c">|</text><text x="54.108" y="1.67" class="c">ETA:</text><text x="60.11999999999999" y="1.67" class="c">2s</text></svg><svg x="1750"><use xlink:href="#a"></use><text x="0" y="1.67" class="c">Data</text><text x="5.01" y="1.67" class="c">cleaning</text><text x="14.027999999999999" y="1.67" class="d">███████████████████</text><text x="33.065999999999995" y="1.67" class="h">████████████</text><text x="48.096" y="1.67" class="c">61%</text><text x="52.104" y="1.67" class="c">|</text><text x="54.108" y="1.67" class="c">ETA:</text><text x="60.11999999999999" y="1.67" class="c">2s</text></svg><svg x="1820"><use xlink:href="#a"></use><text x="0" y="1.67" class="c">Data</text><text x="5.01" y="1.67" class="c">cleaning</text><text x="14.027999999999999" y="1.67" class="d">████████████████████</text><text x="34.068" y="1.67" class="h">███████████</text><text x="48.096" y="1.67" class="c">64%</text><text x="52.104" y="1.67" class="c">|</text><text x="54.108" y="1.67" class="c">ETA:</text><text x="60.11999999999999" y="1.67" class="c">1s</text></svg><svg x="1890"><use xlink:href="#a"></use><text x="0" y="1.67" class="c">Data</text><text x="5.01" y="1.67" class="c">cleaning</text><text x="14.027999999999999" y="1.67" class="d">█████████████████████</text><text x="35.06999999999999" y="1.67" class="h">██████████</text><text x="48.096" y="1.67" class="c">66%</text><text x="52.104" y="1.67" class="c">|</text><text x="54.108" y="1.67" class="c">ETA:</text><text x="60.11999999999999" y="1.67" class="c">1s</text></svg><svg x="1960"><use xlink:href="#a"></use><text x="0" y="1.67" class="c">Data</text><text x="5.01" y="1.67" class="c">cleaning</text><text x="14.027999999999999" y="1.67" class="d">██████████████████████</text><text x="36.071999999999996" y="1.67" class="h">█████████</text><text x="48.096" y="1.67" class="c">69%</text><text x="52.104" y="1.67" class="c">|</text><text x="54.108" y="1.67" class="c">ETA:</text><text x="60.11999999999999" y="1.67" class="c">1s</text></svg><svg x="2030"><use xlink:href="#a"></use><text x="0" y="1.67" class="c">Data</text><text x="5.01" y="1.67" class="c">cleaning</text><text x="14.027999999999999" y="1.67" class="d">███████████████████████</text><text x="37.074" y="1.67" class="h">████████</text><text x="48.096" y="1.67" class="c">72%</text><text x="52.104" y="1.67" class="c">|</text><text x="54.108" y="1.67" class="c">ETA:</text><text x="60.11999999999999" y="1.67" class="c">1s</text></svg><svg x="2100"><use xlink:href="#a"></use><text x="0" y="1.67" class="c">Data</text><text x="5.01" y="1.67" class="c">cleaning</text><text x="14.027999999999999" y="1.67" class="d">███████████████████████</text><text x="37.074" y="1.67" class="h">████████</text><text x="48.096" y="1.67" class="c">74%</text><text x="52.104" y="1.67" class="c">|</text><text x="54.108" y="1.67" class="c">ETA:</text><text x="60.11999999999999" y="1.67" class="c">1s</text></svg><svg x="2170"><use xlink:href="#a"></use><text x="0" y="1.67" class="c">Data</text><text x="5.01" y="1.67" class="c">cleaning</text><text x="14.027999999999999" y="1.67" class="d">████████████████████████</text><text x="38.07599999999999" y="1.67" class="h">███████</text><text x="48.096" y="1.67" class="c">77%</text><text x="52.104" y="1.67" class="c">|</text><text x="54.108" y="1.67" class="c">ETA:</text><text x="60.11999999999999" y="1.67" class="c">1s</text></svg><svg x="2240"><use xlink:href="#a"></use><text x="0" y="1.67" class="c">Data</text><text x="5.01" y="1.67" class="c">cleaning</text><text x="14.027999999999999" y="1.67" class="d">█████████████████████████</text><text x="39.077999999999996" y="1.67" class="h">██████</text><text x="48.096" y="1.67" class="c">79%</text><text x="52.104" y="1.67" class="c">|</text><text x="54.108" y="1.67" class="c">ETA:</text><text x="60.11999999999999" y="1.67" class="c">1s</text></svg><svg x="2310"><use xlink:href="#a"></use><text x="0" y="1.67" class="c">Data</text><text x="5.01" y="1.67" class="c">cleaning</text><text x="14.027999999999999" y="1.67" class="d">█████████████████████████</text><text x="39.077999999999996" y="1.67" class="h">██████</text><text x="48.096" y="1.67" class="c">81%</text><text x="52.104" y="1.67" class="c">|</text><text x="54.108" y="1.67" class="c">ETA:</text><text x="60.11999999999999" y="1.67" class="c">1s</text></svg><svg x="2380"><use xlink:href="#a"></use><text x="0" y="1.67" class="c">Data</text><text x="5.01" y="1.67" class="c">cleaning</text><text x="14.027999999999999" y="1.67" class="d">██████████████████████████</text><text x="40.08" y="1.67" class="h">█████</text><text x="48.096" y="1.67" class="c">84%</text><text x="52.104" y="1.67" class="c">|</text><text x="54.108" y="1.67" class="c">ETA:</text><text x="60.11999999999999" y="1.67" class="c">1s</text></svg><svg x="2450"><use xlink:href="#a"></use><text x="0" y="1.67" class="c">Data</text><text x="5.01" y="1.67" class="c">cleaning</text><text x="14.027999999999999" y="1.67" class="d">███████████████████████████</text><text x="41.082" y="1.67" class="h">████</text><text x="48.096" y="1.67" class="c">87%</text><text x="52.104" y="1.67" class="c">|</text><text x="54.108" y="1.67" class="c">ETA:</text><text x="60.11999999999999" y="1.67" class="c">1s</text></svg><svg x="2520"><use xlink:href="#a"></use><text x="0" y="1.67" class="c">Data</text><text x="5.01" y="1.67" class="c">cleaning</text><text x="14.027999999999999" y="1.67" class="d">████████████████████████████</text><text x="42.083999999999996" y="1.67" class="h">███</text><text x="48.096" y="1.67" class="c">89%</text><text x="52.104" y="1.67" class="c">|</text><text x="54.108" y="1.67" class="c">ETA:</text><text x="60.11999999999999" y="1.67" class="c">0s</text></svg><svg x="2590"><use xlink:href="#a"></use><text x="0" y="1.67" class="c">Data</text><text x="5.01" y="1.67" class="c">cleaning</text><text x="14.027999999999999" y="1.67" class="d">█████████████████████████████</text><text x="43.086" y="1.67" class="h">██</text><text x="48.096" y="1.67" class="c">92%</text><text x="52.104" y="1.67" class="c">|</text><text x="54.108" y="1.67" class="c">ETA:</text><text x="60.11999999999999" y="1.67" class="c">0s</text></svg><svg x="2660"><use xlink:href="#a"></use><text x="0" y="1.67" class="c">Data</text><text x="5.01" y="1.67" class="c">cleaning</text><text x="14.027999999999999" y="1.67" class="d">█████████████████████████████</text><text x="43.086" y="1.67" class="h">██</text><text x="48.096" y="1.67" class="c">94%</text><text x="52.104" y="1.67" class="c">|</text><text x="54.108" y="1.67" class="c">ETA:</text><text x="60.11999999999999" y="1.67" class="c">0s</text></svg><svg x="2730"><use xlink:href="#a"></use><text x="0" y="1.67" class="c">Data</text><text x="5.01" y="1.67" class="c">cleaning</text><text x="14.027999999999999" y="1.67" class="d">██████████████████████████████</text><text x="44.087999999999994" y="1.67" class="h">█</text><text x="48.096" y="1.67" class="c">97%</text><text x="52.104" y="1.67" class="c">|</text><text x="54.108" y="1.67" class="c">ETA:</text><text x="60.11999999999999" y="1.67" class="c">0s</text></svg><svg x="2800"><use xlink:href="#a"></use></svg><svg x="2870"><use xlink:href="#a"></use></svg><svg x="2940"><use xlink:href="#a"></use></svg><svg x="3010"><use xlink:href="#a"></use><text x="0" y="1.67" class="c">Parameter</text><text x="10.02" y="1.67" class="c">tuning</text><text x="17.034" y="1.67" class="d">█</text><text x="18.035999999999998" y="1.67" class="h">██████████████████████████████</text><text x="52.104" y="1.67" class="c">1%</text><text x="55.10999999999999" y="1.67" class="c">|</text><text x="57.114" y="1.67" class="c">ETA:</text><text x="63.12599999999999" y="1.67" class="c">4s</text></svg><svg x="3080"><use xlink:href="#a"></use><text x="0" y="1.67" class="c">Parameter</text><text x="10.02" y="1.67" class="c">tuning</text><text x="17.034" y="1.67" class="d">██</text><text x="19.037999999999997" y="1.67" class="h">█████████████████████████████</text><text x="52.104" y="1.67" class="c">3%</text><text x="55.10999999999999" y="1.67" class="c">|</text><text x="57.114" y="1.67" class="c">ETA:</text><text x="63.12599999999999" y="1.67" class="c">4s</text></svg><svg x="3150"><use xlink:href="#a"></use><text x="0" y="1.67" class="c">Parameter</text><text x="10.02" y="1.67" class="c">tuning</text><text x="17.034" y="1.67" class="d">███</text><text x="20.04" y="1.67" class="h">████████████████████████████</text><text x="52.104" y="1.67" class="c">5%</text><text x="55.10999999999999" y="1.67" class="c">|</text><text x="57.114" y="1.67" class="c">ETA:</text><text x="63.12599999999999" y="1.67" class="c">4s</text></svg><svg x="3220"><use xlink:href="#a"></use><text x="0" y="1.67" class="c">Parameter</text><text x="10.02" y="1.67" class="c">tuning</text><text x="17.034" y="1.67" class="d">███</text><text x="20.04" y="1.67" class="h">████████████████████████████</text><text x="52.104" y="1.67" class="c">8%</text><text x="55.10999999999999" y="1.67" class="c">|</text><text x="57.114" y="1.67" class="c">ETA:</text><text x="63.12599999999999" y="1.67" class="c">4s</text></svg><svg x="3290"><use xlink:href="#a"></use><text x="0" y="1.67" class="c">Parameter</text><text x="10.02" y="1.67" class="c">tuning</text><text x="17.034" y="1.67" class="d">████</text><text x="21.041999999999998" y="1.67" class="h">███████████████████████████</text><text x="51.102" y="1.67" class="c">10%</text><text x="55.10999999999999" y="1.67" class="c">|</text><text x="57.114" y="1.67" class="c">ETA:</text><text x="63.12599999999999" y="1.67" class="c">4s</text></svg><svg x="3360"><use xlink:href="#a"></use><text x="0" y="1.67" class="c">Parameter</text><text x="10.02" y="1.67" class="c">tuning</text><text x="17.034" y="1.67" class="d">█████</text><text x="22.043999999999997" y="1.67" class="h">██████████████████████████</text><text x="51.102" y="1.67" class="c">13%</text><text x="55.10999999999999" y="1.67" class="c">|</text><text x="57.114" y="1.67" class="c">ETA:</text><text x="63.12599999999999" y="1.67" class="c">4s</text></svg><svg x="3430"><use xlink:href="#a"></use><text x="0" y="1.67" class="c">Parameter</text><text x="10.02" y="1.67" class="c">tuning</text><text x="17.034" y="1.67" class="d">█████</text><text x="22.043999999999997" y="1.67" class="h">██████████████████████████</text><text x="51.102" y="1.67" class="c">15%</text><text x="55.10999999999999" y="1.67" class="c">|</text><text x="57.114" y="1.67" class="c">ETA:</text><text x="63.12599999999999" y="1.67" class="c">3s</text></svg><svg x="3500"><use xlink:href="#a"></use><text x="0" y="1.67" class="c">Parameter</text><text x="10.02" y="1.67" class="c">tuning</text><text x="17.034" y="1.67" class="d">██████</text><text x="23.045999999999996" y="1.67" class="h">█████████████████████████</text><text x="51.102" y="1.67" class="c">18%</text><text x="55.10999999999999" y="1.67" class="c">|</text><text x="57.114" y="1.67" class="c">ETA:</text><text x="63.12599999999999" y="1.67" class="c">3s</text></svg><svg x="3570"><use xlink:href="#a"></use><text x="0" y="1.67" class="c">Parameter</text><text x="10.02" y="1.67" class="c">tuning</text><text x="17.034" y="1.67" class="d">███████</text><text x="24.048" y="1.67" class="h">████████████████████████</text><text x="51.102" y="1.67" class="c">20%</text><text x="55.10999999999999" y="1.67" class="c">|</text><text x="57.114" y="1.67" class="c">ETA:</text><text x="63.12599999999999" y="1.67" class="c">3s</text></svg><svg x="3640"><use xlink:href="#a"></use><text x="0" y="1.67" class="c">Parameter</text><text x="10.02" y="1.67" class="c">tuning</text><text x="17.034" y="1.67" class="d">████████</text><text x="25.05" y="1.67" class="h">███████████████████████</text><text x="51.102" y="1.67" class="c">23%</text><text x="55.10999999999999" y="1.67" class="c">|</text><text x="57.114" y="1.67" class="c">ETA:</text><text x="63.12599999999999" y="1.67" class="c">3s</text></svg><svg x="3710"><use xlink:href="#a"></use><text x="0" y="1.67" class="c">Parameter</text><text x="10.02" y="1.67" class="c">tuning</text><text x="17.034" y="1.67" class="d">█████████</text><text x="26.052" y="1.67" class="h">██████████████████████</text><text x="51.102" y="1.67" class="c">25%</text><text x="55.10999999999999" y="1.67" class="c">|</text><text x="57.114" y="1.67" class="c">ETA:</text><text x="63.12599999999999" y="1.67" class="c">3s</text></svg><svg x="3780"><use xlink:href="#a"></use><text x="0" y="1.67" class="c">Parameter</text><text x="10.02" y="1.67" class="c">tuning</text><text x="17.034" y="1.67" class="d">█████████</text><text x="26.052" y="1.67" class="h">██████████████████████</text><text x="51.102" y="1.67" class="c">28%</text><text x="55.10999999999999" y="1.67" class="c">|</text><text x="57.114" y="1.67" class="c">ETA:</text><text x="63.12599999999999" y="1.67" class="c">3s</text></svg><svg x="3850"><use xlink:href="#a"></use><text x="0" y="1.67" class="c">Parameter</text><text x="10.02" y="1.67" class="c">tuning</text><text x="17.034" y="1.67" class="d">██████████</text><text x="27.054" y="1.67" class="h">█████████████████████</text><text x="51.102" y="1.67" class="c">30%</text><text x="55.10999999999999" y="1.67" class="c">|</text><text x="57.114" y="1.67" class="c">ETA:</text><text x="63.12599999999999" y="1.67" class="c">3s</text></svg><svg x="3920"><use xlink:href="#a"></use><text x="0" y="1.67" class="c">Parameter</text><text x="10.02" y="1.67" class="c">tuning</text><text x="17.034" y="1.67" class="d">███████████</text><text x="28.055999999999997" y="1.67" class="h">████████████████████</text><text x="51.102" y="1.67" class="c">33%</text><text x="55.10999999999999" y="1.67" class="c">|</text><text x="57.114" y="1.67" class="c">ETA:</text><text x="63.12599999999999" y="1.67" class="c">3s</text></svg><svg x="3990"><use xlink:href="#a"></use><text x="0" y="1.67" class="c">Parameter</text><text x="10.02" y="1.67" class="c">tuning</text><text x="17.034" y="1.67" class="d">███████████</text><text x="28.055999999999997" y="1.67" class="h">████████████████████</text><text x="51.102" y="1.67" class="c">35%</text><text x="55.10999999999999" y="1.67" class="c">|</text><text x="57.114" y="1.67" class="c">ETA:</text><text x="63.12599999999999" y="1.67" class="c">3s</text></svg><svg x="4060"><use xlink:href="#a"></use><text x="0" y="1.67" class="c">Parameter</text><text x="10.02" y="1.67" class="c">tuning</text><text x="17.034" y="1.67" class="d">████████████</text><text x="29.058" y="1.67" class="h">███████████████████</text><text x="51.102" y="1.67" class="c">38%</text><text x="55.10999999999999" y="1.67" class="c">|</text><text x="57.114" y="1.67" class="c">ETA:</text><text x="63.12599999999999" y="1.67" class="c">3s</text></svg><svg x="4130"><use xlink:href="#a"></use><text x="0" y="1.67" class="c">Parameter</text><text x="10.02" y="1.67" class="c">tuning</text><text x="17.034" y="1.67" class="d">█████████████</text><text x="30.059999999999995" y="1.67" class="h">██████████████████</text><text x="51.102" y="1.67" class="c">40%</text><text x="55.10999999999999" y="1.67" class="c">|</text><text x="57.114" y="1.67" class="c">ETA:</text><text x="63.12599999999999" y="1.67" class="c">2s</text></svg><svg x="4200"><use xlink:href="#a"></use><text x="0" y="1.67" class="c">Parameter</text><text x="10.02" y="1.67" class="c">tuning</text><text x="17.034" y="1.67" class="d">██████████████</text><text x="31.061999999999998" y="1.67" class="h">█████████████████</text><text x="51.102" y="1.67" class="c">43%</text><text x="55.10999999999999" y="1.67" class="c">|</text><text x="57.114" y="1.67" class="c">ETA:</text><text x="63.12599999999999" y="1.67" class="c">2s</text></svg><svg x="4270"><use xlink:href="#a"></use><text x="0" y="1.67" class="c">Parameter</text><text x="10.02" y="1.67" class="c">tuning</text><text x="17.034" y="1.67" class="d">███████████████</text><text x="32.064" y="1.67" class="h">████████████████</text><text x="51.102" y="1.67" class="c">46%</text><text x="55.10999999999999" y="1.67" class="c">|</text><text x="57.114" y="1.67" class="c">ETA:</text><text x="63.12599999999999" y="1.67" class="c">2s</text></svg><svg x="4340"><use xlink:href="#a"></use><text x="0" y="1.67" class="c">Parameter</text><text x="10.02" y="1.67" class="c">tuning</text><text x="17.034" y="1.67" class="d">███████████████</text><text x="32.064" y="1.67" class="h">████████████████</text><text x="51.102" y="1.67" class="c">48%</text><text x="55.10999999999999" y="1.67" class="c">|</text><text x="57.114" y="1.67" class="c">ETA:</text><text x="63.12599999999999" y="1.67" class="c">2s</text></svg><svg x="4410"><use xlink:href="#a"></use><text x="0" y="1.67" class="c">Parameter</text><text x="10.02" y="1.67" class="c">tuning</text><text x="17.034" y="1.67" class="d">████████████████</text><text x="33.065999999999995" y="1.67" class="h">███████████████</text><text x="51.102" y="1.67" class="c">50%</text><text x="55.10999999999999" y="1.67" class="c">|</text><text x="57.114" y="1.67" class="c">ETA:</text><text x="63.12599999999999" y="1.67" class="c">2s</text></svg><svg x="4480"><use xlink:href="#a"></use><text x="0" y="1.67" class="c">Parameter</text><text x="10.02" y="1.67" class="c">tuning</text><text x="17.034" y="1.67" class="d">█████████████████</text><text x="34.068" y="1.67" class="h">██████████████</text><text x="51.102" y="1.67" class="c">53%</text><text x="55.10999999999999" y="1.67" class="c">|</text><text x="57.114" y="1.67" class="c">ETA:</text><text x="63.12599999999999" y="1.67" class="c">2s</text></svg><svg x="4550"><use xlink:href="#a"></use><text x="0" y="1.67" class="c">Parameter</text><text x="10.02" y="1.67" class="c">tuning</text><text x="17.034" y="1.67" class="d">██████████████████</text><text x="35.06999999999999" y="1.67" class="h">█████████████</text><text x="51.102" y="1.67" class="c">56%</text><text x="55.10999999999999" y="1.67" class="c">|</text><text x="57.114" y="1.67" class="c">ETA:</text><text x="63.12599999999999" y="1.67" class="c">2s</text></svg><svg x="4620"><use xlink:href="#a"></use><text x="0" y="1.67" class="c">Parameter</text><text x="10.02" y="1.67" class="c">tuning</text><text x="17.034" y="1.67" class="d">██████████████████</text><text x="35.06999999999999" y="1.67" class="h">█████████████</text><text x="51.102" y="1.67" class="c">58%</text><text x="55.10999999999999" y="1.67" class="c">|</text><text x="57.114" y="1.67" class="c">ETA:</text><text x="63.12599999999999" y="1.67" class="c">2s</text></svg><svg x="4690"><use xlink:href="#a"></use><text x="0" y="1.67" class="c">Parameter</text><text x="10.02" y="1.67" class="c">tuning</text><text x="17.034" y="1.67" class="d">███████████████████</text><text x="36.071999999999996" y="1.67" class="h">████████████</text><text x="51.102" y="1.67" class="c">61%</text><text x="55.10999999999999" y="1.67" class="c">|</text><text x="57.114" y="1.67" class="c">ETA:</text><text x="63.12599999999999" y="1.67" class="c">2s</text></svg><svg x="4760"><use xlink:href="#a"></use><text x="0" y="1.67" class="c">Parameter</text><text x="10.02" y="1.67" class="c">tuning</text><text x="17.034" y="1.67" class="d">████████████████████</text><text x="37.074" y="1.67" class="h">███████████</text><text x="51.102" y="1.67" class="c">63%</text><text x="55.10999999999999" y="1.67" class="c">|</text><text x="57.114" y="1.67" class="c">ETA:</text><text x="63.12599999999999" y="1.67" class="c">2s</text></svg><svg x="4830"><use xlink:href="#a"></use><text x="0" y="1.67" class="c">Parameter</text><text x="10.02" y="1.67" class="c">tuning</text><text x="17.034" y="1.67" class="d">█████████████████████</text><text x="38.07599999999999" y="1.67" class="h">██████████</text><text x="51.102" y="1.67" class="c">66%</text><text x="55.10999999999999" y="1.67" class="c">|</text><text x="57.114" y="1.67" class="c">ETA:</text><text x="63.12599999999999" y="1.67" class="c">1s</text></svg><svg x="4900"><use xlink:href="#a"></use><text x="0" y="1.67" class="c">Parameter</text><text x="10.02" y="1.67" class="c">tuning</text><text x="17.034" y="1.67" class="d">██████████████████████</text><text x="39.077999999999996" y="1.67" class="h">█████████</text><text x="51.102" y="1.67" class="c">69%</text><text x="55.10999999999999" y="1.67" class="c">|</text><text x="57.114" y="1.67" class="c">ETA:</text><text x="63.12599999999999" y="1.67" class="c">1s</text></svg><svg x="4970"><use xlink:href="#a"></use><text x="0" y="1.67" class="c">Parameter</text><text x="10.02" y="1.67" class="c">tuning</text><text x="17.034" y="1.67" class="d">██████████████████████</text><text x="39.077999999999996" y="1.67" class="h">█████████</text><text x="51.102" y="1.67" class="c">71%</text><text x="55.10999999999999" y="1.67" class="c">|</text><text x="57.114" y="1.67" class="c">ETA:</text><text x="63.12599999999999" y="1.67" class="c">1s</text></svg><svg x="5040"><use xlink:href="#a"></use><text x="0" y="1.67" class="c">Parameter</text><text x="10.02" y="1.67" class="c">tuning</text><text x="17.034" y="1.67" class="d">███████████████████████</text><text x="40.08" y="1.67" class="h">████████</text><text x="51.102" y="1.67" class="c">74%</text><text x="55.10999999999999" y="1.67" class="c">|</text><text x="57.114" y="1.67" class="c">ETA:</text><text x="63.12599999999999" y="1.67" class="c">1s</text></svg><svg x="5110"><use xlink:href="#a"></use><text x="0" y="1.67" class="c">Parameter</text><text x="10.02" y="1.67" class="c">tuning</text><text x="17.034" y="1.67" class="d">████████████████████████</text><text x="41.082" y="1.67" class="h">███████</text><text x="51.102" y="1.67" class="c">76%</text><text x="55.10999999999999" y="1.67" class="c">|</text><text x="57.114" y="1.67" class="c">ETA:</text><text x="63.12599999999999" y="1.67" class="c">1s</text></svg><svg x="5180"><use xlink:href="#a"></use><text x="0" y="1.67" class="c">Parameter</text><text x="10.02" y="1.67" class="c">tuning</text><text x="17.034" y="1.67" class="d">█████████████████████████</text><text x="42.083999999999996" y="1.67" class="h">██████</text><text x="51.102" y="1.67" class="c">79%</text><text x="55.10999999999999" y="1.67" class="c">|</text><text x="57.114" y="1.67" class="c">ETA:</text><text x="63.12599999999999" y="1.67" class="c">1s</text></svg><svg x="5250"><use xlink:href="#a"></use><text x="0" y="1.67" class="c">Parameter</text><text x="10.02" y="1.67" class="c">tuning</text><text x="17.034" y="1.67" class="d">█████████████████████████</text><text x="42.083999999999996" y="1.67" class="h">██████</text><text x="51.102" y="1.67" class="c">81%</text><text x="55.10999999999999" y="1.67" class="c">|</text><text x="57.114" y="1.67" class="c">ETA:</text><text x="63.12599999999999" y="1.67" class="c">1s</text></svg><svg x="5320"><use xlink:href="#a"></use><text x="0" y="1.67" class="c">Parameter</text><text x="10.02" y="1.67" class="c">tuning</text><text x="17.034" y="1.67" class="d">██████████████████████████</text><text x="43.086" y="1.67" class="h">█████</text><text x="51.102" y="1.67" class="c">84%</text><text x="55.10999999999999" y="1.67" class="c">|</text><text x="57.114" y="1.67" class="c">ETA:</text><text x="63.12599999999999" y="1.67" class="c">1s</text></svg><svg x="5390"><use xlink:href="#a"></use><text x="0" y="1.67" class="c">Parameter</text><text x="10.02" y="1.67" class="c">tuning</text><text x="17.034" y="1.67" class="d">███████████████████████████</text><text x="44.087999999999994" y="1.67" class="h">████</text><text x="51.102" y="1.67" class="c">86%</text><text x="55.10999999999999" y="1.67" class="c">|</text><text x="57.114" y="1.67" class="c">ETA:</text><text x="63.12599999999999" y="1.67" class="c">1s</text></svg><svg x="5460"><use xlink:href="#a"></use><text x="0" y="1.67" class="c">Parameter</text><text x="10.02" y="1.67" class="c">tuning</text><text x="17.034" y="1.67" class="d">████████████████████████████</text><text x="45.089999999999996" y="1.67" class="h">███</text><text x="51.102" y="1.67" class="c">89%</text><text x="55.10999999999999" y="1.67" class="c">|</text><text x="57.114" y="1.67" class="c">ETA:</text><text x="63.12599999999999" y="1.67" class="c">0s</text></svg><svg x="5530"><use xlink:href="#a"></use><text x="0" y="1.67" class="c">Parameter</text><text x="10.02" y="1.67" class="c">tuning</text><text x="17.034" y="1.67" class="d">█████████████████████████████</text><text x="46.09199999999999" y="1.67" class="h">██</text><text x="51.102" y="1.67" class="c">92%</text><text x="55.10999999999999" y="1.67" class="c">|</text><text x="57.114" y="1.67" class="c">ETA:</text><text x="63.12599999999999" y="1.67" class="c">0s</text></svg><svg x="5600"><use xlink:href="#a"></use><text x="0" y="1.67" class="c">Parameter</text><text x="10.02" y="1.67" class="c">tuning</text><text x="17.034" y="1.67" class="d">█████████████████████████████</text><text x="46.09199999999999" y="1.67" class="h">██</text><text x="51.102" y="1.67" class="c">94%</text><text x="55.10999999999999" y="1.67" class="c">|</text><text x="57.114" y="1.67" class="c">ETA:</text><text x="63.12599999999999" y="1.67" class="c">0s</text></svg><svg x="5670"><use xlink:href="#a"></use><text x="0" y="1.67" class="c">Parameter</text><text x="10.02" y="1.67" class="c">tuning</text><text x="17.034" y="1.67" class="d">██████████████████████████████</text><text x="47.093999999999994" y="1.67" class="h">█</text><text x="51.102" y="1.67" class="c">97%</text><text x="55.10999999999999" y="1.67" class="c">|</text><text x="57.114" y="1.67" class="c">ETA:</text><text x="63.12599999999999" y="1.67" class="c">0s</text></svg><svg x="5740"><use xlink:href="#a"></use><text x="0" y="1.67" class="c">Parameter</text><text x="10.02" y="1.67" class="c">tuning</text><text x="17.034" y="1.67" class="d">███████████████████████████████</text><text x="51.102" y="1.67" class="c">99%</text><text x="55.10999999999999" y="1.67" class="c">|</text><text x="57.114" y="1.67" class="c">ETA:</text><text x="63.12599999999999" y="1.67" class="c">0s</text></svg><svg x="5810"><use xlink:href="#a"></use><use xlink:href="#1" y="0"></use></svg><svg x="5880"><use xlink:href="#a"></use><use xlink:href="#1" y="0"></use></svg><svg x="5950"><use xlink:href="#a"></use><use xlink:href="#1" y="0"></use></svg></svg></g></g></svg></svg>