<svg xmlns="http://www.w3.org/2000/svg" xmlns:xlink="http://www.w3.org/1999/xlink" width="740" height="61.709999999999994"><rect width="740" height="61.709999999999994" rx="0" ry="0" class="a"></rect><svg height="21.709999999999997" viewBox="0 0 70 2.171" width="700" x="20" xmlns="http://www.w3.org/2000/svg" xmlns:xlink="http://www.w3.org/1999/xlink" y="20"><style>.a{fill:rgb(247,247,247)}.b{font-family:'Fira Code',Monaco,Consolas,Menlo,'Bitstream Vera Sans Mono','Powerline Symbols',monospace}.c{fill:rgb(101,123,131);white-space:pre}.d{fill:rgb(133,153,0);white-space:pre}.e{fill:transparent}.g{animation-duration:6.43660299999999s;animation-iteration-count:infinite;animation-name:f;animation-timing-function:steps(1,end)}.h{fill:rgb(0,43,54);white-space:pre}@keyframes f{0%{transform:translateX(-0px)}1%{transform:translateX(-70px)}1%{transform:translateX(-140px)}2.8%{transform:translateX(-210px)}4.7%{transform:translateX(-280px)}6.6%{transform:translateX(-350px)}7.9%{transform:translateX(-420px)}9.8%{transform:translateX(-490px)}10.9%{transform:translateX(-560px)}12.8%{transform:translateX(-630px)}14.8%{transform:translateX(-700px)}16%{transform:translateX(-770px)}18%{transform:translateX(-840px)}19%{transform:translateX(-910px)}21%{transform:translateX(-980px)}23%{transform:translateX(-1050px)}24%{transform:translateX(-1120px)}26%{transform:translateX(-1190px)}27.1%{transform:translateX(-1260px)}29%{transform:translateX(-1330px)}30.1%{transform:translateX(-1400px)}32%{transform:translateX(-1470px)}34.1%{transform:translateX(-1540px)}35.2%{transform:translateX(-1610px)}37.2%{transform:translateX(-1680px)}38.2%{transform:translateX(-1750px)}40.2%{transform:translateX(-1820px)}41.2%{transform:translateX(-1890px)}43.2%{transform:translateX(-1960px)}45.1%{transform:translateX(-2030px)}46.2%{transform:translateX(-2100px)}48.1%{transform:translateX(-2170px)}50%{transform:translateX(-2240px)}51.1%{transform:translateX(-2310px)}53.1%{transform:translateX(-2380px)}54.2%{transform:translateX(-2450px)}56.2%{transform:translateX(-2520px)}57.3%{transform:translateX(-2590px)}59.3%{transform:translateX(-2660px)}61.1%{transform:translateX(-2730px)}62.2%{transform:translateX(-2800px)}64.1%{transform:translateX(-2870px)}66%{transform:translateX(-2940px)}67%{transform:translateX(-3010px)}68.9%{transform:translateX(-3080px)}70.8%{transform:translateX(-3150px)}71.9%{transform:translateX(-3220px)}73.8%{transform:translateX(-3290px)}75.9%{transform:translateX(-3360px)}77.1%{transform:translateX(-3430px)}78.1%{transform:translateX(-3500px)}80.1%{transform:translateX(-3570px)}82.1%{transform:translateX(-3640px)}83.2%{transform:translateX(-3710px)}85%{transform:translateX(-3780px)}86%{transform:translateX(-3850px)}87.9%{transform:translateX(-3920px)}89.7%{transform:translateX(-3990px)}91.7%{transform:translateX(-4060px)}92.7%{transform:translateX(-4130px)}94.7%{transform:translateX(-4200px)}95.7%{transform:translateX(-4270px)}97.7%{transform:translateX(-4340px)}98.9%{transform:translateX(-4410px)}100%{transform:translateX(-4480px)}100%{transform:translateX(-4550px)}100%{transform:translateX(-4620px)}}</style><g font-family="&#x27;Fira Code&#x27;,Monaco,Consolas,Menlo,&#x27;Bitstream Vera Sans Mono&#x27;,&#x27;Powerline Symbols&#x27;,monospace" font-size="1.67" class="b"><defs><symbol id="1"><text x="0" y="1.67" class="c">Cleaning</text><text x="9.017999999999999" y="1.67" class="c">data</text><text x="14.027999999999999" y="1.67" class="d">███████████████████████████████</text><text x="47.093999999999994" y="1.67" class="c">100%</text><text x="52.104" y="1.67" class="c">|</text><text x="54.108" y="1.67" class="c">ETA:</text><text x="60.11999999999999" y="1.67" class="c">0s</text></symbol><symbol id="a"><rect height="1" width="70" x="0" y="0" class="e"></rect></symbol></defs><rect height="2.171" width="70" class="a"></rect><g class="g"><svg x="0" y="0" width="4690"><svg x="0"><use xlink:href="#a"></use></svg><svg x="70"><use xlink:href="#a"></use></svg><svg x="140"><use xlink:href="#a"></use><text x="0" y="1.67" class="c">Cleaning</text><text x="9.017999999999999" y="1.67" class="c">data</text><text x="14.027999999999999" y="1.67" class="d">█</text><text x="15.029999999999998" y="1.67" class="h">██████████████████████████████</text><text x="49.098" y="1.67" class="c">1%</text><text x="52.104" y="1.67" class="c">|</text><text x="54.108" y="1.67" class="c">ETA:</text><text x="60.11999999999999" y="1.67" class="c">6s</text></svg><svg x="210"><use xlink:href="#a"></use><text x="0" y="1.67" class="c">Cleaning</text><text x="9.017999999999999" y="1.67" class="c">data</text><text x="14.027999999999999" y="1.67" class="d">██</text><text x="16.032" y="1.67" class="h">█████████████████████████████</text><text x="49.098" y="1.67" class="c">3%</text><text x="52.104" y="1.67" class="c">|</text><text x="54.108" y="1.67" class="c">ETA:</text><text x="60.11999999999999" y="1.67" class="c">6s</text></svg><svg x="280"><use xlink:href="#a"></use><text x="0" y="1.67" class="c">Cleaning</text><text x="9.017999999999999" y="1.67" class="c">data</text><text x="14.027999999999999" y="1.67" class="d">███</text><text x="17.034" y="1.67" class="h">████████████████████████████</text><text x="49.098" y="1.67" class="c">5%</text><text x="52.104" y="1.67" class="c">|</text><text x="54.108" y="1.67" class="c">ETA:</text><text x="60.11999999999999" y="1.67" class="c">5s</text></svg><svg x="350"><use xlink:href="#a"></use><text x="0" y="1.67" class="c">Cleaning</text><text x="9.017999999999999" y="1.67" class="c">data</text><text x="14.027999999999999" y="1.67" class="d">███</text><text x="17.034" y="1.67" class="h">████████████████████████████</text><text x="49.098" y="1.67" class="c">7%</text><text x="52.104" y="1.67" class="c">|</text><text x="54.108" y="1.67" class="c">ETA:</text><text x="60.11999999999999" y="1.67" class="c">5s</text></svg><svg x="420"><use xlink:href="#a"></use><text x="0" y="1.67" class="c">Cleaning</text><text x="9.017999999999999" y="1.67" class="c">data</text><text x="14.027999999999999" y="1.67" class="d">███</text><text x="17.034" y="1.67" class="h">████████████████████████████</text><text x="49.098" y="1.67" class="c">8%</text><text x="52.104" y="1.67" class="c">|</text><text x="54.108" y="1.67" class="c">ETA:</text><text x="60.11999999999999" y="1.67" class="c">5s</text></svg><svg x="490"><use xlink:href="#a"></use><text x="0" y="1.67" class="c">Cleaning</text><text x="9.017999999999999" y="1.67" class="c">data</text><text x="14.027999999999999" y="1.67" class="d">████</text><text x="18.035999999999998" y="1.67" class="h">███████████████████████████</text><text x="48.096" y="1.67" class="c">10%</text><text x="52.104" y="1.67" class="c">|</text><text x="54.108" y="1.67" class="c">ETA:</text><text x="60.11999999999999" y="1.67" class="c">5s</text></svg><svg x="560"><use xlink:href="#a"></use><text x="0" y="1.67" class="c">Cleaning</text><text x="9.017999999999999" y="1.67" class="c">data</text><text x="14.027999999999999" y="1.67" class="d">████</text><text x="18.035999999999998" y="1.67" class="h">███████████████████████████</text><text x="48.096" y="1.67" class="c">11%</text><text x="52.104" y="1.67" class="c">|</text><text x="54.108" y="1.67" class="c">ETA:</text><text x="60.11999999999999" y="1.67" class="c">5s</text></svg><svg x="630"><use xlink:href="#a"></use><text x="0" y="1.67" class="c">Cleaning</text><text x="9.017999999999999" y="1.67" class="c">data</text><text x="14.027999999999999" y="1.67" class="d">█████</text><text x="19.037999999999997" y="1.67" class="h">██████████████████████████</text><text x="48.096" y="1.67" class="c">13%</text><text x="52.104" y="1.67" class="c">|</text><text x="54.108" y="1.67" class="c">ETA:</text><text x="60.11999999999999" y="1.67" class="c">5s</text></svg><svg x="700"><use xlink:href="#a"></use><text x="0" y="1.67" class="c">Cleaning</text><text x="9.017999999999999" y="1.67" class="c">data</text><text x="14.027999999999999" y="1.67" class="d">█████</text><text x="19.037999999999997" y="1.67" class="h">██████████████████████████</text><text x="48.096" y="1.67" class="c">15%</text><text x="52.104" y="1.67" class="c">|</text><text x="54.108" y="1.67" class="c">ETA:</text><text x="60.11999999999999" y="1.67" class="c">5s</text></svg><svg x="770"><use xlink:href="#a"></use><text x="0" y="1.67" class="c">Cleaning</text><text x="9.017999999999999" y="1.67" class="c">data</text><text x="14.027999999999999" y="1.67" class="d">██████</text><text x="20.04" y="1.67" class="h">█████████████████████████</text><text x="48.096" y="1.67" class="c">16%</text><text x="52.104" y="1.67" class="c">|</text><text x="54.108" y="1.67" class="c">ETA:</text><text x="60.11999999999999" y="1.67" class="c">5s</text></svg><svg x="840"><use xlink:href="#a"></use><text x="0" y="1.67" class="c">Cleaning</text><text x="9.017999999999999" y="1.67" class="c">data</text><text x="14.027999999999999" y="1.67" class="d">██████</text><text x="20.04" y="1.67" class="h">█████████████████████████</text><text x="48.096" y="1.67" class="c">18%</text><text x="52.104" y="1.67" class="c">|</text><text x="54.108" y="1.67" class="c">ETA:</text><text x="60.11999999999999" y="1.67" class="c">5s</text></svg><svg x="910"><use xlink:href="#a"></use><text x="0" y="1.67" class="c">Cleaning</text><text x="9.017999999999999" y="1.67" class="c">data</text><text x="14.027999999999999" y="1.67" class="d">███████</text><text x="21.041999999999998" y="1.67" class="h">████████████████████████</text><text x="48.096" y="1.67" class="c">19%</text><text x="52.104" y="1.67" class="c">|</text><text x="54.108" y="1.67" class="c">ETA:</text><text x="60.11999999999999" y="1.67" class="c">5s</text></svg><svg x="980"><use xlink:href="#a"></use><text x="0" y="1.67" class="c">Cleaning</text><text x="9.017999999999999" y="1.67" class="c">data</text><text x="14.027999999999999" y="1.67" class="d">███████</text><text x="21.041999999999998" y="1.67" class="h">████████████████████████</text><text x="48.096" y="1.67" class="c">21%</text><text x="52.104" y="1.67" class="c">|</text><text x="54.108" y="1.67" class="c">ETA:</text><text x="60.11999999999999" y="1.67" class="c">5s</text></svg><svg x="1050"><use xlink:href="#a"></use><text x="0" y="1.67" class="c">Cleaning</text><text x="9.017999999999999" y="1.67" class="c">data</text><text x="14.027999999999999" y="1.67" class="d">████████</text><text x="22.043999999999997" y="1.67" class="h">███████████████████████</text><text x="48.096" y="1.67" class="c">23%</text><text x="52.104" y="1.67" class="c">|</text><text x="54.108" y="1.67" class="c">ETA:</text><text x="60.11999999999999" y="1.67" class="c">5s</text></svg><svg x="1120"><use xlink:href="#a"></use><text x="0" y="1.67" class="c">Cleaning</text><text x="9.017999999999999" y="1.67" class="c">data</text><text x="14.027999999999999" y="1.67" class="d">████████</text><text x="22.043999999999997" y="1.67" class="h">███████████████████████</text><text x="48.096" y="1.67" class="c">24%</text><text x="52.104" y="1.67" class="c">|</text><text x="54.108" y="1.67" class="c">ETA:</text><text x="60.11999999999999" y="1.67" class="c">5s</text></svg><svg x="1190"><use xlink:href="#a"></use><text x="0" y="1.67" class="c">Cleaning</text><text x="9.017999999999999" y="1.67" class="c">data</text><text x="14.027999999999999" y="1.67" class="d">█████████</text><text x="23.045999999999996" y="1.67" class="h">██████████████████████</text><text x="48.096" y="1.67" class="c">26%</text><text x="52.104" y="1.67" class="c">|</text><text x="54.108" y="1.67" class="c">ETA:</text><text x="60.11999999999999" y="1.67" class="c">5s</text></svg><svg x="1260"><use xlink:href="#a"></use><text x="0" y="1.67" class="c">Cleaning</text><text x="9.017999999999999" y="1.67" class="c">data</text><text x="14.027999999999999" y="1.67" class="d">█████████</text><text x="23.045999999999996" y="1.67" class="h">██████████████████████</text><text x="48.096" y="1.67" class="c">27%</text><text x="52.104" y="1.67" class="c">|</text><text x="54.108" y="1.67" class="c">ETA:</text><text x="60.11999999999999" y="1.67" class="c">5s</text></svg><svg x="1330"><use xlink:href="#a"></use><text x="0" y="1.67" class="c">Cleaning</text><text x="9.017999999999999" y="1.67" class="c">data</text><text x="14.027999999999999" y="1.67" class="d">██████████</text><text x="24.048" y="1.67" class="h">█████████████████████</text><text x="48.096" y="1.67" class="c">29%</text><text x="52.104" y="1.67" class="c">|</text><text x="54.108" y="1.67" class="c">ETA:</text><text x="60.11999999999999" y="1.67" class="c">5s</text></svg><svg x="1400"><use xlink:href="#a"></use><text x="0" y="1.67" class="c">Cleaning</text><text x="9.017999999999999" y="1.67" class="c">data</text><text x="14.027999999999999" y="1.67" class="d">██████████</text><text x="24.048" y="1.67" class="h">█████████████████████</text><text x="48.096" y="1.67" class="c">30%</text><text x="52.104" y="1.67" class="c">|</text><text x="54.108" y="1.67" class="c">ETA:</text><text x="60.11999999999999" y="1.67" class="c">4s</text></svg><svg x="1470"><use xlink:href="#a"></use><text x="0" y="1.67" class="c">Cleaning</text><text x="9.017999999999999" y="1.67" class="c">data</text><text x="14.027999999999999" y="1.67" class="d">███████████</text><text x="25.05" y="1.67" class="h">████████████████████</text><text x="48.096" y="1.67" class="c">32%</text><text x="52.104" y="1.67" class="c">|</text><text x="54.108" y="1.67" class="c">ETA:</text><text x="60.11999999999999" y="1.67" class="c">4s</text></svg><svg x="1540"><use xlink:href="#a"></use><text x="0" y="1.67" class="c">Cleaning</text><text x="9.017999999999999" y="1.67" class="c">data</text><text x="14.027999999999999" y="1.67" class="d">███████████</text><text x="25.05" y="1.67" class="h">████████████████████</text><text x="48.096" y="1.67" class="c">34%</text><text x="52.104" y="1.67" class="c">|</text><text x="54.108" y="1.67" class="c">ETA:</text><text x="60.11999999999999" y="1.67" class="c">4s</text></svg><svg x="1610"><use xlink:href="#a"></use><text x="0" y="1.67" class="c">Cleaning</text><text x="9.017999999999999" y="1.67" class="c">data</text><text x="14.027999999999999" y="1.67" class="d">███████████</text><text x="25.05" y="1.67" class="h">████████████████████</text><text x="48.096" y="1.67" class="c">35%</text><text x="52.104" y="1.67" class="c">|</text><text x="54.108" y="1.67" class="c">ETA:</text><text x="60.11999999999999" y="1.67" class="c">4s</text></svg><svg x="1680"><use xlink:href="#a"></use><text x="0" y="1.67" class="c">Cleaning</text><text x="9.017999999999999" y="1.67" class="c">data</text><text x="14.027999999999999" y="1.67" class="d">████████████</text><text x="26.052" y="1.67" class="h">███████████████████</text><text x="48.096" y="1.67" class="c">37%</text><text x="52.104" y="1.67" class="c">|</text><text x="54.108" y="1.67" class="c">ETA:</text><text x="60.11999999999999" y="1.67" class="c">4s</text></svg><svg x="1750"><use xlink:href="#a"></use><text x="0" y="1.67" class="c">Cleaning</text><text x="9.017999999999999" y="1.67" class="c">data</text><text x="14.027999999999999" y="1.67" class="d">████████████</text><text x="26.052" y="1.67" class="h">███████████████████</text><text x="48.096" y="1.67" class="c">38%</text><text x="52.104" y="1.67" class="c">|</text><text x="54.108" y="1.67" class="c">ETA:</text><text x="60.11999999999999" y="1.67" class="c">4s</text></svg><svg x="1820"><use xlink:href="#a"></use><text x="0" y="1.67" class="c">Cleaning</text><text x="9.017999999999999" y="1.67" class="c">data</text><text x="14.027999999999999" y="1.67" class="d">█████████████</text><text x="27.054" y="1.67" class="h">██████████████████</text><text x="48.096" y="1.67" class="c">40%</text><text x="52.104" y="1.67" class="c">|</text><text x="54.108" y="1.67" class="c">ETA:</text><text x="60.11999999999999" y="1.67" class="c">4s</text></svg><svg x="1890"><use xlink:href="#a"></use><text x="0" y="1.67" class="c">Cleaning</text><text x="9.017999999999999" y="1.67" class="c">data</text><text x="14.027999999999999" y="1.67" class="d">█████████████</text><text x="27.054" y="1.67" class="h">██████████████████</text><text x="48.096" y="1.67" class="c">41%</text><text x="52.104" y="1.67" class="c">|</text><text x="54.108" y="1.67" class="c">ETA:</text><text x="60.11999999999999" y="1.67" class="c">4s</text></svg><svg x="1960"><use xlink:href="#a"></use><text x="0" y="1.67" class="c">Cleaning</text><text x="9.017999999999999" y="1.67" class="c">data</text><text x="14.027999999999999" y="1.67" class="d">██████████████</text><text x="28.055999999999997" y="1.67" class="h">█████████████████</text><text x="48.096" y="1.67" class="c">43%</text><text x="52.104" y="1.67" class="c">|</text><text x="54.108" y="1.67" class="c">ETA:</text><text x="60.11999999999999" y="1.67" class="c">4s</text></svg><svg x="2030"><use xlink:href="#a"></use><text x="0" y="1.67" class="c">Cleaning</text><text x="9.017999999999999" y="1.67" class="c">data</text><text x="14.027999999999999" y="1.67" class="d">███████████████</text><text x="29.058" y="1.67" class="h">████████████████</text><text x="48.096" y="1.67" class="c">45%</text><text x="52.104" y="1.67" class="c">|</text><text x="54.108" y="1.67" class="c">ETA:</text><text x="60.11999999999999" y="1.67" class="c">4s</text></svg><svg x="2100"><use xlink:href="#a"></use><text x="0" y="1.67" class="c">Cleaning</text><text x="9.017999999999999" y="1.67" class="c">data</text><text x="14.027999999999999" y="1.67" class="d">███████████████</text><text x="29.058" y="1.67" class="h">████████████████</text><text x="48.096" y="1.67" class="c">46%</text><text x="52.104" y="1.67" class="c">|</text><text x="54.108" y="1.67" class="c">ETA:</text><text x="60.11999999999999" y="1.67" class="c">3s</text></svg><svg x="2170"><use xlink:href="#a"></use><text x="0" y="1.67" class="c">Cleaning</text><text x="9.017999999999999" y="1.67" class="c">data</text><text x="14.027999999999999" y="1.67" class="d">███████████████</text><text x="29.058" y="1.67" class="h">████████████████</text><text x="48.096" y="1.67" class="c">48%</text><text x="52.104" y="1.67" class="c">|</text><text x="54.108" y="1.67" class="c">ETA:</text><text x="60.11999999999999" y="1.67" class="c">3s</text></svg><svg x="2240"><use xlink:href="#a"></use><text x="0" y="1.67" class="c">Cleaning</text><text x="9.017999999999999" y="1.67" class="c">data</text><text x="14.027999999999999" y="1.67" class="d">████████████████</text><text x="30.059999999999995" y="1.67" class="h">███████████████</text><text x="48.096" y="1.67" class="c">50%</text><text x="52.104" y="1.67" class="c">|</text><text x="54.108" y="1.67" class="c">ETA:</text><text x="60.11999999999999" y="1.67" class="c">3s</text></svg><svg x="2310"><use xlink:href="#a"></use><text x="0" y="1.67" class="c">Cleaning</text><text x="9.017999999999999" y="1.67" class="c">data</text><text x="14.027999999999999" y="1.67" class="d">████████████████</text><text x="30.059999999999995" y="1.67" class="h">███████████████</text><text x="48.096" y="1.67" class="c">51%</text><text x="52.104" y="1.67" class="c">|</text><text x="54.108" y="1.67" class="c">ETA:</text><text x="60.11999999999999" y="1.67" class="c">3s</text></svg><svg x="2380"><use xlink:href="#a"></use><text x="0" y="1.67" class="c">Cleaning</text><text x="9.017999999999999" y="1.67" class="c">data</text><text x="14.027999999999999" y="1.67" class="d">█████████████████</text><text x="31.061999999999998" y="1.67" class="h">██████████████</text><text x="48.096" y="1.67" class="c">53%</text><text x="52.104" y="1.67" class="c">|</text><text x="54.108" y="1.67" class="c">ETA:</text><text x="60.11999999999999" y="1.67" class="c">3s</text></svg><svg x="2450"><use xlink:href="#a"></use><text x="0" y="1.67" class="c">Cleaning</text><text x="9.017999999999999" y="1.67" class="c">data</text><text x="14.027999999999999" y="1.67" class="d">█████████████████</text><text x="31.061999999999998" y="1.67" class="h">██████████████</text><text x="48.096" y="1.67" class="c">54%</text><text x="52.104" y="1.67" class="c">|</text><text x="54.108" y="1.67" class="c">ETA:</text><text x="60.11999999999999" y="1.67" class="c">3s</text></svg><svg x="2520"><use xlink:href="#a"></use><text x="0" y="1.67" class="c">Cleaning</text><text x="9.017999999999999" y="1.67" class="c">data</text><text x="14.027999999999999" y="1.67" class="d">██████████████████</text><text x="32.064" y="1.67" class="h">█████████████</text><text x="48.096" y="1.67" class="c">56%</text><text x="52.104" y="1.67" class="c">|</text><text x="54.108" y="1.67" class="c">ETA:</text><text x="60.11999999999999" y="1.67" class="c">3s</text></svg><svg x="2590"><use xlink:href="#a"></use><text x="0" y="1.67" class="c">Cleaning</text><text x="9.017999999999999" y="1.67" class="c">data</text><text x="14.027999999999999" y="1.67" class="d">██████████████████</text><text x="32.064" y="1.67" class="h">█████████████</text><text x="48.096" y="1.67" class="c">57%</text><text x="52.104" y="1.67" class="c">|</text><text x="54.108" y="1.67" class="c">ETA:</text><text x="60.11999999999999" y="1.67" class="c">3s</text></svg><svg x="2660"><use xlink:href="#a"></use><text x="0" y="1.67" class="c">Cleaning</text><text x="9.017999999999999" y="1.67" class="c">data</text><text x="14.027999999999999" y="1.67" class="d">███████████████████</text><text x="33.065999999999995" y="1.67" class="h">████████████</text><text x="48.096" y="1.67" class="c">59%</text><text x="52.104" y="1.67" class="c">|</text><text x="54.108" y="1.67" class="c">ETA:</text><text x="60.11999999999999" y="1.67" class="c">3s</text></svg><svg x="2730"><use xlink:href="#a"></use><text x="0" y="1.67" class="c">Cleaning</text><text x="9.017999999999999" y="1.67" class="c">data</text><text x="14.027999999999999" y="1.67" class="d">███████████████████</text><text x="33.065999999999995" y="1.67" class="h">████████████</text><text x="48.096" y="1.67" class="c">61%</text><text x="52.104" y="1.67" class="c">|</text><text x="54.108" y="1.67" class="c">ETA:</text><text x="60.11999999999999" y="1.67" class="c">3s</text></svg><svg x="2800"><use xlink:href="#a"></use><text x="0" y="1.67" class="c">Cleaning</text><text x="9.017999999999999" y="1.67" class="c">data</text><text x="14.027999999999999" y="1.67" class="d">████████████████████</text><text x="34.068" y="1.67" class="h">███████████</text><text x="48.096" y="1.67" class="c">62%</text><text x="52.104" y="1.67" class="c">|</text><text x="54.108" y="1.67" class="c">ETA:</text><text x="60.11999999999999" y="1.67" class="c">2s</text></svg><svg x="2870"><use xlink:href="#a"></use><text x="0" y="1.67" class="c">Cleaning</text><text x="9.017999999999999" y="1.67" class="c">data</text><text x="14.027999999999999" y="1.67" class="d">████████████████████</text><text x="34.068" y="1.67" class="h">███████████</text><text x="48.096" y="1.67" class="c">64%</text><text x="52.104" y="1.67" class="c">|</text><text x="54.108" y="1.67" class="c">ETA:</text><text x="60.11999999999999" y="1.67" class="c">2s</text></svg><svg x="2940"><use xlink:href="#a"></use><text x="0" y="1.67" class="c">Cleaning</text><text x="9.017999999999999" y="1.67" class="c">data</text><text x="14.027999999999999" y="1.67" class="d">█████████████████████</text><text x="35.06999999999999" y="1.67" class="h">██████████</text><text x="48.096" y="1.67" class="c">66%</text><text x="52.104" y="1.67" class="c">|</text><text x="54.108" y="1.67" class="c">ETA:</text><text x="60.11999999999999" y="1.67" class="c">2s</text></svg><svg x="3010"><use xlink:href="#a"></use><text x="0" y="1.67" class="c">Cleaning</text><text x="9.017999999999999" y="1.67" class="c">data</text><text x="14.027999999999999" y="1.67" class="d">█████████████████████</text><text x="35.06999999999999" y="1.67" class="h">██████████</text><text x="48.096" y="1.67" class="c">67%</text><text x="52.104" y="1.67" class="c">|</text><text x="54.108" y="1.67" class="c">ETA:</text><text x="60.11999999999999" y="1.67" class="c">2s</text></svg><svg x="3080"><use xlink:href="#a"></use><text x="0" y="1.67" class="c">Cleaning</text><text x="9.017999999999999" y="1.67" class="c">data</text><text x="14.027999999999999" y="1.67" class="d">██████████████████████</text><text x="36.071999999999996" y="1.67" class="h">█████████</text><text x="48.096" y="1.67" class="c">69%</text><text x="52.104" y="1.67" class="c">|</text><text x="54.108" y="1.67" class="c">ETA:</text><text x="60.11999999999999" y="1.67" class="c">2s</text></svg><svg x="3150"><use xlink:href="#a"></use><text x="0" y="1.67" class="c">Cleaning</text><text x="9.017999999999999" y="1.67" class="c">data</text><text x="14.027999999999999" y="1.67" class="d">██████████████████████</text><text x="36.071999999999996" y="1.67" class="h">█████████</text><text x="48.096" y="1.67" class="c">71%</text><text x="52.104" y="1.67" class="c">|</text><text x="54.108" y="1.67" class="c">ETA:</text><text x="60.11999999999999" y="1.67" class="c">2s</text></svg><svg x="3220"><use xlink:href="#a"></use><text x="0" y="1.67" class="c">Cleaning</text><text x="9.017999999999999" y="1.67" class="c">data</text><text x="14.027999999999999" y="1.67" class="d">███████████████████████</text><text x="37.074" y="1.67" class="h">████████</text><text x="48.096" y="1.67" class="c">72%</text><text x="52.104" y="1.67" class="c">|</text><text x="54.108" y="1.67" class="c">ETA:</text><text x="60.11999999999999" y="1.67" class="c">2s</text></svg><svg x="3290"><use xlink:href="#a"></use><text x="0" y="1.67" class="c">Cleaning</text><text x="9.017999999999999" y="1.67" class="c">data</text><text x="14.027999999999999" y="1.67" class="d">███████████████████████</text><text x="37.074" y="1.67" class="h">████████</text><text x="48.096" y="1.67" class="c">74%</text><text x="52.104" y="1.67" class="c">|</text><text x="54.108" y="1.67" class="c">ETA:</text><text x="60.11999999999999" y="1.67" class="c">2s</text></svg><svg x="3360"><use xlink:href="#a"></use><text x="0" y="1.67" class="c">Cleaning</text><text x="9.017999999999999" y="1.67" class="c">data</text><text x="14.027999999999999" y="1.67" class="d">████████████████████████</text><text x="38.07599999999999" y="1.67" class="h">███████</text><text x="48.096" y="1.67" class="c">76%</text><text x="52.104" y="1.67" class="c">|</text><text x="54.108" y="1.67" class="c">ETA:</text><text x="60.11999999999999" y="1.67" class="c">2s</text></svg><svg x="3430"><use xlink:href="#a"></use><text x="0" y="1.67" class="c">Cleaning</text><text x="9.017999999999999" y="1.67" class="c">data</text><text x="14.027999999999999" y="1.67" class="d">████████████████████████</text><text x="38.07599999999999" y="1.67" class="h">███████</text><text x="48.096" y="1.67" class="c">77%</text><text x="52.104" y="1.67" class="c">|</text><text x="54.108" y="1.67" class="c">ETA:</text><text x="60.11999999999999" y="1.67" class="c">1s</text></svg><svg x="3500"><use xlink:href="#a"></use><text x="0" y="1.67" class="c">Cleaning</text><text x="9.017999999999999" y="1.67" class="c">data</text><text x="14.027999999999999" y="1.67" class="d">████████████████████████</text><text x="38.07599999999999" y="1.67" class="h">███████</text><text x="48.096" y="1.67" class="c">78%</text><text x="52.104" y="1.67" class="c">|</text><text x="54.108" y="1.67" class="c">ETA:</text><text x="60.11999999999999" y="1.67" class="c">1s</text></svg><svg x="3570"><use xlink:href="#a"></use><text x="0" y="1.67" class="c">Cleaning</text><text x="9.017999999999999" y="1.67" class="c">data</text><text x="14.027999999999999" y="1.67" class="d">█████████████████████████</text><text x="39.077999999999996" y="1.67" class="h">██████</text><text x="48.096" y="1.67" class="c">80%</text><text x="52.104" y="1.67" class="c">|</text><text x="54.108" y="1.67" class="c">ETA:</text><text x="60.11999999999999" y="1.67" class="c">1s</text></svg><svg x="3640"><use xlink:href="#a"></use><text x="0" y="1.67" class="c">Cleaning</text><text x="9.017999999999999" y="1.67" class="c">data</text><text x="14.027999999999999" y="1.67" class="d">██████████████████████████</text><text x="40.08" y="1.67" class="h">█████</text><text x="48.096" y="1.67" class="c">82%</text><text x="52.104" y="1.67" class="c">|</text><text x="54.108" y="1.67" class="c">ETA:</text><text x="60.11999999999999" y="1.67" class="c">1s</text></svg><svg x="3710"><use xlink:href="#a"></use><text x="0" y="1.67" class="c">Cleaning</text><text x="9.017999999999999" y="1.67" class="c">data</text><text x="14.027999999999999" y="1.67" class="d">██████████████████████████</text><text x="40.08" y="1.67" class="h">█████</text><text x="48.096" y="1.67" class="c">83%</text><text x="52.104" y="1.67" class="c">|</text><text x="54.108" y="1.67" class="c">ETA:</text><text x="60.11999999999999" y="1.67" class="c">1s</text></svg><svg x="3780"><use xlink:href="#a"></use><text x="0" y="1.67" class="c">Cleaning</text><text x="9.017999999999999" y="1.67" class="c">data</text><text x="14.027999999999999" y="1.67" class="d">███████████████████████████</text><text x="41.082" y="1.67" class="h">████</text><text x="48.096" y="1.67" class="c">85%</text><text x="52.104" y="1.67" class="c">|</text><text x="54.108" y="1.67" class="c">ETA:</text><text x="60.11999999999999" y="1.67" class="c">1s</text></svg><svg x="3850"><use xlink:href="#a"></use><text x="0" y="1.67" class="c">Cleaning</text><text x="9.017999999999999" y="1.67" class="c">data</text><text x="14.027999999999999" y="1.67" class="d">███████████████████████████</text><text x="41.082" y="1.67" class="h">████</text><text x="48.096" y="1.67" class="c">86%</text><text x="52.104" y="1.67" class="c">|</text><text x="54.108" y="1.67" class="c">ETA:</text><text x="60.11999999999999" y="1.67" class="c">1s</text></svg><svg x="3920"><use xlink:href="#a"></use><text x="0" y="1.67" class="c">Cleaning</text><text x="9.017999999999999" y="1.67" class="c">data</text><text x="14.027999999999999" y="1.67" class="d">███████████████████████████</text><text x="41.082" y="1.67" class="h">████</text><text x="48.096" y="1.67" class="c">88%</text><text x="52.104" y="1.67" class="c">|</text><text x="54.108" y="1.67" class="c">ETA:</text><text x="60.11999999999999" y="1.67" class="c">1s</text></svg><svg x="3990"><use xlink:href="#a"></use><text x="0" y="1.67" class="c">Cleaning</text><text x="9.017999999999999" y="1.67" class="c">data</text><text x="14.027999999999999" y="1.67" class="d">████████████████████████████</text><text x="42.083999999999996" y="1.67" class="h">███</text><text x="48.096" y="1.67" class="c">90%</text><text x="52.104" y="1.67" class="c">|</text><text x="54.108" y="1.67" class="c">ETA:</text><text x="60.11999999999999" y="1.67" class="c">1s</text></svg><svg x="4060"><use xlink:href="#a"></use><text x="0" y="1.67" class="c">Cleaning</text><text x="9.017999999999999" y="1.67" class="c">data</text><text x="14.027999999999999" y="1.67" class="d">█████████████████████████████</text><text x="43.086" y="1.67" class="h">██</text><text x="48.096" y="1.67" class="c">92%</text><text x="52.104" y="1.67" class="c">|</text><text x="54.108" y="1.67" class="c">ETA:</text><text x="60.11999999999999" y="1.67" class="c">1s</text></svg><svg x="4130"><use xlink:href="#a"></use><text x="0" y="1.67" class="c">Cleaning</text><text x="9.017999999999999" y="1.67" class="c">data</text><text x="14.027999999999999" y="1.67" class="d">█████████████████████████████</text><text x="43.086" y="1.67" class="h">██</text><text x="48.096" y="1.67" class="c">93%</text><text x="52.104" y="1.67" class="c">|</text><text x="54.108" y="1.67" class="c">ETA:</text><text x="60.11999999999999" y="1.67" class="c">0s</text></svg><svg x="4200"><use xlink:href="#a"></use><text x="0" y="1.67" class="c">Cleaning</text><text x="9.017999999999999" y="1.67" class="c">data</text><text x="14.027999999999999" y="1.67" class="d">█████████████████████████████</text><text x="43.086" y="1.67" class="h">██</text><text x="48.096" y="1.67" class="c">95%</text><text x="52.104" y="1.67" class="c">|</text><text x="54.108" y="1.67" class="c">ETA:</text><text x="60.11999999999999" y="1.67" class="c">0s</text></svg><svg x="4270"><use xlink:href="#a"></use><text x="0" y="1.67" class="c">Cleaning</text><text x="9.017999999999999" y="1.67" class="c">data</text><text x="14.027999999999999" y="1.67" class="d">██████████████████████████████</text><text x="44.087999999999994" y="1.67" class="h">█</text><text x="48.096" y="1.67" class="c">96%</text><text x="52.104" y="1.67" class="c">|</text><text x="54.108" y="1.67" class="c">ETA:</text><text x="60.11999999999999" y="1.67" class="c">0s</text></svg><svg x="4340"><use xlink:href="#a"></use><text x="0" y="1.67" class="c">Cleaning</text><text x="9.017999999999999" y="1.67" class="c">data</text><text x="14.027999999999999" y="1.67" class="d">██████████████████████████████</text><text x="44.087999999999994" y="1.67" class="h">█</text><text x="48.096" y="1.67" class="c">98%</text><text x="52.104" y="1.67" class="c">|</text><text x="54.108" y="1.67" class="c">ETA:</text><text x="60.11999999999999" y="1.67" class="c">0s</text></svg><svg x="4410"><use xlink:href="#a"></use><text x="0" y="1.67" class="c">Cleaning</text><text x="9.017999999999999" y="1.67" class="c">data</text><text x="14.027999999999999" y="1.67" class="d">███████████████████████████████</text><text x="48.096" y="1.67" class="c">99%</text><text x="52.104" y="1.67" class="c">|</text><text x="54.108" y="1.67" class="c">ETA:</text><text x="60.11999999999999" y="1.67" class="c">0s</text></svg><svg x="4480"><use xlink:href="#a"></use><use xlink:href="#1" y="0"></use></svg><svg x="4550"><use xlink:href="#a"></use><use xlink:href="#1" y="0"></use></svg><svg x="4620"><use xlink:href="#a"></use><use xlink:href="#1" y="0"></use></svg></svg></g></g></svg></svg>