<svg xmlns="http://www.w3.org/2000/svg" xmlns:xlink="http://www.w3.org/1999/xlink" width="740" height="61.709999999999994"><rect width="740" height="61.709999999999994" rx="0" ry="0" class="a"></rect><svg height="21.709999999999997" viewBox="0 0 70 2.171" width="700" x="20" xmlns="http://www.w3.org/2000/svg" xmlns:xlink="http://www.w3.org/1999/xlink" y="20"><style>.a{fill:rgb(40,45,53)}.b{font-family:'Fira Code',Monaco,Consolas,Menlo,'Bitstream Vera Sans Mono','Powerline Symbols',monospace}.c{fill:rgb(185,192,203);white-space:pre}.d{fill:transparent}.f{animation-duration:7.6586492061615s;animation-iteration-count:infinite;animation-name:e;animation-timing-function:steps(1,end)}@keyframes e{0%{transform:translateX(-0px)}0.1%{transform:translateX(-70px)}1.6%{transform:translateX(-140px)}1.6%{transform:translateX(-210px)}4.5%{transform:translateX(-280px)}5.7%{transform:translateX(-350px)}7.4%{transform:translateX(-420px)}8.6%{transform:translateX(-490px)}9.8%{transform:translateX(-560px)}10.9%{transform:translateX(-630px)}12.7%{transform:translateX(-700px)}13.8%{transform:translateX(-770px)}15%{transform:translateX(-840px)}16.7%{transform:translateX(-910px)}17.9%{transform:translateX(-980px)}19.1%{transform:translateX(-1050px)}20.8%{transform:translateX(-1120px)}21.9%{transform:translateX(-1190px)}23.2%{transform:translateX(-1260px)}24.3%{transform:translateX(-1330px)}25.5%{transform:translateX(-1400px)}27.3%{transform:translateX(-1470px)}28.4%{transform:translateX(-1540px)}29.6%{transform:translateX(-1610px)}31.3%{transform:translateX(-1680px)}32.4%{transform:translateX(-1750px)}33.5%{transform:translateX(-1820px)}35.3%{transform:translateX(-1890px)}36.5%{transform:translateX(-1960px)}37.6%{transform:translateX(-2030px)}39.3%{transform:translateX(-2100px)}40.5%{transform:translateX(-2170px)}41.7%{transform:translateX(-2240px)}42.9%{transform:translateX(-2310px)}44.6%{transform:translateX(-2380px)}45.8%{transform:translateX(-2450px)}46.9%{transform:translateX(-2520px)}48.6%{transform:translateX(-2590px)}49.8%{transform:translateX(-2660px)}50.9%{transform:translateX(-2730px)}52.1%{transform:translateX(-2800px)}53.8%{transform:translateX(-2870px)}54.9%{transform:translateX(-2940px)}56%{transform:translateX(-3010px)}57.7%{transform:translateX(-3080px)}58.9%{transform:translateX(-3150px)}59.5%{transform:translateX(-3220px)}59.5%{transform:translateX(-3290px)}100%{transform:translateX(-3360px)}}</style><g font-family="&#x27;Fira Code&#x27;,Monaco,Consolas,Menlo,&#x27;Bitstream Vera Sans Mono&#x27;,&#x27;Powerline Symbols&#x27;,monospace" font-size="1.67" class="b"><defs><symbol id="1"><text x="0" y="1.67" class="c">Downloading</text><text x="12.024" y="1.67" class="c">data</text><text x="17.034" y="1.67" class="c">file</text><text x="22.043999999999997" y="1.67" class="c">100</text></symbol><symbol id="a"><rect height="2" width="70" x="0" y="0" class="d"></rect></symbol></defs><rect height="2.171" width="70" class="a"></rect><g class="f"><svg x="0" y="0" width="3430"><svg x="0"><use xlink:href="#a"></use></svg><svg x="70"><use xlink:href="#a"></use></svg><svg x="140"><use xlink:href="#a"></use></svg><svg x="210"><use xlink:href="#a"></use><text x="0" y="1.67" class="c">Downloading</text><text x="12.024" y="1.67" class="c">data</text><text x="17.034" y="1.67" class="c">file</text><text x="22.043999999999997" y="1.67" class="c">0</text></svg><svg x="280"><use xlink:href="#a"></use><text x="0" y="1.67" class="c">Downloading</text><text x="12.024" y="1.67" class="c">data</text><text x="17.034" y="1.67" class="c">file</text><text x="22.043999999999997" y="1.67" class="c">5</text></svg><svg x="350"><use xlink:href="#a"></use><text x="0" y="1.67" class="c">Downloading</text><text x="12.024" y="1.67" class="c">data</text><text x="17.034" y="1.67" class="c">file</text><text x="22.043999999999997" y="1.67" class="c">7</text></svg><svg x="420"><use xlink:href="#a"></use><text x="0" y="1.67" class="c">Downloading</text><text x="12.024" y="1.67" class="c">data</text><text x="17.034" y="1.67" class="c">file</text><text x="22.043999999999997" y="1.67" class="c">10</text></svg><svg x="490"><use xlink:href="#a"></use><text x="0" y="1.67" class="c">Downloading</text><text x="12.024" y="1.67" class="c">data</text><text x="17.034" y="1.67" class="c">file</text><text x="22.043999999999997" y="1.67" class="c">12</text></svg><svg x="560"><use xlink:href="#a"></use><text x="0" y="1.67" class="c">Downloading</text><text x="12.024" y="1.67" class="c">data</text><text x="17.034" y="1.67" class="c">file</text><text x="22.043999999999997" y="1.67" class="c">14</text></svg><svg x="630"><use xlink:href="#a"></use><text x="0" y="1.67" class="c">Downloading</text><text x="12.024" y="1.67" class="c">data</text><text x="17.034" y="1.67" class="c">file</text><text x="22.043999999999997" y="1.67" class="c">16</text></svg><svg x="700"><use xlink:href="#a"></use><text x="0" y="1.67" class="c">Downloading</text><text x="12.024" y="1.67" class="c">data</text><text x="17.034" y="1.67" class="c">file</text><text x="22.043999999999997" y="1.67" class="c">19</text></svg><svg x="770"><use xlink:href="#a"></use><text x="0" y="1.67" class="c">Downloading</text><text x="12.024" y="1.67" class="c">data</text><text x="17.034" y="1.67" class="c">file</text><text x="22.043999999999997" y="1.67" class="c">21</text></svg><svg x="840"><use xlink:href="#a"></use><text x="0" y="1.67" class="c">Downloading</text><text x="12.024" y="1.67" class="c">data</text><text x="17.034" y="1.67" class="c">file</text><text x="22.043999999999997" y="1.67" class="c">23</text></svg><svg x="910"><use xlink:href="#a"></use><text x="0" y="1.67" class="c">Downloading</text><text x="12.024" y="1.67" class="c">data</text><text x="17.034" y="1.67" class="c">file</text><text x="22.043999999999997" y="1.67" class="c">26</text></svg><svg x="980"><use xlink:href="#a"></use><text x="0" y="1.67" class="c">Downloading</text><text x="12.024" y="1.67" class="c">data</text><text x="17.034" y="1.67" class="c">file</text><text x="22.043999999999997" y="1.67" class="c">28</text></svg><svg x="1050"><use xlink:href="#a"></use><text x="0" y="1.67" class="c">Downloading</text><text x="12.024" y="1.67" class="c">data</text><text x="17.034" y="1.67" class="c">file</text><text x="22.043999999999997" y="1.67" class="c">30</text></svg><svg x="1120"><use xlink:href="#a"></use><text x="0" y="1.67" class="c">Downloading</text><text x="12.024" y="1.67" class="c">data</text><text x="17.034" y="1.67" class="c">file</text><text x="22.043999999999997" y="1.67" class="c">33</text></svg><svg x="1190"><use xlink:href="#a"></use><text x="0" y="1.67" class="c">Downloading</text><text x="12.024" y="1.67" class="c">data</text><text x="17.034" y="1.67" class="c">file</text><text x="22.043999999999997" y="1.67" class="c">35</text></svg><svg x="1260"><use xlink:href="#a"></use><text x="0" y="1.67" class="c">Downloading</text><text x="12.024" y="1.67" class="c">data</text><text x="17.034" y="1.67" class="c">file</text><text x="22.043999999999997" y="1.67" class="c">37</text></svg><svg x="1330"><use xlink:href="#a"></use><text x="0" y="1.67" class="c">Downloading</text><text x="12.024" y="1.67" class="c">data</text><text x="17.034" y="1.67" class="c">file</text><text x="22.043999999999997" y="1.67" class="c">39</text></svg><svg x="1400"><use xlink:href="#a"></use><text x="0" y="1.67" class="c">Downloading</text><text x="12.024" y="1.67" class="c">data</text><text x="17.034" y="1.67" class="c">file</text><text x="22.043999999999997" y="1.67" class="c">41</text></svg><svg x="1470"><use xlink:href="#a"></use><text x="0" y="1.67" class="c">Downloading</text><text x="12.024" y="1.67" class="c">data</text><text x="17.034" y="1.67" class="c">file</text><text x="22.043999999999997" y="1.67" class="c">44</text></svg><svg x="1540"><use xlink:href="#a"></use><text x="0" y="1.67" class="c">Downloading</text><text x="12.024" y="1.67" class="c">data</text><text x="17.034" y="1.67" class="c">file</text><text x="22.043999999999997" y="1.67" class="c">46</text></svg><svg x="1610"><use xlink:href="#a"></use><text x="0" y="1.67" class="c">Downloading</text><text x="12.024" y="1.67" class="c">data</text><text x="17.034" y="1.67" class="c">file</text><text x="22.043999999999997" y="1.67" class="c">48</text></svg><svg x="1680"><use xlink:href="#a"></use><text x="0" y="1.67" class="c">Downloading</text><text x="12.024" y="1.67" class="c">data</text><text x="17.034" y="1.67" class="c">file</text><text x="22.043999999999997" y="1.67" class="c">51</text></svg><svg x="1750"><use xlink:href="#a"></use><text x="0" y="1.67" class="c">Downloading</text><text x="12.024" y="1.67" class="c">data</text><text x="17.034" y="1.67" class="c">file</text><text x="22.043999999999997" y="1.67" class="c">53</text></svg><svg x="1820"><use xlink:href="#a"></use><text x="0" y="1.67" class="c">Downloading</text><text x="12.024" y="1.67" class="c">data</text><text x="17.034" y="1.67" class="c">file</text><text x="22.043999999999997" y="1.67" class="c">55</text></svg><svg x="1890"><use xlink:href="#a"></use><text x="0" y="1.67" class="c">Downloading</text><text x="12.024" y="1.67" class="c">data</text><text x="17.034" y="1.67" class="c">file</text><text x="22.043999999999997" y="1.67" class="c">58</text></svg><svg x="1960"><use xlink:href="#a"></use><text x="0" y="1.67" class="c">Downloading</text><text x="12.024" y="1.67" class="c">data</text><text x="17.034" y="1.67" class="c">file</text><text x="22.043999999999997" y="1.67" class="c">60</text></svg><svg x="2030"><use xlink:href="#a"></use><text x="0" y="1.67" class="c">Downloading</text><text x="12.024" y="1.67" class="c">data</text><text x="17.034" y="1.67" class="c">file</text><text x="22.043999999999997" y="1.67" class="c">62</text></svg><svg x="2100"><use xlink:href="#a"></use><text x="0" y="1.67" class="c">Downloading</text><text x="12.024" y="1.67" class="c">data</text><text x="17.034" y="1.67" class="c">file</text><text x="22.043999999999997" y="1.67" class="c">65</text></svg><svg x="2170"><use xlink:href="#a"></use><text x="0" y="1.67" class="c">Downloading</text><text x="12.024" y="1.67" class="c">data</text><text x="17.034" y="1.67" class="c">file</text><text x="22.043999999999997" y="1.67" class="c">67</text></svg><svg x="2240"><use xlink:href="#a"></use><text x="0" y="1.67" class="c">Downloading</text><text x="12.024" y="1.67" class="c">data</text><text x="17.034" y="1.67" class="c">file</text><text x="22.043999999999997" y="1.67" class="c">69</text></svg><svg x="2310"><use xlink:href="#a"></use><text x="0" y="1.67" class="c">Downloading</text><text x="12.024" y="1.67" class="c">data</text><text x="17.034" y="1.67" class="c">file</text><text x="22.043999999999997" y="1.67" class="c">71</text></svg><svg x="2380"><use xlink:href="#a"></use><text x="0" y="1.67" class="c">Downloading</text><text x="12.024" y="1.67" class="c">data</text><text x="17.034" y="1.67" class="c">file</text><text x="22.043999999999997" y="1.67" class="c">74</text></svg><svg x="2450"><use xlink:href="#a"></use><text x="0" y="1.67" class="c">Downloading</text><text x="12.024" y="1.67" class="c">data</text><text x="17.034" y="1.67" class="c">file</text><text x="22.043999999999997" y="1.67" class="c">76</text></svg><svg x="2520"><use xlink:href="#a"></use><text x="0" y="1.67" class="c">Downloading</text><text x="12.024" y="1.67" class="c">data</text><text x="17.034" y="1.67" class="c">file</text><text x="22.043999999999997" y="1.67" class="c">78</text></svg><svg x="2590"><use xlink:href="#a"></use><text x="0" y="1.67" class="c">Downloading</text><text x="12.024" y="1.67" class="c">data</text><text x="17.034" y="1.67" class="c">file</text><text x="22.043999999999997" y="1.67" class="c">81</text></svg><svg x="2660"><use xlink:href="#a"></use><text x="0" y="1.67" class="c">Downloading</text><text x="12.024" y="1.67" class="c">data</text><text x="17.034" y="1.67" class="c">file</text><text x="22.043999999999997" y="1.67" class="c">83</text></svg><svg x="2730"><use xlink:href="#a"></use><text x="0" y="1.67" class="c">Downloading</text><text x="12.024" y="1.67" class="c">data</text><text x="17.034" y="1.67" class="c">file</text><text x="22.043999999999997" y="1.67" class="c">85</text></svg><svg x="2800"><use xlink:href="#a"></use><text x="0" y="1.67" class="c">Downloading</text><text x="12.024" y="1.67" class="c">data</text><text x="17.034" y="1.67" class="c">file</text><text x="22.043999999999997" y="1.67" class="c">87</text></svg><svg x="2870"><use xlink:href="#a"></use><text x="0" y="1.67" class="c">Downloading</text><text x="12.024" y="1.67" class="c">data</text><text x="17.034" y="1.67" class="c">file</text><text x="22.043999999999997" y="1.67" class="c">90</text></svg><svg x="2940"><use xlink:href="#a"></use><text x="0" y="1.67" class="c">Downloading</text><text x="12.024" y="1.67" class="c">data</text><text x="17.034" y="1.67" class="c">file</text><text x="22.043999999999997" y="1.67" class="c">92</text></svg><svg x="3010"><use xlink:href="#a"></use><text x="0" y="1.67" class="c">Downloading</text><text x="12.024" y="1.67" class="c">data</text><text x="17.034" y="1.67" class="c">file</text><text x="22.043999999999997" y="1.67" class="c">94</text></svg><svg x="3080"><use xlink:href="#a"></use><text x="0" y="1.67" class="c">Downloading</text><text x="12.024" y="1.67" class="c">data</text><text x="17.034" y="1.67" class="c">file</text><text x="22.043999999999997" y="1.67" class="c">97</text></svg><svg x="3150"><use xlink:href="#a"></use><text x="0" y="1.67" class="c">Downloading</text><text x="12.024" y="1.67" class="c">data</text><text x="17.034" y="1.67" class="c">file</text><text x="22.043999999999997" y="1.67" class="c">99</text></svg><svg x="3220"><use xlink:href="#a"></use><use xlink:href="#1" y="0"></use></svg><svg x="3290"><use xlink:href="#a"></use><use xlink:href="#1" y="0"></use></svg><svg x="3360"><use xlink:href="#a"></use><use xlink:href="#1" y="0"></use></svg></svg></g></g></svg></svg>