<svg xmlns="http://www.w3.org/2000/svg" xmlns:xlink="http://www.w3.org/1999/xlink" width="1040" height="257.1"><rect width="1040" height="257.1" rx="0" ry="0" class="a"></rect><svg height="217.10000000000002" viewBox="0 0 100 21.71" width="1000" x="20" xmlns="http://www.w3.org/2000/svg" xmlns:xlink="http://www.w3.org/1999/xlink" y="20"><style>.a{fill:rgb(40,45,53)}.b{font-family:'Fira Code',Monaco,Consolas,Menlo,'Bitstream Vera Sans Mono','Powerline Symbols',monospace}.c{fill:transparent}.d{fill:rgb(111,119,131);white-space:pre}.e{fill:rgb(185,192,203);white-space:pre}</style><g font-family="&#x27;Fira Code&#x27;,Monaco,Consolas,Menlo,&#x27;Bitstream Vera Sans Mono&#x27;,&#x27;Powerline Symbols&#x27;,monospace" font-size="1.67" class="b"><defs><symbol id="a"><rect height="11" width="100" x="0" y="0" class="c"></rect></symbol></defs><rect height="21.71" width="100" class="a"></rect><svg x="0" y="0" width="100"><svg x="0"><use xlink:href="#a"></use><text x="2.004" y="1.67" class="d">function</text><text x="11.021999999999998" y="1.67" class="d">(lines</text><text x="18.035999999999998" y="1.67" class="d">=</text><text x="20.04" y="1.67" class="d">NULL,</text><text x="26.052" y="1.67" class="d">...,</text><text x="31.061999999999998" y="1.67" class="d">language</text><text x="40.08" y="1.67" class="d">=</text><text x="42.083999999999996" y="1.67" class="d">&quot;R&quot;,</text><text x="47.093999999999994" y="1.67" class="d">.auto_close</text><text x="59.117999999999995" y="1.67" class="d">=</text><text x="61.12199999999999" y="1.67" class="d">TRUE,</text><text x="6.012" y="3.8409999999999997" class="d">.envir</text><text x="13.026" y="3.8409999999999997" class="d">=</text><text x="15.029999999999998" y="3.8409999999999997" class="d">environment())</text><text x="2.004" y="6.012" class="d">{</text><text x="6.012" y="8.183" class="d">lines</text><text x="12.024" y="8.183" class="d">&lt;-</text><text x="15.029999999999998" y="8.183" class="d">c(lines,</text><text x="24.048" y="8.183" class="d">unlist(list(...)))</text><text x="6.012" y="10.354" class="d">id</text><text x="9.017999999999999" y="10.354" class="d">&lt;-</text><text x="12.024" y="10.354" class="d">cli_div(class</text><text x="26.052" y="10.354" class="d">=</text><text x="28.055999999999997" y="10.354" class="d">paste(&quot;code&quot;,</text><text x="42.083999999999996" y="10.354" class="d">language),</text><text x="53.105999999999995" y="10.354" class="d">.auto_close</text><text x="65.13" y="10.354" class="d">=</text><text x="67.134" y="10.354" class="d">.auto_close,</text><text x="10.02" y="12.525" class="d">.envir</text><text x="17.034" y="12.525" class="d">=</text><text x="19.037999999999997" y="12.525" class="d">.envir)</text><text x="6.012" y="14.696" class="d">cli_verbatim(lines)</text><text x="6.012" y="16.866999999999997" class="d">invisible(id)</text><text x="2.004" y="19.037999999999997" class="d">}</text><text x="2.004" y="21.209000000000003" class="e">[Copied</text><text x="10.02" y="21.209000000000003" class="e">to</text><text x="13.026" y="21.209000000000003" class="e">clipboard]</text></svg></svg></g></svg></svg>