<svg xmlns="http://www.w3.org/2000/svg" xmlns:xlink="http://www.w3.org/1999/xlink" width="740" height="126.83999999999999"><rect width="740" height="126.83999999999999" rx="0" ry="0" class="a"></rect><svg height="86.83999999999999" viewBox="0 0 70 8.684" width="700" x="20" xmlns="http://www.w3.org/2000/svg" xmlns:xlink="http://www.w3.org/1999/xlink" y="20"><style>.a{fill:rgb(40,45,53)}.b{font-family:'Fira Code',Monaco,Consolas,Menlo,'Bitstream Vera Sans Mono','Powerline Symbols',monospace}.c{fill:transparent}.d{fill:rgb(185,192,203);white-space:pre}.e{fill:rgb(102,194,205);white-space:pre}.f{fill:rgb(232,131,136);white-space:pre}</style><g font-family="&#x27;Fira Code&#x27;,Monaco,Consolas,Menlo,&#x27;Bitstream Vera Sans Mono&#x27;,&#x27;Powerline Symbols&#x27;,monospace" font-size="1.67" class="b"><defs><symbol id="a"><rect height="5" width="70" x="0" y="0" class="c"></rect></symbol></defs><rect height="8.684" width="70" class="a"></rect><svg x="0" y="0" width="70"><svg x="0"><use xlink:href="#a"></use><text x="0" y="1.67" class="d">┌</text><text x="2.004" y="1.67" class="e">Columns</text><text x="10.02" y="1.67" class="d">───────────────────────────────────────────┐</text><text x="0" y="3.8409999999999997" class="d">│</text><text x="3.006" y="3.8409999999999997" class="f">foo</text><text x="7.013999999999999" y="3.8409999999999997" class="d">1</text><text x="13.026" y="3.8409999999999997" class="f">foo</text><text x="17.034" y="3.8409999999999997" class="d">2</text><text x="23.045999999999996" y="3.8409999999999997" class="f">foo</text><text x="27.054" y="3.8409999999999997" class="d">3</text><text x="33.065999999999995" y="3.8409999999999997" class="f">foo</text><text x="37.074" y="3.8409999999999997" class="d">4</text><text x="43.086" y="3.8409999999999997" class="f">foo</text><text x="47.093999999999994" y="3.8409999999999997" class="d">5</text><text x="53.105999999999995" y="3.8409999999999997" class="d">│</text><text x="0" y="6.012" class="d">│</text><text x="3.006" y="6.012" class="f">foo</text><text x="7.013999999999999" y="6.012" class="d">6</text><text x="13.026" y="6.012" class="f">foo</text><text x="17.034" y="6.012" class="d">7</text><text x="23.045999999999996" y="6.012" class="f">foo</text><text x="27.054" y="6.012" class="d">8</text><text x="33.065999999999995" y="6.012" class="f">foo</text><text x="37.074" y="6.012" class="d">9</text><text x="43.086" y="6.012" class="f">foo</text><text x="47.093999999999994" y="6.012" class="d">10</text><text x="53.105999999999995" y="6.012" class="d">│</text><text x="0" y="8.183" class="d">└────────────────────────────────────────────────────┘</text></svg></svg></g></svg></svg>