<svg xmlns="http://www.w3.org/2000/svg" xmlns:xlink="http://www.w3.org/1999/xlink" width="740" height="257.1"><rect width="740" height="257.1" rx="0" ry="0" class="a"></rect><svg height="217.10000000000002" viewBox="0 0 70 21.71" width="700" x="20" xmlns="http://www.w3.org/2000/svg" xmlns:xlink="http://www.w3.org/1999/xlink" y="20"><style>.a{fill:rgb(40,45,53)}.b{font-family:'Fira Code',Monaco,Consolas,Menlo,'Bitstream Vera Sans Mono','Powerline Symbols',monospace}.c{fill:rgb(185,192,203);white-space:pre}.d{fill:rgb(175,0,0)}.e{fill:rgb(232,131,136)}.f{fill:transparent}</style><g font-family="&#x27;Fira Code&#x27;,Monaco,Consolas,Menlo,&#x27;Bitstream Vera Sans Mono&#x27;,&#x27;Powerline Symbols&#x27;,monospace" font-size="1.67" class="b"><defs><symbol id="1"><text x="0" y="1.67" class="c">┌──────────────────┐</text></symbol><symbol id="2"><text x="0" y="1.67" class="c">│</text><rect height="2.171" width="18" x="1.002" y="0" class="d"></rect><text x="1.002" y="1.67" class="c">                  </text><text x="19.037999999999997" y="1.67" class="c">│</text></symbol><symbol id="3"><text x="0" y="1.67" class="c">└──────────────────┘</text></symbol><symbol id="4"><text x="0" y="1.67" class="c">│</text><rect height="2.171" width="18" x="1.002" y="0" class="e"></rect><text x="1.002" y="1.67" class="c">                  </text><text x="19.037999999999997" y="1.67" class="c">│</text></symbol><symbol id="a"><rect height="11" width="70" x="0" y="0" class="f"></rect></symbol></defs><rect height="21.71" width="70" class="a"></rect><svg x="0" y="0" width="70"><svg x="0"><use xlink:href="#a"></use><use xlink:href="#1" y="0"></use><use xlink:href="#2" y="2.171"></use><text x="0" y="6.012" class="c">│</text><rect height="2.171" width="18" x="1.002" y="4.342" class="d"></rect><text x="1.002" y="6.012" class="c">   Hello there!   </text><text x="19.037999999999997" y="6.012" class="c">│</text><use xlink:href="#2" y="6.513"></use><use xlink:href="#3" y="8.684"></use><use xlink:href="#1" y="10.855"></use><use xlink:href="#4" y="13.026"></use><text x="0" y="16.866999999999997" class="c">│</text><rect height="2.171" width="18" x="1.002" y="15.196999999999997" class="e"></rect><text x="1.002" y="16.866999999999997" class="c">   Hello there!   </text><text x="19.037999999999997" y="16.866999999999997" class="c">│</text><use xlink:href="#4" y="17.368"></use><use xlink:href="#3" y="19.539"></use></svg></svg></g></svg></svg>