<svg xmlns="http://www.w3.org/2000/svg" xmlns:xlink="http://www.w3.org/1999/xlink" width="740" height="105.13"><rect width="740" height="105.13" rx="0" ry="0" class="a"></rect><svg height="65.13" viewBox="0 0 70 6.513" width="700" x="20" xmlns="http://www.w3.org/2000/svg" xmlns:xlink="http://www.w3.org/1999/xlink" y="20"><style>.a{fill:rgb(40,45,53)}.b{font-family:'Fira Code',Monaco,Consolas,Menlo,'Bitstream Vera Sans Mono','Powerline Symbols',monospace}.c{fill:transparent}.d{fill:rgb(185,192,203);font-weight:bold;white-space:pre}.e{fill:rgb(38,38,38)}.f{fill:rgb(198,198,198);font-weight:bold;white-space:pre}.g{fill:rgb(232,131,136);white-space:pre}.h{fill:rgb(185,192,203);white-space:pre}.i{fill:rgb(113,190,242);white-space:pre}.j{fill:rgb(111,119,131);white-space:pre}</style><g font-family="&#x27;Fira Code&#x27;,Monaco,Consolas,Menlo,&#x27;Bitstream Vera Sans Mono&#x27;,&#x27;Powerline Symbols&#x27;,monospace" font-size="1.67" class="b"><defs><symbol id="a"><rect height="4" width="70" x="0" y="0" class="c"></rect></symbol></defs><rect height="6.513" width="70" class="a"></rect><svg x="0" y="0" width="70"><svg x="0"><use xlink:href="#a"></use><text x="0" y="1.67" class="d">Error:</text><rect height="2.171" width="3" x="7.013999999999999" y="0" class="e"></rect><text x="7.013999999999999" y="1.67" class="f">`n`</text><text x="11.021999999999998" y="1.67" class="d">must</text><text x="16.032" y="1.67" class="d">be</text><text x="19.037999999999997" y="1.67" class="d">a</text><text x="21.041999999999998" y="1.67" class="d">numeric</text><text x="29.058" y="1.67" class="d">vector</text><text x="0" y="3.8409999999999997" class="g">✖</text><text x="2.004" y="3.8409999999999997" class="h">You&#x27;ve</text><text x="9.017999999999999" y="3.8409999999999997" class="h">supplied</text><text x="18.035999999999998" y="3.8409999999999997" class="h">a</text><text x="20.04" y="3.8409999999999997" class="i">&lt;character&gt;</text><text x="32.064" y="3.8409999999999997" class="h">vector.</text><text x="0" y="6.012" class="j">Run</text><text x="4.008" y="6.012" class="j">`rlang::last_error()`</text><text x="26.052" y="6.012" class="j">to</text><text x="29.058" y="6.012" class="j">see</text><text x="33.065999999999995" y="6.012" class="j">where</text><text x="39.077999999999996" y="6.012" class="j">the</text><text x="43.086" y="6.012" class="j">error</text><text x="49.098" y="6.012" class="j">occurred.</text></svg></svg></g></svg></svg>