<svg xmlns="http://www.w3.org/2000/svg" xmlns:xlink="http://www.w3.org/1999/xlink" width="740" height="257.1"><rect width="740" height="257.1" rx="0" ry="0" class="a"></rect><svg height="217.10000000000002" viewBox="0 0 70 21.71" width="700" x="20" xmlns="http://www.w3.org/2000/svg" xmlns:xlink="http://www.w3.org/1999/xlink" y="20"><style>.a{fill:rgb(40,45,53)}.b{font-family:'Fira Code',Monaco,Consolas,Menlo,'Bitstream Vera Sans Mono','Powerline Symbols',monospace}.c{fill:transparent}.d{fill:rgb(185,192,203);white-space:pre}.e{fill:rgb(232,131,136);font-style:italic;white-space:pre}.f{fill:rgb(185,192,203);font-weight:bold;white-space:pre}.g{fill:rgb(38,38,38)}.h{fill:rgb(198,198,198);white-space:pre}.i{fill:rgb(113,190,242);white-space:pre}.j{fill:rgb(113,190,242);font-style:italic;white-space:pre}</style><g font-family="&#x27;Fira Code&#x27;,Monaco,Consolas,Menlo,&#x27;Bitstream Vera Sans Mono&#x27;,&#x27;Powerline Symbols&#x27;,monospace" font-size="1.67" class="b"><defs><symbol id="a"><rect height="11" width="70" x="0" y="0" class="c"></rect></symbol></defs><rect height="21.71" width="70" class="a"></rect><svg x="0" y="0" width="70"><svg x="0"><use xlink:href="#a"></use><text x="0" y="1.67" class="d">•</text><text x="2.004" y="1.67" class="e">Emphasized</text><text x="13.026" y="1.67" class="d">text.</text><text x="0" y="3.8409999999999997" class="d">•</text><text x="2.004" y="3.8409999999999997" class="f">Strong</text><text x="9.017999999999999" y="3.8409999999999997" class="d">importance.</text><text x="0" y="6.012" class="d">•</text><text x="2.004" y="6.012" class="d">A</text><text x="4.008" y="6.012" class="d">piece</text><text x="10.02" y="6.012" class="d">of</text><text x="13.026" y="6.012" class="d">code:</text><rect height="2.171" width="20" x="19.037999999999997" y="4.342" class="g"></rect><text x="19.037999999999997" y="6.012" class="h">`sum(a) / length(a)`</text><text x="39.077999999999996" y="6.012" class="d">.</text><text x="0" y="8.183" class="d">•</text><text x="2.004" y="8.183" class="d">A</text><text x="4.008" y="8.183" class="d">package</text><text x="12.024" y="8.183" class="d">name:</text><text x="18.035999999999998" y="8.183" class="i">cli</text><text x="21.041999999999998" y="8.183" class="d">.</text><text x="0" y="10.354" class="d">•</text><text x="2.004" y="10.354" class="d">A</text><text x="4.008" y="10.354" class="d">function</text><text x="13.026" y="10.354" class="d">name:</text><rect height="2.171" width="12" x="19.037999999999997" y="8.684" class="g"></rect><text x="19.037999999999997" y="10.354" class="h">`cli_text()`</text><text x="31.061999999999998" y="10.354" class="d">.</text><text x="0" y="12.525" class="d">•</text><text x="2.004" y="12.525" class="d">A</text><text x="4.008" y="12.525" class="d">keyboard</text><text x="13.026" y="12.525" class="d">key:</text><text x="18.035999999999998" y="12.525" class="d">press</text><text x="24.048" y="12.525" class="i">[ENTER]</text><text x="31.061999999999998" y="12.525" class="d">.</text><text x="0" y="14.696" class="d">•</text><text x="2.004" y="14.696" class="d">A</text><text x="4.008" y="14.696" class="d">file</text><text x="9.017999999999999" y="14.696" class="d">name:</text><text x="15.029999999999998" y="14.696" class="i">/usr/bin/env</text><text x="27.054" y="14.696" class="d">.</text><text x="0" y="16.866999999999997" class="d">•</text><text x="2.004" y="16.866999999999997" class="d">An</text><text x="5.01" y="16.866999999999997" class="d">email</text><text x="11.021999999999998" y="16.866999999999997" class="d">address:</text><text x="20.04" y="16.866999999999997" class="i">bugs.bunny@acme.com</text><text x="39.077999999999996" y="16.866999999999997" class="d">.</text><text x="0" y="19.037999999999997" class="d">•</text><text x="2.004" y="19.037999999999997" class="d">A</text><text x="4.008" y="19.037999999999997" class="d">URL:</text><text x="9.017999999999999" y="19.037999999999997" class="j">&lt;https://acme.com&gt;</text><text x="27.054" y="19.037999999999997" class="d">.</text><text x="0" y="21.209000000000003" class="d">•</text><text x="2.004" y="21.209000000000003" class="d">An</text><text x="5.01" y="21.209000000000003" class="d">environment</text><text x="17.034" y="21.209000000000003" class="d">variable:</text><rect height="2.171" width="8" x="27.054" y="19.539" class="g"></rect><text x="27.054" y="21.209000000000003" class="h">`R_LIBS`</text><text x="35.06999999999999" y="21.209000000000003" class="d">.</text></svg></svg></g></svg></svg>