<svg xmlns="http://www.w3.org/2000/svg" xmlns:xlink="http://www.w3.org/1999/xlink" width="740" height="61.709999999999994"><rect width="740" height="61.709999999999994" rx="0" ry="0" class="a"></rect><svg height="21.709999999999997" viewBox="0 0 70 2.171" width="700" x="20" xmlns="http://www.w3.org/2000/svg" xmlns:xlink="http://www.w3.org/1999/xlink" y="20"><style>.a{fill:rgb(40,45,53)}.b{font-family:'Fira Code',Monaco,Consolas,Menlo,'Bitstream Vera Sans Mono','Powerline Symbols',monospace}.c{fill:rgb(185,192,203);white-space:pre}.d{fill:rgb(168,204,140);white-space:pre}.e{fill:transparent}.g{animation-duration:10.4458689689636s;animation-iteration-count:infinite;animation-name:f;animation-timing-function:steps(1,end)}@keyframes f{0%{transform:translateX(-0px)}0.1%{transform:translateX(-70px)}1.5%{transform:translateX(-140px)}1.6%{transform:translateX(-210px)}2.3%{transform:translateX(-280px)}3.3%{transform:translateX(-350px)}4%{transform:translateX(-420px)}5%{transform:translateX(-490px)}6.1%{transform:translateX(-560px)}7.1%{transform:translateX(-630px)}8.1%{transform:translateX(-700px)}9.1%{transform:translateX(-770px)}9.9%{transform:translateX(-840px)}10.9%{transform:translateX(-910px)}11.9%{transform:translateX(-980px)}12.9%{transform:translateX(-1050px)}14%{transform:translateX(-1120px)}14.7%{transform:translateX(-1190px)}15.8%{transform:translateX(-1260px)}16.8%{transform:translateX(-1330px)}17.8%{transform:translateX(-1400px)}18.6%{transform:translateX(-1470px)}19.6%{transform:translateX(-1540px)}20.6%{transform:translateX(-1610px)}21.6%{transform:translateX(-1680px)}22.7%{transform:translateX(-1750px)}23.4%{transform:translateX(-1820px)}24.4%{transform:translateX(-1890px)}25.5%{transform:translateX(-1960px)}26.5%{transform:translateX(-2030px)}27.5%{transform:translateX(-2100px)}28.5%{transform:translateX(-2170px)}29.6%{transform:translateX(-2240px)}30.3%{transform:translateX(-2310px)}31.3%{transform:translateX(-2380px)}32.3%{transform:translateX(-2450px)}33.4%{transform:translateX(-2520px)}34.4%{transform:translateX(-2590px)}35.4%{transform:translateX(-2660px)}35.8%{transform:translateX(-2730px)}36.1%{transform:translateX(-2800px)}36.2%{transform:translateX(-2870px)}37.3%{transform:translateX(-2940px)}38.3%{transform:translateX(-3010px)}39.3%{transform:translateX(-3080px)}40%{transform:translateX(-3150px)}41.1%{transform:translateX(-3220px)}42.1%{transform:translateX(-3290px)}43.1%{transform:translateX(-3360px)}44.2%{transform:translateX(-3430px)}45.2%{transform:translateX(-3500px)}45.9%{transform:translateX(-3570px)}47%{transform:translateX(-3640px)}48%{transform:translateX(-3710px)}49%{transform:translateX(-3780px)}50.1%{transform:translateX(-3850px)}50.8%{transform:translateX(-3920px)}51.8%{transform:translateX(-3990px)}52.8%{transform:translateX(-4060px)}53.8%{transform:translateX(-4130px)}54.8%{transform:translateX(-4200px)}55.9%{transform:translateX(-4270px)}56.6%{transform:translateX(-4340px)}57.6%{transform:translateX(-4410px)}58.6%{transform:translateX(-4480px)}59.6%{transform:translateX(-4550px)}60.6%{transform:translateX(-4620px)}61.7%{transform:translateX(-4690px)}62.7%{transform:translateX(-4760px)}63.7%{transform:translateX(-4830px)}64.7%{transform:translateX(-4900px)}65.4%{transform:translateX(-4970px)}66.4%{transform:translateX(-5040px)}67.5%{transform:translateX(-5110px)}68.6%{transform:translateX(-5180px)}69.3%{transform:translateX(-5250px)}70.3%{transform:translateX(-5320px)}70.3%{transform:translateX(-5390px)}100%{transform:translateX(-5460px)}}</style><g font-family="&#x27;Fira Code&#x27;,Monaco,Consolas,Menlo,&#x27;Bitstream Vera Sans Mono&#x27;,&#x27;Powerline Symbols&#x27;,monospace" font-size="1.67" class="b"><defs><symbol id="1"><text x="0" y="1.67" class="c">Parameter</text><text x="10.02" y="1.67" class="c">tuning</text><text x="17.034" y="1.67" class="d">■■■■■■■■■■■■■■■■■■■■■■■■■■■■■■■</text><text x="50.1" y="1.67" class="c">100%</text><text x="55.10999999999999" y="1.67" class="c">|</text><text x="57.114" y="1.67" class="c">ETA:</text><text x="63.12599999999999" y="1.67" class="c">0s</text></symbol><symbol id="a"><rect height="2" width="70" x="0" y="0" class="e"></rect></symbol></defs><rect height="2.171" width="70" class="a"></rect><g class="g"><svg x="0" y="0" width="5530"><svg x="0"><use xlink:href="#a"></use></svg><svg x="70"><use xlink:href="#a"></use></svg><svg x="140"><use xlink:href="#a"></use></svg><svg x="210"><use xlink:href="#a"></use><text x="0" y="1.67" class="c">Data</text><text x="5.01" y="1.67" class="c">cleaning</text><text x="14.027999999999999" y="1.67" class="d">■</text><text x="49.098" y="1.67" class="c">1%</text><text x="52.104" y="1.67" class="c">|</text><text x="54.108" y="1.67" class="c">ETA:</text><text x="60.11999999999999" y="1.67" class="c">3s</text></svg><svg x="280"><use xlink:href="#a"></use><text x="0" y="1.67" class="c">Data</text><text x="5.01" y="1.67" class="c">cleaning</text><text x="14.027999999999999" y="1.67" class="d">■■</text><text x="49.098" y="1.67" class="c">3%</text><text x="52.104" y="1.67" class="c">|</text><text x="54.108" y="1.67" class="c">ETA:</text><text x="60.11999999999999" y="1.67" class="c">3s</text></svg><svg x="350"><use xlink:href="#a"></use><text x="0" y="1.67" class="c">Data</text><text x="5.01" y="1.67" class="c">cleaning</text><text x="14.027999999999999" y="1.67" class="d">■■■</text><text x="49.098" y="1.67" class="c">6%</text><text x="52.104" y="1.67" class="c">|</text><text x="54.108" y="1.67" class="c">ETA:</text><text x="60.11999999999999" y="1.67" class="c">3s</text></svg><svg x="420"><use xlink:href="#a"></use><text x="0" y="1.67" class="c">Data</text><text x="5.01" y="1.67" class="c">cleaning</text><text x="14.027999999999999" y="1.67" class="d">■■■</text><text x="49.098" y="1.67" class="c">8%</text><text x="52.104" y="1.67" class="c">|</text><text x="54.108" y="1.67" class="c">ETA:</text><text x="60.11999999999999" y="1.67" class="c">3s</text></svg><svg x="490"><use xlink:href="#a"></use><text x="0" y="1.67" class="c">Data</text><text x="5.01" y="1.67" class="c">cleaning</text><text x="14.027999999999999" y="1.67" class="d">■■■■</text><text x="48.096" y="1.67" class="c">11%</text><text x="52.104" y="1.67" class="c">|</text><text x="54.108" y="1.67" class="c">ETA:</text><text x="60.11999999999999" y="1.67" class="c">3s</text></svg><svg x="560"><use xlink:href="#a"></use><text x="0" y="1.67" class="c">Data</text><text x="5.01" y="1.67" class="c">cleaning</text><text x="14.027999999999999" y="1.67" class="d">■■■■■</text><text x="48.096" y="1.67" class="c">14%</text><text x="52.104" y="1.67" class="c">|</text><text x="54.108" y="1.67" class="c">ETA:</text><text x="60.11999999999999" y="1.67" class="c">3s</text></svg><svg x="630"><use xlink:href="#a"></use><text x="0" y="1.67" class="c">Data</text><text x="5.01" y="1.67" class="c">cleaning</text><text x="14.027999999999999" y="1.67" class="d">■■■■■■</text><text x="48.096" y="1.67" class="c">17%</text><text x="52.104" y="1.67" class="c">|</text><text x="54.108" y="1.67" class="c">ETA:</text><text x="60.11999999999999" y="1.67" class="c">3s</text></svg><svg x="700"><use xlink:href="#a"></use><text x="0" y="1.67" class="c">Data</text><text x="5.01" y="1.67" class="c">cleaning</text><text x="14.027999999999999" y="1.67" class="d">■■■■■■■</text><text x="48.096" y="1.67" class="c">20%</text><text x="52.104" y="1.67" class="c">|</text><text x="54.108" y="1.67" class="c">ETA:</text><text x="60.11999999999999" y="1.67" class="c">3s</text></svg><svg x="770"><use xlink:href="#a"></use><text x="0" y="1.67" class="c">Data</text><text x="5.01" y="1.67" class="c">cleaning</text><text x="14.027999999999999" y="1.67" class="d">■■■■■■■■</text><text x="48.096" y="1.67" class="c">23%</text><text x="52.104" y="1.67" class="c">|</text><text x="54.108" y="1.67" class="c">ETA:</text><text x="60.11999999999999" y="1.67" class="c">3s</text></svg><svg x="840"><use xlink:href="#a"></use><text x="0" y="1.67" class="c">Data</text><text x="5.01" y="1.67" class="c">cleaning</text><text x="14.027999999999999" y="1.67" class="d">■■■■■■■■■</text><text x="48.096" y="1.67" class="c">25%</text><text x="52.104" y="1.67" class="c">|</text><text x="54.108" y="1.67" class="c">ETA:</text><text x="60.11999999999999" y="1.67" class="c">3s</text></svg><svg x="910"><use xlink:href="#a"></use><text x="0" y="1.67" class="c">Data</text><text x="5.01" y="1.67" class="c">cleaning</text><text x="14.027999999999999" y="1.67" class="d">■■■■■■■■■</text><text x="48.096" y="1.67" class="c">28%</text><text x="52.104" y="1.67" class="c">|</text><text x="54.108" y="1.67" class="c">ETA:</text><text x="60.11999999999999" y="1.67" class="c">3s</text></svg><svg x="980"><use xlink:href="#a"></use><text x="0" y="1.67" class="c">Data</text><text x="5.01" y="1.67" class="c">cleaning</text><text x="14.027999999999999" y="1.67" class="d">■■■■■■■■■■</text><text x="48.096" y="1.67" class="c">31%</text><text x="52.104" y="1.67" class="c">|</text><text x="54.108" y="1.67" class="c">ETA:</text><text x="60.11999999999999" y="1.67" class="c">2s</text></svg><svg x="1050"><use xlink:href="#a"></use><text x="0" y="1.67" class="c">Data</text><text x="5.01" y="1.67" class="c">cleaning</text><text x="14.027999999999999" y="1.67" class="d">■■■■■■■■■■■</text><text x="48.096" y="1.67" class="c">34%</text><text x="52.104" y="1.67" class="c">|</text><text x="54.108" y="1.67" class="c">ETA:</text><text x="60.11999999999999" y="1.67" class="c">2s</text></svg><svg x="1120"><use xlink:href="#a"></use><text x="0" y="1.67" class="c">Data</text><text x="5.01" y="1.67" class="c">cleaning</text><text x="14.027999999999999" y="1.67" class="d">■■■■■■■■■■■■</text><text x="48.096" y="1.67" class="c">37%</text><text x="52.104" y="1.67" class="c">|</text><text x="54.108" y="1.67" class="c">ETA:</text><text x="60.11999999999999" y="1.67" class="c">2s</text></svg><svg x="1190"><use xlink:href="#a"></use><text x="0" y="1.67" class="c">Data</text><text x="5.01" y="1.67" class="c">cleaning</text><text x="14.027999999999999" y="1.67" class="d">■■■■■■■■■■■■■</text><text x="48.096" y="1.67" class="c">39%</text><text x="52.104" y="1.67" class="c">|</text><text x="54.108" y="1.67" class="c">ETA:</text><text x="60.11999999999999" y="1.67" class="c">2s</text></svg><svg x="1260"><use xlink:href="#a"></use><text x="0" y="1.67" class="c">Data</text><text x="5.01" y="1.67" class="c">cleaning</text><text x="14.027999999999999" y="1.67" class="d">■■■■■■■■■■■■■■</text><text x="48.096" y="1.67" class="c">42%</text><text x="52.104" y="1.67" class="c">|</text><text x="54.108" y="1.67" class="c">ETA:</text><text x="60.11999999999999" y="1.67" class="c">2s</text></svg><svg x="1330"><use xlink:href="#a"></use><text x="0" y="1.67" class="c">Data</text><text x="5.01" y="1.67" class="c">cleaning</text><text x="14.027999999999999" y="1.67" class="d">■■■■■■■■■■■■■■■</text><text x="48.096" y="1.67" class="c">45%</text><text x="52.104" y="1.67" class="c">|</text><text x="54.108" y="1.67" class="c">ETA:</text><text x="60.11999999999999" y="1.67" class="c">2s</text></svg><svg x="1400"><use xlink:href="#a"></use><text x="0" y="1.67" class="c">Data</text><text x="5.01" y="1.67" class="c">cleaning</text><text x="14.027999999999999" y="1.67" class="d">■■■■■■■■■■■■■■■</text><text x="48.096" y="1.67" class="c">48%</text><text x="52.104" y="1.67" class="c">|</text><text x="54.108" y="1.67" class="c">ETA:</text><text x="60.11999999999999" y="1.67" class="c">2s</text></svg><svg x="1470"><use xlink:href="#a"></use><text x="0" y="1.67" class="c">Data</text><text x="5.01" y="1.67" class="c">cleaning</text><text x="14.027999999999999" y="1.67" class="d">■■■■■■■■■■■■■■■■</text><text x="48.096" y="1.67" class="c">50%</text><text x="52.104" y="1.67" class="c">|</text><text x="54.108" y="1.67" class="c">ETA:</text><text x="60.11999999999999" y="1.67" class="c">2s</text></svg><svg x="1540"><use xlink:href="#a"></use><text x="0" y="1.67" class="c">Data</text><text x="5.01" y="1.67" class="c">cleaning</text><text x="14.027999999999999" y="1.67" class="d">■■■■■■■■■■■■■■■■■</text><text x="48.096" y="1.67" class="c">53%</text><text x="52.104" y="1.67" class="c">|</text><text x="54.108" y="1.67" class="c">ETA:</text><text x="60.11999999999999" y="1.67" class="c">2s</text></svg><svg x="1610"><use xlink:href="#a"></use><text x="0" y="1.67" class="c">Data</text><text x="5.01" y="1.67" class="c">cleaning</text><text x="14.027999999999999" y="1.67" class="d">■■■■■■■■■■■■■■■■■■</text><text x="48.096" y="1.67" class="c">56%</text><text x="52.104" y="1.67" class="c">|</text><text x="54.108" y="1.67" class="c">ETA:</text><text x="60.11999999999999" y="1.67" class="c">2s</text></svg><svg x="1680"><use xlink:href="#a"></use><text x="0" y="1.67" class="c">Data</text><text x="5.01" y="1.67" class="c">cleaning</text><text x="14.027999999999999" y="1.67" class="d">■■■■■■■■■■■■■■■■■■■</text><text x="48.096" y="1.67" class="c">59%</text><text x="52.104" y="1.67" class="c">|</text><text x="54.108" y="1.67" class="c">ETA:</text><text x="60.11999999999999" y="1.67" class="c">1s</text></svg><svg x="1750"><use xlink:href="#a"></use><text x="0" y="1.67" class="c">Data</text><text x="5.01" y="1.67" class="c">cleaning</text><text x="14.027999999999999" y="1.67" class="d">■■■■■■■■■■■■■■■■■■■■</text><text x="48.096" y="1.67" class="c">62%</text><text x="52.104" y="1.67" class="c">|</text><text x="54.108" y="1.67" class="c">ETA:</text><text x="60.11999999999999" y="1.67" class="c">1s</text></svg><svg x="1820"><use xlink:href="#a"></use><text x="0" y="1.67" class="c">Data</text><text x="5.01" y="1.67" class="c">cleaning</text><text x="14.027999999999999" y="1.67" class="d">■■■■■■■■■■■■■■■■■■■■</text><text x="48.096" y="1.67" class="c">64%</text><text x="52.104" y="1.67" class="c">|</text><text x="54.108" y="1.67" class="c">ETA:</text><text x="60.11999999999999" y="1.67" class="c">1s</text></svg><svg x="1890"><use xlink:href="#a"></use><text x="0" y="1.67" class="c">Data</text><text x="5.01" y="1.67" class="c">cleaning</text><text x="14.027999999999999" y="1.67" class="d">■■■■■■■■■■■■■■■■■■■■■</text><text x="48.096" y="1.67" class="c">67%</text><text x="52.104" y="1.67" class="c">|</text><text x="54.108" y="1.67" class="c">ETA:</text><text x="60.11999999999999" y="1.67" class="c">1s</text></svg><svg x="1960"><use xlink:href="#a"></use><text x="0" y="1.67" class="c">Data</text><text x="5.01" y="1.67" class="c">cleaning</text><text x="14.027999999999999" y="1.67" class="d">■■■■■■■■■■■■■■■■■■■■■■</text><text x="48.096" y="1.67" class="c">70%</text><text x="52.104" y="1.67" class="c">|</text><text x="54.108" y="1.67" class="c">ETA:</text><text x="60.11999999999999" y="1.67" class="c">1s</text></svg><svg x="2030"><use xlink:href="#a"></use><text x="0" y="1.67" class="c">Data</text><text x="5.01" y="1.67" class="c">cleaning</text><text x="14.027999999999999" y="1.67" class="d">■■■■■■■■■■■■■■■■■■■■■■■</text><text x="48.096" y="1.67" class="c">73%</text><text x="52.104" y="1.67" class="c">|</text><text x="54.108" y="1.67" class="c">ETA:</text><text x="60.11999999999999" y="1.67" class="c">1s</text></svg><svg x="2100"><use xlink:href="#a"></use><text x="0" y="1.67" class="c">Data</text><text x="5.01" y="1.67" class="c">cleaning</text><text x="14.027999999999999" y="1.67" class="d">■■■■■■■■■■■■■■■■■■■■■■■■</text><text x="48.096" y="1.67" class="c">76%</text><text x="52.104" y="1.67" class="c">|</text><text x="54.108" y="1.67" class="c">ETA:</text><text x="60.11999999999999" y="1.67" class="c">1s</text></svg><svg x="2170"><use xlink:href="#a"></use><text x="0" y="1.67" class="c">Data</text><text x="5.01" y="1.67" class="c">cleaning</text><text x="14.027999999999999" y="1.67" class="d">■■■■■■■■■■■■■■■■■■■■■■■■■</text><text x="48.096" y="1.67" class="c">79%</text><text x="52.104" y="1.67" class="c">|</text><text x="54.108" y="1.67" class="c">ETA:</text><text x="60.11999999999999" y="1.67" class="c">1s</text></svg><svg x="2240"><use xlink:href="#a"></use><text x="0" y="1.67" class="c">Data</text><text x="5.01" y="1.67" class="c">cleaning</text><text x="14.027999999999999" y="1.67" class="d">■■■■■■■■■■■■■■■■■■■■■■■■■■</text><text x="48.096" y="1.67" class="c">82%</text><text x="52.104" y="1.67" class="c">|</text><text x="54.108" y="1.67" class="c">ETA:</text><text x="60.11999999999999" y="1.67" class="c">1s</text></svg><svg x="2310"><use xlink:href="#a"></use><text x="0" y="1.67" class="c">Data</text><text x="5.01" y="1.67" class="c">cleaning</text><text x="14.027999999999999" y="1.67" class="d">■■■■■■■■■■■■■■■■■■■■■■■■■■</text><text x="48.096" y="1.67" class="c">84%</text><text x="52.104" y="1.67" class="c">|</text><text x="54.108" y="1.67" class="c">ETA:</text><text x="60.11999999999999" y="1.67" class="c">1s</text></svg><svg x="2380"><use xlink:href="#a"></use><text x="0" y="1.67" class="c">Data</text><text x="5.01" y="1.67" class="c">cleaning</text><text x="14.027999999999999" y="1.67" class="d">■■■■■■■■■■■■■■■■■■■■■■■■■■■</text><text x="48.096" y="1.67" class="c">87%</text><text x="52.104" y="1.67" class="c">|</text><text x="54.108" y="1.67" class="c">ETA:</text><text x="60.11999999999999" y="1.67" class="c">0s</text></svg><svg x="2450"><use xlink:href="#a"></use><text x="0" y="1.67" class="c">Data</text><text x="5.01" y="1.67" class="c">cleaning</text><text x="14.027999999999999" y="1.67" class="d">■■■■■■■■■■■■■■■■■■■■■■■■■■■■</text><text x="48.096" y="1.67" class="c">90%</text><text x="52.104" y="1.67" class="c">|</text><text x="54.108" y="1.67" class="c">ETA:</text><text x="60.11999999999999" y="1.67" class="c">0s</text></svg><svg x="2520"><use xlink:href="#a"></use><text x="0" y="1.67" class="c">Data</text><text x="5.01" y="1.67" class="c">cleaning</text><text x="14.027999999999999" y="1.67" class="d">■■■■■■■■■■■■■■■■■■■■■■■■■■■■■</text><text x="48.096" y="1.67" class="c">93%</text><text x="52.104" y="1.67" class="c">|</text><text x="54.108" y="1.67" class="c">ETA:</text><text x="60.11999999999999" y="1.67" class="c">0s</text></svg><svg x="2590"><use xlink:href="#a"></use><text x="0" y="1.67" class="c">Data</text><text x="5.01" y="1.67" class="c">cleaning</text><text x="14.027999999999999" y="1.67" class="d">■■■■■■■■■■■■■■■■■■■■■■■■■■■■■■</text><text x="48.096" y="1.67" class="c">96%</text><text x="52.104" y="1.67" class="c">|</text><text x="54.108" y="1.67" class="c">ETA:</text><text x="60.11999999999999" y="1.67" class="c">0s</text></svg><svg x="2660"><use xlink:href="#a"></use><text x="0" y="1.67" class="c">Data</text><text x="5.01" y="1.67" class="c">cleaning</text><text x="14.027999999999999" y="1.67" class="d">■■■■■■■■■■■■■■■■■■■■■■■■■■■■■■■</text><text x="48.096" y="1.67" class="c">99%</text><text x="52.104" y="1.67" class="c">|</text><text x="54.108" y="1.67" class="c">ETA:</text><text x="60.11999999999999" y="1.67" class="c">0s</text></svg><svg x="2730"><use xlink:href="#a"></use></svg><svg x="2800"><use xlink:href="#a"></use></svg><svg x="2870"><use xlink:href="#a"></use><text x="0" y="1.67" class="c">Parameter</text><text x="10.02" y="1.67" class="c">tuning</text><text x="17.034" y="1.67" class="d">■</text><text x="52.104" y="1.67" class="c">1%</text><text x="55.10999999999999" y="1.67" class="c">|</text><text x="57.114" y="1.67" class="c">ETA:</text><text x="63.12599999999999" y="1.67" class="c">4s</text></svg><svg x="2940"><use xlink:href="#a"></use><text x="0" y="1.67" class="c">Parameter</text><text x="10.02" y="1.67" class="c">tuning</text><text x="17.034" y="1.67" class="d">■■</text><text x="52.104" y="1.67" class="c">4%</text><text x="55.10999999999999" y="1.67" class="c">|</text><text x="57.114" y="1.67" class="c">ETA:</text><text x="63.12599999999999" y="1.67" class="c">4s</text></svg><svg x="3010"><use xlink:href="#a"></use><text x="0" y="1.67" class="c">Parameter</text><text x="10.02" y="1.67" class="c">tuning</text><text x="17.034" y="1.67" class="d">■■■</text><text x="52.104" y="1.67" class="c">7%</text><text x="55.10999999999999" y="1.67" class="c">|</text><text x="57.114" y="1.67" class="c">ETA:</text><text x="63.12599999999999" y="1.67" class="c">3s</text></svg><svg x="3080"><use xlink:href="#a"></use><text x="0" y="1.67" class="c">Parameter</text><text x="10.02" y="1.67" class="c">tuning</text><text x="17.034" y="1.67" class="d">■■■■</text><text x="51.102" y="1.67" class="c">10%</text><text x="55.10999999999999" y="1.67" class="c">|</text><text x="57.114" y="1.67" class="c">ETA:</text><text x="63.12599999999999" y="1.67" class="c">3s</text></svg><svg x="3150"><use xlink:href="#a"></use><text x="0" y="1.67" class="c">Parameter</text><text x="10.02" y="1.67" class="c">tuning</text><text x="17.034" y="1.67" class="d">■■■■■</text><text x="51.102" y="1.67" class="c">12%</text><text x="55.10999999999999" y="1.67" class="c">|</text><text x="57.114" y="1.67" class="c">ETA:</text><text x="63.12599999999999" y="1.67" class="c">3s</text></svg><svg x="3220"><use xlink:href="#a"></use><text x="0" y="1.67" class="c">Parameter</text><text x="10.02" y="1.67" class="c">tuning</text><text x="17.034" y="1.67" class="d">■■■■■</text><text x="51.102" y="1.67" class="c">15%</text><text x="55.10999999999999" y="1.67" class="c">|</text><text x="57.114" y="1.67" class="c">ETA:</text><text x="63.12599999999999" y="1.67" class="c">3s</text></svg><svg x="3290"><use xlink:href="#a"></use><text x="0" y="1.67" class="c">Parameter</text><text x="10.02" y="1.67" class="c">tuning</text><text x="17.034" y="1.67" class="d">■■■■■■</text><text x="51.102" y="1.67" class="c">18%</text><text x="55.10999999999999" y="1.67" class="c">|</text><text x="57.114" y="1.67" class="c">ETA:</text><text x="63.12599999999999" y="1.67" class="c">3s</text></svg><svg x="3360"><use xlink:href="#a"></use><text x="0" y="1.67" class="c">Parameter</text><text x="10.02" y="1.67" class="c">tuning</text><text x="17.034" y="1.67" class="d">■■■■■■■</text><text x="51.102" y="1.67" class="c">21%</text><text x="55.10999999999999" y="1.67" class="c">|</text><text x="57.114" y="1.67" class="c">ETA:</text><text x="63.12599999999999" y="1.67" class="c">3s</text></svg><svg x="3430"><use xlink:href="#a"></use><text x="0" y="1.67" class="c">Parameter</text><text x="10.02" y="1.67" class="c">tuning</text><text x="17.034" y="1.67" class="d">■■■■■■■■</text><text x="51.102" y="1.67" class="c">24%</text><text x="55.10999999999999" y="1.67" class="c">|</text><text x="57.114" y="1.67" class="c">ETA:</text><text x="63.12599999999999" y="1.67" class="c">3s</text></svg><svg x="3500"><use xlink:href="#a"></use><text x="0" y="1.67" class="c">Parameter</text><text x="10.02" y="1.67" class="c">tuning</text><text x="17.034" y="1.67" class="d">■■■■■■■■■</text><text x="51.102" y="1.67" class="c">27%</text><text x="55.10999999999999" y="1.67" class="c">|</text><text x="57.114" y="1.67" class="c">ETA:</text><text x="63.12599999999999" y="1.67" class="c">3s</text></svg><svg x="3570"><use xlink:href="#a"></use><text x="0" y="1.67" class="c">Parameter</text><text x="10.02" y="1.67" class="c">tuning</text><text x="17.034" y="1.67" class="d">■■■■■■■■■■</text><text x="51.102" y="1.67" class="c">29%</text><text x="55.10999999999999" y="1.67" class="c">|</text><text x="57.114" y="1.67" class="c">ETA:</text><text x="63.12599999999999" y="1.67" class="c">3s</text></svg><svg x="3640"><use xlink:href="#a"></use><text x="0" y="1.67" class="c">Parameter</text><text x="10.02" y="1.67" class="c">tuning</text><text x="17.034" y="1.67" class="d">■■■■■■■■■■■</text><text x="51.102" y="1.67" class="c">32%</text><text x="55.10999999999999" y="1.67" class="c">|</text><text x="57.114" y="1.67" class="c">ETA:</text><text x="63.12599999999999" y="1.67" class="c">2s</text></svg><svg x="3710"><use xlink:href="#a"></use><text x="0" y="1.67" class="c">Parameter</text><text x="10.02" y="1.67" class="c">tuning</text><text x="17.034" y="1.67" class="d">■■■■■■■■■■■</text><text x="51.102" y="1.67" class="c">35%</text><text x="55.10999999999999" y="1.67" class="c">|</text><text x="57.114" y="1.67" class="c">ETA:</text><text x="63.12599999999999" y="1.67" class="c">2s</text></svg><svg x="3780"><use xlink:href="#a"></use><text x="0" y="1.67" class="c">Parameter</text><text x="10.02" y="1.67" class="c">tuning</text><text x="17.034" y="1.67" class="d">■■■■■■■■■■■■</text><text x="51.102" y="1.67" class="c">38%</text><text x="55.10999999999999" y="1.67" class="c">|</text><text x="57.114" y="1.67" class="c">ETA:</text><text x="63.12599999999999" y="1.67" class="c">2s</text></svg><svg x="3850"><use xlink:href="#a"></use><text x="0" y="1.67" class="c">Parameter</text><text x="10.02" y="1.67" class="c">tuning</text><text x="17.034" y="1.67" class="d">■■■■■■■■■■■■■</text><text x="51.102" y="1.67" class="c">41%</text><text x="55.10999999999999" y="1.67" class="c">|</text><text x="57.114" y="1.67" class="c">ETA:</text><text x="63.12599999999999" y="1.67" class="c">2s</text></svg><svg x="3920"><use xlink:href="#a"></use><text x="0" y="1.67" class="c">Parameter</text><text x="10.02" y="1.67" class="c">tuning</text><text x="17.034" y="1.67" class="d">■■■■■■■■■■■■■■</text><text x="51.102" y="1.67" class="c">43%</text><text x="55.10999999999999" y="1.67" class="c">|</text><text x="57.114" y="1.67" class="c">ETA:</text><text x="63.12599999999999" y="1.67" class="c">2s</text></svg><svg x="3990"><use xlink:href="#a"></use><text x="0" y="1.67" class="c">Parameter</text><text x="10.02" y="1.67" class="c">tuning</text><text x="17.034" y="1.67" class="d">■■■■■■■■■■■■■■■</text><text x="51.102" y="1.67" class="c">46%</text><text x="55.10999999999999" y="1.67" class="c">|</text><text x="57.114" y="1.67" class="c">ETA:</text><text x="63.12599999999999" y="1.67" class="c">2s</text></svg><svg x="4060"><use xlink:href="#a"></use><text x="0" y="1.67" class="c">Parameter</text><text x="10.02" y="1.67" class="c">tuning</text><text x="17.034" y="1.67" class="d">■■■■■■■■■■■■■■■■</text><text x="51.102" y="1.67" class="c">49%</text><text x="55.10999999999999" y="1.67" class="c">|</text><text x="57.114" y="1.67" class="c">ETA:</text><text x="63.12599999999999" y="1.67" class="c">2s</text></svg><svg x="4130"><use xlink:href="#a"></use><text x="0" y="1.67" class="c">Parameter</text><text x="10.02" y="1.67" class="c">tuning</text><text x="17.034" y="1.67" class="d">■■■■■■■■■■■■■■■■■</text><text x="51.102" y="1.67" class="c">52%</text><text x="55.10999999999999" y="1.67" class="c">|</text><text x="57.114" y="1.67" class="c">ETA:</text><text x="63.12599999999999" y="1.67" class="c">2s</text></svg><svg x="4200"><use xlink:href="#a"></use><text x="0" y="1.67" class="c">Parameter</text><text x="10.02" y="1.67" class="c">tuning</text><text x="17.034" y="1.67" class="d">■■■■■■■■■■■■■■■■■</text><text x="51.102" y="1.67" class="c">55%</text><text x="55.10999999999999" y="1.67" class="c">|</text><text x="57.114" y="1.67" class="c">ETA:</text><text x="63.12599999999999" y="1.67" class="c">2s</text></svg><svg x="4270"><use xlink:href="#a"></use><text x="0" y="1.67" class="c">Parameter</text><text x="10.02" y="1.67" class="c">tuning</text><text x="17.034" y="1.67" class="d">■■■■■■■■■■■■■■■■■■</text><text x="51.102" y="1.67" class="c">58%</text><text x="55.10999999999999" y="1.67" class="c">|</text><text x="57.114" y="1.67" class="c">ETA:</text><text x="63.12599999999999" y="1.67" class="c">2s</text></svg><svg x="4340"><use xlink:href="#a"></use><text x="0" y="1.67" class="c">Parameter</text><text x="10.02" y="1.67" class="c">tuning</text><text x="17.034" y="1.67" class="d">■■■■■■■■■■■■■■■■■■■</text><text x="51.102" y="1.67" class="c">60%</text><text x="55.10999999999999" y="1.67" class="c">|</text><text x="57.114" y="1.67" class="c">ETA:</text><text x="63.12599999999999" y="1.67" class="c">1s</text></svg><svg x="4410"><use xlink:href="#a"></use><text x="0" y="1.67" class="c">Parameter</text><text x="10.02" y="1.67" class="c">tuning</text><text x="17.034" y="1.67" class="d">■■■■■■■■■■■■■■■■■■■■</text><text x="51.102" y="1.67" class="c">63%</text><text x="55.10999999999999" y="1.67" class="c">|</text><text x="57.114" y="1.67" class="c">ETA:</text><text x="63.12599999999999" y="1.67" class="c">1s</text></svg><svg x="4480"><use xlink:href="#a"></use><text x="0" y="1.67" class="c">Parameter</text><text x="10.02" y="1.67" class="c">tuning</text><text x="17.034" y="1.67" class="d">■■■■■■■■■■■■■■■■■■■■■</text><text x="51.102" y="1.67" class="c">66%</text><text x="55.10999999999999" y="1.67" class="c">|</text><text x="57.114" y="1.67" class="c">ETA:</text><text x="63.12599999999999" y="1.67" class="c">1s</text></svg><svg x="4550"><use xlink:href="#a"></use><text x="0" y="1.67" class="c">Parameter</text><text x="10.02" y="1.67" class="c">tuning</text><text x="17.034" y="1.67" class="d">■■■■■■■■■■■■■■■■■■■■■■</text><text x="51.102" y="1.67" class="c">69%</text><text x="55.10999999999999" y="1.67" class="c">|</text><text x="57.114" y="1.67" class="c">ETA:</text><text x="63.12599999999999" y="1.67" class="c">1s</text></svg><svg x="4620"><use xlink:href="#a"></use><text x="0" y="1.67" class="c">Parameter</text><text x="10.02" y="1.67" class="c">tuning</text><text x="17.034" y="1.67" class="d">■■■■■■■■■■■■■■■■■■■■■■■</text><text x="51.102" y="1.67" class="c">72%</text><text x="55.10999999999999" y="1.67" class="c">|</text><text x="57.114" y="1.67" class="c">ETA:</text><text x="63.12599999999999" y="1.67" class="c">1s</text></svg><svg x="4690"><use xlink:href="#a"></use><text x="0" y="1.67" class="c">Parameter</text><text x="10.02" y="1.67" class="c">tuning</text><text x="17.034" y="1.67" class="d">■■■■■■■■■■■■■■■■■■■■■■■</text><text x="51.102" y="1.67" class="c">75%</text><text x="55.10999999999999" y="1.67" class="c">|</text><text x="57.114" y="1.67" class="c">ETA:</text><text x="63.12599999999999" y="1.67" class="c">1s</text></svg><svg x="4760"><use xlink:href="#a"></use><text x="0" y="1.67" class="c">Parameter</text><text x="10.02" y="1.67" class="c">tuning</text><text x="17.034" y="1.67" class="d">■■■■■■■■■■■■■■■■■■■■■■■■</text><text x="51.102" y="1.67" class="c">78%</text><text x="55.10999999999999" y="1.67" class="c">|</text><text x="57.114" y="1.67" class="c">ETA:</text><text x="63.12599999999999" y="1.67" class="c">1s</text></svg><svg x="4830"><use xlink:href="#a"></use><text x="0" y="1.67" class="c">Parameter</text><text x="10.02" y="1.67" class="c">tuning</text><text x="17.034" y="1.67" class="d">■■■■■■■■■■■■■■■■■■■■■■■■■</text><text x="51.102" y="1.67" class="c">81%</text><text x="55.10999999999999" y="1.67" class="c">|</text><text x="57.114" y="1.67" class="c">ETA:</text><text x="63.12599999999999" y="1.67" class="c">1s</text></svg><svg x="4900"><use xlink:href="#a"></use><text x="0" y="1.67" class="c">Parameter</text><text x="10.02" y="1.67" class="c">tuning</text><text x="17.034" y="1.67" class="d">■■■■■■■■■■■■■■■■■■■■■■■■■■</text><text x="51.102" y="1.67" class="c">84%</text><text x="55.10999999999999" y="1.67" class="c">|</text><text x="57.114" y="1.67" class="c">ETA:</text><text x="63.12599999999999" y="1.67" class="c">1s</text></svg><svg x="4970"><use xlink:href="#a"></use><text x="0" y="1.67" class="c">Parameter</text><text x="10.02" y="1.67" class="c">tuning</text><text x="17.034" y="1.67" class="d">■■■■■■■■■■■■■■■■■■■■■■■■■■■</text><text x="51.102" y="1.67" class="c">86%</text><text x="55.10999999999999" y="1.67" class="c">|</text><text x="57.114" y="1.67" class="c">ETA:</text><text x="63.12599999999999" y="1.67" class="c">1s</text></svg><svg x="5040"><use xlink:href="#a"></use><text x="0" y="1.67" class="c">Parameter</text><text x="10.02" y="1.67" class="c">tuning</text><text x="17.034" y="1.67" class="d">■■■■■■■■■■■■■■■■■■■■■■■■■■■■</text><text x="51.102" y="1.67" class="c">89%</text><text x="55.10999999999999" y="1.67" class="c">|</text><text x="57.114" y="1.67" class="c">ETA:</text><text x="63.12599999999999" y="1.67" class="c">0s</text></svg><svg x="5110"><use xlink:href="#a"></use><text x="0" y="1.67" class="c">Parameter</text><text x="10.02" y="1.67" class="c">tuning</text><text x="17.034" y="1.67" class="d">■■■■■■■■■■■■■■■■■■■■■■■■■■■■■</text><text x="51.102" y="1.67" class="c">92%</text><text x="55.10999999999999" y="1.67" class="c">|</text><text x="57.114" y="1.67" class="c">ETA:</text><text x="63.12599999999999" y="1.67" class="c">0s</text></svg><svg x="5180"><use xlink:href="#a"></use><text x="0" y="1.67" class="c">Parameter</text><text x="10.02" y="1.67" class="c">tuning</text><text x="17.034" y="1.67" class="d">■■■■■■■■■■■■■■■■■■■■■■■■■■■■■</text><text x="51.102" y="1.67" class="c">95%</text><text x="55.10999999999999" y="1.67" class="c">|</text><text x="57.114" y="1.67" class="c">ETA:</text><text x="63.12599999999999" y="1.67" class="c">0s</text></svg><svg x="5250"><use xlink:href="#a"></use><text x="0" y="1.67" class="c">Parameter</text><text x="10.02" y="1.67" class="c">tuning</text><text x="17.034" y="1.67" class="d">■■■■■■■■■■■■■■■■■■■■■■■■■■■■■■</text><text x="51.102" y="1.67" class="c">97%</text><text x="55.10999999999999" y="1.67" class="c">|</text><text x="57.114" y="1.67" class="c">ETA:</text><text x="63.12599999999999" y="1.67" class="c">0s</text></svg><svg x="5320"><use xlink:href="#a"></use><use xlink:href="#1" y="0"></use></svg><svg x="5390"><use xlink:href="#a"></use><use xlink:href="#1" y="0"></use></svg><svg x="5460"><use xlink:href="#a"></use><use xlink:href="#1" y="0"></use></svg></svg></g></g></svg></svg>