<svg xmlns="http://www.w3.org/2000/svg" xmlns:xlink="http://www.w3.org/1999/xlink" width="740" height="83.41999999999999"><rect width="740" height="83.41999999999999" rx="0" ry="0" class="a"></rect><svg height="43.419999999999995" viewBox="0 0 70 4.342" width="700" x="20" xmlns="http://www.w3.org/2000/svg" xmlns:xlink="http://www.w3.org/1999/xlink" y="20"><style>.a{fill:rgb(40,45,53)}.b{font-family:'Fira Code',Monaco,Consolas,Menlo,'Bitstream Vera Sans Mono','Powerline Symbols',monospace}.c{fill:rgb(185,192,203);white-space:pre}.d{fill:rgb(168,204,140);white-space:pre}.e{fill:transparent}.g{animation-duration:8.20586085319519s;animation-iteration-count:infinite;animation-name:f;animation-timing-function:steps(1,end)}@keyframes f{0%{transform:translateX(-0px)}0.1%{transform:translateX(-70px)}1.8%{transform:translateX(-140px)}1.9%{transform:translateX(-210px)}3.2%{transform:translateX(-280px)}4.3%{transform:translateX(-350px)}5.5%{transform:translateX(-420px)}7%{transform:translateX(-490px)}8.1%{transform:translateX(-560px)}9.2%{transform:translateX(-630px)}10.5%{transform:translateX(-700px)}11.7%{transform:translateX(-770px)}12.9%{transform:translateX(-840px)}14.4%{transform:translateX(-910px)}15.5%{transform:translateX(-980px)}16.8%{transform:translateX(-1050px)}18%{transform:translateX(-1120px)}19.2%{transform:translateX(-1190px)}20.4%{transform:translateX(-1260px)}21.7%{transform:translateX(-1330px)}23.2%{transform:translateX(-1400px)}24.4%{transform:translateX(-1470px)}25.7%{transform:translateX(-1540px)}26.9%{transform:translateX(-1610px)}28.1%{transform:translateX(-1680px)}29.2%{transform:translateX(-1750px)}30.5%{transform:translateX(-1820px)}31.7%{transform:translateX(-1890px)}32.1%{transform:translateX(-1960px)}33%{transform:translateX(-2030px)}33.1%{transform:translateX(-2100px)}34.3%{transform:translateX(-2170px)}35.5%{transform:translateX(-2240px)}36.7%{transform:translateX(-2310px)}38%{transform:translateX(-2380px)}39.3%{transform:translateX(-2450px)}40.4%{transform:translateX(-2520px)}41.6%{transform:translateX(-2590px)}42.8%{transform:translateX(-2660px)}44.3%{transform:translateX(-2730px)}45.5%{transform:translateX(-2800px)}46.6%{transform:translateX(-2870px)}47.8%{transform:translateX(-2940px)}49%{transform:translateX(-3010px)}50.3%{transform:translateX(-3080px)}51.6%{transform:translateX(-3150px)}52.9%{transform:translateX(-3220px)}54.1%{transform:translateX(-3290px)}55.2%{transform:translateX(-3360px)}56.4%{transform:translateX(-3430px)}57.9%{transform:translateX(-3500px)}59.1%{transform:translateX(-3570px)}60.3%{transform:translateX(-3640px)}61.5%{transform:translateX(-3710px)}62.2%{transform:translateX(-3780px)}62.2%{transform:translateX(-3850px)}100%{transform:translateX(-3920px)}}</style><g font-family="&#x27;Fira Code&#x27;,Monaco,Consolas,Menlo,&#x27;Bitstream Vera Sans Mono&#x27;,&#x27;Powerline Symbols&#x27;,monospace" font-size="1.67" class="b"><defs><symbol id="1"><text x="0" y="1.67" class="c">First</text><text x="6.012" y="1.67" class="c">step</text><text x="12.024" y="1.67" class="d">■■■■■■■■■■■■■■■■■■■■■■■■■■■■■■■</text><text x="45.089999999999996" y="1.67" class="c">100%</text><text x="50.1" y="1.67" class="c">|</text><text x="52.104" y="1.67" class="c">ETA:</text><text x="58.116" y="1.67" class="c">0s</text></symbol><symbol id="2"><text x="0" y="1.67" class="c">Second</text><text x="7.013999999999999" y="1.67" class="c">step</text><text x="12.024" y="1.67" class="d">■■■■■■■■■■■■■■■■■■■■■■■■■■■■■■■</text><text x="45.089999999999996" y="1.67" class="c">100%</text><text x="50.1" y="1.67" class="c">|</text><text x="52.104" y="1.67" class="c">ETA:</text><text x="58.116" y="1.67" class="c">0s</text></symbol><symbol id="a"><rect height="3" width="70" x="0" y="0" class="e"></rect></symbol></defs><rect height="4.342" width="70" class="a"></rect><g class="g"><svg x="0" y="0" width="3990"><svg x="0"><use xlink:href="#a"></use></svg><svg x="70"><use xlink:href="#a"></use></svg><svg x="140"><use xlink:href="#a"></use></svg><svg x="210"><use xlink:href="#a"></use><text x="0" y="1.67" class="c">First</text><text x="6.012" y="1.67" class="c">step</text><text x="12.024" y="1.67" class="d">■</text><text x="47.093999999999994" y="1.67" class="c">1%</text><text x="50.1" y="1.67" class="c">|</text><text x="52.104" y="1.67" class="c">ETA:</text><text x="58.116" y="1.67" class="c">2s</text></svg><svg x="280"><use xlink:href="#a"></use><text x="0" y="1.67" class="c">First</text><text x="6.012" y="1.67" class="c">step</text><text x="12.024" y="1.67" class="d">■■■</text><text x="47.093999999999994" y="1.67" class="c">5%</text><text x="50.1" y="1.67" class="c">|</text><text x="52.104" y="1.67" class="c">ETA:</text><text x="58.116" y="1.67" class="c">2s</text></svg><svg x="350"><use xlink:href="#a"></use><text x="0" y="1.67" class="c">First</text><text x="6.012" y="1.67" class="c">step</text><text x="12.024" y="1.67" class="d">■■■■</text><text x="47.093999999999994" y="1.67" class="c">9%</text><text x="50.1" y="1.67" class="c">|</text><text x="52.104" y="1.67" class="c">ETA:</text><text x="58.116" y="1.67" class="c">2s</text></svg><svg x="420"><use xlink:href="#a"></use><text x="0" y="1.67" class="c">First</text><text x="6.012" y="1.67" class="c">step</text><text x="12.024" y="1.67" class="d">■■■■■</text><text x="46.09199999999999" y="1.67" class="c">13%</text><text x="50.1" y="1.67" class="c">|</text><text x="52.104" y="1.67" class="c">ETA:</text><text x="58.116" y="1.67" class="c">2s</text></svg><svg x="490"><use xlink:href="#a"></use><text x="0" y="1.67" class="c">First</text><text x="6.012" y="1.67" class="c">step</text><text x="12.024" y="1.67" class="d">■■■■■■</text><text x="46.09199999999999" y="1.67" class="c">18%</text><text x="50.1" y="1.67" class="c">|</text><text x="52.104" y="1.67" class="c">ETA:</text><text x="58.116" y="1.67" class="c">2s</text></svg><svg x="560"><use xlink:href="#a"></use><text x="0" y="1.67" class="c">First</text><text x="6.012" y="1.67" class="c">step</text><text x="12.024" y="1.67" class="d">■■■■■■■</text><text x="46.09199999999999" y="1.67" class="c">21%</text><text x="50.1" y="1.67" class="c">|</text><text x="52.104" y="1.67" class="c">ETA:</text><text x="58.116" y="1.67" class="c">2s</text></svg><svg x="630"><use xlink:href="#a"></use><text x="0" y="1.67" class="c">First</text><text x="6.012" y="1.67" class="c">step</text><text x="12.024" y="1.67" class="d">■■■■■■■■■</text><text x="46.09199999999999" y="1.67" class="c">25%</text><text x="50.1" y="1.67" class="c">|</text><text x="52.104" y="1.67" class="c">ETA:</text><text x="58.116" y="1.67" class="c">2s</text></svg><svg x="700"><use xlink:href="#a"></use><text x="0" y="1.67" class="c">First</text><text x="6.012" y="1.67" class="c">step</text><text x="12.024" y="1.67" class="d">■■■■■■■■■■</text><text x="46.09199999999999" y="1.67" class="c">29%</text><text x="50.1" y="1.67" class="c">|</text><text x="52.104" y="1.67" class="c">ETA:</text><text x="58.116" y="1.67" class="c">2s</text></svg><svg x="770"><use xlink:href="#a"></use><text x="0" y="1.67" class="c">First</text><text x="6.012" y="1.67" class="c">step</text><text x="12.024" y="1.67" class="d">■■■■■■■■■■■</text><text x="46.09199999999999" y="1.67" class="c">33%</text><text x="50.1" y="1.67" class="c">|</text><text x="52.104" y="1.67" class="c">ETA:</text><text x="58.116" y="1.67" class="c">2s</text></svg><svg x="840"><use xlink:href="#a"></use><text x="0" y="1.67" class="c">First</text><text x="6.012" y="1.67" class="c">step</text><text x="12.024" y="1.67" class="d">■■■■■■■■■■■■</text><text x="46.09199999999999" y="1.67" class="c">37%</text><text x="50.1" y="1.67" class="c">|</text><text x="52.104" y="1.67" class="c">ETA:</text><text x="58.116" y="1.67" class="c">2s</text></svg><svg x="910"><use xlink:href="#a"></use><text x="0" y="1.67" class="c">First</text><text x="6.012" y="1.67" class="c">step</text><text x="12.024" y="1.67" class="d">■■■■■■■■■■■■■■</text><text x="46.09199999999999" y="1.67" class="c">42%</text><text x="50.1" y="1.67" class="c">|</text><text x="52.104" y="1.67" class="c">ETA:</text><text x="58.116" y="1.67" class="c">1s</text></svg><svg x="980"><use xlink:href="#a"></use><text x="0" y="1.67" class="c">First</text><text x="6.012" y="1.67" class="c">step</text><text x="12.024" y="1.67" class="d">■■■■■■■■■■■■■■■</text><text x="46.09199999999999" y="1.67" class="c">46%</text><text x="50.1" y="1.67" class="c">|</text><text x="52.104" y="1.67" class="c">ETA:</text><text x="58.116" y="1.67" class="c">1s</text></svg><svg x="1050"><use xlink:href="#a"></use><text x="0" y="1.67" class="c">First</text><text x="6.012" y="1.67" class="c">step</text><text x="12.024" y="1.67" class="d">■■■■■■■■■■■■■■■■</text><text x="46.09199999999999" y="1.67" class="c">50%</text><text x="50.1" y="1.67" class="c">|</text><text x="52.104" y="1.67" class="c">ETA:</text><text x="58.116" y="1.67" class="c">1s</text></svg><svg x="1120"><use xlink:href="#a"></use><text x="0" y="1.67" class="c">First</text><text x="6.012" y="1.67" class="c">step</text><text x="12.024" y="1.67" class="d">■■■■■■■■■■■■■■■■■</text><text x="46.09199999999999" y="1.67" class="c">54%</text><text x="50.1" y="1.67" class="c">|</text><text x="52.104" y="1.67" class="c">ETA:</text><text x="58.116" y="1.67" class="c">1s</text></svg><svg x="1190"><use xlink:href="#a"></use><text x="0" y="1.67" class="c">First</text><text x="6.012" y="1.67" class="c">step</text><text x="12.024" y="1.67" class="d">■■■■■■■■■■■■■■■■■■</text><text x="46.09199999999999" y="1.67" class="c">58%</text><text x="50.1" y="1.67" class="c">|</text><text x="52.104" y="1.67" class="c">ETA:</text><text x="58.116" y="1.67" class="c">1s</text></svg><svg x="1260"><use xlink:href="#a"></use><text x="0" y="1.67" class="c">First</text><text x="6.012" y="1.67" class="c">step</text><text x="12.024" y="1.67" class="d">■■■■■■■■■■■■■■■■■■■■</text><text x="46.09199999999999" y="1.67" class="c">62%</text><text x="50.1" y="1.67" class="c">|</text><text x="52.104" y="1.67" class="c">ETA:</text><text x="58.116" y="1.67" class="c">1s</text></svg><svg x="1330"><use xlink:href="#a"></use><text x="0" y="1.67" class="c">First</text><text x="6.012" y="1.67" class="c">step</text><text x="12.024" y="1.67" class="d">■■■■■■■■■■■■■■■■■■■■■</text><text x="46.09199999999999" y="1.67" class="c">66%</text><text x="50.1" y="1.67" class="c">|</text><text x="52.104" y="1.67" class="c">ETA:</text><text x="58.116" y="1.67" class="c">1s</text></svg><svg x="1400"><use xlink:href="#a"></use><text x="0" y="1.67" class="c">First</text><text x="6.012" y="1.67" class="c">step</text><text x="12.024" y="1.67" class="d">■■■■■■■■■■■■■■■■■■■■■■</text><text x="46.09199999999999" y="1.67" class="c">71%</text><text x="50.1" y="1.67" class="c">|</text><text x="52.104" y="1.67" class="c">ETA:</text><text x="58.116" y="1.67" class="c">1s</text></svg><svg x="1470"><use xlink:href="#a"></use><text x="0" y="1.67" class="c">First</text><text x="6.012" y="1.67" class="c">step</text><text x="12.024" y="1.67" class="d">■■■■■■■■■■■■■■■■■■■■■■■</text><text x="46.09199999999999" y="1.67" class="c">75%</text><text x="50.1" y="1.67" class="c">|</text><text x="52.104" y="1.67" class="c">ETA:</text><text x="58.116" y="1.67" class="c">1s</text></svg><svg x="1540"><use xlink:href="#a"></use><text x="0" y="1.67" class="c">First</text><text x="6.012" y="1.67" class="c">step</text><text x="12.024" y="1.67" class="d">■■■■■■■■■■■■■■■■■■■■■■■■■</text><text x="46.09199999999999" y="1.67" class="c">79%</text><text x="50.1" y="1.67" class="c">|</text><text x="52.104" y="1.67" class="c">ETA:</text><text x="58.116" y="1.67" class="c">1s</text></svg><svg x="1610"><use xlink:href="#a"></use><text x="0" y="1.67" class="c">First</text><text x="6.012" y="1.67" class="c">step</text><text x="12.024" y="1.67" class="d">■■■■■■■■■■■■■■■■■■■■■■■■■■</text><text x="46.09199999999999" y="1.67" class="c">83%</text><text x="50.1" y="1.67" class="c">|</text><text x="52.104" y="1.67" class="c">ETA:</text><text x="58.116" y="1.67" class="c">0s</text></svg><svg x="1680"><use xlink:href="#a"></use><text x="0" y="1.67" class="c">First</text><text x="6.012" y="1.67" class="c">step</text><text x="12.024" y="1.67" class="d">■■■■■■■■■■■■■■■■■■■■■■■■■■■</text><text x="46.09199999999999" y="1.67" class="c">87%</text><text x="50.1" y="1.67" class="c">|</text><text x="52.104" y="1.67" class="c">ETA:</text><text x="58.116" y="1.67" class="c">0s</text></svg><svg x="1750"><use xlink:href="#a"></use><text x="0" y="1.67" class="c">First</text><text x="6.012" y="1.67" class="c">step</text><text x="12.024" y="1.67" class="d">■■■■■■■■■■■■■■■■■■■■■■■■■■■■</text><text x="46.09199999999999" y="1.67" class="c">91%</text><text x="50.1" y="1.67" class="c">|</text><text x="52.104" y="1.67" class="c">ETA:</text><text x="58.116" y="1.67" class="c">0s</text></svg><svg x="1820"><use xlink:href="#a"></use><text x="0" y="1.67" class="c">First</text><text x="6.012" y="1.67" class="c">step</text><text x="12.024" y="1.67" class="d">■■■■■■■■■■■■■■■■■■■■■■■■■■■■■</text><text x="46.09199999999999" y="1.67" class="c">95%</text><text x="50.1" y="1.67" class="c">|</text><text x="52.104" y="1.67" class="c">ETA:</text><text x="58.116" y="1.67" class="c">0s</text></svg><svg x="1890"><use xlink:href="#a"></use><text x="0" y="1.67" class="c">First</text><text x="6.012" y="1.67" class="c">step</text><text x="12.024" y="1.67" class="d">■■■■■■■■■■■■■■■■■■■■■■■■■■■■■■■</text><text x="46.09199999999999" y="1.67" class="c">99%</text><text x="50.1" y="1.67" class="c">|</text><text x="52.104" y="1.67" class="c">ETA:</text><text x="58.116" y="1.67" class="c">0s</text></svg><svg x="1960"><use xlink:href="#a"></use><use xlink:href="#1" y="0"></use></svg><svg x="2030"><use xlink:href="#a"></use><use xlink:href="#1" y="0"></use></svg><svg x="2100"><use xlink:href="#a"></use><use xlink:href="#1" y="0"></use><text x="0" y="3.8409999999999997" class="c">Second</text><text x="7.013999999999999" y="3.8409999999999997" class="c">step</text><text x="12.024" y="3.8409999999999997" class="d">■■</text><text x="47.093999999999994" y="3.8409999999999997" class="c">3%</text><text x="50.1" y="3.8409999999999997" class="c">|</text><text x="52.104" y="3.8409999999999997" class="c">ETA:</text><text x="58.116" y="3.8409999999999997" class="c">2s</text></svg><svg x="2170"><use xlink:href="#a"></use><use xlink:href="#1" y="0"></use><text x="0" y="3.8409999999999997" class="c">Second</text><text x="7.013999999999999" y="3.8409999999999997" class="c">step</text><text x="12.024" y="3.8409999999999997" class="d">■■■</text><text x="47.093999999999994" y="3.8409999999999997" class="c">7%</text><text x="50.1" y="3.8409999999999997" class="c">|</text><text x="52.104" y="3.8409999999999997" class="c">ETA:</text><text x="58.116" y="3.8409999999999997" class="c">2s</text></svg><svg x="2240"><use xlink:href="#a"></use><use xlink:href="#1" y="0"></use><text x="0" y="3.8409999999999997" class="c">Second</text><text x="7.013999999999999" y="3.8409999999999997" class="c">step</text><text x="12.024" y="3.8409999999999997" class="d">■■■■</text><text x="46.09199999999999" y="3.8409999999999997" class="c">11%</text><text x="50.1" y="3.8409999999999997" class="c">|</text><text x="52.104" y="3.8409999999999997" class="c">ETA:</text><text x="58.116" y="3.8409999999999997" class="c">2s</text></svg><svg x="2310"><use xlink:href="#a"></use><use xlink:href="#1" y="0"></use><text x="0" y="3.8409999999999997" class="c">Second</text><text x="7.013999999999999" y="3.8409999999999997" class="c">step</text><text x="12.024" y="3.8409999999999997" class="d">■■■■■</text><text x="46.09199999999999" y="3.8409999999999997" class="c">15%</text><text x="50.1" y="3.8409999999999997" class="c">|</text><text x="52.104" y="3.8409999999999997" class="c">ETA:</text><text x="58.116" y="3.8409999999999997" class="c">2s</text></svg><svg x="2380"><use xlink:href="#a"></use><use xlink:href="#1" y="0"></use><text x="0" y="3.8409999999999997" class="c">Second</text><text x="7.013999999999999" y="3.8409999999999997" class="c">step</text><text x="12.024" y="3.8409999999999997" class="d">■■■■■■■</text><text x="46.09199999999999" y="3.8409999999999997" class="c">19%</text><text x="50.1" y="3.8409999999999997" class="c">|</text><text x="52.104" y="3.8409999999999997" class="c">ETA:</text><text x="58.116" y="3.8409999999999997" class="c">2s</text></svg><svg x="2450"><use xlink:href="#a"></use><use xlink:href="#1" y="0"></use><text x="0" y="3.8409999999999997" class="c">Second</text><text x="7.013999999999999" y="3.8409999999999997" class="c">step</text><text x="12.024" y="3.8409999999999997" class="d">■■■■■■■■</text><text x="46.09199999999999" y="3.8409999999999997" class="c">23%</text><text x="50.1" y="3.8409999999999997" class="c">|</text><text x="52.104" y="3.8409999999999997" class="c">ETA:</text><text x="58.116" y="3.8409999999999997" class="c">2s</text></svg><svg x="2520"><use xlink:href="#a"></use><use xlink:href="#1" y="0"></use><text x="0" y="3.8409999999999997" class="c">Second</text><text x="7.013999999999999" y="3.8409999999999997" class="c">step</text><text x="12.024" y="3.8409999999999997" class="d">■■■■■■■■■</text><text x="46.09199999999999" y="3.8409999999999997" class="c">27%</text><text x="50.1" y="3.8409999999999997" class="c">|</text><text x="52.104" y="3.8409999999999997" class="c">ETA:</text><text x="58.116" y="3.8409999999999997" class="c">2s</text></svg><svg x="2590"><use xlink:href="#a"></use><use xlink:href="#1" y="0"></use><text x="0" y="3.8409999999999997" class="c">Second</text><text x="7.013999999999999" y="3.8409999999999997" class="c">step</text><text x="12.024" y="3.8409999999999997" class="d">■■■■■■■■■■</text><text x="46.09199999999999" y="3.8409999999999997" class="c">31%</text><text x="50.1" y="3.8409999999999997" class="c">|</text><text x="52.104" y="3.8409999999999997" class="c">ETA:</text><text x="58.116" y="3.8409999999999997" class="c">2s</text></svg><svg x="2660"><use xlink:href="#a"></use><use xlink:href="#1" y="0"></use><text x="0" y="3.8409999999999997" class="c">Second</text><text x="7.013999999999999" y="3.8409999999999997" class="c">step</text><text x="12.024" y="3.8409999999999997" class="d">■■■■■■■■■■■</text><text x="46.09199999999999" y="3.8409999999999997" class="c">35%</text><text x="50.1" y="3.8409999999999997" class="c">|</text><text x="52.104" y="3.8409999999999997" class="c">ETA:</text><text x="58.116" y="3.8409999999999997" class="c">2s</text></svg><svg x="2730"><use xlink:href="#a"></use><use xlink:href="#1" y="0"></use><text x="0" y="3.8409999999999997" class="c">Second</text><text x="7.013999999999999" y="3.8409999999999997" class="c">step</text><text x="12.024" y="3.8409999999999997" class="d">■■■■■■■■■■■■■</text><text x="46.09199999999999" y="3.8409999999999997" class="c">40%</text><text x="50.1" y="3.8409999999999997" class="c">|</text><text x="52.104" y="3.8409999999999997" class="c">ETA:</text><text x="58.116" y="3.8409999999999997" class="c">1s</text></svg><svg x="2800"><use xlink:href="#a"></use><use xlink:href="#1" y="0"></use><text x="0" y="3.8409999999999997" class="c">Second</text><text x="7.013999999999999" y="3.8409999999999997" class="c">step</text><text x="12.024" y="3.8409999999999997" class="d">■■■■■■■■■■■■■■</text><text x="46.09199999999999" y="3.8409999999999997" class="c">44%</text><text x="50.1" y="3.8409999999999997" class="c">|</text><text x="52.104" y="3.8409999999999997" class="c">ETA:</text><text x="58.116" y="3.8409999999999997" class="c">1s</text></svg><svg x="2870"><use xlink:href="#a"></use><use xlink:href="#1" y="0"></use><text x="0" y="3.8409999999999997" class="c">Second</text><text x="7.013999999999999" y="3.8409999999999997" class="c">step</text><text x="12.024" y="3.8409999999999997" class="d">■■■■■■■■■■■■■■■</text><text x="46.09199999999999" y="3.8409999999999997" class="c">48%</text><text x="50.1" y="3.8409999999999997" class="c">|</text><text x="52.104" y="3.8409999999999997" class="c">ETA:</text><text x="58.116" y="3.8409999999999997" class="c">1s</text></svg><svg x="2940"><use xlink:href="#a"></use><use xlink:href="#1" y="0"></use><text x="0" y="3.8409999999999997" class="c">Second</text><text x="7.013999999999999" y="3.8409999999999997" class="c">step</text><text x="12.024" y="3.8409999999999997" class="d">■■■■■■■■■■■■■■■■■</text><text x="46.09199999999999" y="3.8409999999999997" class="c">52%</text><text x="50.1" y="3.8409999999999997" class="c">|</text><text x="52.104" y="3.8409999999999997" class="c">ETA:</text><text x="58.116" y="3.8409999999999997" class="c">1s</text></svg><svg x="3010"><use xlink:href="#a"></use><use xlink:href="#1" y="0"></use><text x="0" y="3.8409999999999997" class="c">Second</text><text x="7.013999999999999" y="3.8409999999999997" class="c">step</text><text x="12.024" y="3.8409999999999997" class="d">■■■■■■■■■■■■■■■■■■</text><text x="46.09199999999999" y="3.8409999999999997" class="c">56%</text><text x="50.1" y="3.8409999999999997" class="c">|</text><text x="52.104" y="3.8409999999999997" class="c">ETA:</text><text x="58.116" y="3.8409999999999997" class="c">1s</text></svg><svg x="3080"><use xlink:href="#a"></use><use xlink:href="#1" y="0"></use><text x="0" y="3.8409999999999997" class="c">Second</text><text x="7.013999999999999" y="3.8409999999999997" class="c">step</text><text x="12.024" y="3.8409999999999997" class="d">■■■■■■■■■■■■■■■■■■■</text><text x="46.09199999999999" y="3.8409999999999997" class="c">60%</text><text x="50.1" y="3.8409999999999997" class="c">|</text><text x="52.104" y="3.8409999999999997" class="c">ETA:</text><text x="58.116" y="3.8409999999999997" class="c">1s</text></svg><svg x="3150"><use xlink:href="#a"></use><use xlink:href="#1" y="0"></use><text x="0" y="3.8409999999999997" class="c">Second</text><text x="7.013999999999999" y="3.8409999999999997" class="c">step</text><text x="12.024" y="3.8409999999999997" class="d">■■■■■■■■■■■■■■■■■■■■■</text><text x="46.09199999999999" y="3.8409999999999997" class="c">65%</text><text x="50.1" y="3.8409999999999997" class="c">|</text><text x="52.104" y="3.8409999999999997" class="c">ETA:</text><text x="58.116" y="3.8409999999999997" class="c">1s</text></svg><svg x="3220"><use xlink:href="#a"></use><use xlink:href="#1" y="0"></use><text x="0" y="3.8409999999999997" class="c">Second</text><text x="7.013999999999999" y="3.8409999999999997" class="c">step</text><text x="12.024" y="3.8409999999999997" class="d">■■■■■■■■■■■■■■■■■■■■■■</text><text x="46.09199999999999" y="3.8409999999999997" class="c">69%</text><text x="50.1" y="3.8409999999999997" class="c">|</text><text x="52.104" y="3.8409999999999997" class="c">ETA:</text><text x="58.116" y="3.8409999999999997" class="c">1s</text></svg><svg x="3290"><use xlink:href="#a"></use><use xlink:href="#1" y="0"></use><text x="0" y="3.8409999999999997" class="c">Second</text><text x="7.013999999999999" y="3.8409999999999997" class="c">step</text><text x="12.024" y="3.8409999999999997" class="d">■■■■■■■■■■■■■■■■■■■■■■■</text><text x="46.09199999999999" y="3.8409999999999997" class="c">73%</text><text x="50.1" y="3.8409999999999997" class="c">|</text><text x="52.104" y="3.8409999999999997" class="c">ETA:</text><text x="58.116" y="3.8409999999999997" class="c">1s</text></svg><svg x="3360"><use xlink:href="#a"></use><use xlink:href="#1" y="0"></use><text x="0" y="3.8409999999999997" class="c">Second</text><text x="7.013999999999999" y="3.8409999999999997" class="c">step</text><text x="12.024" y="3.8409999999999997" class="d">■■■■■■■■■■■■■■■■■■■■■■■■</text><text x="46.09199999999999" y="3.8409999999999997" class="c">77%</text><text x="50.1" y="3.8409999999999997" class="c">|</text><text x="52.104" y="3.8409999999999997" class="c">ETA:</text><text x="58.116" y="3.8409999999999997" class="c">1s</text></svg><svg x="3430"><use xlink:href="#a"></use><use xlink:href="#1" y="0"></use><text x="0" y="3.8409999999999997" class="c">Second</text><text x="7.013999999999999" y="3.8409999999999997" class="c">step</text><text x="12.024" y="3.8409999999999997" class="d">■■■■■■■■■■■■■■■■■■■■■■■■■</text><text x="46.09199999999999" y="3.8409999999999997" class="c">81%</text><text x="50.1" y="3.8409999999999997" class="c">|</text><text x="52.104" y="3.8409999999999997" class="c">ETA:</text><text x="58.116" y="3.8409999999999997" class="c">0s</text></svg><svg x="3500"><use xlink:href="#a"></use><use xlink:href="#1" y="0"></use><text x="0" y="3.8409999999999997" class="c">Second</text><text x="7.013999999999999" y="3.8409999999999997" class="c">step</text><text x="12.024" y="3.8409999999999997" class="d">■■■■■■■■■■■■■■■■■■■■■■■■■■■</text><text x="46.09199999999999" y="3.8409999999999997" class="c">86%</text><text x="50.1" y="3.8409999999999997" class="c">|</text><text x="52.104" y="3.8409999999999997" class="c">ETA:</text><text x="58.116" y="3.8409999999999997" class="c">0s</text></svg><svg x="3570"><use xlink:href="#a"></use><use xlink:href="#1" y="0"></use><text x="0" y="3.8409999999999997" class="c">Second</text><text x="7.013999999999999" y="3.8409999999999997" class="c">step</text><text x="12.024" y="3.8409999999999997" class="d">■■■■■■■■■■■■■■■■■■■■■■■■■■■■</text><text x="46.09199999999999" y="3.8409999999999997" class="c">90%</text><text x="50.1" y="3.8409999999999997" class="c">|</text><text x="52.104" y="3.8409999999999997" class="c">ETA:</text><text x="58.116" y="3.8409999999999997" class="c">0s</text></svg><svg x="3640"><use xlink:href="#a"></use><use xlink:href="#1" y="0"></use><text x="0" y="3.8409999999999997" class="c">Second</text><text x="7.013999999999999" y="3.8409999999999997" class="c">step</text><text x="12.024" y="3.8409999999999997" class="d">■■■■■■■■■■■■■■■■■■■■■■■■■■■■■</text><text x="46.09199999999999" y="3.8409999999999997" class="c">94%</text><text x="50.1" y="3.8409999999999997" class="c">|</text><text x="52.104" y="3.8409999999999997" class="c">ETA:</text><text x="58.116" y="3.8409999999999997" class="c">0s</text></svg><svg x="3710"><use xlink:href="#a"></use><use xlink:href="#1" y="0"></use><text x="0" y="3.8409999999999997" class="c">Second</text><text x="7.013999999999999" y="3.8409999999999997" class="c">step</text><text x="12.024" y="3.8409999999999997" class="d">■■■■■■■■■■■■■■■■■■■■■■■■■■■■■■</text><text x="46.09199999999999" y="3.8409999999999997" class="c">98%</text><text x="50.1" y="3.8409999999999997" class="c">|</text><text x="52.104" y="3.8409999999999997" class="c">ETA:</text><text x="58.116" y="3.8409999999999997" class="c">0s</text></svg><svg x="3780"><use xlink:href="#a"></use><use xlink:href="#1" y="0"></use><use xlink:href="#2" y="2.171"></use></svg><svg x="3850"><use xlink:href="#a"></use><use xlink:href="#1" y="0"></use><use xlink:href="#2" y="2.171"></use></svg><svg x="3920"><use xlink:href="#a"></use><use xlink:href="#1" y="0"></use><use xlink:href="#2" y="2.171"></use></svg></svg></g></g></svg></svg>