<svg xmlns="http://www.w3.org/2000/svg" xmlns:xlink="http://www.w3.org/1999/xlink" width="840" height="61.709999999999994"><rect width="840" height="61.709999999999994" rx="0" ry="0" class="a"></rect><svg height="21.709999999999997" viewBox="0 0 80 2.171" width="800" x="20" xmlns="http://www.w3.org/2000/svg" xmlns:xlink="http://www.w3.org/1999/xlink" y="20"><style>.a{fill:rgb(241,243,245)}.b{font-family:'Fira Code',Monaco,Consolas,Menlo,'Bitstream Vera Sans Mono','Powerline Symbols',monospace}.c{fill:rgb(23,36,49);white-space:pre}.d{fill:transparent}.f{animation-duration:9.694784s;animation-iteration-count:infinite;animation-name:e;animation-timing-function:steps(1,end)}@keyframes e{0%{transform:translateX(-0px)}0.5%{transform:translateX(-80px)}0.5%{transform:translateX(-160px)}1.7%{transform:translateX(-240px)}3.5%{transform:translateX(-320px)}5.8%{transform:translateX(-400px)}8%{transform:translateX(-480px)}10.2%{transform:translateX(-560px)}12.2%{transform:translateX(-640px)}14.4%{transform:translateX(-720px)}16.3%{transform:translateX(-800px)}18.4%{transform:translateX(-880px)}20.7%{transform:translateX(-960px)}22.6%{transform:translateX(-1040px)}24.7%{transform:translateX(-1120px)}27%{transform:translateX(-1200px)}28.9%{transform:translateX(-1280px)}30.9%{transform:translateX(-1360px)}33.2%{transform:translateX(-1440px)}35.2%{transform:translateX(-1520px)}37.5%{transform:translateX(-1600px)}38.1%{transform:translateX(-1680px)}38.1%{transform:translateX(-1760px)}38.1%{transform:translateX(-1840px)}100%{transform:translateX(-1920px)}}</style><g font-family="&#x27;Fira Code&#x27;,Monaco,Consolas,Menlo,&#x27;Bitstream Vera Sans Mono&#x27;,&#x27;Powerline Symbols&#x27;,monospace" font-size="1.67" class="b"><defs><symbol id="1"><text font-size="1.67" x="0" y="1.67" class="c">⠏</text><text font-size="1.67" x="2.004" y="1.67" class="c">Parameter</text><text font-size="1.67" x="12.024" y="1.67" class="c">tuning</text><text font-size="1.67" x="19.037999999999997" y="1.67" class="c">100</text><text font-size="1.67" x="23.045999999999996" y="1.67" class="c">done</text><text font-size="1.67" x="28.055999999999997" y="1.67" class="c">(27/s)</text><text font-size="1.67" x="35.06999999999999" y="1.67" class="c">|</text><text font-size="1.67" x="37.074" y="1.67" class="c">3.7s</text></symbol><symbol id="a"><rect height="1" width="80" x="0" y="0" class="d"></rect></symbol></defs><rect height="2.171" width="80" class="a"></rect><g class="f"><svg x="0" y="0" width="2000"><svg x="0"><use xlink:href="#a"></use></svg><svg x="80"><use xlink:href="#a"></use></svg><svg x="160"><use xlink:href="#a"></use><text font-size="1.67" x="0" y="1.67" class="c">⠙</text><text font-size="1.67" x="2.004" y="1.67" class="c">Parameter</text><text font-size="1.67" x="12.024" y="1.67" class="c">tuning</text><text font-size="1.67" x="19.037999999999997" y="1.67" class="c">1</text><text font-size="1.67" x="21.041999999999998" y="1.67" class="c">done</text><text font-size="1.67" x="26.052" y="1.67" class="c">(28/s)</text><text font-size="1.67" x="33.065999999999995" y="1.67" class="c">|</text><text font-size="1.67" x="35.06999999999999" y="1.67" class="c">36ms</text></svg><svg x="240"><use xlink:href="#a"></use><text font-size="1.67" x="0" y="1.67" class="c">⠹</text><text font-size="1.67" x="2.004" y="1.67" class="c">Parameter</text><text font-size="1.67" x="12.024" y="1.67" class="c">tuning</text><text font-size="1.67" x="19.037999999999997" y="1.67" class="c">4</text><text font-size="1.67" x="21.041999999999998" y="1.67" class="c">done</text><text font-size="1.67" x="26.052" y="1.67" class="c">(28/s)</text><text font-size="1.67" x="33.065999999999995" y="1.67" class="c">|</text><text font-size="1.67" x="35.06999999999999" y="1.67" class="c">146ms</text></svg><svg x="320"><use xlink:href="#a"></use><text font-size="1.67" x="0" y="1.67" class="c">⠸</text><text font-size="1.67" x="2.004" y="1.67" class="c">Parameter</text><text font-size="1.67" x="12.024" y="1.67" class="c">tuning</text><text font-size="1.67" x="19.037999999999997" y="1.67" class="c">9</text><text font-size="1.67" x="21.041999999999998" y="1.67" class="c">done</text><text font-size="1.67" x="26.052" y="1.67" class="c">(27/s)</text><text font-size="1.67" x="33.065999999999995" y="1.67" class="c">|</text><text font-size="1.67" x="35.06999999999999" y="1.67" class="c">328ms</text></svg><svg x="400"><use xlink:href="#a"></use><text font-size="1.67" x="0" y="1.67" class="c">⠼</text><text font-size="1.67" x="2.004" y="1.67" class="c">Parameter</text><text font-size="1.67" x="12.024" y="1.67" class="c">tuning</text><text font-size="1.67" x="19.037999999999997" y="1.67" class="c">15</text><text font-size="1.67" x="22.043999999999997" y="1.67" class="c">done</text><text font-size="1.67" x="27.054" y="1.67" class="c">(28/s)</text><text font-size="1.67" x="34.068" y="1.67" class="c">|</text><text font-size="1.67" x="36.071999999999996" y="1.67" class="c">535ms</text></svg><svg x="480"><use xlink:href="#a"></use><text font-size="1.67" x="0" y="1.67" class="c">⠴</text><text font-size="1.67" x="2.004" y="1.67" class="c">Parameter</text><text font-size="1.67" x="12.024" y="1.67" class="c">tuning</text><text font-size="1.67" x="19.037999999999997" y="1.67" class="c">21</text><text font-size="1.67" x="22.043999999999997" y="1.67" class="c">done</text><text font-size="1.67" x="27.054" y="1.67" class="c">(28/s)</text><text font-size="1.67" x="34.068" y="1.67" class="c">|</text><text font-size="1.67" x="36.071999999999996" y="1.67" class="c">752ms</text></svg><svg x="560"><use xlink:href="#a"></use><text font-size="1.67" x="0" y="1.67" class="c">⠦</text><text font-size="1.67" x="2.004" y="1.67" class="c">Parameter</text><text font-size="1.67" x="12.024" y="1.67" class="c">tuning</text><text font-size="1.67" x="19.037999999999997" y="1.67" class="c">27</text><text font-size="1.67" x="22.043999999999997" y="1.67" class="c">done</text><text font-size="1.67" x="27.054" y="1.67" class="c">(28/s)</text><text font-size="1.67" x="34.068" y="1.67" class="c">|</text><text font-size="1.67" x="36.071999999999996" y="1.67" class="c">968ms</text></svg><svg x="640"><use xlink:href="#a"></use><text font-size="1.67" x="0" y="1.67" class="c">⠧</text><text font-size="1.67" x="2.004" y="1.67" class="c">Parameter</text><text font-size="1.67" x="12.024" y="1.67" class="c">tuning</text><text font-size="1.67" x="19.037999999999997" y="1.67" class="c">32</text><text font-size="1.67" x="22.043999999999997" y="1.67" class="c">done</text><text font-size="1.67" x="27.054" y="1.67" class="c">(28/s)</text><text font-size="1.67" x="34.068" y="1.67" class="c">|</text><text font-size="1.67" x="36.071999999999996" y="1.67" class="c">1.2s</text></svg><svg x="720"><use xlink:href="#a"></use><text font-size="1.67" x="0" y="1.67" class="c">⠇</text><text font-size="1.67" x="2.004" y="1.67" class="c">Parameter</text><text font-size="1.67" x="12.024" y="1.67" class="c">tuning</text><text font-size="1.67" x="19.037999999999997" y="1.67" class="c">38</text><text font-size="1.67" x="22.043999999999997" y="1.67" class="c">done</text><text font-size="1.67" x="27.054" y="1.67" class="c">(28/s)</text><text font-size="1.67" x="34.068" y="1.67" class="c">|</text><text font-size="1.67" x="36.071999999999996" y="1.67" class="c">1.4s</text></svg><svg x="800"><use xlink:href="#a"></use><text font-size="1.67" x="0" y="1.67" class="c">⠏</text><text font-size="1.67" x="2.004" y="1.67" class="c">Parameter</text><text font-size="1.67" x="12.024" y="1.67" class="c">tuning</text><text font-size="1.67" x="19.037999999999997" y="1.67" class="c">43</text><text font-size="1.67" x="22.043999999999997" y="1.67" class="c">done</text><text font-size="1.67" x="27.054" y="1.67" class="c">(28/s)</text><text font-size="1.67" x="34.068" y="1.67" class="c">|</text><text font-size="1.67" x="36.071999999999996" y="1.67" class="c">1.6s</text></svg><svg x="880"><use xlink:href="#a"></use><text font-size="1.67" x="0" y="1.67" class="c">⠋</text><text font-size="1.67" x="2.004" y="1.67" class="c">Parameter</text><text font-size="1.67" x="12.024" y="1.67" class="c">tuning</text><text font-size="1.67" x="19.037999999999997" y="1.67" class="c">49</text><text font-size="1.67" x="22.043999999999997" y="1.67" class="c">done</text><text font-size="1.67" x="27.054" y="1.67" class="c">(28/s)</text><text font-size="1.67" x="34.068" y="1.67" class="c">|</text><text font-size="1.67" x="36.071999999999996" y="1.67" class="c">1.8s</text></svg><svg x="960"><use xlink:href="#a"></use><text font-size="1.67" x="0" y="1.67" class="c">⠙</text><text font-size="1.67" x="2.004" y="1.67" class="c">Parameter</text><text font-size="1.67" x="12.024" y="1.67" class="c">tuning</text><text font-size="1.67" x="19.037999999999997" y="1.67" class="c">55</text><text font-size="1.67" x="22.043999999999997" y="1.67" class="c">done</text><text font-size="1.67" x="27.054" y="1.67" class="c">(28/s)</text><text font-size="1.67" x="34.068" y="1.67" class="c">|</text><text font-size="1.67" x="36.071999999999996" y="1.67" class="c">2s</text></svg><svg x="1040"><use xlink:href="#a"></use><text font-size="1.67" x="0" y="1.67" class="c">⠹</text><text font-size="1.67" x="2.004" y="1.67" class="c">Parameter</text><text font-size="1.67" x="12.024" y="1.67" class="c">tuning</text><text font-size="1.67" x="19.037999999999997" y="1.67" class="c">60</text><text font-size="1.67" x="22.043999999999997" y="1.67" class="c">done</text><text font-size="1.67" x="27.054" y="1.67" class="c">(28/s)</text><text font-size="1.67" x="34.068" y="1.67" class="c">|</text><text font-size="1.67" x="36.071999999999996" y="1.67" class="c">2.2s</text></svg><svg x="1120"><use xlink:href="#a"></use><text font-size="1.67" x="0" y="1.67" class="c">⠸</text><text font-size="1.67" x="2.004" y="1.67" class="c">Parameter</text><text font-size="1.67" x="12.024" y="1.67" class="c">tuning</text><text font-size="1.67" x="19.037999999999997" y="1.67" class="c">66</text><text font-size="1.67" x="22.043999999999997" y="1.67" class="c">done</text><text font-size="1.67" x="27.054" y="1.67" class="c">(28/s)</text><text font-size="1.67" x="34.068" y="1.67" class="c">|</text><text font-size="1.67" x="36.071999999999996" y="1.67" class="c">2.4s</text></svg><svg x="1200"><use xlink:href="#a"></use><text font-size="1.67" x="0" y="1.67" class="c">⠼</text><text font-size="1.67" x="2.004" y="1.67" class="c">Parameter</text><text font-size="1.67" x="12.024" y="1.67" class="c">tuning</text><text font-size="1.67" x="19.037999999999997" y="1.67" class="c">72</text><text font-size="1.67" x="22.043999999999997" y="1.67" class="c">done</text><text font-size="1.67" x="27.054" y="1.67" class="c">(28/s)</text><text font-size="1.67" x="34.068" y="1.67" class="c">|</text><text font-size="1.67" x="36.071999999999996" y="1.67" class="c">2.6s</text></svg><svg x="1280"><use xlink:href="#a"></use><text font-size="1.67" x="0" y="1.67" class="c">⠴</text><text font-size="1.67" x="2.004" y="1.67" class="c">Parameter</text><text font-size="1.67" x="12.024" y="1.67" class="c">tuning</text><text font-size="1.67" x="19.037999999999997" y="1.67" class="c">77</text><text font-size="1.67" x="22.043999999999997" y="1.67" class="c">done</text><text font-size="1.67" x="27.054" y="1.67" class="c">(28/s)</text><text font-size="1.67" x="34.068" y="1.67" class="c">|</text><text font-size="1.67" x="36.071999999999996" y="1.67" class="c">2.8s</text></svg><svg x="1360"><use xlink:href="#a"></use><text font-size="1.67" x="0" y="1.67" class="c">⠦</text><text font-size="1.67" x="2.004" y="1.67" class="c">Parameter</text><text font-size="1.67" x="12.024" y="1.67" class="c">tuning</text><text font-size="1.67" x="19.037999999999997" y="1.67" class="c">82</text><text font-size="1.67" x="22.043999999999997" y="1.67" class="c">done</text><text font-size="1.67" x="27.054" y="1.67" class="c">(28/s)</text><text font-size="1.67" x="34.068" y="1.67" class="c">|</text><text font-size="1.67" x="36.071999999999996" y="1.67" class="c">3s</text></svg><svg x="1440"><use xlink:href="#a"></use><text font-size="1.67" x="0" y="1.67" class="c">⠧</text><text font-size="1.67" x="2.004" y="1.67" class="c">Parameter</text><text font-size="1.67" x="12.024" y="1.67" class="c">tuning</text><text font-size="1.67" x="19.037999999999997" y="1.67" class="c">88</text><text font-size="1.67" x="22.043999999999997" y="1.67" class="c">done</text><text font-size="1.67" x="27.054" y="1.67" class="c">(28/s)</text><text font-size="1.67" x="34.068" y="1.67" class="c">|</text><text font-size="1.67" x="36.071999999999996" y="1.67" class="c">3.2s</text></svg><svg x="1520"><use xlink:href="#a"></use><text font-size="1.67" x="0" y="1.67" class="c">⠇</text><text font-size="1.67" x="2.004" y="1.67" class="c">Parameter</text><text font-size="1.67" x="12.024" y="1.67" class="c">tuning</text><text font-size="1.67" x="19.037999999999997" y="1.67" class="c">93</text><text font-size="1.67" x="22.043999999999997" y="1.67" class="c">done</text><text font-size="1.67" x="27.054" y="1.67" class="c">(27/s)</text><text font-size="1.67" x="34.068" y="1.67" class="c">|</text><text font-size="1.67" x="36.071999999999996" y="1.67" class="c">3.4s</text></svg><svg x="1600"><use xlink:href="#a"></use><text font-size="1.67" x="0" y="1.67" class="c">⠏</text><text font-size="1.67" x="2.004" y="1.67" class="c">Parameter</text><text font-size="1.67" x="12.024" y="1.67" class="c">tuning</text><text font-size="1.67" x="19.037999999999997" y="1.67" class="c">99</text><text font-size="1.67" x="22.043999999999997" y="1.67" class="c">done</text><text font-size="1.67" x="27.054" y="1.67" class="c">(27/s)</text><text font-size="1.67" x="34.068" y="1.67" class="c">|</text><text font-size="1.67" x="36.071999999999996" y="1.67" class="c">3.6s</text></svg><svg x="1680"><use xlink:href="#a"></use><use xlink:href="#1" y="0"></use></svg><svg x="1760"><use xlink:href="#a"></use><use xlink:href="#1" y="0"></use></svg><svg x="1840"><use xlink:href="#a"></use><use xlink:href="#1" y="0"></use></svg><svg x="1920"><use xlink:href="#a"></use><use xlink:href="#1" y="0"></use></svg></svg></g></g></svg></svg>