<svg xmlns="http://www.w3.org/2000/svg" xmlns:xlink="http://www.w3.org/1999/xlink" width="740" height="83.41999999999999"><rect width="740" height="83.41999999999999" rx="0" ry="0" class="a"></rect><svg height="43.419999999999995" viewBox="0 0 70 4.342" width="700" x="20" xmlns="http://www.w3.org/2000/svg" xmlns:xlink="http://www.w3.org/1999/xlink" y="20"><style>.a{fill:rgb(40,45,53)}.b{font-family:'Fira Code',Monaco,Consolas,Menlo,'Bitstream Vera Sans Mono','Powerline Symbols',monospace}.c{fill:rgb(185,192,203);white-space:pre}.d{fill:rgb(168,204,140);white-space:pre}.e{fill:transparent}.g{animation-duration:7.78785014152527s;animation-iteration-count:infinite;animation-name:f;animation-timing-function:steps(1,end)}@keyframes f{0%{transform:translateX(-0px)}0.1%{transform:translateX(-70px)}1.5%{transform:translateX(-140px)}3%{transform:translateX(-210px)}29.1%{transform:translateX(-280px)}29.2%{transform:translateX(-350px)}30.4%{transform:translateX(-420px)}31.6%{transform:translateX(-490px)}32.8%{transform:translateX(-560px)}34%{transform:translateX(-630px)}35.2%{transform:translateX(-700px)}37%{transform:translateX(-770px)}38.1%{transform:translateX(-840px)}39.2%{transform:translateX(-910px)}40.4%{transform:translateX(-980px)}42.2%{transform:translateX(-1050px)}43.4%{transform:translateX(-1120px)}44.5%{transform:translateX(-1190px)}45.7%{transform:translateX(-1260px)}46.9%{transform:translateX(-1330px)}48.7%{transform:translateX(-1400px)}49.9%{transform:translateX(-1470px)}51.1%{transform:translateX(-1540px)}52.3%{transform:translateX(-1610px)}53.5%{transform:translateX(-1680px)}54.8%{transform:translateX(-1750px)}56.5%{transform:translateX(-1820px)}57.8%{transform:translateX(-1890px)}58.9%{transform:translateX(-1960px)}60.1%{transform:translateX(-2030px)}60.1%{transform:translateX(-2100px)}60.1%{transform:translateX(-2170px)}100%{transform:translateX(-2240px)}}</style><g font-family="&#x27;Fira Code&#x27;,Monaco,Consolas,Menlo,&#x27;Bitstream Vera Sans Mono&#x27;,&#x27;Powerline Symbols&#x27;,monospace" font-size="1.67" class="b"><defs><symbol id="1"><text x="0" y="1.67" class="c">→</text><text x="2.004" y="1.67" class="c">Starting</text><text x="11.021999999999998" y="1.67" class="c">now,</text><text x="16.032" y="1.67" class="c">at</text><text x="19.037999999999997" y="1.67" class="c">2021-08-02</text><text x="30.059999999999995" y="1.67" class="c">13:27:27</text></symbol><symbol id="2"><text x="0" y="1.67" class="d">■■■■■■■■■■■■■■■■■■■■■■■■■■■■■■■</text><text x="33.065999999999995" y="1.67" class="c">100%</text><text x="38.07599999999999" y="1.67" class="c">@</text><text x="40.08" y="1.67" class="c">2021-08-02</text><text x="51.102" y="1.67" class="c">13:27:32</text></symbol><symbol id="a"><rect height="3" width="70" x="0" y="0" class="e"></rect></symbol></defs><rect height="4.342" width="70" class="a"></rect><g class="g"><svg x="0" y="0" width="2310"><svg x="0"><use xlink:href="#a"></use></svg><svg x="70"><use xlink:href="#a"></use></svg><svg x="140"><use xlink:href="#a"></use></svg><svg x="210"><use xlink:href="#a"></use><use xlink:href="#1" y="0"></use></svg><svg x="280"><use xlink:href="#a"></use><use xlink:href="#1" y="0"></use></svg><svg x="350"><use xlink:href="#a"></use><use xlink:href="#1" y="0"></use><text x="0" y="3.8409999999999997" class="d">■■■■■■■■■■■■■■■</text><text x="34.068" y="3.8409999999999997" class="c">48%</text><text x="38.07599999999999" y="3.8409999999999997" class="c">@</text><text x="40.08" y="3.8409999999999997" class="c">2021-08-02</text><text x="51.102" y="3.8409999999999997" class="c">13:27:29</text></svg><svg x="420"><use xlink:href="#a"></use><use xlink:href="#1" y="0"></use><text x="0" y="3.8409999999999997" class="d">■■■■■■■■■■■■■■■■</text><text x="34.068" y="3.8409999999999997" class="c">50%</text><text x="38.07599999999999" y="3.8409999999999997" class="c">@</text><text x="40.08" y="3.8409999999999997" class="c">2021-08-02</text><text x="51.102" y="3.8409999999999997" class="c">13:27:29</text></svg><svg x="490"><use xlink:href="#a"></use><use xlink:href="#1" y="0"></use><text x="0" y="3.8409999999999997" class="d">■■■■■■■■■■■■■■■■■</text><text x="34.068" y="3.8409999999999997" class="c">52%</text><text x="38.07599999999999" y="3.8409999999999997" class="c">@</text><text x="40.08" y="3.8409999999999997" class="c">2021-08-02</text><text x="51.102" y="3.8409999999999997" class="c">13:27:29</text></svg><svg x="560"><use xlink:href="#a"></use><use xlink:href="#1" y="0"></use><text x="0" y="3.8409999999999997" class="d">■■■■■■■■■■■■■■■■■</text><text x="34.068" y="3.8409999999999997" class="c">54%</text><text x="38.07599999999999" y="3.8409999999999997" class="c">@</text><text x="40.08" y="3.8409999999999997" class="c">2021-08-02</text><text x="51.102" y="3.8409999999999997" class="c">13:27:29</text></svg><svg x="630"><use xlink:href="#a"></use><use xlink:href="#1" y="0"></use><text x="0" y="3.8409999999999997" class="d">■■■■■■■■■■■■■■■■■■</text><text x="34.068" y="3.8409999999999997" class="c">56%</text><text x="38.07599999999999" y="3.8409999999999997" class="c">@</text><text x="40.08" y="3.8409999999999997" class="c">2021-08-02</text><text x="51.102" y="3.8409999999999997" class="c">13:27:30</text></svg><svg x="700"><use xlink:href="#a"></use><use xlink:href="#1" y="0"></use><text x="0" y="3.8409999999999997" class="d">■■■■■■■■■■■■■■■■■■</text><text x="34.068" y="3.8409999999999997" class="c">58%</text><text x="38.07599999999999" y="3.8409999999999997" class="c">@</text><text x="40.08" y="3.8409999999999997" class="c">2021-08-02</text><text x="51.102" y="3.8409999999999997" class="c">13:27:30</text></svg><svg x="770"><use xlink:href="#a"></use><use xlink:href="#1" y="0"></use><text x="0" y="3.8409999999999997" class="d">■■■■■■■■■■■■■■■■■■■</text><text x="34.068" y="3.8409999999999997" class="c">61%</text><text x="38.07599999999999" y="3.8409999999999997" class="c">@</text><text x="40.08" y="3.8409999999999997" class="c">2021-08-02</text><text x="51.102" y="3.8409999999999997" class="c">13:27:30</text></svg><svg x="840"><use xlink:href="#a"></use><use xlink:href="#1" y="0"></use><text x="0" y="3.8409999999999997" class="d">■■■■■■■■■■■■■■■■■■■■</text><text x="34.068" y="3.8409999999999997" class="c">63%</text><text x="38.07599999999999" y="3.8409999999999997" class="c">@</text><text x="40.08" y="3.8409999999999997" class="c">2021-08-02</text><text x="51.102" y="3.8409999999999997" class="c">13:27:30</text></svg><svg x="910"><use xlink:href="#a"></use><use xlink:href="#1" y="0"></use><text x="0" y="3.8409999999999997" class="d">■■■■■■■■■■■■■■■■■■■■■</text><text x="34.068" y="3.8409999999999997" class="c">65%</text><text x="38.07599999999999" y="3.8409999999999997" class="c">@</text><text x="40.08" y="3.8409999999999997" class="c">2021-08-02</text><text x="51.102" y="3.8409999999999997" class="c">13:27:30</text></svg><svg x="980"><use xlink:href="#a"></use><use xlink:href="#1" y="0"></use><text x="0" y="3.8409999999999997" class="d">■■■■■■■■■■■■■■■■■■■■■</text><text x="34.068" y="3.8409999999999997" class="c">67%</text><text x="38.07599999999999" y="3.8409999999999997" class="c">@</text><text x="40.08" y="3.8409999999999997" class="c">2021-08-02</text><text x="51.102" y="3.8409999999999997" class="c">13:27:30</text></svg><svg x="1050"><use xlink:href="#a"></use><use xlink:href="#1" y="0"></use><text x="0" y="3.8409999999999997" class="d">■■■■■■■■■■■■■■■■■■■■■■</text><text x="34.068" y="3.8409999999999997" class="c">70%</text><text x="38.07599999999999" y="3.8409999999999997" class="c">@</text><text x="40.08" y="3.8409999999999997" class="c">2021-08-02</text><text x="51.102" y="3.8409999999999997" class="c">13:27:30</text></svg><svg x="1120"><use xlink:href="#a"></use><use xlink:href="#1" y="0"></use><text x="0" y="3.8409999999999997" class="d">■■■■■■■■■■■■■■■■■■■■■■■</text><text x="34.068" y="3.8409999999999997" class="c">72%</text><text x="38.07599999999999" y="3.8409999999999997" class="c">@</text><text x="40.08" y="3.8409999999999997" class="c">2021-08-02</text><text x="51.102" y="3.8409999999999997" class="c">13:27:30</text></svg><svg x="1190"><use xlink:href="#a"></use><use xlink:href="#1" y="0"></use><text x="0" y="3.8409999999999997" class="d">■■■■■■■■■■■■■■■■■■■■■■■</text><text x="34.068" y="3.8409999999999997" class="c">74%</text><text x="38.07599999999999" y="3.8409999999999997" class="c">@</text><text x="40.08" y="3.8409999999999997" class="c">2021-08-02</text><text x="51.102" y="3.8409999999999997" class="c">13:27:30</text></svg><svg x="1260"><use xlink:href="#a"></use><use xlink:href="#1" y="0"></use><text x="0" y="3.8409999999999997" class="d">■■■■■■■■■■■■■■■■■■■■■■■■</text><text x="34.068" y="3.8409999999999997" class="c">76%</text><text x="38.07599999999999" y="3.8409999999999997" class="c">@</text><text x="40.08" y="3.8409999999999997" class="c">2021-08-02</text><text x="51.102" y="3.8409999999999997" class="c">13:27:30</text></svg><svg x="1330"><use xlink:href="#a"></use><use xlink:href="#1" y="0"></use><text x="0" y="3.8409999999999997" class="d">■■■■■■■■■■■■■■■■■■■■■■■■</text><text x="34.068" y="3.8409999999999997" class="c">78%</text><text x="38.07599999999999" y="3.8409999999999997" class="c">@</text><text x="40.08" y="3.8409999999999997" class="c">2021-08-02</text><text x="51.102" y="3.8409999999999997" class="c">13:27:31</text></svg><svg x="1400"><use xlink:href="#a"></use><use xlink:href="#1" y="0"></use><text x="0" y="3.8409999999999997" class="d">■■■■■■■■■■■■■■■■■■■■■■■■■</text><text x="34.068" y="3.8409999999999997" class="c">81%</text><text x="38.07599999999999" y="3.8409999999999997" class="c">@</text><text x="40.08" y="3.8409999999999997" class="c">2021-08-02</text><text x="51.102" y="3.8409999999999997" class="c">13:27:31</text></svg><svg x="1470"><use xlink:href="#a"></use><use xlink:href="#1" y="0"></use><text x="0" y="3.8409999999999997" class="d">■■■■■■■■■■■■■■■■■■■■■■■■■■</text><text x="34.068" y="3.8409999999999997" class="c">83%</text><text x="38.07599999999999" y="3.8409999999999997" class="c">@</text><text x="40.08" y="3.8409999999999997" class="c">2021-08-02</text><text x="51.102" y="3.8409999999999997" class="c">13:27:31</text></svg><svg x="1540"><use xlink:href="#a"></use><use xlink:href="#1" y="0"></use><text x="0" y="3.8409999999999997" class="d">■■■■■■■■■■■■■■■■■■■■■■■■■■■</text><text x="34.068" y="3.8409999999999997" class="c">85%</text><text x="38.07599999999999" y="3.8409999999999997" class="c">@</text><text x="40.08" y="3.8409999999999997" class="c">2021-08-02</text><text x="51.102" y="3.8409999999999997" class="c">13:27:31</text></svg><svg x="1610"><use xlink:href="#a"></use><use xlink:href="#1" y="0"></use><text x="0" y="3.8409999999999997" class="d">■■■■■■■■■■■■■■■■■■■■■■■■■■■</text><text x="34.068" y="3.8409999999999997" class="c">87%</text><text x="38.07599999999999" y="3.8409999999999997" class="c">@</text><text x="40.08" y="3.8409999999999997" class="c">2021-08-02</text><text x="51.102" y="3.8409999999999997" class="c">13:27:31</text></svg><svg x="1680"><use xlink:href="#a"></use><use xlink:href="#1" y="0"></use><text x="0" y="3.8409999999999997" class="d">■■■■■■■■■■■■■■■■■■■■■■■■■■■■</text><text x="34.068" y="3.8409999999999997" class="c">89%</text><text x="38.07599999999999" y="3.8409999999999997" class="c">@</text><text x="40.08" y="3.8409999999999997" class="c">2021-08-02</text><text x="51.102" y="3.8409999999999997" class="c">13:27:31</text></svg><svg x="1750"><use xlink:href="#a"></use><use xlink:href="#1" y="0"></use><text x="0" y="3.8409999999999997" class="d">■■■■■■■■■■■■■■■■■■■■■■■■■■■■</text><text x="34.068" y="3.8409999999999997" class="c">91%</text><text x="38.07599999999999" y="3.8409999999999997" class="c">@</text><text x="40.08" y="3.8409999999999997" class="c">2021-08-02</text><text x="51.102" y="3.8409999999999997" class="c">13:27:31</text></svg><svg x="1820"><use xlink:href="#a"></use><use xlink:href="#1" y="0"></use><text x="0" y="3.8409999999999997" class="d">■■■■■■■■■■■■■■■■■■■■■■■■■■■■■</text><text x="34.068" y="3.8409999999999997" class="c">94%</text><text x="38.07599999999999" y="3.8409999999999997" class="c">@</text><text x="40.08" y="3.8409999999999997" class="c">2021-08-02</text><text x="51.102" y="3.8409999999999997" class="c">13:27:31</text></svg><svg x="1890"><use xlink:href="#a"></use><use xlink:href="#1" y="0"></use><text x="0" y="3.8409999999999997" class="d">■■■■■■■■■■■■■■■■■■■■■■■■■■■■■■</text><text x="34.068" y="3.8409999999999997" class="c">96%</text><text x="38.07599999999999" y="3.8409999999999997" class="c">@</text><text x="40.08" y="3.8409999999999997" class="c">2021-08-02</text><text x="51.102" y="3.8409999999999997" class="c">13:27:31</text></svg><svg x="1960"><use xlink:href="#a"></use><use xlink:href="#1" y="0"></use><text x="0" y="3.8409999999999997" class="d">■■■■■■■■■■■■■■■■■■■■■■■■■■■■■■</text><text x="34.068" y="3.8409999999999997" class="c">98%</text><text x="38.07599999999999" y="3.8409999999999997" class="c">@</text><text x="40.08" y="3.8409999999999997" class="c">2021-08-02</text><text x="51.102" y="3.8409999999999997" class="c">13:27:31</text></svg><svg x="2030"><use xlink:href="#a"></use><use xlink:href="#1" y="0"></use><use xlink:href="#2" y="2.171"></use></svg><svg x="2100"><use xlink:href="#a"></use><use xlink:href="#1" y="0"></use><use xlink:href="#2" y="2.171"></use></svg><svg x="2170"><use xlink:href="#a"></use><use xlink:href="#1" y="0"></use><use xlink:href="#2" y="2.171"></use></svg><svg x="2240"><use xlink:href="#a"></use><use xlink:href="#1" y="0"></use><use xlink:href="#2" y="2.171"></use></svg></svg></g></g></svg></svg>