<svg xmlns="http://www.w3.org/2000/svg" xmlns:xlink="http://www.w3.org/1999/xlink" width="740" height="582.75"><rect width="740" height="582.75" rx="0" ry="0" class="a"></rect><svg height="542.75" viewBox="0 0 70 54.275" width="700" x="20" xmlns="http://www.w3.org/2000/svg" xmlns:xlink="http://www.w3.org/1999/xlink" y="20"><style>.a{fill:rgb(40,45,53)}.b{font-family:'Fira Code',Monaco,Consolas,Menlo,'Bitstream Vera Sans Mono','Powerline Symbols',monospace}.c{fill:transparent}.d{fill:rgb(185,192,203);white-space:pre}</style><g font-family="&#x27;Fira Code&#x27;,Monaco,Consolas,Menlo,&#x27;Bitstream Vera Sans Mono&#x27;,&#x27;Powerline Symbols&#x27;,monospace" font-size="1.67" class="b"><defs><symbol id="a"><rect height="26" width="70" x="0" y="0" class="c"></rect></symbol></defs><rect height="54.275" width="70" class="a"></rect><svg x="0" y="0" width="70"><svg x="0"><use xlink:href="#a"></use><text x="0" y="1.67" class="d">rcmdcheck</text><text x="0" y="3.8409999999999997" class="d">├─callr</text><text x="0" y="6.012" class="d">│</text><text x="2.004" y="6.012" class="d">├─processx</text><text x="0" y="8.183" class="d">│</text><text x="2.004" y="8.183" class="d">│</text><text x="4.008" y="8.183" class="d">├─assertthat</text><text x="0" y="10.354" class="d">│</text><text x="2.004" y="10.354" class="d">│</text><text x="4.008" y="10.354" class="d">├─crayon</text><text x="0" y="12.525" class="d">│</text><text x="2.004" y="12.525" class="d">│</text><text x="4.008" y="12.525" class="d">├─debugme</text><text x="0" y="14.696" class="d">│</text><text x="2.004" y="14.696" class="d">│</text><text x="4.008" y="14.696" class="d">│</text><text x="6.012" y="14.696" class="d">└─crayon</text><text x="0" y="16.866999999999997" class="d">│</text><text x="2.004" y="16.866999999999997" class="d">│</text><text x="4.008" y="16.866999999999997" class="d">└─R6</text><text x="0" y="19.037999999999997" class="d">│</text><text x="2.004" y="19.037999999999997" class="d">└─R6</text><text x="0" y="21.209000000000003" class="d">├─clisymbols</text><text x="0" y="23.380000000000003" class="d">├─crayon</text><text x="0" y="25.550999999999995" class="d">├─desc</text><text x="0" y="27.722" class="d">│</text><text x="2.004" y="27.722" class="d">├─assertthat</text><text x="0" y="29.893" class="d">│</text><text x="2.004" y="29.893" class="d">├─R6</text><text x="0" y="32.064" class="d">│</text><text x="2.004" y="32.064" class="d">├─crayon</text><text x="0" y="34.235" class="d">│</text><text x="2.004" y="34.235" class="d">└─rprojroot</text><text x="0" y="36.406" class="d">│</text><text x="4.008" y="36.406" class="d">└─backports</text><text x="0" y="38.577000000000005" class="d">├─digest</text><text x="0" y="40.748000000000005" class="d">├─prettyunits</text><text x="0" y="42.919" class="d">│</text><text x="2.004" y="42.919" class="d">├─magrittr</text><text x="0" y="45.09" class="d">│</text><text x="2.004" y="45.09" class="d">└─assertthat</text><text x="0" y="47.261" class="d">├─R6</text><text x="0" y="49.431999999999995" class="d">├─rprojroot</text><text x="0" y="51.603" class="d">│</text><text x="2.004" y="51.603" class="d">└─backports</text><text x="0" y="53.774" class="d">└─withr</text></svg></svg></g></svg></svg>